<svg xmlns="http://www.w3.org/2000/svg" width="24" height="24" viewBox="0 0 24 24" fill="none">
  <path fill-rule="evenodd" clip-rule="evenodd" d="M15.3474 24H8.65144C2.58722 24 0 21.4128 0 15.3486V8.65038C0 2.58724 2.58722 0 8.65144 0H15.3496C21.4139 0 24 2.58724 24 8.65038V15.3486C23.9978 21.4128 21.4116 24 15.3474 24ZM22.3255 8.65038C22.3255 3.49994 20.499 1.67343 15.3474 1.67343H8.65144C3.50101 1.67343 1.67453 3.49994 1.67453 8.65038V15.3486C1.67453 20.5001 3.50101 22.3255 8.65144 22.3255H15.3496C20.5012 22.3255 22.3277 20.5001 22.3277 15.3486V8.65038H22.3255ZM11.0059 15.7552C10.9282 15.833 10.836 15.8948 10.7344 15.9369C10.6328 15.979 10.5239 16.0007 10.414 16.0007C10.304 16.0007 10.1952 15.979 10.0936 15.9369C9.99204 15.8948 9.89975 15.833 9.82208 15.7552L6.66209 12.5963C6.5814 12.5192 6.51689 12.4268 6.47242 12.3245C6.42795 12.2221 6.40439 12.1119 6.4031 12.0004C6.40182 11.8888 6.42284 11.7781 6.46495 11.6748C6.50705 11.5715 6.56938 11.4776 6.64828 11.3987C6.72718 11.3198 6.82108 11.2574 6.92441 11.2153C7.02774 11.1732 7.13841 11.1522 7.24998 11.1535C7.36154 11.1548 7.47174 11.1784 7.57407 11.2229C7.6764 11.2674 7.76881 11.3318 7.84587 11.4125L10.4134 13.98L16.1509 8.25249C16.2287 8.17476 16.321 8.11313 16.4226 8.0711C16.5242 8.02906 16.6331 8.00747 16.7431 8.00752C16.8531 8.00757 16.962 8.02923 17.0636 8.07136C17.1652 8.11349 17.2574 8.17523 17.3352 8.25303C17.4129 8.33082 17.4745 8.4232 17.5166 8.52482C17.5586 8.62644 17.5802 8.73534 17.5802 8.84531C17.5801 8.95529 17.5584 9.06416 17.5162 9.16574C17.4741 9.26733 17.4124 9.35961 17.3346 9.43734L11.0059 15.7552Z" fill="#757B8A"/>
</svg>