<svg xmlns="http://www.w3.org/2000/svg" width="22" height="24" viewBox="0 0 22 24" fill="none">
  <path fill-rule="evenodd" clip-rule="evenodd" d="M11.2121 13.9519C11.1084 13.9507 11.0059 13.9282 10.9105 13.8855C10.8151 13.8428 10.7287 13.7808 10.6561 13.7031C10.5836 13.6253 10.5263 13.5333 10.4876 13.4324C10.449 13.3314 10.4296 13.2235 10.4307 13.1147V7.53442C10.4307 7.31703 10.513 7.10854 10.6596 6.95482C10.8061 6.8011 11.0048 6.71475 11.2121 6.71475C11.4193 6.71475 11.618 6.8011 11.7645 6.95482C11.9111 7.10854 11.9934 7.31703 11.9934 7.53442V13.1147C11.9945 13.2235 11.9752 13.3314 11.9365 13.4324C11.8978 13.5333 11.8405 13.6253 11.768 13.7031C11.6954 13.7808 11.609 13.8428 11.5136 13.8855C11.4182 13.9282 11.3158 13.9507 11.2121 13.9519ZM20.3276 14.2306C20.2239 14.2294 20.1214 14.2068 20.026 14.1641C19.9306 14.1215 19.8442 14.0595 19.7717 13.9817C19.6991 13.904 19.6419 13.812 19.6032 13.7111C19.5645 13.6101 19.5452 13.5022 19.5463 13.3934C19.5112 11.6726 18.9927 10.001 18.0559 8.58795C17.1191 7.17495 15.8055 6.08344 14.2799 5.45026C12.7543 4.81707 11.0845 4.67038 9.47968 5.02855C7.87491 5.38671 6.40658 6.23381 5.25878 7.46368C4.11097 8.69354 3.33472 10.2514 3.02732 11.9421C2.71992 13.6328 2.89503 15.3811 3.53072 16.9679C4.16642 18.5546 5.23444 19.9092 6.60087 20.8619C7.9673 21.8146 9.57137 22.323 11.2121 22.3234C11.4237 22.3234 11.6267 22.4116 11.7763 22.5686C11.926 22.7256 12.01 22.9385 12.01 23.1606C12.01 23.3826 11.926 23.5955 11.7763 23.7525C11.6267 23.9095 11.4237 23.9977 11.2121 23.9977C9.20507 24.0412 7.23122 23.4565 5.54224 22.3184C3.85326 21.1802 2.52568 19.5401 1.72879 17.6073C0.931898 15.6744 0.70182 13.5364 1.06788 11.4658C1.43395 9.39517 2.37958 7.48586 3.78417 5.98133C5.18877 4.4768 6.98871 3.44524 8.9544 3.01816C10.9201 2.59109 12.9625 2.78788 14.8211 3.58342C16.6798 4.37896 18.2705 5.7372 19.3904 7.48495C20.5102 9.23271 21.1085 11.2908 21.1089 13.3967C21.1103 13.6158 21.0289 13.8266 20.8825 13.9829C20.736 14.1392 20.5365 14.2282 20.3276 14.2306ZM14.3374 1.67433H8.08672C7.87508 1.67433 7.67212 1.58612 7.52247 1.42912C7.37281 1.27212 7.28873 1.05917 7.28873 0.837146C7.28873 0.615119 7.37281 0.402204 7.52247 0.245207C7.67212 0.08821 7.87508 0 8.08672 0H14.3374C14.549 0 14.752 0.08821 14.9016 0.245207C15.0513 0.402204 15.1354 0.615119 15.1354 0.837146C15.1354 1.05917 15.0513 1.27212 14.9016 1.42912C14.752 1.58612 14.549 1.67433 14.3374 1.67433ZM14.5363 15.6087C14.9204 15.4018 15.351 15.3089 15.7817 15.3399C16.2124 15.3709 16.6269 15.5247 16.9804 15.7846L19.0639 17.0797C19.4679 17.2651 19.8116 17.5701 20.053 17.9572C20.2944 18.3444 20.4229 18.7969 20.4229 19.2595C20.4229 19.7221 20.2944 20.1747 20.053 20.5618C19.8116 20.949 19.4679 21.2539 19.0639 21.4393L16.9804 22.7344C16.5471 23.0194 16.0487 23.1768 15.5375 23.1901C15.1858 23.1931 14.84 23.0965 14.5363 22.9103C14.1744 22.6533 13.8835 22.3005 13.6931 21.8877C13.5027 21.475 13.4195 21.0168 13.4519 20.5595V17.9584C13.4193 17.5013 13.5025 17.0432 13.6929 16.6306C13.8833 16.2179 14.1743 15.8654 14.5363 15.6087ZM15.0146 20.5595C14.9931 20.7239 15.0092 20.8913 15.0616 21.0479C15.1139 21.2044 15.201 21.3457 15.3156 21.46C15.4645 21.5095 15.6227 21.5196 15.7761 21.4892C15.9296 21.4589 16.0734 21.3892 16.1949 21.2863L18.2785 19.9912C18.441 19.9588 18.5876 19.8679 18.693 19.7342C18.7985 19.6006 18.8563 19.4325 18.8563 19.259C18.8563 19.0854 18.7985 18.9173 18.693 18.7837C18.5876 18.65 18.441 18.5591 18.2785 18.5267L16.1949 17.2316C15.9998 17.0979 15.7752 17.0189 15.5427 17.0021C15.4631 16.9993 15.3842 17.0193 15.3146 17.06C15.1998 17.1738 15.1126 17.3147 15.0602 17.4709C15.0079 17.6272 14.9918 17.7943 15.0135 17.9584V20.5595H15.0146Z" fill="#757B8A"/>
</svg>