<svg xmlns="http://www.w3.org/2000/svg" width="24" height="24" viewBox="0 0 24 24" fill="none">
  <g clip-path="url(#clip0_89_267639)">
    <path fill-rule="evenodd" clip-rule="evenodd" d="M15.3503 23.9978H8.65573C2.58463 23.9978 -0.0078125 21.4119 -0.0078125 15.351V8.65759C-0.0078125 2.59668 2.58463 0.0108814 8.65573 0.0108814H14.2346C14.4568 0.0108814 14.67 0.0990222 14.8272 0.255956C14.9843 0.412889 15.0725 0.62575 15.0725 0.847687C15.0725 1.06962 14.9843 1.28249 14.8272 1.43942C14.67 1.59635 14.4568 1.68449 14.2346 1.68449H8.65573C3.49256 1.68449 1.66574 3.50997 1.66574 8.65759V15.3521C1.66574 20.4998 3.49256 22.3252 8.65573 22.3252H15.3503C20.5135 22.3252 22.3403 20.4998 22.3403 15.3521V9.77191C22.3403 9.55026 22.4286 9.33767 22.5855 9.18094C22.7424 9.02421 22.9552 8.93617 23.1772 8.93617C23.3991 8.93617 23.6119 9.02421 23.7689 9.18094C23.9258 9.33767 24.014 9.55026 24.014 9.77191V15.351C24.014 21.4119 21.4214 23.9978 15.3503 23.9978ZM6.41333 13.956C6.1911 13.956 5.97786 13.8678 5.82072 13.7109C5.66358 13.5539 5.57542 13.3411 5.57542 13.1192C5.57542 12.8972 5.66358 12.6844 5.82072 12.5274C5.97786 12.3705 6.1911 12.2824 6.41333 12.2824H12.0031C12.2253 12.2824 12.4384 12.3705 12.5956 12.5274C12.7527 12.6844 12.841 12.8972 12.841 13.1192C12.841 13.3411 12.7527 13.5539 12.5956 13.7109C12.4384 13.8678 12.2253 13.956 12.0031 13.956H6.41333ZM17.3085 17.5818C17.3089 17.6913 17.2878 17.7998 17.2462 17.9011C17.2047 18.0024 17.1436 18.0945 17.0664 18.1722C16.9892 18.2499 16.8973 18.3116 16.7962 18.3539C16.6951 18.3962 16.5867 18.4182 16.4771 18.4186H6.41333C6.1911 18.4186 5.97786 18.3305 5.82072 18.1735C5.66358 18.0166 5.57542 17.8037 5.57542 17.5818C5.57542 17.3599 5.66358 17.147 5.82072 16.9901C5.97786 16.8332 6.1911 16.745 6.41333 16.745H16.4771C16.5867 16.7454 16.6951 16.7674 16.7962 16.8097C16.8973 16.852 16.9892 16.9137 17.0664 16.9914C17.1436 17.0691 17.2047 17.1613 17.2462 17.2626C17.2878 17.3639 17.3089 17.4723 17.3085 17.5818ZM19.8245 8.37794C18.9958 8.37794 18.1857 8.13254 17.4967 7.67279C16.8078 7.21304 16.2707 6.55958 15.9536 5.79504C15.6365 5.0305 15.5536 4.18921 15.7153 3.37758C15.8769 2.56594 16.276 1.82041 16.8619 1.23525C17.4479 0.650098 18.1943 0.251605 19.007 0.0901613C19.8197 -0.0712823 20.6621 0.0115846 21.4276 0.328268C22.1932 0.644951 22.8475 1.18122 23.3079 1.86929C23.7683 2.55736 24.014 3.36631 24.014 4.19384C24.0123 5.303 23.5703 6.36624 22.785 7.15054C21.9997 7.93483 20.9351 8.37621 19.8245 8.37794ZM19.8245 1.68339C19.3269 1.68339 18.8404 1.83077 18.4267 2.10686C18.0129 2.38296 17.6904 2.77536 17.4999 3.23448C17.3095 3.69361 17.2597 4.19882 17.3568 4.68623C17.4539 5.17363 17.6934 5.62134 18.0453 5.97274C18.3971 6.32414 18.8456 6.56344 19.3336 6.66039C19.8216 6.75734 20.3275 6.70757 20.7872 6.5174C21.247 6.32722 21.6399 6.00518 21.9164 5.59198C22.1928 5.17878 22.3403 4.693 22.3403 4.19604C22.3403 3.52965 22.0753 2.89056 21.6035 2.41935C21.1317 1.94814 20.4917 1.68339 19.8245 1.68339Z" fill="#757B8A"/>
  </g>
  <defs>
    <clipPath id="clip0_89_267639">
      <rect width="24" height="24" fill="white"/>
    </clipPath>
  </defs>
</svg>