<svg xmlns="http://www.w3.org/2000/svg" width="24" height="24" viewBox="0 0 24 24" fill="none">
  <g clip-path="url(#clip0_89_267653)">
    <path fill-rule="evenodd" clip-rule="evenodd" d="M17.7952 7.25396H21.8153C22.392 7.25367 22.9449 7.02438 23.3526 6.61649C23.7602 6.2086 23.9892 5.6555 23.9892 5.0788V3.29365C23.9892 2.71685 23.7602 2.16366 23.3526 1.75559C22.9449 1.34753 22.3921 1.11797 21.8153 1.11739H17.7952C17.2185 1.11797 16.6656 1.34753 16.258 1.75559C15.8503 2.16366 15.6214 2.71685 15.6214 3.29365V3.34936H9.48208V3.07077C9.4818 2.25866 9.15978 1.47975 8.5865 0.904578C8.01323 0.329405 7.23535 0.00484316 6.42331 0.00195312H3.0697C2.25595 0.00253149 1.47562 0.326017 0.900109 0.901377C0.324596 1.47674 0.000867952 2.25694 0 3.07077V5.30604C0.000867952 6.11987 0.324596 6.90008 0.900109 7.47544C1.47562 8.0508 2.25595 8.37428 3.0697 8.37486H6.42331C7.23535 8.37197 8.01323 8.04741 8.5865 7.47224C9.15978 6.89706 9.4818 6.11816 9.48208 5.30604V5.02745H11.7216V18.6957C11.7227 19.5093 12.0464 20.2893 12.6219 20.8644C13.1974 21.4395 13.9776 21.7629 14.7911 21.7634H15.6214V21.8191C15.6214 22.3959 15.8503 22.9491 16.258 23.3572C16.6656 23.7653 17.2185 23.9948 17.7952 23.9954H21.8153C22.3921 23.9948 22.9449 23.7653 23.3526 23.3572C23.7602 22.9491 23.9892 22.3959 23.9892 21.8191V20.034C23.9892 19.4573 23.7602 18.9042 23.3526 18.4963C22.9449 18.0884 22.392 17.8591 21.8153 17.8588H17.7952C17.2186 17.8591 16.6656 18.0884 16.258 18.4963C15.8503 18.9042 15.6214 19.4573 15.6214 20.034V20.0897H14.7911C14.6077 20.0903 14.426 20.0547 14.2564 19.9849C14.0868 19.9151 13.9326 19.8125 13.8027 19.683C13.6728 19.5535 13.5697 19.3996 13.4994 19.2302C13.429 19.0607 13.3928 18.8791 13.3928 18.6957V13.3905H15.6214V13.4462C15.6214 14.023 15.8503 14.5762 16.258 14.9843C16.6656 15.3924 17.2185 15.6219 17.7952 15.6225H21.8153C22.3921 15.6219 22.9449 15.3924 23.3526 14.9843C23.7602 14.5762 23.9892 14.023 23.9892 13.4462V11.6622C23.9892 11.0854 23.7602 10.5322 23.3526 10.1241C22.9449 9.71603 22.3921 9.48651 21.8153 9.48593H17.7952C17.2185 9.48651 16.6656 9.71603 16.258 10.1241C15.8503 10.5322 15.6214 11.0854 15.6214 11.6622V11.7179H13.3928V5.02308H15.6214V5.0788C15.6214 5.6555 15.8503 6.2086 16.258 6.61649C16.6656 7.02438 17.2186 7.25367 17.7952 7.25396ZM7.81068 5.30168C7.81126 5.67054 7.66551 6.02454 7.40543 6.28608C7.14534 6.54763 6.79214 6.69533 6.42331 6.69677H3.0697C2.70088 6.69533 2.34767 6.54763 2.08759 6.28608C1.8275 6.02454 1.68176 5.67054 1.68234 5.30168V3.07077C1.68176 2.70191 1.8275 2.34787 2.08759 2.08633C2.34767 1.82479 2.70088 1.67712 3.0697 1.67567H6.42331C6.79214 1.67712 7.14534 1.82479 7.40543 2.08633C7.66551 2.34787 7.81126 2.70191 7.81068 3.07077V5.30604V5.30168ZM17.2928 20.0296C17.2945 19.8969 17.348 19.77 17.4418 19.6762C17.5357 19.5823 17.6625 19.5288 17.7952 19.5271H21.8153C21.948 19.5288 22.0748 19.5823 22.1687 19.6762C22.2626 19.77 22.3161 19.8969 22.3178 20.0296V21.8148C22.3161 21.9475 22.2626 22.0744 22.1687 22.1683C22.0748 22.2621 21.948 22.3156 21.8153 22.3173H17.7952C17.6625 22.3156 17.5357 22.2621 17.4418 22.1683C17.348 22.0744 17.2945 21.9475 17.2928 21.8148V20.0296ZM17.2928 11.6622C17.2942 11.5293 17.3475 11.4024 17.4414 11.3084C17.5354 11.2145 17.6624 11.1611 17.7952 11.1597H21.8153C21.9481 11.1611 22.0751 11.2145 22.1691 11.3084C22.263 11.4024 22.3163 11.5293 22.3178 11.6622V13.4462C22.3163 13.5791 22.263 13.7061 22.1691 13.8C22.0751 13.894 21.9481 13.9474 21.8153 13.9488H17.7952C17.6624 13.9474 17.5354 13.894 17.4414 13.8C17.3475 13.7061 17.2942 13.5791 17.2928 13.4462V11.6622ZM17.2928 3.29365C17.2945 3.16089 17.348 3.03406 17.4418 2.94018C17.5357 2.8463 17.6625 2.79281 17.7952 2.79111H21.8153C21.948 2.79281 22.0748 2.8463 22.1687 2.94018C22.2626 3.03406 22.3161 3.16089 22.3178 3.29365V5.0788C22.3161 5.21155 22.2626 5.33839 22.1687 5.43227C22.0748 5.52615 21.948 5.57964 21.8153 5.58134H17.7952C17.6625 5.57964 17.5357 5.52615 17.4418 5.43227C17.348 5.33839 17.2945 5.21155 17.2928 5.0788V3.29365Z" fill="#757B8A"/>
  </g>
  <defs>
    <clipPath id="clip0_89_267653">
      <rect width="24" height="24" fill="white"/>
    </clipPath>
  </defs>
</svg>