<svg xmlns="http://www.w3.org/2000/svg" width="24" height="22" viewBox="0 0 24 22" fill="none">
  <path fill-rule="evenodd" clip-rule="evenodd" d="M17.5847 21.6673H6.42621C1.5082 21.6673 0 20.1972 0 15.3773V6.62504C0 1.80411 1.5082 0.333984 6.42621 0.333984H17.5847C22.5027 0.333984 24 1.80411 24 6.62504V15.3773C24 20.1972 22.5027 21.6673 17.5847 21.6673ZM22.3278 6.62504C22.3278 2.71291 21.5738 1.97518 17.5847 1.97518H6.42621C2.43715 1.97518 1.6831 2.71291 1.6831 6.62504V15.3773C1.6831 19.2884 2.43715 20.0261 6.42621 20.0261H17.5847C21.5738 20.0261 22.3278 19.2884 22.3278 15.3773V6.62504ZM19.8141 16.1974H17.5847C17.472 16.2014 17.3596 16.1831 17.2543 16.1436C17.149 16.1042 17.0529 16.0444 16.9717 15.9678C16.8905 15.8912 16.826 15.7994 16.7819 15.6979C16.7378 15.5963 16.715 15.4871 16.715 15.3768C16.715 15.2665 16.7378 15.1573 16.7819 15.0557C16.826 14.9542 16.8905 14.8624 16.9717 14.7858C17.0529 14.7092 17.149 14.6494 17.2543 14.6099C17.3596 14.5705 17.472 14.5522 17.5847 14.5562H19.8141C19.9268 14.5522 20.0393 14.5705 20.1446 14.6099C20.2499 14.6494 20.346 14.7092 20.4272 14.7858C20.5083 14.8624 20.5729 14.9542 20.617 15.0557C20.6611 15.1573 20.6838 15.2665 20.6838 15.3768C20.6838 15.4871 20.6611 15.5963 20.617 15.6979C20.5729 15.7994 20.5083 15.8912 20.4272 15.9678C20.346 16.0444 20.2499 16.1042 20.1446 16.1436C20.0393 16.1831 19.9268 16.2014 19.8141 16.1974ZM19.8141 11.8212H15.3552C15.2425 11.8252 15.1302 11.807 15.0249 11.7675C14.9195 11.7281 14.8233 11.6682 14.7422 11.5917C14.661 11.5151 14.5966 11.4233 14.5525 11.3217C14.5084 11.2202 14.4856 11.111 14.4856 11.0007C14.4856 10.8903 14.5084 10.7811 14.5525 10.6796C14.5966 10.578 14.661 10.4862 14.7422 10.4096C14.8233 10.3331 14.9195 10.2732 15.0249 10.2338C15.1302 10.1943 15.2425 10.1761 15.3552 10.1801H19.8141C19.9268 10.1761 20.0393 10.1943 20.1446 10.2338C20.2499 10.2732 20.346 10.3331 20.4272 10.4096C20.5083 10.4862 20.5729 10.578 20.617 10.6796C20.6611 10.7811 20.6838 10.8903 20.6838 11.0007C20.6838 11.111 20.6611 11.2202 20.617 11.3217C20.5729 11.4233 20.5083 11.5151 20.4272 11.5917C20.346 11.6682 20.2499 11.7281 20.1446 11.7675C20.0393 11.807 19.9268 11.8252 19.8141 11.8212ZM19.8141 7.4451H14.2295C14.0123 7.43742 13.8066 7.34761 13.6557 7.19456C13.5048 7.0415 13.4205 6.83715 13.4205 6.6245C13.4205 6.41185 13.5048 6.20749 13.6557 6.05444C13.8066 5.90139 14.0123 5.81157 14.2295 5.8039H19.8141C19.9268 5.79992 20.0393 5.81821 20.1446 5.85766C20.2499 5.8971 20.346 5.9569 20.4272 6.03349C20.5083 6.11009 20.5729 6.20189 20.617 6.30343C20.6611 6.40497 20.6838 6.51417 20.6838 6.6245C20.6838 6.73482 20.6611 6.84402 20.617 6.94557C20.5729 7.04711 20.5083 7.13891 20.4272 7.2155C20.346 7.2921 20.2499 7.35191 20.1446 7.39136C20.0393 7.4308 19.9268 7.44908 19.8141 7.4451ZM12.0875 16.5545C12.0583 16.5561 12.0292 16.5561 12.0001 16.5545C11.7922 16.5538 11.5919 16.4775 11.4384 16.3403C11.2849 16.2031 11.189 16.015 11.1695 15.8125C11.1129 15.2366 10.8527 14.698 10.4337 14.2897C10.0147 13.8814 9.46331 13.6289 8.87441 13.5758C8.36204 13.5255 7.84577 13.5255 7.3334 13.5758C6.74298 13.6282 6.18966 13.8803 5.76877 14.2887C5.34787 14.6972 5.08574 15.2364 5.02741 15.8136C4.99918 16.0251 4.88796 16.2176 4.71737 16.3504C4.54677 16.4832 4.33018 16.546 4.11315 16.5255C3.89613 16.5049 3.69571 16.4027 3.5543 16.2403C3.41289 16.078 3.34152 15.8682 3.35525 15.6553C3.45313 14.7001 3.88697 13.8078 4.58262 13.1308C5.27827 12.4537 6.19257 12.0339 7.16944 11.9431C7.78712 11.8811 8.40962 11.8811 9.0273 11.9431C10.0046 12.0299 10.9201 12.4487 11.6148 13.1267C12.3095 13.8048 12.7397 14.6994 12.8307 15.6553C12.8437 15.7623 12.8347 15.8708 12.8041 15.9744C12.7736 16.0779 12.7221 16.1745 12.6528 16.2583C12.5836 16.3421 12.4979 16.4115 12.4008 16.4623C12.3037 16.5132 12.1971 16.5446 12.0875 16.5545ZM8.09837 11.0439C7.53154 11.0461 6.97686 10.8835 6.50452 10.577C6.03218 10.2704 5.66348 9.83362 5.44512 9.32189C5.22675 8.81015 5.16848 8.24651 5.27782 7.70239C5.38716 7.15827 5.65921 6.65814 6.05933 6.26535C6.45946 5.87256 6.9697 5.60479 7.52551 5.49595C8.08132 5.38712 8.65756 5.44212 9.18139 5.65399C9.70522 5.86585 10.153 6.22505 10.468 6.68609C10.783 7.14712 10.951 7.68923 10.9508 8.24377C10.9488 8.98415 10.648 9.69381 10.1138 10.2182C9.57956 10.7427 8.85516 11.0394 8.09837 11.0439ZM8.09837 7.08799C7.86361 7.08693 7.63384 7.15407 7.43812 7.28089C7.2424 7.40771 7.08953 7.58851 6.99894 7.80039C6.90835 8.01227 6.88416 8.24569 6.9293 8.47107C6.97443 8.69645 7.08693 8.90365 7.25255 9.06642C7.41817 9.22919 7.6294 9.34022 7.85956 9.38541C8.08973 9.43061 8.32843 9.40795 8.54542 9.3203C8.76242 9.23266 8.94799 9.08398 9.07853 8.89309C9.20907 8.70221 9.27877 8.47772 9.27878 8.24806C9.27993 8.09565 9.25018 7.94452 9.19139 7.80338C9.13261 7.66223 9.04588 7.53385 8.93618 7.42563C8.82648 7.31741 8.69601 7.23149 8.55223 7.17281C8.40844 7.11413 8.25416 7.08385 8.09837 7.08372V7.08799Z" fill="#757B8A"/>
</svg>