<svg xmlns="http://www.w3.org/2000/svg" width="21" height="20" viewBox="0 0 21 20" fill="none">
<path d="M0.5 10C0.5 4.47715 4.97715 0 10.5 0C16.0228 0 20.5 4.47715 20.5 10C20.5 15.5228 16.0228 20 10.5 20C4.97715 20 0.5 15.5228 0.5 10ZM9.875 1.34569C9.03821 1.6016 8.20577 2.37153 7.51593 3.66498C7.29996 4.06993 7.10375 4.51704 6.93124 4.99999H9.875V1.34569ZM5.61193 4.99999C5.83495 4.30173 6.10407 3.65598 6.41299 3.07675C6.63639 2.65788 6.88578 2.26551 7.15908 1.91044C5.60149 2.55442 4.27036 3.63516 3.31836 4.99999H5.61193ZM4.88556 9.37499C4.92274 8.27896 5.05712 7.22712 5.27501 6.24999H2.59203C2.13666 7.20858 1.85044 8.26311 1.77197 9.37499H4.88556ZM6.55858 6.24999C6.32507 7.20621 6.17689 8.25972 6.13632 9.37499H9.875V6.24999H6.55858ZM11.125 6.24999V9.37499H14.8637C14.8231 8.25972 14.6749 7.20621 14.4414 6.24999H11.125ZM6.13632 10.625C6.17689 11.7403 6.32507 12.7938 6.55858 13.75H9.875V10.625H6.13632ZM11.125 10.625V13.75H14.4414C14.6749 12.7938 14.8231 11.7403 14.8637 10.625H11.125ZM6.93124 15C7.10375 15.4829 7.29996 15.9301 7.51593 16.335C8.20577 17.6285 9.03821 18.3984 9.875 18.6543V15H6.93124ZM7.15908 18.0895C6.88578 17.7345 6.63639 17.3421 6.41299 16.9232C6.10407 16.344 5.83495 15.6982 5.61193 15H3.31836C4.27036 16.3648 5.60149 17.4456 7.15908 18.0895ZM5.27501 13.75C5.05712 12.7729 4.92274 11.721 4.88556 10.625H1.77197C1.85044 11.7369 2.13666 12.7914 2.59203 13.75H5.27501ZM13.8409 18.0895C15.3985 17.4456 16.7296 16.3648 17.6816 15H15.3881C15.165 15.6982 14.8959 16.344 14.587 16.9232C14.3636 17.3421 14.1142 17.7345 13.8409 18.0895ZM11.125 15V18.6543C11.9618 18.3984 12.7942 17.6285 13.4841 16.335C13.7 15.9301 13.8962 15.4829 14.0687 15H11.125ZM15.725 13.75H18.408C18.8633 12.7914 19.1495 11.7369 19.228 10.625H16.1144C16.0773 11.721 15.9429 12.7729 15.725 13.75ZM19.228 9.37499C19.1495 8.26311 18.8633 7.20858 18.408 6.24999H15.725C15.9429 7.22712 16.0773 8.27896 16.1144 9.37499H19.228ZM14.587 3.07675C14.8959 3.65598 15.165 4.30173 15.3881 4.99999H17.6816C16.7296 3.63516 15.3985 2.55442 13.8409 1.91044C14.1142 2.26551 14.3636 2.65788 14.587 3.07675ZM14.0687 4.99999C13.8962 4.51704 13.7 4.06993 13.4841 3.66498C12.7942 2.37153 11.9618 1.6016 11.125 1.34569V4.99999H14.0687Z" fill="#98A2B3"/>
</svg>