<svg xmlns="http://www.w3.org/2000/svg" width="26" height="26" viewBox="0 0 26 26" fill="none">
  <path d="M13 1C6.37258 1 1 6.37258 1 13C1 19.6274 6.37258 25 13 25C19.6274 25 25 19.6274 25 13C25 6.37258 19.6274 1 13 1Z" stroke="#757B8A" stroke-width="1.25" stroke-linecap="round" stroke-linejoin="round"/>
  <path d="M8.19531 24.0034V15.402L12.9953 7.00195L17.7953 15.402V24.0034" stroke="#757B8A" stroke-width="1.25" stroke-linecap="round" stroke-linejoin="round"/>
  <path d="M8.19531 15.4004C8.19531 15.4004 9.54742 16.6004 10.5953 16.6004C11.6432 16.6004 12.9953 15.4004 12.9953 15.4004C12.9953 15.4004 14.3475 16.6004 15.3953 16.6004C16.4432 16.6004 17.7953 15.4004 17.7953 15.4004" stroke="#757B8A" stroke-width="1.25" stroke-linecap="round" stroke-linejoin="round"/>
</svg>