<svg xmlns="http://www.w3.org/2000/svg" width="29" height="26" viewBox="0 0 29 26" fill="none">
  <path d="M14.3281 18.334C16.5373 18.334 18.3281 16.5431 18.3281 14.334C18.3281 12.1248 16.5373 10.334 14.3281 10.334C12.119 10.334 10.3281 12.1248 10.3281 14.334C10.3281 16.5431 12.119 18.334 14.3281 18.334Z" stroke="#888E9E" stroke-width="1.25"/>
  <path d="M1 14.8181C1 10.7325 1 8.68961 1.99869 7.22213C2.43104 6.58685 2.9866 6.04139 3.63365 5.61691C4.59407 4.98684 5.79644 4.76164 7.63733 4.68115C8.5158 4.68115 9.27216 4.02757 9.44444 3.18181C9.70287 1.91319 10.8374 1 12.1551 1H16.5116C17.8292 1 18.9637 1.91319 19.2223 3.18181C19.3945 4.02757 20.1508 4.68115 21.0293 4.68115C22.8703 4.76164 24.0725 4.98684 25.0331 5.61691C25.68 6.04139 26.2356 6.58685 26.668 7.22213C27.6667 8.68961 27.6667 10.7325 27.6667 14.8181C27.6667 18.9039 27.6667 20.9468 26.668 22.4143C26.2356 23.0495 25.68 23.5949 25.0331 24.0195C23.5384 25 21.4577 25 17.2963 25H11.3704C7.209 25 5.12832 25 3.63365 24.0195C2.9866 23.5949 2.43104 23.0495 1.99869 22.4143C1.71661 21.9997 1.51421 21.5393 1.36897 21" stroke="#888E9E" stroke-width="1.25" stroke-linecap="round"/>
  <path d="M23.6615 10.334H22.3281" stroke="#888E9E" stroke-width="1.25" stroke-linecap="round"/>
</svg>