<svg xmlns="http://www.w3.org/2000/svg" width="25" height="26" viewBox="0 0 25 26" fill="none">
  <path d="M9.14844 6.45118V1" stroke="#757B8A" stroke-width="1.27333" stroke-miterlimit="10"/>
  <path d="M15.25 6.45118V1" stroke="#757B8A" stroke-width="1.27333" stroke-miterlimit="10"/>
  <path d="M8.12143 10.8174H4.04688" stroke="#757B8A" stroke-width="1.27333" stroke-miterlimit="10"/>
  <path d="M20.348 10.8174H16.2734" stroke="#757B8A" stroke-width="1.27333" stroke-miterlimit="10"/>
  <path d="M21.3609 10.8167C21.3581 8.21408 20.3918 5.71892 18.6742 3.87859C16.9565 2.03825 14.6276 1.00302 12.1985 1C9.76933 1.00302 7.44048 2.03825 5.72281 3.87859C4.00513 5.71892 3.0389 8.21408 3.03608 10.8167C2.73935 10.8152 2.44592 10.8836 2.17655 11.0169C1.90718 11.1503 1.66842 11.3454 1.47715 11.5885C1.28589 11.8315 1.14678 12.1166 1.06965 12.4236C0.992524 12.7307 0.979263 13.0521 1.03081 13.3652C1.13272 13.8871 1.40175 14.3544 1.79132 14.6862C2.1809 15.0181 2.6665 15.1935 3.16408 15.1822H21.2969C21.7945 15.1935 22.2801 15.0181 22.6696 14.6862C23.0592 14.3544 23.3283 13.8871 23.4302 13.3652C23.4829 13.0463 23.4683 12.7188 23.3876 12.4067C23.3069 12.0946 23.162 11.8058 22.9636 11.5614C22.7652 11.3171 22.5183 11.1234 22.241 10.9946C21.9637 10.8657 21.663 10.8049 21.3609 10.8167Z" stroke="#757B8A" stroke-width="1.27333" stroke-miterlimit="10"/>
  <path d="M4.04688 15.1831H20.3451V16.3259C20.331 18.6316 19.4662 20.8377 17.9395 22.4628C16.4128 24.0878 14.348 24.9999 12.196 24.9998C10.0347 24.9998 7.96194 24.0799 6.43369 22.4426C4.90544 20.8052 4.04688 18.5844 4.04688 16.2688V15.126V15.1831Z" stroke="#757B8A" stroke-width="1.27333" stroke-miterlimit="10"/>
</svg>