<svg width="136" height="38" viewBox="0 0 136 38" fill="none" xmlns="http://www.w3.org/2000/svg">
<rect width="136" height="38" rx="8" fill="#0F152E"/>
<path d="M27.489 15.8449C27.375 15.9342 25.3625 17.0788 25.3625 19.624C25.3625 22.5679 27.9234 23.6093 28 23.6351C27.9882 23.6986 27.5932 25.0614 26.6498 26.4501C25.8086 27.6721 24.9301 28.8921 23.5937 28.8921C22.2572 28.8921 21.9133 28.1085 20.3705 28.1085C18.867 28.1085 18.3324 28.9179 17.1099 28.9179C15.8875 28.9179 15.0345 27.7871 14.0538 26.3985C12.9178 24.7678 12 22.2346 12 19.8303C12 15.9738 14.4842 13.9286 16.9291 13.9286C18.2282 13.9286 19.3111 14.7895 20.1268 14.7895C20.9031 14.7895 22.1137 13.877 23.5917 13.877C24.1518 13.877 26.1644 13.9286 27.489 15.8449ZM22.8901 12.2444C23.5013 11.5124 23.9337 10.4967 23.9337 9.48101C23.9337 9.34016 23.9219 9.19733 23.8963 9.08228C22.9019 9.11997 21.7187 9.7508 21.0053 10.586C20.4452 11.2287 19.9224 12.2444 19.9224 13.274C19.9224 13.4287 19.9479 13.5834 19.9597 13.633C20.0226 13.6449 20.1248 13.6588 20.227 13.6588C21.1193 13.6588 22.2415 13.0557 22.8901 12.2444Z" fill="white"/>
<path d="M38.01 7.86C38.6767 7.86 39.26 7.99667 39.76 8.27C40.26 8.53667 40.6467 8.93667 40.92 9.47C41.2 10.0033 41.34 10.6567 41.34 11.43C41.34 12.2033 41.2 12.8567 40.92 13.39C40.6467 13.9233 40.26 14.3267 39.76 14.6C39.26 14.8667 38.6767 15 38.01 15H35.46V7.86H38.01ZM37.91 14.4C38.7567 14.4 39.42 14.1467 39.9 13.64C40.38 13.1333 40.62 12.3967 40.62 11.43C40.62 10.4633 40.38 9.72667 39.9 9.22C39.42 8.71333 38.7567 8.46 37.91 8.46H36.16V14.4H37.91ZM44.3402 9.64C44.8202 9.64 45.2435 9.75333 45.6102 9.98C45.9768 10.2 46.2602 10.5167 46.4602 10.93C46.6668 11.3433 46.7702 11.8267 46.7702 12.38C46.7702 12.9333 46.6668 13.4167 46.4602 13.83C46.2602 14.2433 45.9768 14.5633 45.6102 14.79C45.2435 15.01 44.8202 15.12 44.3402 15.12C43.8668 15.12 43.4468 15.01 43.0802 14.79C42.7135 14.5633 42.4268 14.2433 42.2202 13.83C42.0202 13.4167 41.9202 12.9333 41.9202 12.38C41.9202 11.8267 42.0202 11.3433 42.2202 10.93C42.4268 10.5167 42.7135 10.2 43.0802 9.98C43.4468 9.75333 43.8668 9.64 44.3402 9.64ZM44.3402 14.56C44.8602 14.56 45.2802 14.3667 45.6002 13.98C45.9268 13.5867 46.0902 13.0533 46.0902 12.38C46.0902 11.7067 45.9268 11.1733 45.6002 10.78C45.2802 10.3867 44.8602 10.19 44.3402 10.19C43.8202 10.19 43.4002 10.3867 43.0802 10.78C42.7602 11.1733 42.6002 11.7067 42.6002 12.38C42.6002 13.0533 42.7602 13.5867 43.0802 13.98C43.4002 14.3667 43.8202 14.56 44.3402 14.56ZM52.8476 15H52.1176L50.6976 10.66H50.6776L49.2476 15H48.5576L46.7676 9.76H47.5076L48.9176 14.18H48.9376L50.3476 9.76H51.0876L52.4876 14.18H52.5176L53.9176 9.76H54.6276L52.8476 15ZM55.6989 10.56C55.8322 10.3 56.0522 10.0833 56.3589 9.91C56.6656 9.73 57.0089 9.64 57.3889 9.64C57.9489 9.64 58.3989 9.8 58.7389 10.12C59.0789 10.44 59.2489 10.8933 59.2489 11.48V15H58.5989V11.76C58.5989 11.22 58.4922 10.8267 58.2789 10.58C58.0722 10.3267 57.7356 10.2 57.2689 10.2C56.8289 10.2 56.4589 10.3533 56.1589 10.66C55.8589 10.96 55.7089 11.4233 55.7089 12.05V15H55.0489V9.76H55.6689V10.56H55.6989ZM60.7289 7.76V15H60.0689V7.76H60.7289ZM63.8519 9.64C64.3319 9.64 64.7552 9.75333 65.1219 9.98C65.4885 10.2 65.7719 10.5167 65.9719 10.93C66.1785 11.3433 66.2819 11.8267 66.2819 12.38C66.2819 12.9333 66.1785 13.4167 65.9719 13.83C65.7719 14.2433 65.4885 14.5633 65.1219 14.79C64.7552 15.01 64.3319 15.12 63.8519 15.12C63.3785 15.12 62.9585 15.01 62.5919 14.79C62.2252 14.5633 61.9385 14.2433 61.7319 13.83C61.5319 13.4167 61.4319 12.9333 61.4319 12.38C61.4319 11.8267 61.5319 11.3433 61.7319 10.93C61.9385 10.5167 62.2252 10.2 62.5919 9.98C62.9585 9.75333 63.3785 9.64 63.8519 9.64ZM63.8519 14.56C64.3719 14.56 64.7919 14.3667 65.1119 13.98C65.4385 13.5867 65.6019 13.0533 65.6019 12.38C65.6019 11.7067 65.4385 11.1733 65.1119 10.78C64.7919 10.3867 64.3719 10.19 63.8519 10.19C63.3319 10.19 62.9119 10.3867 62.5919 10.78C62.2719 11.1733 62.1119 11.7067 62.1119 12.38C62.1119 13.0533 62.2719 13.5867 62.5919 13.98C62.9119 14.3667 63.3319 14.56 63.8519 14.56ZM70.473 15C70.4063 14.9133 70.363 14.65 70.343 14.21C70.1363 14.5367 69.853 14.77 69.493 14.91C69.133 15.05 68.763 15.12 68.383 15.12C68.083 15.12 67.8096 15.0567 67.563 14.93C67.3163 14.8033 67.1196 14.6233 66.973 14.39C66.833 14.1567 66.763 13.89 66.763 13.59C66.763 13.05 66.9563 12.6633 67.343 12.43C67.7296 12.19 68.2696 12.0267 68.963 11.94C69.3563 11.8867 69.6463 11.8367 69.833 11.79C70.0196 11.7367 70.1463 11.6733 70.213 11.6C70.2863 11.5267 70.323 11.42 70.323 11.28C70.323 10.94 70.2163 10.6733 70.003 10.48C69.7896 10.2867 69.463 10.19 69.023 10.19C68.683 10.19 68.383 10.2733 68.123 10.44C67.8696 10.6 67.6863 10.8767 67.573 11.27L66.963 11.12C67.0896 10.62 67.3396 10.25 67.713 10.01C68.093 9.76333 68.5396 9.64 69.053 9.64C69.7063 9.64 70.1896 9.78667 70.503 10.08C70.823 10.3667 70.983 10.76 70.983 11.26V13.71C70.983 14.0567 70.9896 14.3233 71.003 14.51C71.023 14.69 71.063 14.8533 71.123 15H70.473ZM70.323 12.09C70.2496 12.1767 70.1096 12.2433 69.903 12.29C69.6963 12.33 69.363 12.3867 68.903 12.46C68.5163 12.5133 68.1763 12.6267 67.883 12.8C67.5896 12.9733 67.443 13.2367 67.443 13.59C67.443 13.89 67.5396 14.1267 67.733 14.3C67.9263 14.4733 68.1863 14.56 68.513 14.56C68.973 14.56 69.3896 14.4333 69.763 14.18C70.1363 13.92 70.323 13.4867 70.323 12.88V12.09ZM73.9772 9.64C74.3705 9.64 74.7305 9.73333 75.0572 9.92C75.3839 10.1 75.6172 10.3467 75.7572 10.66H75.7772V7.76H76.4272V15H75.8072V14.07H75.7872C75.6539 14.3833 75.4172 14.6367 75.0772 14.83C74.7439 15.0233 74.3772 15.12 73.9772 15.12C73.5172 15.12 73.1105 15.01 72.7572 14.79C72.4039 14.5633 72.1272 14.2433 71.9272 13.83C71.7272 13.4167 71.6272 12.9333 71.6272 12.38C71.6272 11.8267 71.7272 11.3433 71.9272 10.93C72.1272 10.5167 72.4039 10.2 72.7572 9.98C73.1105 9.75333 73.5172 9.64 73.9772 9.64ZM74.0772 14.56C74.4105 14.56 74.7072 14.4733 74.9672 14.3C75.2339 14.12 75.4405 13.8667 75.5872 13.54C75.7405 13.2133 75.8172 12.8267 75.8172 12.38C75.8172 11.9333 75.7405 11.5467 75.5872 11.22C75.4405 10.8867 75.2339 10.6333 74.9672 10.46C74.7072 10.28 74.4105 10.19 74.0772 10.19C73.5439 10.19 73.1139 10.3867 72.7872 10.78C72.4672 11.1667 72.3072 11.7 72.3072 12.38C72.3072 13.0533 72.4672 13.5867 72.7872 13.98C73.1139 14.3667 73.5439 14.56 74.0772 14.56ZM81.3909 9.64C81.8709 9.64 82.2943 9.75333 82.6609 9.98C83.0276 10.2 83.3109 10.5167 83.5109 10.93C83.7176 11.3433 83.8209 11.8267 83.8209 12.38C83.8209 12.9333 83.7176 13.4167 83.5109 13.83C83.3109 14.2433 83.0276 14.5633 82.6609 14.79C82.2943 15.01 81.8709 15.12 81.3909 15.12C80.9176 15.12 80.4976 15.01 80.1309 14.79C79.7643 14.5633 79.4776 14.2433 79.2709 13.83C79.0709 13.4167 78.9709 12.9333 78.9709 12.38C78.9709 11.8267 79.0709 11.3433 79.2709 10.93C79.4776 10.5167 79.7643 10.2 80.1309 9.98C80.4976 9.75333 80.9176 9.64 81.3909 9.64ZM81.3909 14.56C81.9109 14.56 82.3309 14.3667 82.6509 13.98C82.9776 13.5867 83.1409 13.0533 83.1409 12.38C83.1409 11.7067 82.9776 11.1733 82.6509 10.78C82.3309 10.3867 81.9109 10.19 81.3909 10.19C80.8709 10.19 80.4509 10.3867 80.1309 10.78C79.8109 11.1733 79.6509 11.7067 79.6509 12.38C79.6509 13.0533 79.8109 13.5867 80.1309 13.98C80.4509 14.3667 80.8709 14.56 81.3909 14.56ZM85.152 10.56C85.2854 10.3 85.5054 10.0833 85.812 9.91C86.1187 9.73 86.462 9.64 86.842 9.64C87.402 9.64 87.852 9.8 88.192 10.12C88.532 10.44 88.702 10.8933 88.702 11.48V15H88.052V11.76C88.052 11.22 87.9454 10.8267 87.732 10.58C87.5254 10.3267 87.1887 10.2 86.722 10.2C86.282 10.2 85.912 10.3533 85.612 10.66C85.312 10.96 85.162 11.4233 85.162 12.05V15H84.502V9.76H85.122V10.56H85.152ZM93.2863 14.44C93.513 14.44 93.6997 14.4333 93.8463 14.42V15C93.6463 15.0133 93.4397 15.02 93.2263 15.02C92.8997 15.02 92.6463 14.9867 92.4663 14.92C92.2863 14.8467 92.1563 14.7267 92.0763 14.56C91.9963 14.3933 91.9563 14.16 91.9563 13.86V10.28H91.0663V9.76H91.9563V8.23H92.6063V9.76H93.8763V10.28H92.6063V13.72C92.6063 14 92.653 14.19 92.7463 14.29C92.8397 14.39 93.0197 14.44 93.2863 14.44ZM95.1332 10.57C95.2599 10.31 95.4765 10.09 95.7832 9.91C96.0899 9.73 96.4299 9.64 96.8032 9.64C97.3565 9.64 97.8032 9.8 98.1432 10.12C98.4832 10.44 98.6532 10.8933 98.6532 11.48V15H98.0032V11.76C98.0032 11.22 97.8965 10.8267 97.6832 10.58C97.4765 10.3267 97.1399 10.2 96.6732 10.2C96.4065 10.2 96.1532 10.27 95.9132 10.41C95.6799 10.5433 95.4865 10.7533 95.3332 11.04C95.1865 11.32 95.1132 11.67 95.1132 12.09V15H94.4532V7.76H95.1132V10.57H95.1332ZM103.953 13.54C103.8 13.9867 103.537 14.3633 103.163 14.67C102.79 14.97 102.283 15.12 101.643 15.12C101.183 15.12 100.777 15.01 100.423 14.79C100.07 14.5633 99.7932 14.2433 99.5932 13.83C99.3932 13.41 99.2932 12.9233 99.2932 12.37C99.2932 11.8233 99.3932 11.3433 99.5932 10.93C99.7932 10.5167 100.07 10.2 100.423 9.98C100.777 9.75333 101.183 9.64 101.643 9.64C102.11 9.64 102.523 9.75667 102.883 9.99C103.25 10.2167 103.53 10.55 103.723 10.99C103.923 11.4233 104.013 11.94 103.993 12.54H99.9732C99.9865 13.14 100.147 13.6267 100.453 14C100.76 14.3733 101.157 14.56 101.643 14.56C102.097 14.56 102.457 14.4533 102.723 14.24C102.99 14.02 103.177 13.7567 103.283 13.45L103.953 13.54ZM101.643 10.19C101.17 10.19 100.783 10.3633 100.483 10.71C100.183 11.05 100.017 11.4767 99.9832 11.99H103.313C103.28 11.4767 103.11 11.05 102.803 10.71C102.503 10.3633 102.117 10.19 101.643 10.19Z" fill="white"/>
<path d="M45.262 30H44.044V21.838H44.002L40.936 30H39.928L36.862 21.838H36.82V30H35.644V20.004H37.45L40.432 28.152H40.474L43.456 20.004H45.262V30ZM51.3842 30C51.3375 29.9253 51.2955 29.7993 51.2582 29.622C51.2208 29.4353 51.1975 29.2113 51.1882 28.95C50.9268 29.37 50.5535 29.678 50.0682 29.874C49.5828 30.07 49.0835 30.168 48.5702 30.168C48.1408 30.168 47.7442 30.0793 47.3802 29.902C47.0255 29.7247 46.7408 29.4727 46.5262 29.146C46.3208 28.81 46.2182 28.4273 46.2182 27.998C46.2182 27.2327 46.4842 26.682 47.0162 26.346C47.5482 26.0007 48.3182 25.7673 49.3262 25.646C49.8302 25.5807 50.2128 25.5153 50.4742 25.45C50.7355 25.3753 50.9175 25.2867 51.0202 25.184C51.1228 25.0813 51.1742 24.9413 51.1742 24.764C51.1742 24.3533 51.0388 24.0313 50.7682 23.798C50.4975 23.5647 50.0682 23.448 49.4802 23.448C49.0322 23.448 48.6355 23.5553 48.2902 23.77C47.9542 23.9847 47.7162 24.3347 47.5762 24.82L46.4982 24.554C46.6662 23.882 47.0208 23.3687 47.5622 23.014C48.1128 22.65 48.7708 22.468 49.5362 22.468C50.4975 22.468 51.2068 22.6733 51.6642 23.084C52.1215 23.4947 52.3502 24.0453 52.3502 24.736V28.292C52.3502 28.7773 52.3595 29.1367 52.3782 29.37C52.4062 29.6033 52.4622 29.8133 52.5462 30H51.3842ZM51.1742 26.052C51.0715 26.1733 50.8568 26.2713 50.5302 26.346C50.2128 26.4113 49.7742 26.4813 49.2142 26.556C48.7195 26.6213 48.2948 26.766 47.9402 26.99C47.5948 27.214 47.4222 27.5453 47.4222 27.984C47.4222 28.3667 47.5435 28.67 47.7862 28.894C48.0382 29.1087 48.3742 29.216 48.7942 29.216C49.1675 29.216 49.5315 29.146 49.8862 29.006C50.2502 28.866 50.5535 28.6373 50.7962 28.32C51.0482 27.9933 51.1742 27.5733 51.1742 27.06V26.052ZM56.6628 29.202C57.6895 29.202 58.3848 28.642 58.7488 27.522L59.9528 27.704C59.7568 28.3573 59.3928 28.9313 58.8608 29.426C58.3288 29.9207 57.5961 30.168 56.6628 30.168C55.9908 30.168 55.3935 30.0093 54.8708 29.692C54.3575 29.3747 53.9561 28.9267 53.6668 28.348C53.3868 27.76 53.2468 27.0833 53.2468 26.318C53.2468 25.5527 53.3868 24.8807 53.6668 24.302C53.9561 23.714 54.3621 23.2613 54.8848 22.944C55.4075 22.6267 56.0048 22.468 56.6768 22.468C57.5728 22.468 58.2635 22.6873 58.7488 23.126C59.2435 23.5553 59.5888 24.0127 59.7848 24.498L58.6648 24.862C58.2821 23.91 57.6195 23.434 56.6768 23.434C56.0048 23.434 55.4635 23.6953 55.0528 24.218C54.6515 24.7313 54.4508 25.4313 54.4508 26.318C54.4508 27.2047 54.6515 27.9093 55.0528 28.432C55.4541 28.9453 55.9908 29.202 56.6628 29.202ZM65.3426 27.088L64.2226 30H62.8646L66.8546 20.004H68.4226L72.4126 30H71.0266L69.9066 27.088H65.3426ZM67.6386 21.194H67.5966L65.7486 26.024H69.5006L67.6386 21.194ZM76.6326 30.168C76.1006 30.168 75.6246 30.0607 75.2046 29.846C74.7846 29.622 74.4766 29.3187 74.2806 28.936H74.2386V32.576H73.0626V22.636H74.1826V23.756H74.2246C74.4299 23.3547 74.7473 23.042 75.1766 22.818C75.6059 22.5847 76.0913 22.468 76.6326 22.468C77.2766 22.468 77.8506 22.6267 78.3546 22.944C78.8586 23.2613 79.2506 23.714 79.5306 24.302C79.8199 24.8807 79.9646 25.5527 79.9646 26.318C79.9646 27.0833 79.8199 27.76 79.5306 28.348C79.2506 28.9267 78.8586 29.3747 78.3546 29.692C77.8506 30.0093 77.2766 30.168 76.6326 30.168ZM76.4366 23.434C75.7553 23.434 75.2046 23.6953 74.7846 24.218C74.3646 24.7313 74.1546 25.4313 74.1546 26.318C74.1546 27.2047 74.3646 27.9093 74.7846 28.432C75.2046 28.9453 75.7553 29.202 76.4366 29.202C77.1459 29.202 77.7106 28.9453 78.1306 28.432C78.5506 27.9093 78.7606 27.2047 78.7606 26.318C78.7606 25.4313 78.5506 24.7313 78.1306 24.218C77.7106 23.6953 77.1459 23.434 76.4366 23.434ZM84.4803 30.168C83.9483 30.168 83.4723 30.0607 83.0523 29.846C82.6323 29.622 82.3243 29.3187 82.1283 28.936H82.0863V32.576H80.9103V22.636H82.0303V23.756H82.0723C82.2776 23.3547 82.5949 23.042 83.0243 22.818C83.4536 22.5847 83.9389 22.468 84.4803 22.468C85.1243 22.468 85.6983 22.6267 86.2023 22.944C86.7063 23.2613 87.0983 23.714 87.3783 24.302C87.6676 24.8807 87.8123 25.5527 87.8123 26.318C87.8123 27.0833 87.6676 27.76 87.3783 28.348C87.0983 28.9267 86.7063 29.3747 86.2023 29.692C85.6983 30.0093 85.1243 30.168 84.4803 30.168ZM84.2843 23.434C83.6029 23.434 83.0523 23.6953 82.6323 24.218C82.2123 24.7313 82.0023 25.4313 82.0023 26.318C82.0023 27.2047 82.2123 27.9093 82.6323 28.432C83.0523 28.9453 83.6029 29.202 84.2843 29.202C84.9936 29.202 85.5583 28.9453 85.9783 28.432C86.3983 27.9093 86.6083 27.2047 86.6083 26.318C86.6083 25.4313 86.3983 24.7313 85.9783 24.218C85.5583 23.6953 84.9936 23.434 84.2843 23.434ZM97.4299 22.86C97.3086 22.1973 97.0193 21.6933 96.5619 21.348C96.1046 21.0027 95.5399 20.83 94.8679 20.83C94.1773 20.83 93.6266 20.9887 93.2159 21.306C92.8146 21.6233 92.6139 22.034 92.6139 22.538C92.6139 22.958 92.7539 23.28 93.0339 23.504C93.3139 23.7187 93.7293 23.8913 94.2799 24.022L96.1419 24.442C96.7206 24.582 97.2059 24.7453 97.5979 24.932C97.9899 25.1187 98.3073 25.4033 98.5499 25.786C98.8019 26.1593 98.9279 26.6633 98.9279 27.298C98.9279 27.9233 98.7646 28.4553 98.4379 28.894C98.1113 29.3327 97.6633 29.664 97.0939 29.888C96.5246 30.1027 95.8853 30.21 95.1759 30.21C94.0186 30.21 93.0759 29.93 92.3479 29.37C91.6293 28.81 91.1719 27.998 90.9759 26.934L92.2499 26.808C92.3806 27.6387 92.7073 28.2407 93.2299 28.614C93.7526 28.978 94.4059 29.16 95.1899 29.16C95.9179 29.16 96.5059 28.9967 96.9539 28.67C97.4113 28.3433 97.6399 27.9 97.6399 27.34C97.6399 26.8267 97.4766 26.4487 97.1499 26.206C96.8326 25.9633 96.3659 25.7673 95.7499 25.618L93.8879 25.17C93.0853 24.974 92.4553 24.6893 91.9979 24.316C91.5499 23.9427 91.3259 23.3593 91.3259 22.566C91.3259 22.0153 91.4753 21.53 91.7739 21.11C92.0819 20.69 92.5066 20.368 93.0479 20.144C93.5893 19.9107 94.2006 19.794 94.8819 19.794C95.9086 19.794 96.7439 20.0507 97.3879 20.564C98.0413 21.0773 98.4799 21.81 98.7039 22.762L97.4299 22.86ZM102.619 29.006C102.861 29.006 103.113 28.9967 103.375 28.978V30C103.113 30.0187 102.791 30.028 102.409 30.028C101.951 30.028 101.592 29.9813 101.331 29.888C101.069 29.7947 100.873 29.6313 100.743 29.398C100.621 29.1647 100.561 28.8333 100.561 28.404V23.546H99.3288V22.636H100.561V20.522H101.737V22.636H103.431V23.546H101.737V28.11C101.737 28.474 101.797 28.7167 101.919 28.838C102.049 28.95 102.283 29.006 102.619 29.006ZM107.346 22.468C108.037 22.468 108.643 22.6267 109.166 22.944C109.698 23.2613 110.109 23.7093 110.398 24.288C110.687 24.8667 110.832 25.5433 110.832 26.318C110.832 27.0927 110.687 27.7693 110.398 28.348C110.109 28.9267 109.698 29.3747 109.166 29.692C108.643 30.0093 108.037 30.168 107.346 30.168C106.655 30.168 106.044 30.0093 105.512 29.692C104.989 29.3747 104.583 28.9267 104.294 28.348C104.005 27.7693 103.86 27.0927 103.86 26.318C103.86 25.5433 104.005 24.8667 104.294 24.288C104.583 23.7093 104.989 23.2613 105.512 22.944C106.044 22.6267 106.655 22.468 107.346 22.468ZM107.346 29.202C108.037 29.202 108.587 28.9453 108.998 28.432C109.418 27.9093 109.628 27.2047 109.628 26.318C109.628 25.4313 109.418 24.7313 108.998 24.218C108.587 23.6953 108.037 23.434 107.346 23.434C106.655 23.434 106.1 23.6953 105.68 24.218C105.269 24.7313 105.064 25.4313 105.064 26.318C105.064 27.2047 105.269 27.9093 105.68 28.432C106.1 28.9453 106.655 29.202 107.346 29.202ZM112.901 23.896H112.943C113.139 23.4573 113.438 23.112 113.839 22.86C114.25 22.5987 114.721 22.468 115.253 22.468C115.468 22.468 115.678 22.4867 115.883 22.524V23.658C115.575 23.63 115.347 23.616 115.197 23.616C114.525 23.616 113.984 23.8307 113.573 24.26C113.163 24.68 112.957 25.3193 112.957 26.178V30H111.781V22.636H112.901V23.896ZM122.98 27.9C122.775 28.544 122.406 29.0853 121.874 29.524C121.342 29.9533 120.605 30.168 119.662 30.168C118.999 30.168 118.411 30.0093 117.898 29.692C117.385 29.3747 116.983 28.9267 116.694 28.348C116.414 27.76 116.274 27.0833 116.274 26.318C116.274 25.5527 116.414 24.8807 116.694 24.302C116.974 23.714 117.366 23.2613 117.87 22.944C118.383 22.6267 118.976 22.468 119.648 22.468C120.301 22.468 120.885 22.622 121.398 22.93C121.911 23.2287 122.313 23.6673 122.602 24.246C122.891 24.8153 123.036 25.492 123.036 26.276V26.598H117.464C117.483 27.3727 117.693 28.0027 118.094 28.488C118.495 28.964 119.018 29.202 119.662 29.202C120.259 29.202 120.726 29.0573 121.062 28.768C121.407 28.4787 121.65 28.138 121.79 27.746L122.98 27.9ZM119.648 23.434C119.023 23.434 118.519 23.6487 118.136 24.078C117.763 24.5073 117.548 25.0393 117.492 25.674H121.832C121.776 25.03 121.557 24.498 121.174 24.078C120.791 23.6487 120.283 23.434 119.648 23.434Z" fill="white"/>
</svg>
