<svg width="33" height="34" viewBox="0 0 33 34" fill="none" xmlns="http://www.w3.org/2000/svg">
<g id="Management 1">
<path id="Management" fill-rule="evenodd" clip-rule="evenodd" d="M24.6119 30.1374H22.4416C21.8917 30.2012 21.3344 30.1398 20.8115 29.9578C20.2886 29.7758 19.8136 29.4779 19.4221 29.0864C19.0306 28.6949 18.7327 28.22 18.5507 27.6971C18.3687 27.1742 18.3073 26.6169 18.3711 26.067V23.8989C18.3073 23.3489 18.3687 22.7916 18.5507 22.2688C18.7327 21.7459 19.0306 21.271 19.4221 20.8795C19.8136 20.488 20.2886 20.1901 20.8115 20.0081C21.3344 19.8261 21.8917 19.7647 22.4416 19.8284H24.6119C25.1619 19.7647 25.7191 19.8261 26.242 20.0081C26.7649 20.1901 27.2399 20.488 27.6314 20.8795C28.0229 21.271 28.3208 21.7459 28.5028 22.2688C28.6848 22.7916 28.7462 23.3489 28.6825 23.8989V26.0701C28.7457 26.6199 28.6839 27.1768 28.5016 27.6992C28.3194 28.2217 28.0214 28.6963 27.63 29.0874C27.2386 29.4785 26.7638 29.7761 26.2411 29.9579C25.7185 30.1398 25.1616 30.2011 24.6119 30.1374ZM27.0563 23.8957C27.0563 22.1846 26.3262 21.4513 24.6119 21.4513H22.4416C20.7294 21.4513 19.9971 22.1825 19.9971 23.8957V26.067C19.9971 27.778 20.7273 28.5114 22.4416 28.5114H24.6119C26.3241 28.5114 27.0563 27.7802 27.0563 26.067V23.8989V23.8957ZM24.6119 17.112H22.4416C21.8917 17.1759 21.3344 17.1146 20.8115 16.9328C20.2886 16.7509 19.8136 16.4531 19.4221 16.0617C19.0306 15.6703 18.7327 15.1954 18.5507 14.6726C18.3687 14.1497 18.3072 13.5925 18.3711 13.0425V10.8713C18.3073 10.3213 18.3687 9.76405 18.5507 9.24117C18.7327 8.71829 19.0306 8.24334 19.4221 7.85185C19.8136 7.46036 20.2886 7.16246 20.8115 6.98045C21.3344 6.79845 21.8917 6.73706 22.4416 6.80084H24.6119C25.1619 6.73706 25.7191 6.79845 26.242 6.98045C26.7649 7.16246 27.2399 7.46036 27.6314 7.85185C28.0229 8.24334 28.3208 8.71829 28.5028 9.24117C28.6848 9.76405 28.7462 10.3213 28.6825 10.8713V13.0425C28.7468 13.5927 28.6857 14.1503 28.504 14.6736C28.3222 15.1968 28.0244 15.6721 27.6328 16.0639C27.2412 16.4557 26.766 16.7538 26.2428 16.9358C25.7197 17.1179 25.1621 17.1792 24.6119 17.1151V17.112ZM27.0563 10.8713C27.0563 9.15914 26.3262 8.42689 24.6119 8.42689H22.4416C20.7294 8.42689 19.9971 9.15701 19.9971 10.8713V13.0425C19.9971 14.7536 20.7273 15.487 22.4416 15.487H24.6119C26.3241 15.487 27.0563 14.7568 27.0563 13.0425V10.8713ZM11.5871 30.1374H9.41583C8.86589 30.2012 8.30866 30.1398 7.78581 29.9578C7.26296 29.7758 6.78804 29.4779 6.39661 29.0864C6.00519 28.6949 5.70741 28.2199 5.52553 27.697C5.34364 27.1741 5.2824 26.6169 5.34636 26.067V23.8989C5.2824 23.349 5.34364 22.7917 5.52553 22.2688C5.70741 21.7459 6.00519 21.271 6.39661 20.8795C6.78804 20.488 7.26296 20.19 7.78581 20.008C8.30866 19.826 8.86589 19.7646 9.41583 19.8284H11.5871C12.1371 19.7647 12.6944 19.8261 13.2173 20.0081C13.7402 20.1901 14.2152 20.488 14.6067 20.8795C14.9982 21.271 15.2961 21.7459 15.4781 22.2688C15.6601 22.7916 15.7215 23.3489 15.6577 23.8989V26.0701C15.721 26.6199 15.6592 27.1768 15.4769 27.6992C15.2947 28.2217 14.9967 28.6963 14.6053 29.0874C14.2138 29.4785 13.739 29.7761 13.2164 29.9579C12.6938 30.1398 12.1368 30.2011 11.5871 30.1374ZM14.0316 23.8957C14.0316 22.1846 13.3015 21.4513 11.5871 21.4513H9.41583C7.70471 21.4513 6.97138 22.1825 6.97138 23.8957V26.067C6.97138 27.778 7.70152 28.5114 9.41583 28.5114H11.5871C13.2993 28.5114 14.0316 27.7802 14.0316 26.067V23.8989V23.8957ZM11.5871 17.112H9.41583C8.86599 17.1757 8.30886 17.1144 7.7861 16.9324C7.26334 16.7505 6.78847 16.4526 6.39707 16.0612C6.00567 15.6698 5.70787 15.195 5.52591 14.6723C5.34396 14.1495 5.28257 13.5924 5.34636 13.0425V10.8713C5.2824 10.3214 5.34364 9.76412 5.52553 9.24124C5.70741 8.71835 6.00519 8.24339 6.39661 7.85188C6.78804 7.46036 7.26296 7.16243 7.78581 6.98042C8.30866 6.79841 8.86589 6.73702 9.41583 6.80084H11.5871C12.1371 6.73706 12.6944 6.79845 13.2173 6.98045C13.7402 7.16246 14.2152 7.46036 14.6067 7.85185C14.9982 8.24334 15.2961 8.71829 15.4781 9.24117C15.6601 9.76405 15.7215 10.3213 15.6577 10.8713V13.0425C15.7221 13.5927 15.6611 14.1503 15.4793 14.6736C15.2975 15.1968 14.9996 15.6721 14.6081 16.0639C14.2165 16.4557 13.7413 16.7538 13.2181 16.9358C12.6949 17.1179 12.1374 17.1792 11.5871 17.1151V17.112ZM14.0316 10.8713C14.0316 9.15914 13.3015 8.42689 11.5871 8.42689H9.41583C7.70471 8.42689 6.97138 9.15701 6.97138 10.8713V13.0425C6.97138 14.7536 7.70152 15.487 9.41583 15.487H11.5871C13.2993 15.487 14.0316 14.7568 14.0316 13.0425V10.8713Z" fill="url(#paint0_linear_3134_225899)"/>
</g>
<defs>
<linearGradient id="paint0_linear_3134_225899" x1="17.0145" y1="6.77637" x2="17.0145" y2="30.1619" gradientUnits="userSpaceOnUse">
<stop stop-color="#FFB258"/>
<stop offset="1" stop-color="#1AB3FF"/>
</linearGradient>
</defs>
</svg>
