<svg xmlns="http://www.w3.org/2000/svg" width="24" height="24" viewBox="0 0 24 24" fill="none">
  <path fill-rule="evenodd" clip-rule="evenodd" d="M15.3474 24H8.65144C2.58722 24 0 21.4129 0 15.3489V8.65106C0 2.58711 2.58722 0 8.65144 0H15.3496C21.4139 0 24 2.58711 24 8.65106V15.3489C23.9978 21.4096 21.4116 24 15.3474 24ZM22.3255 8.65106C22.3255 3.50086 20.499 1.67447 15.3474 1.67447H8.65144C3.50101 1.67447 1.67453 3.50086 1.67453 8.65106V15.3489C1.67453 20.4991 3.50101 22.3255 8.65144 22.3255H15.3496C20.5012 22.3255 22.3277 20.4991 22.3277 15.3489V8.65106H22.3255ZM18.2724 17.1677H12.4115C12.1895 17.1677 11.9765 17.0795 11.8195 16.9225C11.6625 16.7654 11.5743 16.5525 11.5743 16.3304C11.5743 16.1084 11.6625 15.8954 11.8195 15.7384C11.9765 15.5814 12.1895 15.4932 12.4115 15.4932H18.2702C18.4923 15.4932 18.7052 15.5814 18.8623 15.7384C19.0193 15.8954 19.1075 16.1084 19.1075 16.3304C19.1075 16.5525 19.0193 16.7654 18.8623 16.9225C18.7052 17.0795 18.4923 17.1677 18.2702 17.1677H18.2724ZM18.2724 9.35386H12.4115C12.1895 9.35386 11.9765 9.26566 11.8195 9.10865C11.6625 8.95163 11.5743 8.73867 11.5743 8.51662C11.5743 8.29457 11.6625 8.08162 11.8195 7.92461C11.9765 7.76759 12.1895 7.67939 12.4115 7.67939H18.2702C18.4923 7.67939 18.7052 7.76759 18.8623 7.92461C19.0193 8.08162 19.1075 8.29457 19.1075 8.51662C19.1075 8.73867 19.0193 8.95163 18.8623 9.10865C18.7052 9.26566 18.4923 9.35386 18.2702 9.35386H18.2724ZM7.15397 17.7601C6.99683 17.9167 6.78398 18.0047 6.56208 18.0047C6.34019 18.0047 6.12734 17.9167 5.9702 17.7601L5.13293 16.9229C5.05224 16.8458 4.98774 16.7534 4.94326 16.6511C4.89879 16.5488 4.87523 16.4386 4.87395 16.327C4.87266 16.2154 4.89369 16.1048 4.93579 16.0014C4.97789 15.8981 5.04023 15.8042 5.11912 15.7253C5.19802 15.6465 5.29192 15.5841 5.39525 15.542C5.49858 15.4999 5.60925 15.4789 5.72082 15.4802C5.83239 15.4815 5.94259 15.505 6.04492 15.5495C6.14724 15.594 6.23965 15.6584 6.31671 15.7391L6.56155 15.984L8.48199 14.0647C8.55905 13.984 8.65145 13.9195 8.75378 13.875C8.85611 13.8306 8.96631 13.807 9.07788 13.8057C9.18945 13.8044 9.30019 13.8255 9.40351 13.8676C9.50684 13.9097 9.60068 13.972 9.67958 14.0509C9.75847 14.1298 9.8208 14.2236 9.86291 14.327C9.90501 14.4303 9.92604 14.541 9.92475 14.6525C9.92347 14.7641 9.89991 14.8743 9.85544 14.9766C9.81096 15.0789 9.74646 15.1713 9.66577 15.2484L7.15397 17.7601ZM7.15397 9.94625C6.99683 10.1029 6.78398 10.1909 6.56208 10.1909C6.34019 10.1909 6.12734 10.1029 5.9702 9.94625L5.13293 9.10903C5.05224 9.03198 4.98774 8.93957 4.94326 8.83725C4.89879 8.73492 4.87523 8.62475 4.87395 8.51318C4.87266 8.40162 4.89369 8.29092 4.93579 8.1876C4.97789 8.08428 5.04023 7.99041 5.11912 7.91151C5.19802 7.83262 5.29192 7.77029 5.39525 7.72819C5.49858 7.68609 5.60925 7.66506 5.72082 7.66635C5.83239 7.66764 5.94259 7.69121 6.04492 7.73568C6.14724 7.78015 6.23965 7.84462 6.31671 7.92531L6.56155 8.17014L8.48199 6.25084C8.55905 6.17015 8.65145 6.10568 8.75378 6.06121C8.85611 6.01674 8.96631 5.99317 9.07788 5.99188C9.18945 5.9906 9.30019 6.01162 9.40351 6.05372C9.50684 6.09583 9.60068 6.15815 9.67958 6.23705C9.75847 6.31594 9.8208 6.40981 9.86291 6.51313C9.90501 6.61645 9.92604 6.72713 9.92475 6.8387C9.92347 6.95026 9.89991 7.06046 9.85544 7.16278C9.81096 7.26511 9.74646 7.35751 9.66577 7.43456L7.15397 9.94625Z" fill="#757B8A"/>
</svg>