<svg xmlns="http://www.w3.org/2000/svg" width="24" height="24" viewBox="0 0 24 24" fill="none">
  <path fill-rule="evenodd" clip-rule="evenodd" d="M23.1627 1.6745H22.8731V14.3435C22.9305 14.8928 22.8644 15.448 22.6799 15.9685C22.4953 16.489 22.1968 16.9617 21.8063 17.3522C21.4157 17.7427 20.9429 18.041 20.4223 18.2254C19.9018 18.4099 19.3466 18.4758 18.7973 18.4183H12.8372V20.413L16.8398 22.4132C17.0385 22.5125 17.1896 22.6866 17.2599 22.8974C17.3302 23.1081 17.314 23.3381 17.2147 23.5368C17.1655 23.6352 17.0974 23.7229 17.0143 23.795C16.9313 23.8671 16.8348 23.9221 16.7305 23.9569C16.5198 24.0273 16.2898 24.011 16.0911 23.9117L12 21.8667L7.91001 23.9117C7.71244 24.002 7.48751 24.0121 7.28265 23.9398C7.0778 23.8676 6.90901 23.7186 6.81181 23.5244C6.7146 23.3301 6.69658 23.1057 6.76157 22.8984C6.82657 22.6911 6.96945 22.5172 7.16017 22.4132L11.1627 20.4119V18.4226H5.19059C4.64161 18.4788 4.087 18.4121 3.56691 18.2276C3.04682 18.0431 2.57428 17.7453 2.18339 17.3558C1.79249 16.9663 1.49305 16.4947 1.30674 15.9753C1.12043 15.4558 1.05186 14.9015 1.10607 14.3523V1.6745H0.837225C0.615176 1.6745 0.402175 1.58628 0.245163 1.42927C0.0881515 1.27225 0 1.05928 0 0.837233C0 0.615183 0.0881515 0.402246 0.245163 0.245233C0.402175 0.0882191 0.615176 0 0.837225 0H23.1627C23.3848 0 23.5978 0.0882191 23.7548 0.245233C23.9118 0.402246 24 0.615183 24 0.837233C24 1.05928 23.9118 1.27225 23.7548 1.42927C23.5978 1.58628 23.3848 1.6745 23.1627 1.6745ZM21.1953 1.6745H2.78059V14.3435C2.72521 14.6717 2.74911 15.0084 2.85037 15.3254C2.95162 15.6425 3.12723 15.9307 3.36257 16.1661C3.59792 16.4014 3.88615 16.5771 4.2032 16.6783C4.52025 16.7796 4.85693 16.8035 5.18512 16.7481H18.7919C19.1204 16.8058 19.458 16.7835 19.7762 16.6831C20.0943 16.5827 20.3836 16.4071 20.6195 16.1712C20.8554 15.9353 21.031 15.646 21.1314 15.3279C21.2318 15.0097 21.2542 14.6721 21.1965 14.3435V1.6745H21.1953ZM14.0406 11.1137C13.8867 11.2447 13.7061 11.3404 13.5113 11.3941C13.3165 11.4478 13.1123 11.4581 12.9131 11.4243C12.7139 11.3906 12.5244 11.3136 12.3582 11.1987C12.1919 11.0839 12.0528 10.9339 11.9508 10.7595L10.7758 8.80089L7.50994 11.5268C7.33934 11.669 7.11923 11.7376 6.89807 11.7175C6.6769 11.6974 6.47281 11.5903 6.33062 11.4197C6.18843 11.2491 6.11981 11.0291 6.13989 10.8079C6.15998 10.5867 6.2671 10.3826 6.43769 10.2404L9.95277 7.30458C10.1061 7.17243 10.2868 7.07574 10.4818 7.02142C10.6768 6.96709 10.8814 6.95648 11.081 6.9903C11.2806 7.02412 11.4702 7.10155 11.6364 7.21708C11.8026 7.33262 11.9414 7.48339 12.0426 7.65868L13.2187 9.61844L16.4835 6.88593C16.654 6.74359 16.8742 6.67488 17.0955 6.69486C17.3167 6.71485 17.521 6.8219 17.6633 6.9925C17.8056 7.16309 17.8744 7.38324 17.8544 7.60451C17.8344 7.82579 17.7274 8.03006 17.5568 8.1724L14.0406 11.1137Z" fill="#757B8A"/>
</svg>