<svg xmlns="http://www.w3.org/2000/svg" width="24" height="24" viewBox="0 0 24 24" fill="none">
  <path d="M15.4286 5.14286C15.4286 7.98318 13.126 10.2857 10.2857 10.2857C7.44539 10.2857 5.14286 7.98318 5.14286 5.14286C5.14286 2.30254 7.44539 0 10.2857 0C13.126 0 15.4286 2.30254 15.4286 5.14286ZM10.2857 8.57143C12.1793 8.57143 13.7143 7.0364 13.7143 5.14286C13.7143 3.24931 12.1793 1.71429 10.2857 1.71429C8.39217 1.71429 6.85714 3.24931 6.85714 5.14286C6.85714 7.0364 8.39217 8.57143 10.2857 8.57143Z" fill="#757B8A"/>
  <path d="M10.7247 20.5714C10.5311 20.0238 10.3976 19.4477 10.3321 18.8512H1.71429C1.71673 18.4281 1.97786 17.1608 3.14074 15.9979C4.25889 14.8797 6.36151 13.7143 10.2857 13.7143C10.7323 13.7143 11.1552 13.7294 11.5559 13.7578C11.9419 13.1726 12.4054 12.6432 12.9319 12.184C12.1321 12.0654 11.2525 12 10.2857 12C1.71429 12 0 17.1429 0 18.8571C0 20.5714 1.71429 20.5714 1.71429 20.5714H10.7247Z" fill="#757B8A"/>
  <path d="M16.9465 12.7878C17.2561 11.7374 18.7439 11.7374 19.0535 12.7878L19.1286 13.0425C19.3264 13.7137 20.093 14.0312 20.7074 13.6965L20.9407 13.5695C21.9023 13.0457 22.9543 14.0977 22.4305 15.0593L22.3035 15.2926C21.9688 15.907 22.2863 16.6736 22.9575 16.8714L23.2122 16.9465C24.2626 17.2561 24.2626 18.7439 23.2122 19.0535L22.9575 19.1286C22.2863 19.3264 21.9688 20.093 22.3035 20.7074L22.4305 20.9407C22.9543 21.9023 21.9023 22.9543 20.9407 22.4305L20.7074 22.3035C20.093 21.9688 19.3264 22.2863 19.1286 22.9575L19.0535 23.2122C18.7439 24.2626 17.2561 24.2626 16.9465 23.2122L16.8714 22.9575C16.6736 22.2863 15.907 21.9688 15.2926 22.3035L15.0593 22.4305C14.0977 22.9543 13.0457 21.9023 13.5695 20.9407L13.6965 20.7074C14.0312 20.093 13.7137 19.3264 13.0425 19.1286L12.7878 19.0535C11.7374 18.7439 11.7374 17.2561 12.7878 16.9465L13.0425 16.8714C13.7137 16.6736 14.0312 15.907 13.6965 15.2926L13.5695 15.0593C13.0457 14.0977 14.0977 13.0457 15.0593 13.5695L15.2926 13.6965C15.907 14.0312 16.6736 13.7137 16.8714 13.0425L16.9465 12.7878ZM20.5714 18C20.5714 16.5798 19.4202 15.4286 18 15.4286C16.5798 15.4286 15.4286 16.5798 15.4286 18C15.4286 19.4202 16.5798 20.5714 18 20.5714C19.4202 20.5714 20.5714 19.4202 20.5714 18Z" fill="#757B8A"/>
</svg>