<svg xmlns="http://www.w3.org/2000/svg" width="24" height="24" viewBox="0 0 24 24" fill="none">
  <path fill-rule="evenodd" clip-rule="evenodd" d="M23.2309 9.8039C22.9483 10.0788 22.593 10.2665 22.2075 10.3445L20.4159 19.7037C19.9795 21.9681 19.2605 24 15.217 24H8.4972C4.51483 24 3.61251 21.6205 3.27101 19.548L1.7708 10.3368C1.39104 10.2597 1.04076 10.076 0.760486 9.80718C0.480314 9.47171 0.270148 9.08301 0.142502 8.66424C0.0148566 8.24546 -0.0276601 7.80516 0.017474 7.36953C0.017474 4.29916 2.25305 4.29917 3.32775 4.29917H3.81764L7.85455 0.247372C8.01066 0.0895989 8.22274 0.000620165 8.44413 3.22915e-06C8.66552 -0.000613706 8.87809 0.0871918 9.03508 0.244093C9.19206 0.400993 9.28059 0.614139 9.2812 0.836647C9.28182 1.05915 9.19449 1.2728 9.03837 1.43057L6.18196 4.29917H17.8192L14.9628 1.43057C14.8067 1.2728 14.7193 1.05915 14.72 0.836647C14.7206 0.614139 14.8091 0.400993 14.9661 0.244093C15.1231 0.0871918 15.3356 -0.000613687 15.557 3.22915e-06C15.7784 0.000620146 15.9905 0.0895989 16.1466 0.247372L20.1836 4.29917H20.6734C21.7481 4.29917 23.9837 4.29916 23.9837 7.36953C24.0273 7.80532 23.9831 8.24545 23.8538 8.6637C23.7244 9.08195 23.5126 9.46973 23.2309 9.8039ZM4.92069 19.276C5.24801 21.2498 5.91248 22.3255 8.4972 22.3255H15.217C18.08 22.3255 18.4062 21.3178 18.7739 19.3889L20.4891 10.4355H3.48048L4.92069 19.276ZM20.6647 5.97032H3.33101C2.00319 5.97032 1.69442 6.09863 1.69442 7.36625C1.62765 7.79919 1.71621 8.24189 1.94428 8.61524C2.29945 8.77001 2.69086 8.82094 3.07353 8.76219H20.9298C21.3125 8.81969 21.7036 8.7688 22.0591 8.61524C22.2871 8.24189 22.3757 7.79919 22.3089 7.36625C22.3035 6.09863 21.9881 5.97032 20.6647 5.97032ZM9.49986 13.3951C9.60942 13.3948 9.71796 13.4163 9.81928 13.4582C9.92059 13.5001 10.0127 13.5616 10.0903 13.6394C10.168 13.7171 10.2296 13.8094 10.2716 13.9111C10.3137 14.0127 10.3355 14.1217 10.3356 14.2318V18.1948C10.3356 18.4176 10.2476 18.6312 10.0908 18.7887C9.93411 18.9462 9.72152 19.0348 9.49986 19.0348C9.27821 19.0348 9.06565 18.9462 8.90892 18.7887C8.75218 18.6312 8.66412 18.4176 8.66412 18.1948V14.2318C8.66426 14.1217 8.68602 14.0127 8.72812 13.9111C8.77021 13.8094 8.83179 13.7171 8.90942 13.6394C8.98704 13.5616 9.07917 13.5001 9.18048 13.4582C9.2818 13.4163 9.3903 13.3948 9.49986 13.3951ZM14.6279 13.3951C14.7374 13.3948 14.846 13.4163 14.9473 13.4582C15.0486 13.5001 15.1407 13.5616 15.2183 13.6394C15.2959 13.7171 15.3576 13.8094 15.3996 13.9111C15.4417 14.0127 15.4635 14.1217 15.4636 14.2318V18.1948C15.4636 18.4176 15.3756 18.6312 15.2188 18.7887C15.0621 18.9462 14.8495 19.0348 14.6279 19.0348C14.4062 19.0348 14.1936 18.9462 14.0369 18.7887C13.8801 18.6312 13.7921 18.4176 13.7921 18.1948V14.2318C13.7924 14.0098 13.8804 13.797 14.0366 13.6401C14.1929 13.4832 14.4048 13.3951 14.6257 13.3951H14.6279Z" fill="#757B8A"/>
</svg>