<svg xmlns="http://www.w3.org/2000/svg" width="33" height="32" viewBox="0 0 33 32" fill="none">
  <path d="M23.9843 20.6878C25.5658 18.5346 26.5 15.8764 26.5 13C26.5 5.8203 20.6797 0 13.5 0C6.3203 0 0.5 5.8203 0.5 13C0.5 20.1797 6.3203 26 13.5 26C16.3772 26 19.036 25.0653 21.1895 23.483L21.1878 23.4843C21.2468 23.5643 21.3125 23.6409 21.3849 23.7133L29.0858 31.4142C29.8668 32.1953 31.1332 32.1953 31.9142 31.4142C32.6953 30.6332 32.6953 29.3668 31.9142 28.5858L24.2133 20.8849C24.1409 20.8125 24.0643 20.7468 23.9843 20.6878ZM24.5 13C24.5 19.0751 19.5751 24 13.5 24C7.42487 24 2.5 19.0751 2.5 13C2.5 6.92487 7.42487 2 13.5 2C19.5751 2 24.5 6.92487 24.5 13Z" fill="#98A2B3"/>
</svg>