<svg xmlns="http://www.w3.org/2000/svg" width="24" height="24" viewBox="0 0 24 24" fill="none">
  <path fill-rule="evenodd" clip-rule="evenodd" d="M22.4406 15.3112C21.5773 16.155 20.4542 16.6822 19.2536 16.8073V18.0421C19.2536 18.5165 19.0653 18.9715 18.7302 19.3071C18.395 19.6427 17.9404 19.8315 17.4661 19.8321C17.112 19.8324 16.766 19.7262 16.473 19.5272L16.2545 19.3808C15.8538 20.0919 15.2639 20.678 14.5503 21.074C13.8367 21.4701 13.0273 21.6605 12.212 21.6243H9.42807L6.27055 23.7257C6.01065 23.9049 5.7023 24.0006 5.38664 24C5.17755 23.9997 4.97057 23.9582 4.77753 23.8778C4.5845 23.7975 4.4092 23.6798 4.26165 23.5316C4.11411 23.3835 3.99724 23.2077 3.91769 23.0143C3.83814 22.8209 3.79748 22.6136 3.79806 22.4045V21.5598C2.85635 21.4305 1.98071 21.0031 1.29932 20.3403C0.87058 19.8969 0.535093 19.3721 0.31271 18.7968C0.0903271 18.2215 -0.0144306 17.6074 0.00462319 16.9909V12.4493C-0.0420775 11.4319 0.26619 10.4299 0.876668 9.61475C1.48715 8.79962 2.3619 8.22206 3.3512 7.98087V5.58547C3.31697 4.84354 3.43785 4.10265 3.70616 3.41011C3.97448 2.71757 4.3843 2.08863 4.90944 1.5635C5.43457 1.03837 6.06346 0.628592 6.75592 0.360363C7.44838 0.0921338 8.18919 -0.0286555 8.93097 0.00572825H18.4156C19.1573 -0.0286676 19.8981 0.0921234 20.5905 0.360363C21.2829 0.628603 21.9117 1.03838 22.4368 1.56353C22.9618 2.08868 23.3716 2.71763 23.6397 3.41017C23.9079 4.10272 24.0287 4.8436 23.9943 5.58547V11.2767C24.017 12.0188 23.8914 12.758 23.6246 13.4508C23.3578 14.1436 22.9552 14.7762 22.4406 15.3112ZM1.68173 12.4504V16.992C1.65107 17.3882 1.70652 17.7863 1.84424 18.159C1.98196 18.5318 2.1987 18.8703 2.47959 19.1513C2.76047 19.4324 3.09885 19.6493 3.47147 19.7872C3.84408 19.9251 4.2421 19.9807 4.63823 19.9501C4.86019 19.9501 5.07307 20.0383 5.23003 20.1953C5.38698 20.3523 5.47516 20.5652 5.47516 20.7872V22.2472L8.71464 20.0911C8.85227 19.9996 9.01372 19.9506 9.17897 19.9501H12.2152C12.8539 20.0075 13.492 19.8337 14.0133 19.4602C14.5346 19.0868 14.9046 18.5386 15.0559 17.9154C15.1395 17.6148 15.18 17.3039 15.1761 16.992V12.4504C15.2083 12.0539 15.1539 11.6551 15.0167 11.2817C14.8795 10.9083 14.6628 10.5693 14.3816 10.288C14.1003 10.0067 13.7613 9.78992 13.388 9.6527C13.0147 9.51548 12.616 9.46109 12.2196 9.49329H4.63169C4.4973 9.49329 4.37274 9.5031 4.24818 9.51293C3.88408 9.52993 3.5272 9.62042 3.19896 9.77893C2.87071 9.93743 2.57793 10.1607 2.33818 10.4353C2.09843 10.7099 1.91667 11.0302 1.80386 11.3768C1.69105 11.7235 1.64951 12.0894 1.68173 12.4525V12.4504ZM22.3237 5.58657C22.3602 5.0643 22.2842 4.54029 22.1008 4.04991C21.9175 3.55953 21.631 3.1142 21.2609 2.74399C20.8908 2.37379 20.4456 2.08731 19.9553 1.90393C19.465 1.72054 18.941 1.64451 18.4189 1.68096H8.93423C8.41201 1.64453 7.88807 1.72058 7.39774 1.90396C6.9074 2.08734 6.46208 2.37378 6.09187 2.74396C5.72165 3.11414 5.43514 3.55943 5.25167 4.04981C5.06819 4.54019 4.99203 5.06424 5.0283 5.58657V7.81913H12.2152C12.8308 7.79066 13.4457 7.89097 14.0203 8.11364C14.595 8.3363 15.1169 8.67642 15.5527 9.11228C15.9884 9.54814 16.3285 10.0702 16.5511 10.6449C16.7738 11.2197 16.874 11.8346 16.8456 12.4504V16.992C16.8458 17.2339 16.8301 17.4755 16.7986 17.7154C16.798 17.7212 16.798 17.727 16.7986 17.7329L17.5197 18.1449C17.5392 18.1359 17.5556 18.1213 17.5668 18.103C17.5781 18.0848 17.5838 18.0636 17.5831 18.0421V16.0216C17.5831 15.9117 17.6047 15.8028 17.6468 15.7012C17.6888 15.5997 17.7505 15.5074 17.8282 15.4297C17.9059 15.3519 17.9981 15.2903 18.0997 15.2482C18.2012 15.2062 18.3101 15.1845 18.42 15.1845C18.9425 15.2221 19.467 15.1468 19.9579 14.9637C20.4487 14.7807 20.8945 14.4941 21.2649 14.1236C21.6353 13.753 21.9216 13.3071 22.1045 12.8161C22.2874 12.3251 22.3625 11.8004 22.3248 11.2778V5.58547L22.3237 5.58657Z" fill="#757B8A"/>
</svg>