<svg xmlns="http://www.w3.org/2000/svg" width="24" height="24" viewBox="0 0 24 24" fill="none">
  <path fill-rule="evenodd" clip-rule="evenodd" d="M23.3787 11.1529C22.8938 11.6533 22.303 12.0358 21.6509 12.2717C20.9989 12.5076 20.3024 12.5907 19.614 12.5148H15.7993C12.9408 12.5148 11.4905 10.8937 11.4905 7.69753V4.38728C11.4161 3.69539 11.5007 2.99547 11.7377 2.34213C11.9747 1.68878 12.3576 1.09971 12.8566 0.620812C13.872 -0.140782 15.3519 -0.199572 17.5159 0.432977C18.9368 0.865788 20.2314 1.64393 21.2869 2.69951C22.3423 3.75509 23.1265 5.05606 23.5711 6.48887C24.1995 8.65498 24.1391 10.1367 23.3787 11.1529ZM21.9124 6.97509C21.5462 5.82301 20.9109 4.7773 20.0603 3.92666C19.2097 3.07602 18.169 2.44554 17.0264 2.08868C16.3596 1.8725 15.6668 1.74959 14.9671 1.72342C14.5863 1.69777 14.2072 1.79502 13.8845 2.00113C13.6079 2.32555 13.4047 2.70711 13.2889 3.11924C13.1731 3.53137 13.1475 3.96412 13.214 4.38728V7.69753C13.214 10.2727 14.2032 10.7911 15.7993 10.7911H19.6129C20.0357 10.8593 20.468 10.8346 20.8805 10.7187C21.293 10.6028 21.676 10.3984 22.0035 10.1194C22.3962 9.58825 22.3678 8.53054 21.9124 6.97509ZM9.37649 3.31344C7.70547 3.68187 6.16384 4.50057 4.91479 5.68293C3.66573 6.86528 2.75568 8.36733 2.2808 10.0302C1.80592 11.6931 1.78388 13.4549 2.21709 15.1294C2.65029 16.8039 3.52258 18.3288 4.74171 19.5427C5.96084 20.7566 7.48147 21.6145 9.14276 22.0256C10.804 22.4366 12.5442 22.3856 14.1792 21.8779C15.8142 21.3702 17.2832 20.4247 18.4309 19.1413C19.5785 17.858 20.3622 16.2846 20.6989 14.5876C20.746 14.3622 20.8791 14.1648 21.0692 14.0381C21.2594 13.9115 21.4912 13.8659 21.7143 13.9112C21.8246 13.9327 21.9297 13.9761 22.0234 14.0389C22.1171 14.1016 22.1976 14.1824 22.2604 14.2768C22.3231 14.3711 22.3668 14.477 22.3889 14.5885C22.4111 14.7 22.4112 14.8148 22.3894 14.9263C21.8618 17.5023 20.469 19.8138 18.4478 21.468C16.4267 23.1221 13.9018 24.0167 11.3026 23.9998C10.6773 24 10.053 23.9495 9.43569 23.8488C6.84202 23.4407 4.47376 22.1194 2.74807 20.1176C1.02237 18.1159 0.0498876 15.562 0.00186725 12.9058C-0.0461531 10.2497 0.833379 7.66149 2.48556 5.59717C4.13775 3.53284 6.45662 2.12476 9.03381 1.62089C9.25662 1.57541 9.48816 1.6205 9.67839 1.74641C9.86862 1.87232 10.0022 2.06895 10.0504 2.29378C10.0727 2.40555 10.073 2.52068 10.0512 2.63256C10.0293 2.74445 9.98589 2.85085 9.92325 2.94564C9.8606 3.04043 9.78001 3.12172 9.68617 3.18485C9.59233 3.24798 9.4871 3.29168 9.37649 3.31344Z" fill="#757B8A"/>
</svg>