<svg xmlns="http://www.w3.org/2000/svg" width="24" height="24" viewBox="0 0 24 24" fill="none">
  <g clip-path="url(#clip0_89_267681)">
    <path fill-rule="evenodd" clip-rule="evenodd" d="M11.9317 0H12.0701C14.3797 0 16.207 -1.66339e-08 17.637 0.213209C19.1138 0.434233 20.2859 0.898605 21.1979 1.91219C22.0988 2.91237 22.5017 4.17823 22.6937 5.77451C22.8846 7.34512 22.8846 9.36 22.8846 11.942V12.058C22.8846 14.64 22.8846 16.6549 22.6949 18.2255C22.5017 19.8218 22.0988 21.0876 21.199 22.0878C20.2859 23.1014 19.115 23.5658 17.637 23.7868C16.207 24 14.3797 24 12.0712 24H11.9306C9.62212 24 7.79477 24 6.36482 23.7868C4.88686 23.5658 3.71588 23.1014 2.80388 22.0878C1.90305 21.0876 1.50007 19.8218 1.30807 18.2255C1.11719 16.6549 1.11719 14.64 1.11719 12.058V11.942C1.11719 9.36 1.11719 7.34512 1.30696 5.77563C1.50007 4.17712 1.90305 2.91237 2.80277 1.91219C3.71588 0.898605 4.88686 0.434233 6.36482 0.213209C7.79477 -1.66339e-08 9.62212 0 11.9317 0ZM6.61263 1.86977C5.35458 2.0573 4.60668 2.41116 4.04742 3.03181C3.47812 3.66586 3.14323 4.53433 2.96909 5.97656C2.79272 7.43442 2.79161 9.34772 2.79161 12C2.79161 14.6523 2.79272 16.5656 2.97021 18.0234C3.14435 19.4657 3.477 20.3341 4.04742 20.9682C4.60668 21.5888 5.35458 21.9427 6.61263 22.1302C7.90416 22.3234 9.60649 22.3256 12.0009 22.3256C14.3953 22.3256 16.0977 22.3234 17.3892 22.1302C18.6472 21.9427 19.3951 21.5888 19.9533 20.9682C20.5248 20.3341 20.8575 19.4657 21.0327 18.0234C21.2091 16.5656 21.2102 14.6523 21.2102 12C21.2102 9.34772 21.2091 7.43442 21.0316 5.97656C20.8575 4.53433 20.5248 3.66586 19.9544 3.03181C19.3951 2.41116 18.6472 2.0573 17.3892 1.86977C16.0977 1.67665 14.3953 1.67442 12.0009 1.67442C9.60649 1.67442 7.90416 1.67665 6.61263 1.86977ZM8.5583 4.46512H15.4435C15.8677 4.46512 16.2361 4.46512 16.5576 4.55107C16.9833 4.66508 17.3715 4.88911 17.6833 5.20066C17.995 5.5122 18.2193 5.9003 18.3336 6.32595C18.4206 6.64967 18.4206 7.01581 18.4195 7.44223V7.62865C18.4195 8.05284 18.4195 8.42121 18.3336 8.7427C18.2195 9.16843 17.9955 9.55666 17.684 9.8684C17.3724 10.1801 16.9843 10.4044 16.5587 10.5187C16.235 10.6058 15.8688 10.6058 15.4424 10.6047H8.55942C8.13523 10.6047 7.76686 10.6047 7.44537 10.5187C7.01964 10.4047 6.63141 10.1807 6.31967 9.86911C6.00793 9.55756 5.78365 9.16947 5.66937 8.74381C5.5823 8.42009 5.58342 8.05395 5.58342 7.62754V7.44112C5.58342 7.01693 5.58342 6.64856 5.66937 6.32707C5.78338 5.90134 6.00741 5.51311 6.31896 5.20137C6.63051 4.88962 7.0186 4.66535 7.44426 4.55107C7.76798 4.464 8.13412 4.46512 8.56054 4.46512M8.65207 6.13953C8.07942 6.13953 7.95663 6.14623 7.87737 6.16856C7.73553 6.20662 7.6062 6.28132 7.50235 6.38517C7.39851 6.48901 7.32381 6.61835 7.28575 6.76019C7.26342 6.83944 7.25672 6.96112 7.25672 7.53488C7.25672 8.10754 7.26342 8.23033 7.28575 8.30958C7.32381 8.45142 7.39851 8.58076 7.50235 8.6846C7.6062 8.78845 7.73553 8.86315 7.87737 8.90121C7.95663 8.92354 8.0783 8.93023 8.65207 8.93023H15.3497C15.9224 8.93023 16.0452 8.92354 16.1244 8.90121C16.2663 8.86315 16.3956 8.78845 16.4995 8.6846C16.6033 8.58076 16.678 8.45142 16.7161 8.30958C16.7384 8.23033 16.7451 8.10865 16.7451 7.53488C16.7451 6.96223 16.7384 6.83944 16.7161 6.76019C16.678 6.61835 16.6033 6.48901 16.4995 6.38517C16.3956 6.28132 16.2663 6.20662 16.1244 6.16856C16.0452 6.14623 15.9235 6.13953 15.3497 6.13953H8.65207Z" fill="#757B8A"/>
    <path d="M8.65443 13.1163C8.65443 13.4123 8.53683 13.6963 8.32748 13.9056C8.11814 14.115 7.83421 14.2326 7.53815 14.2326C7.2421 14.2326 6.95817 14.115 6.74883 13.9056C6.53948 13.6963 6.42188 13.4123 6.42188 13.1163C6.42188 12.8202 6.53948 12.5363 6.74883 12.327C6.95817 12.1176 7.2421 12 7.53815 12C7.83421 12 8.11814 12.1176 8.32748 12.327C8.53683 12.5363 8.65443 12.8202 8.65443 13.1163ZM8.65443 17.5814C8.65443 17.8775 8.53683 18.1614 8.32748 18.3707C8.11814 18.5801 7.83421 18.6977 7.53815 18.6977C7.2421 18.6977 6.95817 18.5801 6.74883 18.3707C6.53948 18.1614 6.42188 17.8775 6.42188 17.5814C6.42188 17.2853 6.53948 17.0014 6.74883 16.7921C6.95817 16.5827 7.2421 16.4651 7.53815 16.4651C7.83421 16.4651 8.11814 16.5827 8.32748 16.7921C8.53683 17.0014 8.65443 17.2853 8.65443 17.5814ZM13.1195 13.1163C13.1195 13.4123 13.0019 13.6963 12.7926 13.9056C12.5833 14.115 12.2993 14.2326 12.0033 14.2326C11.7072 14.2326 11.4233 14.115 11.2139 13.9056C11.0046 13.6963 10.887 13.4123 10.887 13.1163C10.887 12.8202 11.0046 12.5363 11.2139 12.327C11.4233 12.1176 11.7072 12 12.0033 12C12.2993 12 12.5833 12.1176 12.7926 12.327C13.0019 12.5363 13.1195 12.8202 13.1195 13.1163ZM13.1195 17.5814C13.1195 17.8775 13.0019 18.1614 12.7926 18.3707C12.5833 18.5801 12.2993 18.6977 12.0033 18.6977C11.7072 18.6977 11.4233 18.5801 11.2139 18.3707C11.0046 18.1614 10.887 17.8775 10.887 17.5814C10.887 17.2853 11.0046 17.0014 11.2139 16.7921C11.4233 16.5827 11.7072 16.4651 12.0033 16.4651C12.2993 16.4651 12.5833 16.5827 12.7926 16.7921C13.0019 17.0014 13.1195 17.2853 13.1195 17.5814ZM17.5847 13.1163C17.5847 13.4123 17.4671 13.6963 17.2577 13.9056C17.0484 14.115 16.7644 14.2326 16.4684 14.2326C16.1723 14.2326 15.8884 14.115 15.6791 13.9056C15.4697 13.6963 15.3521 13.4123 15.3521 13.1163C15.3521 12.8202 15.4697 12.5363 15.6791 12.327C15.8884 12.1176 16.1723 12 16.4684 12C16.7644 12 17.0484 12.1176 17.2577 12.327C17.4671 12.5363 17.5847 12.8202 17.5847 13.1163ZM17.5847 17.5814C17.5847 17.8775 17.4671 18.1614 17.2577 18.3707C17.0484 18.5801 16.7644 18.6977 16.4684 18.6977C16.1723 18.6977 15.8884 18.5801 15.6791 18.3707C15.4697 18.1614 15.3521 17.8775 15.3521 17.5814C15.3521 17.2853 15.4697 17.0014 15.6791 16.7921C15.8884 16.5827 16.1723 16.4651 16.4684 16.4651C16.7644 16.4651 17.0484 16.5827 17.2577 16.7921C17.4671 17.0014 17.5847 17.2853 17.5847 17.5814Z" fill="#757B8A"/>
  </g>
  <defs>
    <clipPath id="clip0_89_267681">
      <rect width="24" height="24" fill="white"/>
    </clipPath>
  </defs>
</svg>