<svg xmlns="http://www.w3.org/2000/svg" width="22" height="24" viewBox="0 0 22 24" fill="none">
  <g clip-path="url(#clip0_89_267669)">
    <path fill-rule="evenodd" clip-rule="evenodd" d="M15.3102 24.0174H6.69531C2.7565 24.0174 0.492188 21.6762 0.492188 17.5935V8.0965C0.492188 4.3091 2.46159 2.04563 5.88436 1.73494V0.834583C5.88436 0.612622 5.9693 0.399733 6.12039 0.242783C6.27149 0.0858328 6.47637 -0.0023372 6.69004 -0.0023372C6.90372 -0.0023372 7.10873 0.0858328 7.25982 0.242783C7.41091 0.399733 7.49572 0.612622 7.49572 0.834583V1.67147H14.4993V0.834583C14.4993 0.611171 14.5846 0.396919 14.7367 0.238943C14.8888 0.0809677 15.0951 -0.0078125 15.3102 -0.0078125C15.5253 -0.0078125 15.7315 0.0809677 15.8836 0.238943C16.0357 0.396919 16.1212 0.611171 16.1212 0.834583V1.73821C19.5439 2.0489 21.5028 4.31237 21.5028 8.09978V17.5967C21.5028 21.6762 19.249 24.0174 15.3102 24.0174ZM16.1212 3.40217V4.18547C16.1212 4.40888 16.0357 4.62313 15.8836 4.78111C15.7315 4.93908 15.5253 5.02786 15.3102 5.02786C15.0951 5.02786 14.8888 4.93908 14.7367 4.78111C14.5846 4.62313 14.4993 4.40888 14.4993 4.18547V3.34748H7.49572V4.18547C7.49572 4.40743 7.41091 4.62032 7.25982 4.77727C7.10873 4.93422 6.90372 5.02239 6.69004 5.02239C6.47637 5.02239 6.27149 4.93422 6.12039 4.77727C5.9693 4.62032 5.88436 4.40743 5.88436 4.18547V3.40217C3.40943 3.66035 2.17729 5.14272 2.12464 7.91709H19.8809C19.8282 5.14272 18.5856 3.66035 16.1212 3.40217ZM19.8914 9.59306H2.11409V17.5935C2.11409 20.7879 3.60956 22.3414 6.69531 22.3414H15.3102C18.396 22.3414 19.8914 20.7879 19.8914 17.5935V9.59306ZM14.9942 18.3757C14.8502 18.381 14.7066 18.3563 14.5719 18.3029C14.4372 18.2495 14.3142 18.1685 14.2103 18.0648C14.1063 17.9611 14.0235 17.8368 13.9666 17.6992C13.9098 17.5616 13.8801 17.4135 13.8793 17.2638C13.8786 17.114 13.907 16.9657 13.9625 16.8275C14.0181 16.6893 14.0997 16.5642 14.2027 16.4594C14.3057 16.3547 14.428 16.2725 14.5621 16.2177C14.6963 16.163 14.8396 16.1367 14.9837 16.1406H14.9942C15.2737 16.1497 15.5388 16.2714 15.7334 16.48C15.928 16.6886 16.037 16.9676 16.037 17.2581C16.037 17.5486 15.928 17.8277 15.7334 18.0362C15.5388 18.2448 15.2737 18.3666 14.9942 18.3757ZM14.9942 15.0237C14.8502 15.029 14.7066 15.0043 14.5719 14.9509C14.4372 14.8975 14.3142 14.8165 14.2103 14.7128C14.1063 14.6091 14.0235 14.4848 13.9666 14.3472C13.9098 14.2096 13.8801 14.0615 13.8793 13.9118C13.8786 13.762 13.907 13.6137 13.9625 13.4755C14.0181 13.3373 14.0997 13.2122 14.2027 13.1074C14.3057 13.0027 14.428 12.9205 14.5621 12.8657C14.6963 12.811 14.8396 12.7847 14.9837 12.7886H14.9942C15.2737 12.7977 15.5388 12.9194 15.7334 13.128C15.928 13.3366 16.037 13.6157 16.037 13.9061C16.037 14.1966 15.928 14.4757 15.7334 14.6843C15.5388 14.8928 15.2737 15.0146 14.9942 15.0237ZM11.0028 18.3757C10.8588 18.381 10.715 18.3563 10.5804 18.3029C10.4457 18.2495 10.3228 18.1685 10.2189 18.0648C10.1149 17.9611 10.032 17.8368 9.97512 17.6992C9.91828 17.5616 9.88866 17.4135 9.88796 17.2638C9.88725 17.114 9.91547 16.9657 9.97101 16.8275C10.0265 16.6893 10.1083 16.5642 10.2113 16.4594C10.3143 16.3547 10.4365 16.2725 10.5706 16.2177C10.7048 16.163 10.8482 16.1367 10.9923 16.1406H11.0028C11.1469 16.1359 11.2904 16.1614 11.4249 16.2154C11.5594 16.2695 11.682 16.3511 11.7855 16.4553C11.889 16.5595 11.9714 16.6843 12.0276 16.8222C12.0838 16.9601 12.1128 17.1084 12.1128 17.2581C12.1128 17.4079 12.0838 17.5562 12.0276 17.6941C11.9714 17.832 11.889 17.9568 11.7855 18.061C11.682 18.1652 11.5594 18.2468 11.4249 18.3008C11.2904 18.3549 11.1469 18.3803 11.0028 18.3757ZM11.0028 15.0237C10.8588 15.029 10.715 15.0043 10.5804 14.9509C10.4457 14.8975 10.3228 14.8165 10.2189 14.7128C10.1149 14.6091 10.032 14.4848 9.97512 14.3472C9.91828 14.2096 9.88866 14.0615 9.88796 13.9118C9.88725 13.762 9.91547 13.6137 9.97101 13.4755C10.0265 13.3373 10.1083 13.2122 10.2113 13.1074C10.3143 13.0027 10.4365 12.9205 10.5706 12.8657C10.7048 12.811 10.8482 12.7847 10.9923 12.7886H11.0028C11.1469 12.784 11.2904 12.8094 11.4249 12.8634C11.5594 12.9175 11.682 12.9991 11.7855 13.1033C11.889 13.2075 11.9714 13.3323 12.0276 13.4702C12.0838 13.6081 12.1128 13.7564 12.1128 13.9061C12.1128 14.0559 12.0838 14.2041 12.0276 14.3421C11.9714 14.48 11.889 14.6048 11.7855 14.709C11.682 14.8132 11.5594 14.8948 11.4249 14.9488C11.2904 15.0029 11.1469 15.0283 11.0028 15.0237ZM7.01131 18.3757C6.73182 18.3666 6.46671 18.2448 6.27209 18.0362C6.07748 17.8277 5.96857 17.5486 5.96857 17.2581C5.96857 16.9676 6.07748 16.6886 6.27209 16.48C6.46671 16.2714 6.73182 16.1497 7.01131 16.1406C7.15542 16.1359 7.29891 16.1614 7.43337 16.2154C7.56783 16.2695 7.69045 16.3511 7.79398 16.4553C7.89751 16.5595 7.97984 16.6843 8.03606 16.8222C8.09227 16.9601 8.12129 17.1084 8.12129 17.2581C8.12129 17.4079 8.09227 17.5562 8.03606 17.6941C7.97984 17.832 7.89751 17.9568 7.79398 18.061C7.69045 18.1652 7.56783 18.2468 7.43337 18.3008C7.29891 18.3549 7.15542 18.3803 7.01131 18.3757ZM7.01131 15.0237C6.73182 15.0146 6.46671 14.8928 6.27209 14.6843C6.07748 14.4757 5.96857 14.1966 5.96857 13.9061C5.96857 13.6157 6.07748 13.3366 6.27209 13.128C6.46671 12.9194 6.73182 12.7977 7.01131 12.7886C7.15542 12.784 7.29891 12.8094 7.43337 12.8634C7.56783 12.9175 7.69045 12.9991 7.79398 13.1033C7.89751 13.2075 7.97984 13.3323 8.03606 13.4702C8.09227 13.6081 8.12129 13.7564 8.12129 13.9061C8.12129 14.0559 8.09227 14.2041 8.03606 14.3421C7.97984 14.48 7.89751 14.6048 7.79398 14.709C7.69045 14.8132 7.56783 14.8948 7.43337 14.9488C7.29891 15.0029 7.15542 15.0283 7.01131 15.0237Z" fill="#757B8A"/>
  </g>
  <defs>
    <clipPath id="clip0_89_267669">
      <rect width="21" height="24" fill="white" transform="translate(0.5)"/>
    </clipPath>
  </defs>
</svg>