<svg xmlns="http://www.w3.org/2000/svg" width="40" height="40" viewBox="0 0 40 40" fill="none">
  <path d="M28.3457 10.9033C31.5936 13.1606 33.8347 16.7496 34.2894 20.8907" stroke="white" stroke-width="2.43594" stroke-linecap="round" stroke-linejoin="round"/>
  <path d="M6.4707 20.9727C6.89293 16.8479 9.10152 13.2589 12.317 10.9854" stroke="white" stroke-width="2.43594" stroke-linecap="round" stroke-linejoin="round"/>
  <path d="M14.1045 34.8896C15.9883 35.8478 18.1319 36.3837 20.3892 36.3837C22.5653 36.3837 24.6115 35.8965 26.4466 35.0033" stroke="white" stroke-width="2.43594" stroke-linecap="round" stroke-linejoin="round"/>
  <path d="M20.3877 13.3886C22.881 13.3886 24.9023 11.3673 24.9023 8.87399C24.9023 6.38064 22.881 4.35938 20.3877 4.35938C17.8943 4.35938 15.873 6.38064 15.873 8.87399C15.873 11.3673 17.8943 13.3886 20.3877 13.3886Z" stroke="white" stroke-width="2.43594" stroke-linecap="round" stroke-linejoin="round"/>
  <path d="M8.64645 33.2333C11.1398 33.2333 13.1611 31.2121 13.1611 28.7187C13.1611 26.2254 11.1398 24.2041 8.64645 24.2041C6.1531 24.2041 4.13184 26.2254 4.13184 28.7187C4.13184 31.2121 6.1531 33.2333 8.64645 33.2333Z" stroke="white" stroke-width="2.43594" stroke-linecap="round" stroke-linejoin="round"/>
  <path d="M31.9336 33.2333C34.4269 33.2333 36.4482 31.2121 36.4482 28.7187C36.4482 26.2254 34.4269 24.2041 31.9336 24.2041C29.4402 24.2041 27.4189 26.2254 27.4189 28.7187C27.4189 31.2121 29.4402 33.2333 31.9336 33.2333Z" stroke="white" stroke-width="2.43594" stroke-linecap="round" stroke-linejoin="round"/>
</svg>