<svg xmlns="http://www.w3.org/2000/svg" width="34" height="34" viewBox="0 0 34 34" fill="none">
  <g clip-path="url(#clip0_723_135894)">
    <path fill-rule="evenodd" clip-rule="evenodd" d="M32.8212 8.69403C32.6654 8.69424 32.511 8.66375 32.367 8.60432C32.2229 8.5449 32.092 8.45773 31.9817 8.34774C31.8714 8.23776 31.784 8.1071 31.7243 7.96332C31.6646 7.81954 31.6338 7.66544 31.6338 7.50979V4.05019L25.748 9.92796C25.639 10.0434 25.5079 10.1357 25.3626 10.1996C25.2172 10.2635 25.0604 10.2976 24.9015 10.2999C24.7427 10.3022 24.585 10.2727 24.4378 10.2131C24.2906 10.1534 24.157 10.0649 24.0446 9.95274C23.9323 9.84057 23.8437 9.70702 23.784 9.56003C23.7242 9.41303 23.6947 9.25559 23.697 9.09698C23.6993 8.93836 23.7334 8.78182 23.7974 8.63663C23.8614 8.49144 23.9538 8.36054 24.0694 8.25168L29.9553 2.37395H26.4909C26.1836 2.36285 25.8927 2.2331 25.6792 2.01208C25.4657 1.79106 25.3464 1.49597 25.3464 1.18891C25.3464 0.881841 25.4657 0.586755 25.6792 0.365734C25.8927 0.144714 26.1836 0.0150137 26.4909 0.00390632H32.8228C32.9781 0.00415125 33.1319 0.0352659 33.2751 0.0954646C33.4159 0.154314 33.5441 0.239705 33.6527 0.34693C33.8682 0.565849 33.9908 0.859431 33.9947 1.16641C33.9947 1.16641 33.9947 1.17571 33.9947 1.17882V7.50046C33.9972 7.81401 33.875 8.11575 33.655 8.3395C33.435 8.56325 33.1352 8.69076 32.8212 8.69403ZM20.9687 15.3944C20.6541 15.3944 20.3523 15.2696 20.1297 15.0476C19.9071 14.8256 19.7818 14.5243 19.7814 14.2101C19.7974 13.8082 19.6533 13.4163 19.3807 13.1202C19.108 12.8241 18.7291 12.6479 18.3267 12.6301H18.1836V16.1378L19.7767 16.6935C20.5083 16.8967 21.1454 17.3497 21.5771 17.9736C22.0088 18.5975 22.2077 19.3528 22.1392 20.1081C22.1545 21.0466 21.7967 21.9529 21.1441 22.6285C20.4916 23.304 19.5974 23.6937 18.6576 23.712H18.1836V24.1062C18.1894 24.2655 18.1629 24.4242 18.1059 24.573C18.0489 24.7218 17.9624 24.8576 17.8517 24.9723C17.7409 25.087 17.6082 25.1782 17.4613 25.2405C17.3145 25.3028 17.1565 25.335 16.997 25.335C16.8374 25.335 16.6795 25.3028 16.5326 25.2405C16.3858 25.1782 16.253 25.087 16.1423 24.9723C16.0315 24.8576 15.9451 24.7218 15.888 24.573C15.831 24.4242 15.8046 24.2655 15.8104 24.1062V23.712H15.6798C14.6477 23.6936 13.665 23.2674 12.9471 22.5266C12.2293 21.7859 11.8348 20.7911 11.8502 19.7604C11.8613 19.4536 11.9912 19.163 12.2125 18.9498C12.4339 18.7366 12.7294 18.6175 13.0369 18.6175C13.3444 18.6175 13.6398 18.7366 13.8611 18.9498C14.0825 19.163 14.2124 19.4536 14.2235 19.7604C14.2075 20.1626 14.3518 20.5547 14.6248 20.8509C14.8977 21.147 15.2771 21.3231 15.6798 21.3404H15.8057V17.8219L14.2282 17.2709C13.4961 17.0685 12.8584 16.6157 12.4266 15.9916C11.9948 15.3674 11.7963 14.6117 11.8657 13.8563C11.8503 12.918 12.2082 12.0121 12.8609 11.337C13.5136 10.662 14.4077 10.273 15.3471 10.2555H15.8135V9.87515C15.8077 9.71592 15.8341 9.55721 15.8912 9.40841C15.9482 9.2596 16.0346 9.1238 16.1454 9.00911C16.2562 8.89443 16.3889 8.80318 16.5358 8.74088C16.6826 8.67858 16.8406 8.64648 17.0001 8.64648C17.1597 8.64648 17.3175 8.67858 17.4644 8.74088C17.6112 8.80318 17.7441 8.89443 17.8548 9.00911C17.9656 9.1238 18.052 9.2596 18.109 9.40841C18.1661 9.55721 18.1925 9.71592 18.1867 9.87515V10.2555H18.3219C19.3537 10.2734 20.3363 10.6994 21.0539 11.4399C21.7716 12.1805 22.1658 13.1751 22.15 14.2055C22.1504 14.3613 22.12 14.5157 22.0606 14.6599C22.0012 14.804 21.914 14.935 21.8038 15.0454C21.6937 15.1558 21.5629 15.2435 21.4188 15.3034C21.2747 15.3633 21.1202 15.3942 20.9641 15.3944H20.9687ZM18.1836 21.3358H18.6576C18.9677 21.3177 19.2581 21.1781 19.4657 20.9473C19.6732 20.7165 19.7811 20.4133 19.7658 20.1034C19.7983 19.9749 19.8036 19.8409 19.7815 19.7102C19.7593 19.5795 19.7101 19.4548 19.637 19.3441C19.5639 19.2334 19.4685 19.1392 19.3569 19.0674C19.2452 18.9955 19.1198 18.9477 18.9887 18.9269L18.1867 18.6476V21.3358H18.1836ZM15.8104 12.6301H15.3441C15.0342 12.6478 14.7437 12.787 14.5362 13.0176C14.3286 13.2481 14.2207 13.5513 14.2359 13.8609C14.2019 13.9895 14.1955 14.1237 14.2171 14.2549C14.2386 14.3861 14.2877 14.5112 14.3611 14.6222C14.4344 14.7331 14.5304 14.8273 14.6428 14.8986C14.7552 14.9699 14.8813 15.0167 15.013 15.0359L15.8011 15.3106V12.6301H15.8104ZM16.9977 2.37395C14.1026 2.37365 11.2725 3.23069 8.86515 4.8367C6.4578 6.44271 4.58142 8.72552 3.4733 11.3965C2.36518 14.0675 2.07504 17.0066 2.63966 19.8423C3.20428 22.6779 4.59825 25.2827 6.64529 27.3271C8.69233 29.3716 11.3006 30.7639 14.14 31.328C16.9795 31.8922 19.9227 31.6028 22.5974 30.4965C25.2722 29.3901 27.5583 27.5166 29.1668 25.1127C30.7753 22.7088 31.6338 19.8826 31.6338 16.9915C31.628 16.8323 31.6544 16.6735 31.7115 16.5247C31.7685 16.3759 31.855 16.2401 31.9658 16.1254C32.0765 16.0107 32.2093 15.9195 32.3561 15.8572C32.503 15.7949 32.6609 15.7628 32.8205 15.7628C32.98 15.7628 33.1379 15.7949 33.2847 15.8572C33.4316 15.9195 33.5643 16.0107 33.6751 16.1254C33.7859 16.2401 33.8724 16.3759 33.9294 16.5247C33.9865 16.6735 34.0129 16.8323 34.0071 16.9915C34.0071 20.3514 33.0094 23.6358 31.1401 26.4294C29.2709 29.2231 26.6141 31.4004 23.5056 32.6861C20.3972 33.9718 16.9768 34.3081 13.677 33.6526C10.3772 32.997 7.34614 31.3789 4.96718 29.003C2.58823 26.6271 0.968227 23.6 0.312034 20.3047C-0.344159 17.0093 -0.00708442 13.5936 1.28067 10.4895C2.56842 7.38549 4.74894 4.73252 7.54657 2.86609C10.3442 0.999653 13.6332 0.00359934 16.9977 0.00390632C17.305 0.0150137 17.596 0.144714 17.8095 0.365734C18.0229 0.586755 18.1422 0.881841 18.1422 1.18891C18.1422 1.49597 18.0229 1.79106 17.8095 2.01208C17.596 2.2331 17.305 2.36285 16.9977 2.37395Z" fill="white"/>
  </g>
  <defs>
    <clipPath id="clip0_723_135894">
      <rect width="34" height="34" fill="white"/>
    </clipPath>
  </defs>
</svg>