<svg xmlns="http://www.w3.org/2000/svg" width="35" height="36" viewBox="0 0 35 36" fill="none">
  <path fill-rule="evenodd" clip-rule="evenodd" d="M26.0881 31.9579H23.7825C23.1982 32.0256 22.6061 31.9604 22.0506 31.7671C21.4951 31.5737 20.9905 31.2572 20.5746 30.8413C20.1587 30.4254 19.8422 29.9208 19.6488 29.3653C19.4555 28.8098 19.3902 28.2178 19.458 27.6335V25.3302C19.3902 24.7459 19.4555 24.1539 19.6488 23.5984C19.8422 23.0429 20.1587 22.5384 20.5746 22.1225C20.9905 21.7066 21.4951 21.3901 22.0506 21.1967C22.6061 21.0034 23.1982 20.9381 23.7825 21.0059H26.0881C26.6724 20.9381 27.2644 21.0034 27.8199 21.1967C28.3754 21.3901 28.88 21.7066 29.2959 22.1225C29.7119 22.5384 30.0283 23.0429 30.2217 23.5984C30.4151 24.1539 30.4803 24.7459 30.4126 25.3302V27.6369C30.4798 28.2209 30.4141 28.8126 30.2205 29.3676C30.0269 29.9227 29.7103 30.4268 29.2945 30.8424C28.8786 31.2579 28.3742 31.574 27.819 31.7672C27.2638 31.9604 26.6721 32.0255 26.0881 31.9579ZM28.685 25.3268C28.685 23.509 27.9093 22.73 26.0881 22.73H23.7825C21.9635 22.73 21.1855 23.5068 21.1855 25.3268V27.6335C21.1855 29.4514 21.9612 30.2304 23.7825 30.2304H26.0881C27.9071 30.2304 28.685 29.4536 28.685 27.6335V25.3302V25.3268ZM26.0881 18.1199H23.7825C23.1982 18.1879 22.6062 18.1228 22.0507 17.9296C21.4952 17.7363 20.9906 17.42 20.5746 17.0042C20.1587 16.5883 19.8422 16.0838 19.6488 15.5284C19.4554 14.9729 19.3902 14.3809 19.458 13.7967V11.49C19.3902 10.9057 19.4555 10.3137 19.6488 9.7582C19.8422 9.20271 20.1587 8.69812 20.5746 8.28221C20.9905 7.8663 21.4951 7.54983 22.0506 7.35647C22.6061 7.1631 23.1982 7.09789 23.7825 7.16564H26.0881C26.6724 7.09789 27.2644 7.1631 27.8199 7.35647C28.3754 7.54983 28.88 7.8663 29.2959 8.28221C29.7119 8.69812 30.0283 9.20271 30.2217 9.7582C30.4151 10.3137 30.4803 10.9057 30.4126 11.49V13.7967C30.4809 14.3812 30.4161 14.9736 30.223 15.5295C30.0298 16.0853 29.7134 16.5903 29.2974 17.0065C28.8814 17.4227 28.3766 17.7394 27.8208 17.9328C27.265 18.1263 26.6726 18.1914 26.0881 18.1233V18.1199ZM28.685 11.49C28.685 9.67105 27.9093 8.89313 26.0881 8.89313H23.7825C21.9635 8.89313 21.1855 9.66879 21.1855 11.49V13.7967C21.1855 15.6145 21.9612 16.3936 23.7825 16.3936H26.0881C27.9071 16.3936 28.685 15.6179 28.685 13.7967V11.49ZM12.2509 31.9579H9.94416C9.35992 32.0257 8.76792 31.9605 8.21246 31.7671C7.65699 31.5737 7.15245 31.2572 6.73661 30.8413C6.32077 30.4253 6.00441 29.9208 5.81118 29.3653C5.61796 28.8098 5.55289 28.2177 5.62084 27.6335V25.3302C5.55289 24.746 5.61796 24.154 5.81118 23.5985C6.00441 23.043 6.32077 22.5384 6.73661 22.1225C7.15245 21.7065 7.65699 21.39 8.21246 21.1967C8.76792 21.0033 9.35992 20.9381 9.94416 21.0059H12.2509C12.8352 20.9381 13.4272 21.0034 13.9827 21.1967C14.5383 21.3901 15.0429 21.7066 15.4588 22.1225C15.8747 22.5384 16.1912 23.0429 16.3845 23.5984C16.5779 24.1539 16.6432 24.7459 16.5754 25.3302V27.6369C16.6426 28.2209 16.5769 28.8126 16.3833 29.3676C16.1897 29.9227 15.8731 30.4268 15.4573 30.8424C15.0414 31.2579 14.537 31.574 13.9818 31.7672C13.4266 31.9604 12.8349 32.0255 12.2509 31.9579ZM14.8479 25.3268C14.8479 23.509 14.0722 22.73 12.2509 22.73H9.94416C8.1263 22.73 7.34723 23.5068 7.34723 25.3268V27.6335C7.34723 29.4514 8.12291 30.2304 9.94416 30.2304H12.2509C14.0699 30.2304 14.8479 29.4536 14.8479 27.6335V25.3302V25.3268ZM12.2509 18.1199H9.94416C9.36002 18.1877 8.76814 18.1225 8.21277 17.9292C7.6574 17.7359 7.15291 17.4195 6.73709 17.0037C6.32128 16.5879 6.00491 16.0834 5.8116 15.5281C5.61829 14.9727 5.55308 14.3808 5.62084 13.7967V11.49C5.55289 10.9058 5.61796 10.3138 5.81118 9.75827C6.00441 9.20277 6.32077 8.69818 6.73661 8.28225C7.15245 7.86631 7.65699 7.5498 8.21246 7.35643C8.76792 7.16307 9.35992 7.09785 9.94416 7.16564H12.2509C12.8352 7.09789 13.4272 7.1631 13.9827 7.35647C14.5383 7.54983 15.0429 7.8663 15.4588 8.28221C15.8747 8.69812 16.1912 9.20271 16.3845 9.7582C16.5779 10.3137 16.6432 10.9057 16.5754 11.49V13.7967C16.6438 14.3812 16.5789 14.9736 16.3858 15.5295C16.1927 16.0853 15.8763 16.5903 15.4603 17.0065C15.0442 17.4227 14.5394 17.7394 13.9836 17.9328C13.4278 18.1263 12.8355 18.1914 12.2509 18.1233V18.1199ZM14.8479 11.49C14.8479 9.67105 14.0722 8.89313 12.2509 8.89313H9.94416C8.1263 8.89313 7.34723 9.66879 7.34723 11.49V13.7967C7.34723 15.6145 8.12291 16.3936 9.94416 16.3936H12.2509C14.0699 16.3936 14.8479 15.6179 14.8479 13.7967V11.49Z" fill="white"/>
</svg>