<svg width="121" height="39" viewBox="0 0 121 39" fill="none" xmlns="http://www.w3.org/2000/svg">
<path fill-rule="evenodd" clip-rule="evenodd" d="M36.9592 0.589844C26.5064 0.589844 18 9.09626 18 19.6207C18 30.073 26.5064 38.5795 36.9592 38.5795C47.4837 38.5795 55.9901 30.073 55.9901 19.6207C55.9901 9.09626 47.4837 0.589844 36.9592 0.589844Z" fill="#757B8A"/>
<path fill-rule="evenodd" clip-rule="evenodd" d="M30.4717 24.3786H28.3809V23.2974C27.4435 24.0904 26.5067 24.3786 25.4976 24.3786C23.479 24.3786 22.2535 23.73 21.4605 22.7926C20.6675 21.783 20.2349 20.6301 20.2349 19.6211C20.2349 18.2511 20.6675 17.0261 21.5321 16.0887C22.5417 14.8631 24.1271 14.4305 25.5693 14.4305C26.8665 14.4305 30.4711 15.2235 30.4711 19.5484L30.4717 24.3786ZM41.1405 23.0808C40.2031 24.0898 38.9059 24.7385 37.5359 24.7385C36.2387 24.7385 34.6527 24.3064 33.5715 23.2246C32.5619 22.1434 32.1293 20.99 32.1293 19.4035V11.4751H34.4361V15.8005L34.5083 15.7283C34.5083 15.7283 35.5895 14.5749 37.2477 14.5749C40.0593 14.5749 42.3661 16.8095 42.3661 19.5484C42.3656 20.7023 41.8613 22.144 41.1405 23.0808ZM48.7817 24.7385C47.484 24.7385 46.1867 24.1615 45.2493 23.2246C44.1681 22.2151 43.6634 20.9178 43.6634 19.4762C43.6634 16.5924 46.0423 14.3578 48.7817 14.3578C50.9442 14.3578 53.035 15.8 53.6114 17.8902H51.0164C50.5116 17.0256 49.7191 16.6646 48.7096 16.6646C47.0519 16.6646 45.9702 17.8902 45.9702 19.4762C45.9702 21.2066 47.1957 22.4311 48.8539 22.4311C49.7191 22.4311 50.5116 21.9269 51.0164 21.2061H53.6114C52.9628 23.2974 50.9442 24.7385 48.7817 24.7385Z" fill="white"/>
<path fill-rule="evenodd" clip-rule="evenodd" d="M59.4504 22.0718H62.4053V25.0272H59.4504V22.0718ZM71.4892 18.1068C71.4165 17.6742 71.3454 17.3138 71.1288 16.9534C70.7684 16.5208 70.2636 16.3048 69.6145 16.3048C68.6776 16.3048 67.9563 16.809 67.5969 17.7464C67.4531 18.2507 67.3804 18.8998 67.3804 19.7645C67.3804 20.558 67.4531 21.2066 67.5969 21.7109C67.9568 22.5761 68.6065 23.0086 69.5433 23.0086C70.192 23.0086 70.6967 22.8643 70.985 22.5039C71.2732 22.1435 71.417 21.7103 71.4897 21.1339H74.373C74.3013 21.9991 73.9409 22.7921 73.4361 23.5134C72.571 24.7385 71.202 25.3871 69.4711 25.3871C67.7413 25.3871 66.5157 24.8829 65.6511 23.8016C64.857 22.7921 64.4249 21.4948 64.4249 19.8367C64.4249 17.9624 64.9297 16.5208 65.7949 15.5113C66.7317 14.5022 67.9568 13.9974 69.5433 13.9974C70.9123 13.9974 71.9945 14.2857 72.8597 14.8626C73.7238 15.5113 74.2286 16.593 74.4452 18.1068H71.4892ZM81.1485 23.0092C80.3555 23.0092 79.7069 22.7204 79.2021 22.144C78.77 21.567 78.5535 20.7024 78.5535 19.6211C78.5535 18.5399 78.77 17.7469 79.2021 17.17C79.7069 16.5213 80.3555 16.2326 81.1485 16.2326C82.0137 16.2326 82.5901 16.5208 83.0949 17.17C83.527 17.7469 83.7435 18.5394 83.7435 19.6211C83.7435 20.7029 83.527 21.5675 83.0949 22.144C82.5901 22.7204 82.0142 23.0092 81.1485 23.0092ZM86.6268 19.6206C86.6268 18.1068 86.1947 16.7368 85.2579 15.6556C84.3927 14.5022 83.0238 13.9258 81.149 13.9258C79.2743 13.9258 77.9054 14.5027 77.0402 15.6556C76.1034 16.7368 75.6702 18.1068 75.6702 19.6206C75.6702 21.2066 76.1034 22.5761 77.0402 23.6578C77.9054 24.8112 79.2743 25.3876 81.149 25.3876C83.0238 25.3876 84.3927 24.8112 85.2579 23.6578C86.1947 22.5766 86.6268 21.2066 86.6268 19.6206ZM101.982 14.3584C102.487 14.5027 102.847 14.8632 103.28 15.2957C103.599 15.6878 103.799 16.1633 103.856 16.6657C103.929 17.0261 104 17.5309 104 18.2517L103.928 25.0283H101.044V18.179C101.044 17.8186 100.972 17.4582 100.829 17.17C100.612 16.7374 100.107 16.4491 99.4586 16.4491C98.6656 16.4491 98.1614 16.8096 97.8731 17.3865C97.6566 17.7469 97.5849 18.1795 97.5849 18.6121V25.0283H94.7733V18.6116C94.7733 18.0351 94.7006 17.5304 94.6295 17.2421C94.3402 16.7374 93.9081 16.4491 93.1868 16.4491C92.3938 16.4491 91.8896 16.7374 91.6013 17.2421C91.4575 17.5304 91.3848 17.963 91.3848 18.5394V25.0272H88.5742V14.2862H91.2409V15.8722C91.6013 15.2952 91.8896 14.9348 92.1788 14.7188C92.7553 14.2862 93.4761 14.0702 94.3407 14.0702C95.1337 14.0702 95.8551 14.214 96.3593 14.5744C96.7197 14.9348 97.0807 15.3674 97.2245 15.8722C97.6566 15.223 98.0886 14.791 98.6661 14.5022C99.2426 14.214 99.8912 14.0696 100.613 14.0696C101.045 14.0702 101.549 14.1423 101.982 14.3584ZM25.4252 16.5208C23.7676 16.5208 22.542 17.8181 22.542 19.4762C22.542 21.1339 23.8392 22.36 25.4252 22.2873C27.0834 22.36 28.309 21.0617 28.309 19.4035C28.3085 17.7464 27.0834 16.5208 25.4252 16.5208ZM37.4635 16.809C35.8775 16.809 34.5081 17.9624 34.5081 19.6206C34.5081 21.2066 35.7337 22.5761 37.4635 22.5761C39.0495 22.5761 40.2029 21.3505 40.2029 19.7645C40.2029 18.1068 39.1217 16.809 37.4635 16.809Z" fill="#757B8A"/>
</svg>
