<svg width="128" height="38" viewBox="0 0 128 38" fill="none" xmlns="http://www.w3.org/2000/svg">
<rect width="128" height="38" rx="8" fill="#0F152E"/>
<path d="M27.489 15.8449C27.375 15.9342 25.3625 17.0788 25.3625 19.624C25.3625 22.5679 27.9234 23.6093 28 23.6351C27.9882 23.6986 27.5932 25.0614 26.6498 26.4501C25.8086 27.6721 24.9301 28.8921 23.5937 28.8921C22.2572 28.8921 21.9133 28.1085 20.3705 28.1085C18.867 28.1085 18.3324 28.9179 17.1099 28.9179C15.8875 28.9179 15.0345 27.7871 14.0538 26.3985C12.9178 24.7678 12 22.2346 12 19.8303C12 15.9738 14.4842 13.9286 16.9291 13.9286C18.2282 13.9286 19.3111 14.7895 20.1268 14.7895C20.9031 14.7895 22.1137 13.877 23.5917 13.877C24.1518 13.877 26.1644 13.9286 27.489 15.8449ZM22.8901 12.2444C23.5013 11.5124 23.9337 10.4967 23.9337 9.48101C23.9337 9.34016 23.9219 9.19733 23.8963 9.08228C22.9019 9.11997 21.7187 9.7508 21.0053 10.586C20.4452 11.2287 19.9224 12.2444 19.9224 13.274C19.9224 13.4287 19.9479 13.5834 19.9597 13.633C20.0226 13.6449 20.1248 13.6588 20.227 13.6588C21.1193 13.6588 22.2415 13.0557 22.8901 12.2444Z" fill="white"/>
<path d="M38.01 7.86C38.6767 7.86 39.26 7.99667 39.76 8.27C40.26 8.53667 40.6467 8.93667 40.92 9.47C41.2 10.0033 41.34 10.6567 41.34 11.43C41.34 12.2033 41.2 12.8567 40.92 13.39C40.6467 13.9233 40.26 14.3267 39.76 14.6C39.26 14.8667 38.6767 15 38.01 15H35.46V7.86H38.01ZM37.91 14.4C38.7567 14.4 39.42 14.1467 39.9 13.64C40.38 13.1333 40.62 12.3967 40.62 11.43C40.62 10.4633 40.38 9.72667 39.9 9.22C39.42 8.71333 38.7567 8.46 37.91 8.46H36.16V14.4H37.91ZM44.3402 9.64C44.8202 9.64 45.2435 9.75333 45.6102 9.98C45.9768 10.2 46.2602 10.5167 46.4602 10.93C46.6668 11.3433 46.7702 11.8267 46.7702 12.38C46.7702 12.9333 46.6668 13.4167 46.4602 13.83C46.2602 14.2433 45.9768 14.5633 45.6102 14.79C45.2435 15.01 44.8202 15.12 44.3402 15.12C43.8668 15.12 43.4468 15.01 43.0802 14.79C42.7135 14.5633 42.4268 14.2433 42.2202 13.83C42.0202 13.4167 41.9202 12.9333 41.9202 12.38C41.9202 11.8267 42.0202 11.3433 42.2202 10.93C42.4268 10.5167 42.7135 10.2 43.0802 9.98C43.4468 9.75333 43.8668 9.64 44.3402 9.64ZM44.3402 14.56C44.8602 14.56 45.2802 14.3667 45.6002 13.98C45.9268 13.5867 46.0902 13.0533 46.0902 12.38C46.0902 11.7067 45.9268 11.1733 45.6002 10.78C45.2802 10.3867 44.8602 10.19 44.3402 10.19C43.8202 10.19 43.4002 10.3867 43.0802 10.78C42.7602 11.1733 42.6002 11.7067 42.6002 12.38C42.6002 13.0533 42.7602 13.5867 43.0802 13.98C43.4002 14.3667 43.8202 14.56 44.3402 14.56ZM52.8476 15H52.1176L50.6976 10.66H50.6776L49.2476 15H48.5576L46.7676 9.76H47.5076L48.9176 14.18H48.9376L50.3476 9.76H51.0876L52.4876 14.18H52.5176L53.9176 9.76H54.6276L52.8476 15ZM55.6989 10.56C55.8322 10.3 56.0522 10.0833 56.3589 9.91C56.6656 9.73 57.0089 9.64 57.3889 9.64C57.9489 9.64 58.3989 9.8 58.7389 10.12C59.0789 10.44 59.2489 10.8933 59.2489 11.48V15H58.5989V11.76C58.5989 11.22 58.4922 10.8267 58.2789 10.58C58.0722 10.3267 57.7356 10.2 57.2689 10.2C56.8289 10.2 56.4589 10.3533 56.1589 10.66C55.8589 10.96 55.7089 11.4233 55.7089 12.05V15H55.0489V9.76H55.6689V10.56H55.6989ZM60.7289 7.76V15H60.0689V7.76H60.7289ZM63.8519 9.64C64.3319 9.64 64.7552 9.75333 65.1219 9.98C65.4885 10.2 65.7719 10.5167 65.9719 10.93C66.1785 11.3433 66.2819 11.8267 66.2819 12.38C66.2819 12.9333 66.1785 13.4167 65.9719 13.83C65.7719 14.2433 65.4885 14.5633 65.1219 14.79C64.7552 15.01 64.3319 15.12 63.8519 15.12C63.3785 15.12 62.9585 15.01 62.5919 14.79C62.2252 14.5633 61.9385 14.2433 61.7319 13.83C61.5319 13.4167 61.4319 12.9333 61.4319 12.38C61.4319 11.8267 61.5319 11.3433 61.7319 10.93C61.9385 10.5167 62.2252 10.2 62.5919 9.98C62.9585 9.75333 63.3785 9.64 63.8519 9.64ZM63.8519 14.56C64.3719 14.56 64.7919 14.3667 65.1119 13.98C65.4385 13.5867 65.6019 13.0533 65.6019 12.38C65.6019 11.7067 65.4385 11.1733 65.1119 10.78C64.7919 10.3867 64.3719 10.19 63.8519 10.19C63.3319 10.19 62.9119 10.3867 62.5919 10.78C62.2719 11.1733 62.1119 11.7067 62.1119 12.38C62.1119 13.0533 62.2719 13.5867 62.5919 13.98C62.9119 14.3667 63.3319 14.56 63.8519 14.56ZM70.473 15C70.4063 14.9133 70.363 14.65 70.343 14.21C70.1363 14.5367 69.853 14.77 69.493 14.91C69.133 15.05 68.763 15.12 68.383 15.12C68.083 15.12 67.8096 15.0567 67.563 14.93C67.3163 14.8033 67.1196 14.6233 66.973 14.39C66.833 14.1567 66.763 13.89 66.763 13.59C66.763 13.05 66.9563 12.6633 67.343 12.43C67.7296 12.19 68.2696 12.0267 68.963 11.94C69.3563 11.8867 69.6463 11.8367 69.833 11.79C70.0196 11.7367 70.1463 11.6733 70.213 11.6C70.2863 11.5267 70.323 11.42 70.323 11.28C70.323 10.94 70.2163 10.6733 70.003 10.48C69.7896 10.2867 69.463 10.19 69.023 10.19C68.683 10.19 68.383 10.2733 68.123 10.44C67.8696 10.6 67.6863 10.8767 67.573 11.27L66.963 11.12C67.0896 10.62 67.3396 10.25 67.713 10.01C68.093 9.76333 68.5396 9.64 69.053 9.64C69.7063 9.64 70.1896 9.78667 70.503 10.08C70.823 10.3667 70.983 10.76 70.983 11.26V13.71C70.983 14.0567 70.9896 14.3233 71.003 14.51C71.023 14.69 71.063 14.8533 71.123 15H70.473ZM70.323 12.09C70.2496 12.1767 70.1096 12.2433 69.903 12.29C69.6963 12.33 69.363 12.3867 68.903 12.46C68.5163 12.5133 68.1763 12.6267 67.883 12.8C67.5896 12.9733 67.443 13.2367 67.443 13.59C67.443 13.89 67.5396 14.1267 67.733 14.3C67.9263 14.4733 68.1863 14.56 68.513 14.56C68.973 14.56 69.3896 14.4333 69.763 14.18C70.1363 13.92 70.323 13.4867 70.323 12.88V12.09ZM73.9772 9.64C74.3705 9.64 74.7305 9.73333 75.0572 9.92C75.3839 10.1 75.6172 10.3467 75.7572 10.66H75.7772V7.76H76.4272V15H75.8072V14.07H75.7872C75.6539 14.3833 75.4172 14.6367 75.0772 14.83C74.7439 15.0233 74.3772 15.12 73.9772 15.12C73.5172 15.12 73.1105 15.01 72.7572 14.79C72.4039 14.5633 72.1272 14.2433 71.9272 13.83C71.7272 13.4167 71.6272 12.9333 71.6272 12.38C71.6272 11.8267 71.7272 11.3433 71.9272 10.93C72.1272 10.5167 72.4039 10.2 72.7572 9.98C73.1105 9.75333 73.5172 9.64 73.9772 9.64ZM74.0772 14.56C74.4105 14.56 74.7072 14.4733 74.9672 14.3C75.2339 14.12 75.4405 13.8667 75.5872 13.54C75.7405 13.2133 75.8172 12.8267 75.8172 12.38C75.8172 11.9333 75.7405 11.5467 75.5872 11.22C75.4405 10.8867 75.2339 10.6333 74.9672 10.46C74.7072 10.28 74.4105 10.19 74.0772 10.19C73.5439 10.19 73.1139 10.3867 72.7872 10.78C72.4672 11.1667 72.3072 11.7 72.3072 12.38C72.3072 13.0533 72.4672 13.5867 72.7872 13.98C73.1139 14.3667 73.5439 14.56 74.0772 14.56ZM81.3909 9.64C81.8709 9.64 82.2943 9.75333 82.6609 9.98C83.0276 10.2 83.3109 10.5167 83.5109 10.93C83.7176 11.3433 83.8209 11.8267 83.8209 12.38C83.8209 12.9333 83.7176 13.4167 83.5109 13.83C83.3109 14.2433 83.0276 14.5633 82.6609 14.79C82.2943 15.01 81.8709 15.12 81.3909 15.12C80.9176 15.12 80.4976 15.01 80.1309 14.79C79.7643 14.5633 79.4776 14.2433 79.2709 13.83C79.0709 13.4167 78.9709 12.9333 78.9709 12.38C78.9709 11.8267 79.0709 11.3433 79.2709 10.93C79.4776 10.5167 79.7643 10.2 80.1309 9.98C80.4976 9.75333 80.9176 9.64 81.3909 9.64ZM81.3909 14.56C81.9109 14.56 82.3309 14.3667 82.6509 13.98C82.9776 13.5867 83.1409 13.0533 83.1409 12.38C83.1409 11.7067 82.9776 11.1733 82.6509 10.78C82.3309 10.3867 81.9109 10.19 81.3909 10.19C80.8709 10.19 80.4509 10.3867 80.1309 10.78C79.8109 11.1733 79.6509 11.7067 79.6509 12.38C79.6509 13.0533 79.8109 13.5867 80.1309 13.98C80.4509 14.3667 80.8709 14.56 81.3909 14.56ZM85.152 10.56C85.2854 10.3 85.5054 10.0833 85.812 9.91C86.1187 9.73 86.462 9.64 86.842 9.64C87.402 9.64 87.852 9.8 88.192 10.12C88.532 10.44 88.702 10.8933 88.702 11.48V15H88.052V11.76C88.052 11.22 87.9454 10.8267 87.732 10.58C87.5254 10.3267 87.1887 10.2 86.722 10.2C86.282 10.2 85.912 10.3533 85.612 10.66C85.312 10.96 85.162 11.4233 85.162 12.05V15H84.502V9.76H85.122V10.56H85.152ZM93.2863 14.44C93.513 14.44 93.6997 14.4333 93.8463 14.42V15C93.6463 15.0133 93.4397 15.02 93.2263 15.02C92.8997 15.02 92.6463 14.9867 92.4663 14.92C92.2863 14.8467 92.1563 14.7267 92.0763 14.56C91.9963 14.3933 91.9563 14.16 91.9563 13.86V10.28H91.0663V9.76H91.9563V8.23H92.6063V9.76H93.8763V10.28H92.6063V13.72C92.6063 14 92.653 14.19 92.7463 14.29C92.8397 14.39 93.0197 14.44 93.2863 14.44ZM95.1332 10.57C95.2599 10.31 95.4765 10.09 95.7832 9.91C96.0899 9.73 96.4299 9.64 96.8032 9.64C97.3565 9.64 97.8032 9.8 98.1432 10.12C98.4832 10.44 98.6532 10.8933 98.6532 11.48V15H98.0032V11.76C98.0032 11.22 97.8965 10.8267 97.6832 10.58C97.4765 10.3267 97.1399 10.2 96.6732 10.2C96.4065 10.2 96.1532 10.27 95.9132 10.41C95.6799 10.5433 95.4865 10.7533 95.3332 11.04C95.1865 11.32 95.1132 11.67 95.1132 12.09V15H94.4532V7.76H95.1132V10.57H95.1332ZM103.953 13.54C103.8 13.9867 103.537 14.3633 103.163 14.67C102.79 14.97 102.283 15.12 101.643 15.12C101.183 15.12 100.777 15.01 100.423 14.79C100.07 14.5633 99.7932 14.2433 99.5932 13.83C99.3932 13.41 99.2932 12.9233 99.2932 12.37C99.2932 11.8233 99.3932 11.3433 99.5932 10.93C99.7932 10.5167 100.07 10.2 100.423 9.98C100.777 9.75333 101.183 9.64 101.643 9.64C102.11 9.64 102.523 9.75667 102.883 9.99C103.25 10.2167 103.53 10.55 103.723 10.99C103.923 11.4233 104.013 11.94 103.993 12.54H99.9732C99.9865 13.14 100.147 13.6267 100.453 14C100.76 14.3733 101.157 14.56 101.643 14.56C102.097 14.56 102.457 14.4533 102.723 14.24C102.99 14.02 103.177 13.7567 103.283 13.45L103.953 13.54ZM101.643 10.19C101.17 10.19 100.783 10.3633 100.483 10.71C100.183 11.05 100.017 11.4767 99.9832 11.99H103.313C103.28 11.4767 103.11 11.05 102.803 10.71C102.503 10.3633 102.117 10.19 101.643 10.19Z" fill="white"/>
<path d="M37.534 27.088L36.414 30H35.056L39.046 20.004H40.614L44.604 30H43.218L42.098 27.088H37.534ZM39.83 21.194H39.788L37.94 26.024H41.692L39.83 21.194ZM48.824 30.168C48.292 30.168 47.816 30.0607 47.396 29.846C46.976 29.622 46.668 29.3187 46.472 28.936H46.43V32.576H45.254V22.636H46.374V23.756H46.416C46.6213 23.3547 46.9387 23.042 47.368 22.818C47.7973 22.5847 48.2827 22.468 48.824 22.468C49.468 22.468 50.042 22.6267 50.546 22.944C51.05 23.2613 51.442 23.714 51.722 24.302C52.0113 24.8807 52.156 25.5527 52.156 26.318C52.156 27.0833 52.0113 27.76 51.722 28.348C51.442 28.9267 51.05 29.3747 50.546 29.692C50.042 30.0093 49.468 30.168 48.824 30.168ZM48.628 23.434C47.9467 23.434 47.396 23.6953 46.976 24.218C46.556 24.7313 46.346 25.4313 46.346 26.318C46.346 27.2047 46.556 27.9093 46.976 28.432C47.396 28.9453 47.9467 29.202 48.628 29.202C49.3373 29.202 49.902 28.9453 50.322 28.432C50.742 27.9093 50.952 27.2047 50.952 26.318C50.952 25.4313 50.742 24.7313 50.322 24.218C49.902 23.6953 49.3373 23.434 48.628 23.434ZM56.6717 30.168C56.1397 30.168 55.6637 30.0607 55.2437 29.846C54.8237 29.622 54.5157 29.3187 54.3197 28.936H54.2777V32.576H53.1017V22.636H54.2217V23.756H54.2637C54.469 23.3547 54.7863 23.042 55.2157 22.818C55.645 22.5847 56.1303 22.468 56.6717 22.468C57.3157 22.468 57.8897 22.6267 58.3937 22.944C58.8977 23.2613 59.2897 23.714 59.5697 24.302C59.859 24.8807 60.0037 25.5527 60.0037 26.318C60.0037 27.0833 59.859 27.76 59.5697 28.348C59.2897 28.9267 58.8977 29.3747 58.3937 29.692C57.8897 30.0093 57.3157 30.168 56.6717 30.168ZM56.4757 23.434C55.7943 23.434 55.2437 23.6953 54.8237 24.218C54.4037 24.7313 54.1937 25.4313 54.1937 26.318C54.1937 27.2047 54.4037 27.9093 54.8237 28.432C55.2437 28.9453 55.7943 29.202 56.4757 29.202C57.185 29.202 57.7497 28.9453 58.1697 28.432C58.5897 27.9093 58.7997 27.2047 58.7997 26.318C58.7997 25.4313 58.5897 24.7313 58.1697 24.218C57.7497 23.6953 57.185 23.434 56.4757 23.434ZM69.6213 22.86C69.5 22.1973 69.2107 21.6933 68.7533 21.348C68.296 21.0027 67.7313 20.83 67.0593 20.83C66.3687 20.83 65.818 20.9887 65.4073 21.306C65.006 21.6233 64.8053 22.034 64.8053 22.538C64.8053 22.958 64.9453 23.28 65.2253 23.504C65.5053 23.7187 65.9207 23.8913 66.4713 24.022L68.3333 24.442C68.912 24.582 69.3973 24.7453 69.7893 24.932C70.1813 25.1187 70.4987 25.4033 70.7413 25.786C70.9933 26.1593 71.1193 26.6633 71.1193 27.298C71.1193 27.9233 70.956 28.4553 70.6293 28.894C70.3027 29.3327 69.8547 29.664 69.2853 29.888C68.716 30.1027 68.0767 30.21 67.3673 30.21C66.21 30.21 65.2673 29.93 64.5393 29.37C63.8207 28.81 63.3633 27.998 63.1673 26.934L64.4413 26.808C64.572 27.6387 64.8987 28.2407 65.4213 28.614C65.944 28.978 66.5973 29.16 67.3813 29.16C68.1093 29.16 68.6973 28.9967 69.1453 28.67C69.6027 28.3433 69.8313 27.9 69.8313 27.34C69.8313 26.8267 69.668 26.4487 69.3413 26.206C69.024 25.9633 68.5573 25.7673 67.9413 25.618L66.0793 25.17C65.2767 24.974 64.6467 24.6893 64.1893 24.316C63.7413 23.9427 63.5173 23.3593 63.5173 22.566C63.5173 22.0153 63.6667 21.53 63.9653 21.11C64.2733 20.69 64.698 20.368 65.2393 20.144C65.7807 19.9107 66.392 19.794 67.0733 19.794C68.1 19.794 68.9353 20.0507 69.5793 20.564C70.2327 21.0773 70.6713 21.81 70.8953 22.762L69.6213 22.86ZM74.8102 29.006C75.0529 29.006 75.3049 28.9967 75.5662 28.978V30C75.3049 30.0187 74.9829 30.028 74.6002 30.028C74.1429 30.028 73.7835 29.9813 73.5222 29.888C73.2609 29.7947 73.0649 29.6313 72.9342 29.398C72.8129 29.1647 72.7522 28.8333 72.7522 28.404V23.546H71.5202V22.636H72.7522V20.522H73.9282V22.636H75.6222V23.546H73.9282V28.11C73.9282 28.474 73.9889 28.7167 74.1102 28.838C74.2409 28.95 74.4742 29.006 74.8102 29.006ZM79.5375 22.468C80.2282 22.468 80.8348 22.6267 81.3575 22.944C81.8895 23.2613 82.3002 23.7093 82.5895 24.288C82.8788 24.8667 83.0235 25.5433 83.0235 26.318C83.0235 27.0927 82.8788 27.7693 82.5895 28.348C82.3002 28.9267 81.8895 29.3747 81.3575 29.692C80.8348 30.0093 80.2282 30.168 79.5375 30.168C78.8468 30.168 78.2355 30.0093 77.7035 29.692C77.1808 29.3747 76.7748 28.9267 76.4855 28.348C76.1962 27.7693 76.0515 27.0927 76.0515 26.318C76.0515 25.5433 76.1962 24.8667 76.4855 24.288C76.7748 23.7093 77.1808 23.2613 77.7035 22.944C78.2355 22.6267 78.8468 22.468 79.5375 22.468ZM79.5375 29.202C80.2282 29.202 80.7788 28.9453 81.1895 28.432C81.6095 27.9093 81.8195 27.2047 81.8195 26.318C81.8195 25.4313 81.6095 24.7313 81.1895 24.218C80.7788 23.6953 80.2282 23.434 79.5375 23.434C78.8468 23.434 78.2915 23.6953 77.8715 24.218C77.4608 24.7313 77.2555 25.4313 77.2555 26.318C77.2555 27.2047 77.4608 27.9093 77.8715 28.432C78.2915 28.9453 78.8468 29.202 79.5375 29.202ZM85.0928 23.896H85.1348C85.3308 23.4573 85.6294 23.112 86.0308 22.86C86.4414 22.5987 86.9128 22.468 87.4448 22.468C87.6594 22.468 87.8694 22.4867 88.0748 22.524V23.658C87.7668 23.63 87.5381 23.616 87.3888 23.616C86.7168 23.616 86.1754 23.8307 85.7648 24.26C85.3541 24.68 85.1488 25.3193 85.1488 26.178V30H83.9728V22.636H85.0928V23.896ZM95.1716 27.9C94.9662 28.544 94.5976 29.0853 94.0656 29.524C93.5336 29.9533 92.7962 30.168 91.8536 30.168C91.1909 30.168 90.6029 30.0093 90.0896 29.692C89.5762 29.3747 89.1749 28.9267 88.8856 28.348C88.6056 27.76 88.4656 27.0833 88.4656 26.318C88.4656 25.5527 88.6056 24.8807 88.8856 24.302C89.1656 23.714 89.5576 23.2613 90.0616 22.944C90.5749 22.6267 91.1676 22.468 91.8396 22.468C92.4929 22.468 93.0762 22.622 93.5896 22.93C94.1029 23.2287 94.5042 23.6673 94.7936 24.246C95.0829 24.8153 95.2276 25.492 95.2276 26.276V26.598H89.6556C89.6742 27.3727 89.8842 28.0027 90.2856 28.488C90.6869 28.964 91.2096 29.202 91.8536 29.202C92.4509 29.202 92.9176 29.0573 93.2536 28.768C93.5989 28.4787 93.8416 28.138 93.9816 27.746L95.1716 27.9ZM91.8396 23.434C91.2142 23.434 90.7102 23.6487 90.3276 24.078C89.9542 24.5073 89.7396 25.0393 89.6836 25.674H94.0236C93.9676 25.03 93.7482 24.498 93.3656 24.078C92.9829 23.6487 92.4742 23.434 91.8396 23.434Z" fill="white"/>
</svg>
