<svg xmlns="http://www.w3.org/2000/svg" width="24" height="25" viewBox="0 0 24 25" fill="none">
  <path fill-rule="evenodd" clip-rule="evenodd" d="M11.9558 4.47852H12.048C13.5878 4.47852 14.806 4.47852 15.7593 4.62066C16.7439 4.768 17.5253 5.07759 18.1333 5.75331C18.7338 6.4201 19.0025 7.264 19.1305 8.32819C19.2577 9.37526 19.2577 10.7185 19.2577 12.4398V12.5172C19.2577 14.2385 19.2577 15.5818 19.1312 16.6288C19.0025 17.693 18.7338 18.5369 18.134 19.2037C17.5253 19.8794 16.7446 20.189 15.7593 20.3364C14.806 20.4785 13.5878 20.4785 12.0488 20.4785H11.955C10.416 20.4785 9.19781 20.4785 8.24451 20.3364C7.25921 20.189 6.47856 19.8794 5.87056 19.2037C5.27 18.5369 5.00135 17.693 4.87335 16.6288C4.74609 15.5818 4.74609 14.2385 4.74609 12.5172V12.4398C4.74609 10.7185 4.74609 9.37526 4.87261 8.32893C5.00135 7.26326 5.27 6.4201 5.86981 5.75331C6.47856 5.07759 7.25921 4.768 8.24451 4.62066C9.19781 4.47852 10.416 4.47852 11.9558 4.47852ZM8.40972 5.72503C7.57102 5.85005 7.07242 6.08596 6.69958 6.49972C6.32005 6.92242 6.09679 7.5014 5.9807 8.46289C5.86312 9.43479 5.86237 10.7103 5.86237 12.4785C5.86237 14.2467 5.86312 15.5222 5.98144 16.4941C6.09754 17.4556 6.3193 18.0346 6.69958 18.4573C7.07242 18.8711 7.57102 19.107 8.40972 19.232C9.27074 19.3607 10.4056 19.3622 12.0019 19.3622C13.5982 19.3622 14.7331 19.3607 15.5941 19.232C16.4328 19.107 16.9314 18.8711 17.3035 18.4573C17.6845 18.0346 17.9063 17.4556 18.0231 16.4941C18.1407 15.5222 18.1414 14.2467 18.1414 12.4785C18.1414 10.7103 18.1407 9.43479 18.0224 8.46289C17.9063 7.5014 17.6845 6.92242 17.3042 6.49972C16.9314 6.08596 16.4328 5.85005 15.5941 5.72503C14.7331 5.59628 13.5982 5.59479 12.0019 5.59479C10.4056 5.59479 9.27074 5.59628 8.40972 5.72503ZM9.70684 7.45526H14.297C14.5798 7.45526 14.8253 7.45526 15.0397 7.51256C15.3235 7.58857 15.5823 7.73792 15.7901 7.94562C15.998 8.15332 16.1475 8.41205 16.2237 8.69582C16.2817 8.91163 16.2817 9.15573 16.281 9.44V9.56428C16.281 9.84707 16.281 10.0927 16.2237 10.307C16.1477 10.5908 15.9983 10.8496 15.7906 11.0575C15.5829 11.2653 15.3242 11.4148 15.0404 11.491C14.8246 11.549 14.5805 11.549 14.2962 11.5483H9.70758C9.42479 11.5483 9.17921 11.5483 8.96488 11.491C8.68107 11.415 8.42224 11.2656 8.21441 11.0579C8.00659 10.8502 7.85707 10.5915 7.78088 10.3077C7.72284 10.0919 7.72358 9.84782 7.72358 9.56354V9.43926C7.72358 9.15647 7.72358 8.91089 7.78088 8.69656C7.85689 8.41274 8.00625 8.15392 8.21394 7.94609C8.42164 7.73826 8.68037 7.58875 8.96414 7.51256C9.17995 7.45452 9.42405 7.45526 9.70833 7.45526M9.76935 8.57154C9.38758 8.57154 9.30572 8.576 9.25288 8.59089C9.15832 8.61626 9.0721 8.66606 9.00287 8.73529C8.93364 8.80452 8.88384 8.89075 8.85847 8.98531C8.84358 9.03814 8.83912 9.11926 8.83912 9.50177C8.83912 9.88354 8.84358 9.9654 8.85847 10.0182C8.88384 10.1128 8.93364 10.199 9.00287 10.2682C9.0721 10.3375 9.15832 10.3873 9.25288 10.4127C9.30572 10.4275 9.38684 10.432 9.76935 10.432H14.2345C14.6162 10.432 14.6981 10.4275 14.7509 10.4127C14.8455 10.3873 14.9317 10.3375 15.0009 10.2682C15.0702 10.199 15.12 10.1128 15.1454 10.0182C15.1602 9.9654 15.1647 9.88428 15.1647 9.50177C15.1647 9.12 15.1602 9.03814 15.1454 8.98531C15.12 8.89075 15.0702 8.80452 15.0009 8.73529C14.9317 8.66606 14.8455 8.61626 14.7509 8.59089C14.6981 8.576 14.617 8.57154 14.2345 8.57154H9.76935Z" fill="#757B8A"/>
  <path d="M9.76962 13.2227C9.76962 13.4201 9.69122 13.6094 9.55165 13.7489C9.41209 13.8885 9.22281 13.9669 9.02544 13.9669C8.82807 13.9669 8.63878 13.8885 8.49922 13.7489C8.35966 13.6094 8.28125 13.4201 8.28125 13.2227C8.28125 13.0253 8.35966 12.836 8.49922 12.6965C8.63878 12.5569 8.82807 12.4785 9.02544 12.4785C9.22281 12.4785 9.41209 12.5569 9.55165 12.6965C9.69122 12.836 9.76962 13.0253 9.76962 13.2227ZM9.76962 16.1994C9.76962 16.3968 9.69122 16.5861 9.55165 16.7257C9.41209 16.8652 9.22281 16.9436 9.02544 16.9436C8.82807 16.9436 8.63878 16.8652 8.49922 16.7257C8.35966 16.5861 8.28125 16.3968 8.28125 16.1994C8.28125 16.0021 8.35966 15.8128 8.49922 15.6732C8.63878 15.5337 8.82807 15.4553 9.02544 15.4553C9.22281 15.4553 9.41209 15.5337 9.55165 15.6732C9.69122 15.8128 9.76962 16.0021 9.76962 16.1994ZM12.7464 13.2227C12.7464 13.4201 12.668 13.6094 12.5284 13.7489C12.3888 13.8885 12.1996 13.9669 12.0022 13.9669C11.8048 13.9669 11.6155 13.8885 11.476 13.7489C11.3364 13.6094 11.258 13.4201 11.258 13.2227C11.258 13.0253 11.3364 12.836 11.476 12.6965C11.6155 12.5569 11.8048 12.4785 12.0022 12.4785C12.1996 12.4785 12.3888 12.5569 12.5284 12.6965C12.668 12.836 12.7464 13.0253 12.7464 13.2227ZM12.7464 16.1994C12.7464 16.3968 12.668 16.5861 12.5284 16.7257C12.3888 16.8652 12.1996 16.9436 12.0022 16.9436C11.8048 16.9436 11.6155 16.8652 11.476 16.7257C11.3364 16.5861 11.258 16.3968 11.258 16.1994C11.258 16.0021 11.3364 15.8128 11.476 15.6732C11.6155 15.5337 11.8048 15.4553 12.0022 15.4553C12.1996 15.4553 12.3888 15.5337 12.5284 15.6732C12.668 15.8128 12.7464 16.0021 12.7464 16.1994ZM15.7231 13.2227C15.7231 13.4201 15.6447 13.6094 15.5051 13.7489C15.3656 13.8885 15.1763 13.9669 14.9789 13.9669C14.7816 13.9669 14.5923 13.8885 14.4527 13.7489C14.3131 13.6094 14.2347 13.4201 14.2347 13.2227C14.2347 13.0253 14.3131 12.836 14.4527 12.6965C14.5923 12.5569 14.7816 12.4785 14.9789 12.4785C15.1763 12.4785 15.3656 12.5569 15.5051 12.6965C15.6447 12.836 15.7231 13.0253 15.7231 13.2227ZM15.7231 16.1994C15.7231 16.3968 15.6447 16.5861 15.5051 16.7257C15.3656 16.8652 15.1763 16.9436 14.9789 16.9436C14.7816 16.9436 14.5923 16.8652 14.4527 16.7257C14.3131 16.5861 14.2347 16.3968 14.2347 16.1994C14.2347 16.0021 14.3131 15.8128 14.4527 15.6732C14.5923 15.5337 14.7816 15.4553 14.9789 15.4553C15.1763 15.4553 15.3656 15.5337 15.5051 15.6732C15.6447 15.8128 15.7231 16.0021 15.7231 16.1994Z" fill="#757B8A"/>
</svg>