<svg xmlns="http://www.w3.org/2000/svg" width="17" height="18" viewBox="0 0 17 18" fill="none">
  <path fill-rule="evenodd" clip-rule="evenodd" d="M15.4164 14.4145L10.571 17.2085C10.0884 17.486 9.54125 17.6317 8.98452 17.6308C8.42682 17.6311 7.87867 17.4861 7.39402 17.2101L2.55023 14.4169C2.0683 14.1371 1.66826 13.7358 1.39012 13.2529C1.11199 12.7701 0.965514 12.2226 0.965332 11.6654V6.0982C0.96753 5.54207 1.11452 4.99611 1.39186 4.51407C1.66921 4.03203 2.06734 3.63052 2.54702 3.34912L7.39162 0.554285C7.87548 0.278089 8.42298 0.132813 8.98011 0.132812C9.53725 0.132813 10.0848 0.278089 10.5686 0.554285L15.4124 3.34832C15.8931 3.62956 16.2922 4.03123 16.5702 4.51374C16.8483 4.99624 16.9958 5.54291 16.9981 6.09981V11.6678C16.9955 12.2235 16.8483 12.769 16.571 13.2506C16.2937 13.7322 15.8958 14.1333 15.4164 14.4145ZM15.7753 6.09739C15.7764 5.7535 15.6865 5.41546 15.5147 5.11752C15.343 4.81958 15.0955 4.57234 14.7974 4.40089L9.96005 1.61088C9.66102 1.44084 9.32291 1.35147 8.97891 1.35155C8.63666 1.35119 8.3003 1.4406 8.00341 1.61088L3.16202 4.40331C2.86655 4.57687 2.62132 4.82432 2.45043 5.12134C2.27954 5.41836 2.18887 5.75472 2.18732 6.09739V11.6654C2.18735 12.0084 2.27738 12.3453 2.44842 12.6426C2.61946 12.9399 2.86552 13.1871 3.16202 13.3595L8.00341 16.1519C8.30166 16.3212 8.63876 16.4103 8.98173 16.4103C9.3247 16.4103 9.6618 16.3212 9.96005 16.1519L14.8014 13.3595C15.0966 13.1856 15.3415 12.9381 15.5122 12.6411C15.683 12.3442 15.7736 12.0079 15.7753 11.6654V6.0982V6.09739ZM12.2426 13.2856C12.0806 13.2856 11.9252 13.2212 11.8106 13.1067C11.696 12.9921 11.6316 12.8367 11.6316 12.6746C11.6316 11.5506 10.4434 10.6321 8.98212 10.6321C7.52087 10.6321 6.33261 11.5482 6.33261 12.6746C6.32688 12.8329 6.25994 12.9829 6.14591 13.0928C6.03188 13.2028 5.87963 13.2643 5.72121 13.2643C5.56279 13.2643 5.41055 13.2028 5.29652 13.0928C5.18249 12.9829 5.11555 12.8329 5.10981 12.6746C5.10981 10.8754 6.84644 9.4109 8.98131 9.4109C11.1162 9.4109 12.8536 10.8754 12.8536 12.6746C12.8534 12.8361 12.7894 12.9909 12.6756 13.1053C12.5617 13.2197 12.4073 13.2846 12.2459 13.2856H12.2426ZM8.98212 8.67787C8.48634 8.67723 8.00188 8.52963 7.58996 8.25373C7.17804 7.97782 6.85716 7.586 6.66788 7.12778C6.47859 6.66956 6.42939 6.16549 6.5265 5.67931C6.62361 5.19314 6.86267 4.74667 7.21346 4.39632C7.56426 4.04598 8.01105 3.80749 8.49735 3.711C8.98365 3.61451 9.48764 3.66435 9.94562 3.85423C10.4036 4.0441 10.795 4.36548 11.0704 4.77775C11.3458 5.19002 11.4928 5.67468 11.4928 6.17046C11.4915 6.83507 11.2269 7.4721 10.7569 7.94206C10.287 8.41201 9.64995 8.67659 8.98533 8.67787H8.98212ZM8.98212 4.88423C8.72805 4.88423 8.47968 4.95958 8.26843 5.10073C8.05717 5.24189 7.89252 5.44252 7.79529 5.67726C7.69806 5.91199 7.67263 6.17027 7.7222 6.41946C7.77177 6.66865 7.8941 6.89755 8.07376 7.07721C8.25341 7.25686 8.48232 7.37922 8.73152 7.42879C8.98071 7.47836 9.239 7.45292 9.47373 7.35569C9.70847 7.25846 9.90909 7.0938 10.0502 6.88255C10.1914 6.6713 10.2667 6.42293 10.2667 6.16885C10.2657 5.82903 10.1305 5.50338 9.89046 5.26279C9.65047 5.0222 9.32515 4.88614 8.98533 4.88423H8.98212Z" fill="#757B8A"/>
</svg>