<svg xmlns="http://www.w3.org/2000/svg" width="22" height="24" viewBox="0 0 22 24" fill="none">
  <g clip-path="url(#clip0_89_267417)">
    <path fill-rule="evenodd" clip-rule="evenodd" d="M19.8306 19.5806L13.1815 23.4151C12.5192 23.796 11.7683 23.9959 11.0044 23.9947C10.2391 23.9951 9.48686 23.7961 8.8218 23.4173L2.17488 19.5839C1.51355 19.2 0.964594 18.6491 0.582924 17.9865C0.201254 17.3238 0.000249535 16.5725 0 15.8078V8.16736C0.00301579 7.40413 0.204727 6.65485 0.585311 5.9933C0.965896 5.33175 1.51223 4.78072 2.17047 4.39452L8.81851 0.558897C9.48248 0.179847 10.2338 -0.0195312 10.9983 -0.0195312C11.7629 -0.0195312 12.5142 0.179847 13.1782 0.558897L19.8251 4.39343C20.4847 4.77939 21.0323 5.33065 21.4139 5.99284C21.7955 6.65504 21.9979 7.40528 22.0011 8.16956V15.8111C21.9975 16.5737 21.7955 17.3224 21.4149 17.9833C21.0344 18.6442 20.4884 19.1947 19.8306 19.5806ZM20.3231 8.16625C20.3245 7.6943 20.2012 7.23036 19.9655 6.82147C19.7298 6.41258 19.3902 6.07327 18.9812 5.83798L12.3431 2.00896C11.9327 1.7756 11.4687 1.65295 10.9967 1.65306C10.527 1.65256 10.0655 1.77528 9.65804 2.00896L3.01441 5.84129C2.60896 6.07948 2.27244 6.41909 2.03793 6.82672C1.80342 7.23435 1.67901 7.69597 1.67689 8.16625V15.8078C1.67693 16.2785 1.80046 16.7409 2.03517 17.1489C2.26989 17.5569 2.60755 17.8961 3.01441 18.1327L9.65804 21.9651C10.0673 22.1974 10.5299 22.3196 11.0005 22.3196C11.4712 22.3196 11.9338 22.1974 12.3431 21.9651L18.9867 18.1327C19.3917 17.8942 19.7278 17.5544 19.9621 17.1469C20.1964 16.7393 20.3208 16.2779 20.3231 15.8078V8.16736V8.16625ZM15.4753 18.0314C15.253 18.0314 15.0397 17.943 14.8825 17.7858C14.7252 17.6285 14.6369 17.4152 14.6369 17.1928C14.6369 15.6502 13.0063 14.3897 11.0011 14.3897C8.99588 14.3897 7.36528 15.6469 7.36528 17.1928C7.35741 17.4101 7.26555 17.6159 7.10907 17.7668C6.95259 17.9177 6.74368 18.0021 6.52628 18.0021C6.30889 18.0021 6.09997 17.9177 5.94349 17.7668C5.78701 17.6159 5.69516 17.4101 5.68729 17.1928C5.68729 14.7235 8.07039 12.7137 11 12.7137C13.9296 12.7137 16.3138 14.7235 16.3138 17.1928C16.3135 17.4144 16.2257 17.6268 16.0695 17.7839C15.9132 17.941 15.7013 18.0299 15.4798 18.0314H15.4753ZM11.0011 11.7077C10.3207 11.7068 9.65594 11.5042 9.09069 11.1256C8.52543 10.7469 8.0851 10.2092 7.82535 9.58035C7.5656 8.95149 7.49808 8.25971 7.63134 7.59248C7.7646 6.92525 8.09265 6.31252 8.57403 5.83171C9.05541 5.35089 9.66852 5.02359 10.3359 4.89117C11.0032 4.75875 11.6948 4.82715 12.3232 5.08773C12.9517 5.34832 13.4888 5.78937 13.8667 6.35517C14.2446 6.92097 14.4463 7.58612 14.4463 8.26653C14.4446 9.17864 14.0815 10.0529 13.4366 10.6979C12.7917 11.3428 11.9175 11.7059 11.0055 11.7077H11.0011ZM11.0011 6.50131C10.6524 6.50131 10.3116 6.60472 10.0217 6.79844C9.73182 6.99216 9.50587 7.26751 9.37245 7.58966C9.23902 7.9118 9.20413 8.26627 9.27215 8.60826C9.34017 8.95025 9.50804 9.26439 9.75457 9.51095C10.0011 9.75751 10.3152 9.92543 10.6572 9.99346C10.9991 10.0615 11.3536 10.0266 11.6757 9.89313C11.9978 9.75969 12.2731 9.53372 12.4668 9.2438C12.6605 8.95388 12.7639 8.61301 12.7639 8.26432C12.7625 7.79795 12.5769 7.35103 12.2476 7.02084C11.9182 6.69066 11.4718 6.50393 11.0055 6.50131H11.0011Z" fill="#757B8A"/>
  </g>
  <defs>
    <clipPath id="clip0_89_267417">
      <rect width="22" height="24" fill="white"/>
    </clipPath>
  </defs>
</svg>