<svg xmlns="http://www.w3.org/2000/svg" width="24" height="24" viewBox="0 0 24 24" fill="none">
  <path fill-rule="evenodd" clip-rule="evenodd" d="M22.3759 20.8986C22.048 21.4755 21.6232 21.9895 21.1208 22.4174C20.0908 23.3412 18.789 23.8927 17.4182 23.9859C16.0475 24.0791 14.6849 23.7088 13.543 22.9328H6.74397C2.90466 22.9328 0.703125 20.6979 0.703125 16.8V7.73309C0.703125 4.1174 2.61662 1.95782 5.95595 1.65991V0.800688C5.95595 0.58833 6.03892 0.384656 6.18671 0.234496C6.33449 0.0843365 6.53497 0 6.74397 0C6.95296 0 7.15338 0.0843365 7.30117 0.234496C7.44895 0.384656 7.53198 0.58833 7.53198 0.800688V1.60032H14.3618V0.800688C14.3618 0.58833 14.4449 0.384656 14.5927 0.234496C14.7404 0.0843365 14.9409 0 15.1499 0C15.3589 0 15.5593 0.0843365 15.7071 0.234496C15.8549 0.384656 15.9379 0.58833 15.9379 0.800688V1.65991C19.2762 1.95782 21.1928 4.1174 21.1928 7.73309V12.8457C22.2881 13.8339 23.0066 15.1819 23.2229 16.6539C23.4392 18.126 23.1394 19.6284 22.3759 20.8986ZM19.6147 7.72785C19.6147 4.96304 18.4008 3.4986 15.9379 3.24668V3.99512C15.9379 4.20747 15.8549 4.41112 15.7071 4.56128C15.5593 4.71144 15.3589 4.7958 15.1499 4.7958C14.9409 4.7958 14.7404 4.71144 14.5927 4.56128C14.4449 4.41112 14.3618 4.20747 14.3618 3.99512V3.19545H7.53198V3.99512C7.53198 4.20747 7.44895 4.41112 7.30117 4.56128C7.15338 4.71144 6.95296 4.7958 6.74397 4.7958C6.53497 4.7958 6.33449 4.71144 6.18671 4.56128C6.03892 4.41112 5.95595 4.20747 5.95595 3.99512V3.24668C3.49312 3.4986 2.27916 4.96304 2.27916 7.72785V16.7948C2.27916 19.8449 3.74001 21.3282 6.74397 21.3282H11.8877C11.7849 21.1871 11.6922 21.0408 11.6017 20.8902C10.8081 19.5659 10.5183 17.9924 10.787 16.4661C11.0557 14.9397 11.8642 13.5659 13.0605 12.6031C13.3188 12.3943 13.5941 12.2083 13.8835 12.047C13.9483 12.0105 14.0162 11.9812 14.0821 11.9425C14.3264 11.8144 14.579 11.7034 14.8382 11.6101L14.9698 11.5652C16.4918 11.042 18.1513 11.1166 19.6219 11.7742V7.72473L19.6147 7.72785ZM19.9151 13.8293C19.8801 13.8 19.84 13.7812 19.804 13.753C18.9619 13.1347 17.9451 12.8107 16.9063 12.8295C15.8675 12.8484 14.8628 13.2091 14.0429 13.8575C13.1467 14.5773 12.5404 15.6052 12.3382 16.7477C12.136 17.8902 12.3519 19.0683 12.9452 20.0603C13.2737 20.6172 13.7097 21.1008 14.2271 21.4819C15.0892 22.1219 16.1407 22.4432 17.2072 22.3926C18.2738 22.3421 19.2913 21.9226 20.091 21.2038C20.465 20.8845 20.7826 20.5028 21.0302 20.0749C21.6306 19.077 21.8487 17.8895 21.6431 16.7388C21.4375 15.588 20.8224 14.5543 19.9151 13.8345V13.8293ZM19.6147 18.3941C19.1274 18.3946 18.6603 18.5915 18.3157 18.9414C17.9711 19.2914 17.7771 19.7659 17.7763 20.261C17.7763 20.4733 17.6933 20.677 17.5455 20.8271C17.3977 20.9773 17.1973 21.0617 16.9883 21.0617C16.7793 21.0617 16.5788 20.9773 16.431 20.8271C16.2832 20.677 16.2002 20.4733 16.2002 20.261C16.1994 19.7659 16.0055 19.2914 15.6608 18.9414C15.3162 18.5915 14.8491 18.3946 14.3618 18.3941C14.2585 18.3941 14.1562 18.3734 14.0607 18.3332C13.9652 18.293 13.8785 18.2341 13.8054 18.1599C13.7323 18.0856 13.6743 17.9974 13.6348 17.9004C13.5952 17.8034 13.5748 17.6995 13.5748 17.5944C13.5748 17.4894 13.5952 17.3854 13.6348 17.2884C13.6743 17.1914 13.7323 17.1032 13.8054 17.029C13.8785 16.9547 13.9652 16.8958 14.0607 16.8556C14.1562 16.8155 14.2585 16.7948 14.3618 16.7948C14.8491 16.7942 15.3162 16.5974 15.6608 16.2474C16.0055 15.8975 16.1994 15.4229 16.2002 14.9279C16.2002 14.7155 16.2832 14.5119 16.431 14.3617C16.5788 14.2115 16.7793 14.1272 16.9883 14.1272C17.1973 14.1272 17.3977 14.2115 17.5455 14.3617C17.6933 14.5119 17.7763 14.7155 17.7763 14.9279C17.7771 15.4229 17.9711 15.8975 18.3157 16.2474C18.6603 16.5974 19.1274 16.7942 19.6147 16.7948C19.8246 16.7948 20.026 16.8795 20.1744 17.0304C20.3229 17.1812 20.4063 17.3858 20.4063 17.5991C20.4063 17.8125 20.3229 18.0171 20.1744 18.1679C20.026 18.3188 19.8246 18.4035 19.6147 18.4035V18.3941ZM16.9883 17.1397C16.853 17.3045 16.7033 17.4564 16.5408 17.5934C16.7033 17.7308 16.8531 17.883 16.9883 18.0481C17.1234 17.8833 17.2728 17.7311 17.4347 17.5934C17.2732 17.459 17.1239 17.3104 16.9883 17.1491V17.1397ZM11.9978 11.1941H5.69361C5.5878 11.198 5.48225 11.1802 5.38337 11.1417C5.28449 11.1032 5.19429 11.0449 5.11808 10.9702C5.04187 10.8955 4.98122 10.806 4.93982 10.707C4.89842 10.608 4.87709 10.5015 4.87709 10.3939C4.87709 10.2863 4.89842 10.1798 4.93982 10.0808C4.98122 9.98181 5.04187 9.89227 5.11808 9.81759C5.19429 9.7429 5.28449 9.68459 5.38337 9.64612C5.48225 9.60766 5.5878 9.58983 5.69361 9.59371H11.9978C12.2075 9.59371 12.4086 9.67836 12.5568 9.82901C12.7051 9.97966 12.7884 10.184 12.7884 10.397C12.7884 10.6101 12.7051 10.8144 12.5568 10.9651C12.4086 11.1157 12.2075 11.2004 11.9978 11.2004V11.1941ZM5.69361 14.9268H8.44652C8.55233 14.923 8.65782 14.9408 8.7567 14.9792C8.85559 15.0177 8.94584 15.076 9.02205 15.1507C9.09826 15.2254 9.15891 15.3149 9.20031 15.4139C9.24171 15.5129 9.26304 15.6194 9.26304 15.727C9.26304 15.8346 9.24171 15.9411 9.20031 16.0401C9.15891 16.1391 9.09826 16.2286 9.02205 16.3033C8.94584 16.378 8.85559 16.4363 8.7567 16.4748C8.65782 16.5132 8.55233 16.531 8.44652 16.5272H5.69361C5.58429 16.5378 5.47396 16.5251 5.36974 16.4899C5.26552 16.4547 5.16967 16.3978 5.08838 16.3227C5.0071 16.2477 4.94219 16.1562 4.89775 16.0542C4.85331 15.9521 4.83031 15.8417 4.83031 15.7301C4.83031 15.6185 4.85331 15.5082 4.89775 15.4061C4.94219 15.3041 5.0071 15.2126 5.08838 15.1375C5.16967 15.0625 5.26552 15.0055 5.36974 14.9703C5.47396 14.9351 5.58429 14.9224 5.69361 14.9331V14.9268Z" fill="#757B8A"/>
</svg>