<svg xmlns="http://www.w3.org/2000/svg" width="22" height="22" viewBox="0 0 22 22" fill="none">
  <path fill-rule="evenodd" clip-rule="evenodd" d="M17.9604 15.2075C17.3849 15.77 16.6361 16.1215 15.8357 16.2049V17.0281C15.8357 17.3443 15.7102 17.6476 15.4868 17.8714C15.2634 18.0951 14.9603 18.221 14.6441 18.2214C14.408 18.2216 14.1773 18.1508 13.982 18.0181L13.8363 17.9205C13.5692 18.3946 13.1759 18.7853 12.7002 19.0494C12.2244 19.3134 11.6848 19.4404 11.1413 19.4162H9.28538L7.18037 20.8171C7.0071 20.9366 6.80153 21.0004 6.59109 21C6.4517 20.9998 6.31371 20.9721 6.18502 20.9186C6.05633 20.865 5.93947 20.7865 5.8411 20.6878C5.74274 20.589 5.66483 20.4718 5.61179 20.3428C5.55876 20.2139 5.53166 20.0758 5.53204 19.9363V19.3732C4.90423 19.287 4.32047 19.0021 3.86621 18.5602C3.58039 18.2646 3.35673 17.9147 3.20847 17.5312C3.06022 17.1476 2.99038 16.7383 3.00308 16.3273V13.2995C2.97195 12.6212 3.17746 11.9532 3.58445 11.4098C3.99143 10.8664 4.5746 10.4814 5.23413 10.3206V8.72365C5.21131 8.22903 5.2919 7.7351 5.47078 7.27341C5.64965 6.81171 5.92287 6.39242 6.27296 6.04233C6.62305 5.69225 7.04231 5.41906 7.50395 5.24024C7.96559 5.06142 8.45946 4.9809 8.95398 5.00382H15.2771C15.7716 4.98089 16.2654 5.06142 16.727 5.24024C17.1886 5.41907 17.6078 5.69226 17.9578 6.04236C18.3079 6.39246 18.581 6.81176 18.7598 7.27345C18.9386 7.73514 19.0191 8.22906 18.9962 8.72365V12.5178C19.0114 13.0125 18.9276 13.5053 18.7497 13.9672C18.5718 14.4291 18.3035 14.8508 17.9604 15.2075ZM4.12115 13.3002V16.328C4.10072 16.5921 4.13768 16.8575 4.22949 17.106C4.32131 17.3545 4.4658 17.5802 4.65306 17.7676C4.84031 17.9549 5.0659 18.0995 5.31431 18.1914C5.56272 18.2834 5.82807 18.3204 6.09215 18.3001C6.24013 18.3001 6.38205 18.3589 6.48668 18.4635C6.59132 18.5682 6.65011 18.7101 6.65011 18.8581V19.8314L8.80976 18.3941C8.90152 18.3331 9.00915 18.3004 9.11931 18.3001H11.1435C11.5693 18.3384 11.9946 18.2225 12.3422 17.9735C12.6898 17.7245 12.9364 17.3591 13.0373 16.9436C13.093 16.7432 13.12 16.5359 13.1174 16.328V13.3002C13.1389 13.0359 13.1026 12.7701 13.0111 12.5211C12.9197 12.2722 12.7752 12.0462 12.5877 11.8586C12.4002 11.6711 12.1742 11.5266 11.9253 11.4351C11.6765 11.3437 11.4107 11.3074 11.1464 11.3289H6.08779C5.9982 11.3289 5.91516 11.3354 5.83212 11.342C5.58939 11.3533 5.35146 11.4136 5.13264 11.5193C4.91381 11.625 4.71862 11.7738 4.55879 11.9569C4.39896 12.1399 4.27778 12.3534 4.20258 12.5845C4.12737 12.8157 4.09967 13.0596 4.12115 13.3017V13.3002ZM17.8825 8.72438C17.9068 8.3762 17.8561 8.02686 17.7339 7.69994C17.6116 7.37302 17.4207 7.07613 17.1739 6.82933C16.9272 6.58253 16.6304 6.39154 16.3035 6.26929C15.9767 6.14703 15.6274 6.09634 15.2792 6.12064H8.95616C8.60801 6.09635 8.25871 6.14706 7.93182 6.26931C7.60494 6.39156 7.30806 6.58252 7.06125 6.82931C6.81444 7.07609 6.62343 7.37296 6.50111 7.69987C6.37879 8.02679 6.32802 8.37616 6.3522 8.72438V10.2128H11.1435C11.5539 10.1938 11.9638 10.2606 12.3469 10.4091C12.73 10.5575 13.0779 10.7843 13.3684 11.0749C13.659 11.3654 13.8857 11.7134 14.0341 12.0966C14.1825 12.4798 14.2494 12.8897 14.2304 13.3002V16.328C14.2306 16.4893 14.2201 16.6504 14.1991 16.8103C14.1987 16.8141 14.1987 16.818 14.1991 16.8219L14.6798 17.0966C14.6928 17.0906 14.7037 17.0809 14.7112 17.0687C14.7187 17.0565 14.7225 17.0424 14.722 17.0281V15.6811C14.722 15.6078 14.7365 15.5352 14.7645 15.4675C14.7925 15.3998 14.8336 15.3383 14.8854 15.2864C14.9373 15.2346 14.9988 15.1935 15.0665 15.1655C15.1341 15.1374 15.2067 15.123 15.28 15.123C15.6283 15.148 15.978 15.0979 16.3052 14.9758C16.6325 14.8538 16.9297 14.6627 17.1766 14.4157C17.4235 14.1687 17.6144 13.8714 17.7363 13.544C17.8583 13.2167 17.9084 12.867 17.8832 12.5185V8.72365L17.8825 8.72438Z" fill="#757B8A"/>
</svg>