<svg xmlns="http://www.w3.org/2000/svg" width="22" height="22" viewBox="0 0 22 22" fill="none">
  <path fill-rule="evenodd" clip-rule="evenodd" d="M12.2316 18H7.76763C3.72481 18 2 16.2753 2 12.2326V7.76737C2 3.72474 3.72481 2 7.76763 2H12.2331C16.2759 2 18 3.72474 18 7.76737V12.2326C17.9985 16.2731 16.2744 18 12.2316 18ZM16.8836 7.76737C16.8836 4.33391 15.666 3.11631 12.2316 3.11631H7.76763C4.334 3.11631 3.11635 4.33391 3.11635 7.76737V12.2326C3.11635 15.6661 4.334 16.8837 7.76763 16.8837H12.2331C15.6674 16.8837 16.8851 15.6661 16.8851 12.2326V7.76737H16.8836ZM14.1816 13.4451H10.2744C10.1263 13.4451 9.98435 13.3863 9.87967 13.2816C9.77499 13.177 9.71618 13.035 9.71618 12.887C9.71618 12.7389 9.77499 12.597 9.87967 12.4923C9.98435 12.3876 10.1263 12.3288 10.2744 12.3288H14.1802C14.3282 12.3288 14.4702 12.3876 14.5748 12.4923C14.6795 12.597 14.7383 12.7389 14.7383 12.887C14.7383 13.035 14.6795 13.177 14.5748 13.2816C14.4702 13.3863 14.3282 13.4451 14.1802 13.4451H14.1816ZM14.1816 8.23591H10.2744C10.1263 8.23591 9.98435 8.1771 9.87967 8.07243C9.77499 7.96776 9.71618 7.82578 9.71618 7.67774C9.71618 7.52971 9.77499 7.38774 9.87967 7.28307C9.98435 7.1784 10.1263 7.11959 10.2744 7.11959H14.1802C14.3282 7.11959 14.4702 7.1784 14.5748 7.28307C14.6795 7.38774 14.7383 7.52971 14.7383 7.67774C14.7383 7.82578 14.6795 7.96776 14.5748 8.07243C14.4702 8.1771 14.3282 8.23591 14.1802 8.23591H14.1816ZM6.76932 13.8401C6.66455 13.9445 6.52265 14.0031 6.37472 14.0031C6.22679 14.0031 6.0849 13.9445 5.98013 13.8401L5.42195 13.2819C5.36816 13.2305 5.32516 13.1689 5.29551 13.1007C5.26586 13.0325 5.25015 12.959 5.2493 12.8847C5.24844 12.8103 5.26246 12.7365 5.29053 12.6676C5.3186 12.5987 5.36015 12.5362 5.41275 12.4836C5.46534 12.431 5.52795 12.3894 5.59683 12.3613C5.66572 12.3333 5.7395 12.3193 5.81388 12.3201C5.88826 12.321 5.96172 12.3367 6.02994 12.3663C6.09816 12.396 6.15977 12.439 6.21114 12.4928L6.37437 12.656L7.65466 11.3764C7.70603 11.3227 7.76764 11.2797 7.83586 11.25C7.90408 11.2204 7.97754 11.2047 8.05192 11.2038C8.1263 11.203 8.20012 11.217 8.26901 11.245C8.33789 11.2731 8.40045 11.3147 8.45305 11.3673C8.50565 11.4198 8.5472 11.4824 8.57527 11.5513C8.60334 11.6202 8.61736 11.694 8.6165 11.7684C8.61564 11.8427 8.59994 11.9162 8.57029 11.9844C8.54064 12.0526 8.49764 12.1142 8.44384 12.1656L6.76932 13.8401ZM6.76932 8.63084C6.66455 8.73527 6.52265 8.79391 6.37472 8.79391C6.22679 8.79391 6.0849 8.73527 5.98013 8.63084L5.42195 8.07269C5.36816 8.02132 5.32516 7.95971 5.29551 7.8915C5.26586 7.82328 5.25015 7.74983 5.2493 7.67545C5.24844 7.60108 5.26246 7.52728 5.29053 7.4584C5.3186 7.38952 5.36015 7.32694 5.41275 7.27434C5.46534 7.22175 5.52795 7.18019 5.59683 7.15213C5.66572 7.12406 5.7395 7.11004 5.81388 7.1109C5.88826 7.11176 5.96172 7.12747 6.02994 7.15712C6.09816 7.18677 6.15977 7.22974 6.21114 7.28354L6.37437 7.44676L7.65466 6.16723C7.70603 6.11343 7.76764 6.07046 7.83586 6.04081C7.90408 6.01116 7.97754 5.99545 8.05192 5.99459C8.1263 5.99373 8.20012 6.00775 8.26901 6.03582C8.33789 6.06388 8.40045 6.10544 8.45305 6.15803C8.50565 6.21063 8.5472 6.2732 8.57527 6.34209C8.60334 6.41097 8.61736 6.48476 8.6165 6.55913C8.61564 6.63351 8.59994 6.70697 8.57029 6.77519C8.54064 6.8434 8.49764 6.905 8.44384 6.95637L6.76932 8.63084Z" fill="#757B8A"/>
</svg>