<svg width="285" height="320" viewBox="0 0 285 320" fill="none" xmlns="http://www.w3.org/2000/svg">
<g filter="url(#filter0_dd_3285_276432)">
<g clip-path="url(#clip0_3285_276432)">
<path d="M12 20.4932C12 9.44746 20.9543 0.493164 32 0.493164H253C264.046 0.493164 273 9.44747 273 20.4932V275.499C273 286.544 264.046 295.499 253 295.499H32C20.9543 295.499 12 286.544 12 275.499V20.4932Z" fill="white"/>
<rect x="23.7302" y="8.31348" width="23.4607" height="23.4607" rx="11.7303" fill="#BAE8FF"/>
<rect x="23.7302" y="8.31348" width="23.4607" height="23.4607" rx="11.7303" stroke="#EBF8FF" stroke-width="3.91011"/>
<path fill-rule="evenodd" clip-rule="evenodd" d="M35.4606 15.645C35.6631 15.645 35.8272 15.8091 35.8272 16.0116V19.6773H39.4929C39.6954 19.6773 39.8595 19.8414 39.8595 20.0439C39.8595 20.2463 39.6954 20.4105 39.4929 20.4105H35.8272V24.0762C35.8272 24.2787 35.6631 24.4428 35.4606 24.4428C35.2582 24.4428 35.0941 24.2787 35.0941 24.0762V20.4105H31.4283C31.2259 20.4105 31.0618 20.2463 31.0618 20.0439C31.0618 19.8414 31.2259 19.6773 31.4283 19.6773H35.0941V16.0116C35.0941 15.8091 35.2582 15.645 35.4606 15.645Z" fill="#106B99"/>
<path d="M60.9004 16.6456V23.0439H59.8694L56.8545 18.6857H56.8014V23.0439H55.6423V16.6456H56.6796L59.6913 21.007H59.7475V16.6456H60.9004ZM64.1058 23.1377C63.6247 23.1377 63.2092 23.0377 62.8593 22.8377C62.5114 22.6357 62.2438 22.3504 62.0563 21.9817C61.8689 21.611 61.7752 21.1746 61.7752 20.6727C61.7752 20.1791 61.8689 19.7458 62.0563 19.373C62.2459 18.9981 62.5104 18.7065 62.8499 18.4982C63.1894 18.2879 63.5882 18.1827 64.0465 18.1827C64.3422 18.1827 64.6213 18.2306 64.8837 18.3264C65.1483 18.4201 65.3815 18.5659 65.5836 18.7638C65.7877 18.9617 65.9481 19.2137 66.0647 19.5198C66.1813 19.8239 66.2396 20.1863 66.2396 20.6071V20.9539H62.3063V20.1915H65.1555C65.1535 19.9749 65.1066 19.7823 65.015 19.6136C64.9233 19.4428 64.7952 19.3084 64.6307 19.2105C64.4682 19.1127 64.2787 19.0637 64.0621 19.0637C63.8309 19.0637 63.6278 19.1199 63.4529 19.2324C63.2779 19.3428 63.1415 19.4886 63.0436 19.6698C62.9478 19.8489 62.8988 20.0458 62.8967 20.2603V20.9257C62.8967 21.2048 62.9478 21.4444 63.0498 21.6443C63.1519 21.8422 63.2946 21.9942 63.4778 22.1004C63.6611 22.2046 63.8757 22.2566 64.1214 22.2566C64.286 22.2566 64.4349 22.2337 64.5682 22.1879C64.7015 22.14 64.8171 22.0702 64.915 21.9786C65.0129 21.8869 65.0868 21.7734 65.1368 21.6381L66.1928 21.7568C66.1261 22.0359 65.9991 22.2796 65.8116 22.4878C65.6263 22.694 65.3888 22.8544 65.0993 22.969C64.8098 23.0814 64.4786 23.1377 64.1058 23.1377ZM68.0291 23.0439L66.6732 18.2452H67.826L68.6695 21.6193H68.7133L69.5755 18.2452H70.7159L71.5782 21.6006H71.625L72.4561 18.2452H73.612L72.253 23.0439H71.0752L70.1754 19.801H70.1098L69.21 23.0439H68.0291ZM76.0888 17.6172V16.6456H81.1937V17.6172H79.2161V23.0439H78.0664V17.6172H76.0888ZM82.7238 23.1408C82.4197 23.1408 82.1459 23.0866 81.9022 22.9783C81.6606 22.8679 81.4689 22.7055 81.3273 22.491C81.1878 22.2764 81.118 22.0119 81.118 21.6974C81.118 21.4267 81.168 21.2027 81.268 21.0257C81.3679 20.8487 81.5044 20.707 81.6772 20.6008C81.8501 20.4946 82.0448 20.4144 82.2615 20.3603C82.4801 20.304 82.7061 20.2634 82.9394 20.2384C83.2206 20.2093 83.4487 20.1832 83.6236 20.1603C83.7986 20.1353 83.9256 20.0978 84.0048 20.0478C84.086 19.9958 84.1266 19.9156 84.1266 19.8073V19.7885C84.1266 19.5532 84.0568 19.3709 83.9173 19.2418C83.7777 19.1127 83.5767 19.0481 83.3143 19.0481C83.0373 19.0481 82.8176 19.1085 82.6551 19.2293C82.4947 19.3501 82.3864 19.4928 82.3302 19.6573L81.2742 19.5073C81.3575 19.2158 81.495 18.9721 81.6866 18.7763C81.8782 18.5784 82.1125 18.4305 82.3895 18.3326C82.6666 18.2327 82.9727 18.1827 83.3081 18.1827C83.5393 18.1827 83.7694 18.2098 83.9985 18.2639C84.2276 18.3181 84.4369 18.4076 84.6265 18.5326C84.816 18.6555 84.9681 18.8231 85.0826 19.0356C85.1992 19.248 85.2576 19.5136 85.2576 19.8323V23.0439H84.1703V22.3847H84.1329C84.0641 22.518 83.9673 22.643 83.8423 22.7596C83.7194 22.8742 83.5642 22.9669 83.3768 23.0377C83.1914 23.1064 82.9738 23.1408 82.7238 23.1408ZM83.0175 22.3098C83.2445 22.3098 83.4414 22.265 83.608 22.1754C83.7746 22.0838 83.9027 21.963 83.9923 21.813C84.0839 21.663 84.1297 21.4995 84.1297 21.3225V20.757C84.0943 20.7862 84.0339 20.8133 83.9485 20.8383C83.8652 20.8633 83.7715 20.8851 83.6673 20.9039C83.5632 20.9226 83.4601 20.9393 83.3581 20.9539C83.256 20.9684 83.1675 20.9809 83.0925 20.9913C82.9238 21.0143 82.7728 21.0517 82.6395 21.1038C82.5062 21.1559 82.401 21.2288 82.3239 21.3225C82.2469 21.4142 82.2083 21.5329 82.2083 21.6787C82.2083 21.8869 82.2844 22.0442 82.4364 22.1504C82.5885 22.2566 82.7822 22.3098 83.0175 22.3098ZM90.0556 19.5136L89.0246 19.6261C88.9954 19.5219 88.9444 19.424 88.8715 19.3324C88.8007 19.2408 88.7049 19.1668 88.5841 19.1106C88.4633 19.0543 88.3154 19.0262 88.1405 19.0262C87.9051 19.0262 87.7072 19.0773 87.5469 19.1793C87.3886 19.2814 87.3105 19.4136 87.3125 19.5761C87.3105 19.7156 87.3615 19.8291 87.4656 19.9166C87.5718 20.0041 87.7468 20.076 87.9905 20.1322L88.809 20.3071C89.2631 20.405 89.6005 20.5602 89.8213 20.7727C90.0441 20.9851 90.1566 21.2632 90.1587 21.6068C90.1566 21.9088 90.0681 22.1754 89.8931 22.4066C89.7203 22.6357 89.4797 22.8148 89.1714 22.944C88.8632 23.0731 88.5091 23.1377 88.1092 23.1377C87.5219 23.1377 87.0491 23.0148 86.6908 22.769C86.3326 22.5212 86.1191 22.1765 86.0504 21.7349L87.1532 21.6287C87.2032 21.8453 87.3094 22.0088 87.4719 22.1192C87.6343 22.2296 87.8457 22.2848 88.1061 22.2848C88.3748 22.2848 88.5903 22.2296 88.7528 22.1192C88.9173 22.0088 88.9996 21.8724 88.9996 21.7099C88.9996 21.5724 88.9465 21.4589 88.8403 21.3694C88.7361 21.2798 88.5737 21.2111 88.3529 21.1632L87.5344 20.9913C87.0741 20.8955 86.7335 20.7341 86.5127 20.5071C86.292 20.278 86.1826 19.9885 86.1847 19.6386C86.1826 19.3428 86.2628 19.0866 86.4253 18.87C86.5898 18.6513 86.8179 18.4826 87.1095 18.3639C87.4031 18.2431 87.7416 18.1827 88.1248 18.1827C88.6872 18.1827 89.1298 18.3024 89.4526 18.542C89.7775 18.7815 89.9785 19.1054 90.0556 19.5136ZM91.9903 21.5381L91.9872 20.1728H92.1684L93.8929 18.2452H95.2145L93.0931 20.6071H92.8588L91.9903 21.5381ZM90.9593 23.0439V16.6456H92.0903V23.0439H90.9593ZM93.971 23.0439L92.4089 20.8601L93.1712 20.0635L95.3238 23.0439H93.971Z" fill="#344054"/>
<path d="M257.36 16.1338L251.494 21.999M251.494 16.1338L257.36 21.999" stroke="#667085" stroke-width="0.977528" stroke-linecap="round" stroke-linejoin="round"/>
<path fill-rule="evenodd" clip-rule="evenodd" d="M273 38.1279H12V37.6392H273V38.1279Z" fill="#EAECF0"/>
<rect width="261" height="198.494" transform="translate(12 38.1279)" fill="#FCFCFD"/>
<path d="M20.1216 53.5283V52.8819H23.9731V53.5283H22.4203V57.8584H21.6719V53.5283H20.1216ZM25.4126 57.941C25.1761 57.941 24.9622 57.8973 24.7711 57.8098C24.5799 57.7207 24.4285 57.5919 24.3167 57.4234C24.2065 57.255 24.1515 57.0484 24.1515 56.8038C24.1515 56.5932 24.192 56.4199 24.2729 56.2838C24.3539 56.1477 24.4633 56.04 24.601 55.9606C24.7387 55.8812 24.8926 55.8213 25.0627 55.7808C25.2328 55.7403 25.4061 55.7095 25.5827 55.6885C25.8062 55.6625 25.9877 55.6415 26.127 55.6253C26.2663 55.6075 26.3676 55.5791 26.4307 55.5402C26.4939 55.5014 26.5255 55.4382 26.5255 55.3507V55.3337C26.5255 55.1215 26.4656 54.9571 26.3457 54.8404C26.2274 54.7238 26.0509 54.6655 25.816 54.6655C25.5713 54.6655 25.3786 54.7197 25.2376 54.8283C25.0983 54.9352 25.0019 55.0543 24.9485 55.1855L24.2657 55.03C24.3467 54.8032 24.4649 54.6201 24.6204 54.4808C24.7776 54.3399 24.9582 54.2378 25.1623 54.1746C25.3664 54.1098 25.5811 54.0774 25.8062 54.0774C25.9553 54.0774 26.1132 54.0952 26.2801 54.1309C26.4486 54.1649 26.6057 54.2281 26.7515 54.3204C26.8989 54.4128 27.0196 54.5448 27.1135 54.7165C27.2075 54.8866 27.2545 55.1077 27.2545 55.3799V57.8584H26.5449V57.3481H26.5158C26.4688 57.4421 26.3983 57.5344 26.3044 57.6251C26.2104 57.7158 26.0897 57.7912 25.9423 57.8511C25.7949 57.911 25.6183 57.941 25.4126 57.941ZM25.5705 57.3578C25.7714 57.3578 25.9431 57.3181 26.0857 57.2388C26.2299 57.1594 26.3392 57.0557 26.4137 56.9277C26.4899 56.7981 26.5279 56.6596 26.5279 56.5122V56.0311C26.502 56.057 26.4518 56.0813 26.3773 56.104C26.3044 56.125 26.2209 56.1437 26.127 56.1599C26.033 56.1745 25.9415 56.1882 25.8524 56.2012C25.7633 56.2125 25.6888 56.2222 25.6289 56.2303C25.4879 56.2482 25.3591 56.2781 25.2425 56.3202C25.1275 56.3624 25.0351 56.4231 24.9655 56.5025C24.8974 56.5803 24.8634 56.6839 24.8634 56.8135C24.8634 56.9933 24.9298 57.1294 25.0627 57.2218C25.1955 57.3125 25.3648 57.3578 25.5705 57.3578ZM31.0875 55.0372L30.429 55.1539C30.4014 55.0696 30.3577 54.9895 30.2978 54.9133C30.2394 54.8372 30.1601 54.7748 30.0596 54.7262C29.9592 54.6776 29.8336 54.6533 29.683 54.6533C29.4772 54.6533 29.3055 54.6995 29.1678 54.7918C29.0301 54.8825 28.9613 55 28.9613 55.1442C28.9613 55.2689 29.0075 55.3693 29.0998 55.4455C29.1921 55.5216 29.3412 55.584 29.5469 55.6326L30.1398 55.7687C30.4832 55.848 30.7392 55.9703 30.9077 56.1356C31.0761 56.3008 31.1604 56.5155 31.1604 56.7795C31.1604 57.0031 31.0956 57.2023 30.966 57.3773C30.838 57.5506 30.659 57.6867 30.429 57.7855C30.2006 57.8843 29.9357 57.9337 29.6344 57.9337C29.2164 57.9337 28.8754 57.8446 28.6114 57.6664C28.3473 57.4866 28.1853 57.2315 28.1254 56.901L28.8276 56.7941C28.8714 56.9771 28.9613 57.1156 29.0974 57.2096C29.2334 57.3019 29.4108 57.3481 29.6295 57.3481C29.8677 57.3481 30.058 57.2987 30.2006 57.1999C30.3431 57.0994 30.4144 56.9771 30.4144 56.833C30.4144 56.7163 30.3707 56.6183 30.2832 56.5389C30.1973 56.4596 30.0653 56.3996 29.8871 56.3591L29.2553 56.2206C28.907 56.1412 28.6494 56.0149 28.4826 55.8416C28.3174 55.6682 28.2347 55.4487 28.2347 55.183C28.2347 54.9627 28.2963 54.77 28.4194 54.6047C28.5425 54.4395 28.7126 54.3107 28.9297 54.2184C29.1468 54.1244 29.3954 54.0774 29.6757 54.0774C30.0791 54.0774 30.3966 54.1649 30.6282 54.3399C30.8599 54.5132 31.013 54.7457 31.0875 55.0372ZM32.6959 56.5924L32.691 55.7055H32.8174L34.3045 54.126H35.1744L33.4783 55.9242H33.3641L32.6959 56.5924ZM32.0276 57.8584V52.8819H32.7542V57.8584H32.0276ZM34.3847 57.8584L33.0482 56.0845L33.5488 55.5767L35.2765 57.8584H34.3847ZM37.5972 53.5283V52.8819H41.4487V53.5283H39.8959V57.8584H39.1475V53.5283H37.5972ZM42.3099 57.8584V54.126H43.0364V57.8584H42.3099ZM42.6768 53.5501C42.5504 53.5501 42.4419 53.508 42.3512 53.4238C42.2621 53.3379 42.2175 53.2359 42.2175 53.1176C42.2175 52.9977 42.2621 52.8957 42.3512 52.8114C42.4419 52.7256 42.5504 52.6826 42.6768 52.6826C42.8031 52.6826 42.9109 52.7256 43 52.8114C43.0907 52.8957 43.136 52.9977 43.136 53.1176C43.136 53.2359 43.0907 53.3379 43 53.4238C42.9109 53.508 42.8031 53.5501 42.6768 53.5501ZM45.8246 54.126V54.7092H43.7858V54.126H45.8246ZM44.3326 53.2318H45.0591V56.7625C45.0591 56.9034 45.0802 57.0095 45.1223 57.0808C45.1644 57.1505 45.2187 57.1983 45.2851 57.2242C45.3531 57.2485 45.4269 57.2606 45.5062 57.2606C45.5645 57.2606 45.6156 57.2566 45.6593 57.2485C45.7031 57.2404 45.7371 57.2339 45.7614 57.229L45.8926 57.8292C45.8505 57.8454 45.7905 57.8616 45.7128 57.8778C45.635 57.8957 45.5378 57.9054 45.4212 57.907C45.23 57.9102 45.0518 57.8762 44.8866 57.8049C44.7214 57.7337 44.5877 57.6235 44.4857 57.4745C44.3836 57.3254 44.3326 57.1383 44.3326 56.9132V53.2318ZM47.5034 52.8819V57.8584H46.7769V52.8819H47.5034ZM50.1579 57.9337C49.7902 57.9337 49.4735 57.8552 49.2078 57.698C48.9437 57.5393 48.7396 57.3165 48.5955 57.0298C48.4529 56.7414 48.3816 56.4037 48.3816 56.0165C48.3816 55.6342 48.4529 55.2972 48.5955 55.0057C48.7396 54.7141 48.9405 54.4865 49.1981 54.3228C49.4573 54.1592 49.7602 54.0774 50.1069 54.0774C50.3175 54.0774 50.5216 54.1122 50.7192 54.1819C50.9169 54.2516 51.0942 54.3609 51.2514 54.5099C51.4085 54.659 51.5324 54.8526 51.6232 55.0907C51.7139 55.3272 51.7592 55.6148 51.7592 55.9533V56.2109H48.7923V55.6666H51.0473C51.0473 55.4754 51.0084 55.3062 50.9306 55.1587C50.8529 55.0097 50.7435 54.8923 50.6026 54.8064C50.4633 54.7205 50.2996 54.6776 50.1117 54.6776C49.9076 54.6776 49.7294 54.7278 49.5771 54.8283C49.4265 54.9271 49.3099 55.0567 49.2272 55.2171C49.1462 55.3758 49.1057 55.5483 49.1057 55.7346V56.1599C49.1057 56.4093 49.1495 56.6216 49.237 56.7965C49.3261 56.9715 49.45 57.1051 49.6087 57.1975C49.7675 57.2882 49.953 57.3335 50.1652 57.3335C50.3029 57.3335 50.4284 57.3141 50.5418 57.2752C50.6552 57.2347 50.7532 57.1748 50.8359 57.0954C50.9185 57.016 50.9817 56.918 51.0254 56.8014L51.7131 56.9253C51.658 57.1278 51.5592 57.3052 51.4166 57.4575C51.2757 57.6081 51.0983 57.7256 50.8845 57.8098C50.6722 57.8924 50.4301 57.9337 50.1579 57.9337Z" fill="#475467"/>
<rect x="20.0647" y="64.0354" width="244.871" height="21.2865" rx="1.71067" fill="white"/>
<rect x="20.0647" y="64.0354" width="244.871" height="21.2865" rx="1.71067" stroke="#D0D5DD" stroke-width="0.488764"/>
<path d="M27.3516 77.6782V71.9908H30.784V72.6017H28.0403V74.5235H30.6063V75.1344H28.0403V77.0673H30.8284V77.6782H27.3516ZM32.5528 75.1122V77.6782H31.8974V73.4126H32.5306V74.0791H32.5861C32.6861 73.8625 32.8379 73.6885 33.0415 73.5571C33.2452 73.4238 33.5081 73.3571 33.8302 73.3571C34.119 73.3571 34.3718 73.4163 34.5884 73.5348C34.805 73.6515 34.9735 73.8292 35.0938 74.068C35.2141 74.305 35.2743 74.6049 35.2743 74.9678V77.6782H34.6189V75.0122C34.6189 74.6771 34.5319 74.4161 34.3579 74.2291C34.1838 74.0403 33.945 73.9458 33.6414 73.9458C33.4322 73.9458 33.2452 73.9912 33.0804 74.0819C32.9175 74.1726 32.7888 74.305 32.6944 74.479C32.6 74.6531 32.5528 74.8641 32.5528 75.1122ZM38.2879 73.4126V73.9681H36.0774V73.4126H38.2879ZM36.7216 72.3907H37.377V76.4563C37.377 76.6415 37.4039 76.7803 37.4576 76.8729C37.5131 76.9636 37.5835 77.0247 37.6686 77.0562C37.7556 77.0858 37.8473 77.1006 37.9435 77.1006C38.0157 77.1006 38.075 77.0969 38.1213 77.0895C38.1676 77.0802 38.2046 77.0728 38.2324 77.0673L38.3657 77.656C38.3212 77.6727 38.2592 77.6893 38.1796 77.706C38.1 77.7245 37.9991 77.7338 37.8769 77.7338C37.6918 77.7338 37.5103 77.694 37.3326 77.6144C37.1567 77.5347 37.0104 77.4135 36.8938 77.2506C36.779 77.0876 36.7216 76.8821 36.7216 76.634V72.3907ZM40.9773 77.7671C40.5663 77.7671 40.2117 77.6764 39.9137 77.4949C39.6174 77.3116 39.3888 77.0562 39.2277 76.7285C39.0685 76.3989 38.9889 76.0157 38.9889 75.5788C38.9889 75.1418 39.0685 74.7567 39.2277 74.4235C39.3888 74.0884 39.6128 73.8274 39.8998 73.6404C40.1886 73.4515 40.5255 73.3571 40.9106 73.3571C41.1328 73.3571 41.3522 73.3941 41.5688 73.4682C41.7854 73.5422 41.9826 73.6626 42.1603 73.8292C42.338 73.994 42.4797 74.2124 42.5852 74.4846C42.6907 74.7567 42.7435 75.0918 42.7435 75.4899V75.7676H39.4554V75.2011H42.077C42.077 74.9604 42.0289 74.7456 41.9326 74.5568C41.8382 74.368 41.703 74.2189 41.5271 74.1097C41.3531 74.0005 41.1476 73.9458 40.9106 73.9458C40.6496 73.9458 40.4237 74.0106 40.233 74.1402C40.0442 74.268 39.8988 74.4346 39.797 74.6401C39.6952 74.8456 39.6443 75.0659 39.6443 75.3011V75.6787C39.6443 76.0009 39.6998 76.274 39.8109 76.498C39.9238 76.7201 40.0803 76.8895 40.2802 77.0062C40.4802 77.121 40.7125 77.1784 40.9773 77.1784C41.1494 77.1784 41.305 77.1543 41.4438 77.1061C41.5845 77.0562 41.7058 76.9821 41.8076 76.884C41.9094 76.784 41.9881 76.66 42.0437 76.5119L42.6768 76.6896C42.6102 76.9043 42.4982 77.0932 42.3408 77.2561C42.1834 77.4172 41.989 77.5431 41.7576 77.6338C41.5262 77.7227 41.2661 77.7671 40.9773 77.7671ZM43.7014 77.6782V73.4126H44.3345V74.0569H44.379C44.4567 73.8459 44.5974 73.6746 44.8011 73.5432C45.0047 73.4117 45.2343 73.346 45.4898 73.346C45.5379 73.346 45.5981 73.3469 45.6703 73.3488C45.7425 73.3506 45.7971 73.3534 45.8341 73.3571V74.0236C45.8119 74.018 45.761 74.0097 45.6814 73.9986C45.6036 73.9856 45.5213 73.9792 45.4342 73.9792C45.2269 73.9792 45.0417 74.0227 44.8788 74.1097C44.7178 74.1949 44.59 74.3133 44.4956 74.4652C44.403 74.6151 44.3567 74.7864 44.3567 74.9789V77.6782H43.7014ZM50.5873 73.4126V73.9681H48.3768V73.4126H50.5873ZM49.0211 72.3907H49.6765V76.4563C49.6765 76.6415 49.7033 76.7803 49.757 76.8729C49.8125 76.9636 49.8829 77.0247 49.9681 77.0562C50.0551 77.0858 50.1467 77.1006 50.243 77.1006C50.3152 77.1006 50.3744 77.0969 50.4207 77.0895C50.467 77.0802 50.504 77.0728 50.5318 77.0673L50.6651 77.656C50.6207 77.6727 50.5586 77.6893 50.479 77.706C50.3994 77.7245 50.2985 77.7338 50.1763 77.7338C49.9912 77.7338 49.8098 77.694 49.632 77.6144C49.4561 77.5347 49.3099 77.4135 49.1933 77.2506C49.0785 77.0876 49.0211 76.8821 49.0211 76.634V72.3907ZM52.7893 77.7782C52.519 77.7782 52.2737 77.7273 52.0534 77.6255C51.8331 77.5218 51.6581 77.3727 51.5285 77.1784C51.3989 76.9821 51.3342 76.7451 51.3342 76.4674C51.3342 76.223 51.3823 76.0249 51.4786 75.8731C51.5748 75.7195 51.7035 75.5991 51.8646 75.5121C52.0256 75.4251 52.2034 75.3603 52.3978 75.3177C52.594 75.2733 52.7912 75.2381 52.9893 75.2122C53.2485 75.1789 53.4586 75.1539 53.6197 75.1372C53.7826 75.1187 53.9011 75.0881 53.9751 75.0456C54.0511 75.003 54.089 74.9289 54.089 74.8234V74.8012C54.089 74.5272 54.014 74.3143 53.8641 74.1625C53.716 74.0106 53.491 73.9347 53.1892 73.9347C52.8764 73.9347 52.631 74.0032 52.4533 74.1402C52.2756 74.2772 52.1506 74.4235 52.0784 74.579L51.4563 74.3568C51.5674 74.0977 51.7155 73.8959 51.9007 73.7514C52.0877 73.6052 52.2913 73.5034 52.5116 73.446C52.7338 73.3867 52.9523 73.3571 53.167 73.3571C53.304 73.3571 53.4614 73.3738 53.6391 73.4071C53.8187 73.4386 53.9918 73.5043 54.1584 73.6043C54.3269 73.7042 54.4667 73.8551 54.5778 74.0569C54.6889 74.2587 54.7444 74.529 54.7444 74.8678V77.6782H54.089V77.1006H54.0557C54.0112 77.1932 53.9372 77.2922 53.8335 77.3977C53.7298 77.5033 53.5919 77.5931 53.4197 77.6671C53.2476 77.7412 53.0374 77.7782 52.7893 77.7782ZM52.8893 77.1895C53.1485 77.1895 53.367 77.1385 53.5447 77.0367C53.7243 76.9349 53.8594 76.8034 53.9502 76.6424C54.0427 76.4813 54.089 76.3119 54.089 76.1342V75.5343C54.0612 75.5677 54.0001 75.5982 53.9057 75.626C53.8131 75.6519 53.7058 75.675 53.5836 75.6954C53.4632 75.7139 53.3457 75.7306 53.2309 75.7454C53.118 75.7583 53.0263 75.7695 52.956 75.7787C52.7856 75.8009 52.6264 75.837 52.4783 75.887C52.332 75.9351 52.2136 76.0083 52.1228 76.1064C52.034 76.2027 51.9895 76.3341 51.9895 76.5007C51.9895 76.7285 52.0738 76.9006 52.2423 77.0173C52.4126 77.1321 52.6283 77.1895 52.8893 77.1895ZM58.923 74.368L58.3342 74.5346C58.2972 74.4365 58.2426 74.3411 58.1704 74.2485C58.1 74.1541 58.0038 74.0764 57.8816 74.0153C57.7594 73.9542 57.6029 73.9236 57.4122 73.9236C57.1512 73.9236 56.9337 73.9838 56.7596 74.1041C56.5874 74.2226 56.5014 74.3735 56.5014 74.5568C56.5014 74.7197 56.5606 74.8484 56.6791 74.9428C56.7976 75.0372 56.9827 75.1159 57.2345 75.1789L57.8677 75.3344C58.2491 75.4269 58.5332 75.5686 58.7202 75.7593C58.9072 75.9481 59.0007 76.1916 59.0007 76.4896C59.0007 76.734 58.9304 76.9525 58.7897 77.145C58.6508 77.3376 58.4564 77.4894 58.2065 77.6005C57.9565 77.7115 57.6659 77.7671 57.3345 77.7671C56.8994 77.7671 56.5393 77.6727 56.2542 77.4838C55.9691 77.295 55.7886 77.0191 55.7127 76.6563L56.3347 76.5007C56.394 76.7303 56.506 76.9025 56.6708 77.0173C56.8374 77.1321 57.0549 77.1895 57.3234 77.1895C57.6288 77.1895 57.8714 77.1247 58.051 76.9951C58.2324 76.8636 58.3231 76.7062 58.3231 76.523C58.3231 76.3749 58.2713 76.2508 58.1676 76.1508C58.0639 76.049 57.9047 75.9731 57.6899 75.9231L56.979 75.7565C56.5884 75.6639 56.3014 75.5204 56.1181 75.326C55.9367 75.1298 55.846 74.8845 55.846 74.5901C55.846 74.3494 55.9135 74.1365 56.0487 73.9514C56.1857 73.7663 56.3718 73.6209 56.6069 73.5154C56.8439 73.4099 57.1123 73.3571 57.4122 73.3571C57.8344 73.3571 58.1657 73.4497 58.4064 73.6348C58.649 73.8199 58.8211 74.0643 58.923 74.368ZM60.5591 76.1231L60.548 75.3122H60.6813L62.5475 73.4126H63.3584L61.37 75.4232H61.3145L60.5591 76.1231ZM59.9482 77.6782V71.9908H60.6036V77.6782H59.9482ZM62.6586 77.6782L60.9924 75.5677L61.4589 75.1122L63.4917 77.6782H62.6586ZM68.1783 73.4126V73.9681H65.9677V73.4126H68.1783ZM66.612 72.3907H67.2674V76.4563C67.2674 76.6415 67.2942 76.7803 67.3479 76.8729C67.4035 76.9636 67.4738 77.0247 67.559 77.0562C67.646 77.0858 67.7376 77.1006 67.8339 77.1006C67.9061 77.1006 67.9654 77.0969 68.0116 77.0895C68.0579 77.0802 68.095 77.0728 68.1227 77.0673L68.256 77.656C68.2116 77.6727 68.1496 77.6893 68.07 77.706C67.9903 77.7245 67.8894 77.7338 67.7673 77.7338C67.5821 77.7338 67.4007 77.694 67.223 77.6144C67.0471 77.5347 66.9008 77.4135 66.7842 77.2506C66.6694 77.0876 66.612 76.8821 66.612 76.634V72.3907ZM69.125 77.6782V73.4126H69.7804V77.6782H69.125ZM69.4583 72.7017C69.3305 72.7017 69.2204 72.6582 69.1278 72.5712C69.0371 72.4842 68.9917 72.3796 68.9917 72.2574C68.9917 72.1352 69.0371 72.0306 69.1278 71.9436C69.2204 71.8566 69.3305 71.8131 69.4583 71.8131C69.586 71.8131 69.6952 71.8566 69.786 71.9436C69.8785 72.0306 69.9248 72.1352 69.9248 72.2574C69.9248 72.3796 69.8785 72.4842 69.786 72.5712C69.6952 72.6582 69.586 72.7017 69.4583 72.7017ZM72.7968 73.4126V73.9681H70.5862V73.4126H72.7968ZM71.2305 72.3907H71.8859V76.4563C71.8859 76.6415 71.9127 76.7803 71.9664 76.8729C72.022 76.9636 72.0923 77.0247 72.1775 77.0562C72.2645 77.0858 72.3562 77.1006 72.4524 77.1006C72.5246 77.1006 72.5839 77.0969 72.6302 77.0895C72.6764 77.0802 72.7135 77.0728 72.7412 77.0673L72.8745 77.656C72.8301 77.6727 72.7681 77.6893 72.6885 77.706C72.6089 77.7245 72.508 77.7338 72.3858 77.7338C72.2006 77.7338 72.0192 77.694 71.8415 77.6144C71.6656 77.5347 71.5193 77.4135 71.4027 77.2506C71.2879 77.0876 71.2305 76.8821 71.2305 76.634V72.3907ZM74.4906 71.9908V77.6782H73.8352V71.9908H74.4906ZM77.4403 77.7671C77.0293 77.7671 76.6747 77.6764 76.3767 77.4949C76.0805 77.3116 75.8518 77.0562 75.6907 76.7285C75.5315 76.3989 75.4519 76.0157 75.4519 75.5788C75.4519 75.1418 75.5315 74.7567 75.6907 74.4235C75.8518 74.0884 76.0758 73.8274 76.3628 73.6404C76.6516 73.4515 76.9886 73.3571 77.3736 73.3571C77.5958 73.3571 77.8152 73.3941 78.0318 73.4682C78.2484 73.5422 78.4456 73.6626 78.6233 73.8292C78.8011 73.994 78.9427 74.2124 79.0482 74.4846C79.1537 74.7567 79.2065 75.0918 79.2065 75.4899V75.7676H75.9185V75.2011H78.54C78.54 74.9604 78.4919 74.7456 78.3956 74.5568C78.3012 74.368 78.166 74.2189 77.9901 74.1097C77.8161 74.0005 77.6106 73.9458 77.3736 73.9458C77.1126 73.9458 76.8867 74.0106 76.696 74.1402C76.5072 74.268 76.3619 74.4346 76.26 74.6401C76.1582 74.8456 76.1073 75.0659 76.1073 75.3011V75.6787C76.1073 76.0009 76.1628 76.274 76.2739 76.498C76.3869 76.7201 76.5433 76.8895 76.7432 77.0062C76.9432 77.121 77.1755 77.1784 77.4403 77.1784C77.6125 77.1784 77.768 77.1543 77.9068 77.1061C78.0475 77.0562 78.1688 76.9821 78.2706 76.884C78.3725 76.784 78.4511 76.66 78.5067 76.5119L79.1399 76.6896C79.0732 76.9043 78.9612 77.0932 78.8038 77.2561C78.6465 77.4172 78.4521 77.5431 78.2206 77.6338C77.9892 77.7227 77.7291 77.7671 77.4403 77.7671Z" fill="#98A2B3"/>
<path d="M254.427 78.1C252.537 78.1 251.006 76.5682 251.006 74.6787C251.006 72.7891 252.537 71.2573 254.427 71.2573C256.317 71.2573 257.848 72.7891 257.848 74.6787C257.848 76.5682 256.317 78.1 254.427 78.1ZM254.427 78.5888C256.586 78.5888 258.337 76.8382 258.337 74.6787C258.337 72.5192 256.586 70.7686 254.427 70.7686C252.267 70.7686 250.517 72.5192 250.517 74.6787C250.517 76.8382 252.267 78.5888 254.427 78.5888Z" fill="#98A2B3"/>
<path d="M253.085 73.5966C253.082 73.6632 253.137 73.7171 253.203 73.7171H253.606C253.674 73.7171 253.727 73.6621 253.736 73.5952C253.78 73.2745 254 73.0408 254.392 73.0408C254.727 73.0408 255.035 73.2083 255.035 73.6116C255.035 73.9219 254.852 74.0646 254.563 74.2818C254.234 74.5207 253.974 74.7999 253.992 75.2529L253.994 75.3588C253.995 75.4257 254.049 75.4794 254.116 75.4794H254.512C254.58 75.4794 254.634 75.4246 254.634 75.3572V75.3056C254.634 74.955 254.768 74.8526 255.128 74.5796C255.425 74.3531 255.736 74.1018 255.736 73.5744C255.736 72.836 255.112 72.4792 254.43 72.4792C253.81 72.4792 253.132 72.7679 253.085 73.5966ZM253.846 76.4132C253.846 76.6738 254.054 76.8662 254.34 76.8662C254.637 76.8662 254.842 76.6738 254.842 76.4132C254.842 76.1433 254.637 75.954 254.34 75.954C254.054 75.954 253.846 76.1433 253.846 76.4132Z" fill="#98A2B3"/>
<path d="M21.9781 101.386H20.367V96.4097H22.0291C22.5167 96.4097 22.9355 96.5094 23.2854 96.7086C23.6353 96.9062 23.9034 97.1905 24.0897 97.5615C24.2776 97.9309 24.3716 98.3739 24.3716 98.8907C24.3716 99.4091 24.2768 99.8546 24.0873 100.227C23.8994 100.6 23.6272 100.886 23.2708 101.087C22.9144 101.287 22.4835 101.386 21.9781 101.386ZM21.1179 100.73H21.9368C22.3159 100.73 22.6309 100.659 22.882 100.516C23.1331 100.372 23.321 100.164 23.4458 99.8918C23.5705 99.618 23.6329 99.2843 23.6329 98.8907C23.6329 98.5003 23.5705 98.169 23.4458 97.8968C23.3227 97.6247 23.1388 97.4181 22.8942 97.2772C22.6496 97.1363 22.3458 97.0658 21.983 97.0658H21.1179V100.73ZM26.924 101.462C26.5563 101.462 26.2396 101.383 25.9739 101.226C25.7099 101.067 25.5057 100.844 25.3616 100.558C25.219 100.269 25.1477 99.9315 25.1477 99.5443C25.1477 99.162 25.219 98.8251 25.3616 98.5335C25.5057 98.2419 25.7066 98.0143 25.9642 97.8507C26.2234 97.6871 26.5263 97.6053 26.873 97.6053C27.0836 97.6053 27.2877 97.6401 27.4853 97.7097C27.683 97.7794 27.8603 97.8887 28.0175 98.0378C28.1746 98.1868 28.2985 98.3804 28.3893 98.6185C28.48 98.855 28.5253 99.1426 28.5253 99.4812V99.7387H25.5584V99.1944H27.8134C27.8134 99.0033 27.7745 98.834 27.6967 98.6866C27.619 98.5375 27.5096 98.4201 27.3687 98.3342C27.2294 98.2484 27.0658 98.2054 26.8778 98.2054C26.6737 98.2054 26.4955 98.2557 26.3433 98.3561C26.1926 98.4549 26.076 98.5845 25.9933 98.7449C25.9123 98.9036 25.8718 99.0762 25.8718 99.2625V99.6877C25.8718 99.9372 25.9156 100.149 26.0031 100.324C26.0922 100.499 26.2161 100.633 26.3748 100.725C26.5336 100.816 26.7191 100.861 26.9313 100.861C27.069 100.861 27.1945 100.842 27.3079 100.803C27.4213 100.763 27.5193 100.703 27.602 100.623C27.6846 100.544 27.7478 100.446 27.7915 100.329L28.4792 100.453C28.4241 100.656 28.3253 100.833 28.1827 100.985C28.0418 101.136 27.8644 101.253 27.6506 101.338C27.4383 101.42 27.1962 101.462 26.924 101.462ZM32.1967 98.5651L31.5382 98.6817C31.5107 98.5975 31.467 98.5173 31.407 98.4411C31.3487 98.365 31.2693 98.3026 31.1689 98.254C31.0684 98.2054 30.9429 98.1811 30.7922 98.1811C30.5865 98.1811 30.4148 98.2273 30.2771 98.3197C30.1394 98.4104 30.0706 98.5278 30.0706 98.672C30.0706 98.7967 30.1167 98.8972 30.2091 98.9733C30.3014 99.0494 30.4504 99.1118 30.6562 99.1604L31.2491 99.2965C31.5925 99.3759 31.8485 99.4982 32.0169 99.6634C32.1854 99.8286 32.2696 100.043 32.2696 100.307C32.2696 100.531 32.2048 100.73 32.0753 100.905C31.9473 101.078 31.7683 101.215 31.5382 101.313C31.3098 101.412 31.045 101.462 30.7436 101.462C30.3257 101.462 29.9847 101.372 29.7206 101.194C29.4566 101.014 29.2946 100.759 29.2347 100.429L29.9369 100.322C29.9806 100.505 30.0706 100.643 30.2066 100.737C30.3427 100.83 30.5201 100.876 30.7388 100.876C30.9769 100.876 31.1673 100.827 31.3098 100.728C31.4524 100.627 31.5237 100.505 31.5237 100.361C31.5237 100.244 31.4799 100.146 31.3924 100.067C31.3066 99.9874 31.1746 99.9275 30.9964 99.887L30.3646 99.7485C30.0163 99.6691 29.7587 99.5427 29.5919 99.3694C29.4266 99.196 29.344 98.9765 29.344 98.7109C29.344 98.4906 29.4056 98.2978 29.5287 98.1325C29.6518 97.9673 29.8219 97.8385 30.039 97.7462C30.256 97.6522 30.5047 97.6053 30.785 97.6053C31.1883 97.6053 31.5058 97.6927 31.7375 97.8677C31.9691 98.041 32.1222 98.2735 32.1967 98.5651ZM34.7091 101.462C34.3478 101.462 34.0368 101.38 33.776 101.216C33.5168 101.051 33.3175 100.823 33.1782 100.533C33.0389 100.243 32.9692 99.9113 32.9692 99.537C32.9692 99.158 33.0405 98.8235 33.1831 98.5335C33.3256 98.2419 33.5265 98.0143 33.7857 97.8507C34.0449 97.6871 34.3503 97.6053 34.7018 97.6053C34.9853 97.6053 35.238 97.6579 35.4599 97.7632C35.6819 97.8669 35.8609 98.0127 35.9969 98.2006C36.1346 98.3885 36.2165 98.608 36.2424 98.8591H35.5353C35.4964 98.6841 35.4073 98.5335 35.268 98.4071C35.1303 98.2808 34.9456 98.2176 34.7139 98.2176C34.5114 98.2176 34.3341 98.2711 34.1818 98.378C34.0311 98.4833 33.9137 98.6339 33.8294 98.8299C33.7452 99.0243 33.7031 99.2544 33.7031 99.52C33.7031 99.7922 33.7444 100.027 33.827 100.225C33.9096 100.422 34.0263 100.575 34.1769 100.684C34.3292 100.793 34.5082 100.847 34.7139 100.847C34.8516 100.847 34.9764 100.822 35.0882 100.771C35.2015 100.72 35.2963 100.646 35.3725 100.55C35.4502 100.455 35.5045 100.34 35.5353 100.205H36.2424C36.2165 100.447 36.1379 100.662 36.0067 100.852C35.8755 101.041 35.6997 101.19 35.4794 101.299C35.2607 101.407 35.0039 101.462 34.7091 101.462ZM37.0878 101.386V97.6539H37.79V98.2468H37.8289C37.8969 98.0459 38.0168 97.8879 38.1885 97.7729C38.3619 97.6563 38.5579 97.598 38.7766 97.598C38.8219 97.598 38.8754 97.5996 38.937 97.6028C39.0001 97.6061 39.0495 97.6101 39.0852 97.615V98.3099C39.056 98.3018 39.0042 98.2929 38.9297 98.2832C38.8551 98.2719 38.7806 98.2662 38.7061 98.2662C38.5344 98.2662 38.3813 98.3026 38.2468 98.3755C38.114 98.4468 38.0087 98.5464 37.931 98.6744C37.8532 98.8008 37.8143 98.945 37.8143 99.107V101.386H37.0878ZM39.7823 101.386V97.6539H40.5089V101.386H39.7823ZM40.1493 97.078C40.0229 97.078 39.9144 97.0358 39.8237 96.9516C39.7346 96.8657 39.69 96.7637 39.69 96.6454C39.69 96.5256 39.7346 96.4235 39.8237 96.3393C39.9144 96.2534 40.0229 96.2105 40.1493 96.2105C40.2756 96.2105 40.3834 96.2534 40.4725 96.3393C40.5632 96.4235 40.6085 96.5256 40.6085 96.6454C40.6085 96.7637 40.5632 96.8657 40.4725 96.9516C40.3834 97.0358 40.2756 97.078 40.1493 97.078ZM41.5548 102.786V97.6539H42.2643V98.2589H42.3251C42.3672 98.1811 42.4279 98.0912 42.5073 97.9892C42.5867 97.8871 42.6968 97.798 42.8378 97.7219C42.9787 97.6441 43.165 97.6053 43.3967 97.6053C43.698 97.6053 43.9669 97.6814 44.2034 97.8337C44.4399 97.9859 44.6254 98.2054 44.7599 98.4922C44.8959 98.7789 44.964 99.124 44.964 99.5273C44.964 99.9307 44.8967 100.277 44.7623 100.565C44.6278 100.852 44.4432 101.073 44.2083 101.228C43.9734 101.382 43.7053 101.459 43.4039 101.459C43.1772 101.459 42.9917 101.421 42.8475 101.345C42.7049 101.269 42.5932 101.18 42.5122 101.078C42.4312 100.976 42.3688 100.885 42.3251 100.805H42.2813V102.786H41.5548ZM42.2667 99.52C42.2667 99.7825 42.3048 100.013 42.3809 100.21C42.4571 100.408 42.5672 100.562 42.7114 100.674C42.8556 100.784 43.0322 100.839 43.2411 100.839C43.4582 100.839 43.6397 100.782 43.7854 100.667C43.9312 100.55 44.0414 100.392 44.1159 100.193C44.1921 99.9939 44.2301 99.7695 44.2301 99.52C44.2301 99.2738 44.1929 99.0527 44.1183 98.8567C44.0455 98.6607 43.9353 98.5059 43.7879 98.3926C43.6421 98.2792 43.4598 98.2225 43.2411 98.2225C43.0305 98.2225 42.8524 98.2767 42.7066 98.3853C42.5624 98.4938 42.453 98.6453 42.3785 98.8397C42.304 99.0341 42.2667 99.2608 42.2667 99.52ZM47.5887 97.6539V98.237H45.55V97.6539H47.5887ZM46.0967 96.7596H46.8233V100.29C46.8233 100.431 46.8443 100.537 46.8864 100.609C46.9286 100.678 46.9828 100.726 47.0492 100.752C47.1173 100.776 47.191 100.788 47.2704 100.788C47.3287 100.788 47.3797 100.784 47.4235 100.776C47.4672 100.768 47.5012 100.762 47.5255 100.757L47.6567 101.357C47.6146 101.373 47.5547 101.389 47.4769 101.406C47.3992 101.423 47.302 101.433 47.1853 101.435C46.9942 101.438 46.816 101.404 46.6507 101.333C46.4855 101.261 46.3518 101.151 46.2498 101.002C46.1477 100.853 46.0967 100.666 46.0967 100.441V96.7596ZM48.4608 101.386V97.6539H49.1874V101.386H48.4608ZM48.8277 97.078C48.7014 97.078 48.5928 97.0358 48.5021 96.9516C48.413 96.8657 48.3685 96.7637 48.3685 96.6454C48.3685 96.5256 48.413 96.4235 48.5021 96.3393C48.5928 96.2534 48.7014 96.2105 48.8277 96.2105C48.9541 96.2105 49.0618 96.2534 49.1509 96.3393C49.2416 96.4235 49.287 96.5256 49.287 96.6454C49.287 96.7637 49.2416 96.8657 49.1509 96.9516C49.0618 97.0358 48.9541 97.078 48.8277 97.078ZM51.8054 101.462C51.4555 101.462 51.1501 101.381 50.8893 101.221C50.6285 101.061 50.426 100.836 50.2818 100.548C50.1377 100.26 50.0656 99.9226 50.0656 99.537C50.0656 99.1499 50.1377 98.8113 50.2818 98.5213C50.426 98.2314 50.6285 98.0062 50.8893 97.8458C51.1501 97.6854 51.4555 97.6053 51.8054 97.6053C52.1553 97.6053 52.4607 97.6854 52.7215 97.8458C52.9823 98.0062 53.1848 98.2314 53.329 98.5213C53.4731 98.8113 53.5452 99.1499 53.5452 99.537C53.5452 99.9226 53.4731 100.26 53.329 100.548C53.1848 100.836 52.9823 101.061 52.7215 101.221C52.4607 101.381 52.1553 101.462 51.8054 101.462ZM51.8078 100.852C52.0346 100.852 52.2225 100.792 52.3716 100.672C52.5206 100.552 52.6308 100.392 52.702 100.193C52.7749 99.9939 52.8114 99.7744 52.8114 99.5346C52.8114 99.2965 52.7749 99.0778 52.702 98.8785C52.6308 98.6777 52.5206 98.5165 52.3716 98.395C52.2225 98.2735 52.0346 98.2127 51.8078 98.2127C51.5794 98.2127 51.3899 98.2735 51.2392 98.395C51.0902 98.5165 50.9792 98.6777 50.9063 98.8785C50.835 99.0778 50.7994 99.2965 50.7994 99.5346C50.7994 99.7744 50.835 99.9939 50.9063 100.193C50.9792 100.392 51.0902 100.552 51.2392 100.672C51.3899 100.792 51.5794 100.852 51.8078 100.852ZM55.1512 99.1701V101.386H54.4247V97.6539H55.122V98.2613H55.1682C55.2541 98.0637 55.3885 97.9049 55.5716 97.7851C55.7563 97.6652 55.9887 97.6053 56.269 97.6053C56.5233 97.6053 56.746 97.6587 56.9372 97.7656C57.1284 97.8709 57.2766 98.0281 57.3819 98.237C57.4872 98.446 57.5398 98.7044 57.5398 99.0122V101.386H56.8133V99.0997C56.8133 98.8291 56.7428 98.6177 56.6019 98.4654C56.4609 98.3116 56.2674 98.2346 56.0211 98.2346C55.8526 98.2346 55.7028 98.2711 55.5716 98.344C55.442 98.4168 55.3391 98.5238 55.263 98.6647C55.1885 98.804 55.1512 98.9725 55.1512 99.1701Z" fill="#475467"/>
<rect x="20.0647" y="107.563" width="244.871" height="73.5562" rx="1.71067" fill="white"/>
<rect x="20.0647" y="107.563" width="244.871" height="73.5562" rx="1.71067" stroke="#D0D5DD" stroke-width="0.488764"/>
<path d="M27.3516 122.184V116.496H30.784V117.107H28.0403V119.029H30.6063V119.64H28.0403V121.573H30.8284V122.184H27.3516ZM32.5919 119.618V122.184H31.9365V117.918H32.5697V118.585H32.6252C32.7252 118.368 32.877 118.194 33.0806 118.062C33.2843 117.929 33.5472 117.862 33.8693 117.862C34.1581 117.862 34.4109 117.922 34.6275 118.04C34.8441 118.157 35.0126 118.335 35.1329 118.573C35.2532 118.81 35.3134 119.11 35.3134 119.473V122.184H34.658V119.518C34.658 119.183 34.571 118.921 34.397 118.734C34.2229 118.546 33.9841 118.451 33.6805 118.451C33.4713 118.451 33.2843 118.497 33.1195 118.587C32.9566 118.678 32.8279 118.81 32.7335 118.984C32.6391 119.158 32.5919 119.369 32.5919 119.618ZM38.3661 117.918V118.473H36.1556V117.918H38.3661ZM36.7998 116.896H37.4552V120.962C37.4552 121.147 37.4821 121.286 37.5358 121.378C37.5913 121.469 37.6617 121.53 37.7468 121.562C37.8338 121.591 37.9255 121.606 38.0217 121.606C38.0939 121.606 38.1532 121.602 38.1995 121.595C38.2458 121.586 38.2828 121.578 38.3106 121.573L38.4439 122.161C38.3994 122.178 38.3374 122.195 38.2578 122.211C38.1782 122.23 38.0773 122.239 37.9551 122.239C37.77 122.239 37.5885 122.199 37.4108 122.12C37.2349 122.04 37.0887 121.919 36.972 121.756C36.8572 121.593 36.7998 121.388 36.7998 121.139V116.896ZM41.0946 122.272C40.6836 122.272 40.329 122.182 40.031 122C39.7347 121.817 39.5061 121.562 39.345 121.234C39.1858 120.904 39.1062 120.521 39.1062 120.084C39.1062 119.647 39.1858 119.262 39.345 118.929C39.5061 118.594 39.7301 118.333 40.0171 118.146C40.3059 117.957 40.6428 117.862 41.0279 117.862C41.2501 117.862 41.4695 117.9 41.6861 117.974C41.9027 118.048 42.0999 118.168 42.2776 118.335C42.4553 118.499 42.597 118.718 42.7025 118.99C42.808 119.262 42.8608 119.597 42.8608 119.995V120.273H39.5727V119.706H42.1943C42.1943 119.466 42.1462 119.251 42.0499 119.062C41.9555 118.873 41.8203 118.724 41.6444 118.615C41.4704 118.506 41.2649 118.451 41.0279 118.451C40.7669 118.451 40.541 118.516 40.3503 118.646C40.1615 118.773 40.0161 118.94 39.9143 119.145C39.8125 119.351 39.7616 119.571 39.7616 119.806V120.184C39.7616 120.506 39.8171 120.779 39.9282 121.003C40.0411 121.226 40.1976 121.395 40.3975 121.512C40.5975 121.626 40.8298 121.684 41.0946 121.684C41.2668 121.684 41.4223 121.66 41.5611 121.612C41.7018 121.562 41.8231 121.487 41.9249 121.389C42.0267 121.289 42.1054 121.165 42.161 121.017L42.7941 121.195C42.7275 121.41 42.6155 121.599 42.4581 121.761C42.3007 121.923 42.1064 122.048 41.8749 122.139C41.6435 122.228 41.3834 122.272 41.0946 122.272ZM43.8578 122.184V117.918H44.4909V118.562H44.5354C44.6131 118.351 44.7538 118.18 44.9575 118.049C45.1611 117.917 45.3907 117.851 45.6462 117.851C45.6943 117.851 45.7545 117.852 45.8267 117.854C45.8989 117.856 45.9535 117.859 45.9905 117.862V118.529C45.9683 118.523 45.9174 118.515 45.8378 118.504C45.76 118.491 45.6777 118.485 45.5906 118.485C45.3833 118.485 45.1982 118.528 45.0352 118.615C44.8742 118.7 44.7464 118.819 44.652 118.971C44.5594 119.12 44.5131 119.292 44.5131 119.484V122.184H43.8578ZM50.2221 122.284C49.9518 122.284 49.7065 122.233 49.4862 122.131C49.2659 122.027 49.0909 121.878 48.9613 121.684C48.8317 121.487 48.7669 121.25 48.7669 120.973C48.7669 120.728 48.8151 120.53 48.9113 120.378C49.0076 120.225 49.1363 120.104 49.2973 120.017C49.4584 119.93 49.6361 119.866 49.8305 119.823C50.0268 119.779 50.224 119.743 50.4221 119.718C50.6812 119.684 50.8914 119.659 51.0524 119.643C51.2154 119.624 51.3339 119.594 51.4079 119.551C51.4838 119.508 51.5218 119.434 51.5218 119.329V119.307C51.5218 119.033 51.4468 118.82 51.2968 118.668C51.1487 118.516 50.9238 118.44 50.622 118.44C50.3091 118.44 50.0638 118.509 49.8861 118.646C49.7083 118.783 49.5834 118.929 49.5112 119.084L48.8891 118.862C49.0002 118.603 49.1483 118.401 49.3334 118.257C49.5204 118.111 49.7241 118.009 49.9444 117.951C50.1666 117.892 50.385 117.862 50.5998 117.862C50.7368 117.862 50.8942 117.879 51.0719 117.912C51.2515 117.944 51.4246 118.01 51.5912 118.11C51.7597 118.21 51.8995 118.36 52.0105 118.562C52.1216 118.764 52.1772 119.034 52.1772 119.373V122.184H51.5218V121.606H51.4884C51.444 121.699 51.37 121.798 51.2663 121.903C51.1626 122.009 51.0247 122.098 50.8525 122.172C50.6803 122.247 50.4702 122.284 50.2221 122.284ZM50.3221 121.695C50.5813 121.695 50.7997 121.644 50.9775 121.542C51.157 121.44 51.2922 121.309 51.3829 121.148C51.4755 120.987 51.5218 120.817 51.5218 120.64V120.04C51.494 120.073 51.4329 120.104 51.3385 120.131C51.2459 120.157 51.1385 120.18 51.0163 120.201C50.896 120.219 50.7784 120.236 50.6637 120.251C50.5507 120.264 50.4591 120.275 50.3887 120.284C50.2184 120.306 50.0592 120.342 49.9111 120.392C49.7648 120.441 49.6463 120.514 49.5556 120.612C49.4667 120.708 49.4223 120.839 49.4223 121.006C49.4223 121.234 49.5065 121.406 49.675 121.523C49.8453 121.637 50.061 121.695 50.3221 121.695ZM57.1835 122.272C56.8281 122.272 56.5142 122.183 56.2421 122.003C55.9699 121.822 55.757 121.566 55.6034 121.237C55.4497 120.905 55.3729 120.514 55.3729 120.062C55.3729 119.614 55.4497 119.225 55.6034 118.896C55.757 118.566 55.9709 118.311 56.2449 118.132C56.5189 117.952 56.8355 117.862 57.1946 117.862C57.4723 117.862 57.6917 117.909 57.8528 118.001C58.0157 118.092 58.1398 118.196 58.2249 118.312C58.3119 118.427 58.3795 118.522 58.4276 118.596H58.4832V116.496H59.1386V122.184H58.5054V121.528H58.4276C58.3795 121.606 58.311 121.704 58.2221 121.823C58.1333 121.939 58.0065 122.044 57.8417 122.136C57.6769 122.227 57.4575 122.272 57.1835 122.272ZM57.2724 121.684C57.5353 121.684 57.7574 121.615 57.9389 121.478C58.1203 121.339 58.2582 121.148 58.3527 120.903C58.4471 120.657 58.4943 120.373 58.4943 120.051C58.4943 119.732 58.448 119.454 58.3554 119.215C58.2629 118.974 58.1259 118.787 57.9444 118.654C57.763 118.519 57.539 118.451 57.2724 118.451C56.9947 118.451 56.7633 118.522 56.5781 118.665C56.3948 118.806 56.2569 118.997 56.1643 119.24C56.0736 119.481 56.0283 119.751 56.0283 120.051C56.0283 120.354 56.0745 120.63 56.1671 120.878C56.2615 121.125 56.4004 121.321 56.5837 121.467C56.7688 121.612 56.9984 121.684 57.2724 121.684ZM62.2183 122.272C61.8073 122.272 61.4528 122.182 61.1547 122C60.8585 121.817 60.6299 121.562 60.4688 121.234C60.3096 120.904 60.23 120.521 60.23 120.084C60.23 119.647 60.3096 119.262 60.4688 118.929C60.6299 118.594 60.8539 118.333 61.1408 118.146C61.4297 117.957 61.7666 117.862 62.1517 117.862C62.3739 117.862 62.5932 117.9 62.8099 117.974C63.0265 118.048 63.2236 118.168 63.4014 118.335C63.5791 118.499 63.7207 118.718 63.8263 118.99C63.9318 119.262 63.9846 119.597 63.9846 119.995V120.273H60.6965V119.706H63.3181C63.3181 119.466 63.2699 119.251 63.1737 119.062C63.0792 118.873 62.9441 118.724 62.7682 118.615C62.5942 118.506 62.3887 118.451 62.1517 118.451C61.8906 118.451 61.6648 118.516 61.4741 118.646C61.2852 118.773 61.1399 118.94 61.0381 119.145C60.9363 119.351 60.8853 119.571 60.8853 119.806V120.184C60.8853 120.506 60.9409 120.779 61.052 121.003C61.1649 121.226 61.3213 121.395 61.5213 121.512C61.7212 121.626 61.9536 121.684 62.2183 121.684C62.3905 121.684 62.546 121.66 62.6849 121.612C62.8256 121.562 62.9469 121.487 63.0487 121.389C63.1505 121.289 63.2292 121.165 63.2847 121.017L63.9179 121.195C63.8513 121.41 63.7392 121.599 63.5819 121.761C63.4245 121.923 63.2301 122.048 62.9987 122.139C62.7673 122.228 62.5072 122.272 62.2183 122.272ZM68.003 118.873L67.4142 119.04C67.3772 118.942 67.3226 118.846 67.2504 118.754C67.18 118.659 67.0838 118.582 66.9616 118.521C66.8394 118.46 66.6829 118.429 66.4923 118.429C66.2312 118.429 66.0137 118.489 65.8396 118.61C65.6675 118.728 65.5814 118.879 65.5814 119.062C65.5814 119.225 65.6406 119.354 65.7591 119.448C65.8776 119.543 66.0627 119.621 66.3145 119.684L66.9477 119.84C67.3291 119.932 67.6133 120.074 67.8003 120.265C67.9872 120.453 68.0807 120.697 68.0807 120.995C68.0807 121.239 68.0104 121.458 67.8697 121.65C67.7308 121.843 67.5364 121.995 67.2865 122.106C67.0366 122.217 66.7459 122.272 66.4145 122.272C65.9794 122.272 65.6193 122.178 65.3342 121.989C65.0491 121.8 64.8686 121.525 64.7927 121.162L65.4147 121.006C65.474 121.236 65.586 121.408 65.7508 121.523C65.9174 121.637 66.1349 121.695 66.4034 121.695C66.7089 121.695 66.9514 121.63 67.131 121.5C67.3124 121.369 67.4031 121.212 67.4031 121.028C67.4031 120.88 67.3513 120.756 67.2476 120.656C67.1439 120.554 66.9847 120.478 66.77 120.428L66.059 120.262C65.6684 120.169 65.3814 120.026 65.1981 119.831C65.0167 119.635 64.926 119.39 64.926 119.095C64.926 118.855 64.9936 118.642 65.1287 118.457C65.2657 118.272 65.4518 118.126 65.6869 118.021C65.9239 117.915 66.1923 117.862 66.4923 117.862C66.9144 117.862 67.2458 117.955 67.4864 118.14C67.729 118.325 67.9012 118.57 68.003 118.873ZM70.8002 122.272C70.4003 122.272 70.0559 122.178 69.7671 121.989C69.4783 121.8 69.2561 121.54 69.1006 121.209C68.9451 120.877 68.8673 120.499 68.8673 120.073C68.8673 119.64 68.9469 119.257 69.1062 118.926C69.2672 118.593 69.4913 118.333 69.7782 118.146C70.067 117.957 70.404 117.862 70.7891 117.862C71.089 117.862 71.3593 117.918 71.6 118.029C71.8407 118.14 72.0378 118.296 72.1915 118.496C72.3452 118.696 72.4405 118.929 72.4775 119.195H71.8221C71.7722 119.001 71.6611 118.829 71.4889 118.679C71.3186 118.527 71.089 118.451 70.8002 118.451C70.5447 118.451 70.3207 118.518 70.1281 118.651C69.9374 118.783 69.7884 118.969 69.681 119.209C69.5755 119.448 69.5227 119.729 69.5227 120.051C69.5227 120.38 69.5746 120.667 69.6782 120.912C69.7838 121.156 69.9319 121.346 70.1226 121.481C70.3151 121.616 70.541 121.684 70.8002 121.684C70.9705 121.684 71.1251 121.654 71.2639 121.595C71.4028 121.536 71.5204 121.45 71.6166 121.339C71.7129 121.228 71.7814 121.095 71.8221 120.939H72.4775C72.4405 121.191 72.3489 121.418 72.2026 121.62C72.0582 121.82 71.8666 121.979 71.6277 122.098C71.3908 122.214 71.1149 122.272 70.8002 122.272ZM73.4356 122.184V117.918H74.0688V118.562H74.1132C74.191 118.351 74.3317 118.18 74.5353 118.049C74.739 117.917 74.9686 117.851 75.224 117.851C75.2722 117.851 75.3324 117.852 75.4046 117.854C75.4768 117.856 75.5314 117.859 75.5684 117.862V118.529C75.5462 118.523 75.4953 118.515 75.4157 118.504C75.3379 118.491 75.2555 118.485 75.1685 118.485C74.9612 118.485 74.776 118.528 74.6131 118.615C74.452 118.7 74.3243 118.819 74.2299 118.971C74.1373 119.12 74.091 119.292 74.091 119.484V122.184H73.4356ZM76.3453 122.184V117.918H77.0007V122.184H76.3453ZM76.6785 117.207C76.5508 117.207 76.4406 117.164 76.3481 117.077C76.2574 116.99 76.212 116.885 76.212 116.763C76.212 116.641 76.2574 116.536 76.3481 116.449C76.4406 116.362 76.5508 116.318 76.6785 116.318C76.8063 116.318 76.9155 116.362 77.0062 116.449C77.0988 116.536 77.1451 116.641 77.1451 116.763C77.1451 116.885 77.0988 116.99 77.0062 117.077C76.9155 117.164 76.8063 117.207 76.6785 117.207ZM78.2011 123.783V117.918H78.8342V118.596H78.912C78.9601 118.522 79.0268 118.427 79.1119 118.312C79.199 118.196 79.323 118.092 79.4841 118.001C79.647 117.909 79.8673 117.862 80.145 117.862C80.5042 117.862 80.8208 117.952 81.0948 118.132C81.3688 118.311 81.5826 118.566 81.7363 118.896C81.8899 119.225 81.9668 119.614 81.9668 120.062C81.9668 120.514 81.8899 120.905 81.7363 121.237C81.5826 121.566 81.3697 121.822 81.0975 122.003C80.8254 122.183 80.5116 122.272 80.1561 122.272C79.8821 122.272 79.6627 122.227 79.498 122.136C79.3332 122.044 79.2064 121.939 79.1175 121.823C79.0286 121.704 78.9601 121.606 78.912 121.528H78.8565V123.783H78.2011ZM78.8453 120.051C78.8453 120.373 78.8926 120.657 78.987 120.903C79.0814 121.148 79.2193 121.339 79.4008 121.478C79.5822 121.615 79.8044 121.684 80.0673 121.684C80.3413 121.684 80.5699 121.612 80.7532 121.467C80.9383 121.321 81.0772 121.125 81.1698 120.878C81.2642 120.63 81.3114 120.354 81.3114 120.051C81.3114 119.751 81.2651 119.481 81.1725 119.24C81.0818 118.997 80.9439 118.806 80.7587 118.665C80.5755 118.522 80.345 118.451 80.0673 118.451C79.8007 118.451 79.5766 118.519 79.3952 118.654C79.2138 118.787 79.0768 118.974 78.9842 119.215C78.8916 119.454 78.8453 119.732 78.8453 120.051ZM84.8216 117.918V118.473H82.6111V117.918H84.8216ZM83.2553 116.896H83.9107V120.962C83.9107 121.147 83.9376 121.286 83.9913 121.378C84.0468 121.469 84.1171 121.53 84.2023 121.562C84.2893 121.591 84.381 121.606 84.4772 121.606C84.5494 121.606 84.6087 121.602 84.655 121.595C84.7013 121.586 84.7383 121.578 84.7661 121.573L84.8994 122.161C84.8549 122.178 84.7929 122.195 84.7133 122.211C84.6337 122.23 84.5328 122.239 84.4106 122.239C84.2255 122.239 84.044 122.199 83.8663 122.12C83.6904 122.04 83.5441 121.919 83.4275 121.756C83.3127 121.593 83.2553 121.388 83.2553 121.139V116.896ZM85.8075 122.184V117.918H86.4628V122.184H85.8075ZM86.1407 117.207C86.013 117.207 85.9028 117.164 85.8102 117.077C85.7195 116.99 85.6742 116.885 85.6742 116.763C85.6742 116.641 85.7195 116.536 85.8102 116.449C85.9028 116.362 86.013 116.318 86.1407 116.318C86.2685 116.318 86.3777 116.362 86.4684 116.449C86.561 116.536 86.6073 116.641 86.6073 116.763C86.6073 116.885 86.561 116.99 86.4684 117.077C86.3777 117.164 86.2685 117.207 86.1407 117.207ZM89.3961 122.272C89.011 122.272 88.6732 122.181 88.3825 121.998C88.0937 121.814 87.8678 121.558 87.7049 121.228C87.5438 120.899 87.4633 120.514 87.4633 120.073C87.4633 119.629 87.5438 119.241 87.7049 118.909C87.8678 118.578 88.0937 118.321 88.3825 118.137C88.6732 117.954 89.011 117.862 89.3961 117.862C89.7812 117.862 90.1182 117.954 90.407 118.137C90.6976 118.321 90.9235 118.578 91.0846 118.909C91.2475 119.241 91.329 119.629 91.329 120.073C91.329 120.514 91.2475 120.899 91.0846 121.228C90.9235 121.558 90.6976 121.814 90.407 121.998C90.1182 122.181 89.7812 122.272 89.3961 122.272ZM89.3961 121.684C89.6886 121.684 89.9293 121.609 90.1182 121.459C90.307 121.309 90.4468 121.112 90.5375 120.867C90.6282 120.623 90.6736 120.358 90.6736 120.073C90.6736 119.788 90.6282 119.522 90.5375 119.276C90.4468 119.03 90.307 118.831 90.1182 118.679C89.9293 118.527 89.6886 118.451 89.3961 118.451C89.1036 118.451 88.8629 118.527 88.6741 118.679C88.4852 118.831 88.3455 119.03 88.2547 119.276C88.164 119.522 88.1187 119.788 88.1187 120.073C88.1187 120.358 88.164 120.623 88.2547 120.867C88.3455 121.112 88.4852 121.309 88.6741 121.459C88.8629 121.609 89.1036 121.684 89.3961 121.684ZM92.9848 119.618V122.184H92.3294V117.918H92.9626V118.585H93.0181C93.1181 118.368 93.2699 118.194 93.4736 118.062C93.6772 117.929 93.9401 117.862 94.2622 117.862C94.5511 117.862 94.8038 117.922 95.0204 118.04C95.237 118.157 95.4055 118.335 95.5258 118.573C95.6461 118.81 95.7063 119.11 95.7063 119.473V122.184H95.0509V119.518C95.0509 119.183 94.9639 118.921 94.7899 118.734C94.6159 118.546 94.377 118.451 94.0734 118.451C93.8642 118.451 93.6772 118.497 93.5124 118.587C93.3495 118.678 93.2208 118.81 93.1264 118.984C93.032 119.158 92.9848 119.369 92.9848 119.618ZM97.3816 122.228C97.2446 122.228 97.127 122.179 97.0289 122.081C96.9308 121.983 96.8817 121.865 96.8817 121.728C96.8817 121.591 96.9308 121.474 97.0289 121.375C97.127 121.277 97.2446 121.228 97.3816 121.228C97.5186 121.228 97.6361 121.277 97.7343 121.375C97.8324 121.474 97.8815 121.591 97.8815 121.728C97.8815 121.819 97.8583 121.902 97.812 121.978C97.7676 122.054 97.7074 122.115 97.6315 122.161C97.5575 122.206 97.4741 122.228 97.3816 122.228ZM99.5352 122.228C99.3982 122.228 99.2806 122.179 99.1825 122.081C99.0844 121.983 99.0353 121.865 99.0353 121.728C99.0353 121.591 99.0844 121.474 99.1825 121.375C99.2806 121.277 99.3982 121.228 99.5352 121.228C99.6722 121.228 99.7898 121.277 99.8879 121.375C99.986 121.474 100.035 121.591 100.035 121.728C100.035 121.819 100.012 121.902 99.9656 121.978C99.9212 122.054 99.861 122.115 99.7851 122.161C99.7111 122.206 99.6278 122.228 99.5352 122.228ZM101.689 122.228C101.552 122.228 101.434 122.179 101.336 122.081C101.238 121.983 101.189 121.865 101.189 121.728C101.189 121.591 101.238 121.474 101.336 121.375C101.434 121.277 101.552 121.228 101.689 121.228C101.826 121.228 101.943 121.277 102.042 121.375C102.14 121.474 102.189 121.591 102.189 121.728C102.189 121.819 102.166 121.902 102.119 121.978C102.075 122.054 102.015 122.115 101.939 122.161C101.865 122.206 101.781 122.228 101.689 122.228Z" fill="#98A2B3"/>
<path d="M20.367 197.184V192.208H22.1409C22.5281 192.208 22.8488 192.278 23.1032 192.419C23.3575 192.56 23.5478 192.753 23.6742 192.997C23.8005 193.24 23.8637 193.514 23.8637 193.819C23.8637 194.125 23.7997 194.4 23.6718 194.645C23.5454 194.888 23.3542 195.081 23.0983 195.223C22.844 195.364 22.524 195.435 22.1385 195.435H20.9186V194.798H22.0704C22.315 194.798 22.5135 194.756 22.6658 194.672C22.818 194.586 22.9298 194.469 23.0011 194.322C23.0724 194.174 23.108 194.007 23.108 193.819C23.108 193.631 23.0724 193.464 23.0011 193.318C22.9298 193.172 22.8172 193.058 22.6633 192.975C22.5111 192.893 22.3102 192.852 22.0607 192.852H21.1179V197.184H20.367ZM24.7541 197.184V193.452H25.4563V194.045H25.4952C25.5632 193.844 25.6831 193.686 25.8548 193.571C26.0282 193.454 26.2242 193.396 26.4429 193.396C26.4882 193.396 26.5417 193.397 26.6033 193.401C26.6664 193.404 26.7158 193.408 26.7515 193.413V194.108C26.7223 194.1 26.6705 194.091 26.596 194.081C26.5214 194.07 26.4469 194.064 26.3724 194.064C26.2007 194.064 26.0476 194.1 25.9132 194.173C25.7803 194.245 25.675 194.344 25.5973 194.472C25.5195 194.599 25.4806 194.743 25.4806 194.905V197.184H24.7541ZM28.8872 197.259C28.5373 197.259 28.2319 197.179 27.9711 197.019C27.7103 196.858 27.5078 196.634 27.3636 196.346C27.2194 196.057 27.1473 195.72 27.1473 195.335C27.1473 194.948 27.2194 194.609 27.3636 194.319C27.5078 194.029 27.7103 193.804 27.9711 193.644C28.2319 193.483 28.5373 193.403 28.8872 193.403C29.2371 193.403 29.5424 193.483 29.8033 193.644C30.0641 193.804 30.2666 194.029 30.4107 194.319C30.5549 194.609 30.627 194.948 30.627 195.335C30.627 195.72 30.5549 196.057 30.4107 196.346C30.2666 196.634 30.0641 196.858 29.8033 197.019C29.5424 197.179 29.2371 197.259 28.8872 197.259ZM28.8896 196.649C29.1164 196.649 29.3043 196.59 29.4534 196.47C29.6024 196.35 29.7125 196.19 29.7838 195.991C29.8567 195.792 29.8932 195.572 29.8932 195.332C29.8932 195.094 29.8567 194.876 29.7838 194.676C29.7125 194.476 29.6024 194.314 29.4534 194.193C29.3043 194.071 29.1164 194.011 28.8896 194.011C28.6612 194.011 28.4717 194.071 28.321 194.193C28.172 194.314 28.061 194.476 27.9881 194.676C27.9168 194.876 27.8812 195.094 27.8812 195.332C27.8812 195.572 27.9168 195.792 27.9881 195.991C28.061 196.19 28.172 196.35 28.321 196.47C28.4717 196.59 28.6612 196.649 28.8896 196.649ZM31.5064 193.452H32.233V197.427C32.233 197.677 32.1876 197.887 32.0969 198.059C32.0078 198.231 31.875 198.361 31.6984 198.45C31.5234 198.539 31.3072 198.584 31.0496 198.584C31.0237 198.584 30.9994 198.584 30.9767 198.584C30.9524 198.584 30.9273 198.583 30.9014 198.581V197.957C30.9241 197.957 30.9443 197.957 30.9621 197.957C30.9783 197.957 30.997 197.957 31.018 197.957C31.1897 197.957 31.3137 197.911 31.3898 197.818C31.4675 197.728 31.5064 197.596 31.5064 197.422V193.452ZM31.8661 192.876C31.7397 192.876 31.6312 192.834 31.5404 192.749C31.4513 192.664 31.4068 192.562 31.4068 192.443C31.4068 192.323 31.4513 192.221 31.5404 192.137C31.6312 192.051 31.7397 192.008 31.8661 192.008C31.9924 192.008 32.1001 192.051 32.1892 192.137C32.28 192.221 32.3253 192.323 32.3253 192.443C32.3253 192.562 32.28 192.664 32.1892 192.749C32.1001 192.834 31.9924 192.876 31.8661 192.876ZM34.8875 197.259C34.5197 197.259 34.203 197.181 33.9374 197.024C33.6733 196.865 33.4692 196.642 33.325 196.355C33.1825 196.067 33.1112 195.729 33.1112 195.342C33.1112 194.96 33.1825 194.623 33.325 194.331C33.4692 194.04 33.6701 193.812 33.9276 193.649C34.1868 193.485 34.4898 193.403 34.8364 193.403C35.047 193.403 35.2511 193.438 35.4488 193.508C35.6464 193.577 35.8238 193.687 35.9809 193.836C36.1381 193.985 36.262 194.178 36.3527 194.416C36.4434 194.653 36.4888 194.94 36.4888 195.279V195.537H33.5218V194.992H35.7768C35.7768 194.801 35.7379 194.632 35.6602 194.484C35.5824 194.335 35.4731 194.218 35.3321 194.132C35.1928 194.046 35.0292 194.003 34.8413 194.003C34.6372 194.003 34.459 194.054 34.3067 194.154C34.1561 194.253 34.0394 194.382 33.9568 194.543C33.8758 194.701 33.8353 194.874 33.8353 195.06V195.486C33.8353 195.735 33.879 195.947 33.9665 196.122C34.0556 196.297 34.1795 196.431 34.3383 196.523C34.4971 196.614 34.6825 196.659 34.8948 196.659C35.0325 196.659 35.158 196.64 35.2714 196.601C35.3848 196.56 35.4828 196.5 35.5654 196.421C35.648 196.342 35.7112 196.244 35.755 196.127L36.4426 196.251C36.3875 196.453 36.2887 196.631 36.1462 196.783C36.0052 196.934 35.8278 197.051 35.614 197.135C35.4018 197.218 35.1596 197.259 34.8875 197.259ZM38.9355 197.259C38.5743 197.259 38.2632 197.178 38.0024 197.014C37.7432 196.849 37.544 196.621 37.4047 196.331C37.2653 196.041 37.1957 195.709 37.1957 195.335C37.1957 194.956 37.267 194.621 37.4095 194.331C37.5521 194.04 37.7529 193.812 38.0121 193.649C38.2713 193.485 38.5767 193.403 38.9282 193.403C39.2117 193.403 39.4644 193.456 39.6864 193.561C39.9083 193.665 40.0873 193.811 40.2234 193.998C40.3611 194.186 40.4429 194.406 40.4688 194.657H39.7617C39.7228 194.482 39.6337 194.331 39.4944 194.205C39.3567 194.079 39.172 194.015 38.9404 194.015C38.7379 194.015 38.5605 194.069 38.4082 194.176C38.2576 194.281 38.1401 194.432 38.0559 194.628C37.9716 194.822 37.9295 195.052 37.9295 195.318C37.9295 195.59 37.9708 195.825 38.0535 196.023C38.1361 196.22 38.2527 196.373 38.4034 196.482C38.5556 196.59 38.7346 196.645 38.9404 196.645C39.0781 196.645 39.2028 196.62 39.3146 196.569C39.428 196.517 39.5228 196.444 39.5989 196.348C39.6766 196.253 39.7309 196.138 39.7617 196.003H40.4688C40.4429 196.245 40.3643 196.46 40.2331 196.649C40.1019 196.839 39.9261 196.988 39.7058 197.097C39.4871 197.205 39.2304 197.259 38.9355 197.259ZM43.0565 193.452V194.035H41.0178V193.452H43.0565ZM41.5645 192.557H42.291V196.088C42.291 196.229 42.3121 196.335 42.3542 196.407C42.3963 196.476 42.4506 196.524 42.517 196.55C42.5851 196.574 42.6588 196.586 42.7381 196.586C42.7965 196.586 42.8475 196.582 42.8912 196.574C42.935 196.566 42.969 196.56 42.9933 196.555L43.1245 197.155C43.0824 197.171 43.0224 197.187 42.9447 197.204C42.8669 197.221 42.7697 197.231 42.6531 197.233C42.4619 197.236 42.2837 197.202 42.1185 197.131C41.9533 197.059 41.8196 196.949 41.7176 196.8C41.6155 196.651 41.5645 196.464 41.5645 196.239V192.557ZM45.6208 192.854V192.208H49.4723V192.854H47.9195V197.184H47.1711V192.854H45.6208ZM50.9118 197.267C50.6753 197.267 50.4614 197.223 50.2703 197.135C50.0791 197.046 49.9277 196.918 49.8159 196.749C49.7057 196.581 49.6507 196.374 49.6507 196.129C49.6507 195.919 49.6912 195.746 49.7722 195.609C49.8532 195.473 49.9625 195.366 50.1002 195.286C50.2379 195.207 50.3918 195.147 50.5619 195.106C50.732 195.066 50.9053 195.035 51.0819 195.014C51.3054 194.988 51.4869 194.967 51.6262 194.951C51.7655 194.933 51.8668 194.905 51.9299 194.866C51.9931 194.827 52.0247 194.764 52.0247 194.676V194.659C52.0247 194.447 51.9648 194.283 51.8449 194.166C51.7266 194.049 51.5501 193.991 51.3152 193.991C51.0705 193.991 50.8778 194.045 50.7368 194.154C50.5975 194.261 50.5011 194.38 50.4477 194.511L49.7649 194.356C49.8459 194.129 49.9641 193.946 50.1196 193.806C50.2768 193.666 50.4574 193.563 50.6615 193.5C50.8656 193.436 51.0803 193.403 51.3054 193.403C51.4545 193.403 51.6124 193.421 51.7793 193.457C51.9478 193.491 52.1049 193.554 52.2507 193.646C52.3981 193.738 52.5188 193.87 52.6127 194.042C52.7067 194.212 52.7537 194.433 52.7537 194.706V197.184H52.0441V196.674H52.015C51.968 196.768 51.8975 196.86 51.8036 196.951C51.7096 197.042 51.5889 197.117 51.4415 197.177C51.2941 197.237 51.1175 197.267 50.9118 197.267ZM51.0697 196.684C51.2706 196.684 51.4423 196.644 51.5849 196.564C51.7291 196.485 51.8384 196.381 51.9129 196.253C51.9891 196.124 52.0271 195.985 52.0271 195.838V195.357C52.0012 195.383 51.951 195.407 51.8765 195.43C51.8036 195.451 51.7202 195.469 51.6262 195.486C51.5322 195.5 51.4407 195.514 51.3516 195.527C51.2625 195.538 51.188 195.548 51.1281 195.556C50.9871 195.574 50.8583 195.604 50.7417 195.646C50.6267 195.688 50.5343 195.749 50.4647 195.828C50.3966 195.906 50.3626 196.01 50.3626 196.139C50.3626 196.319 50.429 196.455 50.5619 196.547C50.6947 196.638 50.864 196.684 51.0697 196.684ZM56.5867 194.363L55.9282 194.48C55.9006 194.395 55.8569 194.315 55.797 194.239C55.7386 194.163 55.6593 194.1 55.5588 194.052C55.4584 194.003 55.3328 193.979 55.1822 193.979C54.9764 193.979 54.8047 194.025 54.667 194.118C54.5293 194.208 54.4605 194.326 54.4605 194.47C54.4605 194.595 54.5067 194.695 54.599 194.771C54.6913 194.847 54.8404 194.91 55.0461 194.958L55.639 195.094C55.9824 195.174 56.2384 195.296 56.4069 195.461C56.5753 195.626 56.6596 195.841 56.6596 196.105C56.6596 196.329 56.5948 196.528 56.4652 196.703C56.3372 196.876 56.1582 197.012 55.9282 197.111C55.6998 197.21 55.4349 197.259 55.1336 197.259C54.7156 197.259 54.3746 197.17 54.1106 196.992C53.8465 196.812 53.6845 196.557 53.6246 196.227L54.3268 196.12C54.3706 196.303 54.4605 196.441 54.5966 196.535C54.7326 196.628 54.91 196.674 55.1287 196.674C55.3669 196.674 55.5572 196.624 55.6998 196.526C55.8423 196.425 55.9136 196.303 55.9136 196.159C55.9136 196.042 55.8699 195.944 55.7824 195.865C55.6965 195.785 55.5645 195.725 55.3863 195.685L54.7545 195.546C54.4062 195.467 54.1487 195.341 53.9818 195.167C53.8166 194.994 53.7339 194.774 53.7339 194.509C53.7339 194.288 53.7955 194.096 53.9186 193.93C54.0417 193.765 54.2118 193.636 54.4289 193.544C54.646 193.45 54.8946 193.403 55.1749 193.403C55.5783 193.403 55.8958 193.491 56.1274 193.666C56.3591 193.839 56.5122 194.071 56.5867 194.363ZM58.1951 195.918L58.1902 195.031H58.3166L59.8037 193.452H60.6736L58.9775 195.25H58.8633L58.1951 195.918ZM57.5269 197.184V192.208H58.2534V197.184H57.5269ZM59.8839 197.184L58.5474 195.41L59.048 194.902L60.7757 197.184H59.8839Z" fill="#475467"/>
<rect x="20.0647" y="203.361" width="244.871" height="21.2865" rx="1.71067" fill="white"/>
<rect x="20.0647" y="203.361" width="244.871" height="21.2865" rx="1.71067" stroke="#D0D5DD" stroke-width="0.488764"/>
<path d="M30.4619 212.739C30.4285 212.457 30.2934 212.239 30.0564 212.083C29.8194 211.928 29.5288 211.85 29.1844 211.85C28.9326 211.85 28.7123 211.891 28.5235 211.972C28.3365 212.054 28.1902 212.166 28.0847 212.308C27.981 212.451 27.9292 212.613 27.9292 212.794C27.9292 212.946 27.9653 213.077 28.0375 213.186C28.1115 213.293 28.206 213.383 28.3208 213.455C28.4355 213.526 28.5559 213.584 28.6818 213.63C28.8077 213.675 28.9234 213.711 29.0289 213.739L29.6065 213.894C29.7546 213.933 29.9194 213.987 30.1009 214.055C30.2841 214.124 30.4591 214.217 30.6257 214.336C30.7942 214.452 30.933 214.602 31.0423 214.786C31.1515 214.969 31.2061 215.194 31.2061 215.46C31.2061 215.768 31.1256 216.045 30.9645 216.293C30.8053 216.542 30.572 216.739 30.2647 216.885C29.9592 217.031 29.588 217.104 29.1511 217.104C28.7438 217.104 28.3911 217.039 28.093 216.907C27.7968 216.776 27.5635 216.592 27.3932 216.357C27.2247 216.122 27.1294 215.849 27.1072 215.538H27.8181C27.8366 215.753 27.9088 215.931 28.0347 216.071C28.1625 216.21 28.3235 216.314 28.5179 216.382C28.7142 216.449 28.9252 216.482 29.1511 216.482C29.414 216.482 29.65 216.44 29.8592 216.355C30.0685 216.268 30.2342 216.147 30.3563 215.994C30.4785 215.838 30.5396 215.657 30.5396 215.449C30.5396 215.26 30.4869 215.107 30.3813 214.988C30.2758 214.87 30.137 214.773 29.9648 214.699C29.7926 214.625 29.6065 214.561 29.4066 214.505L28.7068 214.305C28.2624 214.177 27.9107 213.995 27.6515 213.758C27.3923 213.521 27.2627 213.211 27.2627 212.828C27.2627 212.509 27.3488 212.232 27.521 211.995C27.695 211.756 27.9283 211.571 28.2208 211.439C28.5151 211.306 28.8438 211.239 29.2066 211.239C29.5732 211.239 29.8991 211.305 30.1842 211.436C30.4693 211.566 30.6951 211.744 30.8618 211.97C31.0302 212.195 31.1191 212.452 31.1284 212.739H30.4619ZM33.9989 217.093C33.5879 217.093 33.2334 217.003 32.9353 216.821C32.6391 216.638 32.4105 216.382 32.2494 216.055C32.0902 215.725 32.0106 215.342 32.0106 214.905C32.0106 214.468 32.0902 214.083 32.2494 213.75C32.4105 213.415 32.6345 213.154 32.9214 212.967C33.2103 212.778 33.5472 212.683 33.9323 212.683C34.1545 212.683 34.3738 212.72 34.5905 212.794C34.8071 212.868 35.0042 212.989 35.182 213.155C35.3597 213.32 35.5013 213.539 35.6069 213.811C35.7124 214.083 35.7652 214.418 35.7652 214.816V215.094H32.4771V214.527H35.0987C35.0987 214.287 35.0505 214.072 34.9543 213.883C34.8598 213.694 34.7247 213.545 34.5488 213.436C34.3748 213.327 34.1693 213.272 33.9323 213.272C33.6712 213.272 33.4454 213.337 33.2547 213.466C33.0658 213.594 32.9205 213.761 32.8187 213.966C32.7169 214.172 32.6659 214.392 32.6659 214.627V215.005C32.6659 215.327 32.7215 215.6 32.8326 215.824C32.9455 216.046 33.1019 216.216 33.3019 216.332C33.5018 216.447 33.7342 216.505 33.9989 216.505C34.1711 216.505 34.3266 216.48 34.4655 216.432C34.6062 216.382 34.7275 216.308 34.8293 216.21C34.9311 216.11 35.0098 215.986 35.0653 215.838L35.6985 216.016C35.6319 216.231 35.5198 216.419 35.3625 216.582C35.2051 216.743 35.0107 216.869 34.7793 216.96C34.5479 217.049 34.2878 217.093 33.9989 217.093ZM37.3784 211.317V217.004H36.723V211.317H37.3784ZM40.3281 217.093C39.9171 217.093 39.5626 217.003 39.2645 216.821C38.9683 216.638 38.7396 216.382 38.5786 216.055C38.4194 215.725 38.3397 215.342 38.3397 214.905C38.3397 214.468 38.4194 214.083 38.5786 213.75C38.7396 213.415 38.9637 213.154 39.2506 212.967C39.5394 212.778 39.8764 212.683 40.2615 212.683C40.4836 212.683 40.703 212.72 40.9196 212.794C41.1363 212.868 41.3334 212.989 41.5112 213.155C41.6889 213.32 41.8305 213.539 41.9361 213.811C42.0416 214.083 42.0943 214.418 42.0943 214.816V215.094H38.8063V214.527H41.4278C41.4278 214.287 41.3797 214.072 41.2834 213.883C41.189 213.694 41.0539 213.545 40.878 213.436C40.704 213.327 40.4985 213.272 40.2615 213.272C40.0004 213.272 39.7746 213.337 39.5839 213.466C39.395 213.594 39.2497 213.761 39.1479 213.966C39.046 214.172 38.9951 214.392 38.9951 214.627V215.005C38.9951 215.327 39.0507 215.6 39.1618 215.824C39.2747 216.046 39.4311 216.216 39.6311 216.332C39.831 216.447 40.0634 216.505 40.3281 216.505C40.5003 216.505 40.6558 216.48 40.7947 216.432C40.9354 216.382 41.0566 216.308 41.1585 216.21C41.2603 216.11 41.339 215.986 41.3945 215.838L42.0277 216.016C41.961 216.231 41.849 216.419 41.6917 216.582C41.5343 216.743 41.3399 216.869 41.1085 216.96C40.8771 217.049 40.6169 217.093 40.3281 217.093ZM44.7851 217.093C44.3852 217.093 44.0408 216.999 43.752 216.81C43.4632 216.621 43.2411 216.361 43.0855 216.03C42.93 215.698 42.8523 215.32 42.8523 214.894C42.8523 214.461 42.9319 214.078 43.0911 213.747C43.2522 213.414 43.4762 213.154 43.7631 212.967C44.052 212.778 44.3889 212.683 44.774 212.683C45.0739 212.683 45.3442 212.739 45.5849 212.85C45.8256 212.961 46.0227 213.116 46.1764 213.316C46.3301 213.516 46.4254 213.75 46.4625 214.016H45.8071C45.7571 213.822 45.646 213.65 45.4738 213.5C45.3035 213.348 45.0739 213.272 44.7851 213.272C44.5296 213.272 44.3056 213.339 44.1131 213.472C43.9224 213.603 43.7733 213.789 43.6659 214.03C43.5604 214.269 43.5077 214.549 43.5077 214.872C43.5077 215.201 43.5595 215.488 43.6632 215.732C43.7687 215.977 43.9168 216.167 44.1075 216.302C44.3 216.437 44.5259 216.505 44.7851 216.505C44.9554 216.505 45.11 216.475 45.2489 216.416C45.3877 216.356 45.5053 216.271 45.6016 216.16C45.6978 216.049 45.7663 215.916 45.8071 215.76H46.4625C46.4254 216.012 46.3338 216.239 46.1875 216.441C46.0431 216.641 45.8515 216.8 45.6127 216.918C45.3757 217.035 45.0998 217.093 44.7851 217.093ZM49.2365 212.739V213.294H47.026V212.739H49.2365ZM47.6703 211.717H48.3256V215.782C48.3256 215.968 48.3525 216.106 48.4062 216.199C48.4617 216.29 48.5321 216.351 48.6172 216.382C48.7042 216.412 48.7959 216.427 48.8922 216.427C48.9644 216.427 49.0236 216.423 49.0699 216.416C49.1162 216.406 49.1532 216.399 49.181 216.393L49.3143 216.982C49.2698 216.999 49.2078 217.016 49.1282 217.032C49.0486 217.051 48.9477 217.06 48.8255 217.06C48.6404 217.06 48.4589 217.02 48.2812 216.941C48.1053 216.861 47.9591 216.74 47.8424 216.577C47.7276 216.414 47.6703 216.208 47.6703 215.96V211.717ZM52.3436 218.604V212.739H52.9768V213.416H53.0545C53.1027 213.342 53.1693 213.248 53.2545 213.133C53.3415 213.017 53.4656 212.913 53.6266 212.822C53.7895 212.73 54.0099 212.683 54.2876 212.683C54.6467 212.683 54.9633 212.773 55.2373 212.953C55.5113 213.132 55.7252 213.387 55.8788 213.716C56.0325 214.046 56.1093 214.435 56.1093 214.883C56.1093 215.334 56.0325 215.726 55.8788 216.057C55.7252 216.387 55.5123 216.642 55.2401 216.824C54.9679 217.003 54.6541 217.093 54.2987 217.093C54.0247 217.093 53.8053 217.048 53.6405 216.957C53.4757 216.865 53.3489 216.76 53.26 216.643C53.1712 216.525 53.1027 216.427 53.0545 216.349H52.999V218.604H52.3436ZM52.9879 214.872C52.9879 215.194 53.0351 215.478 53.1295 215.724C53.2239 215.969 53.3619 216.16 53.5433 216.299C53.7247 216.436 53.9469 216.505 54.2098 216.505C54.4838 216.505 54.7125 216.432 54.8957 216.288C55.0809 216.142 55.2197 215.945 55.3123 215.699C55.4067 215.451 55.4539 215.175 55.4539 214.872C55.4539 214.572 55.4076 214.301 55.3151 214.061C55.2244 213.818 55.0864 213.627 54.9013 213.486C54.718 213.343 54.4875 213.272 54.2098 213.272C53.9432 213.272 53.7192 213.34 53.5378 213.475C53.3563 213.608 53.2193 213.795 53.1267 214.036C53.0342 214.275 52.9879 214.553 52.9879 214.872ZM57.07 217.004V212.739H57.7031V213.383H57.7476C57.8253 213.172 57.966 213.001 58.1697 212.869C58.3733 212.738 58.6029 212.672 58.8584 212.672C58.9065 212.672 58.9667 212.673 59.0389 212.675C59.1111 212.677 59.1657 212.68 59.2028 212.683V213.35C59.1805 213.344 59.1296 213.336 59.05 213.325C58.9723 213.312 58.8899 213.305 58.8029 213.305C58.5955 213.305 58.4104 213.349 58.2474 213.436C58.0864 213.521 57.9586 213.64 57.8642 213.791C57.7716 213.941 57.7254 214.113 57.7254 214.305V217.004H57.07ZM61.5436 217.093C61.1585 217.093 60.8206 217.002 60.53 216.818C60.2412 216.635 60.0153 216.379 59.8524 216.049C59.6913 215.72 59.6108 215.334 59.6108 214.894C59.6108 214.449 59.6913 214.062 59.8524 213.73C60.0153 213.399 60.2412 213.141 60.53 212.958C60.8206 212.775 61.1585 212.683 61.5436 212.683C61.9287 212.683 62.2656 212.775 62.5545 212.958C62.8451 213.141 63.071 213.399 63.2321 213.73C63.395 214.062 63.4764 214.449 63.4764 214.894C63.4764 215.334 63.395 215.72 63.2321 216.049C63.071 216.379 62.8451 216.635 62.5545 216.818C62.2656 217.002 61.9287 217.093 61.5436 217.093ZM61.5436 216.505C61.8361 216.505 62.0768 216.43 62.2656 216.28C62.4545 216.13 62.5943 215.932 62.685 215.688C62.7757 215.444 62.8211 215.179 62.8211 214.894C62.8211 214.609 62.7757 214.343 62.685 214.097C62.5943 213.851 62.4545 213.652 62.2656 213.5C62.0768 213.348 61.8361 213.272 61.5436 213.272C61.2511 213.272 61.0104 213.348 60.8216 213.5C60.6327 213.652 60.4929 213.851 60.4022 214.097C60.3115 214.343 60.2661 214.609 60.2661 214.894C60.2661 215.179 60.3115 215.444 60.4022 215.688C60.4929 215.932 60.6327 216.13 60.8216 216.28C61.0104 216.43 61.2511 216.505 61.5436 216.505ZM64.4378 212.739H65.0932V217.315C65.0932 217.578 65.0478 217.806 64.9571 217.999C64.8682 218.191 64.7331 218.34 64.5516 218.446C64.3721 218.551 64.1453 218.604 63.8713 218.604C63.849 218.604 63.8268 218.604 63.8046 218.604C63.7824 218.604 63.7602 218.604 63.738 218.604V217.993C63.7602 217.993 63.7805 217.993 63.799 217.993C63.8176 217.993 63.8379 217.993 63.8601 217.993C64.0601 217.993 64.2064 217.934 64.2989 217.815C64.3915 217.699 64.4378 217.532 64.4378 217.315V212.739ZM64.7599 212.028C64.6322 212.028 64.522 211.984 64.4294 211.897C64.3387 211.81 64.2934 211.706 64.2934 211.584C64.2934 211.461 64.3387 211.357 64.4294 211.27C64.522 211.183 64.6322 211.139 64.7599 211.139C64.8877 211.139 64.9969 211.183 65.0876 211.27C65.1802 211.357 65.2265 211.461 65.2265 211.584C65.2265 211.706 65.1802 211.81 65.0876 211.897C64.9969 211.984 64.8877 212.028 64.7599 212.028ZM68.0429 217.093C67.6319 217.093 67.2773 217.003 66.9793 216.821C66.683 216.638 66.4544 216.382 66.2933 216.055C66.1341 215.725 66.0545 215.342 66.0545 214.905C66.0545 214.468 66.1341 214.083 66.2933 213.75C66.4544 213.415 66.6784 213.154 66.9654 212.967C67.2542 212.778 67.5911 212.683 67.9762 212.683C68.1984 212.683 68.4178 212.72 68.6344 212.794C68.851 212.868 69.0482 212.989 69.2259 213.155C69.4036 213.32 69.5453 213.539 69.6508 213.811C69.7563 214.083 69.8091 214.418 69.8091 214.816V215.094H66.5211V214.527H69.1426C69.1426 214.287 69.0945 214.072 68.9982 213.883C68.9038 213.694 68.7686 213.545 68.5927 213.436C68.4187 213.327 68.2132 213.272 67.9762 213.272C67.7152 213.272 67.4893 213.337 67.2986 213.466C67.1098 213.594 66.9645 213.761 66.8626 213.966C66.7608 214.172 66.7099 214.392 66.7099 214.627V215.005C66.7099 215.327 66.7654 215.6 66.8765 215.824C66.9895 216.046 67.1459 216.216 67.3458 216.332C67.5458 216.447 67.7781 216.505 68.0429 216.505C68.2151 216.505 68.3706 216.48 68.5094 216.432C68.6501 216.382 68.7714 216.308 68.8732 216.21C68.9751 216.11 69.0537 215.986 69.1093 215.838L69.7425 216.016C69.6758 216.231 69.5638 216.419 69.4064 216.582C69.2491 216.743 69.0547 216.869 68.8232 216.96C68.5918 217.049 68.3317 217.093 68.0429 217.093ZM72.4999 217.093C72.1 217.093 71.7556 216.999 71.4668 216.81C71.178 216.621 70.9558 216.361 70.8003 216.03C70.6448 215.698 70.567 215.32 70.567 214.894C70.567 214.461 70.6466 214.078 70.8058 213.747C70.9669 213.414 71.1909 213.154 71.4779 212.967C71.7667 212.778 72.1037 212.683 72.4887 212.683C72.7887 212.683 73.059 212.739 73.2997 212.85C73.5403 212.961 73.7375 213.116 73.8912 213.316C74.0448 213.516 74.1402 213.75 74.1772 214.016H73.5218C73.4718 213.822 73.3607 213.65 73.1886 213.5C73.0182 213.348 72.7887 213.272 72.4999 213.272C72.2444 213.272 72.0203 213.339 71.8278 213.472C71.6371 213.603 71.4881 213.789 71.3807 214.03C71.2752 214.269 71.2224 214.549 71.2224 214.872C71.2224 215.201 71.2742 215.488 71.3779 215.732C71.4834 215.977 71.6316 216.167 71.8223 216.302C72.0148 216.437 72.2407 216.505 72.4999 216.505C72.6702 216.505 72.8248 216.475 72.9636 216.416C73.1025 216.356 73.22 216.271 73.3163 216.16C73.4126 216.049 73.4811 215.916 73.5218 215.76H74.1772C74.1402 216.012 74.0485 216.239 73.9023 216.441C73.7579 216.641 73.5663 216.8 73.3274 216.918C73.0904 217.035 72.8146 217.093 72.4999 217.093ZM76.9513 212.739V213.294H74.7407V212.739H76.9513ZM75.385 211.717H76.0404V215.782C76.0404 215.968 76.0672 216.106 76.1209 216.199C76.1765 216.29 76.2468 216.351 76.332 216.382C76.419 216.412 76.5106 216.427 76.6069 216.427C76.6791 216.427 76.7384 216.423 76.7847 216.416C76.8309 216.406 76.868 216.399 76.8957 216.393L77.029 216.982C76.9846 216.999 76.9226 217.016 76.843 217.032C76.7634 217.051 76.6625 217.06 76.5403 217.06C76.3551 217.06 76.1737 217.02 75.996 216.941C75.8201 216.861 75.6738 216.74 75.5572 216.577C75.4424 216.414 75.385 216.208 75.385 215.96V211.717Z" fill="#98A2B3"/>
<path fill-rule="evenodd" clip-rule="evenodd" d="M249.568 211.956C249.687 211.836 249.881 211.836 250 211.956L253.45 215.405L256.899 211.956C257.019 211.836 257.212 211.836 257.331 211.956C257.451 212.075 257.451 212.268 257.331 212.388L253.666 216.053C253.546 216.173 253.353 216.173 253.234 216.053L249.568 212.388C249.449 212.268 249.449 212.075 249.568 211.956Z" fill="#98A2B3"/>
<path fill-rule="evenodd" clip-rule="evenodd" d="M273 237.111H12V236.623H273V237.111Z" fill="#EAECF0"/>
<rect x="23.9746" y="241.754" width="15.1517" height="15.1517" rx="7.57584" stroke="#98A2B3" stroke-width="0.488764" stroke-dasharray="0.98 0.98"/>
<path d="M31.5505 249.33C32.7652 249.33 33.7499 248.345 33.7499 247.131C33.7499 245.916 32.7652 244.931 31.5505 244.931C30.3358 244.931 29.351 245.916 29.351 247.131C29.351 248.345 30.3358 249.33 31.5505 249.33ZM33.0168 247.131C33.0168 247.94 32.3603 248.597 31.5505 248.597C30.7407 248.597 30.0842 247.94 30.0842 247.131C30.0842 246.321 30.7407 245.664 31.5505 245.664C32.3603 245.664 33.0168 246.321 33.0168 247.131Z" fill="#667085"/>
<path d="M35.9494 252.996C35.9494 253.729 35.2162 253.729 35.2162 253.729H27.8848C27.8848 253.729 27.1516 253.729 27.1516 252.996C27.1516 252.263 27.8848 250.063 31.5505 250.063C35.2162 250.063 35.9494 252.263 35.9494 252.996ZM35.2162 252.993C35.2152 252.812 35.1035 252.27 34.6062 251.773C34.128 251.295 33.2287 250.796 31.5505 250.796C29.8722 250.796 28.973 251.295 28.4948 251.773C27.9975 252.27 27.8858 252.812 27.8848 252.993H35.2162Z" fill="#667085"/>
<rect x="47.4353" y="241.265" width="16.1292" height="16.1292" rx="8.06461" stroke="#98A2B3" stroke-width="0.488764" stroke-dasharray="0.98 0.98"/>
<path d="M57.1495 249.055C57.1495 248.903 57.2726 248.78 57.4245 248.78H57.9743C58.1262 248.78 58.2492 248.903 58.2492 249.055V249.605C58.2492 249.757 58.1262 249.88 57.9743 249.88H57.4245C57.2726 249.88 57.1495 249.757 57.1495 249.605V249.055Z" fill="#667085"/>
<path d="M53.0256 244.931C53.1774 244.931 53.3005 245.054 53.3005 245.206V245.481H57.6994V245.206C57.6994 245.054 57.8225 244.931 57.9743 244.931C58.1262 244.931 58.2492 245.054 58.2492 245.206V245.481H58.7991C59.4065 245.481 59.8988 245.973 59.8988 246.581V252.629C59.8988 253.237 59.4065 253.729 58.7991 253.729H52.2008C51.5934 253.729 51.1011 253.237 51.1011 252.629V246.581C51.1011 245.973 51.5934 245.481 52.2008 245.481H52.7507V245.206C52.7507 245.054 52.8737 244.931 53.0256 244.931ZM52.2008 246.031C51.8971 246.031 51.6509 246.277 51.6509 246.581V252.629C51.6509 252.933 51.8971 253.179 52.2008 253.179H58.7991C59.1028 253.179 59.349 252.933 59.349 252.629V246.581C59.349 246.277 59.1028 246.031 58.7991 246.031H52.2008Z" fill="#667085"/>
<path d="M52.4757 247.131C52.4757 246.979 52.5988 246.856 52.7507 246.856H58.2492C58.4011 246.856 58.5242 246.979 58.5242 247.131V247.68C58.5242 247.832 58.4011 247.955 58.2492 247.955H52.7507C52.5988 247.955 52.4757 247.832 52.4757 247.68V247.131Z" fill="#667085"/>
<path fill-rule="evenodd" clip-rule="evenodd" d="M273 262.038H12V261.549H273V262.038Z" fill="#EAECF0"/>
<rect x="205.874" y="268.148" width="55.1517" height="19.2865" rx="1.71067" fill="#158ECC"/>
<rect x="205.874" y="268.148" width="55.1517" height="19.2865" rx="1.71067" stroke="#158ECC" stroke-width="0.488764"/>
<path d="M218.2 276.494H217.291C217.265 276.345 217.217 276.213 217.148 276.098C217.078 275.981 216.991 275.882 216.888 275.801C216.784 275.72 216.666 275.659 216.533 275.619C216.402 275.577 216.26 275.556 216.108 275.556C215.837 275.556 215.598 275.624 215.389 275.76C215.18 275.894 215.016 276.092 214.898 276.353C214.779 276.612 214.72 276.929 214.72 277.303C214.72 277.683 214.779 278.004 214.898 278.265C215.018 278.524 215.181 278.72 215.389 278.853C215.598 278.984 215.836 279.05 216.105 279.05C216.254 279.05 216.394 279.03 216.523 278.992C216.655 278.951 216.772 278.892 216.876 278.814C216.981 278.736 217.069 278.641 217.141 278.527C217.213 278.414 217.264 278.284 217.291 278.139L218.2 278.144C218.166 278.38 218.092 278.602 217.979 278.809C217.867 279.017 217.72 279.2 217.539 279.358C217.358 279.516 217.145 279.639 216.902 279.728C216.659 279.815 216.39 279.859 216.093 279.859C215.656 279.859 215.265 279.758 214.922 279.555C214.579 279.353 214.308 279.06 214.11 278.678C213.913 278.296 213.814 277.837 213.814 277.303C213.814 276.767 213.914 276.308 214.113 275.927C214.312 275.545 214.583 275.253 214.927 275.05C215.27 274.848 215.659 274.746 216.093 274.746C216.37 274.746 216.628 274.785 216.866 274.863C217.104 274.941 217.316 275.055 217.503 275.206C217.689 275.355 217.842 275.538 217.962 275.755C218.083 275.97 218.163 276.217 218.2 276.494ZM218.987 279.791V276.059H219.84V276.681H219.878C219.947 276.465 220.063 276.299 220.228 276.183C220.395 276.064 220.586 276.005 220.799 276.005C220.848 276.005 220.902 276.008 220.962 276.012C221.024 276.016 221.075 276.021 221.115 276.029V276.839C221.078 276.826 221.019 276.814 220.938 276.805C220.859 276.793 220.782 276.788 220.707 276.788C220.547 276.788 220.403 276.822 220.275 276.892C220.148 276.96 220.049 277.055 219.976 277.176C219.903 277.298 219.866 277.438 219.866 277.597V279.791H218.987ZM223.198 279.864C222.824 279.864 222.501 279.786 222.229 279.631C221.958 279.474 221.75 279.252 221.604 278.965C221.459 278.676 221.386 278.337 221.386 277.947C221.386 277.563 221.459 277.226 221.604 276.936C221.752 276.644 221.957 276.417 222.222 276.255C222.486 276.092 222.796 276.01 223.152 276.01C223.382 276.01 223.599 276.047 223.803 276.122C224.009 276.195 224.191 276.308 224.348 276.462C224.506 276.616 224.631 276.812 224.722 277.05C224.813 277.287 224.858 277.568 224.858 277.896V278.165H221.799V277.572H224.015C224.013 277.404 223.977 277.254 223.905 277.123C223.834 276.99 223.735 276.886 223.607 276.809C223.48 276.733 223.333 276.695 223.164 276.695C222.985 276.695 222.827 276.739 222.691 276.826C222.554 276.912 222.448 277.026 222.372 277.167C222.298 277.306 222.26 277.459 222.258 277.626V278.144C222.258 278.361 222.298 278.547 222.377 278.702C222.456 278.856 222.567 278.975 222.71 279.057C222.853 279.138 223.019 279.179 223.211 279.179C223.338 279.179 223.454 279.161 223.558 279.125C223.662 279.088 223.752 279.034 223.828 278.962C223.904 278.891 223.961 278.803 224 278.698L224.822 278.79C224.77 279.007 224.671 279.196 224.525 279.358C224.381 279.519 224.196 279.644 223.971 279.733C223.746 279.82 223.488 279.864 223.198 279.864ZM226.676 279.866C226.44 279.866 226.227 279.824 226.037 279.74C225.849 279.654 225.7 279.528 225.59 279.361C225.481 279.194 225.427 278.988 225.427 278.744C225.427 278.533 225.466 278.359 225.544 278.221C225.622 278.084 225.728 277.973 225.862 277.891C225.997 277.808 226.148 277.746 226.317 277.704C226.487 277.66 226.662 277.628 226.844 277.609C227.063 277.586 227.24 277.566 227.376 277.548C227.512 277.529 227.611 277.5 227.672 277.461C227.736 277.42 227.767 277.358 227.767 277.274V277.259C227.767 277.076 227.713 276.934 227.604 276.834C227.496 276.733 227.34 276.683 227.135 276.683C226.92 276.683 226.749 276.73 226.623 276.824C226.498 276.918 226.414 277.029 226.37 277.157L225.549 277.04C225.614 276.814 225.72 276.624 225.869 276.472C226.019 276.318 226.201 276.203 226.416 276.127C226.632 276.049 226.87 276.01 227.131 276.01C227.31 276.01 227.489 276.031 227.668 276.073C227.846 276.115 228.009 276.185 228.156 276.282C228.303 276.378 228.422 276.508 228.511 276.673C228.602 276.839 228.647 277.045 228.647 277.293V279.791H227.801V279.278H227.772C227.719 279.382 227.643 279.479 227.546 279.57C227.451 279.659 227.33 279.731 227.184 279.786C227.04 279.84 226.871 279.866 226.676 279.866ZM226.905 279.22C227.081 279.22 227.234 279.185 227.364 279.115C227.493 279.044 227.593 278.95 227.663 278.834C227.734 278.717 227.77 278.59 227.77 278.452V278.012C227.742 278.035 227.695 278.056 227.629 278.075C227.564 278.095 227.491 278.112 227.41 278.127C227.329 278.141 227.249 278.154 227.169 278.165C227.09 278.177 227.021 278.186 226.963 278.195C226.832 278.212 226.714 278.242 226.611 278.282C226.507 278.323 226.425 278.379 226.365 278.452C226.305 278.523 226.275 278.616 226.275 278.729C226.275 278.891 226.334 279.013 226.453 279.096C226.571 279.179 226.722 279.22 226.905 279.22ZM231.395 276.059V276.739H229.25V276.059H231.395ZM229.779 275.164H230.659V278.668C230.659 278.787 230.677 278.877 230.712 278.941C230.75 279.002 230.798 279.044 230.858 279.067C230.918 279.09 230.984 279.101 231.057 279.101C231.112 279.101 231.163 279.097 231.208 279.089C231.255 279.081 231.291 279.073 231.315 279.067L231.463 279.755C231.416 279.771 231.349 279.789 231.261 279.808C231.176 279.827 231.07 279.839 230.946 279.842C230.725 279.849 230.527 279.815 230.35 279.742C230.174 279.668 230.034 279.553 229.93 279.397C229.828 279.242 229.778 279.047 229.779 278.814V275.164ZM233.743 279.864C233.369 279.864 233.046 279.786 232.774 279.631C232.503 279.474 232.295 279.252 232.149 278.965C232.003 278.676 231.93 278.337 231.93 277.947C231.93 277.563 232.003 277.226 232.149 276.936C232.296 276.644 232.502 276.417 232.766 276.255C233.03 276.092 233.341 276.01 233.697 276.01C233.927 276.01 234.144 276.047 234.348 276.122C234.554 276.195 234.735 276.308 234.892 276.462C235.051 276.616 235.176 276.812 235.267 277.05C235.357 277.287 235.403 277.568 235.403 277.896V278.165H232.343V277.572H234.56C234.558 277.404 234.521 277.254 234.45 277.123C234.379 276.99 234.279 276.886 234.151 276.809C234.025 276.733 233.878 276.695 233.709 276.695C233.529 276.695 233.371 276.739 233.235 276.826C233.099 276.912 232.993 277.026 232.917 277.167C232.842 277.306 232.804 277.459 232.803 277.626V278.144C232.803 278.361 232.842 278.547 232.922 278.702C233.001 278.856 233.112 278.975 233.255 279.057C233.397 279.138 233.564 279.179 233.755 279.179C233.883 279.179 233.999 279.161 234.103 279.125C234.206 279.088 234.296 279.034 234.372 278.962C234.449 278.891 234.506 278.803 234.545 278.698L235.366 278.79C235.314 279.007 235.216 279.196 235.07 279.358C234.926 279.519 234.741 279.644 234.516 279.733C234.291 279.82 234.033 279.864 233.743 279.864ZM237.664 275.57V274.815H241.635V275.57H240.097V279.791H239.203V275.57H237.664ZM242.928 279.866C242.691 279.866 242.478 279.824 242.289 279.74C242.101 279.654 241.952 279.528 241.841 279.361C241.733 279.194 241.679 278.988 241.679 278.744C241.679 278.533 241.718 278.359 241.795 278.221C241.873 278.084 241.979 277.973 242.114 277.891C242.248 277.808 242.4 277.746 242.568 277.704C242.738 277.66 242.914 277.628 243.095 277.609C243.314 277.586 243.491 277.566 243.627 277.548C243.764 277.529 243.862 277.5 243.924 277.461C243.987 277.42 244.019 277.358 244.019 277.274V277.259C244.019 277.076 243.964 276.934 243.856 276.834C243.747 276.733 243.591 276.683 243.387 276.683C243.171 276.683 243.001 276.73 242.874 276.824C242.749 276.918 242.665 277.029 242.621 277.157L241.8 277.04C241.865 276.814 241.972 276.624 242.121 276.472C242.27 276.318 242.452 276.203 242.668 276.127C242.883 276.049 243.121 276.01 243.382 276.01C243.562 276.01 243.741 276.031 243.919 276.073C244.097 276.115 244.26 276.185 244.407 276.282C244.555 276.378 244.673 276.508 244.762 276.673C244.853 276.839 244.898 277.045 244.898 277.293V279.791H244.053V279.278H244.024C243.97 279.382 243.895 279.479 243.798 279.57C243.702 279.659 243.581 279.731 243.435 279.786C243.291 279.84 243.122 279.866 242.928 279.866ZM243.156 279.22C243.333 279.22 243.486 279.185 243.615 279.115C243.745 279.044 243.845 278.95 243.914 278.834C243.985 278.717 244.021 278.59 244.021 278.452V278.012C243.994 278.035 243.947 278.056 243.88 278.075C243.815 278.095 243.742 278.112 243.661 278.127C243.58 278.141 243.5 278.154 243.421 278.165C243.342 278.177 243.273 278.186 243.214 278.195C243.083 278.212 242.966 278.242 242.862 278.282C242.758 278.323 242.677 278.379 242.617 278.452C242.557 278.523 242.527 278.616 242.527 278.729C242.527 278.891 242.586 279.013 242.704 279.096C242.822 279.179 242.973 279.22 243.156 279.22ZM248.733 277.045L247.931 277.133C247.908 277.052 247.868 276.976 247.812 276.904C247.757 276.833 247.682 276.775 247.588 276.732C247.494 276.688 247.379 276.666 247.243 276.666C247.06 276.666 246.906 276.706 246.781 276.785C246.658 276.865 246.598 276.967 246.599 277.094C246.598 277.202 246.637 277.291 246.718 277.359C246.801 277.427 246.937 277.483 247.127 277.526L247.763 277.662C248.116 277.739 248.379 277.859 248.55 278.024C248.724 278.19 248.811 278.406 248.813 278.673C248.811 278.908 248.742 279.115 248.606 279.295C248.472 279.474 248.285 279.613 248.045 279.713C247.805 279.814 247.53 279.864 247.219 279.864C246.762 279.864 246.394 279.768 246.116 279.577C245.837 279.384 245.671 279.116 245.618 278.773L246.475 278.69C246.514 278.859 246.597 278.986 246.723 279.072C246.85 279.158 247.014 279.201 247.216 279.201C247.425 279.201 247.593 279.158 247.719 279.072C247.847 278.986 247.911 278.88 247.911 278.753C247.911 278.647 247.87 278.558 247.787 278.489C247.706 278.419 247.58 278.365 247.408 278.328L246.772 278.195C246.414 278.12 246.149 277.994 245.977 277.818C245.805 277.64 245.72 277.415 245.722 277.142C245.72 276.912 245.783 276.713 245.909 276.545C246.037 276.375 246.215 276.243 246.441 276.151C246.67 276.057 246.933 276.01 247.231 276.01C247.668 276.01 248.013 276.103 248.264 276.289C248.516 276.476 248.673 276.728 248.733 277.045ZM250.34 278.62L250.338 277.558H250.479L251.82 276.059H252.848L251.198 277.896H251.016L250.34 278.62ZM249.538 279.791V274.815H250.418V279.791H249.538ZM251.881 279.791L250.666 278.092L251.259 277.473L252.933 279.791H251.881Z" fill="white"/>
</g>
<path d="M12.5 20.4932C12.5 9.7236 21.2304 0.993164 32 0.993164H253C263.77 0.993164 272.5 9.72361 272.5 20.4932V275.499C272.5 286.268 263.77 294.999 253 294.999H32C21.2304 294.999 12.5 286.268 12.5 275.499V20.4932Z" stroke="#EAECF0"/>
<path d="M12.5 20.4932C12.5 9.7236 21.2304 0.993164 32 0.993164H253C263.77 0.993164 272.5 9.72361 272.5 20.4932V275.499C272.5 286.268 263.77 294.999 253 294.999H32C21.2304 294.999 12.5 286.268 12.5 275.499V20.4932Z" stroke="url(#paint0_linear_3285_276432)"/>
</g>
<defs>
<filter id="filter0_dd_3285_276432" x="0" y="0.493164" width="285" height="319.006" filterUnits="userSpaceOnUse" color-interpolation-filters="sRGB">
<feFlood flood-opacity="0" result="BackgroundImageFix"/>
<feColorMatrix in="SourceAlpha" type="matrix" values="0 0 0 0 0 0 0 0 0 0 0 0 0 0 0 0 0 0 127 0" result="hardAlpha"/>
<feMorphology radius="2" operator="erode" in="SourceAlpha" result="effect1_dropShadow_3285_276432"/>
<feOffset dy="4"/>
<feGaussianBlur stdDeviation="3"/>
<feColorMatrix type="matrix" values="0 0 0 0 0.0627451 0 0 0 0 0.0941176 0 0 0 0 0.156863 0 0 0 0.03 0"/>
<feBlend mode="normal" in2="BackgroundImageFix" result="effect1_dropShadow_3285_276432"/>
<feColorMatrix in="SourceAlpha" type="matrix" values="0 0 0 0 0 0 0 0 0 0 0 0 0 0 0 0 0 0 127 0" result="hardAlpha"/>
<feMorphology radius="4" operator="erode" in="SourceAlpha" result="effect2_dropShadow_3285_276432"/>
<feOffset dy="12"/>
<feGaussianBlur stdDeviation="8"/>
<feColorMatrix type="matrix" values="0 0 0 0 0.0627451 0 0 0 0 0.0941176 0 0 0 0 0.156863 0 0 0 0.08 0"/>
<feBlend mode="normal" in2="effect1_dropShadow_3285_276432" result="effect2_dropShadow_3285_276432"/>
<feBlend mode="normal" in="SourceGraphic" in2="effect2_dropShadow_3285_276432" result="shape"/>
</filter>
<linearGradient id="paint0_linear_3285_276432" x1="142.5" y1="0.493164" x2="142.5" y2="295.499" gradientUnits="userSpaceOnUse">
<stop stop-color="#FFB258"/>
<stop offset="1" stop-color="#1AB3FF"/>
</linearGradient>
<clipPath id="clip0_3285_276432">
<path d="M12 20.4932C12 9.44746 20.9543 0.493164 32 0.493164H253C264.046 0.493164 273 9.44747 273 20.4932V275.499C273 286.544 264.046 295.499 253 295.499H32C20.9543 295.499 12 286.544 12 275.499V20.4932Z" fill="white"/>
</clipPath>
</defs>
</svg>
