<svg width="40" height="40" viewBox="0 0 40 40" fill="none" xmlns="http://www.w3.org/2000/svg">
<g clip-path="url(#clip0_4193_371761)">
<rect width="40" height="40" rx="20" fill="white"/>
<path d="M20.3335 16.7395C22.3022 16.7395 23.9272 18.3645 23.9272 20.3333C23.9272 22.3333 22.3022 23.927 20.3335 23.927C18.3335 23.927 16.7397 22.3333 16.7397 20.3333C16.7397 18.3645 18.3335 16.7395 20.3335 16.7395ZM20.3335 22.677C21.6147 22.677 22.646 21.6458 22.646 20.3333C22.646 19.052 21.6147 18.0208 20.3335 18.0208C19.021 18.0208 17.9897 19.052 17.9897 20.3333C17.9897 21.6458 19.0522 22.677 20.3335 22.677ZM24.896 16.6145C24.896 17.0833 24.521 17.4583 24.0522 17.4583C23.5835 17.4583 23.2085 17.0833 23.2085 16.6145C23.2085 16.1458 23.5835 15.7708 24.0522 15.7708C24.521 15.7708 24.896 16.1458 24.896 16.6145ZM27.271 17.4583C27.3335 18.6145 27.3335 22.0833 27.271 23.2395C27.2085 24.3645 26.9585 25.3333 26.146 26.177C25.3335 26.9895 24.3335 27.2395 23.2085 27.302C22.0522 27.3645 18.5835 27.3645 17.4272 27.302C16.3022 27.2395 15.3335 26.9895 14.4897 26.177C13.6772 25.3333 13.4272 24.3645 13.3647 23.2395C13.3022 22.0833 13.3022 18.6145 13.3647 17.4583C13.4272 16.3333 13.6772 15.3333 14.4897 14.5208C15.3335 13.7083 16.3022 13.4583 17.4272 13.3958C18.5835 13.3333 22.0522 13.3333 23.2085 13.3958C24.3335 13.4583 25.3335 13.7083 26.146 14.5208C26.9585 15.3333 27.2085 16.3333 27.271 17.4583ZM25.771 24.4583C26.146 23.552 26.0522 21.3645 26.0522 20.3333C26.0522 19.3333 26.146 17.1458 25.771 16.2083C25.521 15.6145 25.0522 15.1145 24.4585 14.8958C23.521 14.5208 21.3335 14.6145 20.3335 14.6145C19.3022 14.6145 17.1147 14.5208 16.2085 14.8958C15.5835 15.1458 15.1147 15.6145 14.8647 16.2083C14.4897 17.1458 14.5835 19.3333 14.5835 20.3333C14.5835 21.3645 14.4897 23.552 14.8647 24.4583C15.1147 25.0833 15.5835 25.552 16.2085 25.802C17.1147 26.177 19.3022 26.0833 20.3335 26.0833C21.3335 26.0833 23.521 26.177 24.4585 25.802C25.0522 25.552 25.5522 25.0833 25.771 24.4583Z" fill="#888E9E"/>
</g>
<defs>
<clipPath id="clip0_4193_371761">
<rect width="40" height="40" fill="white"/>
</clipPath>
</defs>
</svg>
