<svg width="40" height="40" viewBox="0 0 40 40" fill="none" xmlns="http://www.w3.org/2000/svg">
<g clip-path="url(#clip0_4193_371764)">
<rect width="40" height="40" rx="20" fill="white"/>
<path d="M26.3335 13.3333C26.8647 13.3333 27.3335 13.802 27.3335 14.3645V26.3333C27.3335 26.8958 26.8647 27.3333 26.3335 27.3333H14.3022C13.771 27.3333 13.3335 26.8958 13.3335 26.3333V14.3645C13.3335 13.802 13.771 13.3333 14.3022 13.3333H26.3335ZM17.5522 25.3333V18.677H15.4897V25.3333H17.5522ZM16.521 17.7395C17.1772 17.7395 17.7085 17.2083 17.7085 16.552C17.7085 15.8958 17.1772 15.3333 16.521 15.3333C15.8335 15.3333 15.3022 15.8958 15.3022 16.552C15.3022 17.2083 15.8335 17.7395 16.521 17.7395ZM25.3335 25.3333V21.677C25.3335 19.8958 24.9272 18.4895 22.8335 18.4895C21.8335 18.4895 21.146 19.052 20.8647 19.5833H20.8335V18.677H18.8647V25.3333H20.9272V22.052C20.9272 21.177 21.0835 20.3333 22.1772 20.3333C23.2397 20.3333 23.2397 21.3333 23.2397 22.0833V25.3333H25.3335Z" fill="#888E9E"/>
</g>
<defs>
<clipPath id="clip0_4193_371764">
<rect width="40" height="40" fill="white"/>
</clipPath>
</defs>
</svg>
