<svg xmlns="http://www.w3.org/2000/svg" width="24" height="24" viewBox="0 0 24 24" fill="none">
  <path fill-rule="evenodd" clip-rule="evenodd" d="M21.766 12.7668V14.123C21.766 17.8474 19.6244 19.9828 15.9093 19.9828H11.7244V22.3258H14.904C15.126 22.3258 15.339 22.414 15.4959 22.571C15.6529 22.728 15.7411 22.9409 15.7411 23.1629C15.7411 23.3849 15.6529 23.5978 15.4959 23.7548C15.339 23.9118 15.126 24 14.904 24H6.8619C6.63992 24 6.42705 23.9118 6.27008 23.7548C6.11312 23.5978 6.02492 23.3849 6.02492 23.1629C6.02492 22.9409 6.11312 22.728 6.27008 22.571C6.42705 22.414 6.63992 22.3258 6.8619 22.3258H10.0416V19.9828H5.85673C2.14163 19.9828 0 17.8474 0 14.123V8.0961C0 4.37175 2.14163 2.23637 5.85673 2.23637H8.33712C8.71708 1.53005 9.28906 0.945673 9.98707 0.550786C10.6851 0.155899 11.4806 -0.0333734 12.2817 0.00482358H19.5371C20.1301 -0.0221129 20.7223 0.0749632 21.2757 0.289853C21.8291 0.504742 22.3316 0.832715 22.7512 1.25283C23.1707 1.67294 23.498 2.17595 23.7122 2.72973C23.9264 3.28351 24.0228 3.87589 23.9951 4.46901V8.82173C24.0335 9.62265 23.8446 10.4181 23.4501 11.1162C23.0557 11.8143 22.4718 12.3865 21.766 12.7668ZM7.81253 8.82173V4.46901C7.8124 4.28238 7.82337 4.0959 7.84534 3.91057H5.85673C3.04855 3.91057 1.67169 5.27988 1.67169 8.0961V14.123C1.67169 16.9392 3.04855 18.3086 5.85673 18.3086H15.9093C18.7175 18.3086 20.0942 16.9392 20.0942 14.123V13.2575C19.9084 13.2761 19.7228 13.2859 19.5371 13.2859H16.8818L13.866 15.2989C13.7443 15.3792 13.6119 15.4417 13.4726 15.4847C13.418 15.5 13.3634 15.5022 13.3197 15.512C13.2263 15.5337 13.1312 15.5469 13.0356 15.5514C13.0246 15.5514 13.0137 15.5568 13.0027 15.5568C12.922 15.5524 12.8417 15.5422 12.7624 15.5262C12.7296 15.5197 12.6859 15.5262 12.6422 15.5109C12.5088 15.4798 12.3802 15.4309 12.2598 15.3656C12.013 15.2327 11.8065 15.0356 11.6622 14.7952C11.518 14.5548 11.4414 14.2799 11.4403 13.9995V13.2204C10.5386 13.092 9.70078 12.6811 9.04726 12.0467C8.63893 11.6172 8.31961 11.1111 8.1077 10.5576C7.89579 10.0041 7.79547 9.41416 7.81253 8.82173ZM22.3233 4.46901C22.3538 4.09513 22.3027 3.7191 22.1735 3.36693C22.0443 3.01476 21.8402 2.69486 21.5751 2.4294C21.3101 2.16394 20.9906 1.95926 20.6387 1.82951C20.2867 1.69975 19.9109 1.64803 19.5371 1.67793H12.2817C11.7234 1.63301 11.1656 1.7723 10.694 2.07447C10.2224 2.37663 9.86278 2.82504 9.67016 3.35105C9.54557 3.71054 9.48271 4.08854 9.48435 4.46901V8.82173C9.45497 9.19626 9.50718 9.57271 9.63748 9.92507C9.76777 10.2774 9.97306 10.5973 10.239 10.8626C10.505 11.1278 10.8254 11.3322 11.1781 11.4616C11.5307 11.5909 11.9073 11.6421 12.2817 11.6117C12.3912 11.6121 12.4995 11.6341 12.6005 11.6764C12.7014 11.7187 12.793 11.7805 12.8702 11.8583C12.9473 11.936 13.0083 12.0281 13.0498 12.1295C13.0913 12.2308 13.1125 12.3393 13.1121 12.4488V13.7897L16.1606 11.7527C16.3005 11.6618 16.4636 11.6129 16.6305 11.6117H19.5371C19.9159 11.6146 20.2924 11.5544 20.6515 11.4336C21.1762 11.2392 21.6232 10.8791 21.9249 10.4078C22.2266 9.93649 22.3664 9.37967 22.3233 8.82173V4.46901ZM19.2529 7.53766C19.0306 7.53738 18.8174 7.44924 18.6598 7.29244C18.5022 7.13563 18.413 6.92289 18.4116 6.70057C18.4111 6.59107 18.4322 6.48255 18.4737 6.38122C18.5152 6.27989 18.5763 6.18773 18.6534 6.11C18.7305 6.03226 18.8222 5.97049 18.9232 5.92819C19.0242 5.88589 19.1325 5.86388 19.242 5.86345H19.2529C19.4749 5.86345 19.6878 5.95166 19.8448 6.10865C20.0017 6.26563 20.0899 6.47855 20.0899 6.70057C20.0899 6.92258 20.0017 7.1355 19.8448 7.29249C19.6878 7.44947 19.4749 7.53766 19.2529 7.53766ZM16.1387 7.53766C15.9148 7.53941 15.6993 7.45226 15.5396 7.29534C15.3798 7.13841 15.2888 6.92452 15.2865 6.70057C15.2864 6.59023 15.308 6.48095 15.3503 6.37903C15.3926 6.27712 15.4547 6.18458 15.5329 6.10676C15.6111 6.02894 15.7039 5.96738 15.8061 5.92562C15.9082 5.88386 16.0175 5.86273 16.1278 5.86345H16.1387C16.3607 5.86345 16.5737 5.95166 16.7307 6.10865C16.8876 6.26563 16.9757 6.47855 16.9757 6.70057C16.9757 6.92258 16.8876 7.1355 16.7307 7.29249C16.5737 7.44947 16.3607 7.53766 16.1387 7.53766ZM13.0027 7.53766C12.7808 7.53766 12.5679 7.44947 12.4109 7.29249C12.254 7.1355 12.1658 6.92258 12.1658 6.70057C12.1658 6.47855 12.254 6.26563 12.4109 6.10865C12.5679 5.95166 12.7808 5.86345 13.0027 5.86345C13.2247 5.86345 13.4377 5.95166 13.5947 6.10865C13.7517 6.26563 13.8397 6.47855 13.8397 6.70057C13.8397 6.92258 13.7517 7.1355 13.5947 7.29249C13.4377 7.44947 13.2247 7.53766 13.0027 7.53766Z" fill="#757B8A"/>
</svg>