<svg xmlns="http://www.w3.org/2000/svg" width="20" height="24" viewBox="0 0 20 24" fill="none">
  <path d="M9.99653 10.6669C10.9784 10.6669 11.7743 9.87095 11.7743 8.88911C11.7743 7.90727 10.9784 7.11133 9.99653 7.11133C9.01469 7.11133 8.21875 7.90727 8.21875 8.88911C8.21875 9.87095 9.01469 10.6669 9.99653 10.6669Z" stroke="#888E9E" stroke-width="1.5" stroke-miterlimit="10" stroke-linecap="round" stroke-linejoin="round"/>
  <path d="M4.66493 11.4667C2.97604 12.8 1.64271 14.6667 1.10938 16.8889H3.15382C4.48715 16.8889 5.46493 15.6444 5.10938 14.4C4.75382 13.1556 4.57604 11.9111 4.57604 10.5778C4.66493 5.68889 6.88715 1.51111 9.99826 0C13.1094 1.51111 15.3316 5.68889 15.3316 10.4889C15.3316 11.8222 15.1538 13.1556 14.7983 14.3111C14.4427 15.5556 15.4205 16.8 16.7538 16.8H18.8872C18.3538 14.5778 17.0205 12.6222 15.3316 11.3778" stroke="#888E9E" stroke-width="1.5" stroke-miterlimit="10" stroke-linecap="round" stroke-linejoin="round"/>
  <path d="M10 16.8887V23.9998" stroke="#888E9E" stroke-width="1.5" stroke-miterlimit="10" stroke-linecap="round" stroke-linejoin="round"/>
  <path d="M7.32812 18.667V22.2225" stroke="#888E9E" stroke-width="1.5" stroke-miterlimit="10" stroke-linecap="round" stroke-linejoin="round"/>
  <path d="M12.6641 18.667V22.2225" stroke="#888E9E" stroke-width="1.5" stroke-miterlimit="10" stroke-linecap="round" stroke-linejoin="round"/>
</svg>