<svg xmlns="http://www.w3.org/2000/svg" width="28" height="26" viewBox="0 0 28 26" fill="none">
  <path d="M4.2 10.6L5.35435 3.67392C5.61152 2.13093 6.94653 1 8.5108 1H19.0891C20.6534 1 21.9885 2.13093 22.2456 3.67392L23.4 10.6M4.2 10.6H23.4M4.2 10.6C2.43269 10.6 1 12.0326 1 13.8V17C1 18.7674 2.43269 20.2 4.2 20.2M23.4 10.6C25.1674 10.6 26.6 12.0326 26.6 13.8V17C26.6 18.7674 25.1674 20.2 23.4 20.2M4.2 20.2H23.4M4.2 20.2V22.6002C4.2 23.9254 5.27448 25 6.59992 25C7.92536 25 8.99984 23.9254 8.99984 22.6002V20.2H4.2ZM23.4 20.2L23.3998 22.6002C23.3998 23.9254 22.3253 25 20.9998 25C19.6744 25 18.6 23.9254 18.6 22.6002V20.2H23.4Z" stroke="#888E9E" stroke-width="1.125"/>
</svg>