<svg xmlns="http://www.w3.org/2000/svg" width="24" height="24" viewBox="0 0 24 24" fill="none">
  <path d="M23.4497 3.53527C23.3463 3.31271 23.1406 3.15275 22.8981 3.10909C22.8544 3.10121 22.81 3.09766 22.7659 3.09766C22.5646 3.09766 22.3763 3.17588 22.234 3.31741L20.1936 5.35915L18.751 5.2487L18.6398 3.80576L20.6803 1.76489C20.8545 1.59148 20.9327 1.3434 20.8891 1.0993C20.845 0.856712 20.685 0.651497 20.4617 0.549649C19.6742 0.190324 18.7994 0 17.9329 0C16.317 0 14.7974 0.629089 13.6545 1.77154C11.9942 3.43263 11.4473 5.81519 12.2096 8.02116L0.663386 19.5667C-0.213349 20.4434 -0.222384 21.8627 0.644158 22.7297L1.26811 23.3548C1.68447 23.7704 2.23997 24 2.83285 24C3.43599 24 4.00407 23.7641 4.43185 23.3364L15.9785 11.7889C16.6123 12.0063 17.2748 12.116 17.9502 12.116C19.5657 12.116 21.0857 11.4862 22.2286 10.3436C24.0068 8.56495 24.4979 5.82899 23.4497 3.53527ZM17.949 10.6129C17.3066 10.6121 16.6842 10.4808 16.0992 10.2229C16.0028 10.18 15.9002 10.1576 15.7953 10.1576C15.5948 10.1576 15.406 10.2366 15.2641 10.3789L8.79195 16.8499H8.78726L3.36638 22.2704C3.22167 22.4155 3.03062 22.4953 2.82974 22.4953C2.63985 22.4953 2.46254 22.4229 2.33163 22.2916L1.70688 21.6673C1.42772 21.3878 1.43719 20.9231 1.72893 20.6321L7.14865 15.2117V15.2078L13.622 8.73446C13.8417 8.51269 13.9023 8.18481 13.7765 7.90059C13.0087 6.16128 13.3782 4.17267 14.7185 2.83318C15.5768 1.97451 16.7186 1.50156 17.9338 1.50156C18.2059 1.50156 18.478 1.52635 18.7461 1.57471L17.3338 2.98693C17.1781 3.14219 17.098 3.35688 17.1148 3.57669L17.302 6.00566C17.3307 6.3764 17.6212 6.66771 17.9939 6.69763L20.4236 6.88441C20.4421 6.886 20.461 6.8868 20.4799 6.8868C20.678 6.8868 20.8719 6.8062 21.0126 6.66547L22.424 5.25405C22.6839 6.71541 22.2196 8.22753 21.1667 9.28078C20.3064 10.1399 19.1634 10.6129 17.949 10.6129Z" fill="#757B8A"/>
</svg>