<svg width="21" height="21" viewBox="0 0 21 21" fill="none" xmlns="http://www.w3.org/2000/svg">
<path fill-rule="evenodd" clip-rule="evenodd" d="M10.0342 1.89453C11.4149 1.89453 12.5342 3.01382 12.5342 4.39453L12.5343 5.37009C12.7949 5.27798 13.0753 5.22786 13.3675 5.22786H16.7008C18.0816 5.22786 19.2008 6.34715 19.2008 7.72786V16.0612C19.2008 17.4419 18.0816 18.5612 16.7008 18.5612H5.03418C3.65347 18.5612 2.53418 17.4419 2.53418 16.0612V4.39453C2.53418 3.01382 3.65347 1.89453 5.03418 1.89453H10.0342ZM10.0342 3.5612H5.03418C4.57394 3.5612 4.20085 3.93429 4.20085 4.39453V16.0612C4.20085 16.5214 4.57394 16.8945 5.03418 16.8945H10.8675V4.39453C10.8675 3.93429 10.4944 3.5612 10.0342 3.5612ZM16.7008 6.89453H13.3675C12.9073 6.89453 12.5342 7.26763 12.5342 7.72786V16.8945H16.7008C17.1611 16.8945 17.5342 16.5214 17.5342 16.0612V7.72786C17.5342 7.26763 17.1611 6.89453 16.7008 6.89453ZM8.36751 11.8945C8.82775 11.8945 9.20085 12.2676 9.20085 12.7279C9.20085 13.1881 8.82775 13.5612 8.36751 13.5612H6.70085C6.24061 13.5612 5.86751 13.1881 5.86751 12.7279C5.86751 12.2676 6.24061 11.8945 6.70085 11.8945H8.36751ZM15.8675 11.8945C16.3278 11.8945 16.7008 12.2676 16.7008 12.7279C16.7008 13.1881 16.3278 13.5612 15.8675 13.5612H14.2008C13.7406 13.5612 13.3675 13.1881 13.3675 12.7279C13.3675 12.2676 13.7406 11.8945 14.2008 11.8945H15.8675ZM8.36751 8.5612C8.82775 8.5612 9.20085 8.93429 9.20085 9.39453C9.20085 9.85477 8.82775 10.2279 8.36751 10.2279H6.70085C6.24061 10.2279 5.86751 9.85477 5.86751 9.39453C5.86751 8.93429 6.24061 8.5612 6.70085 8.5612H8.36751ZM15.8675 8.5612C16.3278 8.5612 16.7008 8.93429 16.7008 9.39453C16.7008 9.85477 16.3278 10.2279 15.8675 10.2279H14.2008C13.7406 10.2279 13.3675 9.85477 13.3675 9.39453C13.3675 8.93429 13.7406 8.5612 14.2008 8.5612H15.8675ZM8.36751 5.22786C8.82775 5.22786 9.20085 5.60096 9.20085 6.0612C9.20085 6.52144 8.82775 6.89453 8.36751 6.89453H6.70085C6.24061 6.89453 5.86751 6.52144 5.86751 6.0612C5.86751 5.60096 6.24061 5.22786 6.70085 5.22786H8.36751Z" fill="url(#paint0_linear_765_125363)"/>
<defs>
<linearGradient id="paint0_linear_765_125363" x1="10.8675" y1="1.89453" x2="10.8675" y2="18.5612" gradientUnits="userSpaceOnUse">
<stop stop-color="#1AB3FF"/>
<stop offset="1" stop-color="#FFB258"/>
</linearGradient>
</defs>
</svg>
