<svg width="22" height="22" viewBox="0 0 22 22" fill="none" xmlns="http://www.w3.org/2000/svg">
<g id="Job-Approval_ 1">
<path id="Job Approval" fill-rule="evenodd" clip-rule="evenodd" d="M13.2316 19H8.76763C4.72481 19 3 17.2752 3 13.2324V8.76692C3 4.72483 4.72481 3 8.76763 3H13.2331C17.2759 3 19 4.72483 19 8.76692V13.2324C18.9985 17.2752 17.2744 19 13.2316 19ZM17.8836 8.76692C17.8836 5.33329 16.666 4.11562 13.2316 4.11562H8.76763C5.334 4.11562 4.11635 5.33329 4.11635 8.76692V13.2324C4.11635 16.6667 5.334 17.8836 8.76763 17.8836H13.2331C16.6674 17.8836 17.8851 16.6667 17.8851 13.2324V8.76692H17.8836ZM10.3372 13.5035C10.2855 13.5553 10.224 13.5965 10.1563 13.6246C10.0886 13.6527 10.0159 13.6671 9.94265 13.6671C9.86934 13.6671 9.79678 13.6527 9.72907 13.6246C9.66136 13.5965 9.59983 13.5553 9.54805 13.5035L7.44139 11.3975C7.3876 11.3461 7.3446 11.2845 7.31495 11.2163C7.2853 11.1481 7.26959 11.0746 7.26874 11.0002C7.26788 10.9259 7.2819 10.8521 7.30997 10.7832C7.33804 10.7143 7.37959 10.6517 7.43219 10.5991C7.48478 10.5465 7.54739 10.505 7.61627 10.4769C7.68516 10.4488 7.75894 10.4348 7.83332 10.4357C7.9077 10.4365 7.98116 10.4523 8.04938 10.4819C8.1176 10.5116 8.17921 10.5545 8.23058 10.6083L9.94229 12.32L13.7672 8.50166C13.8191 8.44984 13.8806 8.40876 13.9484 8.38073C14.0161 8.35271 14.0887 8.33831 14.1621 8.33834C14.2354 8.33838 14.308 8.35282 14.3757 8.38091C14.4434 8.409 14.505 8.45015 14.5568 8.50202C14.6086 8.55388 14.6497 8.61546 14.6777 8.68321C14.7057 8.75096 14.7201 8.82356 14.7201 8.89688C14.7201 8.97019 14.7056 9.04277 14.6775 9.1105C14.6494 9.17822 14.6082 9.23974 14.5564 9.29156L10.3372 13.5035Z" fill="#757B8A"/>
</g>
</svg>
