<svg xmlns="http://www.w3.org/2000/svg" width="24" height="24" viewBox="0 0 24 24" fill="none">
  <path fill-rule="evenodd" clip-rule="evenodd" d="M19.797 23.9749H17.5697C17.0053 24.0403 16.4333 23.9773 15.8967 23.7905C15.3601 23.6038 14.8726 23.298 14.4708 22.8963C14.0691 22.4945 13.7633 22.007 13.5765 21.4704C13.3897 20.9338 13.3267 20.3619 13.3922 19.7975V17.5724C13.3267 17.008 13.3897 16.4361 13.5765 15.8995C13.7633 15.3629 14.0691 14.8755 14.4708 14.4737C14.8726 14.0719 15.3601 13.7662 15.8967 13.5794C16.4333 13.3926 17.0053 13.3296 17.5697 13.395H19.797C20.3614 13.3296 20.9333 13.3926 21.47 13.5794C22.0066 13.7662 22.494 14.0719 22.8958 14.4737C23.2976 14.8755 23.6033 15.3629 23.7901 15.8995C23.9769 16.4361 24.04 17.008 23.9745 17.5724V19.8007C24.0394 20.3649 23.976 20.9365 23.7889 21.4727C23.6019 22.0089 23.2961 22.4959 22.8944 22.8973C22.4927 23.2987 22.0054 23.6041 21.4691 23.7907C20.9327 23.9773 20.3611 24.0402 19.797 23.9749ZM22.3057 17.5692C22.3057 15.8131 21.5563 15.0605 19.797 15.0605H17.5697C15.8125 15.0605 15.061 15.8109 15.061 17.5692V19.7975C15.061 21.5535 15.8103 22.3061 17.5697 22.3061H19.797C21.5541 22.3061 22.3057 21.5557 22.3057 19.7975V17.5724V17.5692ZM19.797 10.6072H17.5697C17.0053 10.6728 16.4334 10.6099 15.8968 10.4233C15.3601 10.2366 14.8727 9.93101 14.4708 9.52931C14.069 9.12761 13.7633 8.64026 13.5765 8.10368C13.3897 7.5671 13.3267 6.99521 13.3922 6.43083V4.20252C13.3267 3.6381 13.3897 3.06619 13.5765 2.52957C13.7633 1.99295 14.0691 1.50552 14.4708 1.10374C14.8726 0.701963 15.3601 0.396241 15.8967 0.20945C16.4333 0.0226582 17.0053 -0.0403409 17.5697 0.0251129H19.797C20.3614 -0.0403409 20.9333 0.0226582 21.47 0.20945C22.0066 0.396241 22.494 0.701963 22.8958 1.10374C23.2976 1.50552 23.6033 1.99295 23.7901 2.52957C23.9769 3.06619 24.04 3.6381 23.9745 4.20252V6.43083C24.0405 6.99546 23.9779 7.56772 23.7913 8.10471C23.6048 8.6417 23.2991 9.1295 22.8973 9.53157C22.4954 9.93365 22.0077 10.2396 21.4708 10.4264C20.9339 10.6133 20.3616 10.6762 19.797 10.6104V10.6072ZM22.3057 4.20252C22.3057 2.44538 21.5563 1.6939 19.797 1.6939H17.5697C15.8125 1.6939 15.061 2.4432 15.061 4.20252V6.43083C15.061 8.18688 15.8103 8.93949 17.5697 8.93949H19.797C21.5541 8.93949 22.3057 8.19015 22.3057 6.43083V4.20252ZM6.43 23.9749H4.20163C3.63724 24.0404 3.06537 23.9774 2.52878 23.7906C1.99219 23.6038 1.50479 23.298 1.10308 22.8962C0.701372 22.4944 0.395761 22.007 0.209102 21.4704C0.0224416 20.9337 -0.0404117 20.3618 0.0252263 19.7975V17.5724C-0.0404117 17.0081 0.0224416 16.4362 0.209102 15.8995C0.395761 15.3629 0.701372 14.8755 1.10308 14.4737C1.50479 14.0719 1.99219 13.7661 2.52878 13.5793C3.06537 13.3925 3.63724 13.3295 4.20163 13.395H6.43C6.99443 13.3296 7.56636 13.3926 8.10299 13.5794C8.63962 13.7662 9.12707 14.0719 9.52885 14.4737C9.93064 14.8755 10.2364 15.3629 10.4232 15.8995C10.61 16.4361 10.673 17.008 10.6075 17.5724V19.8007C10.6725 20.3649 10.609 20.9365 10.422 21.4727C10.235 22.0089 9.92914 22.4959 9.52742 22.8973C9.1257 23.2987 8.63845 23.6041 8.10209 23.7907C7.56573 23.9773 6.99413 24.0402 6.43 23.9749ZM8.93871 17.5692C8.93871 15.8131 8.18936 15.0605 6.43 15.0605H4.20163C2.44555 15.0605 1.69295 15.8109 1.69295 17.5692V19.7975C1.69295 21.5535 2.44227 22.3061 4.20163 22.3061H6.43C8.18718 22.3061 8.93871 21.5557 8.93871 19.7975V17.5724V17.5692ZM6.43 10.6072H4.20163C3.63734 10.6726 3.06558 10.6096 2.52908 10.4229C1.99258 10.2362 1.50523 9.93052 1.10355 9.52884C0.70186 9.12717 0.396241 8.63987 0.209501 8.10338C0.0227612 7.56689 -0.0402329 6.99511 0.0252263 6.43083V4.20252C-0.0404117 3.63816 0.0224416 3.06626 0.209102 2.52964C0.395761 1.99301 0.701372 1.50558 1.10308 1.10377C1.50479 0.70197 1.99219 0.396212 2.52878 0.209416C3.06537 0.0226208 3.63724 -0.0403763 4.20163 0.0251129H6.43C6.99443 -0.0403409 7.56636 0.0226582 8.10299 0.20945C8.63962 0.396241 9.12707 0.701963 9.52885 1.10374C9.93064 1.50552 10.2364 1.99295 10.4232 2.52957C10.61 3.06619 10.673 3.6381 10.6075 4.20252V6.43083C10.6736 6.99546 10.611 7.56772 10.4244 8.10471C10.2378 8.6417 9.93216 9.1295 9.53028 9.53157C9.12841 9.93365 8.64073 10.2396 8.10382 10.4264C7.56691 10.6133 6.99468 10.6762 6.43 10.6104V10.6072ZM8.93871 4.20252C8.93871 2.44538 8.18936 1.6939 6.43 1.6939H4.20163C2.44555 1.6939 1.69295 2.4432 1.69295 4.20252V6.43083C1.69295 8.18688 2.44227 8.93949 4.20163 8.93949H6.43C8.18718 8.93949 8.93871 8.19015 8.93871 6.43083V4.20252Z" fill="#757B8A"/>
</svg>