<svg width="315" height="377" viewBox="0 0 315 377" fill="none" xmlns="http://www.w3.org/2000/svg">
<g filter="url(#filter0_d_765_136036)">
<g clip-path="url(#clip0_765_136036)">
<rect x="41.333" y="38.2393" width="231.667" height="293.333" rx="18.6555" fill="white"/>
<g clip-path="url(#clip1_765_136036)">
<rect width="231.667" height="293.333" transform="translate(41.333 38.2393)" fill="white"/>
<rect x="41.7497" y="38.6559" width="230.833" height="292.5" stroke="#EAECF0" stroke-width="0.833333"/>
<path d="M65.6935 65.4058V56.9209H66.7209V64.4943H70.6651V65.4058H65.6935ZM74.9082 65.5383C74.295 65.5383 73.7661 65.403 73.3214 65.1323C72.8795 64.8589 72.5384 64.4777 72.2981 63.9889C72.0605 63.4972 71.9418 62.9255 71.9418 62.2737C71.9418 61.6218 72.0605 61.0473 72.2981 60.5502C72.5384 60.0503 72.8726 59.6608 73.3007 59.3819C73.7315 59.1001 74.2342 58.9593 74.8087 58.9593C75.1402 58.9593 75.4675 59.0145 75.7906 59.125C76.1138 59.2355 76.4079 59.415 76.6731 59.6636C76.9382 59.9094 77.1495 60.2353 77.3069 60.6413C77.4644 61.0473 77.5431 61.5473 77.5431 62.1411V62.5554H72.6378V61.7102H76.5488C76.5488 61.3512 76.477 61.0308 76.3333 60.749C76.1925 60.4673 75.9909 60.245 75.7285 60.082C75.4688 59.9191 75.1623 59.8376 74.8087 59.8376C74.4193 59.8376 74.0823 59.9342 73.7978 60.1276C73.5161 60.3182 73.2993 60.5667 73.1474 60.8733C72.9955 61.1799 72.9195 61.5086 72.9195 61.8594V62.4228C72.9195 62.9034 73.0024 63.3108 73.1681 63.645C73.3366 63.9764 73.57 64.2292 73.8683 64.4032C74.1666 64.5744 74.5132 64.66 74.9082 64.66C75.165 64.66 75.397 64.6241 75.6042 64.5523C75.8141 64.4777 75.995 64.3673 76.1469 64.2209C76.2988 64.0717 76.4162 63.8867 76.4991 63.6657L77.4437 63.9309C77.3442 64.2512 77.1771 64.533 76.9424 64.776C76.7076 65.0163 76.4176 65.2041 76.0723 65.3395C75.7271 65.472 75.339 65.5383 74.9082 65.5383ZM81.0197 65.5549C80.6165 65.5549 80.2505 65.479 79.9218 65.327C79.5932 65.1724 79.3322 64.95 79.1388 64.66C78.9455 64.3673 78.8488 64.0137 78.8488 63.5994C78.8488 63.2348 78.9206 62.9393 79.0642 62.7128C79.2079 62.4836 79.3998 62.304 79.6401 62.1742C79.8804 62.0444 80.1456 61.9477 80.4356 61.8842C80.7283 61.8179 81.0225 61.7655 81.318 61.7268C81.7047 61.6771 82.0182 61.6398 82.2585 61.6149C82.5015 61.5873 82.6783 61.5417 82.7888 61.4782C82.902 61.4147 82.9587 61.3042 82.9587 61.1468V61.1136C82.9587 60.7048 82.8468 60.3872 82.6231 60.1607C82.4021 59.9342 82.0665 59.821 81.6163 59.821C81.1495 59.821 80.7836 59.9232 80.5184 60.1276C80.2533 60.332 80.0668 60.5502 79.9591 60.7822L79.0311 60.4507C79.1968 60.0641 79.4178 59.763 79.694 59.5476C79.9729 59.3294 80.2768 59.1775 80.6054 59.0918C80.9369 59.0035 81.2628 58.9593 81.5832 58.9593C81.7876 58.9593 82.0223 58.9841 82.2875 59.0338C82.5554 59.0808 82.8136 59.1788 83.0622 59.328C83.3136 59.4771 83.5221 59.7022 83.6878 60.0033C83.8535 60.3044 83.9364 60.7076 83.9364 61.2131V65.4058H82.9587V64.544H82.9089C82.8426 64.6821 82.7322 64.8299 82.5775 64.9873C82.4228 65.1448 82.2171 65.2787 81.9602 65.3892C81.7033 65.4997 81.3898 65.5549 81.0197 65.5549ZM81.1689 64.6766C81.5556 64.6766 81.8815 64.6006 82.1466 64.4487C82.4145 64.2968 82.6162 64.1007 82.7515 63.8604C82.8896 63.6201 82.9587 63.3674 82.9587 63.1023V62.2074C82.9172 62.2571 82.8261 62.3027 82.6852 62.3441C82.5471 62.3828 82.3869 62.4173 82.2046 62.4477C82.0251 62.4753 81.8497 62.5001 81.6785 62.5222C81.51 62.5416 81.3733 62.5581 81.2683 62.572C81.0142 62.6051 80.7767 62.659 80.5557 62.7335C80.3375 62.8053 80.1608 62.9144 80.0254 63.0608C79.8928 63.2045 79.8265 63.4006 79.8265 63.6491C79.8265 63.9889 79.9522 64.2457 80.2036 64.4197C80.4577 64.591 80.7794 64.6766 81.1689 64.6766ZM88.2406 65.5383C87.7103 65.5383 87.2421 65.4044 86.8361 65.1365C86.4301 64.8658 86.1125 64.4846 85.8832 63.993C85.654 63.4986 85.5394 62.9144 85.5394 62.2405C85.5394 61.5721 85.654 60.9921 85.8832 60.5005C86.1125 60.0088 86.4315 59.629 86.8403 59.3611C87.249 59.0932 87.7213 58.9593 88.2572 58.9593C88.6715 58.9593 88.9988 59.0283 89.2391 59.1664C89.4821 59.3018 89.6672 59.4564 89.7942 59.6304C89.924 59.8017 90.0248 59.9425 90.0967 60.053H90.1795V56.9209H91.1573V65.4058H90.2127V64.428H90.0967C90.0248 64.544 89.9226 64.6904 89.7901 64.8672C89.6575 65.0412 89.4683 65.1972 89.2225 65.3353C88.9767 65.4707 88.6494 65.5383 88.2406 65.5383ZM88.3732 64.66C88.7654 64.66 89.0968 64.5578 89.3675 64.3534C89.6382 64.1463 89.8439 63.8604 89.9848 63.4958C90.1257 63.1285 90.1961 62.7045 90.1961 62.2239C90.1961 61.7489 90.127 61.3332 89.9889 60.9769C89.8508 60.6178 89.6464 60.3389 89.3758 60.14C89.1051 59.9384 88.7709 59.8376 88.3732 59.8376C87.9589 59.8376 87.6136 59.9439 87.3374 60.1566C87.064 60.3665 86.8582 60.6524 86.7201 61.0142C86.5848 61.3732 86.5171 61.7765 86.5171 62.2239C86.5171 62.6769 86.5862 63.0884 86.7243 63.4586C86.8651 63.8259 87.0723 64.1187 87.3457 64.3369C87.6219 64.5523 87.9644 64.66 88.3732 64.66Z" fill="#344054"/>
<rect x="64.666" y="76.4058" width="156.5" height="6.66667" rx="3.33333" fill="#EAECF0"/>
<rect x="64.666" y="76.4058" width="4.42253" height="6.66667" rx="2.21127" fill="#1AB2FF"/>
<path d="M235.436 84.3801C234.782 84.3774 234.222 84.2047 233.758 83.8622C233.294 83.5198 232.939 83.0212 232.693 82.3666C232.448 81.712 232.325 80.9235 232.325 80.001C232.325 79.0812 232.448 78.2954 232.693 77.6436C232.942 76.9918 233.298 76.4946 233.762 76.1521C234.229 75.8096 234.787 75.6384 235.436 75.6384C236.085 75.6384 236.642 75.811 237.106 76.1563C237.57 76.4988 237.925 76.9959 238.171 77.6478C238.419 78.2968 238.543 79.0812 238.543 80.001C238.543 80.9262 238.42 81.7162 238.175 82.3708C237.929 83.0226 237.574 83.5211 237.11 83.8664C236.646 84.2089 236.088 84.3801 235.436 84.3801ZM235.436 83.2739C236.011 83.2739 236.459 82.9936 236.783 82.4329C237.109 81.8722 237.271 81.0616 237.271 80.001C237.271 79.2967 237.197 78.7015 237.048 78.2153C236.901 77.7265 236.69 77.3564 236.414 77.105C236.14 76.8509 235.815 76.7239 235.436 76.7239C234.864 76.7239 234.416 77.0056 234.09 77.569C233.764 78.1325 233.599 78.9431 233.597 80.001C233.597 80.708 233.67 81.306 233.816 81.7949C233.965 82.281 234.177 82.6497 234.45 82.9011C234.724 83.1497 235.052 83.2739 235.436 83.2739ZM244.442 82.6483V82.2009C244.442 81.8805 244.508 81.5877 244.641 81.3226C244.776 81.0547 244.972 80.8406 245.229 80.6804C245.489 80.5175 245.802 80.436 246.17 80.436C246.545 80.436 246.86 80.5161 247.114 80.6763C247.368 80.8365 247.56 81.0505 247.69 81.3184C247.823 81.5864 247.889 81.8805 247.889 82.2009V82.6483C247.889 82.9687 247.823 83.2629 247.69 83.5308C247.557 83.796 247.363 84.01 247.106 84.173C246.852 84.3332 246.54 84.4133 246.17 84.4133C245.797 84.4133 245.482 84.3332 245.225 84.173C244.968 84.01 244.773 83.796 244.641 83.5308C244.508 83.2629 244.442 82.9687 244.442 82.6483ZM245.407 82.2009V82.6483C245.407 82.8859 245.464 83.1013 245.577 83.2947C245.69 83.488 245.888 83.5847 246.17 83.5847C246.449 83.5847 246.643 83.488 246.754 83.2947C246.864 83.1013 246.919 82.8859 246.919 82.6483V82.2009C246.919 81.9634 246.866 81.7479 246.758 81.5546C246.653 81.3613 246.457 81.2646 246.17 81.2646C245.893 81.2646 245.697 81.3613 245.581 81.5546C245.465 81.7479 245.407 81.9634 245.407 82.2009ZM240.175 77.7928V77.3453C240.175 77.0249 240.241 76.7308 240.374 76.4629C240.509 76.1949 240.705 75.9809 240.962 75.8207C241.221 75.6605 241.535 75.5804 241.902 75.5804C242.278 75.5804 242.593 75.6605 242.847 75.8207C243.101 75.9809 243.293 76.1949 243.423 76.4629C243.553 76.7308 243.618 77.0249 243.618 77.3453V77.7928C243.618 78.1132 243.551 78.4073 243.419 78.6752C243.289 78.9404 243.095 79.1544 242.839 79.3174C242.585 79.4776 242.272 79.5577 241.902 79.5577C241.527 79.5577 241.21 79.4776 240.954 79.3174C240.699 79.1544 240.506 78.9404 240.374 78.6752C240.241 78.4073 240.175 78.1132 240.175 77.7928ZM241.144 77.3453V77.7928C241.144 78.0303 241.199 78.2457 241.31 78.4391C241.423 78.6324 241.621 78.7291 241.902 78.7291C242.179 78.7291 242.372 78.6324 242.482 78.4391C242.596 78.2457 242.652 78.0303 242.652 77.7928V77.3453C242.652 77.1078 242.598 76.8924 242.491 76.699C242.383 76.5057 242.187 76.409 241.902 76.409C241.626 76.409 241.43 76.5057 241.314 76.699C241.201 76.8924 241.144 77.1078 241.144 77.3453ZM240.568 84.2393L246.402 75.7544H247.392L241.558 84.2393H240.568Z" fill="#344054"/>
<path d="M65.6935 122.739V114.254H68.5604C69.2261 114.254 69.7702 114.374 70.1928 114.614C70.6181 114.852 70.933 115.174 71.1374 115.58C71.3418 115.986 71.444 116.439 71.444 116.939C71.444 117.439 71.3418 117.893 71.1374 118.302C70.9357 118.71 70.6236 119.036 70.2011 119.279C69.7785 119.52 69.2371 119.64 68.577 119.64H66.5221V118.728H68.5439C68.9996 118.728 69.3655 118.65 69.6417 118.492C69.9179 118.335 70.1182 118.122 70.2425 117.854C70.3695 117.584 70.4331 117.278 70.4331 116.939C70.4331 116.599 70.3695 116.295 70.2425 116.027C70.1182 115.759 69.9166 115.549 69.6376 115.397C69.3586 115.243 68.9885 115.165 68.5273 115.165H66.7209V122.739H65.6935ZM73.0832 122.739V116.375H74.0278V117.336H74.0941C74.2101 117.021 74.42 116.766 74.7238 116.57C75.0276 116.374 75.3701 116.276 75.7513 116.276C75.8231 116.276 75.9128 116.277 76.0205 116.28C76.1283 116.283 76.2097 116.287 76.265 116.292V117.287C76.2318 117.278 76.1559 117.266 76.0371 117.249C75.9211 117.23 75.7982 117.22 75.6684 117.22C75.3591 117.22 75.0829 117.285 74.8398 117.415C74.5995 117.542 74.4089 117.719 74.2681 117.945C74.13 118.169 74.0609 118.425 74.0609 118.712V122.739H73.0832ZM79.9322 122.871C79.3577 122.871 78.8536 122.735 78.42 122.461C77.9891 122.188 77.6522 121.805 77.4091 121.314C77.1688 120.822 77.0487 120.247 77.0487 119.59C77.0487 118.927 77.1688 118.349 77.4091 117.854C77.6522 117.36 77.9891 116.976 78.42 116.702C78.8536 116.429 79.3577 116.292 79.9322 116.292C80.5067 116.292 81.0094 116.429 81.4402 116.702C81.8739 116.976 82.2108 117.36 82.4511 117.854C82.6942 118.349 82.8157 118.927 82.8157 119.59C82.8157 120.247 82.6942 120.822 82.4511 121.314C82.2108 121.805 81.8739 122.188 81.4402 122.461C81.0094 122.735 80.5067 122.871 79.9322 122.871ZM79.9322 121.993C80.3686 121.993 80.7277 121.881 81.0094 121.657C81.2911 121.434 81.4996 121.14 81.635 120.775C81.7703 120.41 81.838 120.015 81.838 119.59C81.838 119.165 81.7703 118.768 81.635 118.401C81.4996 118.034 81.2911 117.737 81.0094 117.51C80.7277 117.284 80.3686 117.171 79.9322 117.171C79.4958 117.171 79.1367 117.284 78.855 117.51C78.5733 117.737 78.3648 118.034 78.2294 118.401C78.0941 118.768 78.0264 119.165 78.0264 119.59C78.0264 120.015 78.0941 120.41 78.2294 120.775C78.3648 121.14 78.5733 121.434 78.855 121.657C79.1367 121.881 79.4958 121.993 79.9322 121.993ZM88.9325 117.8L88.0542 118.049C87.9989 117.903 87.9174 117.76 87.8097 117.622C87.7048 117.481 87.5611 117.365 87.3789 117.274C87.1966 117.183 86.9632 117.137 86.6787 117.137C86.2892 117.137 85.9647 117.227 85.7051 117.407C85.4482 117.584 85.3198 117.809 85.3198 118.082C85.3198 118.325 85.4082 118.517 85.5849 118.658C85.7617 118.799 86.0379 118.916 86.4135 119.01L87.3581 119.242C87.9271 119.38 88.3511 119.591 88.63 119.876C88.909 120.158 89.0485 120.521 89.0485 120.966C89.0485 121.33 88.9435 121.656 88.7336 121.943C88.5265 122.231 88.2365 122.457 87.8636 122.623C87.4907 122.788 87.0571 122.871 86.5627 122.871C85.9136 122.871 85.3764 122.73 84.9511 122.449C84.5257 122.167 84.2564 121.755 84.1432 121.214L85.0712 120.982C85.1596 121.325 85.3267 121.581 85.5725 121.753C85.8211 121.924 86.1456 122.01 86.5461 122.01C87.0018 122.01 87.3637 121.913 87.6316 121.72C87.9023 121.523 88.0376 121.289 88.0376 121.015C88.0376 120.794 87.9603 120.609 87.8056 120.46C87.6509 120.308 87.4134 120.195 87.093 120.12L86.0324 119.872C85.4496 119.734 85.0215 119.52 84.7481 119.23C84.4774 118.937 84.342 118.571 84.342 118.132C84.342 117.773 84.4429 117.455 84.6445 117.179C84.8489 116.903 85.1264 116.686 85.4772 116.528C85.8308 116.371 86.2312 116.292 86.6787 116.292C87.3084 116.292 87.8028 116.43 88.1619 116.707C88.5237 116.983 88.7806 117.347 88.9325 117.8ZM90.6369 125.125V116.375H91.5815V117.386H91.6975C91.7694 117.276 91.8688 117.135 91.9958 116.963C92.1257 116.789 92.3107 116.635 92.551 116.499C92.7941 116.361 93.1227 116.292 93.537 116.292C94.0729 116.292 94.5452 116.426 94.9539 116.694C95.3627 116.962 95.6817 117.342 95.911 117.833C96.1402 118.325 96.2548 118.905 96.2548 119.574C96.2548 120.247 96.1402 120.832 95.911 121.326C95.6817 121.818 95.3641 122.199 94.9581 122.469C94.5521 122.737 94.0839 122.871 93.5536 122.871C93.1448 122.871 92.8175 122.804 92.5717 122.668C92.3259 122.53 92.1367 122.374 92.0041 122.2C91.8716 122.023 91.7694 121.877 91.6975 121.761H91.6147V125.125H90.6369ZM91.5981 119.557C91.5981 120.038 91.6685 120.462 91.8094 120.829C91.9503 121.193 92.156 121.479 92.4267 121.686C92.6974 121.891 93.0288 121.993 93.421 121.993C93.8298 121.993 94.1709 121.885 94.4444 121.67C94.7206 121.452 94.9277 121.159 95.0658 120.792C95.2067 120.421 95.2771 120.01 95.2771 119.557C95.2771 119.11 95.208 118.706 95.0699 118.347C94.9346 117.985 94.7288 117.7 94.4526 117.49C94.1792 117.277 93.8353 117.171 93.421 117.171C93.0233 117.171 92.6891 117.271 92.4184 117.473C92.1478 117.672 91.9434 117.951 91.8053 118.31C91.6672 118.666 91.5981 119.082 91.5981 119.557ZM100.531 122.871C99.9179 122.871 99.389 122.736 98.9443 122.465C98.5024 122.192 98.1613 121.811 97.921 121.322C97.6835 120.83 97.5647 120.258 97.5647 119.607C97.5647 118.955 97.6835 118.38 97.921 117.883C98.1613 117.383 98.4955 116.994 98.9236 116.715C99.3545 116.433 99.8571 116.292 100.432 116.292C100.763 116.292 101.09 116.348 101.414 116.458C101.737 116.568 102.031 116.748 102.296 116.997C102.561 117.242 102.772 117.568 102.93 117.974C103.087 118.38 103.166 118.88 103.166 119.474V119.888H98.2607V119.043H102.172C102.172 118.684 102.1 118.364 101.956 118.082C101.815 117.8 101.614 117.578 101.351 117.415C101.092 117.252 100.785 117.171 100.432 117.171C100.042 117.171 99.7052 117.267 99.4207 117.461C99.139 117.651 98.9222 117.9 98.7703 118.206C98.6184 118.513 98.5424 118.842 98.5424 119.192V119.756C98.5424 120.236 98.6253 120.644 98.791 120.978C98.9595 121.309 99.1929 121.562 99.4912 121.736C99.7895 121.907 100.136 121.993 100.531 121.993C100.788 121.993 101.02 121.957 101.227 121.885C101.437 121.811 101.618 121.7 101.77 121.554C101.922 121.405 102.039 121.22 102.122 120.999L103.067 121.264C102.967 121.584 102.8 121.866 102.565 122.109C102.331 122.349 102.041 122.537 101.695 122.672C101.35 122.805 100.962 122.871 100.531 122.871ZM107.355 122.871C106.759 122.871 106.245 122.73 105.814 122.449C105.383 122.167 105.052 121.779 104.82 121.285C104.588 120.79 104.472 120.225 104.472 119.59C104.472 118.944 104.59 118.373 104.828 117.879C105.068 117.382 105.403 116.994 105.831 116.715C106.261 116.433 106.764 116.292 107.339 116.292C107.786 116.292 108.189 116.375 108.548 116.541C108.907 116.707 109.202 116.939 109.431 117.237C109.66 117.535 109.802 117.883 109.858 118.281H108.88C108.805 117.991 108.64 117.734 108.383 117.51C108.129 117.284 107.786 117.171 107.355 117.171C106.974 117.171 106.64 117.27 106.353 117.469C106.068 117.665 105.846 117.943 105.686 118.302C105.528 118.658 105.449 119.076 105.449 119.557C105.449 120.049 105.527 120.477 105.681 120.841C105.839 121.206 106.06 121.489 106.344 121.691C106.632 121.892 106.969 121.993 107.355 121.993C107.609 121.993 107.84 121.949 108.047 121.86C108.254 121.772 108.43 121.645 108.573 121.479C108.717 121.314 108.819 121.115 108.88 120.883H109.858C109.802 121.258 109.666 121.597 109.447 121.898C109.232 122.196 108.946 122.434 108.59 122.61C108.236 122.784 107.825 122.871 107.355 122.871ZM114.171 116.375V117.204H110.873V116.375H114.171ZM111.834 114.851H112.812V120.916C112.812 121.192 112.852 121.399 112.932 121.537C113.015 121.673 113.12 121.764 113.247 121.811C113.377 121.855 113.514 121.877 113.657 121.877C113.765 121.877 113.853 121.872 113.923 121.86C113.992 121.847 114.047 121.836 114.088 121.827L114.287 122.706C114.221 122.73 114.128 122.755 114.01 122.78C113.891 122.808 113.74 122.822 113.558 122.822C113.282 122.822 113.011 122.762 112.746 122.643C112.484 122.525 112.265 122.344 112.091 122.101C111.92 121.858 111.834 121.551 111.834 121.181V114.851Z" fill="#344054"/>
<rect x="64.666" y="133.739" width="149.667" height="6.66667" rx="3.33333" fill="#EAECF0"/>
<rect x="64.666" y="133.739" width="30.219" height="6.66667" rx="3.33333" fill="#1AB2FF"/>
<path d="M225.482 141.572V140.644L228.353 137.67C228.66 137.346 228.913 137.063 229.111 136.82C229.313 136.574 229.464 136.341 229.563 136.12C229.662 135.899 229.712 135.664 229.712 135.416C229.712 135.134 229.646 134.891 229.513 134.687C229.381 134.479 229.2 134.321 228.971 134.21C228.741 134.097 228.483 134.04 228.196 134.04C227.892 134.04 227.627 134.102 227.4 134.227C227.174 134.351 227 134.526 226.878 134.753C226.757 134.979 226.696 135.245 226.696 135.548H225.474C225.474 135.032 225.593 134.58 225.83 134.194C226.068 133.807 226.394 133.507 226.808 133.295C227.222 133.079 227.693 132.971 228.221 132.971C228.754 132.971 229.223 133.078 229.629 133.29C230.038 133.5 230.357 133.788 230.586 134.152C230.816 134.514 230.93 134.923 230.93 135.378C230.93 135.693 230.871 136.001 230.752 136.302C230.636 136.603 230.433 136.939 230.143 137.309C229.853 137.676 229.45 138.123 228.933 138.647L227.247 140.412V140.474H231.067V141.572H225.482ZM235.591 141.713C234.936 141.71 234.377 141.538 233.913 141.195C233.449 140.853 233.094 140.354 232.848 139.7C232.603 139.045 232.48 138.256 232.48 137.334C232.48 136.414 232.603 135.628 232.848 134.977C233.097 134.325 233.453 133.828 233.917 133.485C234.384 133.143 234.942 132.971 235.591 132.971C236.24 132.971 236.797 133.144 237.261 133.489C237.725 133.832 238.08 134.329 238.325 134.981C238.574 135.63 238.698 136.414 238.698 137.334C238.698 138.259 238.575 139.049 238.33 139.704C238.084 140.356 237.729 140.854 237.265 141.199C236.801 141.542 236.243 141.713 235.591 141.713ZM235.591 140.607C236.166 140.607 236.614 140.327 236.938 139.766C237.263 139.205 237.426 138.395 237.426 137.334C237.426 136.63 237.352 136.034 237.203 135.548C237.056 135.059 236.845 134.689 236.569 134.438C236.295 134.184 235.969 134.057 235.591 134.057C235.019 134.057 234.571 134.339 234.245 134.902C233.919 135.465 233.754 136.276 233.752 137.334C233.752 138.041 233.825 138.639 233.971 139.128C234.12 139.614 234.332 139.983 234.605 140.234C234.878 140.483 235.207 140.607 235.591 140.607ZM244.597 139.981V139.534C244.597 139.214 244.663 138.921 244.796 138.656C244.931 138.388 245.127 138.174 245.384 138.013C245.644 137.85 245.957 137.769 246.325 137.769C246.7 137.769 247.015 137.849 247.269 138.009C247.523 138.169 247.715 138.384 247.845 138.651C247.978 138.919 248.044 139.214 248.044 139.534V139.981C248.044 140.302 247.978 140.596 247.845 140.864C247.712 141.129 247.518 141.343 247.261 141.506C247.007 141.666 246.695 141.746 246.325 141.746C245.952 141.746 245.637 141.666 245.38 141.506C245.123 141.343 244.928 141.129 244.796 140.864C244.663 140.596 244.597 140.302 244.597 139.981ZM245.562 139.534V139.981C245.562 140.219 245.619 140.434 245.732 140.628C245.845 140.821 246.043 140.918 246.325 140.918C246.604 140.918 246.798 140.821 246.909 140.628C247.019 140.434 247.074 140.219 247.074 139.981V139.534C247.074 139.296 247.021 139.081 246.913 138.888C246.808 138.694 246.612 138.598 246.325 138.598C246.048 138.598 245.852 138.694 245.736 138.888C245.62 139.081 245.562 139.296 245.562 139.534ZM240.33 135.126V134.678C240.33 134.358 240.396 134.064 240.528 133.796C240.664 133.528 240.86 133.314 241.117 133.154C241.376 132.994 241.69 132.913 242.057 132.913C242.433 132.913 242.748 132.994 243.002 133.154C243.256 133.314 243.448 133.528 243.578 133.796C243.708 134.064 243.772 134.358 243.772 134.678V135.126C243.772 135.446 243.706 135.74 243.574 136.008C243.444 136.273 243.25 136.487 242.994 136.65C242.739 136.811 242.427 136.891 242.057 136.891C241.682 136.891 241.365 136.811 241.109 136.65C240.854 136.487 240.661 136.273 240.528 136.008C240.396 135.74 240.33 135.446 240.33 135.126ZM241.299 134.678V135.126C241.299 135.363 241.354 135.579 241.465 135.772C241.578 135.965 241.776 136.062 242.057 136.062C242.333 136.062 242.527 135.965 242.637 135.772C242.751 135.579 242.807 135.363 242.807 135.126V134.678C242.807 134.441 242.753 134.225 242.646 134.032C242.538 133.839 242.342 133.742 242.057 133.742C241.781 133.742 241.585 133.839 241.469 134.032C241.356 134.225 241.299 134.441 241.299 134.678ZM240.723 141.572L246.557 133.087H247.547L241.713 141.572H240.723Z" fill="#344054"/>
<path d="M65.6935 180.072V171.587H68.5604C69.2261 171.587 69.7702 171.708 70.1928 171.948C70.6181 172.185 70.933 172.507 71.1374 172.913C71.3418 173.319 71.444 173.772 71.444 174.272C71.444 174.772 71.3418 175.226 71.1374 175.635C70.9357 176.044 70.6236 176.37 70.2011 176.613C69.7785 176.853 69.2371 176.973 68.577 176.973H66.5221V176.062H68.5439C68.9996 176.062 69.3655 175.983 69.6417 175.826C69.9179 175.668 70.1182 175.456 70.2425 175.188C70.3695 174.917 70.4331 174.612 70.4331 174.272C70.4331 173.932 70.3695 173.629 70.2425 173.361C70.1182 173.093 69.9166 172.883 69.6376 172.731C69.3586 172.576 68.9885 172.499 68.5273 172.499H66.7209V180.072H65.6935ZM73.0832 180.072V173.709H74.0278V174.67H74.0941C74.2101 174.355 74.42 174.099 74.7238 173.903C75.0276 173.707 75.3701 173.609 75.7513 173.609C75.8231 173.609 75.9128 173.611 76.0205 173.613C76.1283 173.616 76.2097 173.62 76.265 173.626V174.62C76.2318 174.612 76.1559 174.599 76.0371 174.583C75.9211 174.563 75.7982 174.554 75.6684 174.554C75.3591 174.554 75.0829 174.619 74.8398 174.749C74.5995 174.876 74.4089 175.052 74.2681 175.279C74.13 175.503 74.0609 175.758 74.0609 176.045V180.072H73.0832ZM79.9322 180.205C79.3577 180.205 78.8536 180.068 78.42 179.795C77.9891 179.521 77.6522 179.139 77.4091 178.647C77.1688 178.155 77.0487 177.581 77.0487 176.924C77.0487 176.261 77.1688 175.682 77.4091 175.188C77.6522 174.693 77.9891 174.309 78.42 174.036C78.8536 173.762 79.3577 173.626 79.9322 173.626C80.5067 173.626 81.0094 173.762 81.4402 174.036C81.8739 174.309 82.2108 174.693 82.4511 175.188C82.6942 175.682 82.8157 176.261 82.8157 176.924C82.8157 177.581 82.6942 178.155 82.4511 178.647C82.2108 179.139 81.8739 179.521 81.4402 179.795C81.0094 180.068 80.5067 180.205 79.9322 180.205ZM79.9322 179.327C80.3686 179.327 80.7277 179.215 81.0094 178.991C81.2911 178.767 81.4996 178.473 81.635 178.108C81.7703 177.744 81.838 177.349 81.838 176.924C81.838 176.498 81.7703 176.102 81.635 175.735C81.4996 175.367 81.2911 175.07 81.0094 174.844C80.7277 174.617 80.3686 174.504 79.9322 174.504C79.4958 174.504 79.1367 174.617 78.855 174.844C78.5733 175.07 78.3648 175.367 78.2294 175.735C78.0941 176.102 78.0264 176.498 78.0264 176.924C78.0264 177.349 78.0941 177.744 78.2294 178.108C78.3648 178.473 78.5733 178.767 78.855 178.991C79.1367 179.215 79.4958 179.327 79.9322 179.327ZM84.4249 182.459V173.709H85.3695V174.72H85.4855C85.5573 174.609 85.6567 174.468 85.7838 174.297C85.9136 174.123 86.0987 173.968 86.339 173.833C86.582 173.695 86.9107 173.626 87.325 173.626C87.8608 173.626 88.3331 173.76 88.7419 174.028C89.1507 174.296 89.4697 174.675 89.6989 175.167C89.9282 175.659 90.0428 176.239 90.0428 176.907C90.0428 177.581 89.9282 178.165 89.6989 178.66C89.4697 179.151 89.1521 179.532 88.746 179.803C88.34 180.071 87.8719 180.205 87.3416 180.205C86.9328 180.205 86.6055 180.137 86.3597 180.002C86.1139 179.864 85.9247 179.708 85.7921 179.534C85.6595 179.357 85.5573 179.211 85.4855 179.095H85.4026V182.459H84.4249ZM85.3861 176.89C85.3861 177.371 85.4565 177.795 85.5974 178.162C85.7382 178.527 85.944 178.813 86.2147 179.02C86.4853 179.224 86.8168 179.327 87.209 179.327C87.6178 179.327 87.9589 179.219 88.2323 179.003C88.5085 178.785 88.7157 178.492 88.8538 178.125C88.9946 177.755 89.065 177.343 89.065 176.89C89.065 176.443 88.996 176.04 88.8579 175.681C88.7226 175.319 88.5168 175.033 88.2406 174.823C87.9672 174.61 87.6233 174.504 87.209 174.504C86.8113 174.504 86.4771 174.605 86.2064 174.807C85.9357 175.005 85.7313 175.284 85.5932 175.643C85.4551 176 85.3861 176.415 85.3861 176.89ZM94.2362 180.205C93.6617 180.205 93.1576 180.068 92.724 179.795C92.2931 179.521 91.9561 179.139 91.7131 178.647C91.4728 178.155 91.3526 177.581 91.3526 176.924C91.3526 176.261 91.4728 175.682 91.7131 175.188C91.9561 174.693 92.2931 174.309 92.724 174.036C93.1576 173.762 93.6617 173.626 94.2362 173.626C94.8107 173.626 95.3133 173.762 95.7442 174.036C96.1779 174.309 96.5148 174.693 96.7551 175.188C96.9982 175.682 97.1197 176.261 97.1197 176.924C97.1197 177.581 96.9982 178.155 96.7551 178.647C96.5148 179.139 96.1779 179.521 95.7442 179.795C95.3133 180.068 94.8107 180.205 94.2362 180.205ZM94.2362 179.327C94.6726 179.327 95.0316 179.215 95.3133 178.991C95.5951 178.767 95.8036 178.473 95.9389 178.108C96.0743 177.744 96.1419 177.349 96.1419 176.924C96.1419 176.498 96.0743 176.102 95.9389 175.735C95.8036 175.367 95.5951 175.07 95.3133 174.844C95.0316 174.617 94.6726 174.504 94.2362 174.504C93.7998 174.504 93.4407 174.617 93.159 174.844C92.8773 175.07 92.6687 175.367 92.5334 175.735C92.3981 176.102 92.3304 176.498 92.3304 176.924C92.3304 177.349 92.3981 177.744 92.5334 178.108C92.6687 178.473 92.8773 178.767 93.159 178.991C93.4407 179.215 93.7998 179.327 94.2362 179.327ZM103.236 175.134L102.358 175.382C102.303 175.236 102.221 175.094 102.114 174.956C102.009 174.815 101.865 174.699 101.683 174.608C101.501 174.517 101.267 174.471 100.983 174.471C100.593 174.471 100.269 174.561 100.009 174.74C99.7522 174.917 99.6238 175.142 99.6238 175.416C99.6238 175.659 99.7121 175.851 99.8889 175.991C100.066 176.132 100.342 176.25 100.718 176.344L101.662 176.576C102.231 176.714 102.655 176.925 102.934 177.209C103.213 177.491 103.352 177.854 103.352 178.299C103.352 178.664 103.247 178.99 103.038 179.277C102.83 179.564 102.54 179.791 102.168 179.956C101.795 180.122 101.361 180.205 100.867 180.205C100.218 180.205 99.6804 180.064 99.255 179.782C98.8297 179.501 98.5604 179.089 98.4471 178.548L99.3752 178.316C99.4636 178.658 99.6307 178.915 99.8765 179.086C100.125 179.257 100.45 179.343 100.85 179.343C101.306 179.343 101.668 179.246 101.936 179.053C102.206 178.857 102.342 178.622 102.342 178.349C102.342 178.128 102.264 177.943 102.11 177.794C101.955 177.642 101.717 177.528 101.397 177.454L100.336 177.205C99.7536 177.067 99.3255 176.853 99.052 176.563C98.7813 176.27 98.646 175.904 98.646 175.465C98.646 175.106 98.7468 174.789 98.9484 174.512C99.1528 174.236 99.4304 174.019 99.7812 173.862C100.135 173.704 100.535 173.626 100.983 173.626C101.612 173.626 102.107 173.764 102.466 174.04C102.828 174.316 103.085 174.681 103.236 175.134ZM106.814 180.221C106.41 180.221 106.044 180.145 105.716 179.994C105.387 179.839 105.126 179.617 104.933 179.327C104.739 179.034 104.643 178.68 104.643 178.266C104.643 177.901 104.714 177.606 104.858 177.379C105.002 177.15 105.194 176.971 105.434 176.841C105.674 176.711 105.939 176.614 106.229 176.551C106.522 176.484 106.816 176.432 107.112 176.393C107.499 176.344 107.812 176.306 108.052 176.281C108.295 176.254 108.472 176.208 108.583 176.145C108.696 176.081 108.752 175.971 108.752 175.813V175.78C108.752 175.371 108.641 175.054 108.417 174.827C108.196 174.601 107.86 174.488 107.41 174.488C106.943 174.488 106.577 174.59 106.312 174.794C106.047 174.998 105.861 175.217 105.753 175.449L104.825 175.117C104.991 174.731 105.212 174.43 105.488 174.214C105.767 173.996 106.071 173.844 106.399 173.758C106.731 173.67 107.057 173.626 107.377 173.626C107.581 173.626 107.816 173.651 108.081 173.7C108.349 173.747 108.607 173.845 108.856 173.994C109.107 174.144 109.316 174.369 109.482 174.67C109.647 174.971 109.73 175.374 109.73 175.88V180.072H108.752V179.211H108.703C108.636 179.349 108.526 179.496 108.371 179.654C108.217 179.811 108.011 179.945 107.754 180.056C107.497 180.166 107.184 180.221 106.814 180.221ZM106.963 179.343C107.349 179.343 107.675 179.267 107.94 179.115C108.208 178.963 108.41 178.767 108.545 178.527C108.683 178.287 108.752 178.034 108.752 177.769V176.874C108.711 176.924 108.62 176.969 108.479 177.011C108.341 177.049 108.181 177.084 107.998 177.114C107.819 177.142 107.644 177.167 107.472 177.189C107.304 177.208 107.167 177.225 107.062 177.238C106.808 177.272 106.57 177.325 106.35 177.4C106.131 177.472 105.955 177.581 105.819 177.727C105.687 177.871 105.62 178.067 105.62 178.316C105.62 178.655 105.746 178.912 105.997 179.086C106.251 179.257 106.573 179.343 106.963 179.343ZM112.609 171.587V180.072H111.631V171.587H112.609ZM122.422 175.134L121.544 175.382C121.489 175.236 121.407 175.094 121.299 174.956C121.194 174.815 121.051 174.699 120.869 174.608C120.686 174.517 120.453 174.471 120.168 174.471C119.779 174.471 119.454 174.561 119.195 174.74C118.938 174.917 118.809 175.142 118.809 175.416C118.809 175.659 118.898 175.851 119.075 175.991C119.251 176.132 119.528 176.25 119.903 176.344L120.848 176.576C121.417 176.714 121.841 176.925 122.12 177.209C122.399 177.491 122.538 177.854 122.538 178.299C122.538 178.664 122.433 178.99 122.223 179.277C122.016 179.564 121.726 179.791 121.353 179.956C120.98 180.122 120.547 180.205 120.052 180.205C119.403 180.205 118.866 180.064 118.441 179.782C118.015 179.501 117.746 179.089 117.633 178.548L118.561 178.316C118.649 178.658 118.816 178.915 119.062 179.086C119.311 179.257 119.635 179.343 120.036 179.343C120.492 179.343 120.853 179.246 121.121 179.053C121.392 178.857 121.527 178.622 121.527 178.349C121.527 178.128 121.45 177.943 121.295 177.794C121.141 177.642 120.903 177.528 120.583 177.454L119.522 177.205C118.939 177.067 118.511 176.853 118.238 176.563C117.967 176.27 117.832 175.904 117.832 175.465C117.832 175.106 117.933 174.789 118.134 174.512C118.339 174.236 118.616 174.019 118.967 173.862C119.32 173.704 119.721 173.626 120.168 173.626C120.798 173.626 121.293 173.764 121.652 174.04C122.013 174.316 122.27 174.681 122.422 175.134ZM126.795 180.205C126.182 180.205 125.653 180.07 125.208 179.799C124.766 179.525 124.425 179.144 124.185 178.655C123.947 178.164 123.828 177.592 123.828 176.94C123.828 176.288 123.947 175.714 124.185 175.217C124.425 174.717 124.759 174.327 125.187 174.048C125.618 173.767 126.121 173.626 126.695 173.626C127.027 173.626 127.354 173.681 127.677 173.791C128 173.902 128.295 174.081 128.56 174.33C128.825 174.576 129.036 174.902 129.194 175.308C129.351 175.714 129.43 176.214 129.43 176.808V177.222H124.524V176.377H128.435C128.435 176.018 128.364 175.697 128.22 175.416C128.079 175.134 127.877 174.911 127.615 174.749C127.355 174.586 127.049 174.504 126.695 174.504C126.306 174.504 125.969 174.601 125.684 174.794C125.403 174.985 125.186 175.233 125.034 175.54C124.882 175.846 124.806 176.175 124.806 176.526V177.089C124.806 177.57 124.889 177.977 125.055 178.311C125.223 178.643 125.457 178.896 125.755 179.07C126.053 179.241 126.4 179.327 126.795 179.327C127.052 179.327 127.284 179.291 127.491 179.219C127.701 179.144 127.882 179.034 128.033 178.887C128.185 178.738 128.303 178.553 128.386 178.332L129.33 178.597C129.231 178.918 129.064 179.199 128.829 179.443C128.594 179.683 128.304 179.871 127.959 180.006C127.614 180.139 127.226 180.205 126.795 180.205ZM132.011 176.244V180.072H131.034V173.709H131.978V174.703H132.061C132.21 174.38 132.437 174.12 132.741 173.924C133.044 173.725 133.437 173.626 133.917 173.626C134.348 173.626 134.725 173.714 135.048 173.891C135.371 174.065 135.623 174.33 135.802 174.686C135.982 175.04 136.072 175.487 136.072 176.029V180.072H135.094V176.095C135.094 175.595 134.964 175.206 134.704 174.927C134.445 174.645 134.088 174.504 133.635 174.504C133.323 174.504 133.044 174.572 132.799 174.707C132.556 174.842 132.364 175.04 132.223 175.3C132.082 175.559 132.011 175.874 132.011 176.244ZM140.742 173.709V174.537H137.445V173.709H140.742ZM138.406 172.184H139.384V178.249C139.384 178.526 139.424 178.733 139.504 178.871C139.587 179.006 139.691 179.097 139.819 179.144C139.948 179.188 140.085 179.211 140.229 179.211C140.336 179.211 140.425 179.205 140.494 179.194C140.563 179.18 140.618 179.169 140.66 179.161L140.858 180.039C140.792 180.064 140.7 180.089 140.581 180.114C140.462 180.141 140.312 180.155 140.129 180.155C139.853 180.155 139.582 180.096 139.317 179.977C139.055 179.858 138.837 179.677 138.663 179.434C138.491 179.191 138.406 178.885 138.406 178.515V172.184Z" fill="#344054"/>
<rect x="64.666" y="191.072" width="149.667" height="6.66667" rx="3.33333" fill="#EAECF0"/>
<rect x="64.666" y="191.072" width="60.4396" height="6.66667" rx="3.33333" fill="#1AB2FF"/>
<path d="M225.304 197.249V196.213L228.971 190.421H229.787V191.946H229.269L226.646 196.097V196.163H231.672V197.249H225.304ZM229.327 198.906V196.934L229.335 196.461V190.421H230.549V198.906H229.327ZM236.07 199.047C235.415 199.044 234.856 198.871 234.392 198.529C233.928 198.186 233.573 197.688 233.327 197.033C233.081 196.379 232.958 195.59 232.958 194.667C232.958 193.748 233.081 192.962 233.327 192.31C233.576 191.658 233.932 191.161 234.396 190.819C234.863 190.476 235.421 190.305 236.07 190.305C236.719 190.305 237.275 190.478 237.739 190.823C238.203 191.165 238.558 191.662 238.804 192.314C239.053 192.963 239.177 193.748 239.177 194.667C239.177 195.593 239.054 196.383 238.808 197.037C238.562 197.689 238.207 198.188 237.743 198.533C237.279 198.875 236.721 199.047 236.07 199.047ZM236.07 197.94C236.644 197.94 237.093 197.66 237.416 197.099C237.742 196.539 237.905 195.728 237.905 194.667C237.905 193.963 237.83 193.368 237.681 192.882C237.535 192.393 237.324 192.023 237.047 191.772C236.774 191.517 236.448 191.39 236.07 191.39C235.498 191.39 235.049 191.672 234.723 192.236C234.397 192.799 234.233 193.61 234.23 194.667C234.23 195.375 234.303 195.973 234.45 196.461C234.599 196.948 234.81 197.316 235.084 197.568C235.357 197.816 235.686 197.94 236.07 197.94ZM245.075 197.315V196.867C245.075 196.547 245.142 196.254 245.274 195.989C245.41 195.721 245.606 195.507 245.863 195.347C246.122 195.184 246.436 195.102 246.803 195.102C247.179 195.102 247.494 195.183 247.748 195.343C248.002 195.503 248.194 195.717 248.324 195.985C248.456 196.253 248.522 196.547 248.522 196.867V197.315C248.522 197.635 248.456 197.929 248.324 198.197C248.191 198.462 247.996 198.677 247.739 198.839C247.485 199 247.173 199.08 246.803 199.08C246.43 199.08 246.115 199 245.858 198.839C245.602 198.677 245.407 198.462 245.274 198.197C245.142 197.929 245.075 197.635 245.075 197.315ZM246.041 196.867V197.315C246.041 197.552 246.097 197.768 246.211 197.961C246.324 198.154 246.521 198.251 246.803 198.251C247.082 198.251 247.277 198.154 247.387 197.961C247.498 197.768 247.553 197.552 247.553 197.315V196.867C247.553 196.63 247.499 196.414 247.391 196.221C247.286 196.028 247.09 195.931 246.803 195.931C246.527 195.931 246.331 196.028 246.215 196.221C246.099 196.414 246.041 196.63 246.041 196.867ZM240.808 192.459V192.012C240.808 191.691 240.874 191.397 241.007 191.129C241.142 190.861 241.338 190.647 241.595 190.487C241.855 190.327 242.168 190.247 242.536 190.247C242.911 190.247 243.226 190.327 243.48 190.487C243.734 190.647 243.926 190.861 244.056 191.129C244.186 191.397 244.251 191.691 244.251 192.012V192.459C244.251 192.78 244.185 193.074 244.052 193.342C243.922 193.607 243.729 193.821 243.472 193.984C243.218 194.144 242.906 194.224 242.536 194.224C242.16 194.224 241.844 194.144 241.587 193.984C241.333 193.821 241.14 193.607 241.007 193.342C240.874 193.074 240.808 192.78 240.808 192.459ZM241.778 192.012V192.459C241.778 192.697 241.833 192.912 241.943 193.106C242.057 193.299 242.254 193.396 242.536 193.396C242.812 193.396 243.005 193.299 243.116 193.106C243.229 192.912 243.286 192.697 243.286 192.459V192.012C243.286 191.774 243.232 191.559 243.124 191.366C243.016 191.172 242.82 191.076 242.536 191.076C242.26 191.076 242.063 191.172 241.947 191.366C241.834 191.559 241.778 191.774 241.778 192.012ZM241.202 198.906L247.035 190.421H248.025L242.192 198.906H241.202Z" fill="#344054"/>
<rect x="46.333" y="215.239" width="221.667" height="54" rx="5" fill="#EBF8FF"/>
<path d="M72.4756 228.921V237.406H71.1084L67.1104 231.626H67.04V237.406H65.5029V228.921H66.8784L70.8722 234.705H70.9468V228.921H72.4756ZM77.0471 237.53C76.4091 237.53 75.8581 237.397 75.3941 237.132C74.9328 236.864 74.5779 236.486 74.3293 235.997C74.0808 235.506 73.9565 234.927 73.9565 234.261C73.9565 233.607 74.0808 233.032 74.3293 232.538C74.5807 232.041 74.9315 231.654 75.3817 231.378C75.8319 231.099 76.3608 230.959 76.9684 230.959C77.3606 230.959 77.7307 231.023 78.0787 231.15C78.4295 231.274 78.7389 231.467 79.0068 231.73C79.2775 231.992 79.4901 232.326 79.6448 232.732C79.7995 233.136 79.8768 233.616 79.8768 234.174V234.634H74.6608V233.623H78.4392C78.4364 233.336 78.3743 233.08 78.2528 232.857C78.1312 232.63 77.9614 232.452 77.7432 232.322C77.5277 232.192 77.2764 232.128 76.9891 232.128C76.6826 232.128 76.4133 232.202 76.1813 232.351C75.9492 232.498 75.7683 232.691 75.6385 232.931C75.5115 233.169 75.4466 233.43 75.4438 233.714V234.597C75.4438 234.967 75.5115 235.285 75.6468 235.55C75.7821 235.812 75.9713 236.014 76.2144 236.155C76.4575 236.293 76.7419 236.362 77.0679 236.362C77.2861 236.362 77.4835 236.331 77.6603 236.271C77.8371 236.207 77.9904 236.115 78.1202 235.993C78.25 235.871 78.348 235.721 78.4143 235.541L79.8147 235.699C79.7263 236.069 79.5578 236.392 79.3092 236.668C79.0634 236.942 78.7485 237.154 78.3646 237.306C77.9807 237.455 77.5415 237.53 77.0471 237.53ZM84.0589 239.925C83.5204 239.925 83.0577 239.852 82.671 239.705C82.2844 239.561 81.9736 239.368 81.7389 239.125C81.5041 238.882 81.3411 238.613 81.25 238.317L82.6006 237.99C82.6614 238.114 82.7498 238.237 82.8658 238.359C82.9818 238.483 83.1378 238.585 83.3339 238.665C83.5328 238.748 83.7827 238.79 84.0838 238.79C84.5092 238.79 84.8613 238.686 85.1403 238.479C85.4192 238.274 85.5587 237.937 85.5587 237.468V236.262H85.4841C85.4068 236.417 85.2936 236.576 85.1444 236.739C84.998 236.902 84.8033 237.038 84.5603 237.149C84.32 237.259 84.0175 237.315 83.6529 237.315C83.1641 237.315 82.7208 237.2 82.323 236.971C81.9281 236.739 81.6132 236.393 81.3784 235.935C81.1464 235.474 81.0304 234.896 81.0304 234.203C81.0304 233.504 81.1464 232.915 81.3784 232.434C81.6132 231.951 81.9295 231.585 82.3272 231.336C82.7249 231.085 83.1682 230.959 83.6571 230.959C84.0299 230.959 84.3365 231.023 84.5768 231.15C84.8199 231.274 85.0132 231.425 85.1568 231.601C85.3005 231.775 85.4096 231.94 85.4841 232.094H85.567V231.042H87.046V237.509C87.046 238.053 86.9162 238.504 86.6566 238.86C86.397 239.216 86.0421 239.483 85.5919 239.66C85.1417 239.836 84.6307 239.925 84.0589 239.925ZM84.0714 236.138C84.389 236.138 84.6597 236.061 84.8834 235.906C85.1071 235.751 85.277 235.529 85.393 235.239C85.509 234.949 85.567 234.601 85.567 234.195C85.567 233.794 85.509 233.444 85.393 233.143C85.2798 232.842 85.1113 232.608 84.8875 232.442C84.6666 232.274 84.3945 232.19 84.0714 232.19C83.7372 232.19 83.4582 232.277 83.2345 232.451C83.0108 232.625 82.8423 232.864 82.729 233.167C82.6158 233.469 82.5592 233.811 82.5592 234.195C82.5592 234.584 82.6158 234.925 82.729 235.218C82.8451 235.508 83.0149 235.735 83.2386 235.898C83.4651 236.058 83.7427 236.138 84.0714 236.138ZM91.5047 237.53C90.8833 237.53 90.3447 237.393 89.889 237.12C89.4332 236.846 89.0797 236.464 88.8284 235.972C88.5798 235.481 88.4555 234.906 88.4555 234.249C88.4555 233.591 88.5798 233.016 88.8284 232.521C89.0797 232.027 89.4332 231.643 89.889 231.369C90.3447 231.096 90.8833 230.959 91.5047 230.959C92.1262 230.959 92.6648 231.096 93.1205 231.369C93.5762 231.643 93.9284 232.027 94.177 232.521C94.4283 233.016 94.554 233.591 94.554 234.249C94.554 234.906 94.4283 235.481 94.177 235.972C93.9284 236.464 93.5762 236.846 93.1205 237.12C92.6648 237.393 92.1262 237.53 91.5047 237.53ZM91.513 236.329C91.85 236.329 92.1317 236.236 92.3582 236.051C92.5847 235.863 92.7532 235.612 92.8636 235.297C92.9769 234.982 93.0335 234.631 93.0335 234.245C93.0335 233.855 92.9769 233.503 92.8636 233.188C92.7532 232.871 92.5847 232.618 92.3582 232.43C92.1317 232.242 91.85 232.148 91.513 232.148C91.1678 232.148 90.8805 232.242 90.6513 232.43C90.4248 232.618 90.2549 232.871 90.1417 233.188C90.0312 233.503 89.976 233.855 89.976 234.245C89.976 234.631 90.0312 234.982 90.1417 235.297C90.2549 235.612 90.4248 235.863 90.6513 236.051C90.8805 236.236 91.1678 236.329 91.513 236.329ZM99.1504 231.042V232.202H95.4922V231.042H99.1504ZM96.3953 229.518H97.8951V235.492C97.8951 235.693 97.9255 235.848 97.9862 235.956C98.0498 236.061 98.1326 236.132 98.2348 236.171C98.337 236.21 98.4503 236.229 98.5745 236.229C98.6685 236.229 98.7541 236.222 98.8314 236.208C98.9115 236.195 98.9723 236.182 99.0137 236.171L99.2664 237.344C99.1863 237.371 99.0717 237.402 98.9226 237.435C98.7762 237.468 98.5966 237.487 98.384 237.493C98.0083 237.504 97.67 237.447 97.3689 237.323C97.0679 237.196 96.829 237 96.6522 236.735C96.4782 236.469 96.3926 236.138 96.3953 235.74V229.518ZM100.551 237.406V231.042H102.05V237.406H100.551ZM101.305 230.139C101.067 230.139 100.863 230.06 100.691 229.903C100.52 229.743 100.435 229.551 100.435 229.327C100.435 229.1 100.52 228.908 100.691 228.751C100.863 228.591 101.067 228.511 101.305 228.511C101.545 228.511 101.749 228.591 101.918 228.751C102.089 228.908 102.175 229.1 102.175 229.327C102.175 229.551 102.089 229.743 101.918 229.903C101.749 230.06 101.545 230.139 101.305 230.139ZM105.57 237.534C105.166 237.534 104.803 237.462 104.48 237.319C104.16 237.172 103.905 236.957 103.718 236.672C103.533 236.388 103.44 236.037 103.44 235.62C103.44 235.261 103.506 234.964 103.639 234.729C103.772 234.495 103.952 234.307 104.182 234.166C104.411 234.025 104.669 233.919 104.956 233.847C105.246 233.772 105.546 233.718 105.855 233.685C106.228 233.647 106.531 233.612 106.763 233.582C106.995 233.549 107.163 233.499 107.268 233.433C107.376 233.364 107.43 233.257 107.43 233.114V233.089C107.43 232.777 107.337 232.535 107.152 232.364C106.967 232.192 106.701 232.107 106.353 232.107C105.985 232.107 105.694 232.187 105.478 232.347C105.266 232.507 105.122 232.697 105.048 232.915L103.647 232.716C103.758 232.329 103.94 232.006 104.194 231.746C104.448 231.484 104.759 231.288 105.126 231.158C105.494 231.026 105.9 230.959 106.344 230.959C106.651 230.959 106.956 230.995 107.26 231.067C107.564 231.139 107.841 231.258 108.093 231.423C108.344 231.586 108.546 231.809 108.698 232.09C108.852 232.372 108.93 232.724 108.93 233.147V237.406H107.488V236.532H107.438C107.347 236.708 107.218 236.874 107.053 237.029C106.89 237.181 106.684 237.304 106.435 237.397C106.19 237.489 105.901 237.534 105.57 237.534ZM105.959 236.432C106.26 236.432 106.521 236.373 106.742 236.254C106.963 236.132 107.133 235.972 107.252 235.773C107.373 235.575 107.434 235.358 107.434 235.123V234.373C107.387 234.412 107.307 234.448 107.194 234.481C107.083 234.514 106.959 234.543 106.821 234.568C106.683 234.593 106.546 234.615 106.411 234.634C106.275 234.653 106.158 234.67 106.058 234.684C105.835 234.714 105.634 234.764 105.458 234.833C105.281 234.902 105.141 234.999 105.039 235.123C104.937 235.245 104.886 235.402 104.886 235.595C104.886 235.871 104.987 236.08 105.188 236.221C105.39 236.362 105.647 236.432 105.959 236.432ZM113.761 231.042V232.202H110.103V231.042H113.761ZM111.006 229.518H112.506V235.492C112.506 235.693 112.536 235.848 112.597 235.956C112.66 236.061 112.743 236.132 112.845 236.171C112.948 236.21 113.061 236.229 113.185 236.229C113.279 236.229 113.365 236.222 113.442 236.208C113.522 236.195 113.583 236.182 113.624 236.171L113.877 237.344C113.797 237.371 113.682 237.402 113.533 237.435C113.387 237.468 113.207 237.487 112.995 237.493C112.619 237.504 112.281 237.447 111.98 237.323C111.679 237.196 111.44 237 111.263 236.735C111.089 236.469 111.003 236.138 111.006 235.74V229.518ZM115.161 237.406V231.042H116.661V237.406H115.161ZM115.915 230.139C115.678 230.139 115.473 230.06 115.302 229.903C115.131 229.743 115.045 229.551 115.045 229.327C115.045 229.1 115.131 228.908 115.302 228.751C115.473 228.591 115.678 228.511 115.915 228.511C116.156 228.511 116.36 228.591 116.528 228.751C116.7 228.908 116.785 229.1 116.785 229.327C116.785 229.551 116.7 229.743 116.528 229.903C116.36 230.06 116.156 230.139 115.915 230.139ZM121.125 237.53C120.503 237.53 119.965 237.393 119.509 237.12C119.053 236.846 118.7 236.464 118.448 235.972C118.2 235.481 118.076 234.906 118.076 234.249C118.076 233.591 118.2 233.016 118.448 232.521C118.7 232.027 119.053 231.643 119.509 231.369C119.965 231.096 120.503 230.959 121.125 230.959C121.746 230.959 122.285 231.096 122.741 231.369C123.196 231.643 123.549 232.027 123.797 232.521C124.048 233.016 124.174 233.591 124.174 234.249C124.174 234.906 124.048 235.481 123.797 235.972C123.549 236.464 123.196 236.846 122.741 237.12C122.285 237.393 121.746 237.53 121.125 237.53ZM121.133 236.329C121.47 236.329 121.752 236.236 121.978 236.051C122.205 235.863 122.373 235.612 122.484 235.297C122.597 234.982 122.654 234.631 122.654 234.245C122.654 233.855 122.597 233.503 122.484 233.188C122.373 232.871 122.205 232.618 121.978 232.43C121.752 232.242 121.47 232.148 121.133 232.148C120.788 232.148 120.501 232.242 120.271 232.43C120.045 232.618 119.875 232.871 119.762 233.188C119.651 233.503 119.596 233.855 119.596 234.245C119.596 234.631 119.651 234.982 119.762 235.297C119.875 235.612 120.045 235.863 120.271 236.051C120.501 236.236 120.788 236.329 121.133 236.329ZM127.093 233.677V237.406H125.593V231.042H127.026V232.123H127.101C127.247 231.767 127.481 231.484 127.801 231.274C128.124 231.064 128.523 230.959 128.998 230.959C129.438 230.959 129.82 231.053 130.146 231.241C130.475 231.429 130.729 231.701 130.908 232.057C131.091 232.413 131.18 232.846 131.178 233.354V237.406H129.678V233.586C129.678 233.161 129.567 232.828 129.346 232.587C129.128 232.347 128.826 232.227 128.439 232.227C128.177 232.227 127.943 232.285 127.739 232.401C127.537 232.514 127.378 232.679 127.262 232.894C127.149 233.109 127.093 233.37 127.093 233.677Z" fill="#344054"/>
<rect x="64.666" y="248.406" width="149.667" height="6.66667" rx="3.33333" fill="#EAECF0"/>
<rect x="64.666" y="248.406" width="90.6569" height="6.66667" rx="3.33333" fill="#1AB2FF"/>
<path d="M228.444 256.355C228.066 256.35 227.693 256.281 227.326 256.148C226.961 256.016 226.63 255.795 226.331 255.485C226.033 255.176 225.794 254.76 225.615 254.238C225.438 253.716 225.35 253.064 225.35 252.283C225.35 251.542 225.423 250.885 225.569 250.311C225.718 249.736 225.932 249.251 226.211 248.856C226.49 248.459 226.827 248.156 227.222 247.949C227.617 247.742 228.061 247.638 228.552 247.638C229.058 247.638 229.506 247.738 229.899 247.937C230.291 248.136 230.608 248.41 230.852 248.761C231.097 249.112 231.253 249.511 231.32 249.958H230.056C229.97 249.605 229.801 249.316 229.546 249.093C229.292 248.869 228.961 248.757 228.552 248.757C227.931 248.757 227.446 249.028 227.098 249.569C226.753 250.11 226.579 250.863 226.576 251.827H226.638C226.784 251.587 226.964 251.382 227.177 251.214C227.392 251.043 227.632 250.911 227.898 250.82C228.165 250.726 228.447 250.679 228.743 250.679C229.234 250.679 229.679 250.8 230.077 251.04C230.477 251.277 230.796 251.606 231.034 252.026C231.271 252.446 231.39 252.926 231.39 253.468C231.39 254.009 231.267 254.499 231.021 254.938C230.778 255.378 230.436 255.726 229.994 255.982C229.552 256.236 229.035 256.361 228.444 256.355ZM228.44 255.278C228.766 255.278 229.058 255.198 229.314 255.038C229.571 254.878 229.774 254.662 229.923 254.391C230.073 254.121 230.147 253.818 230.147 253.484C230.147 253.158 230.074 252.861 229.928 252.593C229.784 252.326 229.585 252.113 229.331 251.955C229.08 251.798 228.792 251.719 228.469 251.719C228.223 251.719 227.996 251.766 227.786 251.86C227.579 251.954 227.396 252.084 227.239 252.25C227.081 252.415 226.957 252.606 226.866 252.821C226.778 253.034 226.733 253.259 226.733 253.497C226.733 253.814 226.807 254.108 226.953 254.379C227.102 254.65 227.305 254.868 227.562 255.034C227.822 255.197 228.114 255.278 228.44 255.278ZM235.853 256.38C235.199 256.377 234.639 256.205 234.175 255.862C233.711 255.52 233.356 255.021 233.11 254.367C232.865 253.712 232.742 252.923 232.742 252.001C232.742 251.081 232.865 250.295 233.11 249.644C233.359 248.992 233.715 248.495 234.179 248.152C234.646 247.81 235.204 247.638 235.853 247.638C236.502 247.638 237.059 247.811 237.523 248.156C237.987 248.499 238.342 248.996 238.588 249.648C238.836 250.297 238.96 251.081 238.96 252.001C238.96 252.926 238.837 253.716 238.592 254.371C238.346 255.023 237.991 255.521 237.527 255.866C237.063 256.209 236.505 256.38 235.853 256.38ZM235.853 255.274C236.428 255.274 236.876 254.994 237.2 254.433C237.526 253.872 237.688 253.062 237.688 252.001C237.688 251.297 237.614 250.701 237.465 250.215C237.318 249.726 237.107 249.356 236.831 249.105C236.557 248.851 236.232 248.724 235.853 248.724C235.281 248.724 234.833 249.006 234.507 249.569C234.181 250.132 234.016 250.943 234.014 252.001C234.014 252.708 234.087 253.306 234.233 253.795C234.382 254.281 234.594 254.65 234.867 254.901C235.141 255.15 235.469 255.274 235.853 255.274ZM244.859 254.648V254.201C244.859 253.881 244.925 253.588 245.058 253.323C245.193 253.055 245.389 252.841 245.646 252.68C245.906 252.517 246.219 252.436 246.587 252.436C246.962 252.436 247.277 252.516 247.531 252.676C247.785 252.836 247.977 253.051 248.107 253.318C248.24 253.586 248.306 253.881 248.306 254.201V254.648C248.306 254.969 248.24 255.263 248.107 255.531C247.974 255.796 247.78 256.01 247.523 256.173C247.269 256.333 246.957 256.413 246.587 256.413C246.214 256.413 245.899 256.333 245.642 256.173C245.385 256.01 245.19 255.796 245.058 255.531C244.925 255.263 244.859 254.969 244.859 254.648ZM245.824 254.201V254.648C245.824 254.886 245.881 255.101 245.994 255.295C246.107 255.488 246.305 255.585 246.587 255.585C246.866 255.585 247.06 255.488 247.171 255.295C247.281 255.101 247.336 254.886 247.336 254.648V254.201C247.336 253.963 247.283 253.748 247.175 253.555C247.07 253.361 246.874 253.265 246.587 253.265C246.31 253.265 246.114 253.361 245.998 253.555C245.882 253.748 245.824 253.963 245.824 254.201ZM240.592 249.793V249.345C240.592 249.025 240.658 248.731 240.791 248.463C240.926 248.195 241.122 247.981 241.379 247.821C241.638 247.661 241.952 247.58 242.319 247.58C242.695 247.58 243.01 247.661 243.264 247.821C243.518 247.981 243.71 248.195 243.84 248.463C243.97 248.731 244.035 249.025 244.035 249.345V249.793C244.035 250.113 243.968 250.407 243.836 250.675C243.706 250.94 243.512 251.154 243.256 251.317C243.002 251.478 242.689 251.558 242.319 251.558C241.944 251.558 241.627 251.478 241.371 251.317C241.116 251.154 240.923 250.94 240.791 250.675C240.658 250.407 240.592 250.113 240.592 249.793ZM241.561 249.345V249.793C241.561 250.03 241.616 250.246 241.727 250.439C241.84 250.632 242.038 250.729 242.319 250.729C242.596 250.729 242.789 250.632 242.899 250.439C243.013 250.246 243.069 250.03 243.069 249.793V249.345C243.069 249.108 243.015 248.892 242.908 248.699C242.8 248.506 242.604 248.409 242.319 248.409C242.043 248.409 241.847 248.506 241.731 248.699C241.618 248.892 241.561 249.108 241.561 249.345ZM240.985 256.239L246.819 247.754H247.809L241.975 256.239H240.985Z" fill="#344054"/>
<path d="M65.2295 287.165V286.254H71.5931V287.165H68.925V294.739H67.8975V287.165H65.2295ZM74.8253 294.871C74.2508 294.871 73.7467 294.735 73.3131 294.461C72.8822 294.188 72.5453 293.805 72.3022 293.314C72.0619 292.822 71.9418 292.247 71.9418 291.59C71.9418 290.927 72.0619 290.349 72.3022 289.854C72.5453 289.36 72.8822 288.976 73.3131 288.702C73.7467 288.429 74.2508 288.292 74.8253 288.292C75.3998 288.292 75.9025 288.429 76.3333 288.702C76.767 288.976 77.1039 289.36 77.3442 289.854C77.5873 290.349 77.7088 290.927 77.7088 291.59C77.7088 292.247 77.5873 292.822 77.3442 293.314C77.1039 293.805 76.767 294.188 76.3333 294.461C75.9025 294.735 75.3998 294.871 74.8253 294.871ZM74.8253 293.993C75.2617 293.993 75.6207 293.881 75.9025 293.657C76.1842 293.434 76.3927 293.14 76.5281 292.775C76.6634 292.41 76.7311 292.015 76.7311 291.59C76.7311 291.165 76.6634 290.768 76.5281 290.401C76.3927 290.034 76.1842 289.737 75.9025 289.51C75.6207 289.284 75.2617 289.171 74.8253 289.171C74.3889 289.171 74.0298 289.284 73.7481 289.51C73.4664 289.737 73.2579 290.034 73.1225 290.401C72.9872 290.768 72.9195 291.165 72.9195 291.59C72.9195 292.015 72.9872 292.41 73.1225 292.775C73.2579 293.14 73.4664 293.434 73.7481 293.657C74.0298 293.881 74.3889 293.993 74.8253 293.993ZM82.8485 294.739V286.254H83.8262V289.386H83.9091C83.9809 289.276 84.0803 289.135 84.2074 288.963C84.3372 288.789 84.5223 288.635 84.7626 288.499C85.0056 288.361 85.3343 288.292 85.7486 288.292C86.2844 288.292 86.7567 288.426 87.1655 288.694C87.5743 288.962 87.8933 289.342 88.1225 289.833C88.3518 290.325 88.4664 290.905 88.4664 291.574C88.4664 292.247 88.3518 292.832 88.1225 293.326C87.8933 293.818 87.5756 294.199 87.1696 294.469C86.7636 294.737 86.2955 294.871 85.7652 294.871C85.3564 294.871 85.0291 294.804 84.7833 294.668C84.5374 294.53 84.3483 294.374 84.2157 294.2C84.0831 294.023 83.9809 293.877 83.9091 293.761H83.7931V294.739H82.8485ZM83.8097 291.557C83.8097 292.038 83.8801 292.462 84.021 292.829C84.1618 293.193 84.3676 293.479 84.6383 293.686C84.9089 293.891 85.2404 293.993 85.6326 293.993C86.0414 293.993 86.3825 293.885 86.6559 293.67C86.9321 293.452 87.1392 293.159 87.2773 292.792C87.4182 292.421 87.4886 292.01 87.4886 291.557C87.4886 291.11 87.4196 290.706 87.2815 290.347C87.1462 289.985 86.9404 289.7 86.6642 289.49C86.3907 289.277 86.0469 289.171 85.6326 289.171C85.2349 289.171 84.9007 289.271 84.63 289.473C84.3593 289.672 84.1549 289.951 84.0168 290.31C83.8787 290.666 83.8097 291.082 83.8097 291.557ZM92.7468 294.871C92.1336 294.871 91.6047 294.736 91.16 294.465C90.7181 294.192 90.377 293.811 90.1367 293.322C89.8991 292.83 89.7804 292.258 89.7804 291.607C89.7804 290.955 89.8991 290.38 90.1367 289.883C90.377 289.383 90.7112 288.994 91.1393 288.715C91.5702 288.433 92.0728 288.292 92.6473 288.292C92.9788 288.292 93.3061 288.348 93.6292 288.458C93.9524 288.568 94.2465 288.748 94.5117 288.997C94.7768 289.242 94.9881 289.568 95.1456 289.974C95.303 290.38 95.3817 290.88 95.3817 291.474V291.888H90.4764V291.043H94.3874C94.3874 290.684 94.3156 290.364 94.172 290.082C94.0311 289.8 93.8295 289.578 93.5671 289.415C93.3074 289.252 93.0009 289.171 92.6473 289.171C92.2579 289.171 91.9209 289.267 91.6364 289.461C91.3547 289.651 91.1379 289.9 90.986 290.206C90.8341 290.513 90.7581 290.842 90.7581 291.192V291.756C90.7581 292.236 90.841 292.644 91.0067 292.978C91.1752 293.309 91.4086 293.562 91.7069 293.736C92.0052 293.907 92.3518 293.993 92.7468 293.993C93.0036 293.993 93.2356 293.957 93.4428 293.885C93.6527 293.811 93.8336 293.7 93.9855 293.554C94.1374 293.405 94.2548 293.22 94.3377 292.999L95.2823 293.264C95.1828 293.584 95.0157 293.866 94.781 294.109C94.5462 294.349 94.2562 294.537 93.9109 294.672C93.5657 294.805 93.1776 294.871 92.7468 294.871ZM102.256 294.888C101.853 294.888 101.487 294.812 101.158 294.66C100.83 294.505 100.569 294.283 100.375 293.993C100.182 293.7 100.085 293.347 100.085 292.932C100.085 292.568 100.157 292.272 100.301 292.046C100.444 291.817 100.636 291.637 100.877 291.507C101.117 291.377 101.382 291.281 101.672 291.217C101.965 291.151 102.259 291.098 102.555 291.06C102.941 291.01 103.255 290.973 103.495 290.948C103.738 290.92 103.915 290.875 104.025 290.811C104.139 290.748 104.195 290.637 104.195 290.48V290.447C104.195 290.038 104.083 289.72 103.86 289.494C103.639 289.267 103.303 289.154 102.853 289.154C102.386 289.154 102.02 289.256 101.755 289.461C101.49 289.665 101.303 289.883 101.196 290.115L100.268 289.784C100.433 289.397 100.654 289.096 100.93 288.881C101.209 288.662 101.513 288.51 101.842 288.425C102.173 288.336 102.499 288.292 102.82 288.292C103.024 288.292 103.259 288.317 103.524 288.367C103.792 288.414 104.05 288.512 104.299 288.661C104.55 288.81 104.759 289.035 104.924 289.336C105.09 289.637 105.173 290.041 105.173 290.546V294.739H104.195V293.877H104.145C104.079 294.015 103.969 294.163 103.814 294.32C103.659 294.478 103.454 294.612 103.197 294.722C102.94 294.833 102.626 294.888 102.256 294.888ZM102.405 294.01C102.792 294.01 103.118 293.934 103.383 293.782C103.651 293.63 103.853 293.434 103.988 293.193C104.126 292.953 104.195 292.7 104.195 292.435V291.54C104.154 291.59 104.063 291.636 103.922 291.677C103.784 291.716 103.623 291.75 103.441 291.781C103.262 291.808 103.086 291.833 102.915 291.855C102.747 291.875 102.61 291.891 102.505 291.905C102.251 291.938 102.013 291.992 101.792 292.067C101.574 292.138 101.397 292.247 101.262 292.394C101.129 292.537 101.063 292.734 101.063 292.982C101.063 293.322 101.189 293.579 101.44 293.753C101.694 293.924 102.016 294.01 102.405 294.01ZM107.074 297.125V288.375H108.019V289.386H108.135C108.207 289.276 108.306 289.135 108.433 288.963C108.563 288.789 108.748 288.635 108.988 288.499C109.231 288.361 109.56 288.292 109.974 288.292C110.51 288.292 110.982 288.426 111.391 288.694C111.8 288.962 112.119 289.342 112.348 289.833C112.577 290.325 112.692 290.905 112.692 291.574C112.692 292.247 112.577 292.832 112.348 293.326C112.119 293.818 111.801 294.199 111.395 294.469C110.989 294.737 110.521 294.871 109.991 294.871C109.582 294.871 109.255 294.804 109.009 294.668C108.763 294.53 108.574 294.374 108.441 294.2C108.309 294.023 108.207 293.877 108.135 293.761H108.052V297.125H107.074ZM108.035 291.557C108.035 292.038 108.106 292.462 108.247 292.829C108.388 293.193 108.593 293.479 108.864 293.686C109.135 293.891 109.466 293.993 109.858 293.993C110.267 293.993 110.608 293.885 110.882 293.67C111.158 293.452 111.365 293.159 111.503 292.792C111.644 292.421 111.714 292.01 111.714 291.557C111.714 291.11 111.645 290.706 111.507 290.347C111.372 289.985 111.166 289.7 110.89 289.49C110.616 289.277 110.273 289.171 109.858 289.171C109.461 289.171 109.126 289.271 108.856 289.473C108.585 289.672 108.381 289.951 108.243 290.31C108.104 290.666 108.035 291.082 108.035 291.557ZM114.3 297.125V288.375H115.245V289.386H115.361C115.433 289.276 115.532 289.135 115.659 288.963C115.789 288.789 115.974 288.635 116.214 288.499C116.457 288.361 116.786 288.292 117.2 288.292C117.736 288.292 118.208 288.426 118.617 288.694C119.026 288.962 119.345 289.342 119.574 289.833C119.803 290.325 119.918 290.905 119.918 291.574C119.918 292.247 119.803 292.832 119.574 293.326C119.345 293.818 119.027 294.199 118.621 294.469C118.215 294.737 117.747 294.871 117.217 294.871C116.808 294.871 116.481 294.804 116.235 294.668C115.989 294.53 115.8 294.374 115.667 294.2C115.535 294.023 115.433 293.877 115.361 293.761H115.278V297.125H114.3ZM115.261 291.557C115.261 292.038 115.332 292.462 115.473 292.829C115.614 293.193 115.819 293.479 116.09 293.686C116.361 293.891 116.692 293.993 117.084 293.993C117.493 293.993 117.834 293.885 118.108 293.67C118.384 293.452 118.591 293.159 118.729 292.792C118.87 292.421 118.94 292.01 118.94 291.557C118.94 291.11 118.871 290.706 118.733 290.347C118.598 289.985 118.392 289.7 118.116 289.49C117.842 289.277 117.499 289.171 117.084 289.171C116.687 289.171 116.352 289.271 116.082 289.473C115.811 289.672 115.607 289.951 115.469 290.31C115.33 290.666 115.261 291.082 115.261 291.557ZM121.526 294.739V288.375H122.471V289.336H122.537C122.653 289.021 122.863 288.766 123.167 288.57C123.471 288.374 123.813 288.276 124.194 288.276C124.266 288.276 124.356 288.277 124.464 288.28C124.571 288.283 124.653 288.287 124.708 288.292V289.287C124.675 289.278 124.599 289.266 124.48 289.249C124.364 289.23 124.241 289.22 124.111 289.22C123.802 289.22 123.526 289.285 123.283 289.415C123.043 289.542 122.852 289.719 122.711 289.945C122.573 290.169 122.504 290.425 122.504 290.712V294.739H121.526ZM128.375 294.871C127.801 294.871 127.297 294.735 126.863 294.461C126.432 294.188 126.095 293.805 125.852 293.314C125.612 292.822 125.492 292.247 125.492 291.59C125.492 290.927 125.612 290.349 125.852 289.854C126.095 289.36 126.432 288.976 126.863 288.702C127.297 288.429 127.801 288.292 128.375 288.292C128.95 288.292 129.452 288.429 129.883 288.702C130.317 288.976 130.654 289.36 130.894 289.854C131.137 290.349 131.259 290.927 131.259 291.59C131.259 292.247 131.137 292.822 130.894 293.314C130.654 293.805 130.317 294.188 129.883 294.461C129.452 294.735 128.95 294.871 128.375 294.871ZM128.375 293.993C128.812 293.993 129.171 293.881 129.452 293.657C129.734 293.434 129.943 293.14 130.078 292.775C130.213 292.41 130.281 292.015 130.281 291.59C130.281 291.165 130.213 290.768 130.078 290.401C129.943 290.034 129.734 289.737 129.452 289.51C129.171 289.284 128.812 289.171 128.375 289.171C127.939 289.171 127.58 289.284 127.298 289.51C127.016 289.737 126.808 290.034 126.673 290.401C126.537 290.768 126.47 291.165 126.47 291.59C126.47 292.015 126.537 292.41 126.673 292.775C126.808 293.14 127.016 293.434 127.298 293.657C127.58 293.881 127.939 293.993 128.375 293.993ZM137.844 288.375L135.491 294.739H134.496L132.143 288.375H133.204L134.96 293.446H135.026L136.783 288.375H137.844ZM141.691 294.871C141.078 294.871 140.549 294.736 140.104 294.465C139.662 294.192 139.321 293.811 139.081 293.322C138.844 292.83 138.725 292.258 138.725 291.607C138.725 290.955 138.844 290.38 139.081 289.883C139.321 289.383 139.656 288.994 140.084 288.715C140.515 288.433 141.017 288.292 141.592 288.292C141.923 288.292 142.25 288.348 142.574 288.458C142.897 288.568 143.191 288.748 143.456 288.997C143.721 289.242 143.933 289.568 144.09 289.974C144.247 290.38 144.326 290.88 144.326 291.474V291.888H139.421V291.043H143.332C143.332 290.684 143.26 290.364 143.116 290.082C142.975 289.8 142.774 289.578 142.511 289.415C142.252 289.252 141.945 289.171 141.592 289.171C141.202 289.171 140.865 289.267 140.581 289.461C140.299 289.651 140.082 289.9 139.93 290.206C139.778 290.513 139.703 290.842 139.703 291.192V291.756C139.703 292.236 139.785 292.644 139.951 292.978C140.12 293.309 140.353 293.562 140.651 293.736C140.95 293.907 141.296 293.993 141.691 293.993C141.948 293.993 142.18 293.957 142.387 293.885C142.597 293.811 142.778 293.7 142.93 293.554C143.082 293.405 143.199 293.22 143.282 292.999L144.227 293.264C144.127 293.584 143.96 293.866 143.725 294.109C143.491 294.349 143.201 294.537 142.855 294.672C142.51 294.805 142.122 294.871 141.691 294.871ZM148.333 294.871C147.803 294.871 147.335 294.737 146.929 294.469C146.523 294.199 146.205 293.818 145.976 293.326C145.746 292.832 145.632 292.247 145.632 291.574C145.632 290.905 145.746 290.325 145.976 289.833C146.205 289.342 146.524 288.962 146.933 288.694C147.341 288.426 147.814 288.292 148.35 288.292C148.764 288.292 149.091 288.361 149.332 288.499C149.575 288.635 149.76 288.789 149.887 288.963C150.016 289.135 150.117 289.276 150.189 289.386H150.272V286.254H151.25V294.739H150.305V293.761H150.189C150.117 293.877 150.015 294.023 149.883 294.2C149.75 294.374 149.561 294.53 149.315 294.668C149.069 294.804 148.742 294.871 148.333 294.871ZM148.466 293.993C148.858 293.993 149.189 293.891 149.46 293.686C149.731 293.479 149.936 293.193 150.077 292.829C150.218 292.462 150.289 292.038 150.289 291.557C150.289 291.082 150.219 290.666 150.081 290.31C149.943 289.951 149.739 289.672 149.468 289.473C149.198 289.271 148.863 289.171 148.466 289.171C148.051 289.171 147.706 289.277 147.43 289.49C147.156 289.7 146.951 289.985 146.813 290.347C146.677 290.706 146.61 291.11 146.61 291.557C146.61 292.01 146.679 292.421 146.817 292.792C146.958 293.159 147.165 293.452 147.438 293.67C147.714 293.885 148.057 293.993 148.466 293.993Z" fill="#344054"/>
<rect x="64.666" y="305.739" width="149.667" height="6.66667" rx="3.33333" fill="#EAECF0"/>
<rect x="64.666" y="305.739" width="120.876" height="6.66667" rx="3.33333" fill="#1AB2FF"/>
<path d="M228.349 313.688C227.755 313.688 227.231 313.586 226.775 313.382C226.322 313.177 225.967 312.896 225.71 312.537C225.453 312.177 225.326 311.769 225.329 311.31C225.326 310.951 225.399 310.621 225.548 310.32C225.7 310.016 225.906 309.763 226.166 309.562C226.425 309.357 226.715 309.228 227.036 309.172V309.123C226.613 309.02 226.275 308.794 226.021 308.443C225.767 308.092 225.641 307.689 225.644 307.233C225.641 306.8 225.756 306.413 225.988 306.073C226.222 305.731 226.544 305.462 226.953 305.266C227.362 305.069 227.827 304.971 228.349 304.971C228.866 304.971 229.327 305.071 229.733 305.27C230.142 305.466 230.463 305.735 230.698 306.078C230.933 306.417 231.052 306.803 231.055 307.233C231.052 307.689 230.922 308.092 230.665 308.443C230.408 308.794 230.074 309.02 229.662 309.123V309.172C229.98 309.228 230.266 309.357 230.52 309.562C230.777 309.763 230.981 310.016 231.133 310.32C231.288 310.621 231.367 310.951 231.369 311.31C231.367 311.769 231.237 312.177 230.98 312.537C230.723 312.896 230.367 313.177 229.911 313.382C229.458 313.586 228.937 313.688 228.349 313.688ZM228.349 312.64C228.7 312.64 229.004 312.582 229.261 312.466C229.517 312.347 229.716 312.183 229.857 311.973C229.998 311.76 230.07 311.512 230.073 311.227C230.07 310.932 229.993 310.671 229.841 310.444C229.691 310.218 229.488 310.04 229.232 309.91C228.975 309.78 228.681 309.715 228.349 309.715C228.015 309.715 227.718 309.78 227.458 309.91C227.199 310.04 226.994 310.218 226.845 310.444C226.696 310.671 226.623 310.932 226.626 311.227C226.623 311.512 226.691 311.76 226.829 311.973C226.97 312.183 227.17 312.347 227.429 312.466C227.689 312.582 227.996 312.64 228.349 312.64ZM228.349 308.692C228.631 308.692 228.881 308.635 229.099 308.522C229.317 308.409 229.488 308.251 229.613 308.05C229.74 307.848 229.805 307.612 229.807 307.341C229.805 307.076 229.741 306.844 229.617 306.645C229.495 306.446 229.326 306.293 229.107 306.185C228.889 306.075 228.636 306.02 228.349 306.02C228.056 306.02 227.799 306.075 227.579 306.185C227.36 306.293 227.19 306.446 227.069 306.645C226.947 306.844 226.888 307.076 226.891 307.341C226.888 307.612 226.949 307.848 227.073 308.05C227.197 308.251 227.369 308.409 227.587 308.522C227.808 308.635 228.062 308.692 228.349 308.692ZM235.808 313.713C235.153 313.71 234.594 313.538 234.13 313.195C233.666 312.853 233.311 312.354 233.065 311.7C232.819 311.045 232.696 310.256 232.696 309.334C232.696 308.414 232.819 307.628 233.065 306.977C233.313 306.325 233.67 305.828 234.134 305.485C234.601 305.143 235.158 304.971 235.808 304.971C236.457 304.971 237.013 305.144 237.477 305.489C237.941 305.832 238.296 306.329 238.542 306.981C238.791 307.63 238.915 308.414 238.915 309.334C238.915 310.259 238.792 311.049 238.546 311.704C238.3 312.356 237.945 312.854 237.481 313.199C237.017 313.542 236.459 313.713 235.808 313.713ZM235.808 312.607C236.382 312.607 236.831 312.327 237.154 311.766C237.48 311.205 237.643 310.395 237.643 309.334C237.643 308.63 237.568 308.034 237.419 307.548C237.273 307.059 237.062 306.689 236.785 306.438C236.512 306.184 236.186 306.057 235.808 306.057C235.236 306.057 234.787 306.339 234.461 306.902C234.135 307.465 233.971 308.276 233.968 309.334C233.968 310.041 234.041 310.639 234.188 311.128C234.337 311.614 234.548 311.983 234.822 312.234C235.095 312.483 235.424 312.607 235.808 312.607ZM244.813 311.981V311.534C244.813 311.214 244.88 310.921 245.012 310.656C245.148 310.388 245.344 310.174 245.601 310.013C245.86 309.85 246.174 309.769 246.541 309.769C246.917 309.769 247.232 309.849 247.486 310.009C247.74 310.169 247.932 310.384 248.061 310.651C248.194 310.919 248.26 311.214 248.26 311.534V311.981C248.26 312.302 248.194 312.596 248.061 312.864C247.929 313.129 247.734 313.343 247.477 313.506C247.223 313.666 246.911 313.746 246.541 313.746C246.168 313.746 245.853 313.666 245.596 313.506C245.34 313.343 245.145 313.129 245.012 312.864C244.88 312.596 244.813 312.302 244.813 311.981ZM245.779 311.534V311.981C245.779 312.219 245.835 312.434 245.949 312.628C246.062 312.821 246.259 312.918 246.541 312.918C246.82 312.918 247.015 312.821 247.125 312.628C247.236 312.434 247.291 312.219 247.291 311.981V311.534C247.291 311.296 247.237 311.081 247.129 310.888C247.024 310.694 246.828 310.598 246.541 310.598C246.265 310.598 246.069 310.694 245.953 310.888C245.837 311.081 245.779 311.296 245.779 311.534ZM240.546 307.126V306.678C240.546 306.358 240.612 306.064 240.745 305.796C240.88 305.528 241.076 305.314 241.333 305.154C241.593 304.994 241.906 304.913 242.274 304.913C242.649 304.913 242.964 304.994 243.218 305.154C243.472 305.314 243.664 305.528 243.794 305.796C243.924 306.064 243.989 306.358 243.989 306.678V307.126C243.989 307.446 243.923 307.74 243.79 308.008C243.66 308.273 243.467 308.487 243.21 308.65C242.956 308.811 242.644 308.891 242.274 308.891C241.898 308.891 241.582 308.811 241.325 308.65C241.071 308.487 240.878 308.273 240.745 308.008C240.612 307.74 240.546 307.446 240.546 307.126ZM241.516 306.678V307.126C241.516 307.363 241.571 307.579 241.681 307.772C241.795 307.965 241.992 308.062 242.274 308.062C242.55 308.062 242.743 307.965 242.854 307.772C242.967 307.579 243.024 307.363 243.024 307.126V306.678C243.024 306.441 242.97 306.225 242.862 306.032C242.754 305.839 242.558 305.742 242.274 305.742C241.998 305.742 241.801 305.839 241.685 306.032C241.572 306.225 241.516 306.441 241.516 306.678ZM240.94 313.572L246.773 305.087H247.763L241.93 313.572H240.94Z" fill="#344054"/>
</g>
</g>
<rect x="41.7497" y="38.6559" width="230.833" height="292.5" rx="18.2388" stroke="#EAECF0" stroke-width="0.833333"/>
</g>
<defs>
<filter id="filter0_d_765_136036" x="0.290993" y="0.928335" width="313.751" height="375.418" filterUnits="userSpaceOnUse" color-interpolation-filters="sRGB">
<feFlood flood-opacity="0" result="BackgroundImageFix"/>
<feColorMatrix in="SourceAlpha" type="matrix" values="0 0 0 0 0 0 0 0 0 0 0 0 0 0 0 0 0 0 127 0" result="hardAlpha"/>
<feOffset dy="3.73109"/>
<feGaussianBlur stdDeviation="20.521"/>
<feComposite in2="hardAlpha" operator="out"/>
<feColorMatrix type="matrix" values="0 0 0 0 0 0 0 0 0 0 0 0 0 0 0 0 0 0 0.06 0"/>
<feBlend mode="normal" in2="BackgroundImageFix" result="effect1_dropShadow_765_136036"/>
<feBlend mode="normal" in="SourceGraphic" in2="effect1_dropShadow_765_136036" result="shape"/>
</filter>
<clipPath id="clip0_765_136036">
<rect x="41.333" y="38.2393" width="231.667" height="293.333" rx="18.6555" fill="white"/>
</clipPath>
<clipPath id="clip1_765_136036">
<rect width="231.667" height="293.333" fill="white" transform="translate(41.333 38.2393)"/>
</clipPath>
</defs>
</svg>
