<svg width="128" height="38" viewBox="0 0 128 38" fill="none" xmlns="http://www.w3.org/2000/svg">
<path d="M0 8C0 3.58172 3.58172 0 8 0H120C124.418 0 128 3.58172 128 8V30C128 34.4183 124.418 38 120 38H8C3.58172 38 0 34.4183 0 30V8Z" fill="#0F152E"/>
<g clip-path="url(#clip0_4193_371794)">
<path d="M12.6958 11.6956H19.6523V18.6521H12.6958V11.6956Z" fill="#F35325"/>
<path d="M20.3477 11.6956H27.3042V18.6521H20.3477V11.6956Z" fill="#81BC06"/>
<path d="M12.6958 19.3479H19.6523V26.3044H12.6958V19.3479Z" fill="#05A6F0"/>
<path d="M20.3477 19.3479H27.3042V26.3044H20.3477V19.3479Z" fill="#FFBA08"/>
</g>
<path d="M40.91 15V13.88C40.6967 14.28 40.3933 14.59 40 14.81C39.6133 15.03 39.1433 15.14 38.59 15.14C37.97 15.14 37.41 14.9867 36.91 14.68C36.4167 14.3733 36.0267 13.94 35.74 13.38C35.46 12.8133 35.32 12.16 35.32 11.42C35.32 10.68 35.46 10.03 35.74 9.47C36.0267 8.91 36.4167 8.48 36.91 8.18C37.41 7.87333 37.97 7.72 38.59 7.72C39.21 7.72 39.7867 7.89 40.32 8.23C40.8533 8.57 41.2467 9.06 41.5 9.7L40.78 9.8C40.56 9.3 40.25 8.93 39.85 8.69C39.4567 8.44333 39.0367 8.32 38.59 8.32C38.1033 8.32 37.6667 8.44667 37.28 8.7C36.8933 8.95333 36.59 9.31667 36.37 9.79C36.15 10.2567 36.04 10.8 36.04 11.42C36.04 12.04 36.15 12.5867 36.37 13.06C36.59 13.5333 36.8933 13.9 37.28 14.16C37.6667 14.4133 38.1033 14.54 38.59 14.54C39.3033 14.54 39.8467 14.31 40.22 13.85C40.5933 13.39 40.7967 12.78 40.83 12.02H38.72V11.43H41.53V15H40.91ZM46.8731 13.54C46.7198 13.9867 46.4565 14.3633 46.0831 14.67C45.7098 14.97 45.2031 15.12 44.5631 15.12C44.1031 15.12 43.6965 15.01 43.3431 14.79C42.9898 14.5633 42.7131 14.2433 42.5131 13.83C42.3131 13.41 42.2131 12.9233 42.2131 12.37C42.2131 11.8233 42.3131 11.3433 42.5131 10.93C42.7131 10.5167 42.9898 10.2 43.3431 9.98C43.6965 9.75333 44.1031 9.64 44.5631 9.64C45.0298 9.64 45.4431 9.75667 45.8031 9.99C46.1698 10.2167 46.4498 10.55 46.6431 10.99C46.8431 11.4233 46.9331 11.94 46.9131 12.54H42.8931C42.9065 13.14 43.0665 13.6267 43.3731 14C43.6798 14.3733 44.0765 14.56 44.5631 14.56C45.0165 14.56 45.3765 14.4533 45.6431 14.24C45.9098 14.02 46.0965 13.7567 46.2031 13.45L46.8731 13.54ZM44.5631 10.19C44.0898 10.19 43.7031 10.3633 43.4031 10.71C43.1031 11.05 42.9365 11.4767 42.9031 11.99H46.2331C46.1998 11.4767 46.0298 11.05 45.7231 10.71C45.4231 10.3633 45.0365 10.19 44.5631 10.19ZM49.3117 14.44C49.5384 14.44 49.7251 14.4333 49.8717 14.42V15C49.6717 15.0133 49.4651 15.02 49.2517 15.02C48.9251 15.02 48.6717 14.9867 48.4917 14.92C48.3117 14.8467 48.1817 14.7267 48.1017 14.56C48.0217 14.3933 47.9817 14.16 47.9817 13.86V10.28H47.0917V9.76H47.9817V8.23H48.6317V9.76H49.9017V10.28H48.6317V13.72C48.6317 14 48.6784 14.19 48.7717 14.29C48.8651 14.39 49.0451 14.44 49.3117 14.44ZM53.0629 9.76V15H52.4029V9.76H53.0629ZM53.0829 7.76V8.57H52.3729V7.76H53.0829ZM55.8059 14.44C56.0325 14.44 56.2192 14.4333 56.3659 14.42V15C56.1659 15.0133 55.9592 15.02 55.7459 15.02C55.4192 15.02 55.1659 14.9867 54.9859 14.92C54.8059 14.8467 54.6759 14.7267 54.5959 14.56C54.5159 14.3933 54.4759 14.16 54.4759 13.86V10.28H53.5859V9.76H54.4759V8.23H55.1259V9.76H56.3959V10.28H55.1259V13.72C55.1259 14 55.1725 14.19 55.2659 14.29C55.3592 14.39 55.5392 14.44 55.8059 14.44ZM60.887 8.21C60.6337 8.21 60.4337 8.25667 60.287 8.35C60.147 8.44333 60.077 8.64333 60.077 8.95V9.76H61.347V10.28H60.077V15H59.427V10.28H58.537V9.76H59.427V8.88C59.427 8.05333 59.8837 7.64 60.797 7.64C60.9304 7.64 61.067 7.64667 61.207 7.66C61.347 7.67333 61.4504 7.68667 61.517 7.7V8.26C61.437 8.24667 61.337 8.23667 61.217 8.23C61.1037 8.21667 60.9937 8.21 60.887 8.21ZM62.6416 10.76H62.6716C62.8049 10.4067 63.0249 10.1333 63.3316 9.94C63.6449 9.74 64.0049 9.64 64.4116 9.64C64.5716 9.64 64.7116 9.65333 64.8316 9.68V10.31C64.6916 10.29 64.5382 10.28 64.3716 10.28C63.8649 10.28 63.4549 10.4567 63.1416 10.81C62.8349 11.1567 62.6816 11.6667 62.6816 12.34V15H62.0216V9.76H62.6416V10.76ZM67.4847 9.64C67.9647 9.64 68.388 9.75333 68.7547 9.98C69.1214 10.2 69.4047 10.5167 69.6047 10.93C69.8114 11.3433 69.9147 11.8267 69.9147 12.38C69.9147 12.9333 69.8114 13.4167 69.6047 13.83C69.4047 14.2433 69.1214 14.5633 68.7547 14.79C68.388 15.01 67.9647 15.12 67.4847 15.12C67.0114 15.12 66.5914 15.01 66.2247 14.79C65.858 14.5633 65.5714 14.2433 65.3647 13.83C65.1647 13.4167 65.0647 12.9333 65.0647 12.38C65.0647 11.8267 65.1647 11.3433 65.3647 10.93C65.5714 10.5167 65.858 10.2 66.2247 9.98C66.5914 9.75333 67.0114 9.64 67.4847 9.64ZM67.4847 14.56C68.0047 14.56 68.4247 14.3667 68.7447 13.98C69.0714 13.5867 69.2347 13.0533 69.2347 12.38C69.2347 11.7067 69.0714 11.1733 68.7447 10.78C68.4247 10.3867 68.0047 10.19 67.4847 10.19C66.9647 10.19 66.5447 10.3867 66.2247 10.78C65.9047 11.1733 65.7447 11.7067 65.7447 12.38C65.7447 13.0533 65.9047 13.5867 66.2247 13.98C66.5447 14.3667 66.9647 14.56 67.4847 14.56ZM76.0458 9.64C76.5524 9.64 76.9658 9.8 77.2858 10.12C77.6058 10.44 77.7658 10.8933 77.7658 11.48V15H77.1058V11.76C77.1058 11.22 77.0091 10.8267 76.8158 10.58C76.6291 10.3267 76.3258 10.2 75.9058 10.2C75.5191 10.2 75.1891 10.3433 74.9158 10.63C74.6424 10.9167 74.5058 11.3667 74.5058 11.98V15H73.8458V11.76C73.8458 11.22 73.7491 10.8267 73.5558 10.58C73.3691 10.3267 73.0691 10.2 72.6558 10.2C72.2624 10.2 71.9291 10.3533 71.6558 10.66C71.3891 10.96 71.2558 11.4233 71.2558 12.05V15H70.5958V9.76H71.2158V10.56H71.2458C71.3724 10.3 71.5758 10.0833 71.8558 9.91C72.1358 9.73 72.4491 9.64 72.7958 9.64C73.1558 9.64 73.4691 9.72333 73.7358 9.89C74.0024 10.05 74.2024 10.2867 74.3358 10.6C74.5024 10.32 74.7291 10.09 75.0158 9.91C75.3091 9.73 75.6524 9.64 76.0458 9.64Z" fill="white"/>
<path d="M45.262 30H44.044V21.838H44.002L40.936 30H39.928L36.862 21.838H36.82V30H35.644V20.004H37.45L40.432 28.152H40.474L43.456 20.004H45.262V30ZM47.7022 22.636V30H46.5262V22.636H47.7022ZM47.7302 19.864V21.208H46.5122V19.864H47.7302ZM52.0964 29.202C53.1231 29.202 53.8184 28.642 54.1824 27.522L55.3864 27.704C55.1904 28.3573 54.8264 28.9313 54.2944 29.426C53.7624 29.9207 53.0297 30.168 52.0964 30.168C51.4244 30.168 50.8271 30.0093 50.3044 29.692C49.7911 29.3747 49.3897 28.9267 49.1004 28.348C48.8204 27.76 48.6804 27.0833 48.6804 26.318C48.6804 25.5527 48.8204 24.8807 49.1004 24.302C49.3897 23.714 49.7957 23.2613 50.3184 22.944C50.8411 22.6267 51.4384 22.468 52.1104 22.468C53.0064 22.468 53.6971 22.6873 54.1824 23.126C54.6771 23.5553 55.0224 24.0127 55.2184 24.498L54.0984 24.862C53.7157 23.91 53.0531 23.434 52.1104 23.434C51.4384 23.434 50.8971 23.6953 50.4864 24.218C50.0851 24.7313 49.8844 25.4313 49.8844 26.318C49.8844 27.2047 50.0851 27.9093 50.4864 28.432C50.8877 28.9453 51.4244 29.202 52.0964 29.202ZM57.2842 23.896H57.3262C57.5222 23.4573 57.8208 23.112 58.2222 22.86C58.6328 22.5987 59.1042 22.468 59.6362 22.468C59.8508 22.468 60.0608 22.4867 60.2662 22.524V23.658C59.9582 23.63 59.7295 23.616 59.5802 23.616C58.9082 23.616 58.3668 23.8307 57.9562 24.26C57.5455 24.68 57.3402 25.3193 57.3402 26.178V30H56.1642V22.636H57.2842V23.896ZM64.143 22.468C64.8336 22.468 65.4403 22.6267 65.963 22.944C66.495 23.2613 66.9056 23.7093 67.195 24.288C67.4843 24.8667 67.629 25.5433 67.629 26.318C67.629 27.0927 67.4843 27.7693 67.195 28.348C66.9056 28.9267 66.495 29.3747 65.963 29.692C65.4403 30.0093 64.8336 30.168 64.143 30.168C63.4523 30.168 62.841 30.0093 62.309 29.692C61.7863 29.3747 61.3803 28.9267 61.091 28.348C60.8016 27.7693 60.657 27.0927 60.657 26.318C60.657 25.5433 60.8016 24.8667 61.091 24.288C61.3803 23.7093 61.7863 23.2613 62.309 22.944C62.841 22.6267 63.4523 22.468 64.143 22.468ZM64.143 29.202C64.8336 29.202 65.3843 28.9453 65.795 28.432C66.215 27.9093 66.425 27.2047 66.425 26.318C66.425 25.4313 66.215 24.7313 65.795 24.218C65.3843 23.6953 64.8336 23.434 64.143 23.434C63.4523 23.434 62.897 23.6953 62.477 24.218C62.0663 24.7313 61.861 25.4313 61.861 26.318C61.861 27.2047 62.0663 27.9093 62.477 28.432C62.897 28.9453 63.4523 29.202 64.143 29.202ZM73.0722 24.778C72.9789 24.3487 72.7596 24.0127 72.4142 23.77C72.0689 23.518 71.6676 23.392 71.2102 23.392C70.7249 23.392 70.3376 23.4993 70.0482 23.714C69.7589 23.9287 69.6142 24.218 69.6142 24.582C69.6142 24.9087 69.7449 25.1467 70.0062 25.296C70.2676 25.4453 70.6456 25.562 71.1402 25.646L71.9102 25.772C72.6756 25.9027 73.2682 26.1173 73.6882 26.416C74.1176 26.7053 74.3322 27.1953 74.3322 27.886C74.3322 28.614 74.0522 29.1787 73.4922 29.58C72.9322 29.972 72.2042 30.168 71.3082 30.168C70.4309 30.168 69.7029 29.958 69.1242 29.538C68.5549 29.118 68.2142 28.5627 68.1022 27.872L69.1802 27.634C69.2829 28.1567 69.5256 28.558 69.9082 28.838C70.2909 29.1087 70.7622 29.244 71.3222 29.244C71.8542 29.244 72.2882 29.1273 72.6242 28.894C72.9602 28.6513 73.1282 28.3293 73.1282 27.928C73.1282 27.5733 72.9882 27.3167 72.7082 27.158C72.4376 26.9993 72.0222 26.8687 71.4622 26.766L70.6922 26.626C70.0016 26.5047 69.4462 26.2993 69.0262 26.01C68.6156 25.7207 68.4102 25.2493 68.4102 24.596C68.4102 24.1853 68.5269 23.8167 68.7602 23.49C69.0029 23.1633 69.3389 22.9113 69.7682 22.734C70.1976 22.5567 70.6829 22.468 71.2242 22.468C71.7282 22.468 72.1902 22.5613 72.6102 22.748C73.0396 22.9347 73.3849 23.1867 73.6462 23.504C73.9169 23.8213 74.0849 24.1667 74.1502 24.54L73.0722 24.778ZM78.4984 22.468C79.1891 22.468 79.7958 22.6267 80.3184 22.944C80.8504 23.2613 81.2611 23.7093 81.5504 24.288C81.8398 24.8667 81.9844 25.5433 81.9844 26.318C81.9844 27.0927 81.8398 27.7693 81.5504 28.348C81.2611 28.9267 80.8504 29.3747 80.3184 29.692C79.7958 30.0093 79.1891 30.168 78.4984 30.168C77.8078 30.168 77.1964 30.0093 76.6644 29.692C76.1418 29.3747 75.7358 28.9267 75.4464 28.348C75.1571 27.7693 75.0124 27.0927 75.0124 26.318C75.0124 25.5433 75.1571 24.8667 75.4464 24.288C75.7358 23.7093 76.1418 23.2613 76.6644 22.944C77.1964 22.6267 77.8078 22.468 78.4984 22.468ZM78.4984 29.202C79.1891 29.202 79.7398 28.9453 80.1504 28.432C80.5704 27.9093 80.7804 27.2047 80.7804 26.318C80.7804 25.4313 80.5704 24.7313 80.1504 24.218C79.7398 23.6953 79.1891 23.434 78.4984 23.434C77.8078 23.434 77.2524 23.6953 76.8324 24.218C76.4218 24.7313 76.2164 25.4313 76.2164 26.318C76.2164 27.2047 76.4218 27.9093 76.8324 28.432C77.2524 28.9453 77.8078 29.202 78.4984 29.202ZM85.5996 20.69C85.2916 20.69 85.0489 20.7507 84.8716 20.872C84.7036 20.9933 84.6196 21.2453 84.6196 21.628V22.636H86.3136V23.546H84.6196V30H83.4436V23.546H82.2116V22.636H83.4436V21.516C83.4436 20.3027 84.1063 19.696 85.4316 19.696C85.8423 19.696 86.2016 19.7287 86.5096 19.794V20.76C86.2016 20.7133 85.8983 20.69 85.5996 20.69ZM90.027 29.006C90.2697 29.006 90.5217 28.9967 90.783 28.978V30C90.5217 30.0187 90.1997 30.028 89.817 30.028C89.3597 30.028 89.0003 29.9813 88.739 29.888C88.4777 29.7947 88.2817 29.6313 88.151 29.398C88.0297 29.1647 87.969 28.8333 87.969 28.404V23.546H86.737V22.636H87.969V20.522H89.145V22.636H90.839V23.546H89.145V28.11C89.145 28.474 89.2057 28.7167 89.327 28.838C89.4577 28.95 89.691 29.006 90.027 29.006Z" fill="white"/>
<defs>
<clipPath id="clip0_4193_371794">
<rect width="16" height="16" fill="white" transform="translate(12 11)"/>
</clipPath>
</defs>
</svg>
