<svg xmlns="http://www.w3.org/2000/svg" width="32" height="32" viewBox="0 0 32 32" fill="none">
  <g clip-path="url(#clip0_723_135856)">
    <path fill-rule="evenodd" clip-rule="evenodd" d="M20.1691 24.2789L22.9806 26.1531L24.0183 24.5943L21.2069 22.72L20.1691 24.2789ZM20.1691 18.9714L21.2069 20.5303L24.0183 18.656L22.9806 17.0926L20.1691 18.9714ZM28.1874 30.1257V14.944C28.9914 14.7349 29.7034 14.2653 30.2121 13.6086C30.7208 12.9518 30.9975 12.145 30.9989 11.3143V7.56116H28.1874V3.81256H22.4686C22.2888 2.90549 21.8469 2.07106 21.1977 1.41256C20.7668 0.966279 20.2505 0.611254 19.6795 0.368583C19.1086 0.125911 18.4947 0.000566675 17.8743 0H14.1257C13.5053 0.000566675 12.8914 0.125911 12.3205 0.368583C11.7495 0.611254 11.2332 0.966279 10.8023 1.41256C10.1531 2.07106 9.71121 2.90549 9.53142 3.81256H3.81256V7.56116H1.00112V11.3143C1.00249 12.145 1.2792 12.9518 1.78789 13.6086C2.29658 14.2653 3.00857 14.7349 3.81256 14.944V30.1257H0V32H32V30.1257H28.1874ZM5.68683 5.68683H11.3143V4.74972C11.3153 3.99842 11.6098 3.27726 12.135 2.74007C12.6603 2.20287 13.3746 1.89216 14.1257 1.87427H17.8743C18.6254 1.89216 19.3397 2.20287 19.865 2.74007C20.3902 3.27726 20.6847 3.99842 20.6857 4.74972V5.68683H26.3132V7.56116H5.68683V5.68683ZM2.87545 11.3143V9.43544H29.1246V11.3143C29.1246 11.8114 28.9271 12.2881 28.5756 12.6396C28.2241 12.9911 27.7474 13.1886 27.2503 13.1886C26.7532 13.1886 26.2764 12.9911 25.9249 12.6396C25.5734 12.2881 25.376 11.8114 25.376 11.3143H23.5017C23.5017 11.812 23.304 12.2893 22.9521 12.6412C22.6001 12.9932 22.1229 13.1908 21.6252 13.1908C21.1275 13.1908 20.6501 12.9932 20.2982 12.6412C19.9463 12.2893 19.7485 11.812 19.7485 11.3143H17.8743C17.8743 11.8114 17.6768 12.2881 17.3253 12.6396C16.9738 12.9911 16.4971 13.1886 16 13.1886C15.5029 13.1886 15.0262 12.9911 14.6747 12.6396C14.3232 12.2881 14.1257 11.8114 14.1257 11.3143H12.2515C12.2515 11.812 12.0537 12.2893 11.7018 12.6412C11.3499 12.9932 10.8725 13.1908 10.3748 13.1908C9.87714 13.1908 9.39986 12.9932 9.04794 12.6412C8.69601 12.2893 8.49827 11.812 8.49827 11.3143H6.624C6.624 11.8114 6.42655 12.2881 6.07506 12.6396C5.72356 12.9911 5.24681 13.1886 4.74972 13.1886C4.25263 13.1886 3.77588 12.9911 3.42439 12.6396C3.07289 12.2881 2.87545 11.8114 2.87545 11.3143ZM5.68683 14.944C5.9562 14.5676 6.31366 14.2629 6.72796 14.0565C7.14225 13.8502 7.6008 13.7484 8.0635 13.7601C8.52621 13.7718 8.979 13.8967 9.38231 14.1238C9.78562 14.3509 10.1272 14.6733 10.3771 15.0628C10.7286 14.6635 11.1612 14.3437 11.6459 14.1246C12.1307 13.9054 12.6566 13.7921 13.1886 13.7921C13.7205 13.7921 14.2464 13.9054 14.7312 14.1246C15.216 14.3437 15.6485 14.6635 16 15.0628C16.3515 14.6635 16.784 14.3437 17.2688 14.1246C17.7536 13.9054 18.2795 13.7921 18.8114 13.7921C19.3434 13.7921 19.8693 13.9054 20.3541 14.1246C20.8388 14.3437 21.2714 14.6635 21.6229 15.0628C21.8728 14.6733 22.2144 14.3509 22.6177 14.1238C23.021 13.8967 23.4738 13.7718 23.9365 13.7601C24.3992 13.7484 24.8577 13.8502 25.272 14.0565C25.6863 14.2629 26.0438 14.5676 26.3132 14.944V30.1257H5.68683V14.944ZM10.3771 18.8114C9.63088 18.8114 8.91523 19.1079 8.38756 19.6355C7.85988 20.1632 7.56345 20.8789 7.56345 21.6252C7.56345 22.3714 7.85988 23.0871 8.38756 23.6147C8.91523 24.1424 9.63088 24.4388 10.3771 24.4388H11.3143V28.2515H13.1886V24.736L18.8114 26.3086V16.9417L12.1234 18.8114H10.3771ZM10.3771 22.56C10.1286 22.56 9.89026 22.4612 9.71451 22.2855C9.53876 22.1097 9.44001 21.8714 9.44001 21.6229C9.44001 21.3743 9.53876 21.136 9.71451 20.9602C9.89026 20.7845 10.1286 20.6857 10.3771 20.6857H11.3143V22.56H10.3771ZM13.1886 20.4617L16.9372 19.4103V23.8354L13.1886 22.7886V20.4617Z" fill="white"/>
  </g>
  <defs>
    <clipPath id="clip0_723_135856">
      <rect width="32" height="32" fill="white"/>
    </clipPath>
  </defs>
</svg>