<svg xmlns="http://www.w3.org/2000/svg" width="41" height="41" viewBox="0 0 41 41" fill="none">
  <path fill-rule="evenodd" clip-rule="evenodd" d="M25.1026 35.6358H16.9498C9.56614 35.6358 6.41602 32.4856 6.41602 25.102V16.9465C6.41602 9.56422 9.56614 6.41406 16.9498 6.41406H25.1053C32.4889 6.41406 35.6377 9.56422 35.6377 16.9465V25.102C35.6351 32.4856 32.4862 35.6358 25.1026 35.6358ZM33.5989 16.9465C33.5989 10.6755 31.3749 8.45158 25.1026 8.45158H16.9498C10.6787 8.45158 8.45487 10.6755 8.45487 16.9465V25.102C8.45487 31.3744 10.6787 33.5969 16.9498 33.5969H25.1053C31.3776 33.5969 33.6015 31.3744 33.6015 25.102V16.9465H33.5989ZM19.8164 25.5971C19.7219 25.6919 19.6096 25.7671 19.4859 25.8184C19.3622 25.8697 19.2296 25.896 19.0958 25.896C18.9619 25.896 18.8294 25.8697 18.7057 25.8184C18.582 25.7671 18.4697 25.6919 18.3751 25.5971L14.5276 21.7509C14.4293 21.6571 14.3508 21.5446 14.2966 21.42C14.2425 21.2954 14.2138 21.1612 14.2122 21.0254C14.2107 20.8895 14.2363 20.7548 14.2875 20.629C14.3388 20.5032 14.4147 20.3888 14.5108 20.2928C14.6068 20.1967 14.7212 20.1208 14.847 20.0695C14.9728 20.0183 15.1075 19.9927 15.2434 19.9942C15.3792 19.9958 15.5134 20.0246 15.638 20.0787C15.7626 20.1329 15.8751 20.2113 15.9689 20.3096L19.0951 23.4358L26.0808 16.4621C26.1756 16.3674 26.288 16.2924 26.4117 16.2412C26.5354 16.19 26.668 16.1637 26.8019 16.1638C26.9358 16.1638 27.0685 16.1902 27.1921 16.2415C27.3158 16.2928 27.4282 16.368 27.5228 16.4627C27.6175 16.5574 27.6925 16.6699 27.7437 16.7936C27.7949 16.9174 27.8212 17.05 27.8211 17.1839C27.821 17.3178 27.7946 17.4503 27.7433 17.574C27.692 17.6977 27.6168 17.8101 27.5221 17.9047L19.8164 25.5971Z" fill="white"/>
</svg>