<svg xmlns="http://www.w3.org/2000/svg" width="16" height="16" viewBox="0 0 16 16" fill="none">
  <g clip-path="url(#clip0_3322_511941)">
    <path fill-rule="evenodd" clip-rule="evenodd" d="M10.2314 15.9979H5.76837C1.72097 15.9979 -0.00732422 14.274 -0.00732422 10.2334V5.77107C-0.00732422 1.73047 1.72097 0.00660323 5.76837 0.00660323H9.48759C9.63574 0.00660323 9.7779 0.0653637 9.88266 0.169986C9.98742 0.274608 10.0462 0.416516 10.0462 0.564474C10.0462 0.712432 9.98742 0.854339 9.88266 0.958962C9.7779 1.06358 9.63574 1.12234 9.48759 1.12234H5.76837C2.32626 1.12234 1.10838 2.33933 1.10838 5.77107V10.2341C1.10838 13.6658 2.32626 14.8828 5.76837 14.8828H10.2314C13.6736 14.8828 14.8914 13.6658 14.8914 10.2341V6.51395C14.8914 6.36619 14.9503 6.22446 15.0549 6.11998C15.1595 6.01549 15.3014 5.95679 15.4493 5.95679C15.5973 5.95679 15.7392 6.01549 15.8438 6.11998C15.9484 6.22446 16.0072 6.36619 16.0072 6.51395V10.2334C16.0072 14.274 14.2789 15.9979 10.2314 15.9979ZM4.27344 9.30333C4.12528 9.30333 3.98312 9.24454 3.87836 9.13992C3.7736 9.0353 3.71483 8.89342 3.71483 8.74546C3.71483 8.5975 3.7736 8.45559 3.87836 8.35097C3.98312 8.24635 4.12528 8.18759 4.27344 8.18759H7.99995C8.14811 8.18759 8.29018 8.24635 8.39494 8.35097C8.4997 8.45559 8.55856 8.5975 8.55856 8.74546C8.55856 8.89342 8.4997 9.0353 8.39494 9.13992C8.29018 9.24454 8.14811 9.30333 7.99995 9.30333H4.27344ZM11.5369 11.7206C11.5371 11.7935 11.5231 11.8659 11.4954 11.9334C11.4677 12.0009 11.4269 12.0623 11.3755 12.1141C11.324 12.1659 11.2628 12.2071 11.1954 12.2353C11.128 12.2635 11.0557 12.2781 10.9826 12.2784H4.27344C4.12528 12.2784 3.98312 12.2197 3.87836 12.115C3.7736 12.0104 3.71483 11.8685 3.71483 11.7206C3.71483 11.5726 3.7736 11.4307 3.87836 11.3261C3.98312 11.2215 4.12528 11.1627 4.27344 11.1627H10.9826C11.0557 11.163 11.128 11.1776 11.1954 11.2058C11.2628 11.234 11.324 11.2752 11.3755 11.327C11.4269 11.3788 11.4677 11.4402 11.4954 11.5077C11.5231 11.5753 11.5371 11.6476 11.5369 11.7206ZM13.2142 5.58464C12.6618 5.58464 12.1217 5.42104 11.6624 5.11454C11.2031 4.80804 10.845 4.37241 10.6336 3.86271C10.4222 3.35302 10.367 2.79215 10.4747 2.25107C10.5825 1.70998 10.8486 1.21295 11.2392 0.82285C11.6298 0.432748 12.1274 0.167086 12.6692 0.0594565C13.211 -0.0481726 13.7726 0.00707203 14.283 0.218194C14.7933 0.429316 15.2296 0.786831 15.5365 1.24554C15.8434 1.70425 16.0072 2.24356 16.0072 2.79524C16.0061 3.53468 15.7114 4.24351 15.1879 4.76637C14.6643 5.28923 13.9546 5.58349 13.2142 5.58464ZM13.2142 1.12161C12.8825 1.12161 12.5581 1.21986 12.2823 1.40392C12.0065 1.58799 11.7915 1.84959 11.6645 2.15567C11.5376 2.46175 11.5044 2.79856 11.5691 3.1235C11.6338 3.44843 11.7935 3.74691 12.0281 3.98118C12.2626 4.21544 12.5616 4.37497 12.887 4.43961C13.2123 4.50424 13.5495 4.47106 13.856 4.34428C14.1625 4.2175 14.4245 4.0028 14.6088 3.72733C14.7931 3.45187 14.8914 3.12801 14.8914 2.79671C14.8914 2.35245 14.7148 1.92639 14.4002 1.61225C14.0857 1.29811 13.659 1.12161 13.2142 1.12161Z" fill="#757B8A"/>
  </g>
  <defs>
    <clipPath id="clip0_3322_511941">
      <rect width="16" height="16" fill="white"/>
    </clipPath>
  </defs>
</svg>