<svg xmlns="http://www.w3.org/2000/svg" width="21" height="21" viewBox="0 0 21 21" fill="none">
  <path d="M10.8672 13.5625C12.2479 13.5625 13.3672 12.4432 13.3672 11.0625C13.3672 9.68179 12.2479 8.5625 10.8672 8.5625C9.48648 8.5625 8.36719 9.68179 8.36719 11.0625C8.36719 12.4432 9.48648 13.5625 10.8672 13.5625Z" stroke="#888E9E" stroke-width="1.25"/>
  <path d="M2.53369 11.3648C2.53369 8.81135 2.53369 7.53452 3.15787 6.61735C3.42809 6.2203 3.77532 5.87938 4.17972 5.61408C4.77998 5.22029 5.53147 5.07954 6.68202 5.02923C7.23107 5.02923 7.70379 4.62075 7.81147 4.09215C7.97298 3.29926 8.68207 2.72852 9.50561 2.72852H12.2284C13.0519 2.72852 13.761 3.29926 13.9226 4.09215C14.0303 4.62075 14.5029 5.02923 15.052 5.02923C16.2026 5.07954 16.954 5.22029 17.5544 5.61408C17.9587 5.87938 18.3059 6.2203 18.5762 6.61735C19.2004 7.53452 19.2004 8.81135 19.2004 11.3648C19.2004 13.9184 19.2004 15.1953 18.5762 16.1124C18.3059 16.5094 17.9587 16.8503 17.5544 17.1157C16.6202 17.7285 15.3198 17.7285 12.7189 17.7285H9.01517C6.41432 17.7285 5.11389 17.7285 4.17972 17.1157C3.77532 16.8503 3.42809 16.5094 3.15787 16.1124C2.98157 15.8533 2.85507 15.5656 2.7643 15.2285" stroke="#888E9E" stroke-width="1.25" stroke-linecap="round"/>
  <path d="M16.7005 8.5625H15.8672" stroke="#888E9E" stroke-width="1.25" stroke-linecap="round"/>
</svg>