<svg width="24" height="24" viewBox="0 0 24 24" fill="none" xmlns="http://www.w3.org/2000/svg">
<path d="M11 11H3.75C3.336 11 3 11.336 3 11.75C3 12.164 3.336 12.5 3.75 12.5H11V19.75C11 20.164 11.336 20.5 11.75 20.5C12.164 20.5 12.5 20.164 12.5 19.75V12.5H19.75C20.164 12.5 20.5 12.164 20.5 11.75C20.5 11.336 20.164 11 19.75 11H12.5V3.75C12.5 3.336 12.164 3 11.75 3C11.336 3 11 3.336 11 3.75V11Z" fill="url(#paint0_linear_407_150380)"/>
<defs>
<linearGradient id="paint0_linear_407_150380" x1="11.75" y1="3" x2="11.75" y2="20.5" gradientUnits="userSpaceOnUse">
<stop stop-color="#1AB3FF"/>
<stop offset="1" stop-color="#FFB258"/>
</linearGradient>
</defs>
</svg>
