<svg xmlns="http://www.w3.org/2000/svg" width="24" height="24" viewBox="0 0 24 24" fill="none">
  <g clip-path="url(#clip0_89_267528)">
    <path fill-rule="evenodd" clip-rule="evenodd" d="M23.1705 6.13616C23.0604 6.13631 22.9515 6.11478 22.8498 6.07284C22.7481 6.03089 22.6557 5.96936 22.5779 5.89172C22.5 5.81408 22.4383 5.72186 22.3961 5.62036C22.354 5.51887 22.3322 5.41009 22.3322 5.30023V2.85815L18.1776 7.00717C18.1006 7.08862 18.0081 7.15382 17.9055 7.19892C17.8029 7.24402 17.6922 7.2681 17.5801 7.26973C17.468 7.27137 17.3567 7.25051 17.2528 7.20841C17.1489 7.16632 17.0545 7.10383 16.9752 7.02466C16.8959 6.94548 16.8334 6.85121 16.7912 6.74745C16.7491 6.64369 16.7282 6.53255 16.7298 6.42059C16.7314 6.30863 16.7555 6.19813 16.8007 6.09564C16.8459 5.99315 16.9111 5.90075 16.9927 5.82391L21.1474 1.67493H18.702C18.4851 1.66709 18.2797 1.5755 18.129 1.41949C17.9783 1.26347 17.8941 1.05518 17.8941 0.838424C17.8941 0.621672 17.9783 0.413376 18.129 0.257361C18.2797 0.101347 18.4851 0.0097937 18.702 0.00195318H23.1715C23.2812 0.00212606 23.3897 0.0240894 23.4908 0.0665826C23.5903 0.108123 23.6807 0.168399 23.7574 0.244088C23.9095 0.398619 23.996 0.605853 23.9988 0.822543C23.9988 0.822543 23.9988 0.829111 23.9988 0.831302V5.29364C24.0005 5.51497 23.9143 5.72796 23.759 5.8859C23.6037 6.04384 23.3921 6.13385 23.1705 6.13616ZM14.804 10.8658C14.5819 10.8658 14.3689 10.7778 14.2117 10.621C14.0546 10.4643 13.9661 10.2517 13.9658 10.0299C13.9771 9.74615 13.8754 9.46953 13.683 9.26051C13.4906 9.05149 13.2231 8.92711 12.939 8.91459H12.838V11.3906L13.9626 11.7828C14.479 11.9263 14.9287 12.246 15.2334 12.6864C15.5381 13.1268 15.6785 13.66 15.6302 14.1931C15.641 14.8556 15.3885 15.4954 14.9278 15.9722C14.4672 16.4491 13.836 16.7241 13.1726 16.7371H12.838V17.0154C12.8421 17.1278 12.8234 17.2398 12.7832 17.3449C12.7429 17.4499 12.6819 17.5458 12.6037 17.6267C12.5255 17.7077 12.4318 17.772 12.3282 17.816C12.2245 17.86 12.113 17.8827 12.0004 17.8827C11.8878 17.8827 11.7763 17.86 11.6726 17.816C11.569 17.772 11.4753 17.7077 11.3971 17.6267C11.3189 17.5458 11.2579 17.4499 11.2176 17.3449C11.1774 17.2398 11.1587 17.1278 11.1628 17.0154V16.7371H11.0706C10.3421 16.7241 9.64842 16.4232 9.14169 15.9003C8.63496 15.3775 8.35649 14.6753 8.36735 13.9477C8.3752 13.7311 8.46691 13.526 8.62314 13.3755C8.77937 13.2251 8.98798 13.141 9.20503 13.141C9.42208 13.141 9.63063 13.2251 9.78686 13.3755C9.94309 13.526 10.0348 13.7311 10.0427 13.9477C10.0314 14.2316 10.1332 14.5084 10.3259 14.7175C10.5186 14.9265 10.7864 15.0508 11.0706 15.063H11.1595V12.5793L10.0459 12.1904C9.52916 12.0475 9.07907 11.7279 8.77427 11.2874C8.46947 10.8468 8.32932 10.3133 8.37833 9.78008C8.36746 9.11781 8.62012 8.47829 9.08082 8.00179C9.54152 7.52528 10.1727 7.25073 10.8358 7.23834H11.165V6.96989C11.1609 6.8575 11.1796 6.74546 11.2198 6.64042C11.2601 6.53539 11.3211 6.43952 11.3993 6.35857C11.4775 6.27762 11.5712 6.21321 11.6748 6.16923C11.7785 6.12525 11.89 6.10259 12.0026 6.10259C12.1152 6.10259 12.2267 6.12525 12.3303 6.16923C12.434 6.21321 12.5277 6.27762 12.6059 6.35857C12.6841 6.43952 12.7451 6.53539 12.7854 6.64042C12.8256 6.74546 12.8443 6.8575 12.8402 6.96989V7.23834H12.9356C13.664 7.25102 14.3575 7.55171 14.8641 8.07444C15.3707 8.59717 15.6489 9.29924 15.6378 10.0266C15.6381 10.1366 15.6166 10.2456 15.5747 10.3473C15.5328 10.4491 15.4712 10.5416 15.3935 10.6195C15.3157 10.6974 15.2234 10.7593 15.1217 10.8016C15.02 10.8438 14.9109 10.8657 14.8007 10.8658H14.804ZM12.838 15.0597H13.1726C13.3915 15.047 13.5965 14.9484 13.743 14.7855C13.8895 14.6226 13.9656 14.4086 13.9549 14.1899C13.9778 14.0991 13.9816 14.0046 13.9659 13.9123C13.9502 13.82 13.9155 13.732 13.8639 13.6539C13.8123 13.5757 13.745 13.5092 13.6662 13.4585C13.5874 13.4078 13.4989 13.374 13.4063 13.3594L12.8402 13.1622V15.0597H12.838ZM11.1628 8.91459H10.8337C10.6149 8.92705 10.4099 9.02535 10.2634 9.18809C10.1168 9.35083 10.0406 9.56481 10.0514 9.78339C10.0274 9.87412 10.0229 9.96887 10.0381 10.0615C10.0533 10.1541 10.088 10.2424 10.1397 10.3207C10.1915 10.399 10.2593 10.4655 10.3386 10.5158C10.4179 10.5662 10.507 10.5992 10.6 10.6127L11.1562 10.8067V8.91459H11.1628ZM12.0009 1.67493C9.95733 1.67471 7.95958 2.27968 6.26028 3.41334C4.56098 4.54699 3.23647 6.15838 2.45427 8.04378C1.67207 9.92918 1.46726 12.0039 1.86581 14.0055C2.26437 16.0071 3.24835 17.8458 4.69332 19.2889C6.13829 20.7321 7.9794 21.7149 9.98373 22.1131C11.988 22.5113 14.0656 22.307 15.9537 21.5261C17.8417 20.7452 19.4555 19.4227 20.5909 17.7258C21.7262 16.029 22.3322 14.034 22.3322 11.9932C22.3282 11.8808 22.3468 11.7687 22.3871 11.6637C22.4273 11.5587 22.4884 11.4628 22.5666 11.3818C22.6448 11.3009 22.7385 11.2365 22.8422 11.1925C22.9458 11.1486 23.0573 11.1259 23.1699 11.1259C23.2826 11.1259 23.394 11.1486 23.4976 11.1925C23.6013 11.2365 23.695 11.3009 23.7732 11.3818C23.8514 11.4628 23.9124 11.5587 23.9527 11.6637C23.993 11.7687 24.0116 11.8808 24.0075 11.9932C24.0075 14.3649 23.3032 16.6833 21.9838 18.6553C20.6643 20.6272 18.7889 22.1642 16.5947 23.0717C14.4006 23.9793 11.9862 24.2167 9.65689 23.7539C7.3276 23.2912 5.18804 22.149 3.50877 20.4719C1.82951 18.7948 0.685982 16.658 0.222787 14.3319C-0.240408 12.0057 -0.00247319 9.59467 0.906528 7.40357C1.81553 5.21248 3.35472 3.3398 5.32952 2.02232C7.30432 0.704833 9.62599 0.00173648 12.0009 0.00195318C12.2178 0.0097937 12.4232 0.101347 12.5739 0.257361C12.7246 0.413376 12.8088 0.621672 12.8088 0.838424C12.8088 1.05518 12.7246 1.26347 12.5739 1.41949C12.4232 1.5755 12.2178 1.66709 12.0009 1.67493Z" fill="#757B8A"/>
  </g>
  <defs>
    <clipPath id="clip0_89_267528">
      <rect width="24" height="24" fill="white"/>
    </clipPath>
  </defs>
</svg>