<svg xmlns="http://www.w3.org/2000/svg" width="18" height="18" viewBox="0 0 18 18" fill="none">
  <g clip-path="url(#clip0_3322_511924)">
    <path fill-rule="evenodd" clip-rule="evenodd" d="M17.3754 4.60261C17.2929 4.60272 17.2112 4.58657 17.1349 4.55512C17.0586 4.52366 16.9893 4.47751 16.931 4.41928C16.8726 4.36105 16.8263 4.29188 16.7947 4.21576C16.7631 4.13964 16.7467 4.05806 16.7467 3.97566V2.1441L13.6307 5.25587C13.573 5.31696 13.5037 5.36585 13.4267 5.39968C13.3497 5.4335 13.2667 5.45156 13.1826 5.45279C13.0985 5.45401 13.0151 5.43837 12.9371 5.4068C12.8592 5.37523 12.7884 5.32836 12.729 5.26898C12.6695 5.2096 12.6226 5.1389 12.591 5.06108C12.5593 4.98325 12.5437 4.8999 12.5449 4.81593C12.5461 4.73196 12.5642 4.64908 12.5981 4.57222C12.632 4.49535 12.6809 4.42605 12.7421 4.36842L15.8581 1.25668H14.0241C13.8614 1.2508 13.7073 1.18211 13.5943 1.0651C13.4813 0.948093 13.4181 0.79187 13.4181 0.629306C13.4181 0.466742 13.4813 0.31052 13.5943 0.193509C13.7073 0.0764986 13.8614 0.00783356 14.0241 0.00195316H17.3762C17.4585 0.00208283 17.5399 0.0185553 17.6157 0.0504252C17.6902 0.0815806 17.7581 0.126788 17.8156 0.183554C17.9297 0.299452 17.9946 0.454878 17.9966 0.617395C17.9966 0.617395 17.9966 0.622322 17.9966 0.623965V3.97072C17.998 4.13671 17.9333 4.29646 17.8168 4.41492C17.7003 4.53337 17.5416 4.60087 17.3754 4.60261ZM11.1006 8.14985C10.934 8.14985 10.7742 8.08382 10.6564 7.96626C10.5385 7.84871 10.4722 7.68925 10.4719 7.52289C10.4804 7.3101 10.4041 7.10263 10.2598 6.94587C10.1155 6.7891 9.91485 6.69582 9.7018 6.68643H9.62607V8.54344L10.4695 8.83761C10.8568 8.94518 11.1941 9.18501 11.4226 9.51531C11.6511 9.84562 11.7564 10.2455 11.7202 10.6453C11.7283 11.1422 11.5389 11.622 11.1934 11.9797C10.8479 12.3373 10.3745 12.5436 9.87702 12.5533H9.62607V12.762C9.62912 12.8463 9.61513 12.9304 9.58494 13.0091C9.55474 13.0879 9.50898 13.1598 9.45035 13.2205C9.39171 13.2812 9.32143 13.3295 9.24369 13.3625C9.16595 13.3955 9.08232 13.4125 8.99786 13.4125C8.91339 13.4125 8.82977 13.3955 8.75202 13.3625C8.67428 13.3295 8.604 13.2812 8.54537 13.2205C8.48673 13.1598 8.44097 13.0879 8.41077 13.0091C8.38058 12.9304 8.36659 12.8463 8.36964 12.762V12.5533H8.30054C7.75414 12.5436 7.23387 12.3179 6.85382 11.9257C6.47378 11.5336 6.26492 11.007 6.27307 10.4613C6.27896 10.2988 6.34774 10.145 6.46491 10.0321C6.58208 9.91928 6.73855 9.85622 6.90133 9.85622C7.06412 9.85622 7.22053 9.91928 7.3377 10.0321C7.45487 10.145 7.52366 10.2988 7.52955 10.4613C7.52107 10.6742 7.59747 10.8818 7.74198 11.0386C7.88649 11.1954 8.08735 11.2886 8.30054 11.2978H8.36718V9.43499L7.53201 9.14328C7.14443 9.03614 6.80686 8.79642 6.57826 8.466C6.34966 8.13559 6.24455 7.73547 6.28131 7.33555C6.27316 6.83884 6.46265 6.35921 6.80817 6.00183C7.1537 5.64445 7.62705 5.43853 8.12441 5.42924H8.3713V5.22791C8.36824 5.14361 8.38224 5.05959 8.41243 4.98081C8.44263 4.90203 8.48839 4.83013 8.54702 4.76942C8.60566 4.7087 8.67594 4.66039 8.75368 4.62741C8.83142 4.59443 8.91505 4.57743 8.99951 4.57743C9.08398 4.57743 9.16755 4.59443 9.24529 4.62741C9.32304 4.66039 9.39337 4.7087 9.452 4.76942C9.51064 4.83013 9.5564 4.90203 9.5866 4.98081C9.61679 5.05959 9.63078 5.14361 9.62773 5.22791V5.42924H9.69929C10.2455 5.43875 10.7657 5.66427 11.1457 6.05632C11.5256 6.44837 11.7343 6.97492 11.7259 7.52044C11.7261 7.60295 11.71 7.68469 11.6786 7.76099C11.6472 7.83729 11.601 7.90665 11.5427 7.96511C11.4843 8.02357 11.4151 8.06997 11.3388 8.10167C11.2625 8.13337 11.1807 8.14974 11.0981 8.14985H11.1006ZM9.62607 11.2953H9.87702C10.0412 11.2857 10.1949 11.2118 10.3048 11.0896C10.4147 10.9675 10.4718 10.8069 10.4637 10.6429C10.4809 10.5748 10.4837 10.5039 10.472 10.4347C10.4602 10.3655 10.4342 10.2995 10.3955 10.2409C10.3568 10.1823 10.3063 10.1324 10.2472 10.0944C10.1881 10.0563 10.1217 10.031 10.0523 10.02L9.62773 9.87212V11.2953H9.62607ZM8.36964 6.68643H8.12281C7.95871 6.69577 7.80497 6.7695 7.69508 6.89155C7.58518 7.01361 7.52804 7.1741 7.53613 7.33803C7.51812 7.40608 7.51472 7.47714 7.52613 7.54659C7.53754 7.61604 7.56352 7.6823 7.60237 7.74103C7.64121 7.79976 7.69204 7.84963 7.75152 7.88737C7.81101 7.92512 7.8778 7.94988 7.94754 7.96004L8.36472 8.10549V6.68643H8.36964ZM8.99826 1.25668C7.46555 1.25652 5.96724 1.71025 4.69277 2.56049C3.41829 3.41073 2.42491 4.61928 1.83826 6.03332C1.25161 7.44737 1.098 9.0034 1.39692 10.5046C1.69584 12.0058 2.43382 13.3848 3.51755 14.4672C4.60128 15.5495 5.98211 16.2866 7.48535 16.5853C8.9886 16.884 10.5467 16.7308 11.9628 16.1451C13.3788 15.5594 14.5892 14.5675 15.4407 13.2949C16.2922 12.0222 16.7467 10.526 16.7467 8.99539C16.7437 8.91109 16.7577 8.82704 16.7879 8.74826C16.8181 8.66948 16.8639 8.59758 16.9225 8.53687C16.9812 8.47615 17.0514 8.42787 17.1292 8.39489C17.2069 8.36191 17.2905 8.34489 17.375 8.34489C17.4595 8.34489 17.543 8.36191 17.6208 8.39489C17.6985 8.42787 17.7688 8.47615 17.8274 8.53687C17.8861 8.59758 17.9319 8.66948 17.9621 8.74826C17.9923 8.82704 18.0063 8.91109 18.0032 8.99539C18.0032 10.7742 17.475 12.513 16.4854 13.9919C15.4958 15.4709 14.0892 16.6236 12.4436 17.3043C10.798 17.985 8.98719 18.163 7.24022 17.8159C5.49326 17.4689 3.88859 16.6122 2.62914 15.3544C1.36969 14.0966 0.512045 12.494 0.164649 10.7494C-0.182748 9.0048 -0.0042963 7.19649 0.677455 5.55317C1.35921 3.90985 2.5136 2.50534 3.9947 1.51722C5.47579 0.529113 7.21705 0.00179064 8.99826 0.00195316C9.16094 0.00783356 9.31499 0.0764986 9.428 0.193509C9.541 0.31052 9.60417 0.466742 9.60417 0.629306C9.60417 0.79187 9.541 0.948093 9.428 1.0651C9.31499 1.18211 9.16094 1.2508 8.99826 1.25668Z" fill="#757B8A"/>
  </g>
  <defs>
    <clipPath id="clip0_3322_511924">
      <rect width="18" height="18" fill="white"/>
    </clipPath>
  </defs>
</svg>