<svg width="170" height="42" viewBox="0 0 170 42" fill="none" xmlns="http://www.w3.org/2000/svg">
<rect x="1" y="1" width="168" height="40" rx="20" stroke="url(#paint0_linear_3322_511981)" stroke-width="2"/>
<path d="M28.7048 22.5133H25.8828V27.1543H23.7408V15.0163H29.5038C30.8524 15.0163 31.9008 15.3506 32.6488 16.0193C33.4081 16.688 33.7878 17.6003 33.7878 18.7563C33.7878 19.6743 33.5498 20.445 33.0738 21.0683C32.5978 21.6916 31.9121 22.1166 31.0168 22.3433L33.9918 27.1543H31.4928L28.7048 22.5133ZM29.1978 20.7623C29.9798 20.7623 30.5748 20.5923 30.9828 20.2523C31.3908 19.901 31.5948 19.4023 31.5948 18.7563C31.5948 18.1216 31.3908 17.6343 30.9828 17.2943C30.5748 16.943 29.9798 16.7673 29.1978 16.7673H25.8828V20.7623H29.1978ZM42.9598 24.5193C42.7218 25.3013 42.2628 25.97 41.5828 26.5253C40.9028 27.0806 39.9451 27.3583 38.7098 27.3583C37.8485 27.3583 37.0891 27.1656 36.4318 26.7803C35.7745 26.3836 35.2645 25.834 34.9018 25.1313C34.5505 24.4286 34.3748 23.6126 34.3748 22.6833C34.3748 21.7313 34.5505 20.904 34.9018 20.2013C35.2531 19.4873 35.7518 18.9376 36.3978 18.5523C37.0551 18.1556 37.8258 17.9573 38.7098 17.9573C39.5598 17.9573 40.3078 18.1386 40.9538 18.5013C41.6111 18.864 42.1211 19.3966 42.4838 20.0993C42.8578 20.7906 43.0448 21.618 43.0448 22.5813C43.0448 22.6946 43.0335 22.876 43.0108 23.1253H36.3978C36.4205 23.93 36.6415 24.5873 37.0608 25.0973C37.4801 25.596 38.0298 25.8453 38.7098 25.8453C39.3558 25.8453 39.8545 25.6923 40.2058 25.3863C40.5571 25.069 40.8008 24.7063 40.9368 24.2983L42.9598 24.5193ZM38.7098 19.4703C38.0411 19.4703 37.5085 19.6856 37.1118 20.1163C36.7265 20.5356 36.4998 21.0626 36.4318 21.6973H41.0048C40.9368 21.0626 40.7045 20.5356 40.3078 20.1163C39.9225 19.6856 39.3898 19.4703 38.7098 19.4703ZM47.8833 27.3583C47.1126 27.3583 46.4213 27.1656 45.8093 26.7803C45.1973 26.3836 44.7156 25.834 44.3643 25.1313C44.0243 24.4173 43.8543 23.5956 43.8543 22.6663C43.8543 21.7256 44.0243 20.904 44.3643 20.2013C44.7156 19.4873 45.1973 18.9376 45.8093 18.5523C46.4213 18.1556 47.1183 17.9573 47.9003 17.9573C48.5236 17.9573 49.0733 18.0763 49.5493 18.3143C50.0366 18.541 50.4106 18.8753 50.6713 19.3173H50.7393V18.1613H52.6263V30.2823H50.6373V26.1173H50.5693C50.32 26.514 49.963 26.82 49.4983 27.0353C49.0336 27.2506 48.4953 27.3583 47.8833 27.3583ZM48.3423 19.5383C47.583 19.5383 46.9823 19.816 46.5403 20.3713C46.1096 20.9266 45.8943 21.6916 45.8943 22.6663C45.8943 23.641 46.1096 24.406 46.5403 24.9613C46.9823 25.5166 47.583 25.7943 48.3423 25.7943C49.079 25.7943 49.6626 25.5166 50.0933 24.9613C50.5353 24.406 50.7563 23.641 50.7563 22.6663C50.7563 21.6916 50.5353 20.9266 50.0933 20.3713C49.6626 19.816 49.079 19.5383 48.3423 19.5383ZM59.9052 25.9643C59.2479 26.8936 58.3072 27.3583 57.0832 27.3583C56.1879 27.3583 55.4342 27.0863 54.8222 26.5423C54.2215 25.9983 53.9212 25.188 53.9212 24.1113V18.1613H55.9102V23.5503C55.9102 24.321 56.0632 24.8763 56.3692 25.2163C56.6865 25.5563 57.1569 25.7263 57.7802 25.7263C58.1429 25.7263 58.4829 25.6243 58.8002 25.4203C59.1289 25.2163 59.3895 24.916 59.5822 24.5193C59.7749 24.1226 59.8712 23.6466 59.8712 23.0913V18.1613H61.8602V27.1543H59.9732V25.9643H59.9052ZM71.4647 24.5193C71.2267 25.3013 70.7677 25.97 70.0877 26.5253C69.4077 27.0806 68.45 27.3583 67.2147 27.3583C66.3533 27.3583 65.594 27.1656 64.9367 26.7803C64.2793 26.3836 63.7693 25.834 63.4067 25.1313C63.0553 24.4286 62.8797 23.6126 62.8797 22.6833C62.8797 21.7313 63.0553 20.904 63.4067 20.2013C63.758 19.4873 64.2567 18.9376 64.9027 18.5523C65.56 18.1556 66.3307 17.9573 67.2147 17.9573C68.0647 17.9573 68.8127 18.1386 69.4587 18.5013C70.116 18.864 70.626 19.3966 70.9887 20.0993C71.3627 20.7906 71.5497 21.618 71.5497 22.5813C71.5497 22.6946 71.5383 22.876 71.5157 23.1253H64.9027C64.9253 23.93 65.1463 24.5873 65.5657 25.0973C65.985 25.596 66.5347 25.8453 67.2147 25.8453C67.8607 25.8453 68.3593 25.6923 68.7107 25.3863C69.062 25.069 69.3057 24.7063 69.4417 24.2983L71.4647 24.5193ZM67.2147 19.4703C66.546 19.4703 66.0133 19.6856 65.6167 20.1163C65.2313 20.5356 65.0047 21.0626 64.9367 21.6973H69.5097C69.4417 21.0626 69.2093 20.5356 68.8127 20.1163C68.4273 19.6856 67.8947 19.4703 67.2147 19.4703ZM78.0882 20.8643C77.9748 20.3883 77.7368 20.0256 77.3742 19.7763C77.0115 19.527 76.5865 19.4023 76.0992 19.4023C75.6005 19.4023 75.2038 19.51 74.9092 19.7253C74.6145 19.9293 74.4672 20.224 74.4672 20.6093C74.4672 20.938 74.6032 21.176 74.8752 21.3233C75.1585 21.4706 75.5835 21.5896 76.1502 21.6803L77.0512 21.8333C78.0145 22.0033 78.7625 22.2753 79.2952 22.6493C79.8392 23.0233 80.1112 23.6523 80.1112 24.5363C80.1112 25.443 79.7485 26.14 79.0232 26.6273C78.2978 27.1146 77.3515 27.3583 76.1842 27.3583C75.0508 27.3583 74.1215 27.1033 73.3962 26.5933C72.6708 26.0833 72.2288 25.4033 72.0702 24.5533L73.9062 24.2133C74.0308 24.8026 74.2915 25.239 74.6882 25.5223C75.0848 25.8056 75.5948 25.9473 76.2182 25.9473C76.7735 25.9473 77.2212 25.8283 77.5612 25.5903C77.9125 25.341 78.0882 25.0123 78.0882 24.6043C78.0882 24.253 77.9352 23.9923 77.6292 23.8223C77.3345 23.6523 76.8868 23.522 76.2862 23.4313L75.3512 23.2613C74.4785 23.1253 73.7758 22.8703 73.2432 22.4963C72.7105 22.1223 72.4442 21.5046 72.4442 20.6433C72.4442 20.122 72.6028 19.6573 72.9202 19.2493C73.2375 18.8413 73.6738 18.524 74.2292 18.2973C74.7958 18.0706 75.4248 17.9573 76.1162 17.9573C76.7735 17.9573 77.3742 18.0706 77.9182 18.2973C78.4622 18.524 78.9042 18.8356 79.2442 19.2323C79.5955 19.629 79.8165 20.0653 79.9072 20.5413L78.0882 20.8643ZM84.8424 25.5223C85.2277 25.5223 85.4997 25.5166 85.6584 25.5053V27.1543C85.3864 27.177 84.9217 27.1883 84.2644 27.1883C83.675 27.1883 83.2047 27.1316 82.8534 27.0183C82.5134 26.905 82.2584 26.701 82.0884 26.4063C81.9184 26.1116 81.8334 25.6923 81.8334 25.1483V19.5893H80.3714V18.1613H81.8334V15.6453H83.8224V18.1613H85.7434V19.5893H83.8224V24.6213C83.8224 25.0066 83.896 25.256 84.0434 25.3693C84.1907 25.4713 84.457 25.5223 84.8424 25.5223ZM95.8294 27.1543C95.7501 27.0636 95.6821 26.9106 95.6254 26.6953C95.5801 26.48 95.5574 26.2306 95.5574 25.9473C95.2967 26.4006 94.8831 26.752 94.3164 27.0013C93.7611 27.2393 93.1774 27.3583 92.5654 27.3583C92.0327 27.3583 91.5341 27.2506 91.0694 27.0353C90.6161 26.82 90.2534 26.5083 89.9814 26.1003C89.7207 25.6923 89.5904 25.222 89.5904 24.6893C89.5904 23.76 89.9021 23.0743 90.5254 22.6323C91.1601 22.1903 92.1121 21.907 93.3814 21.7823C94.2201 21.6916 94.7924 21.5726 95.0984 21.4253C95.4044 21.2666 95.5574 21.04 95.5574 20.7453C95.5574 20.3486 95.4101 20.0426 95.1154 19.8273C94.8321 19.612 94.3901 19.5043 93.7894 19.5043C93.3247 19.5043 92.9054 19.6233 92.5314 19.8613C92.1687 20.0993 91.9137 20.4563 91.7664 20.9323L89.9304 20.5753C90.1231 19.7593 90.5707 19.119 91.2734 18.6543C91.9874 18.1896 92.8487 17.9573 93.8574 17.9573C95.1154 17.9573 96.0447 18.2123 96.6454 18.7223C97.2461 19.2323 97.5464 19.9123 97.5464 20.7623V25.2673C97.5464 25.8226 97.5577 26.2306 97.5804 26.4913C97.6144 26.752 97.6824 26.973 97.7844 27.1543H95.8294ZM95.5574 22.6153C95.4214 22.74 95.1664 22.8476 94.7924 22.9383C94.4184 23.0176 93.9424 23.0913 93.3644 23.1593C92.8544 23.2273 92.4351 23.386 92.1064 23.6353C91.7777 23.8733 91.6134 24.2076 91.6134 24.6383C91.6134 25.035 91.7381 25.341 91.9874 25.5563C92.2481 25.7716 92.6051 25.8793 93.0584 25.8793C93.4551 25.8793 93.8404 25.8 94.2144 25.6413C94.5997 25.4826 94.9171 25.239 95.1664 24.9103C95.4271 24.5703 95.5574 24.1453 95.5574 23.6353V22.6153ZM106.826 15.0163C108.004 15.0163 109.036 15.243 109.92 15.6963C110.804 16.1496 111.489 16.8296 111.977 17.7363C112.464 18.643 112.708 19.7593 112.708 21.0853C112.708 22.4113 112.464 23.5276 111.977 24.4343C111.489 25.341 110.804 26.021 109.92 26.4743C109.036 26.9276 108.004 27.1543 106.826 27.1543H102.117V15.0163H106.826ZM106.537 25.4033C107.817 25.4033 108.798 25.0463 109.478 24.3323C110.169 23.607 110.515 22.5246 110.515 21.0853C110.515 19.646 110.169 18.5693 109.478 17.8553C108.798 17.13 107.817 16.7673 106.537 16.7673H104.259V25.4033H106.537ZM122.216 24.5193C121.978 25.3013 121.519 25.97 120.839 26.5253C120.159 27.0806 119.201 27.3583 117.966 27.3583C117.104 27.3583 116.345 27.1656 115.688 26.7803C115.03 26.3836 114.52 25.834 114.158 25.1313C113.806 24.4286 113.631 23.6126 113.631 22.6833C113.631 21.7313 113.806 20.904 114.158 20.2013C114.509 19.4873 115.008 18.9376 115.654 18.5523C116.311 18.1556 117.082 17.9573 117.966 17.9573C118.816 17.9573 119.564 18.1386 120.21 18.5013C120.867 18.864 121.377 19.3966 121.74 20.0993C122.114 20.7906 122.301 21.618 122.301 22.5813C122.301 22.6946 122.289 22.876 122.267 23.1253H115.654C115.676 23.93 115.897 24.5873 116.317 25.0973C116.736 25.596 117.286 25.8453 117.966 25.8453C118.612 25.8453 119.11 25.6923 119.462 25.3863C119.813 25.069 120.057 24.7063 120.193 24.2983L122.216 24.5193ZM117.966 19.4703C117.297 19.4703 116.764 19.6856 116.368 20.1163C115.982 20.5356 115.756 21.0626 115.688 21.6973H120.261C120.193 21.0626 119.96 20.5356 119.564 20.1163C119.178 19.6856 118.646 19.4703 117.966 19.4703ZM133.633 17.9573C134.483 17.9573 135.197 18.235 135.775 18.7903C136.353 19.3343 136.642 20.1446 136.642 21.2213V27.1543H134.653V21.7653C134.653 20.9946 134.506 20.445 134.211 20.1163C133.928 19.7763 133.497 19.6063 132.919 19.6063C132.386 19.6063 131.933 19.8386 131.559 20.3033C131.185 20.768 130.998 21.414 130.998 22.2413V27.1543H129.009V21.7653C129.009 20.9946 128.862 20.445 128.567 20.1163C128.284 19.7763 127.859 19.6063 127.292 19.6063C126.759 19.6063 126.306 19.8386 125.932 20.3033C125.558 20.768 125.371 21.414 125.371 22.2413V27.1543H123.382V18.1613H125.286V19.3683H125.354C126.011 18.4276 126.89 17.9573 127.989 17.9573C128.544 17.9573 129.054 18.082 129.519 18.3313C129.984 18.5806 130.346 18.949 130.607 19.4363C131.015 18.949 131.457 18.5806 131.933 18.3313C132.409 18.082 132.976 17.9573 133.633 17.9573ZM142.141 17.9573C143.036 17.9573 143.818 18.15 144.487 18.5353C145.155 18.9206 145.671 19.4703 146.034 20.1843C146.396 20.8983 146.578 21.7256 146.578 22.6663C146.578 23.607 146.396 24.4343 146.034 25.1483C145.671 25.851 145.155 26.395 144.487 26.7803C143.818 27.1656 143.036 27.3583 142.141 27.3583C141.234 27.3583 140.441 27.1656 139.761 26.7803C139.092 26.395 138.576 25.851 138.214 25.1483C137.851 24.4343 137.67 23.607 137.67 22.6663C137.67 21.7256 137.851 20.8983 138.214 20.1843C138.576 19.4703 139.092 18.9206 139.761 18.5353C140.441 18.15 141.234 17.9573 142.141 17.9573ZM142.141 25.7943C142.877 25.7943 143.461 25.5223 143.892 24.9783C144.322 24.423 144.538 23.6523 144.538 22.6663C144.538 21.6803 144.322 20.9096 143.892 20.3543C143.461 19.799 142.877 19.5213 142.141 19.5213C141.393 19.5213 140.798 19.799 140.356 20.3543C139.925 20.9096 139.71 21.6803 139.71 22.6663C139.71 23.6523 139.925 24.423 140.356 24.9783C140.786 25.5223 141.381 25.7943 142.141 25.7943Z" fill="#29292B"/>
<defs>
<linearGradient id="paint0_linear_3322_511981" x1="85" y1="0" x2="85" y2="42" gradientUnits="userSpaceOnUse">
<stop stop-color="#24B3F8"/>
<stop offset="1" stop-color="#FFB258"/>
</linearGradient>
</defs>
</svg>
