<svg xmlns="http://www.w3.org/2000/svg" width="17" height="17" viewBox="0 0 17 17" fill="none">
  <g clip-path="url(#clip0_723_135630)">
    <path fill-rule="evenodd" clip-rule="evenodd" d="M8.86719 10.6419C8.58807 10.641 8.31494 10.7229 8.08242 10.8773C7.8499 11.0318 7.66844 11.2517 7.56099 11.5093C7.45355 11.7669 7.42498 12.0506 7.47888 12.3245C7.53278 12.5984 7.66673 12.8501 7.86378 13.0478C8.06083 13.2455 8.31211 13.3803 8.5858 13.435C8.85949 13.4898 9.14329 13.4622 9.40126 13.3556C9.65922 13.2489 9.87974 13.0682 10.0349 12.8362C10.1901 12.6041 10.2729 12.3313 10.2729 12.0522C10.273 11.6789 10.125 11.3209 9.86152 11.0565C9.59802 10.7921 9.24044 10.6431 8.86719 10.6419ZM8.86719 12.523C8.77396 12.5235 8.6827 12.4963 8.60497 12.4448C8.52723 12.3933 8.46654 12.32 8.43055 12.234C8.39456 12.148 8.38491 12.0532 8.40282 11.9617C8.42073 11.8703 8.46538 11.7861 8.53114 11.7201C8.5969 11.654 8.68081 11.6089 8.77221 11.5905C8.86361 11.5722 8.95839 11.5814 9.04456 11.617C9.13073 11.6525 9.20441 11.7129 9.25625 11.7903C9.30809 11.8678 9.33577 11.959 9.33577 12.0522C9.33592 12.1139 9.32391 12.175 9.30045 12.232C9.27698 12.2891 9.24251 12.3409 9.199 12.3847C9.15548 12.4284 9.10378 12.4631 9.04685 12.4869C8.98992 12.5106 8.92887 12.5229 8.86719 12.523ZM16.8672 1.17218H8.8649C8.64773 0.880307 8.3654 0.64318 8.0404 0.479687C7.7154 0.316195 7.35672 0.230857 6.99291 0.230469H0.867188V12.523H4.6752C4.69632 12.7211 4.73144 12.9174 4.78033 13.1105L4.87176 13.4625H5.90262C5.97794 13.6235 6.06661 13.778 6.16775 13.9242L5.6512 14.8179L5.91175 15.0739C6.42138 15.5752 7.0497 15.9393 7.73806 16.1322L8.08775 16.2305L8.60204 15.3345C8.77853 15.3482 8.95584 15.3482 9.13234 15.3345L9.64662 16.2305L9.99632 16.1322C10.6847 15.9393 11.313 15.5752 11.8226 15.0739L12.0832 14.8179L11.5666 13.9242C11.6678 13.778 11.7564 13.6235 11.8318 13.4625H12.8626L12.954 13.1105C13.0027 12.9173 13.0379 12.7211 13.0592 12.523H16.8672V1.17218ZM15.93 2.11161V3.05332H9.33577V2.58248C9.33599 2.42429 9.31989 2.26649 9.28775 2.11161H15.93ZM12.1152 12.523H11.1872L11.0775 12.8362C10.9811 13.1088 10.8355 13.3614 10.6478 13.5813L10.4329 13.8328L10.8969 14.6396C10.7736 14.7368 10.6438 14.8254 10.5083 14.9048C10.372 14.9825 10.2307 15.0512 10.0855 15.1105L9.62148 14.3036L9.2969 14.3653C9.01284 14.4179 8.72154 14.4179 8.43747 14.3653L8.11289 14.3036L7.64891 15.1105C7.50364 15.0512 7.36236 14.9825 7.22603 14.9048C7.09059 14.8254 6.96077 14.7368 6.83747 14.6396L7.30148 13.8328L7.08661 13.5813C6.8989 13.3614 6.75324 13.1088 6.65689 12.8362L6.54718 12.523H5.6192C5.57348 12.2108 5.57348 11.8936 5.6192 11.5813H6.54718L6.65689 11.2682C6.75327 10.9963 6.89894 10.7444 7.08661 10.5253L7.30148 10.2716L6.83747 9.46476C6.96081 9.36832 7.09063 9.28049 7.22603 9.2019C7.36184 9.12256 7.50318 9.05304 7.64891 8.99389L8.11289 9.80075L8.43747 9.73903C8.72174 9.68875 9.01263 9.68875 9.2969 9.73903L9.62148 9.80075L10.0855 8.99389C10.2312 9.05304 10.3725 9.12256 10.5083 9.2019C10.6438 9.28049 10.7736 9.36832 10.8969 9.46476L10.4329 10.2716L10.6478 10.5253C10.8354 10.7444 10.9811 10.9963 11.0775 11.2682L11.1872 11.5813H12.1152C12.1609 11.8936 12.1609 12.2108 12.1152 12.523ZM13.0592 11.5813C13.0377 11.3833 13.0025 11.1871 12.954 10.9939L12.8626 10.6419H11.8318C11.7564 10.4816 11.6677 10.3279 11.5666 10.1825L12.0832 9.28647L11.8226 9.03047C11.313 8.52915 10.6847 8.16507 9.99632 7.97218L9.64662 7.8762L9.13234 8.76989C8.95584 8.75618 8.77853 8.75618 8.60204 8.76989L8.08775 7.8762L7.73806 7.97218C7.0497 8.16507 6.42138 8.52915 5.91175 9.03047L5.6512 9.28647L6.16775 10.1825C6.06663 10.3279 5.97795 10.4816 5.90262 10.6419H4.87176L4.78033 10.9939C4.73184 11.1871 4.69671 11.3833 4.6752 11.5813H1.80432V1.17218H6.99291C7.36617 1.17333 7.72374 1.32244 7.98725 1.5868C8.25075 1.85116 8.39867 2.20922 8.3986 2.58248V3.99275H15.93V11.5813H13.0592Z" fill="url(#paint0_linear_723_135630)"/>
  </g>
  <defs>
    <linearGradient id="paint0_linear_723_135630" x1="8.86719" y1="0.230469" x2="8.86719" y2="16.2305" gradientUnits="userSpaceOnUse">
      <stop stop-color="#21B3FA"/>
      <stop offset="1" stop-color="#FAB25C"/>
    </linearGradient>
    <clipPath id="clip0_723_135630">
      <rect width="16" height="16" fill="white" transform="translate(0.867188 0.228516)"/>
    </clipPath>
  </defs>
</svg>