<svg xmlns="http://www.w3.org/2000/svg" width="17" height="17" viewBox="0 0 17 17" fill="none">
  <g clip-path="url(#clip0_723_135607)">
    <path d="M14.8572 1.24723C15.1201 1.2475 15.3722 1.35208 15.5582 1.53801C15.7441 1.72393 15.8487 1.97601 15.8489 2.23895V14.2191C15.8487 14.482 15.7441 14.7341 15.5582 14.9201C15.3722 15.106 15.1201 15.2105 14.8572 15.2108H2.8786C2.6157 15.2104 2.36369 15.1058 2.1778 14.9199C1.9919 14.734 1.88729 14.482 1.88688 14.2191V2.23895C1.88715 1.97601 1.99172 1.72393 2.17764 1.53801C2.36357 1.35208 2.61566 1.2475 2.8786 1.24723H14.8577M14.8577 0.228516H2.8786C2.3454 0.228516 1.83403 0.440338 1.457 0.817369C1.07997 1.1944 0.868164 1.70575 0.868164 2.23895V14.2191C0.868434 14.7521 1.08036 15.2632 1.45736 15.64C1.83436 16.0168 2.34558 16.2285 2.8786 16.2285H14.8577C15.3909 16.2285 15.9023 16.0167 16.2793 15.6397C16.6564 15.2626 16.8682 14.7513 16.8682 14.2181V2.23895C16.8682 1.70575 16.6564 1.1944 16.2793 0.817369C15.9023 0.440338 15.3909 0.228516 14.8577 0.228516Z" fill="url(#paint0_linear_723_135607)"/>
    <path d="M12.9554 6.82731H4.90194C4.76685 6.82731 4.63728 6.77364 4.54176 6.67812C4.44623 6.58259 4.39258 6.45304 4.39258 6.31795C4.39258 6.18286 4.44623 6.0533 4.54176 5.95777C4.63728 5.86225 4.76685 5.80859 4.90194 5.80859H12.9554C13.0905 5.80859 13.2201 5.86225 13.3156 5.95777C13.4111 6.0533 13.4648 6.18286 13.4648 6.31795C13.4648 6.45304 13.4111 6.58259 13.3156 6.67812C13.2201 6.77364 13.0905 6.82731 12.9554 6.82731Z" fill="url(#paint1_linear_723_135607)"/>
    <path d="M12.9554 10.8547H4.90194C4.76685 10.8547 4.63728 10.801 4.54176 10.7055C4.44623 10.6099 4.39258 10.4804 4.39258 10.3453C4.39258 10.2102 4.44623 10.0806 4.54176 9.98512C4.63728 9.88959 4.76685 9.83594 4.90194 9.83594H12.9554C13.0905 9.83594 13.2201 9.88959 13.3156 9.98512C13.4111 10.0806 13.4648 10.2102 13.4648 10.3453C13.4648 10.4804 13.4111 10.6099 13.3156 10.7055C13.2201 10.801 13.0905 10.8547 12.9554 10.8547Z" fill="url(#paint2_linear_723_135607)"/>
  </g>
  <defs>
    <linearGradient id="paint0_linear_723_135607" x1="8.86816" y1="0.228516" x2="8.86816" y2="16.2285" gradientUnits="userSpaceOnUse">
      <stop stop-color="#21B3FA"/>
      <stop offset="1" stop-color="#FAB25C"/>
    </linearGradient>
    <linearGradient id="paint1_linear_723_135607" x1="8.92868" y1="5.80859" x2="8.92868" y2="6.82731" gradientUnits="userSpaceOnUse">
      <stop stop-color="#21B3FA"/>
      <stop offset="1" stop-color="#FAB25C"/>
    </linearGradient>
    <linearGradient id="paint2_linear_723_135607" x1="8.92868" y1="9.83594" x2="8.92868" y2="10.8547" gradientUnits="userSpaceOnUse">
      <stop stop-color="#21B3FA"/>
      <stop offset="1" stop-color="#FAB25C"/>
    </linearGradient>
    <clipPath id="clip0_723_135607">
      <rect width="16" height="16" fill="white" transform="translate(0.867188 0.228516)"/>
    </clipPath>
  </defs>
</svg>