<svg width="85" height="39" viewBox="0 0 85 39" fill="none" xmlns="http://www.w3.org/2000/svg">
<g clip-path="url(#clip0_460_92279)">
<path d="M84.9996 0.562012H0.0102539V21.5657C5.78529 20.6461 11.7964 19.8731 18.0257 19.2645C40.862 17.0324 63.802 17.9824 84.9996 20.2423V0.562012Z" fill="#757B8A"/>
<path d="M74.5093 12.1158H74.7487C74.9889 13.3288 75.6658 13.9214 76.8653 13.9214C77.9519 13.9214 78.6001 13.3853 78.6001 12.5246C78.6001 11.6926 77.9519 11.3824 76.7667 10.832C75.0597 10.0421 74.1004 9.43522 74.1004 7.88336C74.1004 6.07776 75.4264 4.89258 77.7538 4.89258C78.6996 4.89258 79.5315 5.07634 80.2792 5.48517C80.2792 5.48517 79.7448 7.30341 79.7153 7.33291H79.5459C79.1505 6.30367 78.5436 5.82404 77.5708 5.82404C76.5694 5.82404 75.9903 6.37364 75.9903 7.0657C75.9903 7.89769 76.6714 8.77267 78.107 8.77267C79.8418 8.77267 80.6316 10.0556 80.6316 11.6926C80.6316 13.6677 79.1505 14.895 76.5829 14.895C75.6236 14.895 74.763 14.7256 74.0718 14.4297C74.2412 13.5969 74.382 12.8213 74.5093 12.1158Z" fill="white"/>
<path d="M50.6906 10.8686C50.6906 10.5381 50.6906 10.2077 50.6906 9.87812C50.6906 9.6775 50.6906 9.47603 50.6906 9.27541C50.6906 7.83313 50.6762 6.40349 50.5034 4.96289H56.3214C56.2928 5.23263 56.2641 5.4459 56.2641 5.60269C56.2641 5.75863 56.2928 5.95757 56.3214 6.22984C55.5324 6.15735 54.7864 6.12869 54.0548 6.12869C53.7387 6.12869 53.4234 6.12869 53.1216 6.14302C53.093 6.86542 53.0786 7.57266 53.0786 8.2664V9.0318C53.8685 9.0023 54.9154 8.95931 56.2211 8.90114C56.1781 9.20376 56.1638 9.43304 56.1638 9.57634C56.1638 9.70616 56.1925 9.92111 56.2211 10.2372C55.1447 10.1647 54.0978 10.1217 53.0786 10.1074V11.6719C53.0786 12.3893 53.093 13.0215 53.1503 13.5812C54.1407 13.5812 55.159 13.5374 56.2641 13.4227C56.2355 13.6958 56.2211 13.9108 56.2211 14.0971C56.2211 14.2269 56.2498 14.4562 56.2785 14.7714H50.5034C50.6762 13.4084 50.6906 12.117 50.6906 10.8686Z" fill="white"/>
<path d="M58.6313 4.96289H61.4004C61.7873 6.72802 62.3184 8.95509 63.1217 11.6289C63.7818 9.71712 64.5421 7.50354 65.3884 4.96289H67.1536C67.6408 6.79967 68.2865 9.02759 69.2044 11.6576C69.9218 9.47266 70.5245 7.24475 70.9839 4.96289H72.6479C71.8159 7.47487 70.7403 10.7523 69.4346 14.7731H67.7124C67.2682 13.3393 66.5795 11.14 65.5747 8.20824C64.6997 10.3932 63.9824 12.5772 63.351 14.7731H61.5724C60.7404 11.4561 59.7643 8.19391 58.6313 4.96289Z" fill="white"/>
<path d="M46.9589 10.8674C46.9589 8.16237 46.9875 6.20504 47.157 4.96338H46.1303L45.6304 4.96759C45.7299 6.58437 45.7299 7.76618 45.7299 8.53158V11.1456C43.9622 9.35176 42.122 7.30762 40.2684 4.96759H38.4046C38.4906 6.87603 38.5328 8.47594 38.5328 9.72688C38.5328 11.0764 38.5184 12.6477 38.376 14.4727H39.841C39.798 13.274 39.7837 12.453 39.7837 12.0079V8.16995C41.6947 10.1441 43.5483 12.2169 45.3733 14.4727H47.0727C46.9732 13.5244 46.9589 12.5508 46.9589 11.535C46.9589 11.3125 46.9589 11.0899 46.9589 10.8674Z" fill="white"/>
<path d="M5.63264 11.9005H5.87878C6.12576 13.1481 6.8212 13.7567 8.05359 13.7567C9.17049 13.7567 9.83726 13.2054 9.83726 12.3212C9.83726 11.4656 9.17049 11.1469 7.95243 10.5813C6.19826 9.76957 5.21201 9.14578 5.21201 7.55093C5.21201 5.6956 6.57506 4.47754 8.96734 4.47754C9.93842 4.47754 10.794 4.66552 11.5628 5.08615C11.5628 5.08615 11.0132 6.95496 10.9828 6.98615H10.8083C10.4029 5.92741 9.7791 5.43428 8.77852 5.43428C7.74928 5.43428 7.155 5.9999 7.155 6.71051C7.155 7.56526 7.9381 7.81224 9.32981 8.46468C10.939 9.23261 11.9252 9.78305 11.9252 11.4656C11.9252 13.4954 10.4029 14.7573 7.76361 14.7573C6.77821 14.7573 5.89311 14.5828 5.18335 14.2785C5.357 13.4229 5.50198 12.6255 5.63264 11.9005Z" fill="white"/>
<path d="M23.0707 4.6665C21.5483 6.16021 20.2864 7.50892 19.2142 8.68315C20.7214 11.0316 22.0844 12.9889 23.3311 14.5695H20.1566C19.736 13.6709 18.8804 12.221 17.401 10.278V12.5253C17.401 13.2064 17.4305 13.8732 17.5173 14.5695H14.8064C14.9657 12.6846 14.98 11.2061 14.98 10.1035C14.98 9.92987 14.98 9.77055 14.98 9.62556C14.98 8.24819 14.9657 6.59517 14.8064 4.6665H17.503C17.4305 5.4496 17.3723 6.21837 17.3723 6.94331V9.08945L19.8809 6.21837C20.3007 5.72525 20.707 5.20346 21.0695 4.6665H23.0707Z" fill="white"/>
<path d="M27.8789 14.5695C27.9657 13.5832 28.0239 12.5835 28.0239 11.5534C28.0239 11.1336 28.0087 10.713 27.9944 10.278L26.5883 7.68257C26.2259 7.00147 25.7041 5.95706 24.8198 4.6665H27.8932C28.5313 6.14588 29.1838 7.47942 29.8505 8.68315C30.5316 7.59575 31.2279 6.2622 31.9233 4.6665H33.6202C32.3583 6.49401 31.3291 8.29118 30.4591 10.0892C30.4591 10.3362 30.4591 10.568 30.4591 10.8141C30.4591 12.0608 30.4886 13.3227 30.5611 14.5695H27.8789Z" fill="white"/>
<path d="M84.9995 19.8402C63.7066 17.5381 40.6351 16.6092 17.6665 18.881C11.5754 19.4828 5.69411 20.244 0 21.146V26.4017C7.81413 25.0151 16.4282 22.7332 28.4318 21.661C48.9281 19.8318 65.4127 19.3361 84.9995 20.496V19.8402Z" fill="white"/>
<path d="M84.9996 20.486C65.477 19.3447 52.0943 18.2741 28.5466 20.6782C16.3862 21.919 7.864 23.3866 0.0102539 25.4923V39.6513H84.9996V20.486Z" fill="#757B8A"/>
<path d="M9.64338 24.541L6.1814 36.0869H8.51805L9.08957 33.7106H12.3265L12.9149 36.0869H15.4943L12.2051 24.541H9.64338ZM11.8587 31.7246H9.57426L10.6988 27.0125L11.8587 31.7246Z" fill="white"/>
<path d="M21.0289 27.5562V33.0294C21.0289 33.4627 21.0466 33.654 21.0634 33.81C21.1157 34.2264 21.3913 34.4338 21.8567 34.4338C22.1846 34.4338 22.4433 34.3301 22.6162 34.1219C22.7367 33.9836 22.8058 33.7923 22.8404 33.5841C22.8918 33.2722 22.8918 33.0294 22.8918 31.9192V27.5562H25.2664V36.0918H23.0309V34.9345C22.719 35.4352 22.5984 35.5911 22.3574 35.8154C22.0118 36.1087 21.495 36.2646 20.8384 36.2646C20.2315 36.2646 19.7636 36.1433 19.3995 35.8676C19.1744 35.6948 19.0007 35.4697 18.8794 35.211C18.672 34.6934 18.6543 34.4683 18.6543 33.0985V27.5562H21.0289Z" fill="white"/>
<path d="M32.5899 30.1161C32.3126 29.2849 31.9468 28.9562 31.3382 28.9562C30.8855 28.9562 30.5896 29.2504 30.5896 29.7005C30.5896 29.9947 30.7119 30.2543 30.9555 30.4103C31.1637 30.5485 31.4073 30.653 32.0167 30.8604C33.1269 31.2583 33.3174 31.3451 33.7498 31.6916C34.2691 32.1071 34.5464 32.7478 34.5464 33.4752C34.5464 35.1375 33.2474 36.2629 31.3036 36.2629C29.3952 36.2629 28.3558 35.4486 28.0962 33.7349L29.9836 33.423C30.1741 34.2887 30.6073 34.6874 31.355 34.6874C31.9468 34.6874 32.2949 34.4101 32.2949 33.9077C32.2949 33.5789 32.1912 33.3716 31.9299 33.1979C31.7209 33.0597 31.5472 32.9728 30.9201 32.7823C29.101 32.194 28.3558 31.4142 28.3558 30.0984C28.3558 28.4884 29.6025 27.3799 31.3904 27.3799C32.8841 27.3799 33.8881 28.1419 34.2868 29.6137L32.5899 30.1161Z" fill="white"/>
<path d="M40.1225 24.8555V27.5563H41.698V29.4209H40.1225V32.5609C40.1225 32.9427 40.1225 33.2377 40.1225 33.4114C40.1402 33.6196 40.1748 33.7924 40.2439 33.9492C40.3821 34.192 40.6595 34.3133 41.1442 34.3133C41.3692 34.3133 41.4729 34.2956 41.8194 34.2788V36.092C41.1442 36.2302 40.8668 36.2648 40.3653 36.2648C39.5678 36.2648 38.9441 36.0751 38.5108 35.6949C38.3026 35.5221 38.1466 35.2979 38.043 35.0383C37.817 34.503 37.8002 34.3133 37.8002 32.8213V29.4209H36.8477V27.5563H37.9216L38.1121 25.046L40.1225 24.8555Z" fill="white"/>
<path d="M47.0211 27.5536V29.6138C47.2638 28.7658 47.4198 28.4371 47.7485 28.0383C48.0773 27.6582 48.5451 27.4331 49.0298 27.4331C49.1681 27.4331 49.2549 27.45 49.4446 27.4845V29.8043C49.2372 29.7875 49.1504 29.7698 49.0467 29.7698C47.8522 29.7698 47.2984 30.6186 47.2984 32.4031V36.0868H44.9238V27.5536H47.0211Z" fill="white"/>
<path d="M54.2108 30.2543C54.2968 29.3372 54.5733 28.9562 55.1785 28.9562C55.8697 28.9562 56.0603 29.2672 56.0603 30.4625V30.7913C52.9801 30.9641 51.6626 31.8998 51.6626 33.9254C51.6626 35.3795 52.53 36.2629 53.9166 36.2629C54.5733 36.2629 55.1785 36.0547 55.611 35.6568C55.8352 35.4486 55.9734 35.2581 56.2508 34.7911C56.2508 34.8787 56.2508 34.9639 56.2508 35.0507C56.2508 35.57 56.2685 35.7259 56.3721 36.0892H58.5731C58.4871 35.795 58.4694 35.6913 58.4525 35.328C58.4525 35.0161 58.4348 34.4969 58.4348 34.185V30.7913C58.4348 28.9731 58.2443 28.4015 57.4292 27.9C56.8745 27.5358 56.2162 27.3799 55.4036 27.3799C53.4311 27.3799 52.2004 28.3147 51.9576 30.047L54.2108 30.2543ZM56.0603 32.0035V32.419C56.0603 33.5258 55.922 34.0468 55.5073 34.4623C55.3345 34.6174 55.144 34.7043 54.9366 34.7043C54.4182 34.7043 54.1417 34.3064 54.1417 33.6135C54.1417 32.575 54.591 32.194 56.0603 32.0035Z" fill="white"/>
<path d="M63.918 24.541H61.5435V36.0877H63.918V24.541Z" fill="white"/>
<path d="M67.0303 24.4893H69.4571V26.8436H67.0303V24.4893ZM67.0648 27.5542H69.4394V36.0882H67.0648V27.5542Z" fill="white"/>
<path d="M74.8072 30.2543C74.8931 29.3372 75.1696 28.9562 75.7749 28.9562C76.4661 28.9562 76.6566 29.2672 76.6566 30.4625V30.7913C73.5765 30.9641 72.2598 31.8998 72.2598 33.9254C72.2598 35.3795 73.1263 36.2629 74.513 36.2629C75.1696 36.2629 75.7749 36.0547 76.2073 35.6568C76.4315 35.4486 76.5698 35.2581 76.8471 34.7911C76.8471 34.8787 76.8471 34.9639 76.8471 35.0507C76.8471 35.57 76.8648 35.7259 76.9685 36.0892H79.1694C79.0834 35.795 79.0657 35.6913 79.0489 35.328C79.0489 35.0161 79.0312 34.4969 79.0312 34.185V30.7913C79.0312 28.9731 78.8407 28.4015 78.0264 27.9C77.4717 27.5358 76.8125 27.3799 75.9999 27.3799C74.0274 27.3799 72.7967 28.3147 72.554 30.047L74.8072 30.2543ZM76.6566 32.0035V32.419C76.6566 33.5258 76.5183 34.0468 76.1036 34.4623C75.9308 34.6174 75.7403 34.7043 75.5329 34.7043C75.0145 34.7043 74.738 34.3064 74.738 33.6135C74.738 32.575 75.1873 32.194 76.6566 32.0035Z" fill="white"/>
</g>
<defs>
<clipPath id="clip0_460_92279">
<rect width="85" height="39.0892" fill="white" transform="translate(0 0.562012)"/>
</clipPath>
</defs>
</svg>
