<svg xmlns="http://www.w3.org/2000/svg" width="24" height="24" viewBox="0 0 24 24" fill="none">
  <path fill-rule="evenodd" clip-rule="evenodd" d="M22.4643 9.87706L19.7841 11.3622C19.3366 11.5976 18.8377 11.7172 18.3326 11.7102C17.8257 11.7182 17.3252 11.597 16.8777 11.3578L14.2063 9.87815C13.754 9.60647 13.3765 9.22556 13.1081 8.77007C12.8397 8.31458 12.6889 7.79895 12.6695 7.27004V4.43468C12.6898 3.90689 12.8402 3.39243 13.1073 2.93741C13.3744 2.4824 13.7498 2.10108 14.1998 1.82766L16.881 0.342482C16.8839 0.341891 16.8868 0.341891 16.8897 0.342482C17.3391 0.121703 17.8328 0.00693997 18.3331 0.00693997C18.8334 0.00693997 19.3271 0.121703 19.7765 0.342482L22.4577 1.82985C22.9102 2.10098 23.288 2.48161 23.5565 2.93699C23.8249 3.39238 23.9755 3.90802 23.9945 4.43688V7.27223C23.9735 7.79955 23.8227 8.31342 23.5557 8.76796C23.2887 9.2225 22.9137 9.60355 22.4643 9.87706ZM14.3441 7.27004C14.3645 7.49829 14.4353 7.71912 14.5511 7.91655C14.667 8.11399 14.8251 8.28308 15.0141 8.41163L17.504 9.79033V6.62568L14.3441 4.80022V7.27004ZM18.9731 1.80681C18.7705 1.72046 18.5527 1.67596 18.3326 1.67596C18.1125 1.67596 17.8946 1.72046 17.692 1.80681L15.0502 3.27113L18.3402 5.17124L21.6193 3.26783L18.9731 1.80681ZM22.3255 4.79473L19.1786 6.62458V9.78375L21.6521 8.41383C21.8409 8.28433 21.9991 8.11477 22.1155 7.91712C22.2318 7.71947 22.3035 7.49858 22.3255 7.27004V4.79473ZM9.79478 22.157L7.11353 23.6411C6.66609 23.8766 6.16713 23.9962 5.66197 23.989C5.15516 23.9969 4.65464 23.8757 4.20713 23.6366L1.53683 22.1581C1.08485 21.8857 0.707619 21.5046 0.43928 21.049C0.17094 20.5934 0.0199562 20.0778 0 19.5488V16.7135C0.0205729 16.1859 0.171148 15.6717 0.438212 15.2169C0.705276 14.7621 1.08048 14.381 1.53026 14.1076L4.2104 12.6213C4.65983 12.3999 5.15376 12.2849 5.65433 12.2849C6.15489 12.2849 6.6488 12.3999 7.09822 12.6213L9.78604 14.1109C10.2382 14.3824 10.6156 14.7632 10.884 15.2185C11.1524 15.6737 11.3032 16.1892 11.3229 16.7179V19.5532C11.3017 20.0801 11.1511 20.5936 10.8845 21.0478C10.6179 21.5021 10.2435 21.8831 9.79478 22.157ZM8.98267 20.6926C9.17157 20.5633 9.3298 20.3937 9.44616 20.1961C9.56252 19.9984 9.63416 19.7774 9.65598 19.5488V17.0714L6.49596 18.9023V22.068L8.98267 20.6926ZM2.34457 20.6926L4.82254 22.0648V18.9045L1.67456 17.0812V19.5488C1.6946 19.7779 1.76534 19.9996 1.88164 20.1977C1.99795 20.3958 2.15687 20.5652 2.34677 20.6937L2.34457 20.6926ZM6.30249 14.0889C6.10068 14.0017 5.88329 13.9567 5.6636 13.9567C5.44391 13.9567 5.22655 14.0017 5.02475 14.0889L2.37956 15.5554L5.6587 17.4544L8.94441 15.551L6.30249 14.0889ZM8.19674 3.22174C8.08098 3.40873 7.89672 3.54258 7.68364 3.59446C7.47056 3.64634 7.24571 3.61211 7.05753 3.49912C6.86934 3.38614 6.73288 3.20343 6.67752 2.99038C6.62217 2.77732 6.65236 2.55096 6.76158 2.36004L7.06327 1.8562C5.5341 2.21338 4.16987 3.07876 3.19177 4.31206C2.21368 5.54536 1.67906 7.07428 1.67456 8.65093C1.67456 8.87393 1.58634 9.0878 1.42932 9.24549C1.2723 9.40317 1.05932 9.49177 0.837263 9.49177C0.615205 9.49177 0.402261 9.40317 0.245241 9.24549C0.0882223 9.0878 0 8.87393 0 8.65093C0.00723629 6.35233 0.922252 4.15051 2.54421 2.52864C4.16617 0.90678 6.36259 -0.00262249 8.65146 5.68075e-06C8.79933 5.40772e-05 8.94455 0.039363 9.0724 0.113969C9.20025 0.188575 9.30616 0.295817 9.37942 0.424806C9.45264 0.553529 9.49025 0.699579 9.48833 0.847815C9.48641 0.996049 9.44505 1.14108 9.36851 1.26784L8.19674 3.22174ZM15.8033 20.7783C15.9182 20.5881 16.1033 20.4513 16.3182 20.3974C16.5331 20.3435 16.7605 20.3771 16.9509 20.4907C17.0453 20.5468 17.1277 20.6212 17.1933 20.7095C17.2589 20.7978 17.3065 20.8983 17.3332 21.0051C17.3599 21.112 17.3653 21.2231 17.349 21.3321C17.3328 21.441 17.2952 21.5457 17.2384 21.6399L16.9367 22.1438C18.4659 21.7866 19.8301 20.9212 20.8082 19.6879C21.7863 18.4546 22.321 16.9257 22.3255 15.3491C22.3255 15.1261 22.4137 14.9122 22.5707 14.7545C22.7277 14.5968 22.9407 14.5082 23.1627 14.5082C23.3848 14.5082 23.5977 14.5968 23.7548 14.7545C23.9118 14.9122 24 15.1261 24 15.3491C23.9925 17.6476 23.0774 19.8492 21.4555 21.471C19.8336 23.0928 17.6373 24.0023 15.3485 24C15.2007 23.9999 15.0555 23.9606 14.9276 23.886C14.7998 23.8114 14.6938 23.7042 14.6206 23.5752C14.5474 23.4465 14.5098 23.3004 14.5117 23.1522C14.5136 23.0039 14.555 22.8589 14.6315 22.7322L15.8033 20.7783Z" fill="#757B8A"/>
</svg>