<svg xmlns="http://www.w3.org/2000/svg" width="22" height="22" viewBox="0 0 22 22" fill="none">
  <path fill-rule="evenodd" clip-rule="evenodd" d="M17.9762 9.58471L16.1894 10.5748C15.8911 10.7317 15.5585 10.8114 15.2217 10.8068C14.8838 10.8122 14.5501 10.7313 14.2518 10.5719L12.4709 9.58543C12.1694 9.40431 11.9177 9.15038 11.7387 8.84671C11.5598 8.54305 11.4593 8.1993 11.4463 7.84669V5.95646C11.4599 5.6046 11.5601 5.26162 11.7382 4.95828C11.9163 4.65493 12.1665 4.40072 12.4665 4.21844L14.254 3.22832C14.2559 3.22793 14.2579 3.22793 14.2598 3.22832C14.5594 3.08114 14.8885 3.00463 15.2221 3.00463C15.5556 3.00463 15.8847 3.08114 16.1843 3.22832L17.9718 4.2199C18.2735 4.40066 18.5253 4.65441 18.7043 4.958C18.8833 5.26159 18.9837 5.60535 18.9964 5.95792V7.84815C18.9823 8.1997 18.8818 8.54228 18.7038 8.84531C18.5258 9.14833 18.2758 9.40237 17.9762 9.58471ZM12.5627 7.84669C12.5764 7.99886 12.6235 8.14608 12.7008 8.2777C12.778 8.40932 12.8834 8.52206 13.0094 8.60776L14.6694 9.52689V7.41712L12.5627 6.20015V7.84669ZM15.6487 4.20454C15.5137 4.14697 15.3684 4.11731 15.2217 4.11731C15.075 4.11731 14.9298 4.14697 14.7947 4.20454L13.0334 5.18075L15.2268 6.4475L17.4129 5.17855L15.6487 4.20454ZM17.8836 6.19649L15.7857 7.41639V9.5225L17.4348 8.60922C17.5606 8.52289 17.6661 8.40985 17.7436 8.27808C17.8212 8.14632 17.869 7.99905 17.8836 7.84669V6.19649ZM9.52985 17.7713L7.74236 18.7607C7.44406 18.9178 7.11142 18.9975 6.77465 18.9927C6.43678 18.9979 6.10309 18.9171 5.80475 18.7578L4.02455 17.772C3.72323 17.5905 3.47175 17.3364 3.29285 17.0326C3.11396 16.7289 3.0133 16.3852 3 16.0326V14.1423C3.01372 13.7906 3.1141 13.4478 3.29214 13.1446C3.47018 12.8414 3.72032 12.5873 4.02017 12.405L5.80693 11.4142C6.10655 11.2666 6.43584 11.1899 6.76955 11.1899C7.10326 11.1899 7.43253 11.2666 7.73215 11.4142L9.52403 12.4072C9.82546 12.5883 10.0771 12.8421 10.256 13.1456C10.4349 13.4492 10.5355 13.7928 10.5486 14.1453V16.0355C10.5345 16.3867 10.4341 16.729 10.2563 17.0319C10.0786 17.3348 9.82901 17.5888 9.52985 17.7713ZM8.98844 16.7951C9.11438 16.7088 9.21987 16.5958 9.29744 16.464C9.37502 16.3323 9.42277 16.1849 9.43732 16.0326V14.3809L7.33064 15.6015V17.712L8.98844 16.7951ZM4.56305 16.7951L6.21502 17.7098V15.603L4.11637 14.3875V16.0326C4.12973 16.1853 4.17689 16.3331 4.25443 16.4651C4.33196 16.5972 4.43791 16.7102 4.56451 16.7958L4.56305 16.7951ZM7.20166 12.3926C7.06712 12.3345 6.9222 12.3045 6.77573 12.3045C6.62927 12.3045 6.48437 12.3345 6.34983 12.3926L4.58637 13.3703L6.77247 14.6363L8.96294 13.3674L7.20166 12.3926ZM8.46449 5.14782C8.38732 5.27249 8.26448 5.36172 8.12243 5.39631C7.98037 5.4309 7.83048 5.40808 7.70502 5.33275C7.57956 5.25742 7.48859 5.13562 7.45168 4.99358C7.41478 4.85155 7.43491 4.70064 7.50772 4.57336L7.70884 4.23747C6.6894 4.47559 5.77991 5.05251 5.12785 5.87471C4.47579 6.69691 4.11938 7.71619 4.11637 8.76729C4.11637 8.91596 4.05756 9.05853 3.95288 9.16366C3.8482 9.26878 3.70621 9.32785 3.55818 9.32785C3.41014 9.32785 3.26817 9.26878 3.16349 9.16366C3.05881 9.05853 3 8.91596 3 8.76729C3.00482 7.23489 3.61483 5.767 4.69614 4.68576C5.77745 3.60452 7.24173 2.99825 8.76764 3C8.86622 3.00004 8.96303 3.02624 9.04826 3.07598C9.1335 3.12572 9.20411 3.19721 9.25294 3.2832C9.30176 3.36902 9.32683 3.46639 9.32555 3.56521C9.32427 3.66403 9.2967 3.76072 9.24567 3.84523L8.46449 5.14782ZM13.5355 16.8522C13.6122 16.7254 13.7355 16.6342 13.8788 16.5983C14.0221 16.5624 14.1737 16.5847 14.3006 16.6604C14.3636 16.6979 14.4185 16.7475 14.4622 16.8063C14.5059 16.8652 14.5376 16.9322 14.5555 17.0034C14.5733 17.0747 14.5769 17.1487 14.566 17.2214C14.5552 17.294 14.5301 17.3638 14.4923 17.4266L14.2912 17.7625C15.3106 17.5244 16.2201 16.9475 16.8722 16.1253C17.5242 15.3031 17.8806 14.2838 17.8836 13.2327C17.8836 13.084 17.9424 12.9415 18.0471 12.8363C18.1518 12.7312 18.2938 12.6722 18.4418 12.6722C18.5899 12.6722 18.7318 12.7312 18.8365 12.8363C18.9412 12.9415 19 13.084 19 13.2327C18.995 14.7651 18.3849 16.2328 17.3037 17.314C16.2224 18.3952 14.7582 19.0016 13.2324 19C13.1338 19 13.037 18.9737 12.9517 18.924C12.8665 18.8743 12.7959 18.8028 12.7471 18.7168C12.6982 18.631 12.6732 18.5336 12.6744 18.4348C12.6757 18.336 12.7033 18.2393 12.7544 18.1548L13.5355 16.8522Z" fill="#757B8A"/>
</svg>