<svg xmlns="http://www.w3.org/2000/svg" width="16" height="16" viewBox="0 0 16 16" fill="none">
  <g clip-path="url(#clip0_3322_511956)">
    <path fill-rule="evenodd" clip-rule="evenodd" d="M11.8635 4.83467H14.5435C14.928 4.83448 15.2966 4.68162 15.5684 4.40969C15.8401 4.13776 15.9928 3.76903 15.9928 3.38456V2.19446C15.9928 1.80993 15.8401 1.44114 15.5684 1.16909C15.2966 0.897049 14.928 0.74401 14.5435 0.743624H11.8635C11.479 0.74401 11.1104 0.897049 10.8386 1.16909C10.5669 1.44114 10.4142 1.80993 10.4142 2.19446V2.23161H6.32139V2.04588C6.3212 1.50447 6.10652 0.985198 5.72434 0.60175C5.34215 0.218301 4.82356 0.00192669 4.28221 0H2.04647C1.50397 0.000385574 0.983748 0.216043 0.600073 0.599616C0.216398 0.983189 0.000578635 1.50333 0 2.04588V3.53606C0.000578635 4.07861 0.216398 4.59875 0.600073 4.98232C0.983748 5.3659 1.50397 5.58155 2.04647 5.58194H4.28221C4.82356 5.58001 5.34215 5.36364 5.72434 4.98019C6.10652 4.59674 6.3212 4.07747 6.32139 3.53606V3.35033H7.81437V12.4625C7.81514 13.0049 8.03096 13.5249 8.41462 13.9083C8.79827 14.2917 9.31837 14.5073 9.86075 14.5077H10.4142V14.5448C10.4142 14.9293 10.5669 15.2981 10.8386 15.5702C11.1104 15.8422 11.479 15.9952 11.8635 15.9956H14.5435C14.928 15.9952 15.2966 15.8422 15.5684 15.5702C15.8401 15.2981 15.9928 14.9293 15.9928 14.5448V13.3547C15.9928 12.9702 15.8401 12.6015 15.5684 12.3296C15.2966 12.0576 14.928 11.9048 14.5435 11.9046H11.8635C11.479 11.9048 11.1104 12.0576 10.8386 12.3296C10.5669 12.6015 10.4142 12.9702 10.4142 13.3547V13.3918H9.86075C9.73847 13.3922 9.61734 13.3685 9.50426 13.3219C9.39118 13.2754 9.28842 13.207 9.20182 13.1207C9.11522 13.0343 9.04646 12.9317 8.99958 12.8188C8.95269 12.7059 8.92855 12.5848 8.92855 12.4625V8.92571H10.4142V8.96285C10.4142 9.34739 10.5669 9.71618 10.8386 9.98823C11.1104 10.2603 11.479 10.4133 11.8635 10.4137H14.5435C14.928 10.4133 15.2966 10.2603 15.5684 9.98823C15.8401 9.71618 15.9928 9.34739 15.9928 8.96285V7.77349C15.9928 7.38896 15.8401 7.02014 15.5684 6.7481C15.2966 6.47605 14.928 6.32304 14.5435 6.32265H11.8635C11.479 6.32304 11.1104 6.47605 10.8386 6.7481C10.5669 7.02014 10.4142 7.38896 10.4142 7.77349V7.81063H8.92855V3.34742H10.4142V3.38456C10.4142 3.76903 10.5669 4.13776 10.8386 4.40969C11.1104 4.68162 11.479 4.83448 11.8635 4.83467ZM5.20712 3.53315C5.20751 3.77906 5.11034 4.01506 4.93695 4.18942C4.76356 4.36378 4.52809 4.46225 4.28221 4.46321H2.04647C1.80058 4.46225 1.56511 4.36378 1.39172 4.18942C1.21833 4.01506 1.12117 3.77906 1.12156 3.53315V2.04588C1.12117 1.79997 1.21833 1.56394 1.39172 1.38958C1.56511 1.21522 1.80058 1.11678 2.04647 1.11581H4.28221C4.52809 1.11678 4.76356 1.21522 4.93695 1.38958C5.11034 1.56394 5.20751 1.79997 5.20712 2.04588V3.53606V3.53315ZM11.5285 13.3518C11.5296 13.2633 11.5653 13.1787 11.6279 13.1161C11.6905 13.0535 11.775 13.0179 11.8635 13.0168H14.5435C14.632 13.0179 14.7165 13.0535 14.7791 13.1161C14.8417 13.1787 14.8774 13.2633 14.8785 13.3518V14.5419C14.8774 14.6304 14.8417 14.7149 14.7791 14.7775C14.7165 14.8401 14.632 14.8758 14.5435 14.8769H11.8635C11.775 14.8758 11.6905 14.8401 11.6279 14.7775C11.5653 14.7149 11.5296 14.6304 11.5285 14.5419V13.3518ZM11.5285 7.77349C11.5295 7.68493 11.565 7.60027 11.6276 7.53764C11.6902 7.47501 11.7749 7.43941 11.8635 7.43847H14.5435C14.6321 7.43941 14.7168 7.47501 14.7794 7.53764C14.842 7.60027 14.8776 7.68493 14.8785 7.77349V8.96285C14.8776 9.05142 14.842 9.13608 14.7794 9.1987C14.7168 9.26133 14.6321 9.29693 14.5435 9.29788H11.8635C11.7749 9.29693 11.6902 9.26133 11.6276 9.1987C11.565 9.13608 11.5295 9.05142 11.5285 8.96285V7.77349ZM11.5285 2.19446C11.5296 2.10596 11.5653 2.0214 11.6279 1.95882C11.6905 1.89623 11.775 1.86057 11.8635 1.85944H14.5435C14.632 1.86057 14.7165 1.89623 14.7791 1.95882C14.8417 2.0214 14.8774 2.10596 14.8785 2.19446V3.38456C14.8774 3.47307 14.8417 3.55762 14.7791 3.62021C14.7165 3.6828 14.632 3.71846 14.5435 3.71959H11.8635C11.775 3.71846 11.6905 3.6828 11.6279 3.62021C11.5653 3.55762 11.5296 3.47307 11.5285 3.38456V2.19446Z" fill="#757B8A"/>
  </g>
  <defs>
    <clipPath id="clip0_3322_511956">
      <rect width="16" height="16" fill="white"/>
    </clipPath>
  </defs>
</svg>