<svg xmlns="http://www.w3.org/2000/svg" width="24" height="24" viewBox="0 0 24 24" fill="none">
  <path fill-rule="evenodd" clip-rule="evenodd" d="M22.3552 21.6805C21.8984 22.4379 21.2537 23.0646 20.4836 23.4998C19.7135 23.935 18.8441 24.1639 17.9595 24.1644C16.8305 24.1616 15.7349 23.7811 14.8472 23.0835H7.12627C3.16832 23.0835 0.898438 20.8168 0.898438 16.8652V7.6745C0.898438 4.00901 2.87161 1.81863 6.31456 1.51768V0.645552C6.32215 0.435205 6.41104 0.236005 6.56253 0.0898817C6.71403 -0.0562412 6.91631 -0.1379 7.12679 -0.1379C7.33727 -0.1379 7.53955 -0.0562412 7.69105 0.0898817C7.84254 0.236005 7.93149 0.435205 7.93909 0.645552V1.46045H14.9797V0.648721C14.9797 0.433157 15.0653 0.22643 15.2178 0.0740031C15.3702 -0.0784236 15.5769 -0.164062 15.7925 -0.164062C16.0081 -0.164062 16.2147 -0.0784236 16.3672 0.0740031C16.5196 0.22643 16.6052 0.433157 16.6052 0.648721V1.52086C20.0482 1.82182 22.0214 4.0122 22.0214 7.67768V15.9189C22.7147 16.8091 23.0954 17.9029 23.1043 19.0312C23.1059 19.9668 22.8464 20.8843 22.3552 21.6805ZM16.6052 3.13582V3.89457C16.6052 4.11013 16.5196 4.31687 16.3672 4.4693C16.2147 4.62173 16.0081 4.70735 15.7925 4.70735C15.5769 4.70735 15.3702 4.62173 15.2178 4.4693C15.0653 4.31687 14.9797 4.11013 14.9797 3.89457V3.08285H7.93909V3.89457C7.93149 4.10491 7.84254 4.30411 7.69105 4.45024C7.53955 4.59636 7.33727 4.67802 7.12679 4.67802C6.91631 4.67802 6.71403 4.59636 6.56253 4.45024C6.41104 4.30411 6.32215 4.10491 6.31456 3.89457V3.13582C3.83063 3.38591 2.5876 4.82074 2.53461 7.50494H20.3852C20.3322 4.8165 19.0881 3.38167 16.6052 3.13159V3.13582ZM20.3968 9.12734H2.52297V16.8695C2.52297 19.9616 4.02879 21.4654 7.12627 21.4654H13.4336C13.3933 21.3922 13.3626 21.3128 13.3276 21.2365C13.2926 21.1602 13.2429 21.068 13.2068 20.98C13.157 20.8613 13.1167 20.7384 13.0764 20.6144C13.0478 20.5286 13.0161 20.4438 12.9927 20.3558C12.9546 20.216 12.9292 20.0729 12.9038 19.932C12.89 19.8567 12.8709 19.7836 12.8603 19.7073C12.8307 19.4846 12.8155 19.2602 12.8148 19.0355C12.8101 18.2584 12.9828 17.4906 13.3198 16.7904C13.6568 16.0902 14.1492 15.4762 14.7594 14.9952C15.3697 14.5141 16.0817 14.1787 16.8412 14.0145C17.6007 13.8502 18.3877 13.8615 19.1421 14.0475C19.2672 14.0772 19.3837 14.1291 19.5067 14.1683C19.761 14.2451 20.009 14.3414 20.2485 14.4565C20.2972 14.4799 20.3544 14.4894 20.4 14.5148V9.13052L20.3968 9.12734ZM20.5992 16.7147C20.1273 16.1781 19.5031 15.798 18.8098 15.6248C18.1165 15.4517 17.3868 15.4938 16.718 15.7455C16.0492 15.9973 15.473 16.4467 15.0659 17.034C14.6588 17.6214 14.4402 18.3187 14.4392 19.0333C14.4376 19.6695 14.6138 20.2935 14.9479 20.8348C15.1268 21.1461 15.3585 21.424 15.6325 21.6561C16.2716 22.233 17.1027 22.5511 17.9637 22.5484C18.5691 22.5479 19.164 22.391 19.6907 22.0928C20.2175 21.7946 20.6583 21.3653 20.9701 20.8465C21.3068 20.3017 21.4848 19.6738 21.4841 19.0333C21.4809 18.1773 21.1664 17.3517 20.5992 16.7105V16.7147ZM17.8938 20.6992C17.7426 20.8361 17.5457 20.9117 17.3417 20.9111C17.2351 20.9115 17.1294 20.8906 17.0308 20.8499C16.9322 20.8092 16.8427 20.7493 16.7674 20.6738L15.695 19.6024C15.5486 19.4489 15.4682 19.2443 15.4708 19.0322C15.4735 18.8202 15.559 18.6176 15.7091 18.4678C15.8591 18.318 16.0619 18.2329 16.274 18.2307C16.486 18.2284 16.6904 18.3092 16.8436 18.4558L17.364 18.974L19.0966 17.3739C19.1748 17.3014 19.2665 17.245 19.3665 17.2079C19.4665 17.1709 19.5728 17.1539 19.6794 17.1579C19.786 17.1619 19.8907 17.1869 19.9876 17.2314C20.0845 17.2759 20.1717 17.3391 20.2443 17.4173C20.3168 17.4955 20.3731 17.5873 20.4102 17.6873C20.4472 17.7873 20.4642 17.8936 20.4602 18.0001C20.4562 18.1067 20.4312 18.2115 20.3867 18.3084C20.3422 18.4053 20.279 18.4925 20.2008 18.565L17.8938 20.6992ZM11.4636 14.3834C11.3188 14.3886 11.1744 14.3645 11.0391 14.3128C10.9037 14.2611 10.7801 14.1827 10.6756 14.0823C10.5712 13.9819 10.4879 13.8615 10.4308 13.7283C10.3738 13.5951 10.344 13.4518 10.3434 13.3069C10.3427 13.162 10.3712 13.0185 10.4271 12.8848C10.483 12.7511 10.5652 12.63 10.6688 12.5287C10.7724 12.4273 10.8953 12.3479 11.0302 12.2949C11.1651 12.242 11.3092 12.2167 11.454 12.2206H11.4636C11.6117 12.2102 11.7604 12.2304 11.9003 12.2799C12.0403 12.3295 12.1685 12.4073 12.2771 12.5085C12.3857 12.6098 12.4723 12.7323 12.5315 12.8684C12.5907 13.0046 12.6212 13.1514 12.6212 13.2999C12.6212 13.4483 12.5907 13.5952 12.5315 13.7314C12.4723 13.8675 12.3857 13.99 12.2771 14.0912C12.1685 14.1925 12.0403 14.2703 11.9003 14.3198C11.7604 14.3694 11.6117 14.3896 11.4636 14.3792V14.3834ZM7.45477 17.6271C7.30996 17.6323 7.16558 17.6083 7.03022 17.5565C6.89487 17.5048 6.77128 17.4264 6.6668 17.326C6.56231 17.2256 6.47913 17.1052 6.42205 16.972C6.36498 16.8389 6.33518 16.6955 6.33454 16.5506C6.3339 16.4057 6.3624 16.2622 6.4183 16.1285C6.4742 15.9948 6.55641 15.8737 6.66 15.7724C6.7636 15.6711 6.88647 15.5916 7.02136 15.5387C7.15626 15.4857 7.30041 15.4605 7.44527 15.4643H7.45477C7.60287 15.4539 7.75153 15.4741 7.89148 15.5237C8.03143 15.5732 8.15972 15.651 8.2683 15.7523C8.37689 15.8535 8.46341 15.976 8.52262 16.1121C8.58182 16.2483 8.61239 16.3952 8.61239 16.5436C8.61239 16.6921 8.58182 16.8389 8.52262 16.9751C8.46341 17.1112 8.37689 17.2337 8.2683 17.335C8.15972 17.4362 8.03143 17.514 7.89148 17.5635C7.75153 17.6131 7.60287 17.6333 7.45477 17.6229V17.6271ZM7.45477 14.3834C7.30996 14.3886 7.16558 14.3645 7.03022 14.3128C6.89487 14.2611 6.77128 14.1827 6.6668 14.0823C6.56231 13.9819 6.47913 13.8615 6.42205 13.7283C6.36498 13.5951 6.33518 13.4518 6.33454 13.3069C6.3339 13.162 6.3624 13.0185 6.4183 12.8848C6.4742 12.7511 6.55641 12.63 6.66 12.5287C6.7636 12.4273 6.88647 12.3479 7.02136 12.2949C7.15626 12.242 7.30041 12.2167 7.44527 12.2206H7.45477C7.60287 12.2102 7.75153 12.2304 7.89148 12.2799C8.03143 12.3295 8.15972 12.4073 8.2683 12.5085C8.37689 12.6098 8.46341 12.7323 8.52262 12.8684C8.58182 13.0046 8.61239 13.1514 8.61239 13.2999C8.61239 13.4483 8.58182 13.5952 8.52262 13.7314C8.46341 13.8675 8.37689 13.99 8.2683 14.0912C8.15972 14.1925 8.03143 14.2703 7.89148 14.3198C7.75153 14.3694 7.60287 14.3896 7.45477 14.3792V14.3834Z" fill="#757B8A"/>
  <path fill-rule="evenodd" clip-rule="evenodd" d="M22.3552 21.6805C21.8984 22.4379 21.2537 23.0646 20.4836 23.4998C19.7135 23.935 18.8441 24.1639 17.9595 24.1644C16.8305 24.1616 15.7349 23.7811 14.8472 23.0835H7.12627C3.16832 23.0835 0.898438 20.8168 0.898438 16.8652V7.6745C0.898438 4.00901 2.87161 1.81863 6.31456 1.51768V0.645552C6.32215 0.435205 6.41104 0.236005 6.56253 0.0898817C6.71403 -0.0562412 6.91631 -0.1379 7.12679 -0.1379C7.33727 -0.1379 7.53955 -0.0562412 7.69105 0.0898817C7.84254 0.236005 7.93149 0.435205 7.93909 0.645552V1.46045H14.9797V0.648721C14.9797 0.433157 15.0653 0.22643 15.2178 0.0740031C15.3702 -0.0784236 15.5769 -0.164062 15.7925 -0.164062C16.0081 -0.164062 16.2147 -0.0784236 16.3672 0.0740031C16.5196 0.22643 16.6052 0.433157 16.6052 0.648721V1.52086C20.0482 1.82182 22.0214 4.0122 22.0214 7.67768V15.9189C22.7147 16.8091 23.0954 17.9029 23.1043 19.0312C23.1059 19.9668 22.8464 20.8843 22.3552 21.6805ZM16.6052 3.13582V3.89457C16.6052 4.11013 16.5196 4.31687 16.3672 4.4693C16.2147 4.62173 16.0081 4.70735 15.7925 4.70735C15.5769 4.70735 15.3702 4.62173 15.2178 4.4693C15.0653 4.31687 14.9797 4.11013 14.9797 3.89457V3.08285H7.93909V3.89457C7.93149 4.10491 7.84254 4.30411 7.69105 4.45024C7.53955 4.59636 7.33727 4.67802 7.12679 4.67802C6.91631 4.67802 6.71403 4.59636 6.56253 4.45024C6.41104 4.30411 6.32215 4.10491 6.31456 3.89457V3.13582C3.83063 3.38591 2.5876 4.82074 2.53461 7.50494H20.3852C20.3322 4.8165 19.0881 3.38167 16.6052 3.13159V3.13582ZM20.3968 9.12734H2.52297V16.8695C2.52297 19.9616 4.02879 21.4654 7.12627 21.4654H13.4336C13.3933 21.3922 13.3626 21.3128 13.3276 21.2365C13.2926 21.1602 13.2429 21.068 13.2068 20.98C13.157 20.8613 13.1167 20.7384 13.0764 20.6144C13.0478 20.5286 13.0161 20.4438 12.9927 20.3558C12.9546 20.216 12.9292 20.0729 12.9038 19.932C12.89 19.8567 12.8709 19.7836 12.8603 19.7073C12.8307 19.4846 12.8155 19.2602 12.8148 19.0355C12.8101 18.2584 12.9828 17.4906 13.3198 16.7904C13.6568 16.0902 14.1492 15.4762 14.7594 14.9952C15.3697 14.5141 16.0817 14.1787 16.8412 14.0145C17.6007 13.8502 18.3877 13.8615 19.1421 14.0475C19.2672 14.0772 19.3837 14.1291 19.5067 14.1683C19.761 14.2451 20.009 14.3414 20.2485 14.4565C20.2972 14.4799 20.3544 14.4894 20.4 14.5148V9.13052L20.3968 9.12734ZM20.5992 16.7147C20.1273 16.1781 19.5031 15.798 18.8098 15.6248C18.1165 15.4517 17.3868 15.4938 16.718 15.7455C16.0492 15.9973 15.473 16.4467 15.0659 17.034C14.6588 17.6214 14.4402 18.3187 14.4392 19.0333C14.4376 19.6695 14.6138 20.2935 14.9479 20.8348C15.1268 21.1461 15.3585 21.424 15.6325 21.6561C16.2716 22.233 17.1027 22.5511 17.9637 22.5484C18.5691 22.5479 19.164 22.391 19.6907 22.0928C20.2175 21.7946 20.6583 21.3653 20.9701 20.8465C21.3068 20.3017 21.4848 19.6738 21.4841 19.0333C21.4809 18.1773 21.1664 17.3517 20.5992 16.7105V16.7147ZM17.8938 20.6992C17.7426 20.8361 17.5457 20.9117 17.3417 20.9111C17.2351 20.9115 17.1294 20.8906 17.0308 20.8499C16.9322 20.8092 16.8427 20.7493 16.7674 20.6738L15.695 19.6024C15.5486 19.4489 15.4682 19.2443 15.4708 19.0322C15.4735 18.8202 15.559 18.6176 15.7091 18.4678C15.8591 18.318 16.0619 18.2329 16.274 18.2307C16.486 18.2284 16.6904 18.3092 16.8436 18.4558L17.364 18.974L19.0966 17.3739C19.1748 17.3014 19.2665 17.245 19.3665 17.2079C19.4665 17.1709 19.5728 17.1539 19.6794 17.1579C19.786 17.1619 19.8907 17.1869 19.9876 17.2314C20.0845 17.2759 20.1717 17.3391 20.2443 17.4173C20.3168 17.4955 20.3731 17.5873 20.4102 17.6873C20.4472 17.7873 20.4642 17.8936 20.4602 18.0001C20.4562 18.1067 20.4312 18.2115 20.3867 18.3084C20.3422 18.4053 20.279 18.4925 20.2008 18.565L17.8938 20.6992ZM11.4636 14.3834C11.3188 14.3886 11.1744 14.3645 11.0391 14.3128C10.9037 14.2611 10.7801 14.1827 10.6756 14.0823C10.5712 13.9819 10.4879 13.8615 10.4308 13.7283C10.3738 13.5951 10.344 13.4518 10.3434 13.3069C10.3427 13.162 10.3712 13.0185 10.4271 12.8848C10.483 12.7511 10.5652 12.63 10.6688 12.5287C10.7724 12.4273 10.8953 12.3479 11.0302 12.2949C11.1651 12.242 11.3092 12.2167 11.454 12.2206H11.4636C11.6117 12.2102 11.7604 12.2304 11.9003 12.2799C12.0403 12.3295 12.1685 12.4073 12.2771 12.5085C12.3857 12.6098 12.4723 12.7323 12.5315 12.8684C12.5907 13.0046 12.6212 13.1514 12.6212 13.2999C12.6212 13.4483 12.5907 13.5952 12.5315 13.7314C12.4723 13.8675 12.3857 13.99 12.2771 14.0912C12.1685 14.1925 12.0403 14.2703 11.9003 14.3198C11.7604 14.3694 11.6117 14.3896 11.4636 14.3792V14.3834ZM7.45477 17.6271C7.30996 17.6323 7.16558 17.6083 7.03022 17.5565C6.89487 17.5048 6.77128 17.4264 6.6668 17.326C6.56231 17.2256 6.47913 17.1052 6.42205 16.972C6.36498 16.8389 6.33518 16.6955 6.33454 16.5506C6.3339 16.4057 6.3624 16.2622 6.4183 16.1285C6.4742 15.9948 6.55641 15.8737 6.66 15.7724C6.7636 15.6711 6.88647 15.5916 7.02136 15.5387C7.15626 15.4857 7.30041 15.4605 7.44527 15.4643H7.45477C7.60287 15.4539 7.75153 15.4741 7.89148 15.5237C8.03143 15.5732 8.15972 15.651 8.2683 15.7523C8.37689 15.8535 8.46341 15.976 8.52262 16.1121C8.58182 16.2483 8.61239 16.3952 8.61239 16.5436C8.61239 16.6921 8.58182 16.8389 8.52262 16.9751C8.46341 17.1112 8.37689 17.2337 8.2683 17.335C8.15972 17.4362 8.03143 17.514 7.89148 17.5635C7.75153 17.6131 7.60287 17.6333 7.45477 17.6229V17.6271ZM7.45477 14.3834C7.30996 14.3886 7.16558 14.3645 7.03022 14.3128C6.89487 14.2611 6.77128 14.1827 6.6668 14.0823C6.56231 13.9819 6.47913 13.8615 6.42205 13.7283C6.36498 13.5951 6.33518 13.4518 6.33454 13.3069C6.3339 13.162 6.3624 13.0185 6.4183 12.8848C6.4742 12.7511 6.55641 12.63 6.66 12.5287C6.7636 12.4273 6.88647 12.3479 7.02136 12.2949C7.15626 12.242 7.30041 12.2167 7.44527 12.2206H7.45477C7.60287 12.2102 7.75153 12.2304 7.89148 12.2799C8.03143 12.3295 8.15972 12.4073 8.2683 12.5085C8.37689 12.6098 8.46341 12.7323 8.52262 12.8684C8.58182 13.0046 8.61239 13.1514 8.61239 13.2999C8.61239 13.4483 8.58182 13.5952 8.52262 13.7314C8.46341 13.8675 8.37689 13.99 8.2683 14.0912C8.15972 14.1925 8.03143 14.2703 7.89148 14.3198C7.75153 14.3694 7.60287 14.3896 7.45477 14.3792V14.3834Z" fill="#757B8A"/>
  <defs>
    <radialGradient id="paint0_radial_89_267478" cx="0" cy="0" r="1" gradientUnits="userSpaceOnUse" gradientTransform="translate(2.16735 11.794) scale(14.2312 201.896)">
      <stop offset="0.00154351" stop-color="#1AB3FF"/>
      <stop offset="1" stop-color="#FFB258"/>
    </radialGradient>
  </defs>
</svg>