<svg xmlns="http://www.w3.org/2000/svg" width="20" height="24" viewBox="0 0 20 24" fill="none">
  <path fill-rule="evenodd" clip-rule="evenodd" d="M18.0952 22.519C17.5458 22.7539 16.3982 22.8872 14.9014 21.1684C14.7966 21.0338 14.6632 20.9256 14.5113 20.8523C14.3594 20.779 14.1931 20.7425 14.0252 20.7455C13.8577 20.7618 13.6959 20.817 13.5523 20.9069C13.4086 20.9968 13.2867 21.1191 13.1959 21.2645L12.1462 22.7714C11.9206 23.147 11.6052 23.457 11.2299 23.6721C10.8546 23.8871 10.432 24 10.0021 24C9.57232 24 9.14961 23.8871 8.77431 23.6721C8.39902 23.457 8.08357 23.147 7.858 22.7714L6.80621 21.2591C6.71498 21.1141 6.59297 20.9923 6.44935 20.9026C6.30573 20.8129 6.14424 20.7577 5.9769 20.7411C5.80917 20.737 5.6428 20.773 5.49093 20.8462C5.33906 20.9194 5.20583 21.0278 5.10178 21.1629C3.61135 22.8774 2.46052 22.7419 1.908 22.5081C1.35547 22.2742 0.398438 21.4984 0.398438 19.0277V6.46131C0.398438 1.50906 1.72596 0 6.08015 0H13.9262C16.2012 0 17.4819 0.379174 18.3453 1.31127C19.2417 2.27616 19.6047 3.76992 19.5984 6.4646V19.0376C19.6015 21.5115 18.6583 22.2852 18.0952 22.519ZM18.0441 6.46897C18.0441 4.29334 17.8099 3.10663 17.2456 2.50016C16.7133 1.92648 15.7211 1.68171 13.9294 1.68171H6.07592C2.60748 1.68171 1.95166 2.44662 1.95166 6.46897V19.0354C1.95166 20.2046 2.22418 20.8515 2.47649 20.9597C2.65747 21.0318 3.17383 20.9269 3.95843 20.0276C4.19955 19.7334 4.4994 19.4958 4.83771 19.3308C5.17602 19.1659 5.54489 19.0774 5.91939 19.0714C5.96517 19.0714 6.00987 19.0714 6.05565 19.0714C6.45342 19.1032 6.83916 19.2263 7.18431 19.4317C7.52946 19.6371 7.82523 19.9196 8.04968 20.2581L9.09933 21.7661C9.18877 21.9304 9.31931 22.0672 9.47744 22.1624C9.63557 22.2577 9.81561 22.3078 9.99895 22.3078C10.1823 22.3078 10.3623 22.2577 10.5204 22.1624C10.6785 22.0672 10.8091 21.9304 10.8985 21.7661L11.945 20.2636C12.1694 19.9248 12.4651 19.6422 12.8102 19.4366C13.1554 19.231 13.5411 19.1077 13.939 19.0758C14.3361 19.0609 14.7314 19.1389 15.0949 19.3038C15.4584 19.4686 15.7807 19.7161 16.0373 20.0276C16.8251 20.9313 17.3414 21.0427 17.5224 20.9651C17.7736 20.8559 18.0441 20.2122 18.0441 19.0463V6.46897ZM14.5714 11.7239H8.85768C8.64664 11.7161 8.44678 11.6245 8.30017 11.4685C8.15357 11.3125 8.07165 11.1042 8.07165 10.8874C8.07165 10.6707 8.15357 10.4623 8.30017 10.3063C8.44678 10.1503 8.64664 10.0588 8.85768 10.0509H14.5714C14.7824 10.0588 14.9823 10.1503 15.1289 10.3063C15.2755 10.4623 15.3574 10.6707 15.3574 10.8874C15.3574 11.1042 15.2755 11.3125 15.1289 11.4685C14.9823 11.6245 14.7824 11.7161 14.5714 11.7239ZM14.5714 7.26119H8.85768C8.64861 7.25022 8.45165 7.15725 8.30745 7.00148C8.16325 6.8457 8.08282 6.63904 8.08282 6.42416C8.08282 6.20929 8.16325 6.00261 8.30745 5.84684C8.45165 5.69106 8.64861 5.59809 8.85768 5.58712H14.5714C14.7804 5.59809 14.9774 5.69106 15.1216 5.84684C15.2658 6.00261 15.3462 6.20929 15.3462 6.42416C15.3462 6.63904 15.2658 6.8457 15.1216 7.00148C14.9774 7.15725 14.7804 7.25022 14.5714 7.26119ZM5.95669 12.0037C5.67836 11.9895 5.4159 11.8663 5.22335 11.6596C5.0308 11.4528 4.92276 11.1781 4.92153 10.8921C4.9203 10.606 5.02596 10.3304 5.21672 10.1219C5.40749 9.9134 5.66888 9.78789 5.94707 9.7712H5.95669C6.23492 9.78668 6.49678 9.91103 6.6884 10.1187C6.88002 10.3263 6.98678 10.6014 6.98678 10.8874C6.98678 11.1734 6.88002 11.4485 6.6884 11.6562C6.49678 11.8638 6.23492 11.9882 5.95669 12.0037ZM5.95669 7.53984C5.67664 7.52845 5.41165 7.40656 5.21698 7.19959C5.02232 6.99263 4.91295 6.71654 4.91172 6.42887C4.91048 6.14119 5.01748 5.86412 5.21036 5.6554C5.40323 5.44668 5.66713 5.32242 5.94707 5.30849H5.95669C6.23664 5.32121 6.50099 5.4443 6.69471 5.65214C6.88843 5.85997 6.99653 6.13653 6.99653 6.42416C6.99653 6.7118 6.88843 6.98834 6.69471 7.19618C6.50099 7.40401 6.23664 7.52712 5.95669 7.53984Z" fill="#757B8A"/>
</svg>