<svg width="121" height="39" viewBox="0 0 121 39" fill="none" xmlns="http://www.w3.org/2000/svg">
<g clip-path="url(#clip0_460_92299)">
<path fill-rule="evenodd" clip-rule="evenodd" d="M30.8109 4.00236C30.8716 3.98719 31.0246 4.04786 31.055 4.10922L31.4514 5.51291C31.5582 5.86383 31.9092 6.00103 32.3056 6.09203L32.8544 8.19687C33.1288 8.71532 33.6472 9.00488 34.2422 9.21861L35.5383 11.2318C35.8893 11.4296 36.316 11.7957 36.3925 12.299C36.2395 13.4435 36.4994 14.6176 35.8431 15.6393C35.2026 15.8227 35.1109 16.6914 34.6841 17.1643L34.2877 18.0185L32.4269 18.8727C32.2284 18.8272 32.2284 18.5528 32.0002 18.5066L31.3438 18.8727L29.7423 18.2474L29.6657 17.5918L28.8729 16.5087C28.8729 16.4177 28.9487 16.2798 28.9487 16.1736C28.9032 16.1433 28.8577 16.0667 28.7653 16.0054C28.491 16.0054 28.2621 16.4018 28.1097 16.6155C28.049 16.7224 27.8656 16.7224 27.6671 16.7224L26.615 15.6393C25.7608 15.4256 24.7232 15.3649 23.9152 15.9289C23.1982 15.9289 22.7404 16.3563 22.4205 16.9354C21.6276 17.1795 20.6211 17.378 20.0413 18.1557C19.5531 18.4453 19.0802 18.2778 18.6224 18.1557C18.6224 18.1557 18.5769 18.0792 18.5307 18.0185L18.7444 17.4697C18.5762 16.1122 17.1125 15.5779 17.036 14.1294C16.9905 13.8854 16.7003 13.7633 16.5631 13.5958L16.3804 13.1691C16.4562 12.3762 16.7768 11.8419 17.4476 11.369C18.2405 11.0794 18.7444 10.7285 19.3849 10.423C19.9799 9.91976 20.2702 9.21792 20.2702 8.62363C20.8341 8.28787 21.3071 7.63222 21.78 7.00691C22.0847 6.79318 22.2833 6.54913 22.6342 6.57946L23.3967 6.99174L23.8235 6.79318L24.3571 5.63425C24.3571 5.51222 24.3874 5.37502 24.464 5.29849C24.7846 5.20749 25.2113 5.1613 25.5471 4.85657H27.4534C27.545 4.90207 27.6519 4.94757 27.6671 5.08545L27.0418 6.15339C27.3623 7.23649 28.9025 7.12963 29.5279 7.89214C29.6954 7.98384 29.8478 7.95281 29.9553 7.98383C30.1387 7.9535 30.3062 7.77011 30.3972 7.55639L30.7027 4.04855L30.8109 4.00236ZM32.3056 19.911C32.6255 20.3068 33.2515 20.0634 33.7851 20.0634C33.9988 20.2468 33.7396 20.719 33.5714 20.8714C33.297 21.0396 33.1901 21.254 32.9461 21.3147L32.4276 21.223L32.1836 19.9117L32.3056 19.911Z" fill="#757B8A"/>
<path fill-rule="evenodd" clip-rule="evenodd" d="M1.43402 33.8512L4.68263 26.499L5.53684 24.257H6.78747L10.6766 32.8894C11.1192 33.9277 11.4239 34.5675 11.6073 34.6585C11.699 34.735 12.0651 34.8563 12.5835 34.9025V35.483C11.6959 35.4036 10.8052 35.3627 9.91405 35.3603C9.0295 35.3603 8.12979 35.4058 7.22939 35.483V34.9025C7.41278 34.9025 7.76302 34.857 8.1753 34.857C8.34283 34.8115 8.48003 34.613 8.48003 34.3544C8.48003 34.2172 8.43452 34.0945 8.43452 34.049L7.62651 32.0359H3.3403C3.2948 32.1276 3.11141 32.5392 2.89769 33.1334C2.6688 33.7746 2.5316 34.1717 2.5316 34.3089C2.5316 34.522 2.63846 34.6902 2.80599 34.7819C2.89769 34.8115 3.24861 34.857 3.87392 34.857V35.483C3.43131 35.483 3.03488 35.4375 2.76049 35.4375C2.50126 35.4375 2.13517 35.4065 1.78425 35.4065C1.46367 35.4065 1.1741 35.4375 0.89971 35.4375C0.625315 35.4375 0.320586 35.483 0 35.483V34.9025C0.71701 34.9032 1.20582 34.522 1.43402 33.8512ZM5.44583 27.003L3.70708 31.152H7.23077L5.44583 27.003ZM15.1772 32.6315V26.5907C15.1772 25.8289 15.1013 25.3105 14.9635 25.2188C14.8263 25.096 14.3843 24.974 13.6673 24.974V24.3494C14.1554 24.3494 14.918 24.3949 15.9094 24.4259C17.282 24.3949 18.3499 24.3494 19.067 24.3494V24.974C18.8987 24.974 18.6705 25.0195 18.4871 25.0195C18.3196 25.0195 18.1362 25.065 18.0452 25.065C17.9073 25.065 17.7708 25.1415 17.7398 25.2188C17.6488 25.356 17.6026 25.7372 17.6026 26.2405V31.1513C17.6026 32.2027 17.7708 33.0121 18.0907 33.5306C18.5333 34.0945 19.4179 34.4006 20.6382 34.4006C21.7061 34.4006 22.5603 34.1407 23.0022 33.6829C23.5359 33.1796 23.8103 32.2944 23.8103 31.0748V26.0723C23.8103 25.691 23.7186 25.4015 23.6269 25.2188C23.5944 25.1754 23.5532 25.1393 23.506 25.1128C23.4587 25.0863 23.4064 25.07 23.3525 25.065C23.2759 25.065 23.0932 25.0195 22.956 25.0195C22.834 25.0195 22.59 24.974 22.3307 24.974V24.3494C22.59 24.3494 22.8644 24.3949 23.0477 24.3949C23.2311 24.3949 23.5359 24.4259 23.902 24.4259C24.9699 24.3949 25.7779 24.3494 26.2964 24.3494V24.974C25.5945 24.974 25.0912 25.0967 25.0154 25.2188C24.9237 25.356 24.8782 25.7372 24.8782 26.2405V31.4409C24.8782 32.9666 24.3901 34.1407 23.3987 34.8115C22.9753 35.1181 22.4917 35.3314 21.9798 35.4375C21.3545 35.6044 20.6837 35.6961 20.0577 35.6961C18.807 35.6961 17.6936 35.4375 16.7022 34.9797C15.7108 34.522 15.1772 33.7291 15.1772 32.6315ZM28.0048 27.7352C28.0048 26.499 28.4012 25.5683 29.2099 25.0195C30.0634 24.4259 31.223 24.1198 32.5654 24.1198C33.6333 24.1198 34.7005 24.3487 35.723 24.6838L35.8602 24.8982C35.6919 25.4015 35.6009 26.164 35.6009 27.1857H34.8832L34.7915 25.8579C34.2579 25.2643 33.4492 24.9437 32.4737 24.9437C32.1531 24.9437 31.8022 25.0188 31.4823 25.096C31.1313 25.1877 30.8115 25.4476 30.5515 25.691C30.2771 25.9951 30.1551 26.4073 30.1551 26.9258C30.1551 27.5063 30.3681 27.8876 30.7804 28.0558C31.1768 28.2378 31.9856 28.4977 33.099 28.7411C34.2124 29.001 35.1121 29.3822 35.6464 29.7938C36.2256 30.2206 36.5462 30.8914 36.5462 31.8215C36.5462 32.6764 36.2718 33.4389 35.8291 33.9718C35.3714 34.5668 34.6999 35.0246 33.9987 35.2845C33.2362 35.512 32.382 35.6954 31.5278 35.6954C30.2879 35.6922 29.0604 35.4489 27.9131 34.9791C28.0048 34.4758 28.142 33.5299 28.142 32.1731H28.8135L28.981 33.5616C29.1644 33.8511 29.5298 34.1407 30.0179 34.4006C30.5261 34.6681 31.0914 34.809 31.6657 34.8115C32.4282 34.8115 33.0997 34.6137 33.5878 34.2634C34.1214 33.9284 34.3958 33.3934 34.3958 32.7232C34.3958 32.1283 34.1214 31.7015 33.6333 31.4871C33.1452 31.243 32.3372 30.9838 31.3609 30.7397C30.324 30.4798 29.485 30.0986 28.9355 29.6718C28.4012 29.245 28.0503 28.5742 28.0048 27.7352ZM42.2809 33.2713V25.3566H39.8106C39.4597 25.3566 39.2005 25.4483 39.0936 25.5697C39.0633 25.6614 38.9564 26.1647 38.9254 27.0037H38.2084C38.2084 26.1647 38.1167 25.2656 38.025 24.4266L38.1167 24.3501C38.7875 24.3501 39.459 24.3956 39.9926 24.3956C40.5263 24.3956 41.335 24.4266 42.2347 24.4266C45.133 24.3956 47.3592 24.3501 48.8394 24.3501L48.8849 24.4266C48.8091 25.6159 48.7022 26.5004 48.7022 27.0037H48.0307C48.0307 26.286 47.9549 25.7834 47.817 25.5697C47.7253 25.4483 47.4661 25.3566 47.0083 25.3566H44.6753V33.654C44.6753 34.1724 44.7366 34.5227 44.8125 34.6143C44.9193 34.6909 45.133 34.7826 45.4378 34.7826C45.7577 34.7826 46.0176 34.8577 46.1548 34.8577V35.4837C45.4378 35.4837 44.8738 35.4382 44.5077 35.4382C44.0954 35.4382 43.6073 35.4072 43.1199 35.4072C42.769 35.4072 42.3726 35.4382 42.052 35.4382C41.7472 35.4382 41.2895 35.4837 40.7558 35.4837V34.8577C41.5487 34.8577 42.0065 34.7364 42.0982 34.6137C42.1892 34.522 42.2809 34.0187 42.2809 33.2713ZM54.7424 29.5491H55.0471C55.5959 29.5491 56.1302 29.3822 56.6638 29.0306C57.1974 28.6956 57.518 28.0103 57.518 27.1857C57.518 26.5907 57.2891 26.0723 56.8472 25.7365C56.3651 25.3818 55.7828 25.1894 55.1843 25.187C54.6507 25.187 54.2536 25.2636 54.1164 25.3553V27.4291L54.1012 29.5484L54.7424 29.5491ZM54.1019 30.7087L54.117 33.6533C54.117 34.2172 54.1625 34.5675 54.2542 34.6137C54.3459 34.6902 54.5135 34.7819 54.6969 34.7819C54.9257 34.7819 55.2456 34.857 55.5511 34.857V35.483C55.0174 35.483 54.5597 35.4375 54.2542 35.4375C53.9033 35.4375 53.4917 35.4065 53.0946 35.4065C52.6375 35.4065 52.1487 35.4375 51.7985 35.4375C51.4021 35.4375 50.8071 35.483 50.1818 35.483V34.857C50.5478 34.857 50.8988 34.7819 51.0822 34.7819C51.2655 34.7819 51.4331 34.6902 51.4786 34.6137C51.5703 34.522 51.662 34.0497 51.662 33.2713V26.5914C51.662 25.8592 51.5703 25.4021 51.4786 25.2194C51.4331 25.1429 50.9905 25.0657 50.1818 24.9747V24.3501C50.5478 24.3501 50.9443 24.3956 51.2194 24.3956C51.5241 24.3956 51.9667 24.4266 52.47 24.4266C54.5135 24.3956 55.993 24.3501 56.7555 24.3501C57.4725 24.3501 58.0978 24.4728 58.5404 24.6396C58.9982 24.854 59.3485 25.0974 59.5318 25.3573C59.6994 25.6159 59.8828 25.9054 59.8828 26.1192C59.8828 26.3632 59.9283 26.5921 59.9283 26.7438C59.9283 27.4305 59.6994 28.0565 59.2113 28.5749C58.7231 29.0775 57.5945 29.7787 56.8927 29.9931L59.9283 33.3486C60.2027 33.6691 60.4164 33.9732 60.5536 34.1414C60.6908 34.3096 60.828 34.4765 60.9197 34.5227C61.041 34.6599 61.3471 34.7826 61.7132 34.8577V35.4837C61.3471 35.4837 60.9955 35.4382 60.7825 35.4382C60.5081 35.4382 60.2027 35.4072 59.9283 35.4072C59.6994 35.4072 59.4402 35.4382 59.2575 35.4382C59.0741 35.4382 58.7542 35.4837 58.4487 35.4837L54.1019 30.7087ZM64.1379 33.8512L67.4017 26.499L68.2552 24.257H69.4914L73.3805 32.8894C73.8383 33.9277 74.1423 34.5675 74.3257 34.6585C74.4022 34.735 74.7835 34.8563 75.3019 34.9025V35.483C74.4094 35.404 73.514 35.363 72.618 35.3603C71.7334 35.3603 70.8323 35.4058 69.9478 35.483V34.9025C70.116 34.9025 70.4821 34.857 70.8944 34.857C71.0612 34.8115 71.1984 34.613 71.1984 34.3544C71.1984 34.2172 71.1529 34.0945 71.1529 34.049L70.3449 32.0359H66.0587C66.0132 32.1276 65.8298 32.5392 65.6154 33.1334C65.3879 33.7746 65.2507 34.1717 65.2507 34.3089C65.2507 34.522 65.3569 34.6902 65.5251 34.7819C65.6154 34.8115 65.967 34.857 66.5916 34.857V35.483C66.1497 35.483 65.754 35.4375 65.4796 35.4375C65.2197 35.4375 64.8384 35.4065 64.4875 35.4065C64.1835 35.4065 63.8773 35.4375 63.603 35.4375C63.3286 35.4375 63.0238 35.483 62.7032 35.483V34.9025C63.4203 34.9032 63.9091 34.522 64.1379 33.8512ZM68.1642 27.003L66.4262 31.152H69.9485L68.1642 27.003ZM76.5988 24.3487C77.1331 24.3487 78.1245 24.3942 79.4668 24.4252C80.4872 24.3942 81.3428 24.3487 81.9674 24.3487V24.9733C81.8757 24.9733 81.6633 25.065 81.2966 25.065C80.9305 25.096 80.6706 25.1877 80.6257 25.2643C80.5802 25.356 80.534 25.691 80.534 26.2405V34.4758C81.5255 34.4758 82.3638 34.5213 82.8974 34.5213C83.9654 34.5213 84.652 34.3999 84.8189 34.2627L85.1705 32.5847H85.8572L85.6738 35.3141L85.5821 35.4058C84.7727 35.4368 83.5234 35.4823 82.0122 35.4823C81.2042 35.4823 79.9535 35.4368 78.3361 35.4058C78.0776 35.4058 77.6343 35.4368 77.1765 35.4368V35.1163C77.6343 34.9018 77.8942 34.6895 77.9397 34.613C78.0314 34.4758 78.0769 34.2172 78.0769 33.8815V26.6211C78.0769 25.782 77.9852 25.3098 77.8935 25.2181C77.8018 25.1415 77.313 25.0643 76.5967 24.9733V24.3487H76.5988ZM87.4277 25.0195V24.3487C87.871 24.3487 88.2667 24.3942 88.6487 24.3942C88.9989 24.3942 89.4712 24.4252 90.0668 24.4252C90.646 24.4252 91.1348 24.3942 91.5009 24.3942C91.8511 24.3942 92.3399 24.3487 92.7811 24.3487V25.0195C92.6143 25.0195 92.4309 25.065 92.2627 25.065C92.0793 25.065 91.8504 25.096 91.7132 25.096C91.5919 25.096 91.4547 25.1877 91.4547 25.2643C91.4092 25.4477 91.363 25.7827 91.363 26.2405V33.8201C91.363 34.2172 91.4085 34.522 91.4547 34.613C91.5464 34.6895 91.7587 34.7812 92.1255 34.7812C92.4771 34.7812 92.706 34.8563 92.7811 34.8563V35.4823C92.1565 35.4823 91.6835 35.4368 91.3175 35.4368C90.9514 35.4368 90.5094 35.4058 90.0668 35.4058C89.609 35.4058 89.2133 35.4368 88.8617 35.4368C88.5115 35.4368 88.0082 35.4823 87.4277 35.4823V34.8563C87.5649 34.8563 87.8248 34.7812 88.1454 34.7812C88.5115 34.7812 88.7245 34.6895 88.77 34.613C88.8617 34.4758 88.9072 34.018 88.9072 33.3017V26.5907C88.9072 25.8289 88.8155 25.356 88.7238 25.2643C88.6494 25.1422 88.1454 25.0195 87.4277 25.0195ZM95.6499 33.8512L98.9136 26.499L99.7672 24.257H101.003L104.892 32.8894C105.35 33.9277 105.654 34.5675 105.838 34.6585C105.914 34.735 106.295 34.8563 106.814 34.9025V35.483C105.921 35.404 105.026 35.363 104.13 35.3603C103.245 35.3603 102.344 35.4058 101.46 35.483V34.9025C101.628 34.9025 101.994 34.857 102.406 34.857C102.573 34.8115 102.71 34.613 102.71 34.3544C102.71 34.2172 102.665 34.0945 102.665 34.049L101.857 32.0359H97.5706C97.5251 32.1276 97.3417 32.5392 97.1273 33.1334C96.8998 33.7746 96.7626 34.1717 96.7626 34.3089C96.7626 34.522 96.8543 34.6902 97.037 34.7819C97.1273 34.8115 97.4789 34.857 98.1035 34.857V35.483C97.6616 35.483 97.2645 35.4375 96.9915 35.4375C96.7316 35.4375 96.3503 35.4065 95.9994 35.4065C95.6954 35.4065 95.3893 35.4375 95.1149 35.4375C94.8405 35.4375 94.5357 35.483 94.2151 35.483V34.9025C94.9322 34.9032 95.421 34.522 95.6499 33.8512ZM99.6761 27.003L97.9381 31.152H101.46L99.6761 27.003ZM109.499 33.3024V26.286C109.499 25.6924 109.407 25.3111 109.316 25.2194C109.224 25.1429 108.781 25.0202 108.019 24.9747V24.3501C108.508 24.3501 109.316 24.3956 110.353 24.4266C110.887 24.3956 111.329 24.3501 111.558 24.3501C112.137 25.0664 112.763 25.8296 113.342 26.5004C113.968 27.2167 114.547 27.8889 115.082 28.4984C115.614 29.0775 116.24 29.7187 116.82 30.3447C117.434 31.0503 118.064 31.7418 118.71 32.4185V26.2867C118.71 25.7841 118.618 25.449 118.527 25.2663C118.436 25.0981 117.994 24.9754 117.231 24.9754V24.3508C117.535 24.3508 117.856 24.3963 118.131 24.3963C118.391 24.3963 118.756 24.4273 119.153 24.4273C119.595 24.4273 119.992 24.3963 120.266 24.3963C120.525 24.3963 120.845 24.3508 121.166 24.3508V24.9754C120.616 24.9754 120.266 25.0671 120.129 25.0671C119.992 25.0671 119.854 25.1898 119.823 25.3118C119.732 25.4787 119.686 25.8303 119.686 26.2426C119.686 26.7452 119.732 27.4773 119.732 28.4081V33.181C119.732 34.0511 119.777 34.9046 119.777 35.6064L119.64 35.6519L118.207 35.4851C117.415 34.615 116.728 33.8842 116.285 33.3954C115.843 32.8921 115.263 32.2048 114.547 31.3975C113.83 30.5584 113.175 29.8421 112.671 29.2471C112.136 28.6521 111.42 27.8131 110.566 26.8824V33.6553C110.566 34.1428 110.611 34.524 110.703 34.6612C110.748 34.7378 110.977 34.8591 111.282 34.8591C111.603 34.8591 111.877 34.9046 111.998 34.9046V35.4851C111.33 35.4075 110.658 35.3665 109.985 35.3624C109.361 35.3624 108.688 35.4079 108.018 35.4851V34.9046C108.779 34.9046 109.223 34.7833 109.314 34.6605C109.407 34.522 109.499 34.0497 109.499 33.3024ZM47.726 17.5157V9.2639H45.2247C44.8738 9.2639 44.5994 9.35491 44.5077 9.47763C44.4622 9.56932 44.3705 10.1029 44.3243 10.9875H43.5922C43.5922 10.1029 43.5163 9.1729 43.4095 8.28767L43.5163 8.21114C44.1871 8.21114 44.8738 8.25664 45.4226 8.25664C45.9562 8.25664 46.7801 8.28698 47.6957 8.28698C50.6244 8.25664 52.8967 8.21045 54.3914 8.21045L54.4369 8.28698C54.3604 9.52244 54.2536 10.4532 54.2536 10.9868H53.5827C53.5827 10.2243 53.491 9.70583 53.3538 9.47694C53.2621 9.35491 52.9878 9.26321 52.53 9.26321H50.1659V17.8956C50.1659 18.4754 50.2121 18.8263 50.3031 18.9173C50.3948 18.9932 50.6237 19.1007 50.9436 19.1007C51.2483 19.1007 51.5386 19.1766 51.6758 19.1766V19.8322C50.9436 19.8322 50.3486 19.7867 49.9825 19.7867C49.5861 19.7867 49.0821 19.7412 48.5795 19.7412C48.2134 19.7412 47.8011 19.7867 47.4964 19.7867C47.1917 19.7867 46.7339 19.8322 46.1851 19.8322V19.1766C47.0083 19.1766 47.4661 19.0394 47.5578 18.9173C47.6502 18.827 47.726 18.2934 47.726 17.5157ZM55.3677 8.91298V8.21183C55.9627 8.21183 57.0609 8.25733 58.5101 8.28835C59.5925 8.25802 60.4164 8.21183 60.859 8.21183V8.91367H60.0503C59.8676 8.91367 59.6842 8.9902 59.5925 9.0357C59.5366 9.07571 59.4908 9.12832 59.459 9.18928C59.4271 9.25024 59.41 9.31785 59.4091 9.38662C59.4091 9.57001 59.3636 9.87474 59.3636 10.2257V13.2764C60.0041 13.2764 61.0576 13.3219 62.4144 13.3219C63.4513 13.3219 64.2752 13.2764 64.7329 13.2764V10.5462C64.7329 9.75271 64.6874 9.26528 64.5957 9.17358C64.5502 9.08189 64.4123 8.9902 64.3213 8.9902C64.1841 8.9902 64.0008 8.95986 63.8636 8.95986C63.7264 8.95986 63.4513 8.91436 63.1927 8.91436V8.21183C63.6953 8.21183 64.504 8.25733 65.5561 8.28835C67.0053 8.25802 68.0891 8.21183 68.6827 8.21183V8.91367C68.318 8.91367 67.9512 8.9902 67.7375 8.9902C67.4934 8.9902 67.3252 9.12739 67.2797 9.26459C67.2342 9.43212 67.188 9.78304 67.188 10.2257V18.0349C67.188 18.4775 67.2335 18.8277 67.3252 18.9194C67.4017 18.9952 67.6306 19.1028 67.9512 19.1028C68.2863 19.1028 68.5448 19.1786 68.6827 19.1786V19.8343C67.7498 19.7489 66.8134 19.7081 65.8767 19.7123C65.0066 19.7123 64.0925 19.7426 63.1927 19.8343V19.1786C63.5885 19.1786 63.9091 19.1028 64.0925 19.1028C64.2758 19.1028 64.4585 18.9959 64.5047 18.9656C64.5964 18.8739 64.6881 18.7367 64.6881 18.6147C64.6881 18.4313 64.7336 18.1266 64.7336 17.7301V14.2981C64.1841 14.2981 63.3603 14.2526 62.2779 14.2526C60.9204 14.2526 59.9138 14.2981 59.3643 14.2981V17.8673C59.3643 18.3858 59.4098 18.7822 59.5174 18.9194C59.5477 19.0414 60.051 19.1786 60.8597 19.1786V19.8343C60.2344 19.8343 59.6546 19.7888 59.2278 19.7888C58.8314 19.7888 58.3281 19.7433 57.8703 19.7433C57.4587 19.7433 57.0623 19.7888 56.7265 19.7888C56.3756 19.7888 55.9185 19.8343 55.3691 19.8343V19.1786C56.1012 19.1028 56.6045 18.9952 56.6804 18.9649C56.8176 18.8732 56.9244 18.4768 56.9244 17.8666V10.225C56.9244 9.70652 56.8176 9.3094 56.7259 9.17289C56.679 9.0812 56.1909 8.95848 55.3677 8.91298ZM69.9333 8.86748V8.21183C70.3911 8.21183 70.833 8.25733 71.1991 8.25733C71.5652 8.25733 72.1147 8.28767 72.7097 8.28767C73.7011 8.25733 75.2102 8.21114 77.2082 8.21114H78.2003C78.4733 8.21114 78.7939 8.25664 79.069 8.25664L79.1607 8.37867L78.9166 10.8496H78.2906C78.2003 10.0561 78.1534 9.61414 78.1534 9.56863C78.1534 9.52313 78.0617 9.43143 77.9714 9.43143C77.7425 9.35491 77.0703 9.2639 76.0645 9.2639H73.9286V13.3212H74.4781C74.6615 13.3212 74.9345 13.3667 75.2096 13.3667C75.4695 13.3667 75.9728 13.3212 76.5209 13.3212C76.7497 13.3212 76.9331 13.2757 77.0097 13.1992C77.1158 13.1082 77.2537 12.9248 77.2537 12.7566C77.2537 12.5739 77.2992 12.314 77.2992 12.0396H78.0169V12.7566C78.0169 12.9703 77.9714 13.3212 77.9714 13.7176V14.7704C77.9714 15.0448 78.0169 15.3957 78.0169 15.7011H77.2992C77.2992 15.2282 77.2075 14.8166 77.1158 14.6029C77.0097 14.3436 76.7036 14.2064 76.3389 14.2064H75.3316C74.98 14.2064 74.4781 14.252 73.9286 14.2975V18.7815C74.2947 18.7815 74.8428 18.827 75.5605 18.827C75.6977 18.827 75.9266 18.7815 76.2016 18.7815C77.5129 18.7815 78.2458 18.6898 78.2899 18.614C78.2899 18.4306 78.3816 18.2479 78.3816 18.0804C78.3816 17.897 78.5188 17.5157 78.656 16.9973H79.3427C79.3427 17.4399 79.2972 17.8666 79.2972 18.2176C79.2517 18.5685 79.16 19.1021 79.16 19.6668L79.0683 19.7426C78.0169 19.7881 77.2075 19.8343 76.7036 19.8343C75.7894 19.8343 74.3864 19.7888 72.5711 19.7426C71.6555 19.7881 70.9227 19.8343 70.5269 19.8343V19.453C70.7103 19.3613 70.893 19.2241 70.9227 19.2241C71.0179 19.1841 71.1019 19.1214 71.1674 19.0414C71.2591 18.9649 71.3343 18.8732 71.3804 18.7822C71.4266 18.6912 71.4721 18.0804 71.4721 16.998V10.5766C71.4721 9.96643 71.4266 9.52451 71.3804 9.35629C71.3349 9.17359 71.1971 8.9902 71.1219 8.9902C71.0323 8.98951 70.5745 8.91298 69.9333 8.86748Z" fill="#757B8A"/>
</g>
<defs>
<clipPath id="clip0_460_92299">
<rect width="121" height="39" fill="white"/>
</clipPath>
</defs>
</svg>
