<svg xmlns="http://www.w3.org/2000/svg" width="22" height="20" viewBox="0 0 22 20" fill="none">
  <path fill-rule="evenodd" clip-rule="evenodd" d="M15.1885 18H6.81966C3.13115 18 2 16.8974 2 13.2825V6.71829C2 3.10259 3.13115 2 6.81966 2H15.1885C18.8771 2 20 3.10259 20 6.71829V13.2825C20 16.8974 18.8771 18 15.1885 18ZM18.7459 6.71829C18.7459 3.78419 18.1803 3.2309 15.1885 3.2309H6.81966C3.82787 3.2309 3.26232 3.78419 3.26232 6.71829V13.2825C3.26232 16.2158 3.82787 16.7691 6.81966 16.7691H15.1885C18.1803 16.7691 18.7459 16.2158 18.7459 13.2825V6.71829ZM16.8606 13.8976H15.1885C15.104 13.9005 15.0197 13.8868 14.9407 13.8572C14.8617 13.8277 14.7897 13.7828 14.7288 13.7254C14.6679 13.6679 14.6195 13.5991 14.5864 13.5229C14.5533 13.4468 14.5363 13.3649 14.5363 13.2821C14.5363 13.1994 14.5533 13.1175 14.5864 13.0413C14.6195 12.9652 14.6679 12.8963 14.7288 12.8389C14.7897 12.7814 14.8617 12.7366 14.9407 12.707C15.0197 12.6774 15.104 12.6637 15.1885 12.6667H16.8606C16.9451 12.6637 17.0295 12.6774 17.1084 12.707C17.1874 12.7366 17.2595 12.7814 17.3204 12.8389C17.3812 12.8963 17.4297 12.9652 17.4627 13.0413C17.4958 13.1175 17.5129 13.1994 17.5129 13.2821C17.5129 13.3649 17.4958 13.4468 17.4627 13.5229C17.4297 13.5991 17.3812 13.6679 17.3204 13.7254C17.2595 13.7828 17.1874 13.8277 17.1084 13.8572C17.0295 13.8868 16.9451 13.9005 16.8606 13.8976ZM16.8606 10.6154H13.5164C13.4319 10.6184 13.3476 10.6047 13.2686 10.5751C13.1897 10.5456 13.1175 10.5007 13.0566 10.4433C12.9958 10.3858 12.9474 10.317 12.9143 10.2408C12.8813 10.1646 12.8642 10.0827 12.8642 10C12.8642 9.91726 12.8813 9.83536 12.9143 9.7592C12.9474 9.68304 12.9958 9.61419 13.0566 9.55675C13.1175 9.4993 13.1897 9.45444 13.2686 9.42486C13.3476 9.39527 13.4319 9.38157 13.5164 9.38455H16.8606C16.9451 9.38157 17.0295 9.39527 17.1084 9.42486C17.1874 9.45444 17.2595 9.4993 17.3204 9.55675C17.3812 9.61419 17.4297 9.68304 17.4627 9.7592C17.4958 9.83536 17.5129 9.91726 17.5129 10C17.5129 10.0827 17.4958 10.1646 17.4627 10.2408C17.4297 10.317 17.3812 10.3858 17.3204 10.4433C17.2595 10.5007 17.1874 10.5456 17.1084 10.5751C17.0295 10.6047 16.9451 10.6184 16.8606 10.6154ZM16.8606 7.33333H12.6721C12.5092 7.32758 12.3549 7.26022 12.2418 7.14543C12.1286 7.03064 12.0654 6.87737 12.0654 6.71789C12.0654 6.5584 12.1286 6.40513 12.2418 6.29034C12.3549 6.17555 12.5092 6.10819 12.6721 6.10244H16.8606C16.9451 6.09945 17.0295 6.11317 17.1084 6.14276C17.1874 6.17234 17.2595 6.21719 17.3204 6.27463C17.3812 6.33208 17.4297 6.40093 17.4627 6.47709C17.4958 6.55324 17.5129 6.63514 17.5129 6.71789C17.5129 6.80063 17.4958 6.88253 17.4627 6.95869C17.4297 7.03484 17.3812 7.10369 17.3204 7.16114C17.2595 7.21858 17.1874 7.26344 17.1084 7.29303C17.0295 7.32261 16.9451 7.33632 16.8606 7.33333ZM11.0656 14.1654C11.0437 14.1666 11.0219 14.1666 11 14.1654C10.8441 14.1649 10.694 14.1076 10.5788 14.0047C10.4637 13.9019 10.3917 13.7608 10.3771 13.6089C10.3347 13.1769 10.1395 12.773 9.82528 12.4668C9.51105 12.1605 9.09748 11.9712 8.65581 11.9313C8.27153 11.8936 7.88433 11.8936 7.50005 11.9313C7.05723 11.9706 6.64225 12.1597 6.32658 12.4661C6.0109 12.7724 5.81431 13.1768 5.77056 13.6097C5.74938 13.7683 5.66597 13.9127 5.53802 14.0123C5.41008 14.1119 5.24763 14.159 5.08487 14.1436C4.9221 14.1282 4.77178 14.0515 4.66573 13.9298C4.55967 13.808 4.50614 13.6507 4.51644 13.491C4.58985 12.7746 4.91523 12.1054 5.43697 11.5976C5.9587 11.0898 6.64443 10.775 7.37708 10.7069C7.84034 10.6603 8.30721 10.6603 8.77047 10.7069C9.50346 10.7719 10.1901 11.086 10.7111 11.5946C11.2321 12.1031 11.5548 12.7741 11.623 13.491C11.6328 13.5713 11.626 13.6526 11.6031 13.7303C11.5802 13.808 11.5416 13.8804 11.4896 13.9432C11.4377 14.0061 11.3735 14.0581 11.3006 14.0963C11.2278 14.1344 11.1479 14.1579 11.0656 14.1654ZM8.07378 10.0325C7.64865 10.0341 7.23265 9.91217 6.87839 9.68225C6.52414 9.45233 6.24761 9.12473 6.08384 8.74093C5.92006 8.35713 5.87636 7.93439 5.95836 7.5263C6.04037 7.11821 6.24441 6.74312 6.5445 6.44853C6.84459 6.15393 7.22727 5.9531 7.64413 5.87148C8.06099 5.78985 8.49317 5.8311 8.88604 5.99C9.27891 6.1489 9.61475 6.4183 9.85099 6.76408C10.0872 7.10985 10.2133 7.51644 10.2131 7.93234C10.2116 8.48763 9.98601 9.01987 9.58534 9.4132C9.18467 9.80652 8.64137 10.0291 8.07378 10.0325ZM8.07378 7.0655C7.89771 7.06471 7.72538 7.11506 7.57859 7.21018C7.4318 7.3053 7.31714 7.4409 7.2492 7.5998C7.18126 7.75871 7.16312 7.93378 7.19697 8.10282C7.23082 8.27185 7.3152 8.42725 7.43941 8.54933C7.56362 8.6714 7.72205 8.75467 7.89467 8.78857C8.0673 8.82247 8.24632 8.80547 8.40907 8.73974C8.57181 8.67401 8.71099 8.5625 8.8089 8.41933C8.9068 8.27617 8.95908 8.1078 8.95908 7.93555C8.95995 7.82125 8.93763 7.7079 8.89354 7.60204C8.84945 7.49618 8.78441 7.3999 8.70214 7.31874C8.61986 7.23757 8.52201 7.17313 8.41417 7.12912C8.30633 7.08511 8.19062 7.0624 8.07378 7.0623V7.0655Z" fill="#757B8A"/>
</svg>