<svg width="18" height="18" viewBox="0 0 18 18" fill="none" xmlns="http://www.w3.org/2000/svg">
<g clip-path="url(#clip0_765_125370)">
<path fill-rule="evenodd" clip-rule="evenodd" d="M12.7672 13.5062C12.7672 14.4451 13.5283 15.2062 14.4672 15.2062C15.4061 15.2062 16.1672 14.4451 16.1672 13.5062V3.95381C16.1672 3.01493 15.4061 2.25381 14.4672 2.25381C13.5283 2.25381 12.7672 3.01493 12.7672 3.95381V13.5062ZM2.56719 3.87286C2.56719 4.76704 3.29206 5.49191 4.18623 5.49191H9.44814C10.3423 5.49191 11.0672 4.76704 11.0672 3.87286C11.0672 2.97869 10.3423 2.25381 9.44814 2.25381H4.18623C3.29206 2.25381 2.56719 2.97869 2.56719 3.87286ZM2.56719 8.73C2.56719 9.62418 3.29206 10.3491 4.18623 10.3491H9.44814C10.3423 10.3491 11.0672 9.62418 11.0672 8.73C11.0672 7.83583 10.3423 7.11096 9.44814 7.11096H4.18623C3.29206 7.11096 2.56719 7.83583 2.56719 8.73ZM2.56719 13.5871C2.56719 14.4813 3.29206 15.2062 4.18623 15.2062H9.44814C10.3423 15.2062 11.0672 14.4813 11.0672 13.5871C11.0672 12.693 10.3423 11.9681 9.44814 11.9681H4.18623C3.29206 11.9681 2.56719 12.693 2.56719 13.5871ZM0.867188 14.8252C0.867188 15.9298 1.76262 16.8252 2.86719 16.8252H15.8672C16.9718 16.8252 17.8672 15.9298 17.8672 14.8252V2.63477C17.8672 1.5302 16.9718 0.634766 15.8672 0.634766H2.86719C1.76262 0.634766 0.867188 1.5302 0.867188 2.63477V14.8252Z" fill="url(#paint0_linear_765_125370)"/>
</g>
<defs>
<linearGradient id="paint0_linear_765_125370" x1="9.36719" y1="0.634766" x2="9.36719" y2="16.8252" gradientUnits="userSpaceOnUse">
<stop stop-color="#1AB3FF"/>
<stop offset="1" stop-color="#FFB258"/>
</linearGradient>
<clipPath id="clip0_765_125370">
<rect width="17" height="17" fill="white" transform="translate(0.867188 0.228516)"/>
</clipPath>
</defs>
</svg>
