<svg xmlns="http://www.w3.org/2000/svg" width="25" height="25" viewBox="0 0 25 25" fill="none">
  <path d="M6.11719 10.041L6.92884 5.17112C7.10966 4.0862 8.04834 3.29102 9.14822 3.29102H16.5861C17.686 3.29102 18.6247 4.0862 18.8055 5.17112L19.6172 10.041M6.11719 10.041H19.6172M6.11719 10.041C4.87455 10.041 3.86719 11.0483 3.86719 12.291V14.541C3.86719 15.7837 4.87455 16.791 6.11719 16.791M19.6172 10.041C20.8599 10.041 21.8672 11.0483 21.8672 12.291V14.541C21.8672 15.7837 20.8599 16.791 19.6172 16.791M6.11719 16.791H19.6172M6.11719 16.791V18.4786C6.11719 19.4105 6.87268 20.166 7.80463 20.166C8.73658 20.166 9.49207 19.4105 9.49207 18.4786V16.791H6.11719ZM19.6172 16.791L19.6171 18.4786C19.6171 19.4105 18.8615 20.166 17.9296 20.166C16.9976 20.166 16.2422 19.4105 16.2422 18.4786V16.791H19.6172Z" stroke="#888E9E" stroke-width="1.125"/>
</svg>