<svg xmlns="http://www.w3.org/2000/svg" width="14" height="16" viewBox="0 0 14 16" fill="none">
  <g clip-path="url(#clip0_3322_511867)">
    <path fill-rule="evenodd" clip-rule="evenodd" d="M9.87185 16.0109H4.12858C1.5027 16.0109 -0.00683594 14.4502 -0.00683594 11.7283V5.39702C-0.00683594 2.87208 1.3061 1.3631 3.58794 1.15597V0.555737C3.58794 0.407764 3.64457 0.265837 3.7453 0.161204C3.84603 0.0565708 3.98262 -0.00220917 4.12507 -0.00220917C4.26752 -0.00220917 4.40419 0.0565708 4.50492 0.161204C4.60564 0.265837 4.66219 0.407764 4.66219 0.555737V1.11366H9.33121V0.555737C9.33121 0.406797 9.38813 0.263962 9.48951 0.158645C9.5909 0.0533274 9.72847 -0.00585938 9.87185 -0.00585938C10.0152 -0.00585938 10.1527 0.0533274 10.2541 0.158645C10.3555 0.263962 10.4125 0.406797 10.4125 0.555737V1.15815C12.6943 1.36528 14.0002 2.87427 14.0002 5.3992V11.7305C14.0002 14.4502 12.4977 16.0109 9.87185 16.0109ZM10.4125 2.26746V2.78966C10.4125 2.9386 10.3555 3.08144 10.2541 3.18675C10.1527 3.29207 10.0152 3.35126 9.87185 3.35126C9.72847 3.35126 9.5909 3.29207 9.48951 3.18675C9.38813 3.08144 9.33121 2.9386 9.33121 2.78966V2.231H4.66219V2.78966C4.66219 2.93763 4.60564 3.07956 4.50492 3.18419C4.40419 3.28883 4.26752 3.34761 4.12507 3.34761C3.98262 3.34761 3.84603 3.28883 3.7453 3.18419C3.64457 3.07956 3.58794 2.93763 3.58794 2.78966V2.26746C1.938 2.43958 1.11657 3.42783 1.08146 5.27741H12.919C12.8839 3.42783 12.0554 2.43958 10.4125 2.26746ZM12.926 6.39472H1.07444V11.7283C1.07444 13.858 2.07141 14.8936 4.12858 14.8936H9.87185C11.929 14.8936 12.926 13.858 12.926 11.7283V6.39472ZM9.66118 12.2498C9.56515 12.2534 9.46941 12.2369 9.37964 12.2013C9.28986 12.1657 9.20786 12.1117 9.13854 12.0426C9.06923 11.9734 9.01402 11.8905 8.97613 11.7988C8.93824 11.7071 8.91841 11.6083 8.91794 11.5085C8.91747 11.4087 8.93636 11.3098 8.97339 11.2177C9.01041 11.1256 9.06482 11.0421 9.13349 10.9723C9.20215 10.9025 9.28368 10.8477 9.37312 10.8112C9.46256 10.7746 9.55809 10.7572 9.65415 10.7598H9.66118C9.84751 10.7658 10.0243 10.847 10.154 10.986C10.2837 11.1251 10.3563 11.3111 10.3563 11.5048C10.3563 11.6984 10.2837 11.8845 10.154 12.0235C10.0243 12.1626 9.84751 12.2437 9.66118 12.2498ZM9.66118 10.0151C9.56515 10.0187 9.46941 10.0022 9.37964 9.9666C9.28986 9.93101 9.20786 9.87702 9.13854 9.80789C9.06923 9.73875 9.01402 9.65586 8.97613 9.56412C8.93824 9.47239 8.91841 9.37369 8.91794 9.27387C8.91747 9.17404 8.93636 9.07514 8.97339 8.98303C9.01041 8.89091 9.06482 8.80748 9.13349 8.73764C9.20215 8.66781 9.28368 8.61301 9.37312 8.5765C9.46256 8.53999 9.55809 8.52251 9.65415 8.52511H9.66118C9.84751 8.53116 10.0243 8.6123 10.154 8.75135C10.2837 8.89041 10.3563 9.07646 10.3563 9.2701C10.3563 9.46375 10.2837 9.6498 10.154 9.78886C10.0243 9.92791 9.84751 10.0091 9.66118 10.0151ZM7.00026 12.2498C6.90422 12.2534 6.8084 12.2369 6.71863 12.2013C6.62885 12.1657 6.54694 12.1117 6.47762 12.0426C6.4083 11.9734 6.35301 11.8905 6.31512 11.7988C6.27723 11.7071 6.25748 11.6083 6.25701 11.5085C6.25654 11.4087 6.27535 11.3098 6.31238 11.2177C6.3494 11.1256 6.4039 11.0421 6.47256 10.9723C6.54123 10.9025 6.62267 10.8477 6.71211 10.8112C6.80155 10.7746 6.89717 10.7572 6.99323 10.7598H7.00026C7.09633 10.7566 7.19199 10.7736 7.28163 10.8096C7.37127 10.8457 7.45302 10.9001 7.52204 10.9695C7.59106 11.039 7.64595 11.1222 7.68342 11.2141C7.7209 11.3061 7.74025 11.4049 7.74025 11.5048C7.74025 11.6046 7.7209 11.7035 7.68342 11.7954C7.64595 11.8873 7.59106 11.9705 7.52204 12.04C7.45302 12.1095 7.37127 12.1639 7.28163 12.1999C7.19199 12.2359 7.09633 12.2529 7.00026 12.2498ZM7.00026 10.0151C6.90422 10.0187 6.8084 10.0022 6.71863 9.9666C6.62885 9.93101 6.54694 9.87702 6.47762 9.80789C6.4083 9.73875 6.35301 9.65586 6.31512 9.56412C6.27723 9.47239 6.25748 9.37369 6.25701 9.27387C6.25654 9.17404 6.27535 9.07514 6.31238 8.98303C6.3494 8.89091 6.4039 8.80748 6.47256 8.73764C6.54123 8.66781 6.62267 8.61301 6.71211 8.5765C6.80155 8.53999 6.89717 8.52251 6.99323 8.52511H7.00026C7.09633 8.52198 7.19199 8.53893 7.28163 8.57496C7.37127 8.611 7.45302 8.66539 7.52204 8.73488C7.59106 8.80437 7.64595 8.88755 7.68342 8.97949C7.7209 9.07143 7.74025 9.17026 7.74025 9.2701C7.74025 9.36995 7.7209 9.46877 7.68342 9.56072C7.64595 9.65266 7.59106 9.73586 7.52204 9.80535C7.45302 9.87484 7.37127 9.92921 7.28163 9.96525C7.19199 10.0013 7.09633 10.0182 7.00026 10.0151ZM4.33925 12.2498C4.15292 12.2437 3.97618 12.1626 3.84644 12.0235C3.71669 11.8845 3.64408 11.6984 3.64408 11.5048C3.64408 11.3111 3.71669 11.1251 3.84644 10.986C3.97618 10.847 4.15292 10.7658 4.33925 10.7598C4.43532 10.7566 4.53098 10.7736 4.62062 10.8096C4.71026 10.8457 4.79201 10.9001 4.86103 10.9695C4.93005 11.039 4.98494 11.1222 5.02241 11.2141C5.05989 11.3061 5.07924 11.4049 5.07924 11.5048C5.07924 11.6046 5.05989 11.7035 5.02241 11.7954C4.98494 11.8873 4.93005 11.9705 4.86103 12.04C4.79201 12.1095 4.71026 12.1639 4.62062 12.1999C4.53098 12.2359 4.43532 12.2529 4.33925 12.2498ZM4.33925 10.0151C4.15292 10.0091 3.97618 9.92791 3.84644 9.78886C3.71669 9.6498 3.64408 9.46375 3.64408 9.2701C3.64408 9.07646 3.71669 8.89041 3.84644 8.75135C3.97618 8.6123 4.15292 8.53116 4.33925 8.52511C4.43532 8.52198 4.53098 8.53893 4.62062 8.57496C4.71026 8.611 4.79201 8.66539 4.86103 8.73488C4.93005 8.80437 4.98494 8.88755 5.02241 8.97949C5.05989 9.07143 5.07924 9.17026 5.07924 9.2701C5.07924 9.36995 5.05989 9.46877 5.02241 9.56072C4.98494 9.65266 4.93005 9.73586 4.86103 9.80535C4.79201 9.87484 4.71026 9.92921 4.62062 9.96525C4.53098 10.0013 4.43532 10.0182 4.33925 10.0151Z" fill="#757B8A"/>
  </g>
  <defs>
    <clipPath id="clip0_3322_511867">
      <rect width="14" height="16" fill="white"/>
    </clipPath>
  </defs>
</svg>