<svg xmlns="http://www.w3.org/2000/svg" width="17" height="17" viewBox="0 0 17 17" fill="none">
  <g clip-path="url(#clip0_723_135497)">
    <path d="M6.96045 4.40852V1.22852" stroke="#757B8A" stroke-width="1.27333" stroke-miterlimit="10"/>
    <path d="M10.7739 4.40852V1.22852" stroke="#757B8A" stroke-width="1.27333" stroke-miterlimit="10"/>
    <path d="M6.32059 6.95508H3.77393" stroke="#757B8A" stroke-width="1.27333" stroke-miterlimit="10"/>
    <path d="M13.9607 6.95508H11.4141" stroke="#757B8A" stroke-width="1.27333" stroke-miterlimit="10"/>
    <path d="M14.5941 6.95518C14.5923 5.43692 13.9884 3.98134 12.9148 2.90777C11.8413 1.83419 10.3857 1.23028 8.86742 1.22852C7.34915 1.23028 5.89358 1.83419 4.82 2.90777C3.74643 3.98134 3.14252 5.43692 3.14075 6.95518C2.95529 6.95432 2.77189 6.99419 2.60353 7.07198C2.43516 7.14978 2.28594 7.26359 2.16639 7.40539C2.04685 7.54719 1.9599 7.71352 1.9117 7.89261C1.86349 8.07171 1.8552 8.2592 1.88742 8.44185C1.95112 8.74632 2.11926 9.01894 2.36276 9.21251C2.60625 9.40609 2.90976 9.50844 3.22075 9.50185H14.5541C14.8651 9.50844 15.1686 9.40609 15.4121 9.21251C15.6556 9.01894 15.8237 8.74632 15.8874 8.44185C15.9204 8.25582 15.9113 8.06477 15.8608 7.88271C15.8103 7.70065 15.7198 7.53218 15.5958 7.38964C15.4718 7.2471 15.3175 7.13411 15.1442 7.05893C14.9708 6.98376 14.7829 6.94831 14.5941 6.95518Z" stroke="#757B8A" stroke-width="1.27333" stroke-miterlimit="10"/>
    <path d="M3.77393 9.50208H13.9606V10.1688C13.9518 11.5138 13.4113 12.8008 12.4571 13.7488C11.5028 14.6967 10.2123 15.2288 8.86726 15.2287C7.51642 15.2287 6.22091 14.6921 5.26573 13.7369C4.31054 12.7818 3.77393 11.4863 3.77393 10.1354V9.46875V9.50208Z" stroke="#757B8A" stroke-width="1.27333" stroke-miterlimit="10"/>
  </g>
  <defs>
    <clipPath id="clip0_723_135497">
      <rect width="16" height="16" fill="white" transform="translate(0.867188 0.228516)"/>
    </clipPath>
  </defs>
</svg>