<svg xmlns="http://www.w3.org/2000/svg" width="21" height="21" viewBox="0 0 21 21" fill="none">
  <path d="M10.8675 1.89453C6.26514 1.89453 2.53418 5.62549 2.53418 10.2279C2.53418 14.8302 6.26514 18.5612 10.8675 18.5612C15.4698 18.5612 19.2008 14.8302 19.2008 10.2279C19.2008 5.62549 15.4698 1.89453 10.8675 1.89453Z" stroke="#757B8A" stroke-width="1.25" stroke-linecap="round" stroke-linejoin="round"/>
  <path d="M7.53418 17.8691V11.8958L10.8675 6.0625L14.2008 11.8958V17.8691" stroke="#757B8A" stroke-width="1.25" stroke-linecap="round" stroke-linejoin="round"/>
  <path d="M7.53418 11.8945C7.53418 11.8945 8.47315 12.7279 9.20085 12.7279C9.92851 12.7279 10.8675 11.8945 10.8675 11.8945C10.8675 11.8945 11.8065 12.7279 12.5342 12.7279C13.2618 12.7279 14.2008 11.8945 14.2008 11.8945" stroke="#757B8A" stroke-width="1.25" stroke-linecap="round" stroke-linejoin="round"/>
</svg>