<svg xmlns="http://www.w3.org/2000/svg" width="19" height="19" viewBox="0 0 19 19" fill="none">
  <g clip-path="url(#clip0_723_135464)">
    <path d="M18.4564 2.87998C18.3789 2.71306 18.2247 2.59308 18.0427 2.56034C18.01 2.55443 17.9767 2.55177 17.9436 2.55177C17.7927 2.55177 17.6514 2.61043 17.5447 2.71658L16.0143 4.24789L14.9325 4.16505L14.849 3.08284L16.3794 1.55219C16.5101 1.42213 16.5687 1.23607 16.536 1.05299C16.503 0.871051 16.3829 0.71714 16.2155 0.640753C15.6248 0.371259 14.9687 0.228516 14.3188 0.228516C13.1069 0.228516 11.9672 0.700334 11.1101 1.55717C9.86483 2.803 9.45465 4.58992 10.0264 6.2444L1.36668 14.9036C0.709128 15.5611 0.702352 16.6256 1.35226 17.2758L1.82023 17.7447C2.1325 18.0563 2.54913 18.2286 2.99378 18.2286C3.44614 18.2286 3.8722 18.0517 4.19304 17.7308L12.8531 9.07021C13.3284 9.23329 13.8253 9.31553 14.3318 9.31553C15.5435 9.31553 16.6834 8.84317 17.5406 7.98627C18.8743 6.65225 19.2426 4.60027 18.4564 2.87998ZM14.3309 8.18822C13.8491 8.18762 13.3823 8.08912 12.9435 7.89568C12.8713 7.86353 12.7944 7.84673 12.7156 7.84673C12.5652 7.84673 12.4237 7.90598 12.3173 8.01273L7.46313 12.866H7.4596L3.39393 16.9314C3.2854 17.0402 3.14211 17.1 2.99145 17.1C2.84903 17.1 2.71605 17.0457 2.61787 16.9473L2.1493 16.4791C1.93993 16.2694 1.94703 15.9209 2.16584 15.7027L6.23064 11.6373V11.6344L11.0857 6.77938C11.2505 6.61305 11.2959 6.36714 11.2016 6.15397C10.6257 4.84949 10.9029 3.35803 11.9081 2.3534C12.5517 1.70941 13.4081 1.35469 14.3195 1.35469C14.5236 1.35469 14.7277 1.37328 14.9287 1.40955L13.8696 2.46872C13.7528 2.58517 13.6927 2.74618 13.7053 2.91104L13.8457 4.73277C13.8672 5.01083 14.0851 5.22931 14.3646 5.25176L16.1869 5.39184C16.2008 5.39303 16.2149 5.39363 16.2291 5.39363C16.3777 5.39363 16.5231 5.33318 16.6286 5.22763L17.6872 4.16906C17.8821 5.26509 17.5339 6.39918 16.7442 7.18912C16.099 7.8335 15.2418 8.18822 14.3309 8.18822Z" fill="#757B8A"/>
  </g>
  <defs>
    <clipPath id="clip0_723_135464">
      <rect width="18" height="18" fill="white" transform="translate(0.867188 0.228516)"/>
    </clipPath>
  </defs>
</svg>