<svg xmlns="http://www.w3.org/2000/svg" width="18" height="19" viewBox="0 0 18 19" fill="none">
  <path d="M11.5714 4.33566C11.5714 6.4659 9.84453 8.1928 7.71428 8.1928C5.58404 8.1928 3.85714 6.4659 3.85714 4.33566C3.85714 2.20542 5.58404 0.478516 7.71428 0.478516C9.84453 0.478516 11.5714 2.20542 11.5714 4.33566ZM7.71428 6.90709C9.13445 6.90709 10.2857 5.75582 10.2857 4.33566C10.2857 2.9155 9.13445 1.76423 7.71428 1.76423C6.29412 1.76423 5.14286 2.9155 5.14286 4.33566C5.14286 5.75582 6.29412 6.90709 7.71428 6.90709Z" fill="#757B8A"/>
  <path d="M8.0435 15.9071C7.89832 15.4963 7.79821 15.0643 7.7491 14.6169H1.28571C1.28755 14.2996 1.4834 13.3491 2.35555 12.4769C3.19417 11.6383 4.77113 10.7642 7.71427 10.7642C8.0492 10.7642 8.36643 10.7755 8.6669 10.7968C8.95639 10.358 9.30404 9.96088 9.69889 9.61651C9.0991 9.52759 8.43941 9.47851 7.71428 9.47851C1.28571 9.47851 0 13.3357 0 14.6214C0 15.9071 1.28571 15.9071 1.28571 15.9071H8.0435Z" fill="#757B8A"/>
  <path d="M12.7099 10.0694C12.9421 9.28157 14.0579 9.28157 14.2901 10.0694L14.3464 10.2604C14.4948 10.7638 15.0697 11.0019 15.5306 10.7509L15.7055 10.6556C16.4267 10.2628 17.2158 11.0518 16.8229 11.773L16.7276 11.9479C16.4766 12.4088 16.7147 12.9837 17.2181 13.1321L17.4092 13.1884C18.1969 13.4206 18.1969 14.5364 17.4092 14.7686L17.2181 14.8249C16.7147 14.9733 16.4766 15.5483 16.7276 16.0091L16.8229 16.184C17.2158 16.9052 16.4267 17.6943 15.7055 17.3014L15.5306 17.2061C15.0697 16.9551 14.4948 17.1933 14.3464 17.6966L14.2901 17.8877C14.0579 18.6755 12.9421 18.6755 12.7099 17.8877L12.6536 17.6966C12.5052 17.1933 11.9303 16.9551 11.4694 17.2061L11.2945 17.3014C10.5733 17.6943 9.78425 16.9052 10.1771 16.184L10.2724 16.0091C10.5234 15.5483 10.2853 14.9733 9.78189 14.8249L9.59084 14.7686C8.80305 14.5364 8.80305 13.4206 9.59084 13.1884L9.78189 13.1321C10.2853 12.9837 10.5234 12.4088 10.2724 11.9479L10.1771 11.773C9.78425 11.0518 10.5733 10.2628 11.2945 10.6556L11.4694 10.7509C11.9303 11.0019 12.5052 10.7638 12.6536 10.2604L12.7099 10.0694ZM15.4286 13.9785C15.4286 12.9134 14.5651 12.0499 13.5 12.0499C12.4349 12.0499 11.5714 12.9134 11.5714 13.9785C11.5714 15.0436 12.4349 15.9071 13.5 15.9071C14.5651 15.9071 15.4286 15.0436 15.4286 13.9785Z" fill="#757B8A"/>
</svg>