<svg width="21" height="21" viewBox="0 0 21 21" fill="none" xmlns="http://www.w3.org/2000/svg">
<path fill-rule="evenodd" clip-rule="evenodd" d="M10.0337 1.89453C11.4144 1.89453 12.5337 3.01382 12.5337 4.39453L12.5338 5.37009C12.7944 5.27798 13.0749 5.22786 13.367 5.22786H16.7004C18.0811 5.22786 19.2004 6.34715 19.2004 7.72786V16.0612C19.2004 17.4419 18.0811 18.5612 16.7004 18.5612H5.03369C3.65298 18.5612 2.53369 17.4419 2.53369 16.0612V4.39453C2.53369 3.01382 3.65298 1.89453 5.03369 1.89453H10.0337ZM10.0337 3.5612H5.03369C4.57345 3.5612 4.20036 3.93429 4.20036 4.39453V16.0612C4.20036 16.5214 4.57345 16.8945 5.03369 16.8945H10.867V4.39453C10.867 3.93429 10.4939 3.5612 10.0337 3.5612ZM16.7004 6.89453H13.367C12.9068 6.89453 12.5337 7.26763 12.5337 7.72786V16.8945H16.7004C17.1606 16.8945 17.5337 16.5214 17.5337 16.0612V7.72786C17.5337 7.26763 17.1606 6.89453 16.7004 6.89453ZM8.36702 11.8945C8.82726 11.8945 9.20036 12.2676 9.20036 12.7279C9.20036 13.1881 8.82726 13.5612 8.36702 13.5612H6.70036C6.24012 13.5612 5.86702 13.1881 5.86702 12.7279C5.86702 12.2676 6.24012 11.8945 6.70036 11.8945H8.36702ZM15.867 11.8945C16.3273 11.8945 16.7004 12.2676 16.7004 12.7279C16.7004 13.1881 16.3273 13.5612 15.867 13.5612H14.2004C13.7401 13.5612 13.367 13.1881 13.367 12.7279C13.367 12.2676 13.7401 11.8945 14.2004 11.8945H15.867ZM8.36702 8.5612C8.82726 8.5612 9.20036 8.93429 9.20036 9.39453C9.20036 9.85477 8.82726 10.2279 8.36702 10.2279H6.70036C6.24012 10.2279 5.86702 9.85477 5.86702 9.39453C5.86702 8.93429 6.24012 8.5612 6.70036 8.5612H8.36702ZM15.867 8.5612C16.3273 8.5612 16.7004 8.93429 16.7004 9.39453C16.7004 9.85477 16.3273 10.2279 15.867 10.2279H14.2004C13.7401 10.2279 13.367 9.85477 13.367 9.39453C13.367 8.93429 13.7401 8.5612 14.2004 8.5612H15.867ZM8.36702 5.22786C8.82726 5.22786 9.20036 5.60096 9.20036 6.0612C9.20036 6.52144 8.82726 6.89453 8.36702 6.89453H6.70036C6.24012 6.89453 5.86702 6.52144 5.86702 6.0612C5.86702 5.60096 6.24012 5.22786 6.70036 5.22786H8.36702Z" fill="white"/>
</svg>
