<svg xmlns="http://www.w3.org/2000/svg" width="22" height="22" viewBox="0 0 22 22" fill="none">
  <path fill-rule="evenodd" clip-rule="evenodd" d="M16.5107 11.5112V12.4154C16.5107 14.8983 15.0829 16.3218 12.6062 16.3218H9.81626V17.8839H11.936C12.084 17.8839 12.226 17.9427 12.3306 18.0473C12.4353 18.152 12.4941 18.2939 12.4941 18.4419C12.4941 18.5899 12.4353 18.7319 12.3306 18.8365C12.226 18.9412 12.084 19 11.936 19H6.5746C6.42661 19 6.2847 18.9412 6.18006 18.8365C6.07541 18.7319 6.01662 18.5899 6.01662 18.4419C6.01662 18.2939 6.07541 18.152 6.18006 18.0473C6.2847 17.9427 6.42661 17.8839 6.5746 17.8839H8.69442V16.3218H5.90449C3.42775 16.3218 2 14.8983 2 12.4154V8.3974C2 5.9145 3.42775 4.49091 5.90449 4.49091H7.55808C7.81139 4.02003 8.19271 3.63045 8.65805 3.36719C9.12339 3.10393 9.65375 2.97775 10.1878 3.00322H15.0247C15.4201 2.98526 15.8148 3.04998 16.1838 3.19324C16.5528 3.33649 16.8878 3.55514 17.1675 3.83522C17.4472 4.1153 17.6654 4.45064 17.8081 4.81982C17.9509 5.18901 18.0152 5.58392 17.9967 5.97934V8.88116C18.0223 9.4151 17.8964 9.9454 17.6334 10.4108C17.3705 10.8762 16.9812 11.2577 16.5107 11.5112ZM7.20835 8.88116V5.97934C7.20826 5.85492 7.21558 5.7306 7.23023 5.60705H5.90449C4.03237 5.60705 3.11446 6.51992 3.11446 8.3974V12.4154C3.11446 14.2928 4.03237 15.2057 5.90449 15.2057H12.6062C14.4783 15.2057 15.3961 14.2928 15.3961 12.4154V11.8383C15.2723 11.8507 15.1485 11.8573 15.0247 11.8573H13.2545L11.244 13.1993C11.1629 13.2528 11.0746 13.2945 10.9818 13.3231C10.9453 13.3333 10.9089 13.3348 10.8798 13.3413C10.8176 13.3558 10.7542 13.3646 10.6904 13.3676C10.6831 13.3676 10.6758 13.3712 10.6685 13.3712C10.6147 13.3683 10.5611 13.3615 10.5083 13.3508C10.4864 13.3464 10.4573 13.3508 10.4281 13.3406C10.3392 13.3199 10.2535 13.2873 10.1732 13.2437C10.0086 13.1551 9.87098 13.0237 9.77482 12.8635C9.67867 12.7032 9.62759 12.5199 9.62686 12.333V11.8136C9.02575 11.728 8.46719 11.4541 8.0315 11.0311C7.75929 10.7448 7.54641 10.4074 7.40514 10.0384C7.26386 9.66941 7.19698 9.27611 7.20835 8.88116ZM16.8822 5.97934C16.9025 5.73008 16.8685 5.4794 16.7823 5.24462C16.6962 5.00984 16.5601 4.79657 16.3834 4.6196C16.2068 4.44263 15.9937 4.30617 15.7591 4.21967C15.5245 4.13317 15.274 4.09869 15.0247 4.11862H10.1878C9.81558 4.08867 9.44376 4.18153 9.12934 4.38298C8.81491 4.58442 8.57519 4.88336 8.44677 5.23404C8.36371 5.4737 8.32181 5.72569 8.3229 5.97934V8.88116C8.30331 9.13084 8.33812 9.38181 8.42498 9.61671C8.51185 9.85161 8.64871 10.0649 8.82602 10.2417C9.00334 10.4186 9.21693 10.5548 9.45204 10.641C9.68714 10.7273 9.93818 10.7614 10.1878 10.7411C10.2608 10.7414 10.333 10.7561 10.4003 10.7843C10.4676 10.8125 10.5287 10.8537 10.5801 10.9055C10.6315 10.9573 10.6722 11.0188 10.6999 11.0863C10.7275 11.1539 10.7417 11.2262 10.7414 11.2992V12.1932L12.7737 10.8351C12.867 10.7745 12.9758 10.7419 13.087 10.7411H15.0247C15.2772 10.7431 15.5283 10.7029 15.7676 10.6224C16.1174 10.4928 16.4155 10.2527 16.6166 9.93853C16.8177 9.62433 16.911 9.25312 16.8822 8.88116V5.97934ZM14.8353 8.02511C14.6871 8.02492 14.5449 7.96616 14.4399 7.86162C14.3348 7.75709 14.2753 7.61526 14.2744 7.46704C14.2741 7.39404 14.2881 7.3217 14.3158 7.25415C14.3435 7.18659 14.3842 7.12515 14.4356 7.07333C14.487 7.02151 14.5482 6.98033 14.6155 6.95213C14.6828 6.92392 14.755 6.90926 14.828 6.90897H14.8353C14.9833 6.90897 15.1252 6.96777 15.2298 7.07243C15.3345 7.17709 15.3933 7.31904 15.3933 7.46704C15.3933 7.61505 15.3345 7.757 15.2298 7.86166C15.1252 7.96632 14.9833 8.02511 14.8353 8.02511ZM12.7591 8.02511C12.6099 8.02627 12.4662 7.96818 12.3597 7.86356C12.2532 7.75894 12.1926 7.61635 12.191 7.46704C12.1909 7.39348 12.2053 7.32063 12.2335 7.25269C12.2617 7.18475 12.3031 7.12305 12.3553 7.07118C12.4074 7.0193 12.4693 6.97825 12.5374 6.95041C12.6054 6.92257 12.6783 6.90849 12.7519 6.90897H12.7591C12.9071 6.90897 13.0491 6.96777 13.1538 7.07243C13.2584 7.17709 13.3171 7.31904 13.3171 7.46704C13.3171 7.61505 13.2584 7.757 13.1538 7.86166C13.0491 7.96632 12.9071 8.02511 12.7591 8.02511ZM10.6685 8.02511C10.5205 8.02511 10.3786 7.96632 10.2739 7.86166C10.1693 7.757 10.1105 7.61505 10.1105 7.46704C10.1105 7.31904 10.1693 7.17709 10.2739 7.07243C10.3786 6.96777 10.5205 6.90897 10.6685 6.90897C10.8165 6.90897 10.9585 6.96777 11.0631 7.07243C11.1678 7.17709 11.2265 7.31904 11.2265 7.46704C11.2265 7.61505 11.1678 7.757 11.0631 7.86166C10.9585 7.96632 10.8165 8.02511 10.6685 8.02511Z" fill="#757B8A"/>
</svg>