<svg xmlns="http://www.w3.org/2000/svg" width="19" height="22" viewBox="0 0 19 22" fill="none">
  <path fill-rule="evenodd" clip-rule="evenodd" d="M15.7473 18.7658C15.2895 18.9616 14.3331 19.0727 13.0858 17.6403C12.9985 17.5281 12.8873 17.438 12.7607 17.3769C12.6341 17.3158 12.4955 17.2854 12.3557 17.2879C12.216 17.3015 12.0812 17.3475 11.9615 17.4224C11.8418 17.4974 11.7402 17.5993 11.6646 17.7204L10.7898 18.9762C10.6018 19.2891 10.339 19.5475 10.0262 19.7267C9.71346 19.9059 9.36126 20 9.00308 20C8.6449 20 8.29265 19.9059 7.9799 19.7267C7.66715 19.5475 7.40428 19.2891 7.2163 18.9762L6.33981 17.7159C6.26378 17.5951 6.16211 17.4936 6.04243 17.4188C5.92275 17.3441 5.78817 17.2981 5.64872 17.2843C5.50894 17.2808 5.3703 17.3108 5.24374 17.3718C5.11719 17.4328 5.00616 17.5232 4.91945 17.6358C3.67743 19.0645 2.7184 18.9516 2.25797 18.7567C1.79753 18.5619 1 17.9153 1 15.8564V5.38443C1 1.25755 2.10627 0 5.73476 0H12.2731C14.169 0 15.2363 0.315979 15.9557 1.09273C16.7027 1.8968 17.0053 3.1416 16.9999 5.38716V15.8646C17.0026 17.9263 16.2166 18.571 15.7473 18.7658ZM15.7047 5.39081C15.7047 3.57778 15.5095 2.58886 15.0393 2.08347C14.5958 1.6054 13.7689 1.40143 12.2758 1.40143H5.73124C2.84087 1.40143 2.29435 2.03885 2.29435 5.39081V15.8628C2.29435 16.8372 2.52145 17.3762 2.73171 17.4664C2.88253 17.5265 3.31282 17.4391 3.96666 16.6896C4.16759 16.4445 4.41746 16.2465 4.69939 16.109C4.98132 15.9715 5.28871 15.8978 5.6008 15.8929C5.63894 15.8929 5.6762 15.8929 5.71434 15.8929C6.04582 15.9193 6.36727 16.0219 6.6549 16.1931C6.94252 16.3643 7.18899 16.5997 7.37604 16.8818L8.25075 18.1384C8.32528 18.2753 8.43406 18.3893 8.56583 18.4687C8.69761 18.548 8.84764 18.5899 9.00043 18.5899C9.15321 18.5899 9.30319 18.548 9.43496 18.4687C9.56674 18.3893 9.67552 18.2753 9.75005 18.1384L10.6222 16.8863C10.8091 16.604 11.0555 16.3685 11.3431 16.1972C11.6308 16.0258 11.9523 15.9231 12.2838 15.8965C12.6148 15.8841 12.9441 15.9491 13.247 16.0865C13.55 16.2239 13.8185 16.4301 14.0324 16.6896C14.6889 17.4427 15.1191 17.5356 15.27 17.4709C15.4793 17.3799 15.7047 16.8435 15.7047 15.8719V5.39081ZM12.8108 9.76992H8.04937C7.8735 9.76339 7.70695 9.6871 7.58478 9.55709C7.46261 9.42708 7.39434 9.25349 7.39434 9.07286C7.39434 8.89222 7.46261 8.71862 7.58478 8.58861C7.70695 8.4586 7.8735 8.38231 8.04937 8.37578H12.8108C12.9866 8.38231 13.1532 8.4586 13.2754 8.58861C13.3975 8.71862 13.4658 8.89222 13.4658 9.07286C13.4658 9.25349 13.3975 9.42708 13.2754 9.55709C13.1532 9.6871 12.9866 9.76339 12.8108 9.76992ZM12.8108 6.05099H8.04937C7.87514 6.04185 7.71101 5.96437 7.59084 5.83456C7.47068 5.70475 7.40365 5.53253 7.40365 5.35347C7.40365 5.17441 7.47068 5.00217 7.59084 4.87236C7.71101 4.74255 7.87514 4.66508 8.04937 4.65594H12.8108C12.985 4.66508 13.1491 4.74255 13.2693 4.87236C13.3895 5.00217 13.4565 5.17441 13.4565 5.35347C13.4565 5.53253 13.3895 5.70475 13.2693 5.83456C13.1491 5.96437 12.985 6.04185 12.8108 6.05099ZM5.63188 10.003C5.39994 9.99123 5.18122 9.88861 5.02076 9.7163C4.8603 9.54399 4.77027 9.31509 4.76924 9.07673C4.76822 8.83837 4.85627 8.60867 5.01524 8.43492C5.17421 8.26116 5.39203 8.15658 5.62386 8.14267H5.63188C5.86373 8.15557 6.08196 8.25919 6.24164 8.43222C6.40132 8.60525 6.49029 8.83452 6.49029 9.07286C6.49029 9.31119 6.40132 9.54045 6.24164 9.71348C6.08196 9.8865 5.86373 9.99014 5.63188 10.003ZM5.63188 6.2832C5.3985 6.2737 5.17767 6.17213 5.01546 5.99966C4.85324 5.82719 4.7621 5.59712 4.76107 5.35739C4.76004 5.11766 4.8492 4.88677 5.00993 4.71284C5.17066 4.5389 5.39058 4.43535 5.62386 4.42374H5.63188C5.86517 4.43434 6.08546 4.53691 6.24689 4.71011C6.40832 4.88331 6.49841 5.11377 6.49841 5.35347C6.49841 5.59317 6.40832 5.82361 6.24689 5.99681C6.08546 6.17001 5.86517 6.2726 5.63188 6.2832Z" fill="#757B8A"/>
</svg>