<svg xmlns="http://www.w3.org/2000/svg" width="22" height="23" viewBox="0 0 22 23" fill="none">
  <path fill-rule="evenodd" clip-rule="evenodd" d="M18.3515 16.8032C18.1193 17.2118 17.8184 17.5759 17.4625 17.879C16.7329 18.5333 15.8108 18.924 14.8399 18.99C13.8689 19.056 12.9038 18.7938 12.0949 18.244H7.27893C4.55942 18.244 3 16.661 3 13.9V7.4776C3 4.91649 4.35539 3.38679 6.72075 3.17577V2.56715C6.72075 2.41673 6.77952 2.27246 6.8842 2.1661C6.98888 2.05974 7.13089 2 7.27893 2C7.42697 2 7.56893 2.05974 7.67361 2.1661C7.77829 2.27246 7.83711 2.41673 7.83711 2.56715V3.13356H12.6749V2.56715C12.6749 2.41673 12.7337 2.27246 12.8384 2.1661C12.9431 2.05974 13.0851 2 13.2331 2C13.3811 2 13.5231 2.05974 13.6278 2.1661C13.7325 2.27246 13.7913 2.41673 13.7913 2.56715V3.17577C16.156 3.38679 17.5135 4.91649 17.5135 7.4776V11.099C18.2893 11.799 18.7983 12.7538 18.9515 13.7965C19.1047 14.8392 18.8923 15.9035 18.3515 16.8032ZM16.3957 7.4739C16.3957 5.51549 15.5358 4.47817 13.7913 4.29973V4.82987C13.7913 4.98029 13.7325 5.12454 13.6278 5.2309C13.5231 5.33727 13.3811 5.39703 13.2331 5.39703C13.0851 5.39703 12.9431 5.33727 12.8384 5.2309C12.7337 5.12454 12.6749 4.98029 12.6749 4.82987V4.26344H7.83711V4.82987C7.83711 4.98029 7.77829 5.12454 7.67361 5.2309C7.56893 5.33727 7.42697 5.39703 7.27893 5.39703C7.13089 5.39703 6.98888 5.33727 6.8842 5.2309C6.77952 5.12454 6.72075 4.98029 6.72075 4.82987V4.29973C4.97625 4.47817 4.11635 5.51549 4.11635 7.4739V13.8963C4.11635 16.0568 5.15113 17.1075 7.27893 17.1075H10.9224C10.8496 17.0075 10.784 16.9039 10.7198 16.7973C10.1577 15.8592 9.95244 14.7446 10.1428 13.6635C10.3331 12.5823 10.9058 11.6092 11.7531 10.9272C11.9361 10.7793 12.1311 10.6476 12.3361 10.5333C12.382 10.5074 12.4301 10.4867 12.4767 10.4593C12.6498 10.3686 12.8288 10.2899 13.0123 10.2238L13.1056 10.192C14.1836 9.82143 15.3592 9.87424 16.4008 10.3401V7.47168L16.3957 7.4739ZM16.6085 11.7957C16.5837 11.775 16.5553 11.7617 16.5298 11.7417C15.9333 11.3037 15.213 11.0742 14.4772 11.0876C13.7414 11.1009 13.0298 11.3564 12.449 11.8157C11.8142 12.3256 11.3847 13.0537 11.2415 13.8629C11.0983 14.6722 11.2512 15.5067 11.6715 16.2094C11.9041 16.6039 12.213 16.9464 12.5795 17.2163C13.1901 17.6697 13.935 17.8973 14.6904 17.8615C15.4459 17.8256 16.1666 17.5285 16.7331 17.0194C16.998 16.7932 17.223 16.5228 17.3984 16.2197C17.8236 15.5129 17.9782 14.6718 17.8325 13.8566C17.6868 13.0415 17.2511 12.3093 16.6085 11.7994V11.7957ZM16.3957 15.0291C16.0506 15.0295 15.7197 15.1689 15.4756 15.4168C15.2314 15.6647 15.0941 16.0009 15.0935 16.3515C15.0935 16.502 15.0347 16.6462 14.93 16.7526C14.8253 16.8589 14.6834 16.9187 14.5353 16.9187C14.3873 16.9187 14.2453 16.8589 14.1406 16.7526C14.0359 16.6462 13.9771 16.502 13.9771 16.3515C13.9765 16.0009 13.8392 15.6647 13.5951 15.4168C13.3509 15.1689 13.02 15.0295 12.6749 15.0291C12.6017 15.0291 12.5293 15.0145 12.4616 14.986C12.394 14.9576 12.3325 14.9158 12.2808 14.8632C12.229 14.8106 12.1879 14.7482 12.1599 14.6795C12.1319 14.6107 12.1175 14.5371 12.1175 14.4627C12.1175 14.3883 12.1319 14.3147 12.1599 14.246C12.1879 14.1772 12.229 14.1148 12.2808 14.0622C12.3325 14.0096 12.394 13.9679 12.4616 13.9394C12.5293 13.9109 12.6017 13.8963 12.6749 13.8963C13.02 13.8959 13.3509 13.7565 13.5951 13.5086C13.8392 13.2607 13.9765 12.9246 13.9771 12.5739C13.9771 12.4235 14.0359 12.2792 14.1406 12.1729C14.2453 12.0665 14.3873 12.0067 14.5353 12.0067C14.6834 12.0067 14.8253 12.0665 14.93 12.1729C15.0347 12.2792 15.0935 12.4235 15.0935 12.5739C15.0941 12.9246 15.2314 13.2607 15.4756 13.5086C15.7197 13.7565 16.0506 13.8959 16.3957 13.8963C16.5444 13.8963 16.687 13.9563 16.7922 14.0632C16.8973 14.17 16.9564 14.3149 16.9564 14.4661C16.9564 14.6172 16.8973 14.7621 16.7922 14.8689C16.687 14.9758 16.5444 15.0358 16.3957 15.0358V15.0291ZM14.5353 14.1406C14.4395 14.2573 14.3334 14.3649 14.2183 14.462C14.3334 14.5593 14.4395 14.6671 14.5353 14.7841C14.631 14.6673 14.7369 14.5595 14.8516 14.462C14.7372 14.3668 14.6314 14.2615 14.5353 14.1473V14.1406ZM11.0004 9.92913H6.53493C6.45998 9.93189 6.38522 9.91928 6.31517 9.89203C6.24513 9.86479 6.18124 9.82348 6.12726 9.77058C6.07328 9.71768 6.03032 9.65426 6.00099 9.58412C5.97167 9.51398 5.95656 9.43855 5.95656 9.36234C5.95656 9.28614 5.97167 9.21072 6.00099 9.14059C6.03032 9.07045 6.07328 9.00703 6.12726 8.95412C6.18124 8.90122 6.24513 8.85992 6.31517 8.83267C6.38522 8.80543 6.45998 8.79279 6.53493 8.79555H11.0004C11.1489 8.79555 11.2913 8.8555 11.3964 8.96221C11.5014 9.06892 11.5604 9.21367 11.5604 9.36458C11.5604 9.51549 11.5014 9.66021 11.3964 9.76692C11.2913 9.87363 11.1489 9.93358 11.0004 9.93358V9.92913ZM6.53493 12.5732H8.4849C8.55985 12.5704 8.63457 12.583 8.70462 12.6103C8.77466 12.6375 8.83859 12.6788 8.89257 12.7317C8.94656 12.7846 8.98952 12.8481 9.01884 12.9182C9.04817 12.9883 9.06327 13.0638 9.06327 13.14C9.06327 13.2162 9.04817 13.2916 9.01884 13.3617C8.98952 13.4319 8.94656 13.4953 8.89257 13.5482C8.83859 13.6011 8.77466 13.6424 8.70462 13.6696C8.63457 13.6969 8.55985 13.7095 8.4849 13.7067H6.53493C6.45749 13.7143 6.37934 13.7053 6.30552 13.6804C6.2317 13.6554 6.1638 13.6151 6.10622 13.5619C6.04865 13.5088 6.00267 13.444 5.97119 13.3717C5.93971 13.2994 5.92343 13.2212 5.92343 13.1422C5.92343 13.0631 5.93971 12.985 5.97119 12.9127C6.00267 12.8404 6.04865 12.7756 6.10622 12.7224C6.1638 12.6693 6.2317 12.6289 6.30552 12.604C6.37934 12.579 6.45749 12.5701 6.53493 12.5776V12.5732Z" fill="#757B8A"/>
</svg>