<svg xmlns="http://www.w3.org/2000/svg" width="19" height="22" viewBox="0 0 19 22" fill="none">
  <path fill-rule="evenodd" clip-rule="evenodd" d="M9.16495 11.0452C9.08285 11.0443 9.00171 11.0265 8.92619 10.9927C8.85068 10.9589 8.78228 10.9098 8.72484 10.8482C8.6674 10.7867 8.62206 10.7139 8.59144 10.634C8.56083 10.5541 8.54552 10.4686 8.54639 10.3825V5.96475C8.54639 5.79265 8.61156 5.62759 8.72756 5.5059C8.84356 5.3842 9.0009 5.31584 9.16495 5.31584C9.329 5.31584 9.48633 5.3842 9.60234 5.5059C9.71834 5.62759 9.7835 5.79265 9.7835 5.96475V10.3825C9.78437 10.4686 9.76907 10.5541 9.73845 10.634C9.70784 10.7139 9.66249 10.7867 9.60505 10.8482C9.54762 10.9098 9.47922 10.9589 9.4037 10.9927C9.32818 11.0265 9.24705 11.0443 9.16495 11.0452ZM16.3814 11.2659C16.2993 11.2649 16.2182 11.2471 16.1427 11.2133C16.0672 11.1795 15.9988 11.1304 15.9413 11.0689C15.8839 11.0073 15.8385 10.9345 15.8079 10.8546C15.7773 10.7747 15.762 10.6892 15.7629 10.6031C15.7351 9.24082 15.3247 7.91743 14.583 6.7988C13.8413 5.68017 12.8015 4.81606 11.5937 4.31479C10.3859 3.81352 9.06393 3.69739 7.79348 3.98093C6.52304 4.26448 5.36062 4.9351 4.45193 5.90874C3.54325 6.88239 2.92873 8.11572 2.68537 9.4542C2.44201 10.7927 2.58063 12.1767 3.08389 13.4329C3.58715 14.6891 4.43267 15.7615 5.51442 16.5157C6.59618 17.2699 7.86607 17.6724 9.16495 17.6727C9.3325 17.6727 9.49317 17.7425 9.61165 17.8668C9.73013 17.9911 9.79669 18.1597 9.79669 18.3354C9.79669 18.5112 9.73013 18.6798 9.61165 18.8041C9.49317 18.9284 9.3325 18.9982 9.16495 18.9982C7.57609 19.0326 6.01345 18.5697 4.67634 17.6687C3.33923 16.7677 2.28823 15.4693 1.65736 13.9391C1.02649 12.4089 0.844344 10.7163 1.13414 9.07707C1.42395 7.43785 2.17257 5.9263 3.28454 4.73522C4.39651 3.54413 5.82146 2.72748 7.37764 2.38938C8.93382 2.05128 10.5507 2.20707 12.0221 2.83687C13.4936 3.46668 14.7529 4.54195 15.6394 5.92559C16.526 7.30923 16.9996 8.93853 17 10.6057C17.0011 10.7792 16.9366 10.9461 16.8207 11.0698C16.7047 11.1935 16.5468 11.264 16.3814 11.2659ZM11.6392 1.32551H6.69073C6.52317 1.32551 6.3625 1.25567 6.24402 1.13139C6.12555 1.0071 6.05898 0.838513 6.05898 0.662741C6.05898 0.486969 6.12555 0.318412 6.24402 0.194122C6.3625 0.0698329 6.52317 0 6.69073 0H11.6392C11.8067 0 11.9674 0.0698329 12.0859 0.194122C12.2043 0.318412 12.2709 0.486969 12.2709 0.662741C12.2709 0.838513 12.2043 1.0071 12.0859 1.13139C11.9674 1.25567 11.8067 1.32551 11.6392 1.32551ZM11.7967 12.3569C12.1007 12.1931 12.4416 12.1195 12.7826 12.1441C13.1236 12.1686 13.4517 12.2904 13.7315 12.4962L15.381 13.5214C15.7008 13.6682 15.9729 13.9096 16.164 14.2161C16.3551 14.5226 16.4569 14.8809 16.4569 15.2471C16.4569 15.6133 16.3551 15.9716 16.164 16.2781C15.9729 16.5846 15.7008 16.826 15.381 16.9728L13.7315 17.998C13.3885 18.2237 12.994 18.3483 12.5893 18.3588C12.3109 18.3612 12.037 18.2847 11.7967 18.1373C11.5101 17.9338 11.2798 17.6546 11.1291 17.3278C10.9783 17.001 10.9125 16.6383 10.9382 16.2763V14.2171C10.9124 13.8552 10.9782 13.4925 11.1289 13.1659C11.2797 12.8392 11.5101 12.5601 11.7967 12.3569ZM12.1753 16.2763C12.1583 16.4064 12.171 16.5389 12.2125 16.6629C12.2539 16.7868 12.3229 16.8987 12.4136 16.9892C12.5315 17.0284 12.6567 17.0363 12.7782 17.0123C12.8996 16.9883 13.0135 16.9331 13.1097 16.8516L14.7592 15.8264C14.8878 15.8007 15.0039 15.7288 15.0874 15.6229C15.1709 15.5171 15.2166 15.3841 15.2166 15.2467C15.2166 15.1093 15.1709 14.9762 15.0874 14.8704C15.0039 14.7646 14.8878 14.6926 14.7592 14.667L13.1097 13.6417C12.9552 13.5358 12.7775 13.4733 12.5934 13.46C12.5303 13.4578 12.4679 13.4736 12.4128 13.5059C12.3219 13.5959 12.2529 13.7074 12.2114 13.8312C12.17 13.9549 12.1572 14.0872 12.1744 14.2171V16.2763H12.1753Z" fill="#757B8A"/>
</svg>