<svg xmlns="http://www.w3.org/2000/svg" width="22" height="22" viewBox="0 0 22 22" fill="none">
  <path fill-rule="evenodd" clip-rule="evenodd" d="M16.198 19.9833H14.7131C14.3368 20.0269 13.9556 19.9849 13.5978 19.8604C13.2401 19.7358 12.9151 19.532 12.6472 19.2642C12.3794 18.9963 12.1756 18.6714 12.051 18.3136C11.9265 17.9559 11.8845 17.5746 11.9281 17.1983V15.715C11.8845 15.3387 11.9265 14.9574 12.051 14.5997C12.1756 14.2419 12.3794 13.917 12.6472 13.6491C12.9151 13.3813 13.2401 13.1775 13.5978 13.0529C13.9556 12.9284 14.3368 12.8864 14.7131 12.93H16.198C16.5743 12.8864 16.9556 12.9284 17.3133 13.0529C17.6711 13.1775 17.996 13.3813 18.2639 13.6491C18.5317 13.917 18.7356 14.2419 18.8601 14.5997C18.9846 14.9574 19.0266 15.3387 18.983 15.715V17.2005C19.0263 17.5766 18.984 17.9576 18.8593 18.3151C18.7346 18.6726 18.5307 18.9972 18.2629 19.2648C17.9951 19.5324 17.6703 19.736 17.3127 19.8605C16.9551 19.9849 16.5741 20.0268 16.198 19.9833ZM17.8704 15.7128C17.8704 14.5421 17.3709 14.0404 16.198 14.0404H14.7131C13.5417 14.0404 13.0407 14.5406 13.0407 15.7128V17.1983C13.0407 18.369 13.5402 18.8707 14.7131 18.8707H16.198C17.3694 18.8707 17.8704 18.3705 17.8704 17.1983V15.715V15.7128ZM16.198 11.0714H14.7131C14.3369 11.1152 13.9556 11.0733 13.5979 10.9488C13.2401 10.8244 12.9151 10.6207 12.6472 10.3529C12.3794 10.0851 12.1755 9.76017 12.051 9.40245C11.9265 9.04474 11.8844 8.66347 11.9281 8.28722V6.80168C11.8845 6.4254 11.9265 6.04412 12.051 5.68638C12.1756 5.32864 12.3794 5.00368 12.6472 4.73583C12.9151 4.46798 13.2401 4.26416 13.5978 4.13963C13.9556 4.01511 14.3368 3.97311 14.7131 4.01674H16.198C16.5743 3.97311 16.9556 4.01511 17.3133 4.13963C17.6711 4.26416 17.996 4.46798 18.2639 4.73583C18.5317 5.00368 18.7356 5.32864 18.8601 5.68638C18.9846 6.04412 19.0266 6.4254 18.983 6.80168V8.28722C19.027 8.66364 18.9853 9.04515 18.8609 9.40314C18.7365 9.76114 18.5328 10.0863 18.2648 10.3544C17.9969 10.6224 17.6718 10.8264 17.3139 10.951C16.9559 11.0755 16.5744 11.1174 16.198 11.0736V11.0714ZM17.8704 6.80168C17.8704 5.63026 17.3709 5.12926 16.198 5.12926H14.7131C13.5417 5.12926 13.0407 5.6288 13.0407 6.80168V8.28722C13.0407 9.45792 13.5402 9.95966 14.7131 9.95966H16.198C17.3694 9.95966 17.8704 9.4601 17.8704 8.28722V6.80168ZM7.28667 19.9833H5.80109C5.42483 20.0269 5.04358 19.9849 4.68585 19.8604C4.32813 19.7359 4.00319 19.532 3.73539 19.2642C3.46758 18.9963 3.26384 18.6713 3.1394 18.3136C3.01496 17.9558 2.97306 17.5746 3.01682 17.1983V15.715C2.97306 15.3387 3.01496 14.9574 3.1394 14.5997C3.26384 14.242 3.46758 13.917 3.73539 13.6491C4.00319 13.3813 4.32813 13.1774 4.68585 13.0529C5.04358 12.9284 5.42483 12.8864 5.80109 12.93H7.28667C7.66295 12.8864 8.04424 12.9284 8.40199 13.0529C8.75974 13.1775 9.08471 13.3813 9.35257 13.6491C9.62043 13.917 9.82424 14.2419 9.94878 14.5997C10.0733 14.9574 10.1153 15.3387 10.0717 15.715V17.2005C10.115 17.5766 10.0727 17.9576 9.948 18.3151C9.82331 18.6726 9.61943 18.9972 9.35161 19.2648C9.0838 19.5324 8.75897 19.736 8.40139 19.8605C8.04382 19.9849 7.66275 20.0268 7.28667 19.9833ZM8.95914 15.7128C8.95914 14.5421 8.45957 14.0404 7.28667 14.0404H5.80109C4.63036 14.0404 4.12863 14.5406 4.12863 15.7128V17.1983C4.12863 18.369 4.62818 18.8707 5.80109 18.8707H7.28667C8.45812 18.8707 8.95914 18.3705 8.95914 17.1983V15.715V15.7128ZM7.28667 11.0714H5.80109C5.4249 11.1151 5.04372 11.0731 4.68605 10.9486C4.32839 10.8241 4.00349 10.6203 3.7357 10.3526C3.46791 10.0848 3.26416 9.75991 3.13967 9.40225C3.01517 9.0446 2.97318 8.6634 3.01682 8.28722V6.80168C2.97306 6.42544 3.01496 6.04417 3.1394 5.68642C3.26384 5.32867 3.46758 5.00372 3.73539 4.73585C4.00319 4.46798 4.32813 4.26414 4.68585 4.13961C5.04358 4.01508 5.42483 3.97308 5.80109 4.01674H7.28667C7.66295 3.97311 8.04424 4.01511 8.40199 4.13963C8.75974 4.26416 9.08471 4.46798 9.35257 4.73583C9.62043 5.00368 9.82424 5.32864 9.94878 5.68638C10.0733 6.04412 10.1153 6.4254 10.0717 6.80168V8.28722C10.1157 8.66364 10.074 9.04515 9.9496 9.40314C9.82522 9.76114 9.62144 10.0863 9.35352 10.3544C9.0856 10.6224 8.76049 10.8264 8.40255 10.951C8.04461 11.0755 7.66312 11.1174 7.28667 11.0736V11.0714ZM8.95914 6.80168C8.95914 5.63026 8.45957 5.12926 7.28667 5.12926H5.80109C4.63036 5.12926 4.12863 5.6288 4.12863 6.80168V8.28722C4.12863 9.45792 4.62818 9.95966 5.80109 9.95966H7.28667C8.45812 9.95966 8.95914 9.4601 8.95914 8.28722V6.80168Z" fill="#757B8A"/>
</svg>