<svg xmlns="http://www.w3.org/2000/svg" width="22" height="22" viewBox="0 0 22 22" fill="none">
  <path fill-rule="evenodd" clip-rule="evenodd" d="M19.372 3.25587H19.1548V12.7576C19.1978 13.1696 19.1483 13.586 19.0099 13.9764C18.8715 14.3668 18.6476 14.7213 18.3547 15.0142C18.0618 15.307 17.7072 15.5308 17.3168 15.6691C16.9263 15.8074 16.5099 15.8568 16.098 15.8137H11.6279V17.3097L14.6298 18.8099C14.7789 18.8844 14.8922 19.015 14.9449 19.173C14.9977 19.3311 14.9855 19.5036 14.911 19.6526C14.8741 19.7264 14.8231 19.7922 14.7608 19.8463C14.6985 19.9003 14.6261 19.9416 14.5479 19.9677C14.3898 20.0204 14.2173 20.0082 14.0683 19.9338L11 18.4L7.93251 19.9338C7.78433 20.0015 7.61563 20.0091 7.46199 19.9549C7.30835 19.9007 7.18176 19.789 7.10886 19.6433C7.03595 19.4976 7.02244 19.3293 7.07118 19.1738C7.11993 19.0183 7.22709 18.8879 7.37013 18.8099L10.372 17.3089V15.817H5.89295C5.4812 15.8591 5.06525 15.8091 4.67518 15.6707C4.28511 15.5323 3.93071 15.309 3.63754 15.0169C3.34437 14.7247 3.11979 14.371 2.98005 13.9815C2.84032 13.5919 2.7889 13.1761 2.82955 12.7642V3.25587H2.62792C2.46138 3.25587 2.30163 3.18971 2.18387 3.07195C2.06611 2.95419 2 2.79446 2 2.62792C2 2.46139 2.06611 2.30168 2.18387 2.18392C2.30163 2.06616 2.46138 2 2.62792 2H19.372C19.5386 2 19.6983 2.06616 19.8161 2.18392C19.9338 2.30168 20 2.46139 20 2.62792C20 2.79446 19.9338 2.95419 19.8161 3.07195C19.6983 3.18971 19.5386 3.25587 19.372 3.25587ZM17.8965 3.25587H4.08544V12.7576C4.04391 13.0038 4.06183 13.2563 4.13778 13.4941C4.21372 13.7319 4.34542 13.948 4.52193 14.1246C4.69844 14.3011 4.91461 14.4328 5.1524 14.5087C5.39019 14.5847 5.6427 14.6026 5.88884 14.5611H16.0939C16.3403 14.6044 16.5935 14.5876 16.8321 14.5123C17.0707 14.437 17.2877 14.3053 17.4646 14.1284C17.6415 13.9515 17.7732 13.7345 17.8486 13.4959C17.9239 13.2573 17.9406 13.0041 17.8973 12.7576V3.25587H17.8965ZM12.5304 10.3353C12.415 10.4335 12.2796 10.5053 12.1335 10.5456C11.9873 10.5858 11.8342 10.5936 11.6848 10.5682C11.5354 10.5429 11.3933 10.4852 11.2686 10.399C11.1439 10.3129 11.0396 10.2005 10.9631 10.0697L10.0818 8.60067L7.63245 10.6451C7.50451 10.7518 7.33943 10.8032 7.17355 10.7881C7.00767 10.7731 6.85461 10.6927 6.74797 10.5648C6.64133 10.4368 6.58985 10.2718 6.60492 10.1059C6.61999 9.94003 6.70032 9.78691 6.82827 9.68027L9.46458 7.47843C9.57959 7.37933 9.71509 7.30681 9.86134 7.26606C10.0076 7.22532 10.1611 7.21736 10.3107 7.24272C10.4604 7.26809 10.6027 7.32616 10.7273 7.41281C10.852 7.49946 10.956 7.61255 11.032 7.74401L11.914 9.21383L14.3626 7.16444C14.4905 7.05769 14.6556 7.00616 14.8216 7.02115C14.9876 7.03614 15.1407 7.11643 15.2475 7.24437C15.3542 7.37232 15.4058 7.53743 15.3908 7.70338C15.3758 7.86934 15.2955 8.02255 15.1676 8.1293L12.5304 10.3353Z" fill="#757B8A"/>
</svg>