<svg xmlns="http://www.w3.org/2000/svg" width="22" height="22" viewBox="0 0 22 22" fill="none">
  <path fill-rule="evenodd" clip-rule="evenodd" d="M19.4232 8.35293C19.2112 8.55914 18.9448 8.69987 18.6556 8.75839L17.312 15.7778C16.9846 17.4761 16.4454 19 13.4128 19H8.3729C5.38612 19 4.70939 17.2153 4.45326 15.661L3.3281 8.75262C3.04328 8.69475 2.78057 8.55703 2.57036 8.35538C2.36024 8.10378 2.20261 7.81226 2.10688 7.49818C2.01114 7.18409 1.97925 6.85387 2.01311 6.52715C2.01311 4.22437 3.68979 4.22438 4.49581 4.22438H4.86323L7.89091 1.18553C8.008 1.0672 8.16705 1.00047 8.3331 1C8.49914 0.99954 8.65857 1.06539 8.77631 1.18307C8.89404 1.30074 8.96044 1.4606 8.9609 1.62748C8.96136 1.79437 8.89586 1.9546 8.77878 2.07293L6.63647 4.22438H15.3644L13.2221 2.07293C13.105 1.9546 13.0395 1.79437 13.04 1.62748C13.0404 1.4606 13.1068 1.30074 13.2246 1.18307C13.3423 1.06539 13.5017 0.99954 13.6678 1C13.8338 1.00047 13.9929 1.0672 14.11 1.18553L17.1377 4.22438H17.5051C18.3111 4.22438 19.9878 4.22437 19.9878 6.52715C20.0205 6.85399 19.9873 7.18409 19.8903 7.49778C19.7933 7.81146 19.6344 8.1023 19.4232 8.35293ZM5.69052 15.457C5.93601 16.9374 6.43436 17.7442 8.3729 17.7442H13.4128C15.56 17.7442 15.8046 16.9883 16.0804 15.5417L17.3668 8.82666H4.61036L5.69052 15.457ZM17.4985 5.47774H4.49826C3.50239 5.47774 3.27082 5.57397 3.27082 6.52469C3.22074 6.84939 3.28716 7.18141 3.45821 7.46143C3.72459 7.5775 4.01814 7.6157 4.30515 7.57164H17.6974C17.9844 7.61477 18.2777 7.5766 18.5443 7.46143C18.7154 7.18141 18.7818 6.84939 18.7317 6.52469C18.7276 5.57397 18.4911 5.47774 17.4985 5.47774ZM9.1249 11.0463C9.20707 11.0461 9.28847 11.0622 9.36446 11.0936C9.44044 11.1251 9.50954 11.1712 9.56776 11.2295C9.62597 11.2878 9.67216 11.357 9.70373 11.4333C9.7353 11.5095 9.75162 11.5913 9.75173 11.6739V14.6461C9.75173 14.8132 9.68568 14.9734 9.56813 15.0915C9.45058 15.2097 9.29114 15.2761 9.1249 15.2761C8.95866 15.2761 8.79924 15.2097 8.68169 15.0915C8.56414 14.9734 8.49809 14.8132 8.49809 14.6461V11.6739C8.4982 11.5913 8.51452 11.5095 8.54609 11.4333C8.57765 11.357 8.62385 11.2878 8.68206 11.2295C8.74028 11.1712 8.80938 11.1251 8.88536 11.0936C8.96135 11.0622 9.04273 11.0461 9.1249 11.0463ZM12.9709 11.0463C13.0531 11.0461 13.1345 11.0622 13.2105 11.0936C13.2864 11.1251 13.3555 11.1712 13.4137 11.2295C13.4719 11.2878 13.5182 11.357 13.5497 11.4333C13.5813 11.5095 13.5976 11.5913 13.5977 11.6739V14.6461C13.5977 14.8132 13.5317 14.9734 13.4141 15.0915C13.2966 15.2097 13.1371 15.2761 12.9709 15.2761C12.8047 15.2761 12.6452 15.2097 12.5277 15.0915C12.4101 14.9734 12.3441 14.8132 12.3441 14.6461V11.6739C12.3443 11.5074 12.4103 11.3478 12.5275 11.2301C12.6447 11.1124 12.8036 11.0463 12.9693 11.0463H12.9709Z" fill="#757B8A"/>
</svg>