<svg xmlns="http://www.w3.org/2000/svg" width="18" height="19" viewBox="0 0 18 19" fill="none">
  <g clip-path="url(#clip0_3322_511894)">
    <path fill-rule="evenodd" clip-rule="evenodd" d="M16.4447 16.8987C16.0946 17.4794 15.6005 17.9597 15.0102 18.2933C14.4199 18.6269 13.7534 18.8024 13.0754 18.8027C12.21 18.8006 11.3701 18.509 10.6897 17.9742H4.77137C1.73749 17.9742 -0.00244141 16.2367 -0.00244141 13.2077V6.16277C-0.00244141 3.35308 1.51005 1.67409 4.14917 1.4434V0.774889C4.15499 0.613653 4.22312 0.46096 4.33925 0.348952C4.45538 0.236945 4.61043 0.174351 4.77177 0.174351C4.93311 0.174351 5.08816 0.236945 5.20429 0.348952C5.32041 0.46096 5.38859 0.613653 5.39442 0.774889V1.39953H10.7912V0.777318C10.7912 0.612082 10.8569 0.45362 10.9737 0.336781C11.0906 0.219942 11.249 0.154297 11.4143 0.154297C11.5795 0.154297 11.7379 0.219942 11.8548 0.336781C11.9716 0.45362 12.0373 0.612082 12.0373 0.777318V1.44584C14.6764 1.67653 16.1889 3.35552 16.1889 6.16522V12.4824C16.7204 13.1647 17.0121 14.0032 17.019 14.868C17.0202 15.5852 16.8213 16.2884 16.4447 16.8987ZM12.0373 2.68375V3.26535C12.0373 3.43059 11.9716 3.58906 11.8548 3.7059C11.7379 3.82274 11.5795 3.88837 11.4143 3.88837C11.249 3.88837 11.0906 3.82274 10.9737 3.7059C10.8569 3.58906 10.7912 3.43059 10.7912 3.26535V2.64315H5.39442V3.26535C5.38859 3.42659 5.32041 3.57928 5.20429 3.69129C5.08816 3.8033 4.93311 3.86589 4.77177 3.86589C4.61043 3.86589 4.45538 3.8033 4.33925 3.69129C4.22312 3.57928 4.15499 3.42659 4.14917 3.26535V2.68375C2.24517 2.87545 1.29235 3.97529 1.25173 6.03281H14.9347C14.8941 3.97204 13.9405 2.8722 12.0373 2.6805V2.68375ZM14.9436 7.27642H1.24281V13.211C1.24281 15.5812 2.39706 16.7339 4.77137 16.7339H9.60611C9.57525 16.6778 9.55166 16.6169 9.52486 16.5584C9.49805 16.4999 9.45991 16.4292 9.43229 16.3618C9.39412 16.2709 9.36321 16.1766 9.33235 16.0816C9.31041 16.0158 9.28606 15.9508 9.26819 15.8834C9.23895 15.7762 9.21947 15.6665 9.19997 15.5585C9.18941 15.5008 9.17478 15.4448 9.16666 15.3863C9.144 15.2155 9.13236 15.0435 9.13175 14.8713C9.12817 14.2757 9.26058 13.6871 9.51891 13.1504C9.77724 12.6137 10.1546 12.143 10.6224 11.7743C11.0902 11.4055 11.6359 11.1484 12.2181 11.0225C12.8003 10.8966 13.4035 10.9053 13.9819 11.0479C14.0777 11.0706 14.1671 11.1104 14.2613 11.1405C14.4562 11.1993 14.6464 11.2732 14.8299 11.3614C14.8673 11.3793 14.9111 11.3866 14.9461 11.4061V7.27886L14.9436 7.27642ZM15.0988 13.0924C14.737 12.6811 14.2586 12.3896 13.7271 12.2569C13.1957 12.1242 12.6364 12.1565 12.1237 12.3494C11.6111 12.5424 11.1694 12.8869 10.8573 13.3371C10.5453 13.7873 10.3777 14.3219 10.377 14.8697C10.3757 15.3573 10.5108 15.8356 10.7668 16.2505C10.904 16.4892 11.0816 16.7022 11.2916 16.8801C11.7816 17.3223 12.4186 17.5661 13.0786 17.564C13.5426 17.5637 13.9986 17.4434 14.4024 17.2148C14.8062 16.9862 15.144 16.6571 15.3831 16.2595C15.6411 15.8419 15.7776 15.3606 15.777 14.8697C15.7746 14.2135 15.5335 13.5806 15.0988 13.0891V13.0924ZM13.025 16.1466C12.9091 16.2515 12.7582 16.3095 12.6018 16.309C12.52 16.3093 12.4391 16.2933 12.3635 16.2621C12.2879 16.2309 12.2193 16.185 12.1616 16.1271L11.3395 15.3059C11.2274 15.1882 11.1657 15.0313 11.1677 14.8688C11.1697 14.7063 11.2353 14.551 11.3503 14.4362C11.4654 14.3213 11.6208 14.2561 11.7833 14.2544C11.9459 14.2527 12.1026 14.3146 12.22 14.427L12.6189 14.8242L13.947 13.5976C14.0069 13.542 14.0772 13.4988 14.1539 13.4704C14.2305 13.442 14.312 13.429 14.3937 13.4321C14.4754 13.4352 14.5557 13.4543 14.6299 13.4884C14.7042 13.5226 14.7711 13.571 14.8267 13.6309C14.8822 13.6909 14.9254 13.7612 14.9538 13.8378C14.9822 13.9145 14.9953 13.996 14.9922 14.0777C14.9891 14.1594 14.97 14.2396 14.9358 14.3139C14.9017 14.3882 14.8533 14.4551 14.7934 14.5106L13.025 16.1466ZM8.09607 11.3054C7.98506 11.3093 7.87439 11.2909 7.77064 11.2512C7.66688 11.2116 7.57215 11.1515 7.49206 11.0745C7.41197 10.9976 7.34816 10.9053 7.30441 10.8032C7.26066 10.7011 7.23787 10.5913 7.23738 10.4802C7.23689 10.3691 7.25873 10.2591 7.30158 10.1566C7.34443 10.0541 7.4074 9.9613 7.48681 9.88364C7.56621 9.80597 7.66045 9.74504 7.76385 9.70447C7.86725 9.66391 7.9777 9.64453 8.08873 9.64748H8.09607C8.20959 9.63953 8.32354 9.65501 8.43082 9.69298C8.53809 9.73096 8.63638 9.79059 8.71961 9.86819C8.80284 9.9458 8.86922 10.0397 8.9146 10.1441C8.95998 10.2484 8.98342 10.361 8.98342 10.4748C8.98342 10.5886 8.95998 10.7012 8.9146 10.8055C8.86922 10.9099 8.80284 11.0038 8.71961 11.0814C8.63638 11.159 8.53809 11.2186 8.43082 11.2566C8.32354 11.2946 8.20959 11.3101 8.09607 11.3021V11.3054ZM5.02318 13.7918C4.91217 13.7957 4.8015 13.7773 4.69775 13.7376C4.59399 13.698 4.49926 13.6379 4.41917 13.5609C4.33908 13.484 4.27532 13.3917 4.23157 13.2896C4.18782 13.1875 4.16498 13.0777 4.16449 12.9666C4.164 12.8555 4.18584 12.7455 4.22869 12.643C4.27154 12.5405 4.33456 12.4477 4.41396 12.37C4.49337 12.2924 4.58755 12.2315 4.69096 12.1909C4.79436 12.1503 4.90485 12.1309 5.01589 12.1339H5.02318C5.1367 12.1259 5.25065 12.1414 5.35793 12.1794C5.4652 12.2174 5.56354 12.277 5.64677 12.3546C5.73 12.4322 5.79633 12.5261 5.84171 12.6305C5.88709 12.7348 5.91052 12.8474 5.91052 12.9612C5.91052 13.075 5.88709 13.1876 5.84171 13.2919C5.79633 13.3963 5.73 13.4902 5.64677 13.5678C5.56354 13.6454 5.4652 13.705 5.35793 13.743C5.25065 13.781 5.1367 13.7965 5.02318 13.7885V13.7918ZM5.02318 11.3054C4.91217 11.3093 4.8015 11.2909 4.69775 11.2512C4.59399 11.2116 4.49926 11.1515 4.41917 11.0745C4.33908 10.9976 4.27532 10.9053 4.23157 10.8032C4.18782 10.7011 4.16498 10.5913 4.16449 10.4802C4.164 10.3691 4.18584 10.2591 4.22869 10.1566C4.27154 10.0541 4.33456 9.9613 4.41396 9.88364C4.49337 9.80597 4.58755 9.74504 4.69096 9.70447C4.79436 9.66391 4.90485 9.64453 5.01589 9.64748H5.02318C5.1367 9.63953 5.25065 9.65501 5.35793 9.69298C5.4652 9.73096 5.56354 9.79059 5.64677 9.86819C5.73 9.9458 5.79633 10.0397 5.84171 10.1441C5.88709 10.2484 5.91052 10.361 5.91052 10.4748C5.91052 10.5886 5.88709 10.7012 5.84171 10.8055C5.79633 10.9099 5.73 11.0038 5.64677 11.0814C5.56354 11.159 5.4652 11.2186 5.35793 11.2566C5.25065 11.2946 5.1367 11.3101 5.02318 11.3021V11.3054Z" fill="#757B8A"/>
  </g>
  <defs>
    <clipPath id="clip0_3322_511894">
      <rect width="17.032" height="18.6574" fill="white" transform="translate(0 0.15625)"/>
    </clipPath>
  </defs>
</svg>