<svg xmlns="http://www.w3.org/2000/svg" width="25" height="25" viewBox="0 0 25 25" fill="none">
  <path d="M12.8672 11.4785C13.6956 11.4785 14.3672 10.8069 14.3672 9.97852C14.3672 9.15009 13.6956 8.47852 12.8672 8.47852C12.0388 8.47852 11.3672 9.15009 11.3672 9.97852C11.3672 10.8069 12.0388 11.4785 12.8672 11.4785Z" stroke="#888E9E" stroke-width="1.5" stroke-miterlimit="10" stroke-linecap="round" stroke-linejoin="round"/>
  <path d="M8.36719 12.1535C6.94219 13.2785 5.81719 14.8535 5.36719 16.7285H7.09219C8.21719 16.7285 9.04219 15.6785 8.74219 14.6285C8.44219 13.5785 8.29219 12.5285 8.29219 11.4035C8.36719 7.27852 10.2422 3.75352 12.8672 2.47852C15.4922 3.75352 17.3672 7.27852 17.3672 11.3285C17.3672 12.4535 17.2172 13.5785 16.9172 14.5535C16.6172 15.6035 17.4422 16.6535 18.5672 16.6535H20.3672C19.9172 14.7785 18.7922 13.1285 17.3672 12.0785" stroke="#888E9E" stroke-width="1.5" stroke-miterlimit="10" stroke-linecap="round" stroke-linejoin="round"/>
  <path d="M12.8672 16.7285V22.7285" stroke="#888E9E" stroke-width="1.5" stroke-miterlimit="10" stroke-linecap="round" stroke-linejoin="round"/>
  <path d="M10.6172 18.2285V21.2285" stroke="#888E9E" stroke-width="1.5" stroke-miterlimit="10" stroke-linecap="round" stroke-linejoin="round"/>
  <path d="M15.1172 18.2285V21.2285" stroke="#888E9E" stroke-width="1.5" stroke-miterlimit="10" stroke-linecap="round" stroke-linejoin="round"/>
</svg>