<svg xmlns="http://www.w3.org/2000/svg" width="22" height="21" viewBox="0 0 22 21" fill="none">
  <path fill-rule="evenodd" clip-rule="evenodd" d="M18.5599 10.9C18.2164 11.2544 17.798 11.5254 17.3361 11.6925C16.8742 11.8595 16.3809 11.9184 15.8933 11.8647H13.1911C11.1664 11.8647 10.1391 10.7164 10.1391 8.45241V6.10766C10.0864 5.61757 10.1464 5.12179 10.3142 4.65901C10.482 4.19622 10.7533 3.77896 11.1067 3.43974C11.826 2.90028 12.8742 2.85864 14.4071 3.30669C15.4136 3.61327 16.3306 4.16445 17.0782 4.91215C17.8258 5.65986 18.3813 6.58137 18.6962 7.59628C19.1413 9.13061 19.0985 10.1802 18.5599 10.9ZM17.5213 7.94069C17.2619 7.12463 16.8119 6.38392 16.2094 5.78138C15.6069 5.17885 14.8697 4.73226 14.0604 4.47948C13.5881 4.32635 13.0973 4.2393 12.6017 4.22075C12.3319 4.20258 12.0635 4.27147 11.8348 4.41746C11.639 4.64726 11.495 4.91754 11.413 5.20946C11.3309 5.50139 11.3128 5.80792 11.3599 6.10766V8.45241C11.3599 10.2765 12.0606 10.6437 13.1911 10.6437H15.8925C16.1919 10.692 16.4981 10.6745 16.7903 10.5924C17.0825 10.5103 17.3538 10.3655 17.5858 10.1679C17.864 9.79168 17.8438 9.04246 17.5213 7.94069ZM8.64168 5.34702C7.45804 5.60799 6.36606 6.18791 5.48131 7.02541C4.59656 7.86291 3.95194 8.92686 3.61557 10.1047C3.27919 11.2826 3.26358 12.5306 3.57044 13.7167C3.87729 14.9028 4.49516 15.9829 5.35871 16.8427C6.22226 17.7026 7.29937 18.3103 8.47612 18.6014C9.65286 18.8926 10.8855 18.8565 12.0436 18.4968C13.2017 18.1372 14.2423 17.4675 15.0552 16.5585C15.8681 15.6494 16.4232 14.5349 16.6617 13.3329C16.6951 13.1732 16.7894 13.0334 16.924 12.9437C17.0587 12.854 17.2229 12.8217 17.381 12.8538C17.4591 12.869 17.5335 12.8998 17.5999 12.9442C17.6663 12.9886 17.7233 13.0459 17.7678 13.1127C17.8122 13.1795 17.8431 13.2546 17.8588 13.3335C17.8745 13.4125 17.8746 13.4938 17.8592 13.5728C17.4854 15.3975 16.4989 17.0348 15.0672 18.2065C13.6355 19.3782 11.8471 20.0119 10.006 19.9998C9.56308 20 9.1209 19.9642 8.68361 19.8929C6.84643 19.6038 5.16891 18.6679 3.94655 17.25C2.72418 15.8321 2.03534 14.0231 2.00132 12.1416C1.96731 10.2602 2.59031 8.42689 3.76061 6.96466C4.93091 5.50243 6.57344 4.50504 8.39895 4.14813C8.55677 4.11591 8.72078 4.14786 8.85553 4.23704C8.99027 4.32623 9.08492 4.46551 9.11903 4.62476C9.13486 4.70393 9.13503 4.78548 9.11957 4.86473C9.10411 4.94398 9.07334 5.01936 9.02896 5.0865C8.98459 5.15364 8.92751 5.21122 8.86104 5.25594C8.79457 5.30065 8.72003 5.33161 8.64168 5.34702Z" fill="#757B8A"/>
</svg>