<svg width="16" height="17" viewBox="0 0 16 17" fill="none" xmlns="http://www.w3.org/2000/svg">
<path d="M15.2722 4.16869C14.5921 3.41657 13.4559 3.0405 11.8076 3.0405H11.6156V3.0085C11.6156 1.66428 11.6156 0 8.60711 0H7.39091C4.38241 0 4.38241 1.67228 4.38241 3.0085V3.0485H4.19038C2.53411 3.0485 1.40592 3.42457 0.725806 4.17669C-0.0663247 5.05684 -0.0423209 6.24103 0.0376924 7.04917L0.0456937 7.10518L0.109056 7.77048C0.119591 7.8811 0.179243 7.98106 0.272195 8.04195C0.462403 8.16655 0.793231 8.38017 0.98985 8.48941C1.10187 8.56142 1.22189 8.62543 1.34191 8.68944C2.71013 9.44156 4.21438 9.94565 5.74264 10.1937C5.81465 10.9458 6.1427 11.826 7.89499 11.826C9.64728 11.826 9.99134 10.9538 10.0473 10.1777C11.6796 9.91364 13.2559 9.34555 14.6801 8.51341C14.7281 8.4894 14.7601 8.4654 14.8001 8.4414C15.1214 8.25981 15.4549 8.03555 15.7579 7.81651C15.8414 7.75622 15.8948 7.66311 15.9061 7.56081L15.9203 7.43323L15.9603 7.05717C15.9683 7.00916 15.9683 6.96915 15.9763 6.91314C16.0403 6.10501 16.0243 5.00083 15.2722 4.16869ZM8.87115 9.6496C8.87115 10.4977 8.87115 10.6258 7.88699 10.6258C6.90283 10.6258 6.90283 10.4737 6.90283 9.6576V8.64943H8.87115V9.6496ZM5.5266 3.0405V3.0085C5.5266 1.64827 5.5266 1.14419 7.39091 1.14419H8.60711C10.4714 1.14419 10.4714 1.65627 10.4714 3.0085V3.0485H5.5266V3.0405Z" fill="#757B8A"/>
<path d="M15.1501 9.54847C15.4112 9.42393 15.7108 9.63138 15.6847 9.91941L15.3925 13.138C15.2245 14.7382 14.5684 16.3705 11.0478 16.3705H4.95079C1.43021 16.3705 0.774103 14.7382 0.606075 13.146L0.328581 10.0935C0.302699 9.80883 0.595888 9.6018 0.856224 9.71989C1.75983 10.1298 3.49893 10.8894 4.55617 11.1632C4.67762 11.1946 4.77587 11.2815 4.82832 11.3955C5.31079 12.4439 6.36694 13.0019 7.89528 13.0019C9.40852 13.0019 10.4782 12.4224 10.9621 11.3716C11.0147 11.2576 11.1131 11.1707 11.2346 11.1391C12.3569 10.8473 14.2062 9.99885 15.1501 9.54847Z" fill="#757B8A"/>
</svg>
