<svg width="23" height="24" viewBox="0 0 23 24" fill="none" xmlns="http://www.w3.org/2000/svg">
<path fill-rule="evenodd" clip-rule="evenodd" d="M14.6888 7.72852H8.31088C5.07668 7.72852 3.45958 7.72852 2.55123 8.67423C1.64287 9.61994 1.85659 11.081 2.28403 14.0033L2.68938 16.7743C3.02459 19.0659 3.19219 20.2117 4.052 20.8979C4.9118 21.5841 6.17994 21.5841 8.7162 21.5841H14.2834C16.8197 21.5841 18.0879 21.5841 18.9477 20.8979C19.8075 20.2117 19.975 19.0659 20.3103 16.7743L20.7156 14.0033C21.1431 11.0811 21.3568 9.61993 20.4485 8.67423C19.5401 7.72852 17.923 7.72852 14.6888 7.72852ZM13.9735 15.6368C14.5086 15.3052 14.5086 14.4463 13.9735 14.1146L10.7424 12.1115C10.2223 11.7891 9.58317 12.2088 9.58317 12.8727V16.8787C9.58317 17.5427 10.2223 17.9623 10.7424 17.6399L13.9735 15.6368Z" fill="#888E9E"/>
</svg>
