<svg width="16" height="16" viewBox="0 0 16 16" fill="none" xmlns="http://www.w3.org/2000/svg">
<g clip-path="url(#clip0_3322_511889)">
<path fill-rule="evenodd" clip-rule="evenodd" d="M8 10.4134C7.72088 10.4125 7.44776 10.4944 7.21523 10.6488C6.98271 10.8032 6.80125 11.0232 6.69381 11.2808C6.58636 11.5384 6.55779 11.8221 6.61169 12.096C6.66559 12.3699 6.79955 12.6216 6.9966 12.8193C7.19365 13.017 7.44492 13.1517 7.71861 13.2065C7.9923 13.2613 8.27611 13.2336 8.53407 13.127C8.79203 13.0204 9.01255 12.8397 9.16772 12.6076C9.32288 12.3756 9.40572 12.1028 9.40572 11.8237C9.40578 11.4504 9.25784 11.0923 8.99434 10.828C8.73083 10.5636 8.37326 10.4145 8 10.4134ZM8 12.2945C7.90678 12.295 7.81551 12.2678 7.73778 12.2163C7.66005 12.1648 7.59935 12.0914 7.56336 12.0054C7.52738 11.9194 7.51772 11.8247 7.53563 11.7332C7.55354 11.6417 7.59819 11.5576 7.66395 11.4915C7.72971 11.4255 7.81362 11.3804 7.90502 11.362C7.99642 11.3437 8.0912 11.3529 8.17737 11.3884C8.26354 11.424 8.33722 11.4843 8.38906 11.5618C8.4409 11.6393 8.46858 11.7304 8.46858 11.8237C8.46873 11.8853 8.45673 11.9465 8.43326 12.0035C8.40979 12.0606 8.37532 12.1124 8.33181 12.1561C8.2883 12.1999 8.23659 12.2346 8.17966 12.2583C8.12273 12.2821 8.06168 12.2944 8 12.2945ZM16 0.943666H7.99771C7.78054 0.651792 7.49821 0.414664 7.17321 0.251172C6.84821 0.0876796 6.48953 0.00234147 6.12573 0.00195312H0V12.2945H3.80801C3.82913 12.4926 3.86426 12.6889 3.91314 12.8819L4.00458 13.234H5.03544C5.11075 13.395 5.19942 13.5495 5.30056 13.6957L4.78401 14.5894L5.04456 14.8454C5.55419 15.3467 6.18251 15.7108 6.87087 15.9037L7.22056 16.002L7.73485 15.106C7.91135 15.1197 8.08865 15.1197 8.26515 15.106L8.77944 16.002L9.12913 15.9037C9.81749 15.7108 10.4458 15.3467 10.9554 14.8454L11.216 14.5894L10.6994 13.6957C10.8006 13.5495 10.8892 13.395 10.9646 13.234H11.9954L12.0869 12.8819C12.1355 12.6888 12.1707 12.4926 12.192 12.2945H16V0.943666ZM15.0629 1.88309V2.8248H8.46858V2.35396C8.46881 2.19578 8.4527 2.03798 8.42056 1.88309H15.0629ZM11.248 12.2945H10.32L10.2103 12.6077C10.114 12.8803 9.96829 13.1329 9.78058 13.3528L9.56571 13.6042L10.0297 14.4111C9.90641 14.5083 9.7766 14.5969 9.64116 14.6763C9.50482 14.7539 9.36355 14.8226 9.21828 14.8819L8.7543 14.0751L8.42972 14.1368C8.14565 14.1894 7.85435 14.1894 7.57028 14.1368L7.2457 14.0751L6.78172 14.8819C6.63645 14.8226 6.49518 14.7539 6.35884 14.6763C6.2234 14.5969 6.09359 14.5083 5.97028 14.4111L6.43429 13.6042L6.21942 13.3528C6.03171 13.1329 5.88605 12.8803 5.7897 12.6077L5.67999 12.2945H4.75201C4.70629 11.9823 4.70629 11.6651 4.75201 11.3528H5.67999L5.7897 11.0397C5.88608 10.7678 6.03175 10.5159 6.21942 10.2968L6.43429 10.0431L5.97028 9.23624C6.09362 9.1398 6.22344 9.05197 6.35884 8.97338C6.49465 8.89404 6.63599 8.82453 6.78172 8.76537L7.2457 9.57224L7.57028 9.51052C7.85455 9.46023 8.14545 9.46023 8.42972 9.51052L8.7543 9.57224L9.21828 8.76537C9.36401 8.82453 9.50535 8.89404 9.64116 8.97338C9.77656 9.05197 9.90638 9.1398 10.0297 9.23624L9.56571 10.0431L9.78058 10.2968C9.96825 10.5159 10.1139 10.7678 10.2103 11.0397L10.32 11.3528H11.248C11.2937 11.6651 11.2937 11.9823 11.248 12.2945ZM12.192 11.3528C12.1705 11.1548 12.1354 10.9585 12.0869 10.7654L11.9954 10.4134H10.9646C10.8892 10.2531 10.8006 10.0994 10.6994 9.95396L11.216 9.05795L10.9554 8.80195C10.4458 8.30064 9.81749 7.93655 9.12913 7.74367L8.77944 7.64768L8.26515 8.54138C8.08865 8.52766 7.91135 8.52766 7.73485 8.54138L7.22056 7.64768L6.87087 7.74367C6.18251 7.93655 5.55419 8.30064 5.04456 8.80195L4.78401 9.05795L5.30056 9.95396C5.19944 10.0994 5.11077 10.2531 5.03544 10.4134H4.00458L3.91314 10.7654C3.86465 10.9585 3.82953 11.1548 3.80801 11.3528H0.937137V0.943666H6.12573C6.49898 0.944816 6.85656 1.09392 7.12006 1.35829C7.38357 1.62265 7.53148 1.9807 7.53142 2.35396V3.76423H15.0629V11.3528H12.192Z" fill="#757B8A"/>
</g>
<defs>
<clipPath id="clip0_3322_511889">
<rect width="16" height="16" fill="white"/>
</clipPath>
</defs>
</svg>
