<svg width="293" height="293" viewBox="0 0 293 293" fill="none" xmlns="http://www.w3.org/2000/svg">
<g filter="url(#filter0_d_3543_225945)">
<rect x="5.68202" y="1.68739" width="280.792" height="280.792" rx="52.1615" fill="white"/>
<rect x="5.68202" y="1.68739" width="280.792" height="280.792" rx="52.1615" stroke="#8777D6" stroke-width="3.38303"/>
<rect x="5.68202" y="1.68739" width="280.792" height="280.792" rx="52.1615" stroke="url(#paint0_radial_3543_225945)" stroke-width="3.38303"/>
<path d="M94.3766 86.5365C98.9181 86.5365 102.535 87.9382 105.226 90.7416C107.973 93.489 109.347 97.61 109.347 103.105V132.288H94.3766V106.553C94.3766 103.693 93.844 101.619 92.7787 100.329C91.7134 99.0397 90.1435 98.3949 88.0689 98.3949C85.9944 98.3949 84.2563 99.2359 82.8546 100.918C81.509 102.544 80.8362 104.983 80.8362 108.235V132.288H65.9501V106.553C65.9501 103.693 65.4174 101.619 64.3521 100.329C63.2868 99.0397 61.7169 98.3949 59.6424 98.3949C57.5679 98.3949 55.8298 99.2359 54.4281 100.918C53.0824 102.544 52.4096 104.983 52.4096 108.235V132.288H37.4395V87.6299H51.8209V93.6852H52.1573C55.4653 88.9194 60.0629 86.5365 65.9501 86.5365C68.9778 86.5365 71.613 87.1813 73.8557 88.4709C76.0984 89.7044 77.8365 91.5827 79.07 94.1057C81.0324 91.8069 83.191 89.9847 85.5459 88.6391C87.9007 87.2374 90.8443 86.5365 94.3766 86.5365ZM158.19 118.832C157.63 121.131 156.452 123.401 154.658 125.644C152.864 127.831 150.341 129.681 147.089 131.195C143.837 132.653 139.856 133.381 135.146 133.381C127.689 133.381 121.858 131.307 117.653 127.158C113.448 123.009 111.346 117.318 111.346 110.085C111.346 102.74 113.42 96.9932 117.569 92.8442C121.774 88.6391 127.605 86.5365 135.062 86.5365C142.407 86.5365 148.182 88.583 152.387 92.676C156.649 96.7689 158.779 102.656 158.779 110.337L158.695 112.945H126.736C126.736 116.253 127.493 118.888 129.007 120.85C130.577 122.757 132.623 123.71 135.146 123.71C137.445 123.71 139.211 123.149 140.445 122.028C141.678 120.906 142.491 119.533 142.884 117.907L158.19 118.832ZM135.062 95.956C132.595 95.956 130.633 96.7409 129.175 98.3108C127.717 99.8247 126.932 101.843 126.82 104.366H143.388C143.276 101.843 142.463 99.8247 140.95 98.3108C139.492 96.7409 137.529 95.956 135.062 95.956ZM94.3766 140.537C98.9181 140.537 102.535 141.938 105.226 144.742C107.973 147.489 109.347 151.61 109.347 157.105V186.288H94.3766V160.553C94.3766 157.693 93.844 155.619 92.7787 154.329C91.7134 153.04 90.1435 152.395 88.0689 152.395C85.9944 152.395 84.2563 153.236 82.8546 154.918C81.509 156.544 80.8362 158.983 80.8362 162.235V186.288H65.9501V160.553C65.9501 157.693 65.4174 155.619 64.3521 154.329C63.2868 153.04 61.7169 152.395 59.6424 152.395C57.5679 152.395 55.8298 153.236 54.4281 154.918C53.0824 156.544 52.4096 158.983 52.4096 162.235V186.288H37.4395V141.63H51.8209V147.685H52.1573C55.4653 142.919 60.0629 140.537 65.9501 140.537C68.9778 140.537 71.613 141.181 73.8557 142.471C76.0984 143.704 77.8365 145.583 79.07 148.106C81.0324 145.807 83.191 143.985 85.5459 142.639C87.9007 141.237 90.8443 140.537 94.3766 140.537ZM141.875 186.288C141.034 185.279 140.613 183.12 140.613 179.812C139.548 182.167 137.698 184.017 135.062 185.363C132.483 186.709 129.512 187.381 126.148 187.381C123.568 187.381 121.129 186.849 118.831 185.783C116.532 184.718 114.682 183.204 113.28 181.242C111.878 179.28 111.177 176.953 111.177 174.261C111.177 169.72 112.663 166.328 115.635 164.085C118.606 161.842 123.12 160.329 129.175 159.544C132.259 159.095 134.614 158.675 136.24 158.282C137.866 157.834 138.987 157.357 139.604 156.852C140.277 156.292 140.613 155.563 140.613 154.666C140.613 153.264 140.052 152.199 138.931 151.47C137.866 150.685 136.352 150.292 134.39 150.292C132.595 150.292 131.025 150.797 129.68 151.806C128.334 152.815 127.381 154.245 126.82 156.095L112.943 154.666C113.897 150.236 116.308 146.788 120.176 144.321C124.045 141.798 128.867 140.537 134.642 140.537C141.538 140.537 146.753 141.882 150.285 144.573C153.817 147.209 155.583 150.965 155.583 155.843V177.962C155.583 180.373 155.639 182.195 155.751 183.429C155.92 184.606 156.256 185.559 156.761 186.288H141.875ZM140.613 165.263C139.996 165.655 138.987 166.019 137.585 166.356C136.184 166.636 134.642 166.917 132.96 167.197C128.586 168.038 126.4 170 126.4 173.084C126.4 174.598 126.876 175.803 127.83 176.7C128.839 177.541 130.156 177.962 131.782 177.962C133.128 177.962 134.474 177.654 135.819 177.037C137.165 176.42 138.286 175.467 139.183 174.177C140.137 172.832 140.613 171.15 140.613 169.131V165.263ZM187.201 175.271V186.288C186.304 186.4 183.276 186.456 178.118 186.456C174.474 186.456 171.614 186.148 169.54 185.531C167.521 184.858 166.007 183.681 164.998 181.999C164.045 180.317 163.568 177.85 163.568 174.598V150.965H156.756V141.63H163.568V129.351H178.454V141.63H187.369V150.965H178.454V171.066C178.454 172.86 178.819 174.009 179.548 174.514C180.333 175.018 181.791 175.271 183.921 175.271H187.201ZM234.185 172.832C233.625 175.131 232.447 177.401 230.653 179.644C228.859 181.831 226.336 183.681 223.084 185.195C219.832 186.653 215.851 187.381 211.141 187.381C203.684 187.381 197.853 185.307 193.648 181.158C189.443 177.009 187.34 171.318 187.34 164.085C187.34 156.74 189.415 150.993 193.564 146.844C197.769 142.639 203.6 140.537 211.057 140.537C218.402 140.537 224.177 142.583 228.382 146.676C232.643 150.769 234.774 156.656 234.774 164.337L234.69 166.945H202.731C202.731 170.253 203.488 172.888 205.002 174.85C206.572 176.757 208.618 177.71 211.141 177.71C213.44 177.71 215.206 177.149 216.44 176.028C217.673 174.906 218.486 173.533 218.879 171.907L234.185 172.832ZM211.057 149.956C208.59 149.956 206.628 150.741 205.17 152.311C203.712 153.825 202.927 155.843 202.815 158.366H219.383C219.271 155.843 218.458 153.825 216.944 152.311C215.487 150.741 213.524 149.956 211.057 149.956Z" fill="url(#paint1_radial_3543_225945)"/>
<path d="M254.75 150.044L251.628 142.228H253.359L255.303 147.389L257.235 142.228H258.966L255.855 150.044H254.75ZM251.023 150.044V142.228H252.988V150.044H251.023ZM257.607 150.044V142.228H259.582V150.044H257.607ZM245.31 150.044V142.908H247.285V150.044H245.31ZM242.931 143.853V142.228H249.664V143.853H242.931Z" fill="black"/>
<path d="M41.9126 209.05H39.065V200.254H42.0028C42.8647 200.254 43.6048 200.43 44.2233 200.782C44.8418 201.131 45.3157 201.634 45.645 202.289C45.9771 202.942 46.1432 203.725 46.1432 204.639C46.1432 205.555 45.9757 206.343 45.6407 207.001C45.3085 207.66 44.8275 208.166 44.1976 208.522C43.5676 208.874 42.806 209.05 41.9126 209.05ZM40.3922 207.89H41.8396C42.5096 207.89 43.0665 207.764 43.5104 207.512C43.9542 207.257 44.2863 206.889 44.5068 206.408C44.7273 205.924 44.8375 205.335 44.8375 204.639C44.8375 203.949 44.7273 203.363 44.5068 202.882C44.2892 202.401 43.9642 202.036 43.5318 201.787C43.0995 201.538 42.5626 201.413 41.9212 201.413H40.3922V207.89ZM55.4344 204.652C55.4344 205.591 55.2626 206.398 54.919 207.074C54.5754 207.747 54.1044 208.265 53.5059 208.629C52.9104 208.99 52.2332 209.17 51.4744 209.17C50.7127 209.17 50.0327 208.99 49.4343 208.629C48.8387 208.265 48.3691 207.746 48.0255 207.07C47.6819 206.394 47.5101 205.588 47.5101 204.652C47.5101 203.713 47.6819 202.907 48.0255 202.234C48.3691 201.558 48.8387 201.04 49.4343 200.679C50.0327 200.315 50.7127 200.133 51.4744 200.133C52.2332 200.133 52.9104 200.315 53.5059 200.679C54.1044 201.04 54.5754 201.558 54.919 202.234C55.2626 202.907 55.4344 203.713 55.4344 204.652ZM54.1201 204.652C54.1201 203.936 54.0041 203.333 53.7722 202.844C53.5432 202.351 53.2282 201.979 52.8273 201.727C52.4293 201.472 51.9783 201.345 51.4744 201.345C50.9676 201.345 50.5152 201.472 50.1172 201.727C49.7192 201.979 49.4042 202.351 49.1723 202.844C48.9432 203.333 48.8287 203.936 48.8287 204.652C48.8287 205.368 48.9432 205.972 49.1723 206.464C49.4042 206.954 49.7192 207.326 50.1172 207.581C50.5152 207.833 50.9676 207.959 51.4744 207.959C51.9783 207.959 52.4293 207.833 52.8273 207.581C53.2282 207.326 53.5432 206.954 53.7722 206.464C54.0041 205.972 54.1201 205.368 54.1201 204.652ZM58.705 209.05L56.2655 200.254H57.6614L59.3751 207.066H59.4567L61.2391 200.254H62.6221L64.4045 207.07H64.4861L66.1956 200.254H67.5957L65.1519 209.05H63.8161L61.965 202.461H61.8962L60.0451 209.05H58.705ZM75.9055 200.254V209.05H74.6857L70.2146 202.599H70.133V209.05H68.8058V200.254H70.0342L74.5096 206.713H74.5912V200.254H75.9055ZM80.6085 201.396V200.254H87.4161V201.396H84.6716V209.05H83.3488V201.396H80.6085ZM96.1833 204.652C96.1833 205.591 96.0115 206.398 95.6679 207.074C95.3243 207.747 94.8533 208.265 94.2549 208.629C93.6593 208.99 92.9821 209.17 92.2233 209.17C91.4617 209.17 90.7817 208.99 90.1832 208.629C89.5876 208.265 89.118 207.746 88.7744 207.07C88.4308 206.394 88.259 205.588 88.259 204.652C88.259 203.713 88.4308 202.907 88.7744 202.234C89.118 201.558 89.5876 201.04 90.1832 200.679C90.7817 200.315 91.4617 200.133 92.2233 200.133C92.9821 200.133 93.6593 200.315 94.2549 200.679C94.8533 201.04 95.3243 201.558 95.6679 202.234C96.0115 202.907 96.1833 203.713 96.1833 204.652ZM94.8691 204.652C94.8691 203.936 94.7531 203.333 94.5212 202.844C94.2921 202.351 93.9771 201.979 93.5763 201.727C93.1783 201.472 92.7273 201.345 92.2233 201.345C91.7165 201.345 91.2641 201.472 90.8661 201.727C90.4681 201.979 90.1531 202.351 89.9212 202.844C89.6921 203.333 89.5776 203.936 89.5776 204.652C89.5776 205.368 89.6921 205.972 89.9212 206.464C90.1531 206.954 90.4681 207.326 90.8661 207.581C91.2641 207.833 91.7165 207.959 92.2233 207.959C92.7273 207.959 93.1783 207.833 93.5763 207.581C93.9771 207.326 94.2921 206.954 94.5212 206.464C94.7531 205.972 94.8691 205.368 94.8691 204.652ZM101.039 209.05V200.254H104.26C104.884 200.254 105.401 200.357 105.811 200.563C106.22 200.766 106.526 201.042 106.73 201.392C106.933 201.738 107.035 202.129 107.035 202.564C107.035 202.931 106.967 203.24 106.833 203.492C106.698 203.741 106.518 203.942 106.292 204.093C106.068 204.242 105.822 204.351 105.553 204.42V204.506C105.845 204.52 106.13 204.614 106.408 204.789C106.688 204.961 106.92 205.206 107.103 205.524C107.287 205.841 107.378 206.228 107.378 206.683C107.378 207.133 107.272 207.537 107.06 207.894C106.851 208.25 106.528 208.532 106.09 208.741C105.652 208.947 105.092 209.05 104.41 209.05H101.039ZM102.366 207.912H104.282C104.917 207.912 105.373 207.789 105.647 207.542C105.922 207.296 106.06 206.988 106.06 206.619C106.06 206.341 105.99 206.086 105.849 205.854C105.709 205.622 105.509 205.438 105.248 205.3C104.99 205.163 104.684 205.094 104.329 205.094H102.366V207.912ZM102.366 204.059H104.144C104.442 204.059 104.71 204.002 104.947 203.887C105.188 203.773 105.378 203.612 105.519 203.406C105.662 203.197 105.733 202.951 105.733 202.667C105.733 202.304 105.606 201.999 105.351 201.753C105.096 201.506 104.705 201.383 104.179 201.383H102.366V204.059ZM114.609 200.254H115.94V206.039C115.94 206.655 115.796 207.2 115.507 207.675C115.217 208.148 114.811 208.52 114.287 208.792C113.763 209.061 113.149 209.196 112.444 209.196C111.743 209.196 111.13 209.061 110.606 208.792C110.082 208.52 109.675 208.148 109.386 207.675C109.097 207.2 108.952 206.655 108.952 206.039V200.254H110.28V205.932C110.28 206.33 110.367 206.683 110.542 206.992C110.719 207.302 110.97 207.545 111.293 207.723C111.617 207.897 112 207.985 112.444 207.985C112.891 207.985 113.276 207.897 113.6 207.723C113.926 207.545 114.175 207.302 114.347 206.992C114.522 206.683 114.609 206.33 114.609 205.932V200.254ZM122.667 202.564C122.622 202.158 122.433 201.843 122.101 201.619C121.768 201.393 121.35 201.28 120.846 201.28C120.486 201.28 120.174 201.337 119.91 201.452C119.647 201.564 119.442 201.718 119.296 201.916C119.153 202.11 119.081 202.332 119.081 202.582C119.081 202.791 119.13 202.971 119.227 203.123C119.327 203.274 119.458 203.402 119.618 203.505C119.781 203.605 119.956 203.69 120.142 203.758C120.328 203.824 120.507 203.879 120.679 203.922L121.538 204.145C121.819 204.214 122.106 204.307 122.401 204.424C122.696 204.541 122.97 204.696 123.222 204.888C123.474 205.08 123.677 205.317 123.831 205.601C123.989 205.884 124.068 206.224 124.068 206.619C124.068 207.117 123.939 207.559 123.681 207.946C123.426 208.333 123.055 208.637 122.569 208.861C122.085 209.084 121.499 209.196 120.812 209.196C120.153 209.196 119.584 209.091 119.103 208.882C118.622 208.673 118.245 208.377 117.973 207.993C117.701 207.607 117.551 207.149 117.522 206.619H118.854C118.879 206.937 118.982 207.202 119.163 207.413C119.346 207.622 119.579 207.778 119.863 207.882C120.149 207.982 120.463 208.032 120.803 208.032C121.179 208.032 121.512 207.973 121.804 207.856C122.099 207.736 122.331 207.569 122.5 207.358C122.669 207.143 122.753 206.892 122.753 206.606C122.753 206.345 122.679 206.132 122.53 205.966C122.384 205.8 122.185 205.662 121.933 205.554C121.684 205.445 121.402 205.349 121.087 205.266L120.048 204.982C119.343 204.791 118.785 204.509 118.372 204.136C117.963 203.764 117.758 203.272 117.758 202.659C117.758 202.152 117.896 201.71 118.171 201.332C118.445 200.954 118.818 200.66 119.287 200.451C119.757 200.239 120.287 200.133 120.876 200.133C121.472 200.133 121.997 200.238 122.453 200.447C122.911 200.656 123.272 200.944 123.535 201.31C123.799 201.674 123.936 202.092 123.947 202.564H122.667ZM126.981 200.254V209.05H125.654V200.254H126.981ZM136.013 200.254V209.05H134.793L130.322 202.599H130.241V209.05H128.914V200.254H130.142L134.617 206.713H134.699V200.254H136.013ZM137.949 209.05V200.254H143.464V201.396H139.276V204.076H143.176V205.214H139.276V207.907H143.515V209.05H137.949ZM150.034 202.564C149.988 202.158 149.799 201.843 149.467 201.619C149.135 201.393 148.717 201.28 148.213 201.28C147.852 201.28 147.54 201.337 147.277 201.452C147.013 201.564 146.809 201.718 146.663 201.916C146.519 202.11 146.448 202.332 146.448 202.582C146.448 202.791 146.497 202.971 146.594 203.123C146.694 203.274 146.824 203.402 146.985 203.505C147.148 203.605 147.323 203.69 147.509 203.758C147.695 203.824 147.874 203.879 148.046 203.922L148.905 204.145C149.185 204.214 149.473 204.307 149.768 204.424C150.063 204.541 150.336 204.696 150.588 204.888C150.84 205.08 151.044 205.317 151.198 205.601C151.356 205.884 151.434 206.224 151.434 206.619C151.434 207.117 151.306 207.559 151.048 207.946C150.793 208.333 150.422 208.637 149.935 208.861C149.452 209.084 148.866 209.196 148.179 209.196C147.52 209.196 146.95 209.091 146.469 208.882C145.988 208.673 145.612 208.377 145.34 207.993C145.068 207.607 144.917 207.149 144.889 206.619H146.22C146.246 206.937 146.349 207.202 146.53 207.413C146.713 207.622 146.946 207.778 147.23 207.882C147.516 207.982 147.829 208.032 148.17 208.032C148.545 208.032 148.879 207.973 149.171 207.856C149.466 207.736 149.698 207.569 149.867 207.358C150.036 207.143 150.12 206.892 150.12 206.606C150.12 206.345 150.046 206.132 149.897 205.966C149.751 205.8 149.552 205.662 149.3 205.554C149.051 205.445 148.769 205.349 148.454 205.266L147.414 204.982C146.71 204.791 146.152 204.509 145.739 204.136C145.33 203.764 145.125 203.272 145.125 202.659C145.125 202.152 145.262 201.71 145.537 201.332C145.812 200.954 146.184 200.66 146.654 200.451C147.124 200.239 147.653 200.133 148.243 200.133C148.839 200.133 149.364 200.238 149.82 200.447C150.278 200.656 150.638 200.944 150.902 201.31C151.165 201.674 151.303 202.092 151.314 202.564H150.034ZM157.818 202.564C157.772 202.158 157.583 201.843 157.251 201.619C156.919 201.393 156.501 201.28 155.997 201.28C155.636 201.28 155.324 201.337 155.06 201.452C154.797 201.564 154.592 201.718 154.446 201.916C154.303 202.11 154.232 202.332 154.232 202.582C154.232 202.791 154.28 202.971 154.378 203.123C154.478 203.274 154.608 203.402 154.768 203.505C154.932 203.605 155.106 203.69 155.292 203.758C155.479 203.824 155.658 203.879 155.829 203.922L156.688 204.145C156.969 204.214 157.257 204.307 157.552 204.424C157.847 204.541 158.12 204.696 158.372 204.888C158.624 205.08 158.827 205.317 158.982 205.601C159.139 205.884 159.218 206.224 159.218 206.619C159.218 207.117 159.089 207.559 158.832 207.946C158.577 208.333 158.206 208.637 157.719 208.861C157.235 209.084 156.65 209.196 155.962 209.196C155.304 209.196 154.734 209.091 154.253 208.882C153.772 208.673 153.395 208.377 153.123 207.993C152.851 207.607 152.701 207.149 152.672 206.619H154.004C154.03 206.937 154.133 207.202 154.313 207.413C154.496 207.622 154.73 207.778 155.013 207.882C155.3 207.982 155.613 208.032 155.954 208.032C156.329 208.032 156.663 207.973 156.955 207.856C157.25 207.736 157.481 207.569 157.65 207.358C157.819 207.143 157.904 206.892 157.904 206.606C157.904 206.345 157.829 206.132 157.68 205.966C157.534 205.8 157.335 205.662 157.083 205.554C156.834 205.445 156.552 205.349 156.237 205.266L155.198 204.982C154.494 204.791 153.935 204.509 153.523 204.136C153.113 203.764 152.909 203.272 152.909 202.659C152.909 202.152 153.046 201.71 153.321 201.332C153.596 200.954 153.968 200.66 154.438 200.451C154.907 200.239 155.437 200.133 156.027 200.133C156.622 200.133 157.148 200.238 157.603 200.447C158.061 200.656 158.422 200.944 158.685 201.31C158.949 201.674 159.086 202.092 159.098 202.564H157.818Z" fill="black"/>
</g>
<defs>
<filter id="filter0_d_3543_225945" x="-0.00927734" y="-0.00390625" width="292.174" height="292.175" filterUnits="userSpaceOnUse" color-interpolation-filters="sRGB">
<feFlood flood-opacity="0" result="BackgroundImageFix"/>
<feColorMatrix in="SourceAlpha" type="matrix" values="0 0 0 0 0 0 0 0 0 0 0 0 0 0 0 0 0 0 127 0" result="hardAlpha"/>
<feOffset dy="4"/>
<feGaussianBlur stdDeviation="2"/>
<feComposite in2="hardAlpha" operator="out"/>
<feColorMatrix type="matrix" values="0 0 0 0 0 0 0 0 0 0 0 0 0 0 0 0 0 0 0.25 0"/>
<feBlend mode="normal" in2="BackgroundImageFix" result="effect1_dropShadow_3543_225945"/>
<feBlend mode="normal" in="SourceGraphic" in2="effect1_dropShadow_3543_225945" result="shape"/>
</filter>
<radialGradient id="paint0_radial_3543_225945" cx="0" cy="0" r="1" gradientUnits="userSpaceOnUse" gradientTransform="translate(7.37353 141.866) scale(277.409 882.933)">
<stop offset="0.375" stop-color="#F9B25C"/>
<stop offset="1" stop-color="#23B3F9"/>
</radialGradient>
<radialGradient id="paint1_radial_3543_225945" cx="0" cy="0" r="1" gradientUnits="userSpaceOnUse" gradientTransform="translate(35.0006 89.6256) rotate(25.299) scale(203.664 2233.32)">
<stop stop-color="#1AB3FF"/>
<stop offset="1" stop-color="#FFB258"/>
</radialGradient>
</defs>
</svg>
