<svg width="32" height="32" viewBox="0 0 32 32" fill="none" xmlns="http://www.w3.org/2000/svg">
<g opacity="0.4">
<path d="M24.0533 18.0668C23.4933 18.6135 23.1733 19.4002 23.2533 20.2402C23.3733 21.6802 24.6933 22.7335 26.1333 22.7335H28.6666V24.3202C28.6666 27.0802 26.4132 29.3335 23.6532 29.3335H8.34659C5.58659 29.3335 3.33325 27.0802 3.33325 24.3202V15.3468C3.33325 12.5868 5.58659 10.3335 8.34659 10.3335H23.6532C26.4132 10.3335 28.6666 12.5868 28.6666 15.3468V17.2668H25.9732C25.2266 17.2668 24.5466 17.5601 24.0533 18.0668Z" fill="#344054"/>
<path d="M24.0533 18.0668C23.4933 18.6135 23.1733 19.4002 23.2533 20.2402C23.3733 21.6802 24.6933 22.7335 26.1333 22.7335H28.6666V24.3202C28.6666 27.0802 26.4132 29.3335 23.6532 29.3335H8.34659C5.58659 29.3335 3.33325 27.0802 3.33325 24.3202V15.3468C3.33325 12.5868 5.58659 10.3335 8.34659 10.3335H23.6532C26.4132 10.3335 28.6666 12.5868 28.6666 15.3468V17.2668H25.9732C25.2266 17.2668 24.5466 17.5601 24.0533 18.0668Z" fill="url(#paint0_linear_3639_300874)"/>
<path d="M24.0533 18.0668C23.4933 18.6135 23.1733 19.4002 23.2533 20.2402C23.3733 21.6802 24.6933 22.7335 26.1333 22.7335H28.6666V24.3202C28.6666 27.0802 26.4132 29.3335 23.6532 29.3335H8.34659C5.58659 29.3335 3.33325 27.0802 3.33325 24.3202V15.3468C3.33325 12.5868 5.58659 10.3335 8.34659 10.3335H23.6532C26.4132 10.3335 28.6666 12.5868 28.6666 15.3468V17.2668H25.9732C25.2266 17.2668 24.5466 17.5601 24.0533 18.0668Z" fill="url(#paint1_linear_3639_300874)"/>
</g>
<path d="M19.7999 5.26683V10.3335H8.34659C5.58659 10.3335 3.33325 12.5868 3.33325 15.3468V10.4535C3.33325 8.86685 4.30659 7.45346 5.78659 6.89346L16.3733 2.89346C18.0266 2.28013 19.7999 3.4935 19.7999 5.26683Z" fill="#344054"/>
<path d="M19.7999 5.26683V10.3335H8.34659C5.58659 10.3335 3.33325 12.5868 3.33325 15.3468V10.4535C3.33325 8.86685 4.30659 7.45346 5.78659 6.89346L16.3733 2.89346C18.0266 2.28013 19.7999 3.4935 19.7999 5.26683Z" fill="url(#paint2_linear_3639_300874)"/>
<path d="M19.7999 5.26683V10.3335H8.34659C5.58659 10.3335 3.33325 12.5868 3.33325 15.3468V10.4535C3.33325 8.86685 4.30659 7.45346 5.78659 6.89346L16.3733 2.89346C18.0266 2.28013 19.7999 3.4935 19.7999 5.26683Z" fill="url(#paint3_linear_3639_300874)"/>
<path d="M30.08 18.6265V21.3733C30.08 22.1066 29.4934 22.7066 28.7467 22.7332H26.1334C24.6934 22.7332 23.3734 21.6799 23.2534 20.2399C23.1734 19.3999 23.4934 18.6132 24.0534 18.0666C24.5467 17.5599 25.2267 17.2666 25.9734 17.2666H28.7467C29.4934 17.2933 30.08 17.8932 30.08 18.6265Z" fill="#344054"/>
<path d="M30.08 18.6265V21.3733C30.08 22.1066 29.4934 22.7066 28.7467 22.7332H26.1334C24.6934 22.7332 23.3734 21.6799 23.2534 20.2399C23.1734 19.3999 23.4934 18.6132 24.0534 18.0666C24.5467 17.5599 25.2267 17.2666 25.9734 17.2666H28.7467C29.4934 17.2933 30.08 17.8932 30.08 18.6265Z" fill="url(#paint4_linear_3639_300874)"/>
<path d="M30.08 18.6265V21.3733C30.08 22.1066 29.4934 22.7066 28.7467 22.7332H26.1334C24.6934 22.7332 23.3734 21.6799 23.2534 20.2399C23.1734 19.3999 23.4934 18.6132 24.0534 18.0666C24.5467 17.5599 25.2267 17.2666 25.9734 17.2666H28.7467C29.4934 17.2933 30.08 17.8932 30.08 18.6265Z" fill="url(#paint5_linear_3639_300874)"/>
<path d="M18.6666 17H9.33325C8.78659 17 8.33325 16.5467 8.33325 16C8.33325 15.4533 8.78659 15 9.33325 15H18.6666C19.2133 15 19.6666 15.4533 19.6666 16C19.6666 16.5467 19.2133 17 18.6666 17Z" fill="#344054"/>
<path d="M18.6666 17H9.33325C8.78659 17 8.33325 16.5467 8.33325 16C8.33325 15.4533 8.78659 15 9.33325 15H18.6666C19.2133 15 19.6666 15.4533 19.6666 16C19.6666 16.5467 19.2133 17 18.6666 17Z" fill="url(#paint6_linear_3639_300874)"/>
<path d="M18.6666 17H9.33325C8.78659 17 8.33325 16.5467 8.33325 16C8.33325 15.4533 8.78659 15 9.33325 15H18.6666C19.2133 15 19.6666 15.4533 19.6666 16C19.6666 16.5467 19.2133 17 18.6666 17Z" fill="url(#paint7_linear_3639_300874)"/>
<defs>
<linearGradient id="paint0_linear_3639_300874" x1="3.33325" y1="10.3335" x2="21.5733" y2="34.6535" gradientUnits="userSpaceOnUse">
<stop stop-color="#72EDF2"/>
<stop offset="1" stop-color="#5151E5"/>
</linearGradient>
<linearGradient id="paint1_linear_3639_300874" x1="3.33325" y1="10.3335" x2="21.5733" y2="34.6535" gradientUnits="userSpaceOnUse">
<stop stop-color="#F74FAC"/>
<stop offset="1" stop-color="#FCB24F"/>
</linearGradient>
<linearGradient id="paint2_linear_3639_300874" x1="3.33325" y1="2.73242" x2="15.5126" y2="18.6312" gradientUnits="userSpaceOnUse">
<stop stop-color="#72EDF2"/>
<stop offset="1" stop-color="#5151E5"/>
</linearGradient>
<linearGradient id="paint3_linear_3639_300874" x1="3.33325" y1="2.73242" x2="15.5126" y2="18.6312" gradientUnits="userSpaceOnUse">
<stop stop-color="#F74FAC"/>
<stop offset="1" stop-color="#FCB24F"/>
</linearGradient>
<linearGradient id="paint4_linear_3639_300874" x1="23.2412" y1="17.2666" x2="28.5736" y2="23.9374" gradientUnits="userSpaceOnUse">
<stop stop-color="#72EDF2"/>
<stop offset="1" stop-color="#5151E5"/>
</linearGradient>
<linearGradient id="paint5_linear_3639_300874" x1="23.2412" y1="17.2666" x2="28.5736" y2="23.9374" gradientUnits="userSpaceOnUse">
<stop stop-color="#F74FAC"/>
<stop offset="1" stop-color="#FCB24F"/>
</linearGradient>
<linearGradient id="paint6_linear_3639_300874" x1="8.33325" y1="15" x2="9.01782" y2="18.8792" gradientUnits="userSpaceOnUse">
<stop stop-color="#72EDF2"/>
<stop offset="1" stop-color="#5151E5"/>
</linearGradient>
<linearGradient id="paint7_linear_3639_300874" x1="8.33325" y1="15" x2="9.01782" y2="18.8792" gradientUnits="userSpaceOnUse">
<stop stop-color="#F74FAC"/>
<stop offset="1" stop-color="#FCB24F"/>
</linearGradient>
</defs>
</svg>
