<svg width="251" height="276" viewBox="0 0 251 276" fill="none" xmlns="http://www.w3.org/2000/svg">
<g clip-path="url(#clip0_7014_108528)">
<rect y="0.326172" width="250.346" height="275.004" rx="20" fill="white"/>
<g clip-path="url(#clip1_7014_108528)">
<rect width="250.346" height="275.004" transform="translate(0 0.326172)" fill="white"/>
<mask id="path-3-inside-1_7014_108528" fill="white">
<path d="M0 0.326172H250.346V275.33H0V0.326172Z"/>
</mask>
<path d="M250.346 274.144H0V276.517H250.346V274.144Z" fill="#EAECF0" mask="url(#path-3-inside-1_7014_108528)"/>
<path d="M29.6627 30.4367C29.6627 29.7814 30.1939 29.2502 30.8491 29.2502H36.7815V31.6232H30.8491C30.1939 31.6232 29.6627 31.0919 29.6627 30.4367Z" fill="#667085"/>
<path d="M20.1709 32.8096H24.9168C25.572 32.8096 26.1032 33.3408 26.1032 33.9961C26.1032 34.6514 25.572 35.1826 24.9168 35.1826H20.1709V32.8096Z" fill="#667085"/>
<path d="M23.137 22.1313C23.4647 22.1313 23.7303 22.3969 23.7303 22.7246V23.3178H33.2221V22.7246C33.2221 22.3969 33.4877 22.1313 33.8153 22.1313C34.143 22.1313 34.4086 22.3969 34.4086 22.7246V23.3178H35.595C36.9056 23.3178 37.968 24.3802 37.968 25.6908V38.742C37.968 40.0525 36.9056 41.115 35.595 41.115H21.3573C20.0468 41.115 18.9844 40.0525 18.9844 38.742V25.6908C18.9844 24.3802 20.0468 23.3178 21.3573 23.3178H22.5438V22.7246C22.5438 22.3969 22.8094 22.1313 23.137 22.1313ZM20.1709 26.8772V38.742C20.1709 39.3973 20.7021 39.9285 21.3573 39.9285H35.595C36.2503 39.9285 36.7815 39.3973 36.7815 38.742V26.8772H20.1709Z" fill="#667085"/>
<path d="M57.3959 37.123H53.6679V25.0426H57.5611C58.7329 25.0426 59.7357 25.2844 60.5694 25.7681C61.4031 26.2479 62.0421 26.938 62.4865 27.8385C62.9308 28.7351 63.153 29.8087 63.153 31.0592C63.153 32.3176 62.9289 33.401 62.4806 34.3094C62.0323 35.2138 61.3795 35.9099 60.5222 36.3975C59.6649 36.8812 58.6228 37.123 57.3959 37.123ZM55.1308 35.8253H57.3015C58.3004 35.8253 59.1282 35.6326 59.7849 35.2473C60.4416 34.8619 60.9312 34.3133 61.2536 33.6015C61.5761 32.8898 61.7373 32.0423 61.7373 31.0592C61.7373 30.084 61.5781 29.2444 61.2595 28.5405C60.941 27.8326 60.4652 27.29 59.8321 26.9124C59.1989 26.531 58.4105 26.3403 57.4667 26.3403H55.1308V35.8253ZM68.2504 37.3354C67.6763 37.3354 67.1552 37.2273 66.6873 37.011C66.2193 36.7908 65.8477 36.4742 65.5724 36.0613C65.2971 35.6444 65.1595 35.1411 65.1595 34.5512C65.1595 34.0321 65.2617 33.6114 65.4662 33.2889C65.6707 32.9625 65.944 32.7069 66.2861 32.5221C66.6283 32.3373 67.0058 32.1996 67.4187 32.1092C67.8355 32.0148 68.2543 31.9401 68.6751 31.885C69.2257 31.8142 69.672 31.7612 70.0141 31.7258C70.3602 31.6864 70.6118 31.6216 70.7691 31.5311C70.9304 31.4407 71.011 31.2834 71.011 31.0592V31.012C71.011 30.43 70.8517 29.9778 70.5332 29.6553C70.2186 29.3329 69.7408 29.1716 69.0998 29.1716C68.4352 29.1716 67.9142 29.3171 67.5367 29.6081C67.1592 29.8991 66.8937 30.2098 66.7403 30.5401L65.419 30.0682C65.655 29.5177 65.9696 29.0891 66.3628 28.7823C66.76 28.4717 67.1926 28.2554 67.6605 28.1335C68.1324 28.0076 68.5965 27.9447 69.0526 27.9447C69.3436 27.9447 69.6779 27.9801 70.0554 28.0509C70.4368 28.1177 70.8045 28.2573 71.1584 28.4697C71.5163 28.682 71.8132 29.0025 72.0491 29.4312C72.2851 29.8598 72.4031 30.434 72.4031 31.1536V37.123H71.011V35.8961H70.9402C70.8458 36.0927 70.6885 36.3031 70.4683 36.5273C70.2481 36.7514 69.9551 36.9422 69.5894 37.0995C69.2237 37.2568 68.7774 37.3354 68.2504 37.3354ZM68.4628 36.0849C69.0133 36.0849 69.4773 35.9767 69.8548 35.7605C70.2363 35.5442 70.5234 35.265 70.716 34.9228C70.9127 34.5807 71.011 34.2209 71.011 33.8434V32.5693C70.952 32.6401 70.8222 32.7049 70.6217 32.7639C70.425 32.819 70.197 32.8681 69.9374 32.9114C69.6818 32.9507 69.4321 32.9861 69.1883 33.0176C68.9484 33.0451 68.7538 33.0687 68.6043 33.0884C68.2425 33.1355 67.9043 33.2122 67.5898 33.3184C67.2791 33.4206 67.0274 33.576 66.8347 33.7844C66.646 33.9889 66.5516 34.2681 66.5516 34.622C66.5516 35.1057 66.7305 35.4714 67.0884 35.7192C67.4502 35.963 67.9083 36.0849 68.4628 36.0849ZM79.0503 28.0627V29.2424H74.355V28.0627H79.0503ZM75.7235 25.892H77.1156V34.5276C77.1156 34.9209 77.1726 35.2158 77.2866 35.4124C77.4046 35.6051 77.554 35.7349 77.7349 35.8017C77.9198 35.8647 78.1144 35.8961 78.3189 35.8961C78.4723 35.8961 78.5981 35.8883 78.6964 35.8725C78.7947 35.8529 78.8734 35.8371 78.9324 35.8253L79.2155 37.0759C79.1211 37.1112 78.9894 37.1466 78.8203 37.182C78.6512 37.2214 78.4369 37.241 78.1773 37.241C77.7841 37.241 77.3987 37.1565 77.0212 36.9874C76.6476 36.8183 76.337 36.5607 76.0892 36.2147C75.8454 35.8686 75.7235 35.4321 75.7235 34.9051V25.892ZM85.0119 37.3118C84.1389 37.3118 83.3858 37.1191 82.7527 36.7337C82.1235 36.3444 81.6378 35.8017 81.2957 35.1057C80.9575 34.4057 80.7884 33.5917 80.7884 32.6637C80.7884 31.7356 80.9575 30.9176 81.2957 30.2098C81.6378 29.498 82.1137 28.9436 82.7232 28.5464C83.3367 28.1453 84.0524 27.9447 84.8703 27.9447C85.3422 27.9447 85.8082 28.0234 86.2683 28.1807C86.7284 28.338 87.1472 28.5936 87.5247 28.9475C87.9022 29.2975 88.2031 29.7615 88.4272 30.3396C88.6514 30.9176 88.7634 31.6294 88.7634 32.4749V33.0648H81.7794V31.8614H87.3478C87.3478 31.3502 87.2455 30.8941 87.041 30.4929C86.8405 30.0918 86.5534 29.7753 86.1798 29.5433C85.8102 29.3112 85.3737 29.1952 84.8703 29.1952C84.3158 29.1952 83.8361 29.3329 83.431 29.6081C83.0299 29.8795 82.7212 30.2334 82.505 30.6699C82.2887 31.1064 82.1805 31.5744 82.1805 32.0738V32.876C82.1805 33.5603 82.2985 34.1403 82.5344 34.6161C82.7743 35.088 83.1066 35.4478 83.5313 35.6956C83.956 35.9394 84.4495 36.0613 85.0119 36.0613C85.3776 36.0613 85.7079 36.0102 86.0029 35.9079C86.3017 35.8017 86.5593 35.6444 86.7756 35.436C86.9919 35.2237 87.159 34.9602 87.277 34.6456L88.6219 35.0231C88.4803 35.4793 88.2424 35.8804 87.9081 36.2264C87.5739 36.5686 87.161 36.836 86.6694 37.0287C86.1779 37.2174 85.6253 37.3118 85.0119 37.3118ZM96.0738 37.123V25.0426H100.156C101.099 25.0426 101.874 25.2038 102.48 25.5263C103.085 25.8448 103.534 26.2833 103.825 26.8417C104.116 27.4001 104.261 28.0352 104.261 28.7469C104.261 29.4587 104.116 30.0899 103.825 30.6404C103.534 31.191 103.087 31.6235 102.486 31.9381C101.884 32.2488 101.115 32.4041 100.179 32.4041H96.876V31.0828H100.132C100.777 31.0828 101.296 30.9884 101.689 30.7997C102.086 30.6109 102.374 30.3435 102.551 29.9975C102.731 29.6475 102.822 29.2306 102.822 28.7469C102.822 28.2632 102.731 27.8405 102.551 27.4787C102.37 27.1169 102.081 26.8377 101.683 26.6411C101.286 26.4406 100.761 26.3403 100.108 26.3403H97.5367V37.123H96.0738ZM101.76 31.6963L104.733 37.123H103.034L100.108 31.6963H101.76ZM109.342 37.3354C108.768 37.3354 108.247 37.2273 107.779 37.011C107.311 36.7908 106.94 36.4742 106.664 36.0613C106.389 35.6444 106.251 35.1411 106.251 34.5512C106.251 34.0321 106.354 33.6114 106.558 33.2889C106.763 32.9625 107.036 32.7069 107.378 32.5221C107.72 32.3373 108.098 32.1996 108.511 32.1092C108.927 32.0148 109.346 31.9401 109.767 31.885C110.318 31.8142 110.764 31.7612 111.106 31.7258C111.452 31.6864 111.704 31.6216 111.861 31.5311C112.022 31.4407 112.103 31.2834 112.103 31.0592V31.012C112.103 30.43 111.944 29.9778 111.625 29.6553C111.31 29.3329 110.833 29.1716 110.192 29.1716C109.527 29.1716 109.006 29.3171 108.629 29.6081C108.251 29.8991 107.986 30.2098 107.832 30.5401L106.511 30.0682C106.747 29.5177 107.061 29.0891 107.455 28.7823C107.852 28.4717 108.284 28.2554 108.752 28.1335C109.224 28.0076 109.688 27.9447 110.145 27.9447C110.436 27.9447 110.77 27.9801 111.147 28.0509C111.529 28.1177 111.896 28.2573 112.25 28.4697C112.608 28.682 112.905 29.0025 113.141 29.4312C113.377 29.8598 113.495 30.434 113.495 31.1536V37.123H112.103V35.8961H112.032C111.938 36.0927 111.78 36.3031 111.56 36.5273C111.34 36.7514 111.047 36.9422 110.681 37.0995C110.316 37.2568 109.869 37.3354 109.342 37.3354ZM109.555 36.0849C110.105 36.0849 110.569 35.9767 110.947 35.7605C111.328 35.5442 111.615 35.265 111.808 34.9228C112.005 34.5807 112.103 34.2209 112.103 33.8434V32.5693C112.044 32.6401 111.914 32.7049 111.714 32.7639C111.517 32.819 111.289 32.8681 111.029 32.9114C110.774 32.9507 110.524 32.9861 110.28 33.0176C110.04 33.0451 109.846 33.0687 109.696 33.0884C109.334 33.1355 108.996 33.2122 108.682 33.3184C108.371 33.4206 108.119 33.576 107.927 33.7844C107.738 33.9889 107.643 34.2681 107.643 34.622C107.643 35.1057 107.822 35.4714 108.18 35.7192C108.542 35.963 109 36.0849 109.555 36.0849ZM117.594 31.6727V37.123H116.202V28.0627H117.547V29.4784H117.665C117.877 29.0183 118.2 28.6486 118.632 28.3694C119.065 28.0863 119.623 27.9447 120.307 27.9447C120.921 27.9447 121.458 28.0706 121.918 28.3222C122.378 28.57 122.736 28.9475 122.991 29.4548C123.247 29.9581 123.375 30.5952 123.375 31.3659V37.123H121.983V31.4603C121.983 30.7486 121.798 30.1941 121.428 29.7969C121.059 29.3958 120.551 29.1952 119.906 29.1952C119.462 29.1952 119.065 29.2916 118.715 29.4843C118.369 29.677 118.095 29.9581 117.895 30.3278C117.694 30.6974 117.594 31.1457 117.594 31.6727ZM129.742 40.7094C129.069 40.7094 128.491 40.6229 128.008 40.4499C127.524 40.2808 127.121 40.0567 126.798 39.7774C126.48 39.5022 126.226 39.2072 126.037 38.8926L127.146 38.114C127.272 38.2792 127.431 38.4679 127.624 38.6803C127.817 38.8966 128.08 39.0834 128.415 39.2407C128.753 39.4019 129.195 39.4825 129.742 39.4825C130.473 39.4825 131.077 39.3056 131.553 38.9516C132.029 38.5977 132.266 38.0432 132.266 37.2882V35.4478H132.148C132.046 35.613 131.901 35.8175 131.712 36.0613C131.527 36.3012 131.26 36.5155 130.91 36.7042C130.564 36.8891 130.096 36.9815 129.506 36.9815C128.774 36.9815 128.118 36.8085 127.536 36.4624C126.958 36.1163 126.499 35.613 126.161 34.9523C125.827 34.2917 125.66 33.4895 125.66 32.5457C125.66 31.6176 125.823 30.8095 126.15 30.1213C126.476 29.4292 126.93 28.8944 127.512 28.5169C128.094 28.1354 128.767 27.9447 129.529 27.9447C130.119 27.9447 130.587 28.043 130.933 28.2396C131.283 28.4323 131.551 28.6526 131.736 28.9003C131.924 29.1441 132.07 29.3447 132.172 29.502H132.314V28.0627H133.659V37.3826C133.659 38.1612 133.482 38.7943 133.128 39.282C132.778 39.7735 132.306 40.1333 131.712 40.3614C131.122 40.5934 130.465 40.7094 129.742 40.7094ZM129.695 35.731C130.253 35.731 130.725 35.6032 131.11 35.3475C131.496 35.0919 131.789 34.7243 131.989 34.2445C132.19 33.7647 132.29 33.1906 132.29 32.5221C132.29 31.8693 132.192 31.2932 131.995 30.7938C131.798 30.2944 131.507 29.9031 131.122 29.6199C130.737 29.3368 130.261 29.1952 129.695 29.1952C129.105 29.1952 128.613 29.3447 128.22 29.6435C127.831 29.9424 127.538 30.3435 127.341 30.8469C127.148 31.3502 127.052 31.9086 127.052 32.5221C127.052 33.1513 127.15 33.7077 127.347 34.1914C127.547 34.6712 127.842 35.0487 128.232 35.324C128.625 35.5953 129.113 35.731 129.695 35.731ZM140.172 37.3118C139.299 37.3118 138.546 37.1191 137.912 36.7337C137.283 36.3444 136.798 35.8017 136.455 35.1057C136.117 34.4057 135.948 33.5917 135.948 32.6637C135.948 31.7356 136.117 30.9176 136.455 30.2098C136.798 29.498 137.273 28.9436 137.883 28.5464C138.496 28.1453 139.212 27.9447 140.03 27.9447C140.502 27.9447 140.968 28.0234 141.428 28.1807C141.888 28.338 142.307 28.5936 142.684 28.9475C143.062 29.2975 143.363 29.7615 143.587 30.3396C143.811 30.9176 143.923 31.6294 143.923 32.4749V33.0648H136.939V31.8614H142.507C142.507 31.3502 142.405 30.8941 142.201 30.4929C142 30.0918 141.713 29.7753 141.34 29.5433C140.97 29.3112 140.533 29.1952 140.03 29.1952C139.476 29.1952 138.996 29.3329 138.591 29.6081C138.19 29.8795 137.881 30.2334 137.665 30.6699C137.448 31.1064 137.34 31.5744 137.34 32.0738V32.876C137.34 33.5603 137.458 34.1403 137.694 34.6161C137.934 35.088 138.266 35.4478 138.691 35.6956C139.116 35.9394 139.609 36.0613 140.172 36.0613C140.537 36.0613 140.868 36.0102 141.163 35.9079C141.461 35.8017 141.719 35.6444 141.935 35.436C142.152 35.2237 142.319 34.9602 142.437 34.6456L143.782 35.0231C143.64 35.4793 143.402 35.8804 143.068 36.2264C142.734 36.5686 142.321 36.836 141.829 37.0287C141.338 37.2174 140.785 37.3118 140.172 37.3118Z" fill="#344054"/>
<path d="M19.5776 75.2339C19.9052 75.2339 20.1709 75.4995 20.1709 75.8271V93.6243C20.1709 93.9519 19.9052 94.2175 19.5776 94.2175C19.25 94.2175 18.9844 93.9519 18.9844 93.6243V75.8271C18.9844 75.4995 19.25 75.2339 19.5776 75.2339Z" fill="#667085"/>
<path d="M21.3573 77.0136C21.3573 76.686 21.6229 76.4204 21.9506 76.4204H26.6965C27.0241 76.4204 27.2897 76.686 27.2897 77.0136V78.2001C27.2897 78.5277 27.0241 78.7933 26.6965 78.7933H21.9506C21.6229 78.7933 21.3573 78.5277 21.3573 78.2001V77.0136Z" fill="#667085"/>
<path d="M23.7303 81.7595C23.7303 81.4319 23.9959 81.1663 24.3235 81.1663H32.6288C32.9565 81.1663 33.2221 81.4319 33.2221 81.7595V82.946C33.2221 83.2736 32.9565 83.5392 32.6288 83.5392H24.3235C23.9959 83.5392 23.7303 83.2736 23.7303 82.946V81.7595Z" fill="#667085"/>
<path d="M26.1032 86.5054C26.1032 86.1778 26.3688 85.9122 26.6965 85.9122H33.8153C34.143 85.9122 34.4086 86.1778 34.4086 86.5054V87.6919C34.4086 88.0195 34.143 88.2851 33.8153 88.2851H26.6965C26.3688 88.2851 26.1032 88.0195 26.1032 87.6919V86.5054Z" fill="#667085"/>
<path d="M28.4762 91.2513C28.4762 90.9237 28.7418 90.6581 29.0694 90.6581H37.3747C37.7024 90.6581 37.968 90.9237 37.968 91.2513V92.4378C37.968 92.7654 37.7024 93.031 37.3747 93.031H29.0694C28.7418 93.031 28.4762 92.7654 28.4762 92.4378V91.2513Z" fill="#667085"/>
<path d="M53.6679 90.2256V78.1451H57.7498C58.6975 78.1451 59.4722 78.3162 60.0739 78.6583C60.6795 78.9965 61.1278 79.4546 61.4188 80.0327C61.7098 80.6108 61.8553 81.2557 61.8553 81.9674C61.8553 82.6792 61.7098 83.3261 61.4188 83.9081C61.1317 84.4901 60.6874 84.9541 60.0857 85.3002C59.484 85.6423 58.7133 85.8134 57.7734 85.8134H54.8477V84.5157H57.7262C58.3751 84.5157 58.8961 84.4036 59.2894 84.1794C59.6826 83.9553 59.9677 83.6525 60.1447 83.2711C60.3256 82.8857 60.416 82.4511 60.416 81.9674C60.416 81.4838 60.3256 81.0512 60.1447 80.6697C59.9677 80.2883 59.6807 79.9894 59.2835 79.7731C58.8863 79.5529 58.3594 79.4428 57.7026 79.4428H55.1308V90.2256H53.6679ZM64.1892 90.2256V81.1652H65.5341V82.5337H65.6284C65.7936 82.0854 66.0925 81.7217 66.525 81.4425C66.9576 81.1633 67.4452 81.0237 67.9879 81.0237C68.0902 81.0237 68.218 81.0256 68.3713 81.0296C68.5247 81.0335 68.6407 81.0394 68.7193 81.0473V82.4629C68.6722 82.4511 68.564 82.4334 68.3949 82.4098C68.2298 82.3823 68.0548 82.3686 67.8699 82.3686C67.4295 82.3686 67.0363 82.461 66.6902 82.6458C66.3481 82.8267 66.0767 83.0784 65.8762 83.4008C65.6796 83.7194 65.5813 84.0831 65.5813 84.4921V90.2256H64.1892ZM73.9406 90.4143C73.1227 90.4143 72.405 90.2197 71.7876 89.8304C71.1741 89.4411 70.6944 88.8964 70.3483 88.1964C70.0062 87.4965 69.8351 86.6785 69.8351 85.7426C69.8351 84.7988 70.0062 83.975 70.3483 83.2711C70.6944 82.5671 71.1741 82.0205 71.7876 81.6312C72.405 81.2419 73.1227 81.0473 73.9406 81.0473C74.7586 81.0473 75.4743 81.2419 76.0877 81.6312C76.7051 82.0205 77.1849 82.5671 77.527 83.2711C77.8731 83.975 78.0461 84.7988 78.0461 85.7426C78.0461 86.6785 77.8731 87.4965 77.527 88.1964C77.1849 88.8964 76.7051 89.4411 76.0877 89.8304C75.4743 90.2197 74.7586 90.4143 73.9406 90.4143ZM73.9406 89.1638C74.5619 89.1638 75.0732 89.0046 75.4743 88.686C75.8754 88.3675 76.1723 87.9487 76.365 87.4296C76.5577 86.9105 76.654 86.3482 76.654 85.7426C76.654 85.137 76.5577 84.5727 76.365 84.0497C76.1723 83.5267 75.8754 83.1039 75.4743 82.7815C75.0732 82.459 74.5619 82.2978 73.9406 82.2978C73.3193 82.2978 72.8081 82.459 72.407 82.7815C72.0059 83.1039 71.709 83.5267 71.5163 84.0497C71.3236 84.5727 71.2272 85.137 71.2272 85.7426C71.2272 86.3482 71.3236 86.9105 71.5163 87.4296C71.709 87.9487 72.0059 88.3675 72.407 88.686C72.8081 89.0046 73.3193 89.1638 73.9406 89.1638ZM83.9944 93.812C83.3219 93.812 82.7439 93.7255 82.2602 93.5524C81.7765 93.3833 81.3734 93.1592 81.0509 92.88C80.7324 92.6047 80.4788 92.3098 80.29 91.9952L81.399 91.2166C81.5248 91.3817 81.6841 91.5705 81.8767 91.7828C82.0694 91.9991 82.3329 92.1859 82.6672 92.3432C83.0054 92.5044 83.4478 92.5851 83.9944 92.5851C84.7258 92.5851 85.3294 92.4081 85.8053 92.0542C86.2811 91.7003 86.519 91.1458 86.519 90.3907V88.5504H86.401C86.2988 88.7155 86.1533 88.92 85.9645 89.1638C85.7797 89.4037 85.5123 89.618 85.1623 89.8068C84.8162 89.9916 84.3483 90.084 83.7584 90.084C83.027 90.084 82.3703 89.911 81.7883 89.5649C81.2102 89.2189 80.7521 88.7155 80.4139 88.0549C80.0796 87.3942 79.9125 86.592 79.9125 85.6482C79.9125 84.7202 80.0757 83.912 80.4021 83.2239C80.7285 82.5318 81.1827 81.9969 81.7647 81.6194C82.3467 81.238 83.0191 81.0473 83.782 81.0473C84.3719 81.0473 84.8398 81.1456 85.1859 81.3422C85.5359 81.5349 85.8033 81.7551 85.9881 82.0028C86.1769 82.2467 86.3224 82.4472 86.4246 82.6045H86.5662V81.1652H87.9111V90.4851C87.9111 91.2638 87.7341 91.8969 87.3802 92.3845C87.0302 92.8761 86.5583 93.2359 85.9645 93.464C85.3747 93.696 84.7179 93.812 83.9944 93.812ZM83.9472 88.8335C84.5056 88.8335 84.9775 88.7057 85.3629 88.4501C85.7482 88.1945 86.0412 87.8268 86.2418 87.347C86.4423 86.8673 86.5426 86.2931 86.5426 85.6246C86.5426 84.9718 86.4443 84.3957 86.2477 83.8963C86.051 83.3969 85.76 83.0056 85.3747 82.7225C84.9893 82.4393 84.5135 82.2978 83.9472 82.2978C83.3573 82.2978 82.8658 82.4472 82.4725 82.7461C82.0832 83.0449 81.7902 83.446 81.5936 83.9494C81.4009 84.4528 81.3046 85.0112 81.3046 85.6246C81.3046 86.2538 81.4029 86.8103 81.5995 87.2939C81.8001 87.7737 82.095 88.1512 82.4843 88.4265C82.8776 88.6978 83.3652 88.8335 83.9472 88.8335ZM90.6254 90.2256V81.1652H91.9703V82.5337H92.0647C92.2299 82.0854 92.5287 81.7217 92.9613 81.4425C93.3939 81.1633 93.8815 81.0237 94.4242 81.0237C94.5264 81.0237 94.6542 81.0256 94.8076 81.0296C94.9609 81.0335 95.0769 81.0394 95.1556 81.0473V82.4629C95.1084 82.4511 95.0003 82.4334 94.8312 82.4098C94.666 82.3823 94.491 82.3686 94.3062 82.3686C93.8658 82.3686 93.4725 82.461 93.1265 82.6458C92.7843 82.8267 92.513 83.0784 92.3124 83.4008C92.1158 83.7194 92.0175 84.0831 92.0175 84.4921V90.2256H90.6254ZM100.495 90.4143C99.6218 90.4143 98.8688 90.2217 98.2356 89.8363C97.6065 89.447 97.1208 88.9043 96.7787 88.2082C96.4405 87.5083 96.2714 86.6942 96.2714 85.7662C96.2714 84.8381 96.4405 84.0202 96.7787 83.3123C97.1208 82.6006 97.5966 82.0461 98.2062 81.6489C98.8196 81.2478 99.5353 81.0473 100.353 81.0473C100.825 81.0473 101.291 81.1259 101.751 81.2832C102.211 81.4405 102.63 81.6961 103.008 82.05C103.385 82.4 103.686 82.864 103.91 83.4421C104.134 84.0202 104.246 84.732 104.246 85.5774V86.1673H97.2624V84.964H102.831C102.831 84.4528 102.728 83.9966 102.524 83.5955C102.323 83.1944 102.036 82.8778 101.663 82.6458C101.293 82.4138 100.857 82.2978 100.353 82.2978C99.7988 82.2978 99.319 82.4354 98.914 82.7107C98.5129 82.982 98.2042 83.3359 97.9879 83.7724C97.7716 84.2089 97.6635 84.6769 97.6635 85.1763V85.9785C97.6635 86.6628 97.7814 87.2428 98.0174 87.7187C98.2573 88.1905 98.5896 88.5504 99.0143 88.7981C99.439 89.0419 99.9325 89.1638 100.495 89.1638C100.861 89.1638 101.191 89.1127 101.486 89.0105C101.785 88.9043 102.042 88.747 102.259 88.5386C102.475 88.3262 102.642 88.0627 102.76 87.7481L104.105 88.1257C103.963 88.5818 103.725 88.9829 103.391 89.329C103.057 89.6711 102.644 89.9385 102.152 90.1312C101.661 90.32 101.108 90.4143 100.495 90.4143ZM112.948 83.1944L111.697 83.5483C111.619 83.3399 111.503 83.1374 111.349 82.9407C111.2 82.7402 110.995 82.575 110.736 82.4452C110.476 82.3155 110.144 82.2506 109.739 82.2506C109.185 82.2506 108.722 82.3784 108.353 82.634C107.987 82.8857 107.804 83.2062 107.804 83.5955C107.804 83.9415 107.93 84.2148 108.182 84.4154C108.433 84.616 108.827 84.7831 109.361 84.9168L110.706 85.2471C111.516 85.4437 112.12 85.7446 112.517 86.1496C112.914 86.5507 113.113 87.0678 113.113 87.701C113.113 88.22 112.964 88.6841 112.665 89.093C112.37 89.502 111.957 89.8245 111.426 90.0604C110.895 90.2964 110.278 90.4143 109.574 90.4143C108.65 90.4143 107.885 90.2138 107.279 89.8127C106.674 89.4116 106.29 88.8256 106.129 88.0549L107.45 87.7245C107.576 88.2122 107.814 88.5779 108.164 88.8217C108.518 89.0655 108.98 89.1874 109.55 89.1874C110.199 89.1874 110.714 89.0498 111.096 88.7745C111.481 88.4953 111.674 88.1611 111.674 87.7717C111.674 87.4571 111.564 87.1937 111.343 86.9813C111.123 86.765 110.785 86.6038 110.329 86.4976L108.819 86.1437C107.989 85.9471 107.38 85.6423 106.99 85.2294C106.605 84.8126 106.412 84.2915 106.412 83.6663C106.412 83.155 106.556 82.7028 106.843 82.3096C107.134 81.9163 107.529 81.6076 108.028 81.3835C108.532 81.1593 109.102 81.0473 109.739 81.0473C110.636 81.0473 111.34 81.2439 111.851 81.6371C112.366 82.0304 112.732 82.5494 112.948 83.1944ZM121.792 83.1944L120.542 83.5483C120.463 83.3399 120.347 83.1374 120.194 82.9407C120.044 82.7402 119.84 82.575 119.58 82.4452C119.321 82.3155 118.989 82.2506 118.584 82.2506C118.029 82.2506 117.567 82.3784 117.197 82.634C116.832 82.8857 116.649 83.2062 116.649 83.5955C116.649 83.9415 116.775 84.2148 117.026 84.4154C117.278 84.616 117.671 84.7831 118.206 84.9168L119.551 85.2471C120.361 85.4437 120.965 85.7446 121.362 86.1496C121.759 86.5507 121.958 87.0678 121.958 87.701C121.958 88.22 121.808 88.6841 121.509 89.093C121.214 89.502 120.801 89.8245 120.271 90.0604C119.74 90.2964 119.122 90.4143 118.418 90.4143C117.494 90.4143 116.729 90.2138 116.124 89.8127C115.518 89.4116 115.135 88.8256 114.974 88.0549L116.295 87.7245C116.421 88.2122 116.659 88.5779 117.009 88.8217C117.362 89.0655 117.825 89.1874 118.395 89.1874C119.044 89.1874 119.559 89.0498 119.94 88.7745C120.326 88.4953 120.518 88.1611 120.518 87.7717C120.518 87.4571 120.408 87.1937 120.188 86.9813C119.968 86.765 119.63 86.6038 119.173 86.4976L117.663 86.1437C116.834 85.9471 116.224 85.6423 115.835 85.2294C115.449 84.8126 115.257 84.2915 115.257 83.6663C115.257 83.155 115.4 82.7028 115.687 82.3096C115.978 81.9163 116.373 81.6076 116.873 81.3835C117.376 81.1593 117.946 81.0473 118.584 81.0473C119.48 81.0473 120.184 81.2439 120.695 81.6371C121.21 82.0304 121.576 82.5494 121.792 83.1944Z" fill="#344054"/>
<path d="M28.4763 137.828C30.4421 137.828 32.0357 136.234 32.0357 134.268C32.0357 132.303 30.4421 130.709 28.4763 130.709C26.5105 130.709 24.9168 132.303 24.9168 134.268C24.9168 136.234 26.5105 137.828 28.4763 137.828ZM30.8492 134.268C30.8492 135.579 29.7868 136.641 28.4763 136.641C27.1657 136.641 26.1033 135.579 26.1033 134.268C26.1033 132.958 27.1657 131.895 28.4763 131.895C29.7868 131.895 30.8492 132.958 30.8492 134.268Z" fill="#667085"/>
<path d="M35.5951 143.76C35.5951 144.947 34.4087 144.947 34.4087 144.947H22.5439C22.5439 144.947 21.3574 144.947 21.3574 143.76C21.3574 142.574 22.5439 139.014 28.4763 139.014C34.4087 139.014 35.5951 142.574 35.5951 143.76ZM34.4086 143.756C34.4069 143.463 34.2262 142.586 33.4214 141.781C32.6475 141.007 31.1922 140.201 28.4763 140.201C25.7603 140.201 24.305 141.007 23.5312 141.781C22.7263 142.586 22.5456 143.463 22.5439 143.756H34.4086Z" fill="#667085"/>
<path d="M61.5958 131.248H63.0586V139.246C63.0586 140.072 62.864 140.809 62.4747 141.458C62.0893 142.103 61.5446 142.612 60.8407 142.986C60.1368 143.356 59.311 143.54 58.3633 143.54C57.4156 143.54 56.5898 143.356 55.8858 142.986C55.1819 142.612 54.6353 142.103 54.246 141.458C53.8606 140.809 53.6679 140.072 53.6679 139.246V131.248H55.1308V139.128C55.1308 139.718 55.2606 140.243 55.5201 140.703C55.7797 141.159 56.1493 141.519 56.6291 141.783C57.1128 142.042 57.6908 142.172 58.3633 142.172C59.0357 142.172 59.6138 142.042 60.0975 141.783C60.5812 141.519 60.9508 141.159 61.2064 140.703C61.466 140.243 61.5958 139.718 61.5958 139.128V131.248ZM72.375 136.297L71.1245 136.651C71.0459 136.442 70.9299 136.24 70.7765 136.043C70.6271 135.843 70.4226 135.678 70.163 135.548C69.9035 135.418 69.5712 135.353 69.1662 135.353C68.6117 135.353 68.1496 135.481 67.78 135.737C67.4143 135.988 67.2314 136.309 67.2314 136.698C67.2314 137.044 67.3572 137.317 67.6089 137.518C67.8606 137.718 68.2538 137.886 68.7887 138.019L70.1336 138.35C70.9436 138.546 71.5473 138.847 71.9444 139.252C72.3416 139.653 72.5402 140.17 72.5402 140.803C72.5402 141.323 72.3908 141.787 72.0919 142.196C71.797 142.605 71.3841 142.927 70.8532 143.163C70.3223 143.399 69.7049 143.517 69.001 143.517C68.0769 143.517 67.312 143.316 66.7064 142.915C66.1008 142.514 65.7174 141.928 65.5562 141.157L66.8775 140.827C67.0033 141.315 67.2412 141.68 67.5912 141.924C67.9451 142.168 68.4072 142.29 68.9774 142.29C69.6263 142.29 70.1414 142.152 70.5229 141.877C70.9082 141.598 71.1009 141.264 71.1009 140.874C71.1009 140.56 70.9908 140.296 70.7706 140.084C70.5504 139.868 70.2122 139.706 69.756 139.6L68.246 139.246C67.4162 139.05 66.8067 138.745 66.4174 138.332C66.032 137.915 65.8393 137.394 65.8393 136.769C65.8393 136.258 65.9829 135.805 66.2699 135.412C66.5609 135.019 66.9561 134.71 67.4556 134.486C67.9589 134.262 68.5291 134.15 69.1662 134.15C70.0628 134.15 70.7667 134.346 71.2779 134.74C71.793 135.133 72.1588 135.652 72.375 136.297ZM78.6006 143.517C77.7276 143.517 76.9745 143.324 76.3414 142.939C75.7122 142.55 75.2265 142.007 74.8844 141.311C74.5462 140.611 74.3771 139.797 74.3771 138.869C74.3771 137.941 74.5462 137.123 74.8844 136.415C75.2265 135.703 75.7024 135.149 76.3119 134.751C76.9253 134.35 77.641 134.15 78.459 134.15C78.9309 134.15 79.3969 134.228 79.857 134.386C80.3171 134.543 80.7359 134.799 81.1134 135.153C81.4909 135.503 81.7917 135.967 82.0159 136.545C82.24 137.123 82.3521 137.834 82.3521 138.68V139.27H75.3681V138.067H80.9364C80.9364 137.555 80.8342 137.099 80.6297 136.698C80.4292 136.297 80.1421 135.98 79.7685 135.748C79.3989 135.516 78.9623 135.4 78.459 135.4C77.9045 135.4 77.4248 135.538 77.0197 135.813C76.6186 136.085 76.3099 136.438 76.0936 136.875C75.8773 137.311 75.7692 137.779 75.7692 138.279V139.081C75.7692 139.765 75.8872 140.345 76.1231 140.821C76.363 141.293 76.6953 141.653 77.12 141.901C77.5447 142.144 78.0382 142.266 78.6006 142.266C78.9663 142.266 79.2966 142.215 79.5915 142.113C79.8904 142.007 80.148 141.85 80.3643 141.641C80.5806 141.429 80.7477 141.165 80.8657 140.851L82.2106 141.228C82.069 141.684 81.8311 142.085 81.4968 142.432C81.1626 142.774 80.7496 143.041 80.2581 143.234C79.7665 143.423 79.214 143.517 78.6006 143.517ZM84.6358 143.328V134.268H85.9807V135.636H86.0751C86.2403 135.188 86.5392 134.824 86.9717 134.545C87.4043 134.266 87.8919 134.126 88.4346 134.126C88.5368 134.126 88.6646 134.128 88.818 134.132C88.9714 134.136 89.0874 134.142 89.166 134.15V135.565C89.1188 135.554 89.0107 135.536 88.8416 135.512C88.6764 135.485 88.5014 135.471 88.3166 135.471C87.8762 135.471 87.4829 135.564 87.1369 135.748C86.7948 135.929 86.5234 136.181 86.3229 136.503C86.1262 136.822 86.0279 137.186 86.0279 137.595V143.328H84.6358Z" fill="#344054"/>
<path d="M36.7815 198.049C36.7815 198.049 37.968 198.049 37.968 196.863C37.968 195.676 36.7815 192.117 32.0356 192.117C27.2897 192.117 26.1032 195.676 26.1032 196.863C26.1032 198.049 27.2897 198.049 27.2897 198.049H36.7815ZM27.3162 196.863C27.3121 196.862 27.3064 196.862 27.2994 196.86C27.2961 196.86 27.2929 196.859 27.2897 196.859C27.2914 196.545 27.4877 195.637 28.1905 194.817C28.848 194.05 29.9981 193.303 32.0356 193.303C34.0732 193.303 35.2233 194.05 35.8807 194.817C36.5835 195.637 36.7798 196.545 36.7815 196.859C36.7783 196.859 36.7751 196.86 36.7718 196.86C36.7649 196.862 36.7591 196.862 36.755 196.863H27.3162Z" fill="#667085"/>
<path d="M32.0356 189.744C33.3461 189.744 34.4086 188.681 34.4086 187.371C34.4086 186.06 33.3461 184.998 32.0356 184.998C30.7251 184.998 29.6627 186.06 29.6627 187.371C29.6627 188.681 30.7251 189.744 32.0356 189.744ZM35.595 187.371C35.595 189.337 34.0014 190.93 32.0356 190.93C30.0698 190.93 28.4762 189.337 28.4762 187.371C28.4762 185.405 30.0698 183.812 32.0356 183.812C34.0014 183.812 35.595 185.405 35.595 187.371Z" fill="#667085"/>
<path d="M27.2137 192.449C26.7773 192.309 26.2925 192.208 25.7547 192.156C25.4886 192.13 25.2094 192.117 24.9168 192.117C20.1709 192.117 18.9844 195.676 18.9844 196.863C18.9844 197.654 19.3799 198.049 20.1709 198.049H25.1735C25.0064 197.712 24.9168 197.313 24.9168 196.863C24.9168 195.664 25.3643 194.44 26.2098 193.417C26.4986 193.068 26.8339 192.742 27.2137 192.449ZM24.8219 193.304C24.113 194.387 23.7303 195.623 23.7303 196.863H20.1709C20.1709 196.553 20.3657 195.641 21.0717 194.817C21.7188 194.062 22.8434 193.327 24.8219 193.304Z" fill="#667085"/>
<path d="M20.7641 187.964C20.7641 185.998 22.3577 184.405 24.3235 184.405C26.2893 184.405 27.8829 185.998 27.8829 187.964C27.8829 189.93 26.2893 191.524 24.3235 191.524C22.3577 191.524 20.7641 189.93 20.7641 187.964ZM24.3235 185.591C23.013 185.591 21.9506 186.654 21.9506 187.964C21.9506 189.275 23.013 190.337 24.3235 190.337C25.6341 190.337 26.6965 189.275 26.6965 187.964C26.6965 186.654 25.6341 185.591 24.3235 185.591Z" fill="#667085"/>
<path d="M63.389 188.125H61.9261C61.8396 187.704 61.6882 187.334 61.4719 187.016C61.2595 186.697 61 186.43 60.6933 186.214C60.3905 185.993 60.0542 185.828 59.6846 185.718C59.3149 185.608 58.9296 185.553 58.5285 185.553C57.797 185.553 57.1344 185.738 56.5406 186.108C55.9507 186.477 55.4808 187.022 55.1308 187.741C54.7848 188.461 54.6117 189.344 54.6117 190.39C54.6117 191.436 54.7848 192.319 55.1308 193.038C55.4808 193.758 55.9507 194.303 56.5406 194.672C57.1344 195.042 57.797 195.227 58.5285 195.227C58.9296 195.227 59.3149 195.172 59.6846 195.062C60.0542 194.952 60.3905 194.788 60.6933 194.572C61 194.352 61.2595 194.083 61.4719 193.764C61.6882 193.442 61.8396 193.072 61.9261 192.655H63.389C63.2788 193.272 63.0783 193.825 62.7873 194.313C62.4963 194.8 62.1345 195.215 61.7019 195.557C61.2694 195.895 60.7837 196.153 60.245 196.33C59.7102 196.507 59.138 196.595 58.5285 196.595C57.4982 196.595 56.5819 196.344 55.7797 195.84C54.9775 195.337 54.3463 194.621 53.8862 193.693C53.4261 192.765 53.1961 191.664 53.1961 190.39C53.1961 189.116 53.4261 188.015 53.8862 187.087C54.3463 186.159 54.9775 185.443 55.7797 184.94C56.5819 184.436 57.4982 184.185 58.5285 184.185C59.138 184.185 59.7102 184.273 60.245 184.45C60.7837 184.627 61.2694 184.886 61.7019 185.229C62.1345 185.567 62.4963 185.98 62.7873 186.467C63.0783 186.951 63.2788 187.504 63.389 188.125ZM67.1223 184.35V196.43H65.7302V184.35H67.1223ZM69.8381 196.43V187.37H71.2302V196.43H69.8381ZM70.5459 185.86C70.2746 185.86 70.0406 185.767 69.844 185.583C69.6513 185.398 69.555 185.176 69.555 184.916C69.555 184.656 69.6513 184.434 69.844 184.249C70.0406 184.065 70.2746 183.972 70.5459 183.972C70.8173 183.972 71.0493 184.065 71.242 184.249C71.4386 184.434 71.5369 184.656 71.5369 184.916C71.5369 185.176 71.4386 185.398 71.242 185.583C71.0493 185.767 70.8173 185.86 70.5459 185.86ZM77.7447 196.619C76.8717 196.619 76.1187 196.426 75.4855 196.041C74.8563 195.652 74.3707 195.109 74.0286 194.413C73.6904 193.713 73.5213 192.899 73.5213 191.971C73.5213 191.043 73.6904 190.225 74.0286 189.517C74.3707 188.805 74.8465 188.251 75.456 187.854C76.0695 187.452 76.7852 187.252 77.6032 187.252C78.0751 187.252 78.541 187.33 79.0011 187.488C79.4612 187.645 79.88 187.901 80.2576 188.255C80.6351 188.605 80.9359 189.069 81.1601 189.647C81.3842 190.225 81.4963 190.937 81.4963 191.782V192.372H74.5123V191.169H80.0806C80.0806 190.657 79.9784 190.201 79.7739 189.8C79.5733 189.399 79.2862 189.082 78.9127 188.85C78.543 188.618 78.1065 188.502 77.6032 188.502C77.0487 188.502 76.5689 188.64 76.1639 188.915C75.7628 189.187 75.4541 189.541 75.2378 189.977C75.0215 190.414 74.9134 190.881 74.9134 191.381V192.183C74.9134 192.867 75.0313 193.447 75.2673 193.923C75.5072 194.395 75.8395 194.755 76.2642 195.003C76.6889 195.247 77.1824 195.368 77.7447 195.368C78.1104 195.368 78.4408 195.317 78.7357 195.215C79.0346 195.109 79.2921 194.952 79.5084 194.743C79.7247 194.531 79.8918 194.267 80.0098 193.953L81.3547 194.33C81.2131 194.786 80.9752 195.188 80.641 195.534C80.3067 195.876 79.8938 196.143 79.4023 196.336C78.9107 196.525 78.3582 196.619 77.7447 196.619ZM85.1721 190.98V196.43H83.78V187.37H85.1249V188.785H85.2429C85.4552 188.325 85.7777 187.956 86.2103 187.677C86.6428 187.393 87.2012 187.252 87.8855 187.252C88.4989 187.252 89.0357 187.378 89.4958 187.629C89.9559 187.877 90.3138 188.255 90.5694 188.762C90.825 189.265 90.9528 189.902 90.9528 190.673V196.43H89.5607V190.767C89.5607 190.056 89.3759 189.501 89.0062 189.104C88.6366 188.703 88.1293 188.502 87.4844 188.502C87.04 188.502 86.6428 188.599 86.2928 188.791C85.9468 188.984 85.6735 189.265 85.4729 189.635C85.2724 190.005 85.1721 190.453 85.1721 190.98ZM97.603 187.37V188.55H92.9077V187.37H97.603ZM94.2762 185.199H95.6682V193.835C95.6682 194.228 95.7253 194.523 95.8393 194.72C95.9573 194.912 96.1067 195.042 96.2876 195.109C96.4724 195.172 96.6671 195.203 96.8716 195.203C97.0249 195.203 97.1508 195.195 97.2491 195.18C97.3474 195.16 97.4261 195.144 97.485 195.132L97.7682 196.383C97.6738 196.418 97.5421 196.454 97.373 196.489C97.2039 196.528 96.9896 196.548 96.73 196.548C96.3368 196.548 95.9514 196.464 95.5739 196.295C95.2003 196.125 94.8896 195.868 94.6419 195.522C94.3981 195.176 94.2762 194.739 94.2762 194.212V185.199ZM106.119 189.399L104.868 189.753C104.79 189.544 104.674 189.342 104.52 189.145C104.371 188.945 104.166 188.78 103.907 188.65C103.647 188.52 103.315 188.455 102.91 188.455C102.355 188.455 101.893 188.583 101.524 188.839C101.158 189.09 100.975 189.411 100.975 189.8C100.975 190.146 101.101 190.419 101.353 190.62C101.604 190.821 101.997 190.988 102.532 191.121L103.877 191.452C104.687 191.648 105.291 191.949 105.688 192.354C106.085 192.755 106.284 193.272 106.284 193.906C106.284 194.425 106.134 194.889 105.836 195.298C105.541 195.707 105.128 196.029 104.597 196.265C104.066 196.501 103.449 196.619 102.745 196.619C101.821 196.619 101.056 196.418 100.45 196.017C99.8445 195.616 99.4611 195.03 99.2998 194.259L100.621 193.929C100.747 194.417 100.985 194.782 101.335 195.026C101.689 195.27 102.151 195.392 102.721 195.392C103.37 195.392 103.885 195.254 104.267 194.979C104.652 194.7 104.845 194.366 104.845 193.976C104.845 193.662 104.734 193.398 104.514 193.186C104.294 192.97 103.956 192.808 103.5 192.702L101.99 192.348C101.16 192.152 100.55 191.847 100.161 191.434C99.7756 191.017 99.583 190.496 99.583 189.871C99.583 189.36 99.7265 188.907 100.014 188.514C100.305 188.121 100.7 187.812 101.199 187.588C101.703 187.364 102.273 187.252 102.91 187.252C103.806 187.252 104.51 187.448 105.022 187.842C105.537 188.235 105.902 188.754 106.119 189.399Z" fill="#344054"/>
<rect x="7.11914" y="219.855" width="236.109" height="48.3566" rx="7.11885" fill="#EBF8FF"/>
<path d="M22.5438 234.542H34.4086C35.7191 234.542 36.7816 235.604 36.7816 236.914V240.474C36.7816 241.784 35.7191 242.847 34.4086 242.847H22.5438C21.2333 242.847 20.1709 241.784 20.1709 240.474V236.914C20.1709 235.604 21.2333 234.542 22.5438 234.542ZM22.5438 235.728C21.8886 235.728 21.3574 236.259 21.3574 236.914V240.474C21.3574 241.129 21.8886 241.66 22.5438 241.66H34.4086C35.0639 241.66 35.5951 241.129 35.5951 240.474V236.914C35.5951 236.259 35.0639 235.728 34.4086 235.728H22.5438Z" fill="#158ECC"/>
<path d="M22.5438 245.22H34.4086C35.7191 245.22 36.7816 246.282 36.7816 247.593V251.152C36.7816 252.463 35.7191 253.525 34.4086 253.525H22.5438C21.2333 253.525 20.1709 252.463 20.1709 251.152V247.593C20.1709 246.282 21.2333 245.22 22.5438 245.22ZM22.5438 246.406C21.8886 246.406 21.3574 246.937 21.3574 247.593V251.152C21.3574 251.807 21.8886 252.339 22.5438 252.339H34.4086C35.0639 252.339 35.5951 251.807 35.5951 251.152V247.593C35.5951 246.937 35.0639 246.406 34.4086 246.406H22.5438Z" fill="#158ECC"/>
<path d="M59.9618 240.774C59.9068 240.259 59.6748 239.857 59.2658 239.57C58.8607 239.283 58.3338 239.14 57.6849 239.14C57.2288 239.14 56.8375 239.209 56.5111 239.346C56.1847 239.484 55.935 239.671 55.762 239.907C55.5889 240.143 55.5005 240.412 55.4965 240.715C55.4965 240.966 55.5536 241.185 55.6676 241.369C55.7856 241.554 55.9448 241.712 56.1454 241.841C56.3459 241.967 56.5681 242.073 56.8119 242.16C57.0558 242.246 57.3015 242.319 57.5493 242.378L58.6818 242.661C59.138 242.767 59.5764 242.911 59.9972 243.092C60.4219 243.273 60.8014 243.501 61.1357 243.776C61.4739 244.051 61.7413 244.384 61.9379 244.773C62.1345 245.162 62.2328 245.618 62.2328 246.141C62.2328 246.849 62.0519 247.473 61.6901 248.011C61.3284 248.546 60.8053 248.965 60.1211 249.268C59.4408 249.567 58.6169 249.716 57.6496 249.716C56.7097 249.716 55.8937 249.571 55.2016 249.28C54.5134 248.989 53.9747 248.564 53.5854 248.005C53.2 247.447 52.9916 246.767 52.9601 245.965H55.1131C55.1446 246.385 55.2744 246.735 55.5024 247.014C55.7305 247.294 56.0274 247.502 56.3931 247.64C56.7628 247.777 57.1757 247.846 57.6319 247.846C58.1077 247.846 58.5245 247.775 58.8824 247.634C59.2442 247.488 59.5273 247.288 59.7318 247.032C59.9363 246.773 60.0405 246.47 60.0444 246.124C60.0405 245.809 59.9481 245.55 59.7672 245.345C59.5863 245.137 59.3326 244.964 59.0062 244.826C58.6838 244.684 58.3063 244.559 57.8737 244.449L56.4993 244.095C55.5044 243.839 54.7179 243.452 54.1398 242.933C53.5657 242.41 53.2786 241.715 53.2786 240.85C53.2786 240.139 53.4713 239.515 53.8567 238.98C54.246 238.446 54.7749 238.031 55.4434 237.736C56.112 237.437 56.869 237.288 57.7144 237.288C58.5717 237.288 59.3228 237.437 59.9677 237.736C60.6166 238.031 61.1258 238.442 61.4955 238.969C61.8651 239.492 62.0559 240.093 62.0677 240.774H59.9618ZM68.8213 240.473V242.124H63.6128V240.473H68.8213ZM64.8987 238.302H67.034V246.808C67.034 247.095 67.0773 247.315 67.1638 247.469C67.2543 247.618 67.3722 247.72 67.5177 247.775C67.6632 247.83 67.8245 247.858 68.0014 247.858C68.1351 247.858 68.257 247.848 68.3671 247.828C68.4812 247.809 68.5677 247.791 68.6267 247.775L68.9865 249.445C68.8725 249.484 68.7093 249.527 68.4969 249.574C68.2885 249.622 68.0329 249.649 67.7301 249.657C67.1953 249.673 66.7135 249.592 66.2849 249.415C65.8563 249.234 65.5161 248.955 65.2644 248.578C65.0167 248.2 64.8948 247.728 64.8987 247.162V238.302ZM73.422 249.716C72.8479 249.716 72.3308 249.614 71.8707 249.409C71.4145 249.201 71.0527 248.894 70.7853 248.489C70.5218 248.084 70.3901 247.585 70.3901 246.991C70.3901 246.48 70.4845 246.057 70.6732 245.723C70.862 245.388 71.1196 245.121 71.446 244.92C71.7723 244.72 72.14 244.568 72.549 244.466C72.9619 244.36 73.3886 244.283 73.829 244.236C74.3599 244.181 74.7905 244.132 75.1208 244.089C75.4511 244.042 75.691 243.971 75.8405 243.876C75.9938 243.778 76.0705 243.627 76.0705 243.422V243.387C76.0705 242.942 75.9388 242.598 75.6753 242.355C75.4118 242.111 75.0323 241.989 74.5369 241.989C74.0138 241.989 73.599 242.103 73.2922 242.331C72.9894 242.559 72.7849 242.828 72.6788 243.139L70.685 242.856C70.8423 242.305 71.1019 241.845 71.4636 241.476C71.8254 241.102 72.2678 240.823 72.7908 240.638C73.3139 240.449 73.8919 240.355 74.5251 240.355C74.9616 240.355 75.3961 240.406 75.8287 240.508C76.2612 240.61 76.6564 240.78 77.0143 241.016C77.3721 241.248 77.6592 241.564 77.8755 241.965C78.0957 242.366 78.2058 242.868 78.2058 243.469V249.533H76.1531V248.289H76.0823C75.9525 248.54 75.7697 248.776 75.5337 248.996C75.3017 249.213 75.0087 249.388 74.6548 249.521C74.3048 249.651 73.8939 249.716 73.422 249.716ZM73.9765 248.147C74.4051 248.147 74.7767 248.062 75.0913 247.893C75.4059 247.72 75.6478 247.492 75.8169 247.209C75.9899 246.926 76.0764 246.617 76.0764 246.283V245.215C76.0096 245.27 75.8955 245.322 75.7343 245.369C75.577 245.416 75.4 245.457 75.2034 245.493C75.0068 245.528 74.8121 245.559 74.6194 245.587C74.4267 245.615 74.2596 245.638 74.118 245.658C73.7995 245.701 73.5144 245.772 73.2627 245.87C73.0111 245.968 72.8125 246.106 72.667 246.283C72.5215 246.456 72.4487 246.68 72.4487 246.955C72.4487 247.349 72.5923 247.646 72.8793 247.846C73.1664 248.047 73.5321 248.147 73.9765 248.147ZM85.0849 240.473V242.124H79.8763V240.473H85.0849ZM81.1622 238.302H83.2976V246.808C83.2976 247.095 83.3408 247.315 83.4273 247.469C83.5178 247.618 83.6357 247.72 83.7812 247.775C83.9268 247.83 84.088 247.858 84.2649 247.858C84.3986 247.858 84.5205 247.848 84.6307 247.828C84.7447 247.809 84.8312 247.791 84.8902 247.775L85.25 249.445C85.136 249.484 84.9728 249.527 84.7604 249.574C84.552 249.622 84.2964 249.649 83.9936 249.657C83.4588 249.673 82.9771 249.592 82.5484 249.415C82.1198 249.234 81.7796 248.955 81.528 248.578C81.2802 248.2 81.1583 247.728 81.1622 247.162V238.302ZM92.8531 245.723V240.473H94.9884V249.533H92.918V247.923H92.8236C92.6191 248.43 92.2829 248.845 91.8149 249.167C91.3509 249.49 90.7787 249.651 90.0984 249.651C89.5046 249.651 88.9796 249.519 88.5235 249.256C88.0713 248.989 87.7173 248.601 87.4617 248.094C87.2061 247.583 87.0783 246.965 87.0783 246.242V240.473H89.2136V245.911C89.2136 246.486 89.3709 246.942 89.6855 247.28C90.0001 247.618 90.413 247.787 90.9242 247.787C91.2388 247.787 91.5436 247.711 91.8385 247.557C92.1335 247.404 92.3753 247.176 92.5641 246.873C92.7568 246.566 92.8531 246.183 92.8531 245.723ZM104.553 242.868L102.606 243.08C102.551 242.883 102.455 242.699 102.317 242.526C102.184 242.353 102.003 242.213 101.775 242.107C101.546 242.001 101.267 241.948 100.937 241.948C100.493 241.948 100.119 242.044 99.8162 242.237C99.5173 242.429 99.3699 242.679 99.3738 242.986C99.3699 243.249 99.4662 243.463 99.6628 243.629C99.8634 243.794 100.194 243.929 100.654 244.036L102.199 244.366C103.057 244.551 103.694 244.844 104.11 245.245C104.531 245.646 104.744 246.171 104.747 246.82C104.744 247.39 104.576 247.893 104.246 248.33C103.92 248.762 103.466 249.101 102.884 249.344C102.302 249.588 101.633 249.71 100.878 249.71C99.769 249.71 98.8763 249.478 98.2 249.014C97.5236 248.546 97.1205 247.895 96.9907 247.062L99.073 246.861C99.1673 247.27 99.3679 247.579 99.6746 247.787C99.9814 247.996 100.381 248.1 100.872 248.1C101.379 248.1 101.786 247.996 102.093 247.787C102.404 247.579 102.559 247.321 102.559 247.014C102.559 246.755 102.459 246.541 102.258 246.372C102.062 246.202 101.755 246.073 101.338 245.982L99.7926 245.658C98.9235 245.477 98.2806 245.172 97.8637 244.743C97.4469 244.311 97.2404 243.764 97.2444 243.104C97.2404 242.545 97.3918 242.062 97.6986 241.653C98.0092 241.24 98.4398 240.921 98.9904 240.697C99.5449 240.469 100.184 240.355 100.907 240.355C101.969 240.355 102.805 240.581 103.414 241.033C104.028 241.485 104.407 242.097 104.553 242.868Z" fill="#158ECC"/>
</g>
</g>
<rect x="0.593238" y="0.91941" width="249.16" height="273.818" rx="19.4068" stroke="#EAECF0" stroke-width="1.18648"/>
<defs>
<clipPath id="clip0_7014_108528">
<rect y="0.326172" width="250.346" height="275.004" rx="20" fill="white"/>
</clipPath>
<clipPath id="clip1_7014_108528">
<rect width="250.346" height="275.004" fill="white" transform="translate(0 0.326172)"/>
</clipPath>
</defs>
</svg>
