<svg width="440" height="236" viewBox="0 0 440 236" fill="none" xmlns="http://www.w3.org/2000/svg">
<g clip-path="url(#clip0_1_47569)">
<rect x="0.0107422" y="0.287109" width="439" height="235" rx="10" fill="white"/>
<g clip-path="url(#clip1_1_47569)">
<g clip-path="url(#clip2_1_47569)">
<rect x="-438.369" y="-95.2949" width="694" height="444" rx="2.81092" fill="white"/>
<path opacity="0.4" d="M-361.446 267.406L-420.568 231.243V305.718H237.758V202.6L178.009 227.454L118.353 228.812L58.5025 248.529L-1.48569 272.835L-61.3647 254.313L-121.387 253.059L-181.313 216.479L-240.987 223.659L-300.996 237.913L-361.446 267.406Z" fill="url(#paint0_linear_1_47569)" fill-opacity="0.5"/>
<path d="M-420.568 231.243L-360.62 267.406L-301.078 237.731L-241.151 223.476L-181.44 216.196L-121.24 252.895L-61.288 254.271L-1.44599 273.013L58.7868 248.689L118.637 228.812L177.917 227.146L237.758 202.6" stroke="#1AB2FF" stroke-width="0.702729"/>
<path opacity="0.4" d="M-360.85 158.021L-420.568 199.705V305.687H237.727V171.061L178.374 168.2L117.85 204.103L58.1059 217.728L-1.49481 187.028L-61.5826 225.176L-121.183 231.353L-241.321 198.292L-301.196 156.924L-360.85 158.021Z" fill="url(#paint1_linear_1_47569)" fill-opacity="0.2"/>
<path d="M-420.568 199.737L-360.637 158.184L-300.929 156.986L-241.081 198.484L-181.103 215.69L-121.126 231.305L-61.536 225.377L-1.17061 187.061L58.1607 217.569L118.009 204.123L178.116 168.409L237.706 171.122" stroke="#F79009" stroke-width="0.702729"/>
<path opacity="0.4" d="M-360.81 120.958L-420.568 135.287V200.451H237.758V112.372L178.435 136.968L117.688 151.133L58.4156 140.817L-1.15433 155.82L-61.3629 157.424L-180.817 132.043L-240.951 122.36L-300.64 93.0391L-360.81 120.958Z" fill="url(#paint2_linear_1_47569)" fill-opacity="0.2"/>
<path d="M-420.568 135.287L-360.739 120.825L-300.64 92.8672L-241.26 121.841L-180.972 131.697L-61.3865 157.674L-1.33199 155.621L58.6611 140.839L117.688 151.355L178.237 136.747L237.758 112.372" stroke="#F04438" stroke-width="0.702729"/>
<path d="M-420.568 112.373L-360.259 91.7551L-300.894 75.9727L-241.091 103.379L-181.21 85.6741L-61.4331 100.25L-1.49213 125.806L58.3359 111.367L118.204 89.3058L237.727 89.4578" stroke="#17B26A" stroke-width="0.702729"/>
<path d="M-420.579 134.929V112.014L-360.303 91.5625L-300.733 76.0117L-240.861 103.731L-180.782 85.9865C-132.425 91.2741 -109.198 95.0796 -60.8407 100.367L-0.724182 125.961L59.1488 111.736L118.988 89.4338L238.758 89.8154V112.372L179.137 136.766L118.98 150.704L59.1802 140.667L-0.877167 155.622L-60.8407 157.378L-180.925 131.352L-240.995 121.669L-300.126 92.8678L-360.303 120.431L-420.579 134.929Z" fill="url(#paint3_linear_1_47569)" fill-opacity="0.2"/>
<line opacity="0.3" x1="58.3611" y1="5.80859" x2="58.3611" y2="300.719" stroke="#D0D5DD" stroke-width="0.702729"/>
<line opacity="0.3" x1="118.275" y1="5.80859" x2="118.275" y2="300.719" stroke="#D0D5DD" stroke-width="0.702729"/>
<line opacity="0.3" x1="178.19" y1="5.80859" x2="178.19" y2="300.719" stroke="#D0D5DD" stroke-width="0.702729"/>
<line opacity="0.3" x1="238.105" y1="5.80859" x2="238.105" y2="300.719" stroke="#D0D5DD" stroke-width="0.702729"/>
</g>
<rect x="-438.018" y="-94.9436" width="693.297" height="443.297" rx="2.45955" stroke="#EAECF0" stroke-width="0.702729"/>
<rect x="264.415" y="-3.53535" width="252.28" height="79.461" rx="2.45955" fill="#F6FEF9"/>
<rect x="264.415" y="-3.53535" width="252.28" height="79.461" rx="2.45955" stroke="#EAECF0" stroke-width="0.702729"/>
<circle cx="283.74" cy="21.4105" r="2.81092" fill="#17B26A"/>
<path d="M299.174 23.2115C299.174 23.9755 299.034 24.6323 298.755 25.182C298.475 25.7293 298.092 26.1509 297.606 26.4467C297.121 26.7402 296.57 26.8869 295.953 26.8869C295.333 26.8869 294.78 26.7402 294.294 26.4467C293.809 26.1509 293.427 25.7281 293.148 25.1785C292.868 24.6288 292.728 23.9732 292.728 23.2115C292.728 22.4476 292.868 21.7919 293.148 21.2446C293.427 20.6949 293.809 20.2733 294.294 19.9799C294.78 19.6841 295.333 19.5362 295.953 19.5362C296.57 19.5362 297.121 19.6841 297.606 19.9799C298.092 20.2733 298.475 20.6949 298.755 21.2446C299.034 21.7919 299.174 22.4476 299.174 23.2115ZM298.105 23.2115C298.105 22.6293 298.011 22.139 297.822 21.7407C297.636 21.3401 297.38 21.0373 297.054 20.8323C296.73 20.625 296.363 20.5214 295.953 20.5214C295.541 20.5214 295.173 20.625 294.849 20.8323C294.525 21.0373 294.269 21.3401 294.08 21.7407C293.894 22.139 293.801 22.6293 293.801 23.2115C293.801 23.7938 293.894 24.2853 294.08 24.6859C294.269 25.0841 294.525 25.3869 294.849 25.5942C295.173 25.7992 295.541 25.9017 295.953 25.9017C296.363 25.9017 296.73 25.7992 297.054 25.5942C297.38 25.3869 297.636 25.0841 297.822 24.6859C298.011 24.2853 298.105 23.7938 298.105 23.2115ZM300.436 28.8014V21.4228H301.456V22.2927H301.544C301.604 22.1809 301.692 22.0516 301.806 21.9049C301.92 21.7582 302.078 21.6301 302.281 21.5206C302.484 21.4088 302.751 21.3529 303.084 21.3529C303.518 21.3529 303.904 21.4624 304.244 21.6813C304.584 21.9002 304.851 22.2158 305.044 22.6281C305.24 23.0403 305.338 23.5364 305.338 24.1164C305.338 24.6963 305.241 25.1936 305.048 25.6082C304.855 26.0205 304.589 26.3384 304.251 26.562C303.914 26.7832 303.528 26.8939 303.095 26.8939C302.769 26.8939 302.502 26.8391 302.295 26.7297C302.09 26.6202 301.929 26.4921 301.813 26.3454C301.696 26.1986 301.607 26.0682 301.544 25.9541H301.481V28.8014H300.436ZM301.46 24.1059C301.46 24.4832 301.515 24.814 301.624 25.0981C301.734 25.3823 301.892 25.6047 302.099 25.7654C302.307 25.9238 302.56 26.003 302.861 26.003C303.173 26.003 303.434 25.9203 303.643 25.7549C303.853 25.5872 304.011 25.3601 304.119 25.0737C304.228 24.7872 304.283 24.4646 304.283 24.1059C304.283 23.7519 304.229 23.434 304.122 23.1521C304.017 22.8703 303.859 22.6479 303.647 22.4848C303.437 22.3218 303.175 22.2403 302.861 22.2403C302.558 22.2403 302.302 22.3183 302.092 22.4744C301.885 22.6304 301.728 22.8482 301.621 23.1277C301.513 23.4072 301.46 23.7333 301.46 24.1059ZM308.821 26.8974C308.292 26.8974 307.837 26.7844 307.455 26.5585C307.075 26.3302 306.782 26.01 306.575 25.5977C306.37 25.1831 306.267 24.6975 306.267 24.1409C306.267 23.5912 306.37 23.1067 306.575 22.6875C306.782 22.2682 307.071 21.941 307.441 21.7058C307.814 21.4705 308.249 21.3529 308.748 21.3529C309.051 21.3529 309.344 21.403 309.628 21.5031C309.912 21.6033 310.167 21.7605 310.393 21.9748C310.619 22.189 310.797 22.4674 310.928 22.8098C311.058 23.1498 311.123 23.5632 311.123 24.05V24.4203H306.858V23.6378H310.1C310.1 23.3629 310.044 23.1195 309.932 22.9076C309.82 22.6933 309.663 22.5244 309.46 22.401C309.26 22.2776 309.025 22.2158 308.755 22.2158C308.461 22.2158 308.205 22.288 307.986 22.4324C307.77 22.5745 307.602 22.7608 307.483 22.9914C307.367 23.2197 307.308 23.4677 307.308 23.7356V24.347C307.308 24.7057 307.371 25.0108 307.497 25.2623C307.625 25.5139 307.803 25.706 308.032 25.8388C308.26 25.9692 308.526 26.0344 308.832 26.0344C309.03 26.0344 309.21 26.0065 309.373 25.9506C309.536 25.8924 309.677 25.8062 309.796 25.692C309.915 25.5779 310.005 25.437 310.068 25.2693L311.057 25.4475C310.978 25.7386 310.836 25.9937 310.631 26.2126C310.428 26.4292 310.173 26.5981 309.866 26.7192C309.561 26.838 309.212 26.8974 308.821 26.8974ZM312.282 26.7891V21.4228H313.292V22.2752H313.348C313.446 21.9864 313.618 21.7593 313.865 21.594C314.114 21.4263 314.396 21.3424 314.711 21.3424C314.776 21.3424 314.853 21.3447 314.941 21.3494C315.032 21.3541 315.103 21.3599 315.154 21.3669V22.3661C315.112 22.3544 315.038 22.3416 314.931 22.3276C314.824 22.3113 314.716 22.3032 314.609 22.3032C314.362 22.3032 314.142 22.3556 313.949 22.4604C313.758 22.5629 313.607 22.7061 313.495 22.8901C313.383 23.0718 313.327 23.2791 313.327 23.512V26.7891H312.282ZM317.572 26.9078C317.232 26.9078 316.924 26.845 316.65 26.7192C316.375 26.5911 316.157 26.4059 315.996 26.1637C315.838 25.9215 315.759 25.6245 315.759 25.2728C315.759 24.97 315.817 24.7208 315.933 24.5252C316.05 24.3295 316.207 24.1746 316.405 24.0605C316.603 23.9464 316.824 23.8602 317.069 23.802C317.313 23.7437 317.563 23.6995 317.816 23.6692C318.138 23.6319 318.399 23.6017 318.599 23.5784C318.799 23.5527 318.945 23.512 319.036 23.4561C319.127 23.4002 319.172 23.3094 319.172 23.1836V23.1591C319.172 22.854 319.086 22.6176 318.913 22.4499C318.743 22.2822 318.49 22.1984 318.152 22.1984C317.8 22.1984 317.523 22.2764 317.32 22.4324C317.12 22.5862 316.981 22.7574 316.905 22.946L315.923 22.7224C316.039 22.3963 316.209 22.1332 316.433 21.9328C316.659 21.7302 316.919 21.5835 317.212 21.4926C317.506 21.3995 317.814 21.3529 318.138 21.3529C318.352 21.3529 318.579 21.3785 318.819 21.4298C319.061 21.4787 319.287 21.5695 319.497 21.7023C319.709 21.835 319.882 22.0248 320.017 22.2717C320.153 22.5163 320.22 22.8342 320.22 23.2255V26.7891H319.2V26.0554H319.158C319.09 26.1905 318.989 26.3232 318.854 26.4537C318.719 26.5841 318.545 26.6924 318.334 26.7786C318.122 26.8648 317.868 26.9078 317.572 26.9078ZM317.799 26.0694C318.088 26.0694 318.335 26.0123 318.54 25.8982C318.747 25.784 318.904 25.635 319.011 25.451C319.121 25.2647 319.176 25.0655 319.176 24.8536V24.1618C319.138 24.1991 319.066 24.234 318.959 24.2666C318.854 24.2969 318.734 24.3237 318.599 24.347C318.464 24.3679 318.332 24.3877 318.204 24.4064C318.076 24.4227 317.969 24.4367 317.883 24.4483C317.68 24.4739 317.495 24.517 317.327 24.5776C317.162 24.6381 317.029 24.7255 316.929 24.8396C316.831 24.9514 316.782 25.1005 316.782 25.2868C316.782 25.5453 316.878 25.741 317.069 25.8737C317.26 26.0041 317.503 26.0694 317.799 26.0694ZM324.116 21.4228V22.2613H321.185V21.4228H324.116ZM321.971 20.1371H323.016V25.2134C323.016 25.416 323.046 25.5686 323.107 25.6711C323.167 25.7712 323.245 25.8399 323.341 25.8772C323.439 25.9121 323.545 25.9296 323.659 25.9296C323.743 25.9296 323.816 25.9238 323.879 25.9121C323.942 25.9005 323.991 25.8912 324.026 25.8842L324.214 26.7471C324.154 26.7704 324.068 26.7937 323.956 26.817C323.844 26.8426 323.704 26.8566 323.536 26.8589C323.262 26.8636 323.005 26.8147 322.768 26.7122C322.53 26.6097 322.338 26.4513 322.191 26.2371C322.045 26.0228 321.971 25.7538 321.971 25.43V20.1371ZM325.272 26.7891V21.4228H326.317V26.7891H325.272ZM325.8 20.5948C325.618 20.5948 325.462 20.5342 325.331 20.4131C325.203 20.2897 325.139 20.1429 325.139 19.9729C325.139 19.8005 325.203 19.6538 325.331 19.5327C325.462 19.4092 325.618 19.3475 325.8 19.3475C325.981 19.3475 326.136 19.4092 326.264 19.5327C326.395 19.6538 326.46 19.8005 326.46 19.9729C326.46 20.1429 326.395 20.2897 326.264 20.4131C326.136 20.5342 325.981 20.5948 325.8 20.5948ZM329.982 26.8974C329.479 26.8974 329.04 26.7821 328.665 26.5515C328.29 26.3209 327.999 25.9983 327.792 25.5837C327.585 25.1692 327.481 24.6847 327.481 24.1304C327.481 23.5737 327.585 23.0869 327.792 22.67C327.999 22.2531 328.29 21.9294 328.665 21.6988C329.04 21.4682 329.479 21.3529 329.982 21.3529C330.485 21.3529 330.924 21.4682 331.299 21.6988C331.674 21.9294 331.966 22.2531 332.173 22.67C332.38 23.0869 332.484 23.5737 332.484 24.1304C332.484 24.6847 332.38 25.1692 332.173 25.5837C331.966 25.9983 331.674 26.3209 331.299 26.5515C330.924 26.7821 330.485 26.8974 329.982 26.8974ZM329.986 26.0205C330.312 26.0205 330.582 25.9343 330.796 25.7619C331.011 25.5896 331.169 25.3601 331.272 25.0737C331.376 24.7872 331.429 24.4716 331.429 24.1269C331.429 23.7845 331.376 23.4701 331.272 23.1836C331.169 22.8948 331.011 22.663 330.796 22.4883C330.582 22.3137 330.312 22.2263 329.986 22.2263C329.657 22.2263 329.385 22.3137 329.168 22.4883C328.954 22.663 328.794 22.8948 328.69 23.1836C328.587 23.4701 328.536 23.7845 328.536 24.1269C328.536 24.4716 328.587 24.7872 328.69 25.0737C328.794 25.3601 328.954 25.5896 329.168 25.7619C329.385 25.9343 329.657 26.0205 329.986 26.0205ZM334.694 23.6028V26.7891H333.65V21.4228H334.653V22.2962H334.719C334.842 22.012 335.036 21.7838 335.299 21.6114C335.564 21.4391 335.899 21.3529 336.302 21.3529C336.667 21.3529 336.987 21.4298 337.262 21.5835C337.537 21.7349 337.75 21.9608 337.902 22.2613C338.053 22.5617 338.129 22.9332 338.129 23.3757V26.7891H337.084V23.5015C337.084 23.1125 336.983 22.8086 336.78 22.5897C336.578 22.3684 336.299 22.2578 335.945 22.2578C335.703 22.2578 335.488 22.3102 335.299 22.415C335.113 22.5198 334.965 22.6735 334.855 22.8761C334.748 23.0764 334.694 23.3187 334.694 23.6028ZM341.091 26.9078C340.751 26.9078 340.444 26.845 340.169 26.7192C339.894 26.5911 339.676 26.4059 339.516 26.1637C339.357 25.9215 339.278 25.6245 339.278 25.2728C339.278 24.97 339.336 24.7208 339.453 24.5252C339.569 24.3295 339.727 24.1746 339.924 24.0605C340.122 23.9464 340.344 23.8602 340.588 23.802C340.833 23.7437 341.082 23.6995 341.336 23.6692C341.657 23.6319 341.918 23.6017 342.119 23.5784C342.319 23.5527 342.464 23.512 342.555 23.4561C342.646 23.4002 342.691 23.3094 342.691 23.1836V23.1591C342.691 22.854 342.605 22.6176 342.433 22.4499C342.263 22.2822 342.009 22.1984 341.671 22.1984C341.32 22.1984 341.042 22.2764 340.84 22.4324C340.64 22.5862 340.501 22.7574 340.424 22.946L339.442 22.7224C339.559 22.3963 339.729 22.1332 339.952 21.9328C340.178 21.7302 340.438 21.5835 340.732 21.4926C341.025 21.3995 341.334 21.3529 341.657 21.3529C341.872 21.3529 342.099 21.3785 342.339 21.4298C342.581 21.4787 342.807 21.5695 343.016 21.7023C343.228 21.835 343.402 22.0248 343.537 22.2717C343.672 22.5163 343.74 22.8342 343.74 23.2255V26.7891H342.719V26.0554H342.678C342.61 26.1905 342.509 26.3232 342.374 26.4537C342.238 26.5841 342.065 26.6924 341.853 26.7786C341.641 26.8648 341.387 26.9078 341.091 26.9078ZM341.318 26.0694C341.607 26.0694 341.854 26.0123 342.059 25.8982C342.266 25.784 342.424 25.635 342.531 25.451C342.64 25.2647 342.695 25.0655 342.695 24.8536V24.1618C342.658 24.1991 342.586 24.234 342.478 24.2666C342.374 24.2969 342.254 24.3237 342.119 24.347C341.983 24.3679 341.852 24.3877 341.724 24.4064C341.596 24.4227 341.488 24.4367 341.402 24.4483C341.2 24.4739 341.015 24.517 340.847 24.5776C340.681 24.6381 340.549 24.7255 340.449 24.8396C340.351 24.9514 340.302 25.1005 340.302 25.2868C340.302 25.5453 340.397 25.741 340.588 25.8737C340.779 26.0041 341.023 26.0694 341.318 26.0694ZM346.176 19.634V26.7891H345.131V19.634H346.176ZM350.268 26.7891V19.634H352.819C353.375 19.634 353.837 19.7353 354.202 19.938C354.568 20.1406 354.842 20.4178 355.023 20.7695C355.205 21.1188 355.296 21.5124 355.296 21.9503C355.296 22.3905 355.204 22.7865 355.02 23.1382C354.838 23.4875 354.563 23.7647 354.195 23.9697C353.83 24.1723 353.37 24.2736 352.815 24.2736H351.061V23.3583H352.717C353.069 23.3583 353.354 23.2977 353.573 23.1766C353.792 23.0532 353.953 22.8855 354.056 22.6735C354.158 22.4616 354.209 22.2205 354.209 21.9503C354.209 21.6801 354.158 21.4402 354.056 21.2306C353.953 21.021 353.791 20.8568 353.57 20.738C353.351 20.6192 353.062 20.5598 352.703 20.5598H351.348V26.7891H350.268ZM356.478 26.7891V21.4228H357.487V22.2752H357.543C357.641 21.9864 357.813 21.7593 358.06 21.594C358.309 21.4263 358.591 21.3424 358.906 21.3424C358.971 21.3424 359.048 21.3447 359.136 21.3494C359.227 21.3541 359.298 21.3599 359.349 21.3669V22.3661C359.307 22.3544 359.233 22.3416 359.126 22.3276C359.019 22.3113 358.911 22.3032 358.804 22.3032C358.557 22.3032 358.337 22.3556 358.144 22.4604C357.953 22.5629 357.802 22.7061 357.69 22.8901C357.578 23.0718 357.522 23.2791 357.522 23.512V26.7891H356.478ZM362.322 26.8974C361.819 26.8974 361.379 26.7821 361.004 26.5515C360.629 26.3209 360.338 25.9983 360.131 25.5837C359.924 25.1692 359.82 24.6847 359.82 24.1304C359.82 23.5737 359.924 23.0869 360.131 22.67C360.338 22.2531 360.629 21.9294 361.004 21.6988C361.379 21.4682 361.819 21.3529 362.322 21.3529C362.825 21.3529 363.264 21.4682 363.639 21.6988C364.014 21.9294 364.305 22.2531 364.512 22.67C364.719 23.0869 364.823 23.5737 364.823 24.1304C364.823 24.6847 364.719 25.1692 364.512 25.5837C364.305 25.9983 364.014 26.3209 363.639 26.5515C363.264 26.7821 362.825 26.8974 362.322 26.8974ZM362.325 26.0205C362.651 26.0205 362.921 25.9343 363.136 25.7619C363.35 25.5896 363.508 25.3601 363.611 25.0737C363.716 24.7872 363.768 24.4716 363.768 24.1269C363.768 23.7845 363.716 23.4701 363.611 23.1836C363.508 22.8948 363.35 22.663 363.136 22.4883C362.921 22.3137 362.651 22.2263 362.325 22.2263C361.997 22.2263 361.724 22.3137 361.508 22.4883C361.293 22.663 361.134 22.8948 361.029 23.1836C360.926 23.4701 360.875 23.7845 360.875 24.1269C360.875 24.4716 360.926 24.7872 361.029 25.0737C361.134 25.3601 361.293 25.5896 361.508 25.7619C361.724 25.9343 361.997 26.0205 362.325 26.0205ZM368.543 21.4228V22.2613H365.51V21.4228H368.543ZM366.342 26.7891V20.8009C366.342 20.4655 366.415 20.1872 366.562 19.9659C366.709 19.7423 366.903 19.5758 367.145 19.4663C367.388 19.3545 367.651 19.2986 367.935 19.2986C368.145 19.2986 368.324 19.3161 368.473 19.351C368.622 19.3836 368.733 19.4139 368.805 19.4419L368.56 20.2873C368.512 20.2733 368.449 20.257 368.372 20.2384C368.295 20.2174 368.202 20.207 368.092 20.207C367.838 20.207 367.657 20.2699 367.547 20.3956C367.44 20.5214 367.387 20.7031 367.387 20.9406V26.7891H366.342ZM369.621 26.7891V21.4228H370.665V26.7891H369.621ZM370.148 20.5948C369.967 20.5948 369.811 20.5342 369.68 20.4131C369.552 20.2897 369.488 20.1429 369.488 19.9729C369.488 19.8005 369.552 19.6538 369.68 19.5327C369.811 19.4092 369.967 19.3475 370.148 19.3475C370.33 19.3475 370.485 19.4092 370.613 19.5327C370.743 19.6538 370.809 19.8005 370.809 19.9729C370.809 20.1429 370.743 20.2897 370.613 20.4131C370.485 20.5342 370.33 20.5948 370.148 20.5948ZM374.576 21.4228V22.2613H371.644V21.4228H374.576ZM372.431 20.1371H373.475V25.2134C373.475 25.416 373.505 25.5686 373.566 25.6711C373.627 25.7712 373.705 25.8399 373.8 25.8772C373.898 25.9121 374.004 25.9296 374.118 25.9296C374.202 25.9296 374.275 25.9238 374.338 25.9121C374.401 25.9005 374.45 25.8912 374.485 25.8842L374.674 26.7471C374.613 26.7704 374.527 26.7937 374.415 26.817C374.303 26.8426 374.163 26.8566 373.996 26.8589C373.721 26.8636 373.465 26.8147 373.227 26.7122C372.99 26.6097 372.797 26.4513 372.651 26.2371C372.504 26.0228 372.431 25.7538 372.431 25.43V20.1371Z" fill="#475467"/>
<path d="M297.06 52.1328V36.8006H298.042V52.1328H297.06ZM300.366 41.4002C300.294 40.7933 300.003 40.3222 299.492 39.9868C298.981 39.6514 298.354 39.4837 297.611 39.4837C297.068 39.4837 296.593 39.5716 296.186 39.7472C295.782 39.9229 295.467 40.1645 295.239 40.4719C295.016 40.7794 294.904 41.1287 294.904 41.52C294.904 41.8474 294.982 42.1289 295.137 42.3645C295.297 42.5961 295.501 42.7897 295.748 42.9455C295.996 43.0972 296.255 43.223 296.527 43.3228C296.798 43.4186 297.048 43.4965 297.276 43.5563L298.521 43.8917C298.841 43.9756 299.196 44.0914 299.587 44.2391C299.983 44.3868 300.36 44.5885 300.719 44.844C301.083 45.0956 301.382 45.419 301.618 45.8143C301.853 46.2095 301.971 46.6947 301.971 47.2696C301.971 47.9324 301.797 48.5314 301.45 49.0664C301.107 49.6014 300.604 50.0266 299.941 50.3421C299.282 50.6575 298.481 50.8152 297.539 50.8152C296.661 50.8152 295.9 50.6735 295.257 50.39C294.618 50.1065 294.115 49.7112 293.748 49.2041C293.385 48.6971 293.179 48.1081 293.131 47.4373H294.664C294.704 47.9005 294.86 48.2838 295.132 48.5872C295.407 48.8867 295.754 49.1103 296.174 49.258C296.597 49.4018 297.052 49.4736 297.539 49.4736C298.106 49.4736 298.615 49.3818 299.066 49.1981C299.518 49.0105 299.875 48.751 300.138 48.4196C300.402 48.0842 300.534 47.6929 300.534 47.2457C300.534 46.8384 300.42 46.507 300.192 46.2515C299.965 45.9959 299.665 45.7883 299.294 45.6286C298.923 45.4689 298.521 45.3291 298.09 45.2094L296.581 44.7781C295.623 44.5026 294.864 44.1093 294.305 43.5983C293.746 43.0872 293.467 42.4184 293.467 41.5919C293.467 40.9051 293.652 40.3062 294.024 39.7952C294.399 39.2801 294.902 38.8808 295.533 38.5973C296.168 38.3098 296.876 38.1661 297.659 38.1661C298.449 38.1661 299.152 38.3078 299.767 38.5913C300.382 38.8708 300.869 39.2541 301.228 39.7412C301.592 40.2284 301.783 40.7814 301.803 41.4002H300.366ZM308.342 50.7673C307.552 50.7673 306.847 50.6316 306.228 50.36C305.613 50.0885 305.124 49.7112 304.761 49.2281C304.401 48.741 304.206 48.176 304.174 47.5332H305.683C305.715 47.9284 305.851 48.2698 306.09 48.5573C306.33 48.8408 306.643 49.0604 307.03 49.2161C307.418 49.3718 307.847 49.4497 308.318 49.4497C308.845 49.4497 309.312 49.3579 309.72 49.1742C310.127 48.9905 310.446 48.735 310.678 48.4076C310.909 48.0802 311.025 47.7009 311.025 47.2696C311.025 46.8184 310.913 46.4212 310.69 46.0778C310.466 45.7304 310.139 45.4589 309.708 45.2633C309.276 45.0676 308.749 44.9698 308.126 44.9698H307.144V43.6522H308.126C308.614 43.6522 309.041 43.5643 309.408 43.3887C309.78 43.213 310.069 42.9654 310.277 42.646C310.488 42.3266 310.594 41.9513 310.594 41.52C310.594 41.1048 310.502 40.7434 310.319 40.436C310.135 40.1285 309.875 39.889 309.54 39.7173C309.209 39.5456 308.817 39.4598 308.366 39.4598C307.943 39.4598 307.544 39.5376 307.168 39.6933C306.797 39.8451 306.493 40.0667 306.258 40.3581C306.022 40.6456 305.895 40.993 305.875 41.4002H304.437C304.461 40.7574 304.655 40.1944 305.018 39.7113C305.381 39.2242 305.857 38.8449 306.444 38.5734C307.034 38.3019 307.683 38.1661 308.39 38.1661C309.149 38.1661 309.799 38.3198 310.342 38.6273C310.886 38.9307 311.303 39.332 311.594 39.8311C311.886 40.3302 312.031 40.8692 312.031 41.4482C312.031 42.1389 311.85 42.7278 311.486 43.215C311.127 43.7021 310.638 44.0395 310.019 44.2271V44.323C310.794 44.4507 311.399 44.7801 311.834 45.3112C312.269 45.8382 312.487 46.491 312.487 47.2696C312.487 47.9364 312.305 48.5353 311.942 49.0664C311.582 49.5934 311.091 50.0087 310.468 50.3121C309.845 50.6156 309.137 50.7673 308.342 50.7673ZM316.69 48.9226L316.594 49.5695C316.526 50.0246 316.422 50.5118 316.282 51.0308C316.146 51.5499 316.005 52.039 315.857 52.4982C315.709 52.9573 315.587 53.3227 315.492 53.5942H314.414C314.466 53.3387 314.533 53.0013 314.617 52.582C314.701 52.1628 314.785 51.6936 314.869 51.1746C314.957 50.6595 315.029 50.1325 315.084 49.5934L315.156 48.9226H316.69ZM319.284 50.5996V49.5216L323.333 45.0896C323.808 44.5705 324.199 44.1193 324.507 43.736C324.814 43.3487 325.042 42.9854 325.19 42.646C325.341 42.3026 325.417 41.9433 325.417 41.5679C325.417 41.1367 325.313 40.7634 325.106 40.448C324.902 40.1325 324.623 39.889 324.267 39.7173C323.912 39.5456 323.513 39.4598 323.069 39.4598C322.598 39.4598 322.187 39.5576 321.836 39.7532C321.488 39.9449 321.219 40.2144 321.027 40.5618C320.839 40.9091 320.746 41.3164 320.746 41.7836H319.332C319.332 41.0649 319.498 40.434 319.829 39.891C320.161 39.348 320.612 38.9247 321.183 38.6213C321.758 38.3178 322.403 38.1661 323.117 38.1661C323.836 38.1661 324.473 38.3178 325.028 38.6213C325.583 38.9247 326.018 39.334 326.334 39.8491C326.649 40.3641 326.807 40.9371 326.807 41.5679C326.807 42.0191 326.725 42.4603 326.561 42.8916C326.401 43.3188 326.122 43.7959 325.723 44.323C325.327 44.846 324.778 45.4849 324.076 46.2395L321.321 49.1862V49.282H327.022V50.5996H319.284ZM333.329 50.7673C332.626 50.7673 331.993 50.6276 331.43 50.3481C330.867 50.0686 330.416 49.6853 330.077 49.1981C329.737 48.711 329.552 48.156 329.52 47.5332H330.957C331.013 48.0882 331.265 48.5473 331.712 48.9107C332.163 49.27 332.702 49.4497 333.329 49.4497C333.832 49.4497 334.279 49.3319 334.67 49.0963C335.066 48.8608 335.375 48.5373 335.599 48.1261C335.826 47.7108 335.94 47.2417 335.94 46.7186C335.94 46.1836 335.822 45.7065 335.587 45.2872C335.355 44.864 335.036 44.5306 334.629 44.287C334.221 44.0435 333.756 43.9197 333.233 43.9157C332.858 43.9117 332.472 43.9696 332.077 44.0894C331.682 44.2052 331.356 44.3549 331.101 44.5386L329.711 44.3709L330.454 38.3338H336.827V39.6514H331.7L331.269 43.2689H331.341C331.592 43.0692 331.907 42.9035 332.287 42.7718C332.666 42.64 333.061 42.5741 333.473 42.5741C334.223 42.5741 334.892 42.7538 335.479 43.1132C336.07 43.4685 336.533 43.9556 336.869 44.5745C337.208 45.1934 337.378 45.9001 337.378 46.6947C337.378 47.4773 337.202 48.176 336.851 48.7909C336.503 49.4018 336.024 49.8849 335.413 50.2403C334.802 50.5916 334.108 50.7673 333.329 50.7673ZM343.829 50.7673C343.326 50.7593 342.823 50.6635 342.32 50.4798C341.817 50.2962 341.358 49.9867 340.943 49.5515C340.527 49.1123 340.194 48.5194 339.942 47.7727C339.691 47.0221 339.565 46.0798 339.565 44.9458C339.565 43.8598 339.667 42.8975 339.871 42.0591C340.074 41.2166 340.37 40.5079 340.757 39.9329C341.144 39.354 341.611 38.9147 342.158 38.6153C342.709 38.3158 343.33 38.1661 344.021 38.1661C344.708 38.1661 345.319 38.3038 345.854 38.5794C346.393 38.8509 346.832 39.2302 347.171 39.7173C347.511 40.2044 347.73 40.7654 347.83 41.4002H346.369C346.233 40.8492 345.97 40.3921 345.578 40.0287C345.187 39.6654 344.668 39.4837 344.021 39.4837C343.071 39.4837 342.322 39.897 341.775 40.7235C341.232 41.55 340.959 42.7099 340.955 44.2032H341.05C341.274 43.8638 341.54 43.5743 341.847 43.3347C342.158 43.0912 342.502 42.9035 342.877 42.7718C343.252 42.64 343.65 42.5741 344.069 42.5741C344.772 42.5741 345.415 42.7498 345.997 43.1012C346.58 43.4485 347.048 43.9297 347.399 44.5446C347.75 45.1555 347.926 45.8562 347.926 46.6468C347.926 47.4054 347.756 48.1001 347.417 48.731C347.078 49.3579 346.6 49.857 345.986 50.2283C345.375 50.5956 344.656 50.7753 343.829 50.7673ZM343.829 49.4497C344.333 49.4497 344.784 49.3239 345.183 49.0724C345.586 48.8208 345.904 48.4834 346.135 48.0602C346.371 47.637 346.489 47.1658 346.489 46.6468C346.489 46.1397 346.375 45.6785 346.147 45.2633C345.924 44.844 345.614 44.5106 345.219 44.2631C344.828 44.0155 344.38 43.8917 343.877 43.8917C343.498 43.8917 343.145 43.9676 342.817 44.1193C342.49 44.2671 342.202 44.4707 341.955 44.7302C341.711 44.9898 341.52 45.2872 341.38 45.6226C341.24 45.954 341.17 46.3034 341.17 46.6707C341.17 47.1578 341.284 47.613 341.512 48.0362C341.743 48.4595 342.059 48.8009 342.458 49.0604C342.861 49.3199 343.318 49.4497 343.829 49.4497ZM350.759 50.6954C350.463 50.6954 350.21 50.5896 349.998 50.378C349.787 50.1664 349.681 49.9129 349.681 49.6174C349.681 49.3219 349.787 49.0684 349.998 48.8568C350.21 48.6451 350.463 48.5393 350.759 48.5393C351.054 48.5393 351.308 48.6451 351.52 48.8568C351.731 49.0684 351.837 49.3219 351.837 49.6174C351.837 49.813 351.787 49.9927 351.687 50.1564C351.591 50.3201 351.462 50.4519 351.298 50.5517C351.138 50.6475 350.959 50.6954 350.759 50.6954ZM354.349 50.5996V49.5216L358.398 45.0896C358.873 44.5705 359.264 44.1193 359.572 43.736C359.879 43.3487 360.107 42.9854 360.255 42.646C360.406 42.3026 360.482 41.9433 360.482 41.5679C360.482 41.1367 360.378 40.7634 360.171 40.448C359.967 40.1325 359.688 39.889 359.332 39.7173C358.977 39.5456 358.578 39.4598 358.135 39.4598C357.663 39.4598 357.252 39.5576 356.901 39.7532C356.553 39.9449 356.284 40.2144 356.092 40.5618C355.905 40.9091 355.811 41.3164 355.811 41.7836H354.397C354.397 41.0649 354.563 40.434 354.894 39.891C355.226 39.348 355.677 38.9247 356.248 38.6213C356.823 38.3178 357.468 38.1661 358.182 38.1661C358.901 38.1661 359.538 38.3178 360.093 38.6213C360.648 38.9247 361.083 39.334 361.399 39.8491C361.714 40.3641 361.872 40.9371 361.872 41.5679C361.872 42.0191 361.79 42.4603 361.626 42.8916C361.467 43.3188 361.187 43.7959 360.788 44.323C360.392 44.846 359.843 45.4849 359.141 46.2395L356.386 49.1862V49.282H362.087V50.5996H354.349ZM368.873 38.3338V50.5996H367.388V39.891H367.316L364.321 41.8794V40.3701L367.388 38.3338H368.873Z" fill="#101828"/>
<g clip-path="url(#clip3_1_47569)">
<path d="M438.805 52.6016H437.422L439.941 45.4465H441.541L444.063 52.6016H442.68L440.769 46.9139H440.713L438.805 52.6016ZM438.851 49.7961H442.624V50.8373H438.851V49.7961ZM446.778 52.6959C446.356 52.6959 445.979 52.5876 445.646 52.371C445.313 52.1544 445.05 51.8399 444.856 51.4277C444.663 51.0154 444.566 50.5147 444.566 49.9254C444.566 49.3291 444.664 48.8261 444.86 48.4161C445.058 48.0039 445.324 47.6929 445.66 47.4833C445.995 47.2714 446.369 47.1654 446.781 47.1654C447.096 47.1654 447.354 47.219 447.557 47.3261C447.76 47.4309 447.92 47.5579 448.039 47.7069C448.158 47.8537 448.25 47.9922 448.315 48.1227H448.367V45.4465H449.636V52.6016H448.392V51.7561H448.315C448.25 51.8865 448.155 52.0251 448.032 52.1718C447.909 52.3162 447.746 52.4397 447.543 52.5422C447.34 52.6447 447.085 52.6959 446.778 52.6959ZM447.131 51.6583C447.399 51.6583 447.627 51.5861 447.815 51.4417C448.004 51.2949 448.147 51.0911 448.245 50.8303C448.343 50.5694 448.392 50.2655 448.392 49.9184C448.392 49.5714 448.343 49.2698 448.245 49.0136C448.15 48.7573 448.008 48.5582 447.819 48.4161C447.633 48.2741 447.403 48.203 447.131 48.203C446.849 48.203 446.614 48.2764 446.425 48.4231C446.236 48.5699 446.094 48.7725 445.999 49.031C445.903 49.2896 445.855 49.5854 445.855 49.9184C445.855 50.2538 445.903 50.5531 445.999 50.8163C446.097 51.0772 446.24 51.2833 446.428 51.4347C446.619 51.5837 446.854 51.6583 447.131 51.6583ZM452.975 52.6959C452.553 52.6959 452.176 52.5876 451.843 52.371C451.51 52.1544 451.247 51.8399 451.053 51.4277C450.86 51.0154 450.763 50.5147 450.763 49.9254C450.763 49.3291 450.861 48.8261 451.057 48.4161C451.255 48.0039 451.521 47.6929 451.857 47.4833C452.192 47.2714 452.566 47.1654 452.978 47.1654C453.293 47.1654 453.551 47.219 453.754 47.3261C453.956 47.4309 454.117 47.5579 454.236 47.7069C454.355 47.8537 454.447 47.9922 454.512 48.1227H454.564V45.4465H455.833V52.6016H454.589V51.7561H454.512C454.447 51.8865 454.352 52.0251 454.229 52.1718C454.106 52.3162 453.942 52.4397 453.74 52.5422C453.537 52.6447 453.282 52.6959 452.975 52.6959ZM453.328 51.6583C453.595 51.6583 453.824 51.5861 454.012 51.4417C454.201 51.2949 454.344 51.0911 454.442 50.8303C454.54 50.5694 454.589 50.2655 454.589 49.9184C454.589 49.5714 454.54 49.2698 454.442 49.0136C454.347 48.7573 454.204 48.5582 454.016 48.4161C453.83 48.2741 453.6 48.203 453.328 48.203C453.046 48.203 452.811 48.2764 452.622 48.4231C452.433 48.5699 452.291 48.7725 452.196 49.031C452.1 49.2896 452.052 49.5854 452.052 49.9184C452.052 50.2538 452.1 50.5531 452.196 50.8163C452.293 51.0772 452.437 51.2833 452.625 51.4347C452.816 51.5837 453.05 51.6583 453.328 51.6583ZM459.676 52.6016V45.4465H464.33V46.533H460.973V48.4755H464.089V49.5621H460.973V51.515H464.358V52.6016H459.676ZM466.631 47.2353L467.714 49.2162L468.814 47.2353H470.152L468.535 49.9184L470.18 52.6016H468.849L467.714 50.6696L466.589 52.6016H465.247L466.882 49.9184L465.289 47.2353H466.631ZM471.131 54.6139V47.2353H472.374V48.1227H472.448C472.513 47.9922 472.605 47.8537 472.724 47.7069C472.842 47.5579 473.003 47.4309 473.206 47.3261C473.408 47.219 473.667 47.1654 473.981 47.1654C474.396 47.1654 474.77 47.2714 475.103 47.4833C475.438 47.6929 475.704 48.0039 475.899 48.4161C476.097 48.8261 476.196 49.3291 476.196 49.9254C476.196 50.5147 476.1 51.0154 475.906 51.4277C475.713 51.8399 475.45 52.1544 475.117 52.371C474.784 52.5876 474.406 52.6959 473.985 52.6959C473.677 52.6959 473.422 52.6447 473.22 52.5422C473.017 52.4397 472.854 52.3162 472.731 52.1718C472.609 52.0251 472.515 51.8865 472.448 51.7561H472.395V54.6139H471.131ZM472.371 49.9184C472.371 50.2655 472.42 50.5694 472.517 50.8303C472.618 51.0911 472.761 51.2949 472.947 51.4417C473.136 51.5861 473.364 51.6583 473.632 51.6583C473.911 51.6583 474.146 51.5837 474.334 51.4347C474.523 51.2833 474.665 51.0772 474.76 50.8163C474.858 50.5531 474.907 50.2538 474.907 49.9184C474.907 49.5854 474.859 49.2896 474.764 49.031C474.668 48.7725 474.526 48.5699 474.338 48.4231C474.149 48.2764 473.914 48.203 473.632 48.203C473.362 48.203 473.132 48.2741 472.944 48.4161C472.755 48.5582 472.612 48.7573 472.514 49.0136C472.419 49.2698 472.371 49.5714 472.371 49.9184ZM479.655 52.7064C479.117 52.7064 478.652 52.5946 478.261 52.371C477.872 52.1451 477.573 51.826 477.363 51.4137C477.154 50.9991 477.049 50.5112 477.049 49.9499C477.049 49.3979 477.154 48.9134 477.363 48.4965C477.575 48.0772 477.871 47.7512 478.251 47.5183C478.63 47.283 479.076 47.1654 479.589 47.1654C479.919 47.1654 480.232 47.219 480.525 47.3261C480.821 47.4309 481.082 47.594 481.308 47.8152C481.536 48.0365 481.715 48.3183 481.846 48.6607C481.976 49.0007 482.041 49.406 482.041 49.8765V50.2643H477.643V49.4118H480.829C480.827 49.1696 480.774 48.9542 480.672 48.7655C480.569 48.5745 480.426 48.4243 480.242 48.3148C480.06 48.2053 479.848 48.1506 479.606 48.1506C479.348 48.1506 479.121 48.2135 478.925 48.3393C478.729 48.4627 478.577 48.6258 478.467 48.8284C478.36 49.0287 478.305 49.2488 478.303 49.4887V50.2328C478.303 50.5449 478.36 50.8128 478.474 51.0364C478.588 51.2577 478.748 51.4277 478.953 51.5465C479.158 51.6629 479.398 51.7212 479.673 51.7212C479.857 51.7212 480.023 51.6955 480.172 51.6443C480.321 51.5907 480.45 51.5127 480.56 51.4102C480.669 51.3077 480.752 51.1808 480.808 51.0294L481.989 51.1622C481.914 51.4743 481.772 51.7468 481.563 51.9797C481.355 52.2103 481.09 52.3896 480.766 52.5177C480.442 52.6435 480.072 52.7064 479.655 52.7064ZM484.376 49.4572V52.6016H483.111V47.2353H484.32V48.1471H484.383C484.506 47.8467 484.703 47.6079 484.973 47.4309C485.246 47.2539 485.582 47.1654 485.983 47.1654C486.353 47.1654 486.676 47.2446 486.951 47.403C487.228 47.5613 487.442 47.7908 487.594 48.0912C487.747 48.3917 487.823 48.7562 487.821 49.1847V52.6016H486.556V49.3804C486.556 49.0217 486.463 48.741 486.276 48.5384C486.092 48.3358 485.837 48.2345 485.511 48.2345C485.29 48.2345 485.093 48.2834 484.921 48.3812C484.751 48.4767 484.617 48.6153 484.519 48.7969C484.424 48.9786 484.376 49.1987 484.376 49.4572ZM493.348 48.6537L492.195 48.7795C492.162 48.663 492.105 48.5536 492.024 48.4511C491.944 48.3486 491.837 48.2659 491.702 48.203C491.567 48.1401 491.402 48.1087 491.206 48.1087C490.943 48.1087 490.722 48.1658 490.542 48.2799C490.365 48.394 490.278 48.5419 490.28 48.7236C490.278 48.8796 490.335 49.0066 490.451 49.1044C490.57 49.2022 490.766 49.2826 491.038 49.3455L491.954 49.5411C492.461 49.6506 492.839 49.8241 493.086 50.0617C493.335 50.2992 493.461 50.6102 493.463 50.9945C493.461 51.3322 493.362 51.6303 493.166 51.8889C492.973 52.1451 492.704 52.3454 492.359 52.4898C492.014 52.6342 491.618 52.7064 491.171 52.7064C490.514 52.7064 489.986 52.569 489.585 52.2941C489.184 52.017 488.946 51.6315 488.869 51.1377L490.102 51.0189C490.158 51.2612 490.277 51.444 490.458 51.5674C490.64 51.6909 490.876 51.7526 491.168 51.7526C491.468 51.7526 491.709 51.6909 491.891 51.5674C492.075 51.444 492.167 51.2914 492.167 51.1098C492.167 50.956 492.107 50.8291 491.989 50.7289C491.872 50.6288 491.691 50.5519 491.444 50.4984L490.528 50.3062C490.014 50.1991 489.633 50.0186 489.386 49.7647C489.139 49.5085 489.017 49.1847 489.019 48.7935C489.017 48.4627 489.106 48.1762 489.288 47.934C489.472 47.6894 489.727 47.5008 490.053 47.368C490.382 47.2329 490.76 47.1654 491.189 47.1654C491.817 47.1654 492.312 47.2993 492.673 47.5672C493.037 47.835 493.262 48.1972 493.348 48.6537ZM496.882 52.7064C496.344 52.7064 495.879 52.5946 495.488 52.371C495.099 52.1451 494.799 51.826 494.59 51.4137C494.38 50.9991 494.275 50.5112 494.275 49.9499C494.275 49.3979 494.38 48.9134 494.59 48.4965C494.802 48.0772 495.097 47.7512 495.477 47.5183C495.857 47.283 496.303 47.1654 496.815 47.1654C497.146 47.1654 497.458 47.219 497.751 47.3261C498.047 47.4309 498.308 47.594 498.534 47.8152C498.762 48.0365 498.942 48.3183 499.072 48.6607C499.203 49.0007 499.268 49.406 499.268 49.8765V50.2643H494.869V49.4118H498.055C498.053 49.1696 498.001 48.9542 497.898 48.7655C497.796 48.5745 497.652 48.4243 497.468 48.3148C497.287 48.2053 497.075 48.1506 496.833 48.1506C496.574 48.1506 496.347 48.2135 496.151 48.3393C495.956 48.4627 495.803 48.6258 495.694 48.8284C495.587 49.0287 495.532 49.2488 495.53 49.4887V50.2328C495.53 50.5449 495.587 50.8128 495.701 51.0364C495.815 51.2577 495.974 51.4277 496.179 51.5465C496.384 51.6629 496.624 51.7212 496.899 51.7212C497.083 51.7212 497.25 51.6955 497.399 51.6443C497.548 51.5907 497.677 51.5127 497.786 51.4102C497.896 51.3077 497.979 51.1808 498.034 51.0294L499.215 51.1622C499.141 51.4743 498.999 51.7468 498.789 51.9797C498.582 52.2103 498.316 52.3896 497.993 52.5177C497.669 52.6435 497.298 52.7064 496.882 52.7064Z" fill="#158ECC"/>
</g>
<rect x="264.415" y="87.8709" width="252.28" height="79.461" rx="2.45955" fill="#FFFBFA"/>
<rect x="264.415" y="87.8709" width="252.28" height="79.461" rx="2.45955" stroke="#EAECF0" stroke-width="0.702729"/>
<circle cx="283.74" cy="112.817" r="2.81092" fill="#F04438"/>
<path d="M298.902 113.367H297.812C297.77 113.134 297.692 112.929 297.578 112.752C297.463 112.575 297.324 112.425 297.158 112.301C296.993 112.178 296.808 112.085 296.603 112.022C296.4 111.959 296.185 111.928 295.957 111.928C295.544 111.928 295.175 112.031 294.849 112.239C294.525 112.446 294.269 112.75 294.08 113.15C293.894 113.551 293.801 114.04 293.801 114.618C293.801 115.2 293.894 115.692 294.08 116.092C294.269 116.493 294.526 116.796 294.853 117C295.179 117.205 295.545 117.308 295.953 117.308C296.179 117.308 296.393 117.278 296.596 117.217C296.801 117.154 296.986 117.062 297.151 116.941C297.317 116.82 297.456 116.672 297.571 116.497C297.687 116.32 297.767 116.118 297.812 115.889L298.902 115.893C298.843 116.245 298.73 116.568 298.563 116.864C298.397 117.158 298.184 117.412 297.923 117.626C297.665 117.838 297.369 118.002 297.036 118.118C296.703 118.235 296.34 118.293 295.946 118.293C295.326 118.293 294.774 118.146 294.29 117.853C293.806 117.557 293.424 117.134 293.144 116.585C292.867 116.035 292.728 115.379 292.728 114.618C292.728 113.854 292.868 113.198 293.148 112.651C293.427 112.101 293.809 111.68 294.294 111.386C294.778 111.09 295.329 110.942 295.946 110.942C296.326 110.942 296.68 110.997 297.008 111.107C297.339 111.214 297.636 111.372 297.899 111.582C298.162 111.789 298.38 112.043 298.552 112.343C298.725 112.642 298.841 112.983 298.902 113.367ZM302.37 118.304C301.867 118.304 301.428 118.188 301.053 117.958C300.678 117.727 300.387 117.405 300.179 116.99C299.972 116.575 299.869 116.091 299.869 115.537C299.869 114.98 299.972 114.493 300.179 114.076C300.387 113.659 300.678 113.336 301.053 113.105C301.428 112.874 301.867 112.759 302.37 112.759C302.873 112.759 303.312 112.874 303.687 113.105C304.062 113.336 304.353 113.659 304.561 114.076C304.768 114.493 304.872 114.98 304.872 115.537C304.872 116.091 304.768 116.575 304.561 116.99C304.353 117.405 304.062 117.727 303.687 117.958C303.312 118.188 302.873 118.304 302.37 118.304ZM302.374 117.427C302.7 117.427 302.97 117.341 303.184 117.168C303.398 116.996 303.557 116.766 303.659 116.48C303.764 116.193 303.816 115.878 303.816 115.533C303.816 115.191 303.764 114.876 303.659 114.59C303.557 114.301 303.398 114.069 303.184 113.895C302.97 113.72 302.7 113.633 302.374 113.633C302.045 113.633 301.773 113.72 301.556 113.895C301.342 114.069 301.182 114.301 301.077 114.59C300.975 114.876 300.924 115.191 300.924 115.533C300.924 115.878 300.975 116.193 301.077 116.48C301.182 116.766 301.342 116.996 301.556 117.168C301.773 117.341 302.045 117.427 302.374 117.427ZM310.059 114.139L309.112 114.307C309.072 114.186 309.009 114.07 308.923 113.961C308.839 113.852 308.725 113.762 308.581 113.692C308.437 113.622 308.256 113.587 308.039 113.587C307.744 113.587 307.497 113.654 307.299 113.786C307.101 113.917 307.002 114.086 307.002 114.293C307.002 114.472 307.068 114.617 307.201 114.726C307.334 114.836 307.548 114.925 307.844 114.995L308.696 115.191C309.19 115.305 309.558 115.481 309.8 115.718C310.042 115.956 310.164 116.264 310.164 116.644C310.164 116.966 310.07 117.252 309.884 117.504C309.7 117.753 309.443 117.948 309.112 118.091C308.784 118.233 308.403 118.304 307.97 118.304C307.369 118.304 306.878 118.176 306.499 117.919C306.119 117.661 305.886 117.294 305.8 116.819L306.81 116.665C306.873 116.928 307.002 117.127 307.197 117.262C307.393 117.395 307.648 117.462 307.963 117.462C308.305 117.462 308.579 117.391 308.784 117.249C308.989 117.104 309.091 116.928 309.091 116.721C309.091 116.553 309.028 116.412 308.902 116.298C308.779 116.184 308.589 116.098 308.333 116.04L307.425 115.841C306.924 115.726 306.553 115.545 306.314 115.296C306.076 115.046 305.957 114.731 305.957 114.349C305.957 114.032 306.046 113.755 306.223 113.517C306.4 113.28 306.644 113.095 306.956 112.962C307.268 112.827 307.626 112.759 308.029 112.759C308.609 112.759 309.065 112.885 309.398 113.136C309.732 113.386 309.952 113.72 310.059 114.139ZM313.817 112.829V113.668H310.886V112.829H313.817ZM311.672 111.543H312.717V116.62C312.717 116.822 312.747 116.975 312.807 117.077C312.868 117.177 312.946 117.246 313.041 117.283C313.139 117.318 313.245 117.336 313.359 117.336C313.443 117.336 313.517 117.33 313.58 117.318C313.642 117.307 313.691 117.297 313.726 117.29L313.915 118.153C313.854 118.177 313.768 118.2 313.656 118.223C313.545 118.249 313.405 118.263 313.237 118.265C312.962 118.27 312.706 118.221 312.469 118.118C312.231 118.016 312.039 117.858 311.892 117.643C311.745 117.429 311.672 117.16 311.672 116.836V111.543ZM319.837 118.304C319.334 118.304 318.895 118.188 318.52 117.958C318.145 117.727 317.853 117.405 317.646 116.99C317.439 116.575 317.335 116.091 317.335 115.537C317.335 114.98 317.439 114.493 317.646 114.076C317.853 113.659 318.145 113.336 318.52 113.105C318.895 112.874 319.334 112.759 319.837 112.759C320.34 112.759 320.779 112.874 321.154 113.105C321.529 113.336 321.82 113.659 322.027 114.076C322.235 114.493 322.338 114.98 322.338 115.537C322.338 116.091 322.235 116.575 322.027 116.99C321.82 117.405 321.529 117.727 321.154 117.958C320.779 118.188 320.34 118.304 319.837 118.304ZM319.84 117.427C320.166 117.427 320.436 117.341 320.651 117.168C320.865 116.996 321.023 116.766 321.126 116.48C321.231 116.193 321.283 115.878 321.283 115.533C321.283 115.191 321.231 114.876 321.126 114.59C321.023 114.301 320.865 114.069 320.651 113.895C320.436 113.72 320.166 113.633 319.84 113.633C319.512 113.633 319.239 113.72 319.023 113.895C318.808 114.069 318.649 114.301 318.544 114.59C318.442 114.876 318.39 115.191 318.39 115.533C318.39 115.878 318.442 116.193 318.544 116.48C318.649 116.766 318.808 116.996 319.023 117.168C319.239 117.341 319.512 117.427 319.84 117.427ZM326.058 112.829V113.668H323.026V112.829H326.058ZM323.857 118.195V112.207C323.857 111.872 323.93 111.593 324.077 111.372C324.224 111.149 324.418 110.982 324.661 110.873C324.903 110.761 325.166 110.705 325.45 110.705C325.66 110.705 325.839 110.722 325.988 110.757C326.137 110.79 326.248 110.82 326.32 110.848L326.076 111.694C326.027 111.68 325.964 111.663 325.887 111.645C325.81 111.624 325.717 111.613 325.607 111.613C325.354 111.613 325.172 111.676 325.062 111.802C324.955 111.928 324.902 112.109 324.902 112.347V118.195H323.857ZM333.726 112.92C333.689 112.589 333.535 112.333 333.265 112.151C332.994 111.967 332.654 111.875 332.244 111.875C331.951 111.875 331.697 111.922 331.483 112.015C331.269 112.106 331.102 112.232 330.983 112.392C330.867 112.551 330.809 112.731 330.809 112.934C330.809 113.104 330.848 113.251 330.927 113.374C331.009 113.497 331.115 113.601 331.245 113.685C331.378 113.766 331.52 113.835 331.672 113.891C331.823 113.945 331.968 113.989 332.108 114.024L332.807 114.206C333.035 114.261 333.269 114.337 333.509 114.433C333.749 114.528 333.972 114.654 334.177 114.81C334.381 114.966 334.547 115.159 334.673 115.39C334.801 115.62 334.865 115.896 334.865 116.218C334.865 116.623 334.76 116.983 334.55 117.297C334.343 117.612 334.041 117.86 333.645 118.042C333.252 118.223 332.776 118.314 332.217 118.314C331.681 118.314 331.217 118.229 330.826 118.059C330.435 117.889 330.128 117.648 329.907 117.336C329.686 117.021 329.564 116.649 329.54 116.218H330.623C330.644 116.476 330.728 116.692 330.875 116.864C331.024 117.034 331.214 117.161 331.444 117.245C331.677 117.327 331.932 117.367 332.21 117.367C332.515 117.367 332.786 117.32 333.024 117.224C333.263 117.126 333.452 116.991 333.59 116.819C333.727 116.644 333.796 116.44 333.796 116.207C333.796 115.995 333.735 115.822 333.614 115.687C333.495 115.552 333.333 115.44 333.128 115.351C332.926 115.263 332.696 115.185 332.44 115.117L331.595 114.887C331.022 114.731 330.568 114.501 330.232 114.199C329.899 113.896 329.733 113.495 329.733 112.997C329.733 112.584 329.844 112.225 330.068 111.917C330.292 111.61 330.594 111.371 330.976 111.201C331.358 111.029 331.789 110.942 332.269 110.942C332.753 110.942 333.181 111.027 333.551 111.197C333.924 111.367 334.217 111.602 334.432 111.9C334.646 112.195 334.758 112.536 334.767 112.92H333.726ZM337.633 118.314C337.293 118.314 336.985 118.251 336.71 118.125C336.435 117.997 336.218 117.812 336.057 117.57C335.899 117.328 335.819 117.031 335.819 116.679C335.819 116.376 335.878 116.127 335.994 115.931C336.111 115.736 336.268 115.581 336.466 115.467C336.664 115.353 336.885 115.266 337.13 115.208C337.374 115.15 337.623 115.106 337.877 115.075C338.199 115.038 338.459 115.008 338.66 114.985C338.86 114.959 339.006 114.918 339.096 114.862C339.187 114.806 339.233 114.716 339.233 114.59V114.565C339.233 114.26 339.147 114.024 338.974 113.856C338.804 113.688 338.55 113.605 338.213 113.605C337.861 113.605 337.584 113.683 337.381 113.839C337.181 113.992 337.042 114.164 336.965 114.352L335.984 114.129C336.1 113.803 336.27 113.539 336.494 113.339C336.72 113.136 336.979 112.99 337.273 112.899C337.566 112.806 337.875 112.759 338.199 112.759C338.413 112.759 338.64 112.785 338.88 112.836C339.122 112.885 339.348 112.976 339.558 113.109C339.77 113.241 339.943 113.431 340.078 113.678C340.213 113.923 340.281 114.24 340.281 114.632V118.195H339.261V117.462H339.219C339.151 117.597 339.05 117.729 338.915 117.86C338.78 117.99 338.606 118.099 338.394 118.185C338.182 118.271 337.928 118.314 337.633 118.314ZM337.86 117.476C338.149 117.476 338.395 117.419 338.6 117.304C338.808 117.19 338.965 117.041 339.072 116.857C339.181 116.671 339.236 116.472 339.236 116.26V115.568C339.199 115.605 339.127 115.64 339.02 115.673C338.915 115.703 338.795 115.73 338.66 115.753C338.525 115.774 338.393 115.794 338.265 115.813C338.137 115.829 338.03 115.843 337.944 115.855C337.741 115.88 337.556 115.923 337.388 115.984C337.223 116.044 337.09 116.132 336.99 116.246C336.892 116.358 336.843 116.507 336.843 116.693C336.843 116.952 336.939 117.147 337.13 117.28C337.321 117.41 337.564 117.476 337.86 117.476ZM342.717 111.04V118.195H341.672V111.04H342.717ZM346.435 118.304C345.906 118.304 345.451 118.191 345.069 117.965C344.689 117.736 344.396 117.416 344.189 117.004C343.984 116.589 343.881 116.104 343.881 115.547C343.881 114.997 343.984 114.513 344.189 114.094C344.396 113.674 344.685 113.347 345.055 113.112C345.428 112.877 345.863 112.759 346.362 112.759C346.664 112.759 346.958 112.809 347.242 112.909C347.526 113.01 347.781 113.167 348.007 113.381C348.233 113.595 348.411 113.874 348.542 114.216C348.672 114.556 348.737 114.969 348.737 115.456V115.827H344.472V115.044H347.714C347.714 114.769 347.658 114.526 347.546 114.314C347.434 114.1 347.277 113.931 347.074 113.807C346.874 113.684 346.639 113.622 346.369 113.622C346.075 113.622 345.819 113.694 345.6 113.839C345.383 113.981 345.216 114.167 345.097 114.398C344.98 114.626 344.922 114.874 344.922 115.142V115.753C344.922 116.112 344.985 116.417 345.111 116.669C345.239 116.92 345.417 117.112 345.645 117.245C345.874 117.375 346.14 117.441 346.445 117.441C346.643 117.441 346.824 117.413 346.987 117.357C347.15 117.299 347.291 117.212 347.41 117.098C347.528 116.984 347.619 116.843 347.682 116.676L348.671 116.854C348.592 117.145 348.45 117.4 348.245 117.619C348.042 117.835 347.787 118.004 347.48 118.125C347.174 118.244 346.826 118.304 346.435 118.304Z" fill="#475467"/>
<path d="M297.06 143.539V128.207H298.042V143.539H297.06ZM300.366 132.806C300.294 132.2 300.003 131.728 299.492 131.393C298.981 131.058 298.354 130.89 297.611 130.89C297.068 130.89 296.593 130.978 296.186 131.153C295.782 131.329 295.467 131.571 295.239 131.878C295.016 132.186 294.904 132.535 294.904 132.926C294.904 133.254 294.982 133.535 295.137 133.771C295.297 134.002 295.501 134.196 295.748 134.352C295.996 134.503 296.255 134.629 296.527 134.729C296.798 134.825 297.048 134.903 297.276 134.963L298.521 135.298C298.841 135.382 299.196 135.498 299.587 135.645C299.983 135.793 300.36 135.995 300.719 136.25C301.083 136.502 301.382 136.825 301.618 137.221C301.853 137.616 301.971 138.101 301.971 138.676C301.971 139.339 301.797 139.938 301.45 140.473C301.107 141.008 300.604 141.433 299.941 141.748C299.282 142.064 298.481 142.221 297.539 142.221C296.661 142.221 295.9 142.08 295.257 141.796C294.618 141.513 294.115 141.117 293.748 140.61C293.385 140.103 293.179 139.514 293.131 138.844H294.664C294.704 139.307 294.86 139.69 295.132 139.993C295.407 140.293 295.754 140.517 296.174 140.664C296.597 140.808 297.052 140.88 297.539 140.88C298.106 140.88 298.615 140.788 299.066 140.604C299.518 140.417 299.875 140.157 300.138 139.826C300.402 139.49 300.534 139.099 300.534 138.652C300.534 138.245 300.42 137.913 300.192 137.658C299.965 137.402 299.665 137.195 299.294 137.035C298.923 136.875 298.521 136.735 298.09 136.616L296.581 136.184C295.623 135.909 294.864 135.516 294.305 135.005C293.746 134.493 293.467 133.825 293.467 132.998C293.467 132.311 293.652 131.712 294.024 131.201C294.399 130.686 294.902 130.287 295.533 130.004C296.168 129.716 296.876 129.572 297.659 129.572C298.449 129.572 299.152 129.714 299.767 129.998C300.382 130.277 300.869 130.66 301.228 131.147C301.592 131.635 301.783 132.188 301.803 132.806H300.366ZM312.774 142.174C312.071 142.174 311.439 142.034 310.876 141.754C310.313 141.475 309.861 141.092 309.522 140.604C309.183 140.117 308.997 139.562 308.965 138.939H310.402C310.458 139.494 310.71 139.954 311.157 140.317C311.608 140.676 312.147 140.856 312.774 140.856C313.277 140.856 313.724 140.738 314.116 140.503C314.511 140.267 314.82 139.944 315.044 139.532C315.272 139.117 315.385 138.648 315.385 138.125C315.385 137.59 315.268 137.113 315.032 136.693C314.8 136.27 314.481 135.937 314.074 135.693C313.666 135.45 313.201 135.326 312.678 135.322C312.303 135.318 311.918 135.376 311.522 135.496C311.127 135.611 310.802 135.761 310.546 135.945L309.157 135.777L309.899 129.74H316.272V131.058H311.145L310.714 134.675H310.786C311.037 134.475 311.353 134.31 311.732 134.178C312.111 134.046 312.507 133.98 312.918 133.98C313.668 133.98 314.337 134.16 314.924 134.519C315.515 134.875 315.978 135.362 316.314 135.981C316.653 136.6 316.823 137.306 316.823 138.101C316.823 138.884 316.647 139.582 316.296 140.197C315.948 140.808 315.469 141.291 314.858 141.647C314.247 141.998 313.553 142.174 312.774 142.174ZM320.873 140.329L320.777 140.976C320.709 141.431 320.605 141.918 320.466 142.437C320.33 142.956 320.188 143.445 320.04 143.904C319.893 144.364 319.771 144.729 319.675 145H318.597C318.649 144.745 318.717 144.408 318.801 143.988C318.885 143.569 318.968 143.1 319.052 142.581C319.14 142.066 319.212 141.539 319.268 141L319.34 140.329H320.873ZM327.054 142.174C326.351 142.174 325.718 142.034 325.155 141.754C324.592 141.475 324.141 141.092 323.802 140.604C323.462 140.117 323.277 139.562 323.245 138.939H324.682C324.738 139.494 324.989 139.954 325.437 140.317C325.888 140.676 326.427 140.856 327.054 140.856C327.557 140.856 328.004 140.738 328.395 140.503C328.791 140.267 329.1 139.944 329.324 139.532C329.551 139.117 329.665 138.648 329.665 138.125C329.665 137.59 329.547 137.113 329.312 136.693C329.08 136.27 328.761 135.937 328.353 135.693C327.946 135.45 327.481 135.326 326.958 135.322C326.583 135.318 326.197 135.376 325.802 135.496C325.407 135.611 325.081 135.761 324.826 135.945L323.436 135.777L324.179 129.74H330.551V131.058H325.425L324.993 134.675H325.065C325.317 134.475 325.632 134.31 326.012 134.178C326.391 134.046 326.786 133.98 327.197 133.98C327.948 133.98 328.617 134.16 329.204 134.519C329.795 134.875 330.258 135.362 330.593 135.981C330.933 136.6 331.102 137.306 331.102 138.101C331.102 138.884 330.927 139.582 330.575 140.197C330.228 140.808 329.749 141.291 329.138 141.647C328.527 141.998 327.832 142.174 327.054 142.174ZM337.387 129.572C337.89 129.576 338.393 129.672 338.896 129.86C339.399 130.047 339.858 130.359 340.273 130.794C340.689 131.225 341.022 131.814 341.274 132.561C341.525 133.308 341.651 134.244 341.651 135.37C341.651 136.46 341.547 137.428 341.339 138.275C341.136 139.117 340.84 139.828 340.453 140.407C340.07 140.986 339.603 141.425 339.052 141.724C338.505 142.024 337.886 142.174 337.195 142.174C336.508 142.174 335.895 142.038 335.356 141.766C334.821 141.491 334.382 141.109 334.039 140.622C333.699 140.131 333.482 139.562 333.386 138.915H334.847C334.979 139.478 335.24 139.944 335.632 140.311C336.027 140.674 336.548 140.856 337.195 140.856C338.141 140.856 338.888 140.443 339.435 139.616C339.986 138.79 340.261 137.622 340.261 136.113H340.166C339.942 136.448 339.676 136.737 339.369 136.981C339.062 137.225 338.72 137.412 338.345 137.544C337.97 137.676 337.57 137.742 337.147 137.742C336.444 137.742 335.799 137.568 335.213 137.221C334.63 136.869 334.162 136.388 333.811 135.777C333.464 135.162 333.29 134.46 333.29 133.669C333.29 132.918 333.458 132.232 333.793 131.609C334.132 130.982 334.608 130.483 335.218 130.111C335.833 129.74 336.556 129.56 337.387 129.572ZM337.387 130.89C336.883 130.89 336.43 131.016 336.027 131.267C335.628 131.515 335.31 131.85 335.075 132.273C334.843 132.693 334.727 133.158 334.727 133.669C334.727 134.18 334.839 134.645 335.063 135.064C335.29 135.48 335.6 135.811 335.991 136.059C336.386 136.302 336.836 136.424 337.339 136.424C337.718 136.424 338.071 136.35 338.399 136.202C338.726 136.051 339.012 135.845 339.255 135.585C339.503 135.322 339.696 135.024 339.836 134.693C339.976 134.358 340.046 134.008 340.046 133.645C340.046 133.166 339.93 132.717 339.698 132.297C339.471 131.878 339.155 131.539 338.752 131.279C338.353 131.02 337.898 130.89 337.387 130.89ZM343.719 139.49V138.269L349.109 129.74H349.995V131.633H349.396L345.324 138.077V138.173H352.583V139.49H343.719ZM349.492 142.006V139.119V138.55V129.74H350.906V142.006H349.492ZM355.305 142.102C355.009 142.102 354.756 141.996 354.544 141.784C354.332 141.573 354.227 141.319 354.227 141.024C354.227 140.728 354.332 140.475 354.544 140.263C354.756 140.051 355.009 139.946 355.305 139.946C355.6 139.946 355.854 140.051 356.065 140.263C356.277 140.475 356.383 140.728 356.383 141.024C356.383 141.219 356.333 141.399 356.233 141.563C356.137 141.726 356.007 141.858 355.844 141.958C355.684 142.054 355.504 142.102 355.305 142.102ZM362.578 142.174C361.788 142.174 361.083 142.038 360.464 141.766C359.849 141.495 359.36 141.117 358.997 140.634C358.638 140.147 358.442 139.582 358.41 138.939H359.919C359.951 139.335 360.087 139.676 360.327 139.964C360.566 140.247 360.88 140.467 361.267 140.622C361.654 140.778 362.083 140.856 362.555 140.856C363.082 140.856 363.549 140.764 363.956 140.58C364.363 140.397 364.683 140.141 364.914 139.814C365.146 139.486 365.262 139.107 365.262 138.676C365.262 138.225 365.15 137.827 364.926 137.484C364.703 137.137 364.375 136.865 363.944 136.67C363.513 136.474 362.986 136.376 362.363 136.376H361.381V135.058H362.363C362.85 135.058 363.277 134.971 363.645 134.795C364.016 134.619 364.305 134.372 364.513 134.052C364.725 133.733 364.83 133.358 364.83 132.926C364.83 132.511 364.739 132.15 364.555 131.842C364.371 131.535 364.112 131.295 363.776 131.124C363.445 130.952 363.054 130.866 362.602 130.866C362.179 130.866 361.78 130.944 361.405 131.1C361.033 131.251 360.73 131.473 360.494 131.764C360.259 132.052 360.131 132.399 360.111 132.806H358.674C358.698 132.164 358.891 131.601 359.255 131.118C359.618 130.63 360.093 130.251 360.68 129.98C361.271 129.708 361.92 129.572 362.626 129.572C363.385 129.572 364.036 129.726 364.579 130.034C365.122 130.337 365.539 130.738 365.831 131.237C366.122 131.736 366.268 132.275 366.268 132.854C366.268 133.545 366.086 134.134 365.723 134.621C365.363 135.108 364.874 135.446 364.255 135.633V135.729C365.03 135.857 365.635 136.186 366.07 136.717C366.505 137.244 366.723 137.897 366.723 138.676C366.723 139.343 366.541 139.942 366.178 140.473C365.819 141 365.328 141.415 364.705 141.718C364.082 142.022 363.373 142.174 362.578 142.174ZM373.485 129.74V142.006H371.999V131.297H371.928L368.933 133.286V131.776L371.999 129.74H373.485Z" fill="#101828"/>
<rect x="264.415" y="179.279" width="252.28" height="79.461" rx="2.45955" fill="#FFFCF5"/>
<rect x="264.415" y="179.279" width="252.28" height="79.461" rx="2.45955" stroke="#EAECF0" stroke-width="0.702729"/>
<circle cx="283.74" cy="204.225" r="2.81092" fill="#F79009"/>
<path d="M292.959 209.604V202.448H294.038V208.674H297.281V209.604H292.959ZM299.99 209.722C299.65 209.722 299.342 209.659 299.068 209.534C298.793 209.406 298.575 209.22 298.414 208.978C298.256 208.736 298.177 208.439 298.177 208.087C298.177 207.784 298.235 207.535 298.351 207.34C298.468 207.144 298.625 206.989 298.823 206.875C299.021 206.761 299.242 206.675 299.487 206.616C299.731 206.558 299.981 206.514 300.235 206.484C300.556 206.446 300.817 206.416 301.017 206.393C301.217 206.367 301.363 206.326 301.454 206.271C301.545 206.215 301.59 206.124 301.59 205.998V205.974C301.59 205.668 301.504 205.432 301.332 205.264C301.162 205.097 300.908 205.013 300.57 205.013C300.218 205.013 299.941 205.091 299.738 205.247C299.538 205.401 299.4 205.572 299.323 205.76L298.341 205.537C298.457 205.211 298.627 204.948 298.851 204.747C299.077 204.545 299.337 204.398 299.63 204.307C299.924 204.214 300.232 204.167 300.556 204.167C300.77 204.167 300.997 204.193 301.237 204.244C301.479 204.293 301.705 204.384 301.915 204.517C302.127 204.649 302.3 204.839 302.436 205.086C302.571 205.331 302.638 205.649 302.638 206.04V209.604H301.618V208.87H301.576C301.509 209.005 301.407 209.138 301.272 209.268C301.137 209.399 300.964 209.507 300.752 209.593C300.54 209.679 300.286 209.722 299.99 209.722ZM300.217 208.884C300.506 208.884 300.753 208.827 300.958 208.713C301.165 208.599 301.322 208.449 301.429 208.265C301.539 208.079 301.594 207.88 301.594 207.668V206.976C301.556 207.014 301.484 207.048 301.377 207.081C301.272 207.111 301.152 207.138 301.017 207.161C300.882 207.182 300.75 207.202 300.622 207.221C300.494 207.237 300.387 207.251 300.301 207.263C300.098 207.288 299.913 207.331 299.745 207.392C299.58 207.453 299.447 207.54 299.347 207.654C299.249 207.766 299.2 207.915 299.2 208.101C299.2 208.36 299.296 208.555 299.487 208.688C299.678 208.819 299.921 208.884 300.217 208.884ZM304.113 209.604V202.448H305.158V205.107H305.221C305.281 204.995 305.369 204.866 305.483 204.719C305.597 204.573 305.755 204.445 305.958 204.335C306.161 204.223 306.429 204.167 306.762 204.167C307.195 204.167 307.581 204.277 307.921 204.496C308.262 204.715 308.528 205.03 308.722 205.443C308.917 205.855 309.015 206.351 309.015 206.931C309.015 207.511 308.918 208.008 308.725 208.423C308.532 208.835 308.266 209.153 307.928 209.376C307.591 209.598 307.205 209.708 306.772 209.708C306.446 209.708 306.179 209.654 305.972 209.544C305.767 209.435 305.606 209.307 305.49 209.16C305.373 209.013 305.284 208.883 305.221 208.769H305.134V209.604H304.113ZM305.137 206.92C305.137 207.298 305.192 207.628 305.301 207.913C305.411 208.197 305.569 208.419 305.776 208.58C305.984 208.738 306.238 208.817 306.538 208.817C306.85 208.817 307.111 208.735 307.321 208.569C307.53 208.402 307.689 208.175 307.796 207.888C307.905 207.602 307.96 207.279 307.96 206.92C307.96 206.566 307.906 206.248 307.799 205.967C307.694 205.685 307.536 205.462 307.324 205.299C307.114 205.136 306.852 205.055 306.538 205.055C306.235 205.055 305.979 205.133 305.769 205.289C305.562 205.445 305.405 205.663 305.298 205.942C305.191 206.222 305.137 206.548 305.137 206.92ZM312.448 209.712C311.945 209.712 311.506 209.597 311.131 209.366C310.756 209.135 310.465 208.813 310.258 208.398C310.051 207.984 309.947 207.499 309.947 206.945C309.947 206.388 310.051 205.901 310.258 205.484C310.465 205.068 310.756 204.744 311.131 204.513C311.506 204.283 311.945 204.167 312.448 204.167C312.952 204.167 313.391 204.283 313.766 204.513C314.141 204.744 314.432 205.068 314.639 205.484C314.846 205.901 314.95 206.388 314.95 206.945C314.95 207.499 314.846 207.984 314.639 208.398C314.432 208.813 314.141 209.135 313.766 209.366C313.391 209.597 312.952 209.712 312.448 209.712ZM312.452 208.835C312.778 208.835 313.048 208.749 313.262 208.576C313.477 208.404 313.635 208.175 313.738 207.888C313.842 207.602 313.895 207.286 313.895 206.941C313.895 206.599 313.842 206.285 313.738 205.998C313.635 205.709 313.477 205.477 313.262 205.303C313.048 205.128 312.778 205.041 312.452 205.041C312.124 205.041 311.851 205.128 311.634 205.303C311.42 205.477 311.261 205.709 311.156 205.998C311.053 206.285 311.002 206.599 311.002 206.941C311.002 207.286 311.053 207.602 311.156 207.888C311.261 208.175 311.42 208.404 311.634 208.576C311.851 208.749 312.124 208.835 312.452 208.835ZM316.116 209.604V204.237H317.126V205.09H317.181C317.279 204.801 317.452 204.574 317.699 204.408C317.948 204.241 318.23 204.157 318.544 204.157C318.609 204.157 318.686 204.159 318.775 204.164C318.865 204.169 318.936 204.174 318.988 204.181V205.181C318.946 205.169 318.871 205.156 318.764 205.142C318.657 205.126 318.55 205.118 318.443 205.118C318.196 205.118 317.976 205.17 317.782 205.275C317.591 205.377 317.44 205.521 317.328 205.705C317.216 205.886 317.161 206.094 317.161 206.326V209.604H316.116Z" fill="#475467"/>
<path d="M297.06 234.947V219.615H298.042V234.947H297.06ZM300.366 224.215C300.294 223.608 300.003 223.137 299.492 222.801C298.981 222.466 298.354 222.298 297.611 222.298C297.068 222.298 296.593 222.386 296.186 222.562C295.782 222.737 295.467 222.979 295.239 223.286C295.016 223.594 294.904 223.943 294.904 224.334C294.904 224.662 294.982 224.943 295.137 225.179C295.297 225.411 295.501 225.604 295.748 225.76C295.996 225.912 296.255 226.037 296.527 226.137C296.798 226.233 297.048 226.311 297.276 226.371L298.521 226.706C298.841 226.79 299.196 226.906 299.587 227.054C299.983 227.201 300.36 227.403 300.719 227.658C301.083 227.91 301.382 228.233 301.618 228.629C301.853 229.024 301.971 229.509 301.971 230.084C301.971 230.747 301.797 231.346 301.45 231.881C301.107 232.416 300.604 232.841 299.941 233.157C299.282 233.472 298.481 233.63 297.539 233.63C296.661 233.63 295.9 233.488 295.257 233.204C294.618 232.921 294.115 232.526 293.748 232.019C293.385 231.512 293.179 230.923 293.131 230.252H294.664C294.704 230.715 294.86 231.098 295.132 231.402C295.407 231.701 295.754 231.925 296.174 232.072C296.597 232.216 297.052 232.288 297.539 232.288C298.106 232.288 298.615 232.196 299.066 232.013C299.518 231.825 299.875 231.565 300.138 231.234C300.402 230.899 300.534 230.507 300.534 230.06C300.534 229.653 300.42 229.321 300.192 229.066C299.965 228.81 299.665 228.603 299.294 228.443C298.923 228.283 298.521 228.144 298.09 228.024L296.581 227.593C295.623 227.317 294.864 226.924 294.305 226.413C293.746 225.902 293.467 225.233 293.467 224.406C293.467 223.72 293.652 223.121 294.024 222.61C294.399 222.095 294.902 221.695 295.533 221.412C296.168 221.124 296.876 220.981 297.659 220.981C298.449 220.981 299.152 221.122 299.767 221.406C300.382 221.685 300.869 222.069 301.228 222.556C301.592 223.043 301.783 223.596 301.803 224.215H300.366ZM313.253 221.148V233.414H311.768V222.705H311.696L308.701 224.694V223.185L311.768 221.148H313.253ZM318.188 231.737L318.092 232.384C318.025 232.839 317.921 233.326 317.781 233.845C317.645 234.364 317.504 234.853 317.356 235.313C317.208 235.772 317.086 236.137 316.99 236.409H315.912C315.964 236.153 316.032 235.816 316.116 235.396C316.2 234.977 316.284 234.508 316.368 233.989C316.455 233.474 316.527 232.947 316.583 232.408L316.655 231.737H318.188ZM320.919 233.414L326.405 222.562V222.466H320.081V221.148H327.939V222.538L322.477 233.414H320.919ZM333.839 233.582C333.137 233.582 332.504 233.442 331.941 233.163C331.378 232.883 330.927 232.5 330.587 232.013C330.248 231.525 330.062 230.97 330.03 230.348H331.468C331.524 230.903 331.775 231.362 332.222 231.725C332.674 232.084 333.213 232.264 333.839 232.264C334.343 232.264 334.79 232.146 335.181 231.911C335.576 231.675 335.886 231.352 336.109 230.941C336.337 230.525 336.451 230.056 336.451 229.533C336.451 228.998 336.333 228.521 336.097 228.102C335.866 227.678 335.546 227.345 335.139 227.101C334.732 226.858 334.267 226.734 333.744 226.73C333.368 226.726 332.983 226.784 332.588 226.904C332.192 227.02 331.867 227.169 331.612 227.353L330.222 227.185L330.965 221.148H337.337V222.466H332.21L331.779 226.083H331.851C332.103 225.884 332.418 225.718 332.797 225.586C333.177 225.454 333.572 225.389 333.983 225.389C334.734 225.389 335.403 225.568 335.99 225.928C336.581 226.283 337.044 226.77 337.379 227.389C337.718 228.008 337.888 228.715 337.888 229.509C337.888 230.292 337.712 230.99 337.361 231.605C337.014 232.216 336.535 232.699 335.924 233.055C335.313 233.406 334.618 233.582 333.839 233.582ZM339.98 230.899V229.677L345.37 221.148H346.257V223.041H345.658L341.585 229.485V229.581H348.844V230.899H339.98ZM345.753 233.414V230.527V229.958V221.148H347.167V233.414H345.753ZM351.566 233.51C351.27 233.51 351.017 233.404 350.805 233.192C350.594 232.981 350.488 232.727 350.488 232.432C350.488 232.136 350.594 231.883 350.805 231.671C351.017 231.46 351.27 231.354 351.566 231.354C351.861 231.354 352.115 231.46 352.327 231.671C352.538 231.883 352.644 232.136 352.644 232.432C352.644 232.627 352.594 232.807 352.494 232.971C352.398 233.135 352.269 233.266 352.105 233.366C351.945 233.462 351.766 233.51 351.566 233.51ZM354.869 230.899V229.677L360.259 221.148H361.146V223.041H360.547L356.474 229.485V229.581H363.733V230.899H354.869ZM360.643 233.414V230.527V229.958V221.148H362.056V233.414H360.643ZM370.05 233.582C369.547 233.574 369.044 233.478 368.541 233.294C368.038 233.111 367.578 232.801 367.163 232.366C366.748 231.927 366.415 231.334 366.163 230.587C365.911 229.837 365.786 228.894 365.786 227.76C365.786 226.674 365.888 225.712 366.091 224.874C366.295 224.031 366.59 223.322 366.978 222.747C367.365 222.168 367.832 221.729 368.379 221.43C368.93 221.13 369.551 220.981 370.242 220.981C370.928 220.981 371.539 221.118 372.074 221.394C372.613 221.665 373.053 222.045 373.392 222.532C373.731 223.019 373.951 223.58 374.051 224.215H372.589C372.454 223.664 372.19 223.207 371.799 222.843C371.408 222.48 370.888 222.298 370.242 222.298C369.291 222.298 368.543 222.711 367.996 223.538C367.453 224.364 367.179 225.524 367.175 227.018H367.271C367.495 226.678 367.76 226.389 368.068 226.149C368.379 225.906 368.722 225.718 369.098 225.586C369.473 225.454 369.87 225.389 370.29 225.389C370.992 225.389 371.635 225.564 372.218 225.916C372.801 226.263 373.268 226.744 373.62 227.359C373.971 227.97 374.147 228.671 374.147 229.461C374.147 230.22 373.977 230.915 373.637 231.545C373.298 232.172 372.821 232.671 372.206 233.043C371.595 233.41 370.876 233.59 370.05 233.582ZM370.05 232.264C370.553 232.264 371.004 232.138 371.404 231.887C371.807 231.635 372.124 231.298 372.356 230.875C372.591 230.451 372.709 229.98 372.709 229.461C372.709 228.954 372.595 228.493 372.368 228.078C372.144 227.658 371.835 227.325 371.439 227.078C371.048 226.83 370.601 226.706 370.098 226.706C369.719 226.706 369.365 226.782 369.038 226.934C368.71 227.082 368.423 227.285 368.175 227.545C367.932 227.804 367.74 228.102 367.6 228.437C367.461 228.768 367.391 229.118 367.391 229.485C367.391 229.972 367.505 230.427 367.732 230.851C367.964 231.274 368.279 231.615 368.678 231.875C369.082 232.134 369.539 232.264 370.05 232.264Z" fill="#101828"/>
</g>
</g>
<rect x="0.510742" y="0.787109" width="438" height="234" rx="9.5" stroke="#F2F4F7"/>
<defs>
<linearGradient id="paint0_linear_1_47569" x1="-91.4052" y1="176.82" x2="-91.4052" y2="305.718" gradientUnits="userSpaceOnUse">
<stop stop-color="#76D1FF"/>
<stop offset="1" stop-color="#76D1FF" stop-opacity="0.2"/>
</linearGradient>
<linearGradient id="paint1_linear_1_47569" x1="-91.4204" y1="156.924" x2="-91.4204" y2="305.687" gradientUnits="userSpaceOnUse">
<stop stop-color="#FF8508"/>
<stop offset="1" stop-color="#FF8508" stop-opacity="0"/>
</linearGradient>
<linearGradient id="paint2_linear_1_47569" x1="-91.4052" y1="93.0391" x2="-91.4052" y2="200.451" gradientUnits="userSpaceOnUse">
<stop stop-color="#F04438"/>
<stop offset="1" stop-color="#F04438" stop-opacity="0"/>
</linearGradient>
<linearGradient id="paint3_linear_1_47569" x1="-90.9106" y1="80.8639" x2="-90.9106" y2="155.338" gradientUnits="userSpaceOnUse">
<stop stop-color="#17B26A"/>
<stop offset="1" stop-color="#17B26A" stop-opacity="0.2"/>
</linearGradient>
<clipPath id="clip0_1_47569">
<rect x="0.0107422" y="0.287109" width="439" height="235" rx="10" fill="white"/>
</clipPath>
<clipPath id="clip1_1_47569">
<rect width="1011.93" height="668.295" fill="white" transform="translate(-466.479 -228)"/>
</clipPath>
<clipPath id="clip2_1_47569">
<rect x="-438.369" y="-95.2949" width="694" height="444" rx="2.81092" fill="white"/>
</clipPath>
<clipPath id="clip3_1_47569">
<rect width="63" height="15" fill="white" transform="translate(437.181 41.6016)"/>
</clipPath>
</defs>
</svg>
