<svg width="460" height="256" viewBox="0 0 460 256" fill="none" xmlns="http://www.w3.org/2000/svg">
<rect x="0.5" width="459" height="255.063" rx="20" fill="white"/>
<g clip-path="url(#clip0_3639_302027)">
<rect x="10.0107" y="10.2871" width="439" height="235" rx="10" fill="white"/>
<g clip-path="url(#clip1_3639_302027)">
<g clip-path="url(#clip2_3639_302027)">
<rect x="-428.369" y="-85.2944" width="694" height="444" rx="2.81092" fill="white"/>
<path opacity="0.4" d="M-351.445 277.408L-410.568 241.245V315.72H247.759V212.602L188.01 237.456L128.354 238.814L68.503 258.531L8.5148 282.837L-51.3642 264.315L-111.386 263.061L-171.313 226.481L-230.987 233.661L-290.996 247.915L-351.445 277.408Z" fill="url(#paint0_linear_3639_302027)" fill-opacity="0.5"/>
<path d="M-410.568 241.245L-350.62 277.408L-291.077 247.733L-231.151 233.478L-171.439 226.198L-111.24 262.897L-51.2875 264.273L8.5545 283.014L68.7873 258.69L128.638 238.814L187.918 237.148L247.759 212.602" stroke="#1AB2FF" stroke-width="0.702729"/>
<path opacity="0.4" d="M-350.85 168.021L-410.568 209.705V315.687H247.728V181.061L188.374 178.2L127.85 214.103L68.1064 227.728L8.50568 197.028L-51.5822 235.176L-111.183 241.353L-231.32 208.292L-291.196 166.924L-350.85 168.021Z" fill="url(#paint1_linear_3639_302027)" fill-opacity="0.2"/>
<path d="M-410.568 209.737L-350.637 168.184L-290.929 166.986L-231.081 208.484L-171.103 225.69L-111.125 241.305L-51.5355 235.377L8.82988 197.061L68.1612 227.569L128.01 214.123L188.116 178.409L247.707 181.122" stroke="#F79009" stroke-width="0.702729"/>
<path opacity="0.4" d="M-350.81 130.959L-410.568 145.288V210.453H247.759V122.373L188.436 146.97L127.689 161.135L68.416 150.818L8.84616 165.821L-51.3624 167.426L-170.817 142.044L-230.95 132.361L-290.64 103.041L-350.81 130.959Z" fill="url(#paint2_linear_3639_302027)" fill-opacity="0.2"/>
<path d="M-410.568 145.288L-350.738 130.826L-290.64 102.868L-231.259 131.842L-170.971 141.698L-51.3861 167.675L8.6685 165.622L68.6616 150.84L127.689 161.356L188.238 146.748L247.759 122.373" stroke="#F04438" stroke-width="0.702729"/>
<path d="M-410.568 122.373L-350.258 101.755L-290.894 85.9727L-231.091 113.379L-171.21 95.6741L-51.4326 110.25L8.50836 135.806L68.3364 121.367L128.205 99.3058L247.728 99.4578" stroke="#17B26A" stroke-width="0.702729"/>
<path d="M-410.579 144.929V122.014L-350.303 101.563L-290.733 86.0117L-230.861 113.731L-170.782 95.9865C-122.425 101.274 -99.1983 105.08 -50.8407 110.367L9.27582 135.961L69.1488 121.736L128.988 99.4338L248.758 99.8154V122.372L189.137 146.766L128.98 160.704L69.1802 150.667L9.12283 165.622L-50.8407 167.378L-170.925 141.352L-230.995 131.669L-290.126 102.868L-350.303 130.431L-410.579 144.929Z" fill="url(#paint3_linear_3639_302027)" fill-opacity="0.2"/>
<line opacity="0.3" x1="68.3604" y1="15.8091" x2="68.3604" y2="310.719" stroke="#D0D5DD" stroke-width="0.702729"/>
<line opacity="0.3" x1="128.275" y1="15.8091" x2="128.275" y2="310.719" stroke="#D0D5DD" stroke-width="0.702729"/>
<line opacity="0.3" x1="188.19" y1="15.8091" x2="188.19" y2="310.719" stroke="#D0D5DD" stroke-width="0.702729"/>
<line opacity="0.3" x1="248.104" y1="15.8091" x2="248.104" y2="310.719" stroke="#D0D5DD" stroke-width="0.702729"/>
</g>
<rect x="-428.018" y="-84.9431" width="693.297" height="443.297" rx="2.45955" stroke="#EAECF0" stroke-width="0.702729"/>
<rect x="274.415" y="6.46416" width="252.28" height="79.461" rx="2.45955" fill="#F6FEF9"/>
<rect x="274.415" y="6.46416" width="252.28" height="79.461" rx="2.45955" stroke="#EAECF0" stroke-width="0.702729"/>
<circle cx="293.74" cy="31.411" r="2.81092" fill="#17B26A"/>
<path d="M309.174 33.2115C309.174 33.9755 309.034 34.6323 308.755 35.182C308.475 35.7293 308.092 36.1509 307.606 36.4467C307.121 36.7402 306.57 36.8869 305.953 36.8869C305.333 36.8869 304.78 36.7402 304.294 36.4467C303.809 36.1509 303.427 35.7281 303.148 35.1785C302.868 34.6288 302.728 33.9732 302.728 33.2115C302.728 32.4476 302.868 31.7919 303.148 31.2446C303.427 30.6949 303.809 30.2733 304.294 29.9799C304.78 29.6841 305.333 29.5362 305.953 29.5362C306.57 29.5362 307.121 29.6841 307.606 29.9799C308.092 30.2733 308.475 30.6949 308.755 31.2446C309.034 31.7919 309.174 32.4476 309.174 33.2115ZM308.105 33.2115C308.105 32.6293 308.011 32.139 307.822 31.7407C307.636 31.3401 307.38 31.0373 307.054 30.8323C306.73 30.625 306.363 30.5214 305.953 30.5214C305.541 30.5214 305.173 30.625 304.849 30.8323C304.525 31.0373 304.269 31.3401 304.08 31.7407C303.894 32.139 303.801 32.6293 303.801 33.2115C303.801 33.7938 303.894 34.2853 304.08 34.6859C304.269 35.0841 304.525 35.3869 304.849 35.5942C305.173 35.7992 305.541 35.9017 305.953 35.9017C306.363 35.9017 306.73 35.7992 307.054 35.5942C307.38 35.3869 307.636 35.0841 307.822 34.6859C308.011 34.2853 308.105 33.7938 308.105 33.2115ZM310.436 38.8014V31.4228H311.456V32.2927H311.544C311.604 32.1809 311.692 32.0516 311.806 31.9049C311.92 31.7582 312.078 31.6301 312.281 31.5206C312.484 31.4088 312.751 31.3529 313.084 31.3529C313.518 31.3529 313.904 31.4624 314.244 31.6813C314.584 31.9002 314.851 32.2158 315.044 32.6281C315.24 33.0403 315.338 33.5364 315.338 34.1164C315.338 34.6963 315.241 35.1936 315.048 35.6082C314.855 36.0205 314.589 36.3384 314.251 36.562C313.914 36.7832 313.528 36.8939 313.095 36.8939C312.769 36.8939 312.502 36.8391 312.295 36.7297C312.09 36.6202 311.929 36.4921 311.813 36.3454C311.696 36.1986 311.607 36.0682 311.544 35.9541H311.481V38.8014H310.436ZM311.46 34.1059C311.46 34.4832 311.515 34.814 311.624 35.0981C311.734 35.3823 311.892 35.6047 312.099 35.7654C312.307 35.9238 312.56 36.003 312.861 36.003C313.173 36.003 313.434 35.9203 313.643 35.7549C313.853 35.5872 314.011 35.3601 314.119 35.0737C314.228 34.7872 314.283 34.4646 314.283 34.1059C314.283 33.7519 314.229 33.434 314.122 33.1521C314.017 32.8703 313.859 32.6479 313.647 32.4848C313.437 32.3218 313.175 32.2403 312.861 32.2403C312.558 32.2403 312.302 32.3183 312.092 32.4744C311.885 32.6304 311.728 32.8482 311.621 33.1277C311.513 33.4072 311.46 33.7333 311.46 34.1059ZM318.821 36.8974C318.292 36.8974 317.837 36.7844 317.455 36.5585C317.075 36.3302 316.782 36.01 316.575 35.5977C316.37 35.1831 316.267 34.6975 316.267 34.1409C316.267 33.5912 316.37 33.1067 316.575 32.6875C316.782 32.2682 317.071 31.941 317.441 31.7058C317.814 31.4705 318.249 31.3529 318.748 31.3529C319.051 31.3529 319.344 31.403 319.628 31.5031C319.912 31.6033 320.167 31.7605 320.393 31.9748C320.619 32.189 320.797 32.4674 320.928 32.8098C321.058 33.1498 321.123 33.5632 321.123 34.05V34.4203H316.858V33.6378H320.1C320.1 33.3629 320.044 33.1195 319.932 32.9076C319.82 32.6933 319.663 32.5244 319.46 32.401C319.26 32.2776 319.025 32.2158 318.755 32.2158C318.461 32.2158 318.205 32.288 317.986 32.4324C317.77 32.5745 317.602 32.7608 317.483 32.9914C317.367 33.2197 317.308 33.4677 317.308 33.7356V34.347C317.308 34.7057 317.371 35.0108 317.497 35.2623C317.625 35.5139 317.803 35.706 318.032 35.8388C318.26 35.9692 318.526 36.0344 318.832 36.0344C319.03 36.0344 319.21 36.0065 319.373 35.9506C319.536 35.8924 319.677 35.8062 319.796 35.692C319.915 35.5779 320.005 35.437 320.068 35.2693L321.057 35.4475C320.978 35.7386 320.836 35.9937 320.631 36.2126C320.428 36.4292 320.173 36.5981 319.866 36.7192C319.561 36.838 319.212 36.8974 318.821 36.8974ZM322.282 36.7891V31.4228H323.292V32.2752H323.348C323.446 31.9864 323.618 31.7593 323.865 31.594C324.114 31.4263 324.396 31.3424 324.711 31.3424C324.776 31.3424 324.853 31.3447 324.941 31.3494C325.032 31.3541 325.103 31.3599 325.154 31.3669V32.3661C325.112 32.3544 325.038 32.3416 324.931 32.3276C324.824 32.3113 324.716 32.3032 324.609 32.3032C324.362 32.3032 324.142 32.3556 323.949 32.4604C323.758 32.5629 323.607 32.7061 323.495 32.8901C323.383 33.0718 323.327 33.2791 323.327 33.512V36.7891H322.282ZM327.572 36.9078C327.232 36.9078 326.924 36.845 326.65 36.7192C326.375 36.5911 326.157 36.4059 325.996 36.1637C325.838 35.9215 325.759 35.6245 325.759 35.2728C325.759 34.97 325.817 34.7208 325.933 34.5252C326.05 34.3295 326.207 34.1746 326.405 34.0605C326.603 33.9464 326.824 33.8602 327.069 33.802C327.313 33.7437 327.563 33.6995 327.816 33.6692C328.138 33.6319 328.399 33.6017 328.599 33.5784C328.799 33.5527 328.945 33.512 329.036 33.4561C329.127 33.4002 329.172 33.3094 329.172 33.1836V33.1591C329.172 32.854 329.086 32.6176 328.913 32.4499C328.743 32.2822 328.49 32.1984 328.152 32.1984C327.8 32.1984 327.523 32.2764 327.32 32.4324C327.12 32.5862 326.981 32.7574 326.905 32.946L325.923 32.7224C326.039 32.3963 326.209 32.1332 326.433 31.9328C326.659 31.7302 326.919 31.5835 327.212 31.4926C327.506 31.3995 327.814 31.3529 328.138 31.3529C328.352 31.3529 328.579 31.3785 328.819 31.4298C329.061 31.4787 329.287 31.5695 329.497 31.7023C329.709 31.835 329.882 32.0248 330.017 32.2717C330.153 32.5163 330.22 32.8342 330.22 33.2255V36.7891H329.2V36.0554H329.158C329.09 36.1905 328.989 36.3232 328.854 36.4537C328.719 36.5841 328.545 36.6924 328.334 36.7786C328.122 36.8648 327.868 36.9078 327.572 36.9078ZM327.799 36.0694C328.088 36.0694 328.335 36.0123 328.54 35.8982C328.747 35.784 328.904 35.635 329.011 35.451C329.121 35.2647 329.176 35.0655 329.176 34.8536V34.1618C329.138 34.1991 329.066 34.234 328.959 34.2666C328.854 34.2969 328.734 34.3237 328.599 34.347C328.464 34.3679 328.332 34.3877 328.204 34.4064C328.076 34.4227 327.969 34.4367 327.883 34.4483C327.68 34.4739 327.495 34.517 327.327 34.5776C327.162 34.6381 327.029 34.7255 326.929 34.8396C326.831 34.9514 326.782 35.1005 326.782 35.2868C326.782 35.5453 326.878 35.741 327.069 35.8737C327.26 36.0041 327.503 36.0694 327.799 36.0694ZM334.116 31.4228V32.2613H331.185V31.4228H334.116ZM331.971 30.1371H333.016V35.2134C333.016 35.416 333.046 35.5686 333.107 35.6711C333.167 35.7712 333.245 35.8399 333.341 35.8772C333.439 35.9121 333.545 35.9296 333.659 35.9296C333.743 35.9296 333.816 35.9238 333.879 35.9121C333.942 35.9005 333.991 35.8912 334.026 35.8842L334.214 36.7471C334.154 36.7704 334.068 36.7937 333.956 36.817C333.844 36.8426 333.704 36.8566 333.536 36.8589C333.262 36.8636 333.005 36.8147 332.768 36.7122C332.53 36.6097 332.338 36.4513 332.191 36.2371C332.045 36.0228 331.971 35.7538 331.971 35.43V30.1371ZM335.272 36.7891V31.4228H336.317V36.7891H335.272ZM335.8 30.5948C335.618 30.5948 335.462 30.5342 335.331 30.4131C335.203 30.2897 335.139 30.1429 335.139 29.9729C335.139 29.8005 335.203 29.6538 335.331 29.5327C335.462 29.4092 335.618 29.3475 335.8 29.3475C335.981 29.3475 336.136 29.4092 336.264 29.5327C336.395 29.6538 336.46 29.8005 336.46 29.9729C336.46 30.1429 336.395 30.2897 336.264 30.4131C336.136 30.5342 335.981 30.5948 335.8 30.5948ZM339.982 36.8974C339.479 36.8974 339.04 36.7821 338.665 36.5515C338.29 36.3209 337.999 35.9983 337.792 35.5837C337.585 35.1692 337.481 34.6847 337.481 34.1304C337.481 33.5737 337.585 33.0869 337.792 32.67C337.999 32.2531 338.29 31.9294 338.665 31.6988C339.04 31.4682 339.479 31.3529 339.982 31.3529C340.485 31.3529 340.924 31.4682 341.299 31.6988C341.674 31.9294 341.966 32.2531 342.173 32.67C342.38 33.0869 342.484 33.5737 342.484 34.1304C342.484 34.6847 342.38 35.1692 342.173 35.5837C341.966 35.9983 341.674 36.3209 341.299 36.5515C340.924 36.7821 340.485 36.8974 339.982 36.8974ZM339.986 36.0205C340.312 36.0205 340.582 35.9343 340.796 35.7619C341.011 35.5896 341.169 35.3601 341.272 35.0737C341.376 34.7872 341.429 34.4716 341.429 34.1269C341.429 33.7845 341.376 33.4701 341.272 33.1836C341.169 32.8948 341.011 32.663 340.796 32.4883C340.582 32.3137 340.312 32.2263 339.986 32.2263C339.657 32.2263 339.385 32.3137 339.168 32.4883C338.954 32.663 338.794 32.8948 338.69 33.1836C338.587 33.4701 338.536 33.7845 338.536 34.1269C338.536 34.4716 338.587 34.7872 338.69 35.0737C338.794 35.3601 338.954 35.5896 339.168 35.7619C339.385 35.9343 339.657 36.0205 339.986 36.0205ZM344.694 33.6028V36.7891H343.65V31.4228H344.653V32.2962H344.719C344.842 32.012 345.036 31.7838 345.299 31.6114C345.564 31.4391 345.899 31.3529 346.302 31.3529C346.667 31.3529 346.987 31.4298 347.262 31.5835C347.537 31.7349 347.75 31.9608 347.902 32.2613C348.053 32.5617 348.129 32.9332 348.129 33.3757V36.7891H347.084V33.5015C347.084 33.1125 346.983 32.8086 346.78 32.5897C346.578 32.3684 346.299 32.2578 345.945 32.2578C345.703 32.2578 345.488 32.3102 345.299 32.415C345.113 32.5198 344.965 32.6735 344.855 32.8761C344.748 33.0764 344.694 33.3187 344.694 33.6028ZM351.091 36.9078C350.751 36.9078 350.444 36.845 350.169 36.7192C349.894 36.5911 349.676 36.4059 349.516 36.1637C349.357 35.9215 349.278 35.6245 349.278 35.2728C349.278 34.97 349.336 34.7208 349.453 34.5252C349.569 34.3295 349.727 34.1746 349.924 34.0605C350.122 33.9464 350.344 33.8602 350.588 33.802C350.833 33.7437 351.082 33.6995 351.336 33.6692C351.657 33.6319 351.918 33.6017 352.119 33.5784C352.319 33.5527 352.464 33.512 352.555 33.4561C352.646 33.4002 352.691 33.3094 352.691 33.1836V33.1591C352.691 32.854 352.605 32.6176 352.433 32.4499C352.263 32.2822 352.009 32.1984 351.671 32.1984C351.32 32.1984 351.042 32.2764 350.84 32.4324C350.64 32.5862 350.501 32.7574 350.424 32.946L349.442 32.7224C349.559 32.3963 349.729 32.1332 349.952 31.9328C350.178 31.7302 350.438 31.5835 350.732 31.4926C351.025 31.3995 351.334 31.3529 351.657 31.3529C351.872 31.3529 352.099 31.3785 352.339 31.4298C352.581 31.4787 352.807 31.5695 353.016 31.7023C353.228 31.835 353.402 32.0248 353.537 32.2717C353.672 32.5163 353.74 32.8342 353.74 33.2255V36.7891H352.719V36.0554H352.678C352.61 36.1905 352.509 36.3232 352.374 36.4537C352.238 36.5841 352.065 36.6924 351.853 36.7786C351.641 36.8648 351.387 36.9078 351.091 36.9078ZM351.318 36.0694C351.607 36.0694 351.854 36.0123 352.059 35.8982C352.266 35.784 352.424 35.635 352.531 35.451C352.64 35.2647 352.695 35.0655 352.695 34.8536V34.1618C352.658 34.1991 352.586 34.234 352.478 34.2666C352.374 34.2969 352.254 34.3237 352.119 34.347C351.983 34.3679 351.852 34.3877 351.724 34.4064C351.596 34.4227 351.488 34.4367 351.402 34.4483C351.2 34.4739 351.015 34.517 350.847 34.5776C350.681 34.6381 350.549 34.7255 350.449 34.8396C350.351 34.9514 350.302 35.1005 350.302 35.2868C350.302 35.5453 350.397 35.741 350.588 35.8737C350.779 36.0041 351.023 36.0694 351.318 36.0694ZM356.176 29.634V36.7891H355.131V29.634H356.176ZM360.268 36.7891V29.634H362.819C363.375 29.634 363.837 29.7353 364.202 29.938C364.568 30.1406 364.842 30.4178 365.023 30.7695C365.205 31.1188 365.296 31.5124 365.296 31.9503C365.296 32.3905 365.204 32.7865 365.02 33.1382C364.838 33.4875 364.563 33.7647 364.195 33.9697C363.83 34.1723 363.37 34.2736 362.815 34.2736H361.061V33.3583H362.717C363.069 33.3583 363.354 33.2977 363.573 33.1766C363.792 33.0532 363.953 32.8855 364.056 32.6735C364.158 32.4616 364.209 32.2205 364.209 31.9503C364.209 31.6801 364.158 31.4402 364.056 31.2306C363.953 31.021 363.791 30.8568 363.57 30.738C363.351 30.6192 363.062 30.5598 362.703 30.5598H361.348V36.7891H360.268ZM366.478 36.7891V31.4228H367.487V32.2752H367.543C367.641 31.9864 367.813 31.7593 368.06 31.594C368.309 31.4263 368.591 31.3424 368.906 31.3424C368.971 31.3424 369.048 31.3447 369.136 31.3494C369.227 31.3541 369.298 31.3599 369.349 31.3669V32.3661C369.307 32.3544 369.233 32.3416 369.126 32.3276C369.019 32.3113 368.911 32.3032 368.804 32.3032C368.557 32.3032 368.337 32.3556 368.144 32.4604C367.953 32.5629 367.802 32.7061 367.69 32.8901C367.578 33.0718 367.522 33.2791 367.522 33.512V36.7891H366.478ZM372.322 36.8974C371.819 36.8974 371.379 36.7821 371.004 36.5515C370.629 36.3209 370.338 35.9983 370.131 35.5837C369.924 35.1692 369.82 34.6847 369.82 34.1304C369.82 33.5737 369.924 33.0869 370.131 32.67C370.338 32.2531 370.629 31.9294 371.004 31.6988C371.379 31.4682 371.819 31.3529 372.322 31.3529C372.825 31.3529 373.264 31.4682 373.639 31.6988C374.014 31.9294 374.305 32.2531 374.512 32.67C374.719 33.0869 374.823 33.5737 374.823 34.1304C374.823 34.6847 374.719 35.1692 374.512 35.5837C374.305 35.9983 374.014 36.3209 373.639 36.5515C373.264 36.7821 372.825 36.8974 372.322 36.8974ZM372.325 36.0205C372.651 36.0205 372.921 35.9343 373.136 35.7619C373.35 35.5896 373.508 35.3601 373.611 35.0737C373.716 34.7872 373.768 34.4716 373.768 34.1269C373.768 33.7845 373.716 33.4701 373.611 33.1836C373.508 32.8948 373.35 32.663 373.136 32.4883C372.921 32.3137 372.651 32.2263 372.325 32.2263C371.997 32.2263 371.724 32.3137 371.508 32.4883C371.293 32.663 371.134 32.8948 371.029 33.1836C370.926 33.4701 370.875 33.7845 370.875 34.1269C370.875 34.4716 370.926 34.7872 371.029 35.0737C371.134 35.3601 371.293 35.5896 371.508 35.7619C371.724 35.9343 371.997 36.0205 372.325 36.0205ZM378.543 31.4228V32.2613H375.51V31.4228H378.543ZM376.342 36.7891V30.8009C376.342 30.4655 376.415 30.1872 376.562 29.9659C376.709 29.7423 376.903 29.5758 377.145 29.4663C377.388 29.3545 377.651 29.2986 377.935 29.2986C378.145 29.2986 378.324 29.3161 378.473 29.351C378.622 29.3836 378.733 29.4139 378.805 29.4419L378.56 30.2873C378.512 30.2733 378.449 30.257 378.372 30.2384C378.295 30.2174 378.202 30.207 378.092 30.207C377.838 30.207 377.657 30.2699 377.547 30.3956C377.44 30.5214 377.387 30.7031 377.387 30.9406V36.7891H376.342ZM379.621 36.7891V31.4228H380.665V36.7891H379.621ZM380.148 30.5948C379.967 30.5948 379.811 30.5342 379.68 30.4131C379.552 30.2897 379.488 30.1429 379.488 29.9729C379.488 29.8005 379.552 29.6538 379.68 29.5327C379.811 29.4092 379.967 29.3475 380.148 29.3475C380.33 29.3475 380.485 29.4092 380.613 29.5327C380.743 29.6538 380.809 29.8005 380.809 29.9729C380.809 30.1429 380.743 30.2897 380.613 30.4131C380.485 30.5342 380.33 30.5948 380.148 30.5948ZM384.576 31.4228V32.2613H381.644V31.4228H384.576ZM382.431 30.1371H383.475V35.2134C383.475 35.416 383.505 35.5686 383.566 35.6711C383.627 35.7712 383.705 35.8399 383.8 35.8772C383.898 35.9121 384.004 35.9296 384.118 35.9296C384.202 35.9296 384.275 35.9238 384.338 35.9121C384.401 35.9005 384.45 35.8912 384.485 35.8842L384.674 36.7471C384.613 36.7704 384.527 36.7937 384.415 36.817C384.303 36.8426 384.163 36.8566 383.996 36.8589C383.721 36.8636 383.465 36.8147 383.227 36.7122C382.99 36.6097 382.797 36.4513 382.651 36.2371C382.504 36.0228 382.431 35.7538 382.431 35.43V30.1371Z" fill="#475467"/>
<path d="M307.06 62.1333V46.8011H308.042V62.1333H307.06ZM310.366 51.4007C310.294 50.7938 310.003 50.3227 309.492 49.9873C308.981 49.6519 308.354 49.4842 307.611 49.4842C307.068 49.4842 306.593 49.572 306.186 49.7477C305.782 49.9234 305.467 50.165 305.239 50.4724C305.016 50.7799 304.904 51.1292 304.904 51.5205C304.904 51.8479 304.982 52.1294 305.137 52.365C305.297 52.5966 305.501 52.7902 305.748 52.9459C305.996 53.0977 306.255 53.2234 306.527 53.3233C306.798 53.4191 307.048 53.4969 307.276 53.5568L308.521 53.8922C308.841 53.9761 309.196 54.0919 309.587 54.2396C309.983 54.3873 310.36 54.589 310.719 54.8445C311.083 55.0961 311.382 55.4195 311.618 55.8148C311.853 56.21 311.971 56.6952 311.971 57.2701C311.971 57.9329 311.797 58.5318 311.45 59.0669C311.107 59.6019 310.604 60.0271 309.941 60.3426C309.282 60.658 308.481 60.8157 307.539 60.8157C306.661 60.8157 305.9 60.674 305.257 60.3905C304.618 60.107 304.115 59.7117 303.748 59.2046C303.385 58.6975 303.179 58.1086 303.131 57.4378H304.664C304.704 57.901 304.86 58.2843 305.132 58.5877C305.407 58.8872 305.754 59.1108 306.174 59.2585C306.597 59.4023 307.052 59.4741 307.539 59.4741C308.106 59.4741 308.615 59.3823 309.066 59.1986C309.518 59.011 309.875 58.7514 310.138 58.42C310.402 58.0846 310.534 57.6934 310.534 57.2462C310.534 56.8389 310.42 56.5075 310.192 56.252C309.965 55.9964 309.665 55.7888 309.294 55.6291C308.923 55.4694 308.521 55.3296 308.09 55.2098L306.581 54.7786C305.623 54.5031 304.864 54.1098 304.305 53.5988C303.746 53.0877 303.467 52.4189 303.467 51.5924C303.467 50.9056 303.652 50.3067 304.024 49.7956C304.399 49.2806 304.902 48.8813 305.533 48.5978C306.168 48.3103 306.876 48.1666 307.659 48.1666C308.449 48.1666 309.152 48.3083 309.767 48.5918C310.382 48.8713 310.869 49.2546 311.228 49.7417C311.592 50.2289 311.783 50.7819 311.803 51.4007H310.366ZM318.342 60.7678C317.552 60.7678 316.847 60.632 316.228 60.3605C315.613 60.089 315.124 59.7117 314.761 59.2286C314.401 58.7415 314.206 58.1765 314.174 57.5336H315.683C315.715 57.9289 315.851 58.2703 316.09 58.5578C316.33 58.8413 316.643 59.0609 317.03 59.2166C317.418 59.3723 317.847 59.4502 318.318 59.4502C318.845 59.4502 319.312 59.3583 319.72 59.1747C320.127 58.991 320.446 58.7355 320.678 58.4081C320.909 58.0807 321.025 57.7013 321.025 57.2701C321.025 56.8189 320.913 56.4217 320.69 56.0783C320.466 55.7309 320.139 55.4594 319.708 55.2638C319.276 55.0681 318.749 54.9703 318.126 54.9703H317.144V53.6527H318.126C318.614 53.6527 319.041 53.5648 319.408 53.3891C319.78 53.2135 320.069 52.9659 320.277 52.6465C320.488 52.3271 320.594 51.9517 320.594 51.5205C320.594 51.1053 320.502 50.7439 320.319 50.4365C320.135 50.129 319.875 49.8895 319.54 49.7178C319.209 49.5461 318.817 49.4602 318.366 49.4602C317.943 49.4602 317.544 49.5381 317.168 49.6938C316.797 49.8456 316.493 50.0671 316.258 50.3586C316.022 50.6461 315.895 50.9935 315.875 51.4007H314.437C314.461 50.7579 314.655 50.1949 315.018 49.7118C315.381 49.2247 315.857 48.8454 316.444 48.5739C317.034 48.3023 317.683 48.1666 318.39 48.1666C319.149 48.1666 319.799 48.3203 320.342 48.6278C320.886 48.9312 321.303 49.3325 321.594 49.8316C321.886 50.3307 322.031 50.8697 322.031 51.4487C322.031 52.1394 321.85 52.7283 321.486 53.2155C321.127 53.7026 320.638 54.04 320.019 54.2276V54.3235C320.794 54.4512 321.399 54.7806 321.834 55.3117C322.269 55.8387 322.487 56.4915 322.487 57.2701C322.487 57.9369 322.305 58.5358 321.942 59.0669C321.582 59.5939 321.091 60.0092 320.468 60.3126C319.845 60.6161 319.137 60.7678 318.342 60.7678ZM326.69 58.9231L326.594 59.57C326.526 60.0251 326.422 60.5123 326.282 61.0313C326.146 61.5504 326.005 62.0395 325.857 62.4987C325.709 62.9578 325.587 63.3232 325.492 63.5947H324.414C324.466 63.3391 324.533 63.0018 324.617 62.5825C324.701 62.1633 324.785 61.6941 324.869 61.1751C324.957 60.66 325.029 60.1329 325.084 59.5939L325.156 58.9231H326.69ZM329.284 60.6001V59.522L333.333 55.0901C333.808 54.571 334.199 54.1198 334.507 53.7365C334.814 53.3492 335.042 52.9859 335.19 52.6465C335.341 52.3031 335.417 51.9438 335.417 51.5684C335.417 51.1372 335.313 50.7639 335.106 50.4485C334.902 50.133 334.623 49.8895 334.267 49.7178C333.912 49.5461 333.513 49.4602 333.069 49.4602C332.598 49.4602 332.187 49.5581 331.836 49.7537C331.488 49.9454 331.219 50.2149 331.027 50.5623C330.839 50.9096 330.746 51.3169 330.746 51.784H329.332C329.332 51.0653 329.498 50.4345 329.829 49.8915C330.161 49.3484 330.612 48.9252 331.183 48.6218C331.758 48.3183 332.403 48.1666 333.117 48.1666C333.836 48.1666 334.473 48.3183 335.028 48.6218C335.583 48.9252 336.018 49.3345 336.334 49.8495C336.649 50.3646 336.807 50.9376 336.807 51.5684C336.807 52.0196 336.725 52.4608 336.561 52.892C336.401 53.3193 336.122 53.7964 335.723 54.3235C335.327 54.8465 334.778 55.4853 334.076 56.24L331.321 59.1867V59.2825H337.022V60.6001H329.284ZM343.329 60.7678C342.626 60.7678 341.993 60.628 341.43 60.3486C340.867 60.0691 340.416 59.6858 340.077 59.1986C339.737 58.7115 339.552 58.1565 339.52 57.5336H340.957C341.013 58.0886 341.265 58.5478 341.712 58.9112C342.163 59.2705 342.702 59.4502 343.329 59.4502C343.832 59.4502 344.279 59.3324 344.67 59.0968C345.066 58.8612 345.375 58.5378 345.599 58.1266C345.826 57.7113 345.94 57.2422 345.94 56.7191C345.94 56.1841 345.822 55.7069 345.587 55.2877C345.355 54.8645 345.036 54.5311 344.629 54.2875C344.221 54.044 343.756 53.9202 343.233 53.9162C342.858 53.9122 342.472 53.9701 342.077 54.0899C341.682 54.2057 341.356 54.3554 341.101 54.5391L339.711 54.3714L340.454 48.3343H346.827V49.6519H341.7L341.269 53.2694H341.341C341.592 53.0697 341.907 52.904 342.287 52.7723C342.666 52.6405 343.061 52.5746 343.473 52.5746C344.223 52.5746 344.892 52.7543 345.479 53.1136C346.07 53.469 346.533 53.9561 346.869 54.575C347.208 55.1939 347.378 55.9006 347.378 56.6952C347.378 57.4777 347.202 58.1765 346.851 58.7914C346.503 59.4023 346.024 59.8854 345.413 60.2407C344.802 60.5921 344.108 60.7678 343.329 60.7678ZM353.829 60.7678C353.326 60.7598 352.823 60.664 352.32 60.4803C351.817 60.2966 351.358 59.9872 350.943 59.552C350.527 59.1128 350.194 58.5199 349.942 57.7732C349.691 57.0226 349.565 56.0803 349.565 54.9463C349.565 53.8603 349.667 52.898 349.871 52.0595C350.074 51.2171 350.37 50.5084 350.757 49.9334C351.144 49.3544 351.611 48.9152 352.158 48.6158C352.709 48.3163 353.33 48.1666 354.021 48.1666C354.708 48.1666 355.319 48.3043 355.854 48.5798C356.393 48.8513 356.832 49.2307 357.171 49.7178C357.511 50.2049 357.73 50.7659 357.83 51.4007H356.369C356.233 50.8497 355.97 50.3926 355.578 50.0292C355.187 49.6659 354.668 49.4842 354.021 49.4842C353.071 49.4842 352.322 49.8975 351.775 50.724C351.232 51.5505 350.959 52.7104 350.955 54.2037H351.05C351.274 53.8643 351.54 53.5748 351.847 53.3352C352.158 53.0917 352.502 52.904 352.877 52.7723C353.252 52.6405 353.65 52.5746 354.069 52.5746C354.772 52.5746 355.415 52.7503 355.997 53.1017C356.58 53.449 357.048 53.9302 357.399 54.545C357.75 55.1559 357.926 55.8567 357.926 56.6472C357.926 57.4059 357.756 58.1006 357.417 58.7315C357.078 59.3583 356.6 59.8574 355.986 60.2288C355.375 60.5961 354.656 60.7758 353.829 60.7678ZM353.829 59.4502C354.333 59.4502 354.784 59.3244 355.183 59.0729C355.586 58.8213 355.904 58.4839 356.135 58.0607C356.371 57.6375 356.489 57.1663 356.489 56.6472C356.489 56.1402 356.375 55.679 356.147 55.2638C355.924 54.8445 355.614 54.5111 355.219 54.2636C354.828 54.016 354.38 53.8922 353.877 53.8922C353.498 53.8922 353.145 53.9681 352.817 54.1198C352.49 54.2676 352.202 54.4712 351.955 54.7307C351.711 54.9902 351.52 55.2877 351.38 55.6231C351.24 55.9545 351.17 56.3039 351.17 56.6712C351.17 57.1583 351.284 57.6135 351.512 58.0367C351.743 58.46 352.059 58.8014 352.458 59.0609C352.861 59.3204 353.318 59.4502 353.829 59.4502ZM360.759 60.6959C360.463 60.6959 360.21 60.5901 359.998 60.3785C359.787 60.1669 359.681 59.9133 359.681 59.6179C359.681 59.3224 359.787 59.0689 359.998 58.8573C360.21 58.6456 360.463 58.5398 360.759 58.5398C361.054 58.5398 361.308 58.6456 361.52 58.8573C361.731 59.0689 361.837 59.3224 361.837 59.6179C361.837 59.8135 361.787 59.9932 361.687 60.1569C361.591 60.3206 361.462 60.4524 361.298 60.5522C361.138 60.648 360.959 60.6959 360.759 60.6959ZM364.349 60.6001V59.522L368.398 55.0901C368.873 54.571 369.264 54.1198 369.572 53.7365C369.879 53.3492 370.107 52.9859 370.255 52.6465C370.406 52.3031 370.482 51.9438 370.482 51.5684C370.482 51.1372 370.378 50.7639 370.171 50.4485C369.967 50.133 369.688 49.8895 369.332 49.7178C368.977 49.5461 368.578 49.4602 368.135 49.4602C367.663 49.4602 367.252 49.5581 366.901 49.7537C366.553 49.9454 366.284 50.2149 366.092 50.5623C365.905 50.9096 365.811 51.3169 365.811 51.784H364.397C364.397 51.0653 364.563 50.4345 364.894 49.8915C365.226 49.3484 365.677 48.9252 366.248 48.6218C366.823 48.3183 367.468 48.1666 368.182 48.1666C368.901 48.1666 369.538 48.3183 370.093 48.6218C370.648 48.9252 371.083 49.3345 371.399 49.8495C371.714 50.3646 371.872 50.9376 371.872 51.5684C371.872 52.0196 371.79 52.4608 371.626 52.892C371.467 53.3193 371.187 53.7964 370.788 54.3235C370.392 54.8465 369.843 55.4853 369.141 56.24L366.386 59.1867V59.2825H372.087V60.6001H364.349ZM378.873 48.3343V60.6001H377.388V49.8915H377.316L374.321 51.8799V50.3706L377.388 48.3343H378.873Z" fill="#101828"/>
<g clip-path="url(#clip3_3639_302027)">
<path d="M448.805 62.6001H447.421L449.94 55.445H451.54L454.063 62.6001H452.679L450.768 56.9124H450.712L448.805 62.6001ZM448.85 59.7947H452.623V60.8358H448.85V59.7947ZM456.777 62.6944C456.356 62.6944 455.978 62.5861 455.645 62.3695C455.312 62.1529 455.049 61.8385 454.856 61.4262C454.662 61.014 454.566 60.5132 454.566 59.9239C454.566 59.3277 454.664 58.8246 454.859 58.4147C455.057 58.0024 455.324 57.6915 455.659 57.4819C455.995 57.2699 456.369 57.1639 456.781 57.1639C457.095 57.1639 457.354 57.2175 457.556 57.3246C457.759 57.4294 457.92 57.5564 458.039 57.7055C458.157 57.8522 458.249 57.9908 458.315 58.1212H458.367V55.445H459.635V62.6001H458.391V61.7546H458.315C458.249 61.8851 458.155 62.0236 458.032 62.1704C457.908 62.3148 457.745 62.4382 457.542 62.5407C457.34 62.6432 457.085 62.6944 456.777 62.6944ZM457.13 61.6568C457.398 61.6568 457.626 61.5846 457.815 61.4402C458.004 61.2935 458.147 61.0897 458.245 60.8288C458.342 60.5679 458.391 60.264 458.391 59.917C458.391 59.5699 458.342 59.2683 458.245 59.0121C458.149 58.7559 458.007 58.5567 457.818 58.4147C457.632 58.2726 457.403 58.2016 457.13 58.2016C456.848 58.2016 456.613 58.2749 456.424 58.4217C456.236 58.5684 456.094 58.771 455.998 59.0296C455.903 59.2881 455.855 59.5839 455.855 59.917C455.855 60.2523 455.903 60.5516 455.998 60.8148C456.096 61.0757 456.239 61.2818 456.428 61.4332C456.619 61.5823 456.853 61.6568 457.13 61.6568ZM462.974 62.6944C462.553 62.6944 462.175 62.5861 461.842 62.3695C461.509 62.1529 461.246 61.8385 461.053 61.4262C460.859 61.014 460.763 60.5132 460.763 59.9239C460.763 59.3277 460.861 58.8246 461.056 58.4147C461.254 58.0024 461.521 57.6915 461.856 57.4819C462.192 57.2699 462.565 57.1639 462.978 57.1639C463.292 57.1639 463.551 57.2175 463.753 57.3246C463.956 57.4294 464.117 57.5564 464.235 57.7055C464.354 57.8522 464.446 57.9908 464.511 58.1212H464.564V55.445H465.832V62.6001H464.588V61.7546H464.511C464.446 61.8851 464.352 62.0236 464.228 62.1704C464.105 62.3148 463.942 62.4382 463.739 62.5407C463.537 62.6432 463.282 62.6944 462.974 62.6944ZM463.327 61.6568C463.595 61.6568 463.823 61.5846 464.012 61.4402C464.201 61.2935 464.344 61.0897 464.442 60.8288C464.539 60.5679 464.588 60.264 464.588 59.917C464.588 59.5699 464.539 59.2683 464.442 59.0121C464.346 58.7559 464.204 58.5567 464.015 58.4147C463.829 58.2726 463.6 58.2016 463.327 58.2016C463.045 58.2016 462.81 58.2749 462.621 58.4217C462.433 58.5684 462.291 58.771 462.195 59.0296C462.1 59.2881 462.052 59.5839 462.052 59.917C462.052 60.2523 462.1 60.5516 462.195 60.8148C462.293 61.0757 462.436 61.2818 462.625 61.4332C462.816 61.5823 463.05 61.6568 463.327 61.6568ZM469.676 62.6001V55.445H474.33V56.5316H470.972V58.4741H474.089V59.5606H470.972V61.5136H474.358V62.6001H469.676ZM476.63 57.2338L477.713 59.2147L478.814 57.2338H480.152L478.534 59.917L480.18 62.6001H478.849L477.713 60.6681L476.588 62.6001H475.247L476.882 59.917L475.289 57.2338H476.63ZM481.13 64.6125V57.2338H482.374V58.1212H482.447C482.512 57.9908 482.604 57.8522 482.723 57.7055C482.842 57.5564 483.003 57.4294 483.205 57.3246C483.408 57.2175 483.666 57.1639 483.981 57.1639C484.395 57.1639 484.769 57.2699 485.102 57.4819C485.438 57.6915 485.703 58.0024 485.899 58.4147C486.097 58.8246 486.196 59.3277 486.196 59.9239C486.196 60.5132 486.099 61.014 485.906 61.4262C485.713 61.8385 485.449 62.1529 485.116 62.3695C484.783 62.5861 484.406 62.6944 483.984 62.6944C483.677 62.6944 483.422 62.6432 483.219 62.5407C483.017 62.4382 482.854 62.3148 482.73 62.1704C482.609 62.0236 482.515 61.8851 482.447 61.7546H482.395V64.6125H481.13ZM482.37 59.917C482.37 60.264 482.419 60.5679 482.517 60.8288C482.617 61.0897 482.76 61.2935 482.947 61.4402C483.135 61.5846 483.364 61.6568 483.631 61.6568C483.911 61.6568 484.145 61.5823 484.334 61.4332C484.522 61.2818 484.664 61.0757 484.76 60.8148C484.858 60.5516 484.907 60.2523 484.907 59.917C484.907 59.5839 484.859 59.2881 484.763 59.0296C484.668 58.771 484.526 58.5684 484.337 58.4217C484.149 58.2749 483.913 58.2016 483.631 58.2016C483.361 58.2016 483.132 58.2726 482.943 58.4147C482.755 58.5567 482.611 58.7559 482.514 59.0121C482.418 59.2683 482.37 59.5699 482.37 59.917ZM489.655 62.7049C489.117 62.7049 488.652 62.5931 488.261 62.3695C487.872 62.1436 487.572 61.8245 487.363 61.4122C487.153 60.9977 487.048 60.5097 487.048 59.9484C487.048 59.3964 487.153 58.9119 487.363 58.495C487.575 58.0758 487.87 57.7497 488.25 57.5168C488.63 57.2816 489.076 57.1639 489.588 57.1639C489.919 57.1639 490.231 57.2175 490.525 57.3246C490.82 57.4294 491.081 57.5925 491.307 57.8138C491.535 58.035 491.715 58.3168 491.845 58.6592C491.976 58.9993 492.041 59.4045 492.041 59.875V60.2628H487.642V59.4104H490.828C490.826 59.1681 490.774 58.9527 490.671 58.764C490.569 58.573 490.426 58.4228 490.242 58.3134C490.06 58.2039 489.848 58.1491 489.606 58.1491C489.347 58.1491 489.12 58.212 488.924 58.3378C488.729 58.4613 488.576 58.6243 488.467 58.8269C488.36 59.0272 488.305 59.2473 488.303 59.4872V60.2314C488.303 60.5435 488.36 60.8113 488.474 61.0349C488.588 61.2562 488.747 61.4262 488.952 61.545C489.157 61.6615 489.397 61.7197 489.672 61.7197C489.856 61.7197 490.023 61.6941 490.172 61.6428C490.321 61.5893 490.45 61.5112 490.559 61.4088C490.669 61.3063 490.752 61.1793 490.808 61.0279L491.988 61.1607C491.914 61.4728 491.772 61.7453 491.562 61.9782C491.355 62.2088 491.089 62.3881 490.766 62.5162C490.442 62.642 490.072 62.7049 489.655 62.7049ZM494.375 59.4558V62.6001H493.111V57.2338H494.32V58.1457H494.382C494.506 57.8452 494.703 57.6065 494.973 57.4294C495.245 57.2524 495.582 57.1639 495.983 57.1639C496.353 57.1639 496.675 57.2431 496.95 57.4015C497.227 57.5599 497.442 57.7893 497.593 58.0898C497.747 58.3902 497.823 58.7547 497.82 59.1833V62.6001H496.555V59.3789C496.555 59.0202 496.462 58.7396 496.276 58.5369C496.092 58.3343 495.837 58.233 495.511 58.233C495.29 58.233 495.093 58.2819 494.92 58.3797C494.75 58.4752 494.617 58.6138 494.519 58.7955C494.423 58.9772 494.375 59.1973 494.375 59.4558ZM503.347 58.6522L502.194 58.778C502.162 58.6616 502.105 58.5521 502.023 58.4496C501.944 58.3471 501.837 58.2644 501.702 58.2016C501.567 58.1387 501.401 58.1072 501.206 58.1072C500.942 58.1072 500.721 58.1643 500.542 58.2784C500.365 58.3925 500.277 58.5404 500.28 58.7221C500.277 58.8782 500.334 59.0051 500.451 59.1029C500.57 59.2007 500.765 59.2811 501.038 59.344L501.953 59.5396C502.461 59.6491 502.838 59.8226 503.085 60.0602C503.334 60.2978 503.46 60.6087 503.462 60.993C503.46 61.3307 503.361 61.6289 503.166 61.8874C502.972 62.1436 502.703 62.3439 502.358 62.4883C502.014 62.6327 501.618 62.7049 501.171 62.7049C500.514 62.7049 499.985 62.5675 499.585 62.2927C499.184 62.0155 498.945 61.63 498.868 61.1362L500.102 61.0175C500.157 61.2597 500.276 61.4425 500.458 61.566C500.64 61.6894 500.876 61.7511 501.167 61.7511C501.468 61.7511 501.709 61.6894 501.89 61.566C502.074 61.4425 502.166 61.29 502.166 61.1083C502.166 60.9546 502.107 60.8276 501.988 60.7275C501.872 60.6273 501.69 60.5505 501.443 60.4969L500.528 60.3047C500.013 60.1976 499.632 60.0171 499.385 59.7632C499.138 59.507 499.016 59.1833 499.019 58.792C499.016 58.4613 499.106 58.1748 499.288 57.9325C499.472 57.688 499.727 57.4993 500.053 57.3666C500.381 57.2315 500.76 57.1639 501.188 57.1639C501.817 57.1639 502.312 57.2979 502.673 57.5657C503.036 57.8336 503.261 58.1957 503.347 58.6522ZM506.881 62.7049C506.343 62.7049 505.878 62.5931 505.487 62.3695C505.098 62.1436 504.799 61.8245 504.589 61.4122C504.38 60.9977 504.275 60.5097 504.275 59.9484C504.275 59.3964 504.38 58.9119 504.589 58.495C504.801 58.0758 505.097 57.7497 505.477 57.5168C505.856 57.2816 506.302 57.1639 506.815 57.1639C507.145 57.1639 507.458 57.2175 507.751 57.3246C508.047 57.4294 508.308 57.5925 508.534 57.8138C508.762 58.035 508.941 58.3168 509.072 58.6592C509.202 58.9993 509.267 59.4045 509.267 59.875V60.2628H504.869V59.4104H508.055C508.053 59.1681 508 58.9527 507.898 58.764C507.795 58.573 507.652 58.4228 507.468 58.3134C507.286 58.2039 507.074 58.1491 506.832 58.1491C506.574 58.1491 506.347 58.212 506.151 58.3378C505.955 58.4613 505.803 58.6243 505.693 58.8269C505.586 59.0272 505.531 59.2473 505.529 59.4872V60.2314C505.529 60.5435 505.586 60.8113 505.7 61.0349C505.814 61.2562 505.974 61.4262 506.179 61.545C506.384 61.6615 506.624 61.7197 506.899 61.7197C507.083 61.7197 507.249 61.6941 507.398 61.6428C507.547 61.5893 507.676 61.5112 507.786 61.4088C507.895 61.3063 507.978 61.1793 508.034 61.0279L509.215 61.1607C509.14 61.4728 508.998 61.7453 508.789 61.9782C508.581 62.2088 508.316 62.3881 507.992 62.5162C507.668 62.642 507.298 62.7049 506.881 62.7049Z" fill="#158ECC"/>
</g>
<rect x="274.415" y="97.8719" width="252.28" height="79.461" rx="2.45955" fill="#FFFBFA"/>
<rect x="274.415" y="97.8719" width="252.28" height="79.461" rx="2.45955" stroke="#EAECF0" stroke-width="0.702729"/>
<circle cx="293.74" cy="122.819" r="2.81092" fill="#F04438"/>
<path d="M308.902 123.369H307.812C307.77 123.136 307.692 122.931 307.578 122.754C307.463 122.577 307.324 122.426 307.158 122.303C306.993 122.179 306.808 122.086 306.603 122.023C306.4 121.961 306.185 121.929 305.957 121.929C305.544 121.929 305.175 122.033 304.849 122.24C304.525 122.447 304.269 122.751 304.08 123.152C303.894 123.553 303.801 124.042 303.801 124.619C303.801 125.202 303.894 125.693 304.08 126.094C304.269 126.494 304.526 126.797 304.853 127.002C305.179 127.207 305.545 127.309 305.953 127.309C306.179 127.309 306.393 127.279 306.596 127.219C306.801 127.156 306.986 127.064 307.151 126.943C307.317 126.821 307.456 126.674 307.571 126.499C307.687 126.322 307.767 126.119 307.812 125.891L308.902 125.894C308.843 126.246 308.73 126.57 308.563 126.866C308.397 127.159 308.184 127.413 307.923 127.627C307.665 127.839 307.369 128.003 307.036 128.12C306.703 128.236 306.34 128.295 305.946 128.295C305.326 128.295 304.774 128.148 304.29 127.854C303.806 127.559 303.424 127.136 303.144 126.586C302.867 126.037 302.728 125.381 302.728 124.619C302.728 123.855 302.868 123.2 303.148 122.652C303.427 122.103 303.809 121.681 304.294 121.388C304.778 121.092 305.329 120.944 305.946 120.944C306.326 120.944 306.68 120.999 307.008 121.108C307.339 121.215 307.636 121.374 307.899 121.583C308.162 121.791 308.38 122.044 308.552 122.345C308.725 122.643 308.841 122.984 308.902 123.369ZM312.37 128.305C311.867 128.305 311.428 128.19 311.053 127.959C310.678 127.729 310.387 127.406 310.179 126.991C309.972 126.577 309.869 126.092 309.869 125.538C309.869 124.981 309.972 124.495 310.179 124.078C310.387 123.661 310.678 123.337 311.053 123.106C311.428 122.876 311.867 122.761 312.37 122.761C312.873 122.761 313.312 122.876 313.687 123.106C314.062 123.337 314.353 123.661 314.561 124.078C314.768 124.495 314.872 124.981 314.872 125.538C314.872 126.092 314.768 126.577 314.561 126.991C314.353 127.406 314.062 127.729 313.687 127.959C313.312 128.19 312.873 128.305 312.37 128.305ZM312.374 127.428C312.7 127.428 312.97 127.342 313.184 127.17C313.398 126.997 313.557 126.768 313.659 126.481C313.764 126.195 313.816 125.879 313.816 125.535C313.816 125.192 313.764 124.878 313.659 124.591C313.557 124.302 313.398 124.071 313.184 123.896C312.97 123.721 312.7 123.634 312.374 123.634C312.045 123.634 311.773 123.721 311.556 123.896C311.342 124.071 311.182 124.302 311.077 124.591C310.975 124.878 310.924 125.192 310.924 125.535C310.924 125.879 310.975 126.195 311.077 126.481C311.182 126.768 311.342 126.997 311.556 127.17C311.773 127.342 312.045 127.428 312.374 127.428ZM320.059 124.141L319.112 124.308C319.072 124.187 319.009 124.072 318.923 123.962C318.839 123.853 318.725 123.763 318.581 123.693C318.437 123.624 318.256 123.589 318.039 123.589C317.744 123.589 317.497 123.655 317.299 123.788C317.101 123.918 317.002 124.087 317.002 124.294C317.002 124.474 317.068 124.618 317.201 124.728C317.334 124.837 317.548 124.927 317.844 124.997L318.696 125.192C319.19 125.306 319.558 125.482 319.8 125.72C320.042 125.957 320.164 126.266 320.164 126.646C320.164 126.967 320.07 127.253 319.884 127.505C319.7 127.754 319.443 127.95 319.112 128.092C318.784 128.234 318.403 128.305 317.97 128.305C317.369 128.305 316.878 128.177 316.499 127.921C316.119 127.662 315.886 127.295 315.8 126.82L316.81 126.667C316.873 126.93 317.002 127.129 317.197 127.264C317.393 127.397 317.648 127.463 317.963 127.463C318.305 127.463 318.579 127.392 318.784 127.25C318.989 127.106 319.091 126.93 319.091 126.722C319.091 126.555 319.028 126.414 318.902 126.3C318.779 126.186 318.589 126.099 318.333 126.041L317.425 125.842C316.924 125.728 316.553 125.546 316.314 125.297C316.076 125.048 315.957 124.732 315.957 124.35C315.957 124.033 316.046 123.756 316.223 123.519C316.4 123.281 316.644 123.096 316.956 122.963C317.268 122.828 317.626 122.761 318.029 122.761C318.609 122.761 319.065 122.886 319.398 123.138C319.732 123.387 319.952 123.721 320.059 124.141ZM323.817 122.83V123.669H320.886V122.83H323.817ZM321.672 121.545H322.717V126.621C322.717 126.824 322.747 126.976 322.807 127.079C322.868 127.179 322.946 127.248 323.041 127.285C323.139 127.32 323.245 127.337 323.359 127.337C323.443 127.337 323.517 127.332 323.58 127.32C323.642 127.308 323.691 127.299 323.726 127.292L323.915 128.155C323.854 128.178 323.768 128.201 323.656 128.225C323.545 128.25 323.405 128.264 323.237 128.267C322.962 128.271 322.706 128.222 322.469 128.12C322.231 128.017 322.039 127.859 321.892 127.645C321.745 127.43 321.672 127.161 321.672 126.838V121.545ZM329.837 128.305C329.334 128.305 328.895 128.19 328.52 127.959C328.145 127.729 327.853 127.406 327.646 126.991C327.439 126.577 327.335 126.092 327.335 125.538C327.335 124.981 327.439 124.495 327.646 124.078C327.853 123.661 328.145 123.337 328.52 123.106C328.895 122.876 329.334 122.761 329.837 122.761C330.34 122.761 330.779 122.876 331.154 123.106C331.529 123.337 331.82 123.661 332.027 124.078C332.235 124.495 332.338 124.981 332.338 125.538C332.338 126.092 332.235 126.577 332.027 126.991C331.82 127.406 331.529 127.729 331.154 127.959C330.779 128.19 330.34 128.305 329.837 128.305ZM329.84 127.428C330.166 127.428 330.436 127.342 330.651 127.17C330.865 126.997 331.023 126.768 331.126 126.481C331.231 126.195 331.283 125.879 331.283 125.535C331.283 125.192 331.231 124.878 331.126 124.591C331.023 124.302 330.865 124.071 330.651 123.896C330.436 123.721 330.166 123.634 329.84 123.634C329.512 123.634 329.239 123.721 329.023 123.896C328.808 124.071 328.649 124.302 328.544 124.591C328.442 124.878 328.39 125.192 328.39 125.535C328.39 125.879 328.442 126.195 328.544 126.481C328.649 126.768 328.808 126.997 329.023 127.17C329.239 127.342 329.512 127.428 329.84 127.428ZM336.058 122.83V123.669H333.026V122.83H336.058ZM333.857 128.197V122.209C333.857 121.873 333.93 121.595 334.077 121.374C334.224 121.15 334.418 120.983 334.661 120.874C334.903 120.762 335.166 120.706 335.45 120.706C335.66 120.706 335.839 120.724 335.988 120.759C336.137 120.791 336.248 120.822 336.32 120.85L336.076 121.695C336.027 121.681 335.964 121.665 335.887 121.646C335.81 121.625 335.717 121.615 335.607 121.615C335.354 121.615 335.172 121.678 335.062 121.803C334.955 121.929 334.902 122.111 334.902 122.348V128.197H333.857ZM343.726 122.921C343.689 122.591 343.535 122.334 343.265 122.153C342.994 121.969 342.654 121.877 342.244 121.877C341.951 121.877 341.697 121.923 341.483 122.016C341.269 122.107 341.102 122.233 340.983 122.394C340.867 122.552 340.809 122.733 340.809 122.935C340.809 123.105 340.848 123.252 340.927 123.375C341.009 123.499 341.115 123.603 341.245 123.686C341.378 123.768 341.52 123.837 341.672 123.893C341.823 123.946 341.968 123.99 342.108 124.025L342.807 124.207C343.035 124.263 343.269 124.339 343.509 124.434C343.749 124.53 343.972 124.655 344.177 124.811C344.381 124.967 344.547 125.161 344.673 125.391C344.801 125.622 344.865 125.898 344.865 126.219C344.865 126.625 344.76 126.984 344.55 127.299C344.343 127.613 344.041 127.861 343.645 128.043C343.252 128.225 342.776 128.316 342.217 128.316C341.681 128.316 341.217 128.231 340.826 128.061C340.435 127.89 340.128 127.649 339.907 127.337C339.686 127.023 339.564 126.65 339.54 126.219H340.623C340.644 126.478 340.728 126.693 340.875 126.866C341.024 127.036 341.214 127.163 341.444 127.246C341.677 127.328 341.932 127.369 342.21 127.369C342.515 127.369 342.786 127.321 343.024 127.226C343.263 127.128 343.452 126.993 343.59 126.82C343.727 126.646 343.796 126.442 343.796 126.209C343.796 125.997 343.735 125.823 343.614 125.688C343.495 125.553 343.333 125.441 343.128 125.353C342.926 125.264 342.696 125.186 342.44 125.119L341.595 124.888C341.022 124.732 340.568 124.503 340.232 124.2C339.899 123.897 339.733 123.497 339.733 122.998C339.733 122.586 339.844 122.226 340.068 121.919C340.292 121.611 340.594 121.372 340.976 121.202C341.358 121.03 341.789 120.944 342.269 120.944C342.753 120.944 343.181 121.029 343.551 121.199C343.924 121.369 344.217 121.603 344.432 121.901C344.646 122.197 344.758 122.537 344.767 122.921H343.726ZM347.633 128.316C347.293 128.316 346.985 128.253 346.71 128.127C346.435 127.999 346.218 127.814 346.057 127.571C345.899 127.329 345.819 127.032 345.819 126.681C345.819 126.378 345.878 126.129 345.994 125.933C346.111 125.737 346.268 125.582 346.466 125.468C346.664 125.354 346.885 125.268 347.13 125.21C347.374 125.151 347.623 125.107 347.877 125.077C348.199 125.04 348.459 125.009 348.66 124.986C348.86 124.96 349.006 124.92 349.096 124.864C349.187 124.808 349.233 124.717 349.233 124.591V124.567C349.233 124.262 349.147 124.025 348.974 123.858C348.804 123.69 348.55 123.606 348.213 123.606C347.861 123.606 347.584 123.684 347.381 123.84C347.181 123.994 347.042 124.165 346.965 124.354L345.984 124.13C346.1 123.804 346.27 123.541 346.494 123.341C346.72 123.138 346.979 122.991 347.273 122.9C347.566 122.807 347.875 122.761 348.199 122.761C348.413 122.761 348.64 122.786 348.88 122.837C349.122 122.886 349.348 122.977 349.558 123.11C349.77 123.243 349.943 123.433 350.078 123.679C350.213 123.924 350.281 124.242 350.281 124.633V128.197H349.261V127.463H349.219C349.151 127.598 349.05 127.731 348.915 127.861C348.78 127.992 348.606 128.1 348.394 128.186C348.182 128.272 347.928 128.316 347.633 128.316ZM347.86 127.477C348.149 127.477 348.395 127.42 348.6 127.306C348.808 127.192 348.965 127.043 349.072 126.859C349.181 126.672 349.236 126.473 349.236 126.261V125.57C349.199 125.607 349.127 125.642 349.02 125.674C348.915 125.705 348.795 125.731 348.66 125.755C348.525 125.776 348.393 125.795 348.265 125.814C348.137 125.83 348.03 125.844 347.944 125.856C347.741 125.882 347.556 125.925 347.388 125.985C347.223 126.046 347.09 126.133 346.99 126.247C346.892 126.359 346.843 126.508 346.843 126.694C346.843 126.953 346.939 127.149 347.13 127.281C347.321 127.412 347.564 127.477 347.86 127.477ZM352.717 121.042V128.197H351.672V121.042H352.717ZM356.435 128.305C355.906 128.305 355.451 128.192 355.069 127.966C354.689 127.738 354.396 127.418 354.189 127.005C353.984 126.591 353.881 126.105 353.881 125.549C353.881 124.999 353.984 124.514 354.189 124.095C354.396 123.676 354.685 123.349 355.055 123.113C355.428 122.878 355.863 122.761 356.362 122.761C356.664 122.761 356.958 122.811 357.242 122.911C357.526 123.011 357.781 123.168 358.007 123.382C358.233 123.597 358.411 123.875 358.542 124.217C358.672 124.558 358.737 124.971 358.737 125.458V125.828H354.472V125.045H357.714C357.714 124.771 357.658 124.527 357.546 124.315C357.434 124.101 357.277 123.932 357.074 123.809C356.874 123.685 356.639 123.624 356.369 123.624C356.075 123.624 355.819 123.696 355.6 123.84C355.383 123.982 355.216 124.169 355.097 124.399C354.98 124.627 354.922 124.875 354.922 125.143V125.755C354.922 126.113 354.985 126.418 355.111 126.67C355.239 126.922 355.417 127.114 355.645 127.246C355.874 127.377 356.14 127.442 356.445 127.442C356.643 127.442 356.824 127.414 356.987 127.358C357.15 127.3 357.291 127.214 357.41 127.1C357.528 126.986 357.619 126.845 357.682 126.677L358.671 126.855C358.592 127.146 358.45 127.401 358.245 127.62C358.042 127.837 357.787 128.006 357.48 128.127C357.174 128.246 356.826 128.305 356.435 128.305Z" fill="#475467"/>
<path d="M307.06 153.541V138.209H308.042V153.541H307.06ZM310.366 142.808C310.294 142.202 310.003 141.73 309.492 141.395C308.981 141.06 308.354 140.892 307.611 140.892C307.068 140.892 306.593 140.98 306.186 141.155C305.782 141.331 305.467 141.573 305.239 141.88C305.016 142.188 304.904 142.537 304.904 142.928C304.904 143.256 304.982 143.537 305.137 143.773C305.297 144.004 305.501 144.198 305.748 144.354C305.996 144.505 306.255 144.631 306.527 144.731C306.798 144.827 307.048 144.905 307.276 144.965L308.521 145.3C308.841 145.384 309.196 145.5 309.587 145.647C309.983 145.795 310.36 145.997 310.719 146.252C311.083 146.504 311.382 146.827 311.618 147.222C311.853 147.618 311.971 148.103 311.971 148.678C311.971 149.341 311.797 149.94 311.45 150.475C311.107 151.01 310.604 151.435 309.941 151.75C309.282 152.066 308.481 152.223 307.539 152.223C306.661 152.223 305.9 152.082 305.257 151.798C304.618 151.515 304.115 151.119 303.748 150.612C303.385 150.105 303.179 149.516 303.131 148.846H304.664C304.704 149.309 304.86 149.692 305.132 149.995C305.407 150.295 305.754 150.519 306.174 150.666C306.597 150.81 307.052 150.882 307.539 150.882C308.106 150.882 308.615 150.79 309.066 150.606C309.518 150.419 309.875 150.159 310.138 149.828C310.402 149.492 310.534 149.101 310.534 148.654C310.534 148.247 310.42 147.915 310.192 147.66C309.965 147.404 309.665 147.197 309.294 147.037C308.923 146.877 308.521 146.737 308.09 146.618L306.581 146.186C305.623 145.911 304.864 145.518 304.305 145.006C303.746 144.495 303.467 143.827 303.467 143C303.467 142.313 303.652 141.714 304.024 141.203C304.399 140.688 304.902 140.289 305.533 140.006C306.168 139.718 306.876 139.574 307.659 139.574C308.449 139.574 309.152 139.716 309.767 140C310.382 140.279 310.869 140.662 311.228 141.149C311.592 141.637 311.783 142.19 311.803 142.808H310.366ZM322.774 152.176C322.071 152.176 321.439 152.036 320.876 151.756C320.313 151.477 319.861 151.093 319.522 150.606C319.183 150.119 318.997 149.564 318.965 148.941H320.402C320.458 149.496 320.71 149.956 321.157 150.319C321.608 150.678 322.147 150.858 322.774 150.858C323.277 150.858 323.724 150.74 324.116 150.505C324.511 150.269 324.82 149.946 325.044 149.534C325.272 149.119 325.385 148.65 325.385 148.127C325.385 147.592 325.268 147.115 325.032 146.695C324.8 146.272 324.481 145.939 324.074 145.695C323.666 145.452 323.201 145.328 322.678 145.324C322.303 145.32 321.918 145.378 321.522 145.498C321.127 145.613 320.802 145.763 320.546 145.947L319.157 145.779L319.899 139.742H326.272V141.06H321.145L320.714 144.677H320.786C321.037 144.477 321.353 144.312 321.732 144.18C322.111 144.048 322.507 143.982 322.918 143.982C323.668 143.982 324.337 144.162 324.924 144.521C325.515 144.877 325.978 145.364 326.314 145.983C326.653 146.602 326.823 147.308 326.823 148.103C326.823 148.885 326.647 149.584 326.296 150.199C325.948 150.81 325.469 151.293 324.858 151.648C324.247 152 323.553 152.176 322.774 152.176ZM330.873 150.331L330.777 150.978C330.709 151.433 330.605 151.92 330.466 152.439C330.33 152.958 330.188 153.447 330.04 153.906C329.893 154.366 329.771 154.731 329.675 155.002H328.597C328.649 154.747 328.717 154.409 328.801 153.99C328.885 153.571 328.968 153.102 329.052 152.583C329.14 152.068 329.212 151.541 329.268 151.002L329.34 150.331H330.873ZM337.054 152.176C336.351 152.176 335.718 152.036 335.155 151.756C334.592 151.477 334.141 151.093 333.802 150.606C333.462 150.119 333.277 149.564 333.245 148.941H334.682C334.738 149.496 334.989 149.956 335.437 150.319C335.888 150.678 336.427 150.858 337.054 150.858C337.557 150.858 338.004 150.74 338.395 150.505C338.791 150.269 339.1 149.946 339.324 149.534C339.551 149.119 339.665 148.65 339.665 148.127C339.665 147.592 339.547 147.115 339.312 146.695C339.08 146.272 338.761 145.939 338.353 145.695C337.946 145.452 337.481 145.328 336.958 145.324C336.583 145.32 336.197 145.378 335.802 145.498C335.407 145.613 335.081 145.763 334.826 145.947L333.436 145.779L334.179 139.742H340.551V141.06H335.425L334.993 144.677H335.065C335.317 144.477 335.632 144.312 336.012 144.18C336.391 144.048 336.786 143.982 337.197 143.982C337.948 143.982 338.617 144.162 339.204 144.521C339.795 144.877 340.258 145.364 340.593 145.983C340.933 146.602 341.102 147.308 341.102 148.103C341.102 148.885 340.927 149.584 340.575 150.199C340.228 150.81 339.749 151.293 339.138 151.648C338.527 152 337.832 152.176 337.054 152.176ZM347.387 139.574C347.89 139.578 348.393 139.674 348.896 139.862C349.399 140.049 349.858 140.361 350.273 140.796C350.689 141.227 351.022 141.816 351.274 142.563C351.525 143.31 351.651 144.246 351.651 145.372C351.651 146.462 351.547 147.43 351.339 148.277C351.136 149.119 350.84 149.83 350.453 150.409C350.07 150.988 349.603 151.427 349.052 151.726C348.505 152.026 347.886 152.176 347.195 152.176C346.508 152.176 345.895 152.04 345.356 151.768C344.821 151.493 344.382 151.111 344.039 150.624C343.699 150.133 343.482 149.564 343.386 148.917H344.847C344.979 149.48 345.24 149.946 345.632 150.313C346.027 150.676 346.548 150.858 347.195 150.858C348.141 150.858 348.888 150.445 349.435 149.618C349.986 148.792 350.261 147.624 350.261 146.114H350.166C349.942 146.45 349.676 146.739 349.369 146.983C349.062 147.226 348.72 147.414 348.345 147.546C347.97 147.678 347.57 147.744 347.147 147.744C346.444 147.744 345.799 147.57 345.213 147.222C344.63 146.871 344.162 146.39 343.811 145.779C343.464 145.164 343.29 144.461 343.29 143.671C343.29 142.92 343.458 142.233 343.793 141.611C344.132 140.984 344.608 140.485 345.218 140.113C345.833 139.742 346.556 139.562 347.387 139.574ZM347.387 140.892C346.883 140.892 346.43 141.018 346.027 141.269C345.628 141.517 345.31 141.852 345.075 142.275C344.843 142.695 344.727 143.16 344.727 143.671C344.727 144.182 344.839 144.647 345.063 145.066C345.29 145.482 345.6 145.813 345.991 146.061C346.386 146.304 346.836 146.426 347.339 146.426C347.718 146.426 348.071 146.352 348.399 146.204C348.726 146.053 349.012 145.847 349.255 145.587C349.503 145.324 349.696 145.026 349.836 144.695C349.976 144.36 350.046 144.01 350.046 143.647C350.046 143.168 349.93 142.719 349.698 142.299C349.471 141.88 349.155 141.541 348.752 141.281C348.353 141.022 347.898 140.892 347.387 140.892ZM353.719 149.492V148.271L359.109 139.742H359.995V141.635H359.396L355.324 148.079V148.175H362.583V149.492H353.719ZM359.492 152.008V149.121V148.552V139.742H360.906V152.008H359.492ZM365.305 152.104C365.009 152.104 364.756 151.998 364.544 151.786C364.332 151.575 364.227 151.321 364.227 151.026C364.227 150.73 364.332 150.477 364.544 150.265C364.756 150.053 365.009 149.948 365.305 149.948C365.6 149.948 365.854 150.053 366.065 150.265C366.277 150.477 366.383 150.73 366.383 151.026C366.383 151.221 366.333 151.401 366.233 151.565C366.137 151.728 366.007 151.86 365.844 151.96C365.684 152.056 365.504 152.104 365.305 152.104ZM372.578 152.176C371.788 152.176 371.083 152.04 370.464 151.768C369.849 151.497 369.36 151.119 368.997 150.636C368.638 150.149 368.442 149.584 368.41 148.941H369.919C369.951 149.337 370.087 149.678 370.327 149.966C370.566 150.249 370.88 150.469 371.267 150.624C371.654 150.78 372.083 150.858 372.555 150.858C373.082 150.858 373.549 150.766 373.956 150.582C374.363 150.399 374.683 150.143 374.914 149.816C375.146 149.488 375.262 149.109 375.262 148.678C375.262 148.227 375.15 147.829 374.926 147.486C374.703 147.139 374.375 146.867 373.944 146.671C373.513 146.476 372.986 146.378 372.363 146.378H371.381V145.06H372.363C372.85 145.06 373.277 144.973 373.645 144.797C374.016 144.621 374.305 144.374 374.513 144.054C374.725 143.735 374.83 143.359 374.83 142.928C374.83 142.513 374.739 142.152 374.555 141.844C374.371 141.537 374.112 141.297 373.776 141.125C373.445 140.954 373.054 140.868 372.602 140.868C372.179 140.868 371.78 140.946 371.405 141.102C371.033 141.253 370.73 141.475 370.494 141.766C370.259 142.054 370.131 142.401 370.111 142.808H368.674C368.698 142.166 368.891 141.603 369.255 141.12C369.618 140.632 370.093 140.253 370.68 139.982C371.271 139.71 371.92 139.574 372.626 139.574C373.385 139.574 374.036 139.728 374.579 140.035C375.122 140.339 375.539 140.74 375.831 141.239C376.122 141.738 376.268 142.277 376.268 142.856C376.268 143.547 376.086 144.136 375.723 144.623C375.363 145.11 374.874 145.448 374.255 145.635V145.731C375.03 145.859 375.635 146.188 376.07 146.719C376.505 147.246 376.723 147.899 376.723 148.678C376.723 149.345 376.541 149.944 376.178 150.475C375.819 151.002 375.328 151.417 374.705 151.72C374.082 152.024 373.373 152.176 372.578 152.176ZM383.485 139.742V152.008H381.999V141.299H381.928L378.933 143.288V141.778L381.999 139.742H383.485Z" fill="#101828"/>
<rect x="274.415" y="189.279" width="252.28" height="79.461" rx="2.45955" fill="#FFFCF5"/>
<rect x="274.415" y="189.279" width="252.28" height="79.461" rx="2.45955" stroke="#EAECF0" stroke-width="0.702729"/>
<circle cx="293.74" cy="214.226" r="2.81092" fill="#F79009"/>
<path d="M302.959 219.604V212.449H304.038V218.675H307.281V219.604H302.959ZM309.99 219.723C309.65 219.723 309.342 219.66 309.068 219.535C308.793 219.407 308.575 219.221 308.414 218.979C308.256 218.737 308.177 218.44 308.177 218.088C308.177 217.785 308.235 217.536 308.351 217.341C308.468 217.145 308.625 216.99 308.823 216.876C309.021 216.762 309.242 216.676 309.487 216.617C309.731 216.559 309.981 216.515 310.235 216.485C310.556 216.447 310.817 216.417 311.017 216.394C311.217 216.368 311.363 216.327 311.454 216.272C311.545 216.216 311.59 216.125 311.59 215.999V215.975C311.59 215.669 311.504 215.433 311.332 215.265C311.162 215.098 310.908 215.014 310.57 215.014C310.218 215.014 309.941 215.092 309.738 215.248C309.538 215.402 309.4 215.573 309.323 215.761L308.341 215.538C308.457 215.212 308.627 214.949 308.851 214.748C309.077 214.546 309.337 214.399 309.63 214.308C309.924 214.215 310.232 214.168 310.556 214.168C310.77 214.168 310.997 214.194 311.237 214.245C311.479 214.294 311.705 214.385 311.915 214.518C312.127 214.65 312.3 214.84 312.436 215.087C312.571 215.332 312.638 215.65 312.638 216.041V219.604H311.618V218.871H311.576C311.509 219.006 311.407 219.139 311.272 219.269C311.137 219.4 310.964 219.508 310.752 219.594C310.54 219.68 310.286 219.723 309.99 219.723ZM310.217 218.885C310.506 218.885 310.753 218.828 310.958 218.714C311.165 218.599 311.322 218.45 311.429 218.266C311.539 218.08 311.594 217.881 311.594 217.669V216.977C311.556 217.015 311.484 217.049 311.377 217.082C311.272 217.112 311.152 217.139 311.017 217.162C310.882 217.183 310.75 217.203 310.622 217.222C310.494 217.238 310.387 217.252 310.301 217.264C310.098 217.289 309.913 217.332 309.745 217.393C309.58 217.454 309.447 217.541 309.347 217.655C309.249 217.767 309.2 217.916 309.2 218.102C309.2 218.361 309.296 218.556 309.487 218.689C309.678 218.82 309.921 218.885 310.217 218.885ZM314.113 219.604V212.449H315.158V215.108H315.221C315.281 214.996 315.369 214.867 315.483 214.72C315.597 214.574 315.755 214.445 315.958 214.336C316.161 214.224 316.429 214.168 316.762 214.168C317.195 214.168 317.581 214.278 317.921 214.497C318.262 214.716 318.528 215.031 318.722 215.444C318.917 215.856 319.015 216.352 319.015 216.932C319.015 217.512 318.918 218.009 318.725 218.424C318.532 218.836 318.266 219.154 317.928 219.377C317.591 219.599 317.205 219.709 316.772 219.709C316.446 219.709 316.179 219.655 315.972 219.545C315.767 219.436 315.606 219.308 315.49 219.161C315.373 219.014 315.284 218.884 315.221 218.77H315.134V219.604H314.113ZM315.137 216.921C315.137 217.299 315.192 217.629 315.301 217.914C315.411 218.198 315.569 218.42 315.776 218.581C315.984 218.739 316.238 218.818 316.538 218.818C316.85 218.818 317.111 218.736 317.321 218.57C317.53 218.403 317.689 218.176 317.796 217.889C317.905 217.603 317.96 217.28 317.96 216.921C317.96 216.567 317.906 216.249 317.799 215.968C317.694 215.686 317.536 215.463 317.324 215.3C317.114 215.137 316.852 215.056 316.538 215.056C316.235 215.056 315.979 215.134 315.769 215.29C315.562 215.446 315.405 215.664 315.298 215.943C315.191 216.223 315.137 216.549 315.137 216.921ZM322.448 219.713C321.945 219.713 321.506 219.598 321.131 219.367C320.756 219.136 320.465 218.814 320.258 218.399C320.051 217.985 319.947 217.5 319.947 216.946C319.947 216.389 320.051 215.902 320.258 215.485C320.465 215.069 320.756 214.745 321.131 214.514C321.506 214.284 321.945 214.168 322.448 214.168C322.952 214.168 323.391 214.284 323.766 214.514C324.141 214.745 324.432 215.069 324.639 215.485C324.846 215.902 324.95 216.389 324.95 216.946C324.95 217.5 324.846 217.985 324.639 218.399C324.432 218.814 324.141 219.136 323.766 219.367C323.391 219.598 322.952 219.713 322.448 219.713ZM322.452 218.836C322.778 218.836 323.048 218.75 323.262 218.577C323.477 218.405 323.635 218.176 323.738 217.889C323.842 217.603 323.895 217.287 323.895 216.942C323.895 216.6 323.842 216.285 323.738 215.999C323.635 215.71 323.477 215.478 323.262 215.304C323.048 215.129 322.778 215.042 322.452 215.042C322.124 215.042 321.851 215.129 321.634 215.304C321.42 215.478 321.261 215.71 321.156 215.999C321.053 216.285 321.002 216.6 321.002 216.942C321.002 217.287 321.053 217.603 321.156 217.889C321.261 218.176 321.42 218.405 321.634 218.577C321.851 218.75 322.124 218.836 322.452 218.836ZM326.116 219.604V214.238H327.126V215.091H327.181C327.279 214.802 327.452 214.575 327.699 214.409C327.948 214.242 328.23 214.158 328.544 214.158C328.609 214.158 328.686 214.16 328.775 214.165C328.865 214.169 328.936 214.175 328.988 214.182V215.181C328.946 215.17 328.871 215.157 328.764 215.143C328.657 215.127 328.55 215.119 328.443 215.119C328.196 215.119 327.976 215.171 327.782 215.276C327.591 215.378 327.44 215.522 327.328 215.706C327.216 215.887 327.161 216.095 327.161 216.327V219.604H326.116Z" fill="#475467"/>
<path d="M307.06 244.948V229.616H308.042V244.948H307.06ZM310.366 234.216C310.294 233.609 310.003 233.138 309.492 232.802C308.981 232.467 308.354 232.299 307.611 232.299C307.068 232.299 306.593 232.387 306.186 232.563C305.782 232.738 305.467 232.98 305.239 233.287C305.016 233.595 304.904 233.944 304.904 234.335C304.904 234.663 304.982 234.944 305.137 235.18C305.297 235.412 305.501 235.605 305.748 235.761C305.996 235.913 306.255 236.038 306.527 236.138C306.798 236.234 307.048 236.312 307.276 236.372L308.521 236.707C308.841 236.791 309.196 236.907 309.587 237.055C309.983 237.202 310.36 237.404 310.719 237.659C311.083 237.911 311.382 238.234 311.618 238.63C311.853 239.025 311.971 239.51 311.971 240.085C311.971 240.748 311.797 241.347 311.45 241.882C311.107 242.417 310.604 242.842 309.941 243.158C309.282 243.473 308.481 243.631 307.539 243.631C306.661 243.631 305.9 243.489 305.257 243.205C304.618 242.922 304.115 242.527 303.748 242.02C303.385 241.512 303.179 240.924 303.131 240.253H304.664C304.704 240.716 304.86 241.099 305.132 241.403C305.407 241.702 305.754 241.926 306.174 242.073C306.597 242.217 307.052 242.289 307.539 242.289C308.106 242.289 308.615 242.197 309.066 242.014C309.518 241.826 309.875 241.566 310.138 241.235C310.402 240.9 310.534 240.508 310.534 240.061C310.534 239.654 310.42 239.322 310.192 239.067C309.965 238.811 309.665 238.604 309.294 238.444C308.923 238.284 308.521 238.145 308.09 238.025L306.581 237.594C305.623 237.318 304.864 236.925 304.305 236.414C303.746 235.903 303.467 235.234 303.467 234.407C303.467 233.721 303.652 233.122 304.024 232.611C304.399 232.096 304.902 231.696 305.533 231.413C306.168 231.125 306.876 230.982 307.659 230.982C308.449 230.982 309.152 231.123 309.767 231.407C310.382 231.686 310.869 232.07 311.228 232.557C311.592 233.044 311.783 233.597 311.803 234.216H310.366ZM323.253 231.149V243.415H321.768V232.706H321.696L318.701 234.695V233.186L321.768 231.149H323.253ZM328.188 241.738L328.092 242.385C328.025 242.84 327.921 243.327 327.781 243.846C327.645 244.365 327.504 244.854 327.356 245.314C327.208 245.773 327.086 246.138 326.99 246.41H325.912C325.964 246.154 326.032 245.817 326.116 245.397C326.2 244.978 326.284 244.509 326.368 243.99C326.455 243.475 326.527 242.948 326.583 242.409L326.655 241.738H328.188ZM330.919 243.415L336.405 232.563V232.467H330.081V231.149H337.939V232.539L332.477 243.415H330.919ZM343.839 243.583C343.137 243.583 342.504 243.443 341.941 243.163C341.378 242.884 340.927 242.501 340.587 242.014C340.248 241.526 340.062 240.971 340.03 240.349H341.468C341.524 240.904 341.775 241.363 342.222 241.726C342.674 242.085 343.213 242.265 343.839 242.265C344.343 242.265 344.79 242.147 345.181 241.912C345.576 241.676 345.886 241.353 346.109 240.942C346.337 240.526 346.451 240.057 346.451 239.534C346.451 238.999 346.333 238.522 346.097 238.103C345.866 237.679 345.546 237.346 345.139 237.102C344.732 236.859 344.267 236.735 343.744 236.731C343.368 236.727 342.983 236.785 342.588 236.905C342.192 237.021 341.867 237.17 341.612 237.354L340.222 237.186L340.965 231.149H347.337V232.467H342.21L341.779 236.084H341.851C342.103 235.885 342.418 235.719 342.797 235.587C343.177 235.455 343.572 235.39 343.983 235.39C344.734 235.39 345.403 235.569 345.99 235.929C346.581 236.284 347.044 236.771 347.379 237.39C347.718 238.009 347.888 238.716 347.888 239.51C347.888 240.293 347.712 240.991 347.361 241.606C347.014 242.217 346.535 242.7 345.924 243.056C345.313 243.407 344.618 243.583 343.839 243.583ZM349.98 240.9V239.678L355.37 231.149H356.257V233.042H355.658L351.585 239.486V239.582H358.844V240.9H349.98ZM355.753 243.415V240.528V239.959V231.149H357.167V243.415H355.753ZM361.566 243.511C361.27 243.511 361.017 243.405 360.805 243.193C360.594 242.982 360.488 242.728 360.488 242.433C360.488 242.137 360.594 241.884 360.805 241.672C361.017 241.461 361.27 241.355 361.566 241.355C361.861 241.355 362.115 241.461 362.327 241.672C362.538 241.884 362.644 242.137 362.644 242.433C362.644 242.628 362.594 242.808 362.494 242.972C362.398 243.136 362.269 243.267 362.105 243.367C361.945 243.463 361.766 243.511 361.566 243.511ZM364.869 240.9V239.678L370.259 231.149H371.146V233.042H370.547L366.474 239.486V239.582H373.733V240.9H364.869ZM370.643 243.415V240.528V239.959V231.149H372.056V243.415H370.643ZM380.05 243.583C379.547 243.575 379.044 243.479 378.541 243.295C378.038 243.112 377.578 242.802 377.163 242.367C376.748 241.928 376.415 241.335 376.163 240.588C375.911 239.838 375.786 238.895 375.786 237.761C375.786 236.675 375.888 235.713 376.091 234.874C376.295 234.032 376.59 233.323 376.978 232.748C377.365 232.169 377.832 231.73 378.379 231.431C378.93 231.131 379.551 230.982 380.242 230.982C380.928 230.982 381.539 231.119 382.074 231.395C382.613 231.666 383.053 232.046 383.392 232.533C383.731 233.02 383.951 233.581 384.051 234.216H382.589C382.454 233.665 382.19 233.208 381.799 232.844C381.408 232.481 380.888 232.299 380.242 232.299C379.291 232.299 378.543 232.712 377.996 233.539C377.453 234.365 377.179 235.525 377.175 237.019H377.271C377.495 236.679 377.76 236.39 378.068 236.15C378.379 235.907 378.722 235.719 379.098 235.587C379.473 235.455 379.87 235.39 380.29 235.39C380.992 235.39 381.635 235.565 382.218 235.917C382.801 236.264 383.268 236.745 383.62 237.36C383.971 237.971 384.147 238.672 384.147 239.462C384.147 240.221 383.977 240.916 383.637 241.546C383.298 242.173 382.821 242.672 382.206 243.044C381.595 243.411 380.876 243.591 380.05 243.583ZM380.05 242.265C380.553 242.265 381.004 242.139 381.404 241.888C381.807 241.636 382.124 241.299 382.356 240.876C382.591 240.452 382.709 239.981 382.709 239.462C382.709 238.955 382.595 238.494 382.368 238.079C382.144 237.659 381.835 237.326 381.439 237.079C381.048 236.831 380.601 236.707 380.098 236.707C379.719 236.707 379.365 236.783 379.038 236.935C378.71 237.082 378.423 237.286 378.175 237.546C377.932 237.805 377.74 238.103 377.6 238.438C377.461 238.769 377.391 239.119 377.391 239.486C377.391 239.973 377.505 240.428 377.732 240.852C377.964 241.275 378.279 241.616 378.678 241.876C379.082 242.135 379.539 242.265 380.05 242.265Z" fill="#101828"/>
</g>
</g>
<rect x="10.5107" y="10.7871" width="438" height="234" rx="9.5" stroke="#F2F4F7"/>
<defs>
<linearGradient id="paint0_linear_3639_302027" x1="-81.4047" y1="186.822" x2="-81.4047" y2="315.72" gradientUnits="userSpaceOnUse">
<stop stop-color="#76D1FF"/>
<stop offset="1" stop-color="#76D1FF" stop-opacity="0.2"/>
</linearGradient>
<linearGradient id="paint1_linear_3639_302027" x1="-81.42" y1="166.924" x2="-81.42" y2="315.687" gradientUnits="userSpaceOnUse">
<stop stop-color="#FF8508"/>
<stop offset="1" stop-color="#FF8508" stop-opacity="0"/>
</linearGradient>
<linearGradient id="paint2_linear_3639_302027" x1="-81.4047" y1="103.041" x2="-81.4047" y2="210.453" gradientUnits="userSpaceOnUse">
<stop stop-color="#F04438"/>
<stop offset="1" stop-color="#F04438" stop-opacity="0"/>
</linearGradient>
<linearGradient id="paint3_linear_3639_302027" x1="-80.9106" y1="90.8639" x2="-80.9106" y2="165.338" gradientUnits="userSpaceOnUse">
<stop stop-color="#17B26A"/>
<stop offset="1" stop-color="#17B26A" stop-opacity="0.2"/>
</linearGradient>
<clipPath id="clip0_3639_302027">
<rect x="10.0107" y="10.2871" width="439" height="235" rx="10" fill="white"/>
</clipPath>
<clipPath id="clip1_3639_302027">
<rect width="1011.93" height="668.295" fill="white" transform="translate(-456.479 -218)"/>
</clipPath>
<clipPath id="clip2_3639_302027">
<rect x="-428.369" y="-85.2944" width="694" height="444" rx="2.81092" fill="white"/>
</clipPath>
<clipPath id="clip3_3639_302027">
<rect width="63" height="15" fill="white" transform="translate(447.18 51.6001)"/>
</clipPath>
</defs>
</svg>
