<svg width="40" height="40" viewBox="0 0 40 40" fill="none" xmlns="http://www.w3.org/2000/svg">
<g clip-path="url(#clip0_684_121910)">
<rect width="40" height="40" rx="20" fill="white"/>
<path d="M20.3333 16.7402C22.302 16.7402 23.927 18.3652 23.927 20.334C23.927 22.334 22.302 23.9277 20.3333 23.9277C18.3333 23.9277 16.7395 22.334 16.7395 20.334C16.7395 18.3652 18.3333 16.7402 20.3333 16.7402ZM20.3333 22.6777C21.6145 22.6777 22.6458 21.6465 22.6458 20.334C22.6458 19.0527 21.6145 18.0215 20.3333 18.0215C19.0208 18.0215 17.9895 19.0527 17.9895 20.334C17.9895 21.6465 19.052 22.6777 20.3333 22.6777ZM24.8958 16.6152C24.8958 17.084 24.5208 17.459 24.052 17.459C23.5833 17.459 23.2083 17.084 23.2083 16.6152C23.2083 16.1465 23.5833 15.7715 24.052 15.7715C24.5208 15.7715 24.8958 16.1465 24.8958 16.6152ZM27.2708 17.459C27.3333 18.6152 27.3333 22.084 27.2708 23.2402C27.2083 24.3652 26.9583 25.334 26.1458 26.1777C25.3333 26.9902 24.3333 27.2402 23.2083 27.3027C22.052 27.3652 18.5833 27.3652 17.427 27.3027C16.302 27.2402 15.3333 26.9902 14.4895 26.1777C13.677 25.334 13.427 24.3652 13.3645 23.2402C13.302 22.084 13.302 18.6152 13.3645 17.459C13.427 16.334 13.677 15.334 14.4895 14.5215C15.3333 13.709 16.302 13.459 17.427 13.3965C18.5833 13.334 22.052 13.334 23.2083 13.3965C24.3333 13.459 25.3333 13.709 26.1458 14.5215C26.9583 15.334 27.2083 16.334 27.2708 17.459ZM25.7708 24.459C26.1458 23.5527 26.052 21.3652 26.052 20.334C26.052 19.334 26.1458 17.1465 25.7708 16.209C25.5208 15.6152 25.052 15.1152 24.4583 14.8965C23.5208 14.5215 21.3333 14.6152 20.3333 14.6152C19.302 14.6152 17.1145 14.5215 16.2083 14.8965C15.5833 15.1465 15.1145 15.6152 14.8645 16.209C14.4895 17.1465 14.5833 19.334 14.5833 20.334C14.5833 21.3652 14.4895 23.5527 14.8645 24.459C15.1145 25.084 15.5833 25.5527 16.2083 25.8027C17.1145 26.1777 19.302 26.084 20.3333 26.084C21.3333 26.084 23.5208 26.1777 24.4583 25.8027C25.052 25.5527 25.552 25.084 25.7708 24.459Z" fill="#888E9E"/>
</g>
<defs>
<clipPath id="clip0_684_121910">
<rect width="40" height="40" fill="white"/>
</clipPath>
</defs>
</svg>
