<svg width="64" height="64" viewBox="0 0 64 64" fill="none" xmlns="http://www.w3.org/2000/svg">
<rect width="64" height="64" rx="15.4843" fill="#EFF0F6"/>
<path d="M31.999 21C29.0816 21 26.2837 22.1589 24.2208 24.2218C22.1579 26.2847 20.999 29.0826 20.999 31.9999C20.999 34.9173 22.1579 37.7152 24.2208 39.7781C26.2837 41.841 29.0816 42.9999 31.999 42.9999L31.999 31.9999V21Z" fill="#1AB3FF"/>
<path d="M32.001 43C34.9184 43 37.7163 41.8411 39.7792 39.7782C41.8421 37.7153 43.001 34.9174 43.001 32.0001C43.001 29.0827 41.8421 26.2848 39.7792 24.2219C37.7163 22.159 34.9184 21.0001 32.001 21.0001L32.001 32.0001L32.001 43Z" fill="#FFB258"/>
</svg>
