<svg width="40" height="40" viewBox="0 0 40 40" fill="none" xmlns="http://www.w3.org/2000/svg">
<g clip-path="url(#clip0_684_121913)">
<rect width="40" height="40" rx="20" fill="white"/>
<path d="M26.3333 13.334C26.8645 13.334 27.3333 13.8027 27.3333 14.3652V26.334C27.3333 26.8965 26.8645 27.334 26.3333 27.334H14.302C13.7708 27.334 13.3333 26.8965 13.3333 26.334V14.3652C13.3333 13.8027 13.7708 13.334 14.302 13.334H26.3333ZM17.552 25.334V18.6777H15.4895V25.334H17.552ZM16.5208 17.7402C17.177 17.7402 17.7083 17.209 17.7083 16.5527C17.7083 15.8965 17.177 15.334 16.5208 15.334C15.8333 15.334 15.302 15.8965 15.302 16.5527C15.302 17.209 15.8333 17.7402 16.5208 17.7402ZM25.3333 25.334V21.6777C25.3333 19.8965 24.927 18.4902 22.8333 18.4902C21.8333 18.4902 21.1458 19.0527 20.8645 19.584H20.8333V18.6777H18.8645V25.334H20.927V22.0527C20.927 21.1777 21.0833 20.334 22.177 20.334C23.2395 20.334 23.2395 21.334 23.2395 22.084V25.334H25.3333Z" fill="#888E9E"/>
</g>
<defs>
<clipPath id="clip0_684_121913">
<rect width="40" height="40" fill="white"/>
</clipPath>
</defs>
</svg>
