<svg width="130" height="67" viewBox="0 0 130 67" fill="none" xmlns="http://www.w3.org/2000/svg">
<path d="M34.1394 8.6943C36.7506 8.6943 38.8299 9.50023 40.3773 11.1121C41.957 12.6917 42.7468 15.0612 42.7468 18.2204V35H34.1394V20.203C34.1394 18.5589 33.8331 17.3662 33.2206 16.6247C32.6081 15.8832 31.7055 15.5125 30.5127 15.5125C29.3199 15.5125 28.3205 15.9961 27.5146 16.9632C26.7409 17.8981 26.3541 19.3004 26.3541 21.1702V35H17.795V20.203C17.795 18.5589 17.4888 17.3662 16.8763 16.6247C16.2638 15.8832 15.3611 15.5125 14.1683 15.5125C12.9755 15.5125 11.9762 15.9961 11.1703 16.9632C10.3966 17.8981 10.0097 19.3004 10.0097 21.1702V35H1.40233V9.32293H9.67121V12.8046H9.86464C11.7666 10.0644 14.4101 8.6943 17.795 8.6943C19.5359 8.6943 21.051 9.06503 22.3405 9.80649C23.63 10.5157 24.6294 11.5957 25.3386 13.0463C26.4669 11.7246 27.708 10.6769 29.062 9.9032C30.416 9.09726 32.1084 8.6943 34.1394 8.6943ZM70.8303 27.263C70.508 28.5848 69.831 29.8904 68.7994 31.1799C67.7678 32.4371 66.3171 33.501 64.4473 34.3714C62.5776 35.2095 60.2887 35.6286 57.5808 35.6286C53.2932 35.6286 49.9405 34.4358 47.5227 32.0503C45.1049 29.6647 43.896 26.3926 43.896 22.234C43.896 18.0109 45.0888 14.7066 47.4744 12.321C49.8922 9.9032 53.2448 8.6943 57.5324 8.6943C61.7555 8.6943 65.076 9.87096 67.4938 12.2243C69.9438 14.5776 71.1688 17.9625 71.1688 22.3791L71.1205 23.8781H52.7452C52.7452 25.7801 53.1804 27.2953 54.0508 28.4236C54.9534 29.5196 56.1301 30.0677 57.5808 30.0677C58.9025 30.0677 59.918 29.7453 60.6272 29.1006C61.3364 28.4558 61.8039 27.666 62.0295 26.7311L70.8303 27.263ZM57.5324 14.1102C56.114 14.1102 54.9857 14.5615 54.1475 15.4641C53.3093 16.3346 52.858 17.4951 52.7935 18.9458H62.3197C62.2552 17.4951 61.7877 16.3346 60.9173 15.4641C60.0792 14.5615 58.9509 14.1102 57.5324 14.1102ZM34.1394 39.6943C36.7506 39.6943 38.8299 40.5002 40.3773 42.1121C41.957 43.6917 42.7468 46.0612 42.7468 49.2204V66H34.1394V51.203C34.1394 49.5589 33.8331 48.3662 33.2206 47.6247C32.6081 46.8832 31.7055 46.5125 30.5127 46.5125C29.3199 46.5125 28.3205 46.9961 27.5146 47.9632C26.7409 48.8981 26.3541 50.3004 26.3541 52.1702V66H17.795V51.203C17.795 49.5589 17.4888 48.3662 16.8763 47.6247C16.2638 46.8832 15.3611 46.5125 14.1683 46.5125C12.9755 46.5125 11.9762 46.9961 11.1703 47.9632C10.3966 48.8981 10.0097 50.3004 10.0097 52.1702V66H1.40233V40.3229H9.67121V43.8046H9.86464C11.7666 41.0644 14.4101 39.6943 17.795 39.6943C19.5359 39.6943 21.051 40.065 22.3405 40.8065C23.63 41.5157 24.6294 42.5957 25.3386 44.0463C26.4669 42.7246 27.708 41.6769 29.062 40.9032C30.416 40.0973 32.1084 39.6943 34.1394 39.6943ZM61.4493 66C60.9657 65.4197 60.7239 64.1786 60.7239 62.2766C60.1114 63.6306 59.0476 64.6944 57.5324 65.4681C56.0495 66.2418 54.3409 66.6286 52.4067 66.6286C50.9238 66.6286 49.5214 66.3224 48.1997 65.7099C46.878 65.0974 45.8141 64.2269 45.0082 63.0986C44.2023 61.9703 43.7993 60.6325 43.7993 59.0851C43.7993 56.4739 44.6536 54.5235 46.3622 53.234C48.0707 51.9445 50.6659 51.0741 54.1475 50.6228C55.9205 50.3649 57.2745 50.1231 58.2094 49.8974C59.1443 49.6395 59.789 49.3655 60.1436 49.0754C60.5305 48.753 60.7239 48.3339 60.7239 47.8181C60.7239 47.0122 60.4015 46.3997 59.7568 45.9806C59.1443 45.5293 58.2739 45.3036 57.1456 45.3036C56.114 45.3036 55.2113 45.5937 54.4376 46.174C53.6639 46.7543 53.1159 47.5763 52.7935 48.6402L44.8148 47.8181C45.3628 45.2714 46.749 43.2888 48.9734 41.8703C51.1978 40.4196 53.9702 39.6943 57.2906 39.6943C61.2558 39.6943 64.2539 40.468 66.2849 42.0154C68.3158 43.5305 69.3313 45.6904 69.3313 48.4951V61.2127C69.3313 62.599 69.3635 63.6467 69.428 64.3559C69.5247 65.0329 69.7181 65.5809 70.0083 66H61.4493ZM60.7239 53.911C60.3693 54.1366 59.789 54.3462 58.9831 54.5396C58.1772 54.7008 57.2906 54.862 56.3235 55.0232C53.809 55.5067 52.5517 56.635 52.5517 58.4081C52.5517 59.2785 52.8258 59.9716 53.3738 60.4874C53.9541 60.971 54.7116 61.2127 55.6465 61.2127C56.4202 61.2127 57.1939 61.0354 57.9676 60.6808C58.7413 60.3262 59.3861 59.7782 59.9019 59.0367C60.4499 58.263 60.7239 57.2959 60.7239 56.1354V53.911ZM87.5106 59.6654V66C86.9948 66.0645 85.2539 66.0967 82.2881 66.0967C80.1927 66.0967 78.5486 65.9194 77.3558 65.5648C76.1952 65.1779 75.3248 64.501 74.7446 63.5338C74.1965 62.5667 73.9225 61.1483 73.9225 59.2785V45.6904H70.0057V40.3229H73.9225V33.2629H82.4815V40.3229H87.6073V45.6904H82.4815V57.2476C82.4815 58.2791 82.6911 58.94 83.1102 59.2301C83.5615 59.5203 84.3997 59.6654 85.6247 59.6654H87.5106ZM114.525 58.263C114.203 59.5848 113.526 60.8904 112.494 62.1799C111.462 63.4371 110.012 64.501 108.142 65.3714C106.272 66.2095 103.983 66.6286 101.275 66.6286C96.9879 66.6286 93.6352 65.4358 91.2174 63.0503C88.7996 60.6647 87.5907 57.3926 87.5907 53.234C87.5907 49.0109 88.7835 45.7066 91.169 43.321C93.5868 40.9032 96.9395 39.6943 101.227 39.6943C105.45 39.6943 108.771 40.871 111.188 43.2243C113.638 45.5776 114.863 48.9625 114.863 53.3791L114.815 54.8781H96.4398C96.4398 56.7801 96.875 58.2953 97.7454 59.4236C98.6481 60.5196 99.8248 61.0677 101.275 61.0677C102.597 61.0677 103.613 60.7453 104.322 60.1006C105.031 59.4558 105.499 58.666 105.724 57.7311L114.525 58.263ZM101.227 45.1102C99.8086 45.1102 98.6803 45.5615 97.8422 46.4641C97.004 47.3346 96.5527 48.4951 96.4882 49.9458H106.014C105.95 48.4951 105.482 47.3346 104.612 46.4641C103.774 45.5615 102.646 45.1102 101.227 45.1102Z" fill="url(#paint0_radial_3746_130612)"/>
<path d="M126.35 44.8232L124.555 40.3294H125.55L126.667 43.2968L127.778 40.3294H128.774L126.985 44.8232H126.35ZM124.207 44.8232V40.3294H125.336V44.8232H124.207ZM127.992 44.8232V40.3294H129.128V44.8232H127.992ZM120.922 44.8232V40.7201H122.057V44.8232H120.922ZM119.554 41.2636V40.3294H123.425V41.2636H119.554Z" fill="#29292B"/>
<defs>
<radialGradient id="paint0_radial_3746_130612" cx="0" cy="0" r="1" gradientUnits="userSpaceOnUse" gradientTransform="translate(4.67009e-05 9.97875) rotate(25.3491) scale(117.004 1284.88)">
<stop stop-color="#1AB3FF"/>
<stop offset="1" stop-color="#FFB258"/>
</radialGradient>
</defs>
</svg>
