<svg width="225" height="287" viewBox="0 0 225 287" fill="none" xmlns="http://www.w3.org/2000/svg">
<g filter="url(#filter0_d_3639_300899)">
<g clip-path="url(#clip0_3639_300899)">
<rect x="0.477539" y="59.9941" width="162" height="162" rx="81" fill="white"/>
<g clip-path="url(#clip1_3639_300899)">
<rect x="-177.243" y="-76.6338" width="944.241" height="609.699" rx="19.7954" fill="#F7F9FC"/>
<g clip-path="url(#clip2_3639_300899)">
<rect x="-10.034" y="52.3811" width="182.291" height="180.98" rx="3.60648" fill="white"/>
<rect x="-10.034" y="52.3811" width="182.291" height="180.98" rx="3.60648" stroke="#EAECF0" stroke-width="0.655723"/>
<circle cx="81.1119" cy="142.871" r="44.5733" stroke="url(#paint0_linear_3639_300899)" stroke-opacity="0.2" stroke-width="15.7374"/>
<circle cx="81.1116" cy="142.871" r="62.4026" stroke="url(#paint1_linear_3639_300899)" stroke-opacity="0.2" stroke-width="15.7374"/>
<path d="M81.1119 98.2974C88.5012 98.2974 95.7747 100.134 102.278 103.643C108.781 107.152 114.31 112.223 118.367 118.399C122.423 124.575 124.881 131.663 125.519 139.025C126.157 146.386 124.954 153.791 122.019 160.573C119.085 167.354 114.51 173.3 108.707 177.875C102.904 182.45 96.0546 185.51 88.7753 186.78C81.496 188.051 74.015 187.491 67.0055 185.153C59.9959 182.814 53.6777 178.77 48.6193 173.383" stroke="url(#paint2_linear_3639_300899)" stroke-width="15.7374" stroke-linecap="round" stroke-linejoin="round"/>
<path d="M81.1116 80.4683C93.4537 80.4683 105.519 84.1281 115.781 90.985C126.043 97.8419 134.041 107.588 138.764 118.99C143.487 130.393 144.723 142.94 142.315 155.045C139.907 167.15 133.964 178.269 125.237 186.996C116.51 195.723 105.391 201.667 93.2857 204.074C81.1808 206.482 68.6337 205.246 57.2311 200.523C45.8286 195.8 36.0826 187.802 29.2257 177.54C22.3688 167.278 18.709 155.213 18.709 142.871" stroke="#F41E5A" stroke-width="15.7374" stroke-linecap="round" stroke-linejoin="round"/>
<path d="M81.1116 80.4683C93.4537 80.4683 105.519 84.1281 115.781 90.985C126.043 97.8419 134.041 107.588 138.764 118.99C143.487 130.393 144.723 142.94 142.315 155.045C139.907 167.15 133.964 178.269 125.237 186.996C116.51 195.723 105.391 201.667 93.2857 204.074C81.1808 206.482 68.6337 205.246 57.2311 200.523C45.8286 195.8 36.0826 187.802 29.2257 177.54C22.3688 167.278 18.709 155.213 18.709 142.871" stroke="url(#paint3_linear_3639_300899)" stroke-width="15.7374" stroke-linecap="round" stroke-linejoin="round"/>
</g>
</g>
<rect x="-176.253" y="-75.644" width="942.262" height="607.719" rx="18.8056" stroke="black" stroke-width="1.97954"/>
<rect x="-176.253" y="-75.644" width="942.262" height="607.719" rx="18.8056" stroke="url(#paint4_linear_3639_300899)" stroke-width="1.97954"/>
</g>
<rect x="0.977539" y="60.4941" width="161" height="161" rx="80.5" stroke="#F2F4F7"/>
</g>
<defs>
<filter id="filter0_d_3639_300899" x="-61.3382" y="0.555938" width="285.631" height="285.631" filterUnits="userSpaceOnUse" color-interpolation-filters="sRGB">
<feFlood flood-opacity="0" result="BackgroundImageFix"/>
<feColorMatrix in="SourceAlpha" type="matrix" values="0 0 0 0 0 0 0 0 0 0 0 0 0 0 0 0 0 0 127 0" result="hardAlpha"/>
<feOffset dy="2.37753"/>
<feGaussianBlur stdDeviation="30.9079"/>
<feComposite in2="hardAlpha" operator="out"/>
<feColorMatrix type="matrix" values="0 0 0 0 0 0 0 0 0 0 0 0 0 0 0 0 0 0 0.12 0"/>
<feBlend mode="normal" in2="BackgroundImageFix" result="effect1_dropShadow_3639_300899"/>
<feBlend mode="normal" in="SourceGraphic" in2="effect1_dropShadow_3639_300899" result="shape"/>
</filter>
<linearGradient id="paint0_linear_3639_300899" x1="81.1119" y1="98.2974" x2="81.1119" y2="187.444" gradientUnits="userSpaceOnUse">
<stop stop-color="#EDF0F3"/>
<stop offset="1" stop-color="#D4DBE2"/>
</linearGradient>
<linearGradient id="paint1_linear_3639_300899" x1="18.707" y1="205.273" x2="143.513" y2="80.4667" gradientUnits="userSpaceOnUse">
<stop stop-color="#FFB258"/>
<stop offset="1" stop-color="#1AB2FF"/>
</linearGradient>
<linearGradient id="paint2_linear_3639_300899" x1="81.1119" y1="98.2974" x2="81.1119" y2="187.444" gradientUnits="userSpaceOnUse">
<stop stop-color="#E7EBEF"/>
<stop offset="1" stop-color="#C8D1DA"/>
</linearGradient>
<linearGradient id="paint3_linear_3639_300899" x1="-7.58558" y1="159.355" x2="101.143" y2="50.6298" gradientUnits="userSpaceOnUse">
<stop stop-color="#FFB258"/>
<stop offset="1" stop-color="#1AB2FF"/>
</linearGradient>
<linearGradient id="paint4_linear_3639_300899" x1="294.878" y1="-76.6338" x2="294.878" y2="533.065" gradientUnits="userSpaceOnUse">
<stop stop-color="#FFB258"/>
<stop offset="1" stop-color="#1AB3FF"/>
</linearGradient>
<clipPath id="clip0_3639_300899">
<rect x="0.477539" y="59.9941" width="162" height="162" rx="81" fill="white"/>
</clipPath>
<clipPath id="clip1_3639_300899">
<rect x="-177.243" y="-76.6338" width="944.241" height="609.699" rx="19.7954" fill="white"/>
</clipPath>
<clipPath id="clip2_3639_300899">
<rect width="944.241" height="609.699" fill="white" transform="translate(-177.243 -76.6338)"/>
</clipPath>
</defs>
</svg>
