<svg width="270" height="209" viewBox="0 0 270 209" fill="none" xmlns="http://www.w3.org/2000/svg">
<g filter="url(#filter0_dd_3186_503507)">
<rect x="7.0874" y="0.0732422" width="255.675" height="194.854" rx="20" fill="white"/>
<rect x="7.5874" y="0.573242" width="254.675" height="193.854" rx="19.5" stroke="#EAECF0"/>
<rect x="7.5874" y="0.573242" width="254.675" height="193.854" rx="19.5" stroke="url(#paint0_linear_3186_503507)"/>
<path d="M25.0102 19.6859C24.9635 19.5348 24.8991 19.3994 24.817 19.28C24.7367 19.1586 24.6397 19.0551 24.5258 18.9692C24.4138 18.8833 24.285 18.8189 24.1394 18.776C23.9938 18.7312 23.8352 18.7088 23.6635 18.7088C23.3555 18.7088 23.0811 18.7863 22.8403 18.9412C22.5995 19.0961 22.4101 19.3238 22.272 19.6243C22.1357 19.923 22.0676 20.287 22.0676 20.7163C22.0676 21.1493 22.1357 21.5161 22.272 21.8166C22.4082 22.1171 22.5977 22.3458 22.8403 22.5025C23.083 22.6575 23.3648 22.7349 23.6859 22.7349C23.977 22.7349 24.229 22.6789 24.4418 22.5669C24.6565 22.4549 24.8216 22.2963 24.9374 22.091C25.0531 21.8838 25.111 21.6411 25.111 21.363L25.3461 21.3994H23.7894V20.5875H26.1161V21.2762C26.1161 21.7671 26.0116 22.1918 25.8025 22.5501C25.5935 22.9085 25.306 23.1848 24.9402 23.3789C24.5743 23.5711 24.1544 23.6673 23.6803 23.6673C23.152 23.6673 22.6882 23.5487 22.2888 23.3117C21.8912 23.0728 21.5804 22.734 21.3564 22.2954C21.1343 21.8549 21.0232 21.3322 21.0232 20.7275C21.0232 20.2646 21.0886 19.8511 21.2192 19.4872C21.3518 19.1232 21.5365 18.8143 21.7736 18.5604C22.0106 18.3047 22.2888 18.1106 22.6079 17.9781C22.9271 17.8437 23.2743 17.7765 23.6495 17.7765C23.9668 17.7765 24.2626 17.8231 24.537 17.9165C24.8114 18.0079 25.055 18.1386 25.2677 18.3084C25.4824 18.4783 25.6588 18.6799 25.7969 18.9132C25.935 19.1465 26.0256 19.4041 26.0685 19.6859H25.0102ZM27.0757 23.5889V19.2884H28.0584V20.0051H28.1032C28.1816 19.7569 28.316 19.5655 28.5064 19.4312C28.6987 19.2949 28.918 19.2268 29.1644 19.2268C29.2204 19.2268 29.2829 19.2296 29.352 19.2352C29.4229 19.2389 29.4817 19.2454 29.5283 19.2548V20.1871C29.4854 20.1722 29.4173 20.1591 29.324 20.1479C29.2325 20.1348 29.1438 20.1283 29.058 20.1283C28.8732 20.1283 28.7071 20.1684 28.5596 20.2487C28.414 20.3271 28.2992 20.4363 28.2152 20.5763C28.1312 20.7163 28.0892 20.8777 28.0892 21.0606V23.5889H27.0757ZM31.9005 23.6729C31.4805 23.6729 31.1165 23.5805 30.8086 23.3957C30.5006 23.2109 30.2617 22.9524 30.0918 22.6201C29.9238 22.2879 29.8398 21.8997 29.8398 21.4554C29.8398 21.0112 29.9238 20.622 30.0918 20.2879C30.2617 19.9538 30.5006 19.6943 30.8086 19.5096C31.1165 19.3248 31.4805 19.2324 31.9005 19.2324C32.3204 19.2324 32.6844 19.3248 32.9924 19.5096C33.3004 19.6943 33.5384 19.9538 33.7064 20.2879C33.8762 20.622 33.9611 21.0112 33.9611 21.4554C33.9611 21.8997 33.8762 22.2879 33.7064 22.6201C33.5384 22.9524 33.3004 23.2109 32.9924 23.3957C32.6844 23.5805 32.3204 23.6729 31.9005 23.6729ZM31.9061 22.8609C32.1338 22.8609 32.3242 22.7984 32.4772 22.6733C32.6303 22.5464 32.7442 22.3766 32.8188 22.1638C32.8953 21.951 32.9336 21.7139 32.9336 21.4526C32.9336 21.1894 32.8953 20.9515 32.8188 20.7387C32.7442 20.524 32.6303 20.3532 32.4772 20.2263C32.3242 20.0994 32.1338 20.0359 31.9061 20.0359C31.6728 20.0359 31.4786 20.0994 31.3237 20.2263C31.1707 20.3532 31.0559 20.524 30.9793 20.7387C30.9047 20.9515 30.8674 21.1894 30.8674 21.4526C30.8674 21.7139 30.9047 21.951 30.9793 22.1638C31.0559 22.3766 31.1707 22.5464 31.3237 22.6733C31.4786 22.7984 31.6728 22.8609 31.9061 22.8609ZM38.2203 20.4251L37.2964 20.5259C37.2703 20.4326 37.2245 20.3448 37.1592 20.2627C37.0957 20.1806 37.0099 20.1143 36.9016 20.0639C36.7934 20.0135 36.6608 19.9883 36.5041 19.9883C36.2931 19.9883 36.1158 20.034 35.9721 20.1255C35.8302 20.217 35.7602 20.3355 35.7621 20.4811C35.7602 20.6061 35.806 20.7079 35.8993 20.7863C35.9945 20.8647 36.1513 20.9291 36.3697 20.9795L37.1032 21.1362C37.5101 21.224 37.8125 21.363 38.0104 21.5534C38.2101 21.7438 38.3109 21.993 38.3127 22.301C38.3109 22.5716 38.2315 22.8105 38.0747 23.0177C37.9198 23.223 37.7042 23.3835 37.428 23.4993C37.1517 23.615 36.8344 23.6729 36.4761 23.6729C35.9497 23.6729 35.526 23.5627 35.2049 23.3425C34.8839 23.1204 34.6926 22.8115 34.631 22.4157L35.6193 22.3206C35.6641 22.5147 35.7593 22.6612 35.9049 22.7601C36.0505 22.8591 36.2399 22.9085 36.4733 22.9085C36.714 22.9085 36.9072 22.8591 37.0528 22.7601C37.2003 22.6612 37.274 22.5389 37.274 22.3934C37.274 22.2702 37.2264 22.1684 37.1312 22.0882C37.0379 22.0079 36.8923 21.9463 36.6944 21.9034L35.9609 21.7494C35.5484 21.6635 35.2432 21.5189 35.0454 21.3154C34.8475 21.1101 34.7495 20.8507 34.7514 20.5371C34.7495 20.272 34.8214 20.0424 34.967 19.8483C35.1144 19.6523 35.3188 19.5012 35.5801 19.3948C35.8433 19.2865 36.1466 19.2324 36.4901 19.2324C36.994 19.2324 37.3907 19.3397 37.68 19.5544C37.9712 19.769 38.1513 20.0592 38.2203 20.4251ZM42.5474 20.4251L41.6235 20.5259C41.5974 20.4326 41.5516 20.3448 41.4863 20.2627C41.4228 20.1806 41.337 20.1143 41.2287 20.0639C41.1205 20.0135 40.9879 19.9883 40.8312 19.9883C40.6202 19.9883 40.4429 20.034 40.2992 20.1255C40.1573 20.217 40.0873 20.3355 40.0892 20.4811C40.0873 20.6061 40.1331 20.7079 40.2264 20.7863C40.3216 20.8647 40.4784 20.9291 40.6968 20.9795L41.4303 21.1362C41.8372 21.224 42.1396 21.363 42.3374 21.5534C42.5372 21.7438 42.638 21.993 42.6398 22.301C42.638 22.5716 42.5586 22.8105 42.4018 23.0177C42.2469 23.223 42.0313 23.3835 41.7551 23.4993C41.4788 23.615 41.1615 23.6729 40.8032 23.6729C40.2768 23.6729 39.8531 23.5627 39.532 23.3425C39.211 23.1204 39.0197 22.8115 38.9581 22.4157L39.9464 22.3206C39.9912 22.5147 40.0864 22.6612 40.232 22.7601C40.3776 22.8591 40.567 22.9085 40.8004 22.9085C41.0411 22.9085 41.2343 22.8591 41.3799 22.7601C41.5274 22.6612 41.6011 22.5389 41.6011 22.3934C41.6011 22.2702 41.5535 22.1684 41.4583 22.0882C41.365 22.0079 41.2194 21.9463 41.0215 21.9034L40.288 21.7494C39.8755 21.6635 39.5703 21.5189 39.3725 21.3154C39.1746 21.1101 39.0766 20.8507 39.0785 20.5371C39.0766 20.272 39.1485 20.0424 39.2941 19.8483C39.4415 19.6523 39.6459 19.5012 39.9072 19.3948C40.1704 19.2865 40.4737 19.2324 40.8172 19.2324C41.3211 19.2324 41.7178 19.3397 42.0071 19.5544C42.2982 19.769 42.4784 20.0592 42.5474 20.4251ZM49.2726 19.2884L47.7411 23.5889H46.6211L45.0897 19.2884H46.1704L47.1587 22.4829H47.2035L48.1946 19.2884H49.2726ZM51.7035 23.6729C51.2835 23.6729 50.9195 23.5805 50.6116 23.3957C50.3036 23.2109 50.0647 22.9524 49.8948 22.6201C49.7268 22.2879 49.6428 21.8997 49.6428 21.4554C49.6428 21.0112 49.7268 20.622 49.8948 20.2879C50.0647 19.9538 50.3036 19.6943 50.6116 19.5096C50.9195 19.3248 51.2835 19.2324 51.7035 19.2324C52.1235 19.2324 52.4874 19.3248 52.7954 19.5096C53.1034 19.6943 53.3414 19.9538 53.5094 20.2879C53.6792 20.622 53.7641 21.0112 53.7641 21.4554C53.7641 21.8997 53.6792 22.2879 53.5094 22.6201C53.3414 22.9524 53.1034 23.2109 52.7954 23.3957C52.4874 23.5805 52.1235 23.6729 51.7035 23.6729ZM51.7091 22.8609C51.9368 22.8609 52.1272 22.7984 52.2802 22.6733C52.4333 22.5464 52.5472 22.3766 52.6218 22.1638C52.6984 21.951 52.7366 21.7139 52.7366 21.4526C52.7366 21.1894 52.6984 20.9515 52.6218 20.7387C52.5472 20.524 52.4333 20.3532 52.2802 20.2263C52.1272 20.0994 51.9368 20.0359 51.7091 20.0359C51.4758 20.0359 51.2817 20.0994 51.1267 20.2263C50.9737 20.3532 50.8589 20.524 50.7824 20.7387C50.7077 20.9515 50.6704 21.1894 50.6704 21.4526C50.6704 21.7139 50.7077 21.951 50.7824 22.1638C50.8589 22.3766 50.9737 22.5464 51.1267 22.6733C51.2817 22.7984 51.4758 22.8609 51.7091 22.8609ZM55.6379 17.8549V23.5889H54.6244V17.8549H55.6379ZM59.4211 21.7802V19.2884H60.4347V23.5889H59.4519V22.8245H59.4072C59.3101 23.0653 59.1505 23.2622 58.9284 23.4153C58.7081 23.5683 58.4366 23.6449 58.1136 23.6449C57.8318 23.6449 57.5826 23.5823 57.3661 23.4573C57.1514 23.3304 56.9835 23.1465 56.8621 22.9057C56.7408 22.6631 56.6801 22.37 56.6801 22.0266V19.2884H57.6937V21.8698C57.6937 22.1423 57.7683 22.3588 57.9177 22.5193C58.067 22.6799 58.263 22.7601 58.5056 22.7601C58.6549 22.7601 58.7996 22.7237 58.9396 22.6509C59.0796 22.5781 59.1944 22.4699 59.284 22.3262C59.3754 22.1806 59.4211 21.9986 59.4211 21.7802ZM61.4769 23.5889V19.2884H62.4456V20.0191H62.496C62.5856 19.7727 62.734 19.5805 62.9412 19.4424C63.1484 19.3024 63.3957 19.2324 63.6831 19.2324C63.9743 19.2324 64.2198 19.3033 64.4195 19.4452C64.6211 19.5851 64.7629 19.7765 64.8451 20.0191H64.8899C64.9851 19.7802 65.1456 19.5898 65.3714 19.448C65.5991 19.3042 65.8689 19.2324 66.1806 19.2324C66.5763 19.2324 66.8992 19.3574 67.1493 19.6075C67.3994 19.8577 67.5245 20.2226 67.5245 20.7023V23.5889H66.5081V20.8591C66.5081 20.5921 66.4372 20.3971 66.2954 20.2739C66.1535 20.1488 65.9799 20.0863 65.7746 20.0863C65.5301 20.0863 65.3388 20.1628 65.2006 20.3159C65.0644 20.4671 64.9963 20.664 64.9963 20.9067V23.5889H64.0023V20.8171C64.0023 20.5949 63.9351 20.4176 63.8007 20.2851C63.6682 20.1526 63.4946 20.0863 63.28 20.0863C63.1344 20.0863 63.0019 20.1236 62.8824 20.1983C62.7629 20.2711 62.6678 20.3747 62.5968 20.5091C62.5259 20.6416 62.4904 20.7965 62.4904 20.9739V23.5889H61.4769ZM70.4566 23.6729C70.0254 23.6729 69.653 23.5833 69.3395 23.4041C69.0277 23.223 68.7879 22.9673 68.6199 22.6369C68.4519 22.3047 68.3679 21.9137 68.3679 21.4638C68.3679 21.0214 68.4519 20.6332 68.6199 20.2991C68.7898 19.9631 69.0268 19.7018 69.3311 19.5152C69.6353 19.3266 69.9927 19.2324 70.4034 19.2324C70.6684 19.2324 70.9185 19.2753 71.1537 19.3612C71.3908 19.4452 71.5998 19.5758 71.7809 19.7531C71.9638 19.9305 72.1075 20.1563 72.2121 20.4307C72.3166 20.7032 72.3688 21.028 72.3688 21.405V21.7158H68.8439V21.0326H71.3973C71.3954 20.8385 71.3534 20.6659 71.2713 20.5147C71.1892 20.3616 71.0744 20.2412 70.9269 20.1535C70.7814 20.0658 70.6115 20.0219 70.4174 20.0219C70.2102 20.0219 70.0282 20.0723 69.8714 20.1731C69.7146 20.272 69.5924 20.4027 69.5046 20.5651C69.4188 20.7256 69.3749 20.902 69.3731 21.0942V21.6906C69.3731 21.9407 69.4188 22.1554 69.5102 22.3346C69.6017 22.5119 69.7296 22.6481 69.8938 22.7433C70.0581 22.8367 70.2503 22.8833 70.4706 22.8833C70.618 22.8833 70.7515 22.8628 70.8709 22.8217C70.9904 22.7788 71.094 22.7163 71.1817 22.6341C71.2695 22.552 71.3357 22.4503 71.3805 22.329L72.3268 22.4353C72.2671 22.6855 72.1533 22.9038 71.9853 23.0905C71.8191 23.2753 71.6064 23.419 71.3469 23.5217C71.0875 23.6225 70.7907 23.6729 70.4566 23.6729Z" fill="#667085"/>
<path fill-rule="evenodd" clip-rule="evenodd" d="M81.91 20.5889C81.91 20.3557 81.7209 20.1666 81.4876 20.1666H80.4317C80.1984 20.1666 80.0093 20.3557 80.0093 20.5889C80.0093 20.8222 80.1984 21.0113 80.4317 21.0113H81.0652V22.7008C81.0652 22.934 81.2543 23.1231 81.4876 23.1231C81.7209 23.1231 81.91 22.934 81.91 22.7008V20.5889ZM79.7981 17.21H83.1771C84.1102 17.21 84.8666 17.9664 84.8666 18.8994V22.2784C84.8666 23.2115 84.1102 23.9679 83.1771 23.9679H79.7981C78.865 23.9679 78.1086 23.2115 78.1086 22.2784V18.8994C78.1086 17.9664 78.865 17.21 79.7981 17.21ZM81.4876 19.533C81.8375 19.533 82.1212 19.2493 82.1212 18.8994C82.1212 18.5495 81.8375 18.2659 81.4876 18.2659C81.1377 18.2659 80.8541 18.5495 80.8541 18.8994C80.8541 19.2493 81.1377 19.533 81.4876 19.533Z" fill="#8792A2"/>
<g style="mix-blend-mode:multiply">
<rect x="89.6534" y="14.244" width="33.4474" height="12.6895" rx="6.34474" fill="#ECFDF3"/>
<rect x="89.6534" y="14.244" width="33.4474" height="12.6895" rx="6.34474" stroke="#A9EFC5" stroke-width="0.56316"/>
<path d="M96.3453 23.1561C96.0157 23.1561 95.7213 23.0993 95.4622 22.9857C95.2046 22.8721 95.0006 22.7145 94.8502 22.5129C94.7014 22.3097 94.6214 22.0745 94.6102 21.8074H95.3638C95.3734 21.9529 95.4222 22.0793 95.5102 22.1865C95.5998 22.2921 95.7165 22.3737 95.8605 22.4313C96.0045 22.4889 96.1645 22.5177 96.3405 22.5177C96.5341 22.5177 96.7053 22.4841 96.8541 22.4169C97.0045 22.3497 97.122 22.2561 97.2068 22.1361C97.2916 22.0145 97.334 21.8746 97.334 21.7162C97.334 21.5514 97.2916 21.4066 97.2068 21.2818C97.1236 21.1554 97.0013 21.0562 96.8397 20.9842C96.6797 20.9122 96.4861 20.8762 96.2589 20.8762H95.8437V20.2715H96.2589C96.4413 20.2715 96.6013 20.2387 96.7389 20.1731C96.8781 20.1075 96.9869 20.0163 97.0653 19.8995C97.1436 19.7811 97.1828 19.6427 97.1828 19.4843C97.1828 19.3323 97.1484 19.2003 97.0796 19.0883C97.0125 18.9748 96.9165 18.886 96.7917 18.822C96.6685 18.758 96.5229 18.726 96.3549 18.726C96.1949 18.726 96.0453 18.7556 95.9061 18.8148C95.7685 18.8724 95.6565 18.9556 95.5702 19.0643C95.4838 19.1715 95.4374 19.3003 95.431 19.4507H94.7134C94.7214 19.1851 94.7998 18.9516 94.9486 18.75C95.099 18.5484 95.2974 18.3908 95.5438 18.2772C95.7901 18.1636 96.0637 18.1068 96.3645 18.1068C96.6797 18.1068 96.9517 18.1684 97.1804 18.2916C97.4108 18.4132 97.5884 18.5756 97.7132 18.7788C97.8396 18.982 97.902 19.2043 97.9004 19.4459C97.902 19.7211 97.8252 19.9547 97.67 20.1467C97.5164 20.3387 97.3116 20.4675 97.0557 20.533V20.5714C97.382 20.621 97.6348 20.7506 97.814 20.9602C97.9948 21.1698 98.0844 21.4298 98.0828 21.7402C98.0844 22.0105 98.0092 22.2529 97.8572 22.4673C97.7068 22.6817 97.5012 22.8505 97.2404 22.9737C96.9797 23.0953 96.6813 23.1561 96.3453 23.1561ZM100.651 23.1561C100.307 23.1561 100.003 23.0969 99.7387 22.9785C99.4763 22.8601 99.2707 22.6969 99.1219 22.4889C98.9731 22.2809 98.8995 22.0441 98.9011 21.7786C98.8995 21.5706 98.9419 21.3794 99.0283 21.205C99.1163 21.029 99.2355 20.8826 99.3859 20.7658C99.5363 20.6474 99.7043 20.5722 99.8899 20.5402V20.5114C99.6451 20.4523 99.4491 20.3211 99.3019 20.1179C99.1547 19.9147 99.0819 19.6811 99.0835 19.4171C99.0819 19.1659 99.1483 18.942 99.2827 18.7452C99.4187 18.5468 99.6051 18.3908 99.8419 18.2772C100.079 18.1636 100.348 18.1068 100.651 18.1068C100.95 18.1068 101.217 18.1644 101.452 18.2796C101.689 18.3932 101.875 18.5492 102.011 18.7476C102.147 18.9444 102.216 19.1675 102.218 19.4171C102.216 19.6811 102.141 19.9147 101.992 20.1179C101.843 20.3211 101.65 20.4523 101.411 20.5114V20.5402C101.595 20.5722 101.761 20.6474 101.908 20.7658C102.057 20.8826 102.175 21.029 102.263 21.205C102.353 21.3794 102.398 21.5706 102.4 21.7786C102.398 22.0441 102.323 22.2809 102.174 22.4889C102.026 22.6969 101.819 22.8601 101.555 22.9785C101.293 23.0969 100.991 23.1561 100.651 23.1561ZM100.651 22.5489C100.854 22.5489 101.03 22.5153 101.179 22.4481C101.327 22.3793 101.443 22.2841 101.524 22.1625C101.606 22.0393 101.647 21.8954 101.649 21.7306C101.647 21.5594 101.603 21.4082 101.515 21.277C101.428 21.1458 101.311 21.0426 101.162 20.9674C101.013 20.8922 100.843 20.8546 100.651 20.8546C100.457 20.8546 100.285 20.8922 100.135 20.9674C99.9842 21.0426 99.8659 21.1458 99.7795 21.277C99.6931 21.4082 99.6507 21.5594 99.6523 21.7306C99.6507 21.8954 99.6899 22.0393 99.7699 22.1625C99.8515 22.2841 99.9674 22.3793 100.118 22.4481C100.268 22.5153 100.446 22.5489 100.651 22.5489ZM100.651 20.2619C100.814 20.2619 100.959 20.2291 101.085 20.1635C101.211 20.0979 101.311 20.0067 101.383 19.8899C101.456 19.7731 101.494 19.6363 101.495 19.4795C101.494 19.3259 101.457 19.1915 101.385 19.0763C101.315 18.9612 101.216 18.8724 101.09 18.81C100.963 18.746 100.817 18.714 100.651 18.714C100.481 18.714 100.332 18.746 100.204 18.81C100.078 18.8724 99.9794 18.9612 99.9091 19.0763C99.8387 19.1915 99.8043 19.3259 99.8059 19.4795C99.8043 19.6363 99.8395 19.7731 99.9115 19.8899C99.9834 20.0067 100.083 20.0979 100.209 20.1635C100.337 20.2291 100.484 20.2619 100.651 20.2619ZM103.597 23.1345C103.466 23.1345 103.353 23.0881 103.259 22.9953C103.164 22.9009 103.117 22.7873 103.117 22.6545C103.117 22.5233 103.164 22.4113 103.259 22.3185C103.353 22.2241 103.466 22.1769 103.597 22.1769C103.728 22.1769 103.841 22.2241 103.935 22.3185C104.03 22.4113 104.077 22.5233 104.077 22.6545C104.077 22.7425 104.055 22.8233 104.01 22.8969C103.967 22.9689 103.909 23.0265 103.837 23.0697C103.765 23.1129 103.685 23.1345 103.597 23.1345ZM105.028 23.0889V22.5513L106.692 20.8282C106.869 20.641 107.016 20.4771 107.131 20.3363C107.248 20.1939 107.335 20.0587 107.392 19.9307C107.45 19.8027 107.479 19.6667 107.479 19.5227C107.479 19.3595 107.44 19.2187 107.364 19.1003C107.287 18.9804 107.182 18.8884 107.049 18.8244C106.916 18.7588 106.767 18.726 106.6 18.726C106.424 18.726 106.271 18.762 106.14 18.834C106.008 18.906 105.908 19.0076 105.837 19.1387C105.767 19.2699 105.732 19.4235 105.732 19.5995H105.024C105.024 19.3003 105.092 19.0388 105.23 18.8148C105.368 18.5908 105.556 18.4172 105.796 18.294C106.036 18.1692 106.309 18.1068 106.615 18.1068C106.924 18.1068 107.196 18.1684 107.431 18.2916C107.668 18.4132 107.852 18.5796 107.985 18.7908C108.118 19.0004 108.184 19.2371 108.184 19.5011C108.184 19.6835 108.15 19.8619 108.081 20.0363C108.014 20.2107 107.896 20.4051 107.728 20.6194C107.56 20.8322 107.327 21.0906 107.028 21.3946L106.051 22.4169V22.4529H108.263V23.0889H105.028ZM110.889 23.1561C110.67 23.1529 110.454 23.1129 110.241 23.0361C110.03 22.9593 109.838 22.8313 109.665 22.6521C109.492 22.4729 109.354 22.2321 109.25 21.9297C109.147 21.6274 109.096 21.2498 109.096 20.797C109.096 20.3683 109.139 19.9875 109.223 19.6547C109.31 19.3219 109.434 19.0412 109.595 18.8124C109.757 18.582 109.952 18.4068 110.181 18.2868C110.41 18.1668 110.666 18.1068 110.951 18.1068C111.244 18.1068 111.504 18.1644 111.731 18.2796C111.958 18.3948 112.142 18.554 112.283 18.7572C112.426 18.9604 112.516 19.1915 112.554 19.4507H111.822C111.773 19.2459 111.674 19.0787 111.527 18.9492C111.38 18.8196 111.188 18.7548 110.951 18.7548C110.591 18.7548 110.311 18.9116 110.109 19.2251C109.909 19.5387 109.808 19.9747 109.807 20.533H109.843C109.927 20.3939 110.031 20.2755 110.155 20.1779C110.279 20.0787 110.419 20.0027 110.572 19.9499C110.727 19.8955 110.89 19.8683 111.062 19.8683C111.346 19.8683 111.604 19.9379 111.834 20.0771C112.066 20.2147 112.251 20.4051 112.389 20.6482C112.526 20.8914 112.595 21.1698 112.595 21.4834C112.595 21.797 112.524 22.0809 112.382 22.3353C112.241 22.5897 112.042 22.7913 111.786 22.9401C111.53 23.0873 111.231 23.1593 110.889 23.1561ZM110.886 22.5321C111.075 22.5321 111.244 22.4857 111.393 22.3929C111.542 22.3001 111.659 22.1753 111.746 22.0185C111.832 21.8618 111.875 21.6866 111.875 21.493C111.875 21.3042 111.833 21.1322 111.748 20.977C111.665 20.8218 111.55 20.6986 111.402 20.6074C111.257 20.5162 111.09 20.4707 110.903 20.4707C110.761 20.4707 110.629 20.4978 110.507 20.5522C110.387 20.6066 110.282 20.6818 110.191 20.7778C110.099 20.8738 110.027 20.9842 109.975 21.109C109.923 21.2322 109.898 21.3626 109.898 21.5002C109.898 21.6842 109.94 21.8546 110.025 22.0113C110.111 22.1681 110.229 22.2945 110.378 22.3905C110.528 22.4849 110.698 22.5321 110.886 22.5321ZM116.035 22.1673V21.9081C116.035 21.7226 116.073 21.553 116.15 21.3994C116.228 21.2442 116.342 21.1202 116.491 21.0274C116.641 20.933 116.823 20.8858 117.035 20.8858C117.253 20.8858 117.435 20.9322 117.583 21.025C117.73 21.1178 117.841 21.2418 117.916 21.397C117.993 21.5522 118.031 21.7226 118.031 21.9081V22.1673C118.031 22.3529 117.993 22.5233 117.916 22.6785C117.839 22.8321 117.727 22.9561 117.578 23.0505C117.431 23.1433 117.25 23.1897 117.035 23.1897C116.819 23.1897 116.637 23.1433 116.488 23.0505C116.339 22.9561 116.227 22.8321 116.15 22.6785C116.073 22.5233 116.035 22.3529 116.035 22.1673ZM116.594 21.9081V22.1673C116.594 22.3049 116.627 22.4297 116.692 22.5417C116.758 22.6537 116.872 22.7097 117.035 22.7097C117.197 22.7097 117.31 22.6537 117.374 22.5417C117.438 22.4297 117.47 22.3049 117.47 22.1673V21.9081C117.47 21.7706 117.439 21.6458 117.376 21.5338C117.315 21.4218 117.202 21.3658 117.035 21.3658C116.875 21.3658 116.762 21.4218 116.695 21.5338C116.627 21.6458 116.594 21.7706 116.594 21.9081ZM113.563 19.3547V19.0955C113.563 18.91 113.601 18.7396 113.678 18.5844C113.756 18.4292 113.87 18.3052 114.019 18.2124C114.169 18.1196 114.351 18.0732 114.564 18.0732C114.781 18.0732 114.964 18.1196 115.111 18.2124C115.258 18.3052 115.369 18.4292 115.444 18.5844C115.52 18.7396 115.557 18.91 115.557 19.0955V19.3547C115.557 19.5403 115.519 19.7107 115.442 19.8659C115.367 20.0195 115.255 20.1435 115.106 20.2379C114.959 20.3307 114.778 20.3771 114.564 20.3771C114.346 20.3771 114.163 20.3307 114.014 20.2379C113.867 20.1435 113.755 20.0195 113.678 19.8659C113.601 19.7107 113.563 19.5403 113.563 19.3547ZM114.124 19.0955V19.3547C114.124 19.4923 114.156 19.6171 114.22 19.7291C114.286 19.8411 114.4 19.8971 114.564 19.8971C114.724 19.8971 114.836 19.8411 114.9 19.7291C114.965 19.6171 114.998 19.4923 114.998 19.3547V19.0955C114.998 18.958 114.967 18.8332 114.904 18.7212C114.842 18.6092 114.728 18.5532 114.564 18.5532C114.404 18.5532 114.29 18.6092 114.223 18.7212C114.157 18.8332 114.124 18.958 114.124 19.0955ZM113.791 23.0889L117.17 18.174H117.743L114.364 23.0889H113.791Z" fill="#067647"/>
</g>
<path d="M198.941 23.0889V17.3549H202.379V17.9708H199.635V19.9083H202.121V20.5242H199.635V23.0889H198.941ZM205.045 23.1785C204.63 23.1785 204.273 23.087 203.972 22.9041C203.674 22.7193 203.443 22.4617 203.281 22.1313C203.12 21.7991 203.04 21.4127 203.04 20.9722C203.04 20.5317 203.12 20.1435 203.281 19.8075C203.443 19.4697 203.669 19.2065 203.958 19.018C204.25 18.8276 204.589 18.7324 204.978 18.7324C205.201 18.7324 205.423 18.7697 205.641 18.8444C205.859 18.919 206.058 19.0404 206.237 19.2083C206.417 19.3745 206.559 19.5947 206.666 19.8691C206.772 20.1435 206.825 20.4813 206.825 20.8826V21.1626H203.51V20.5914H206.153C206.153 20.3488 206.105 20.1323 206.008 19.9419C205.913 19.7515 205.776 19.6012 205.599 19.4911C205.424 19.381 205.216 19.3259 204.978 19.3259C204.714 19.3259 204.487 19.3913 204.294 19.5219C204.104 19.6507 203.957 19.8187 203.855 20.0259C203.752 20.2331 203.701 20.4552 203.701 20.6922V21.073C203.701 21.3978 203.757 21.6731 203.869 21.899C203.983 22.1229 204.14 22.2937 204.342 22.4113C204.544 22.527 204.778 22.5849 205.045 22.5849C205.218 22.5849 205.375 22.5606 205.515 22.5121C205.657 22.4617 205.779 22.387 205.882 22.2881C205.985 22.1873 206.064 22.0623 206.12 21.9129L206.758 22.0921C206.691 22.3087 206.578 22.499 206.419 22.6633C206.261 22.8257 206.065 22.9526 205.831 23.0441C205.598 23.1337 205.336 23.1785 205.045 23.1785ZM207.999 23.0889V17.3549H208.66V19.4715H208.716C208.764 19.3969 208.831 19.3017 208.917 19.1859C209.005 19.0683 209.13 18.9638 209.292 18.8724C209.457 18.779 209.679 18.7324 209.959 18.7324C210.321 18.7324 210.64 18.8229 210.916 19.004C211.193 19.185 211.408 19.4417 211.563 19.7739C211.718 20.1061 211.795 20.4981 211.795 20.9498C211.795 21.4053 211.718 21.8 211.563 22.1341C211.408 22.4664 211.194 22.724 210.919 22.9069C210.645 23.0879 210.328 23.1785 209.97 23.1785C209.694 23.1785 209.473 23.1327 209.306 23.0413C209.14 22.9479 209.012 22.8425 208.923 22.7249C208.833 22.6054 208.764 22.5065 208.716 22.4281H208.637V23.0889H207.999ZM208.649 20.9386C208.649 21.2634 208.696 21.5499 208.791 21.7982C208.886 22.0445 209.026 22.2377 209.208 22.3777C209.391 22.5158 209.615 22.5849 209.88 22.5849C210.157 22.5849 210.387 22.5121 210.572 22.3665C210.759 22.2191 210.899 22.0212 210.992 21.773C211.087 21.5228 211.135 21.2447 211.135 20.9386C211.135 20.6362 211.088 20.3637 210.995 20.1211C210.903 19.8766 210.764 19.6834 210.578 19.5415C210.393 19.3978 210.16 19.3259 209.88 19.3259C209.612 19.3259 209.386 19.3941 209.203 19.5303C209.02 19.6647 208.882 19.8532 208.788 20.0959C208.695 20.3367 208.649 20.6176 208.649 20.9386ZM215.17 23.0889V22.5849L217.063 20.513C217.285 20.2704 217.468 20.0595 217.612 19.8803C217.755 19.6992 217.862 19.5294 217.931 19.3707C218.002 19.2102 218.037 19.0422 218.037 18.8668C218.037 18.6652 217.989 18.4907 217.892 18.3432C217.796 18.1957 217.666 18.0819 217.5 18.0016C217.333 17.9214 217.147 17.8812 216.94 17.8812C216.719 17.8812 216.527 17.927 216.363 18.0184C216.2 18.108 216.074 18.234 215.985 18.3964C215.897 18.5588 215.853 18.7492 215.853 18.9676H215.193C215.193 18.6316 215.27 18.3367 215.425 18.0828C215.58 17.829 215.791 17.6311 216.058 17.4893C216.326 17.3474 216.628 17.2765 216.962 17.2765C217.298 17.2765 217.596 17.3474 217.855 17.4893C218.115 17.6311 218.318 17.8224 218.466 18.0632C218.613 18.304 218.687 18.5719 218.687 18.8668C218.687 19.0777 218.648 19.2839 218.572 19.4855C218.497 19.6852 218.367 19.9083 218.18 20.1547C217.995 20.3992 217.738 20.6978 217.41 21.0506L216.122 22.4281V22.4729H218.787V23.0889H215.17ZM221.927 23.1673C221.691 23.1635 221.456 23.1187 221.221 23.0329C220.986 22.947 220.771 22.8024 220.577 22.5989C220.383 22.3936 220.227 22.1164 220.109 21.7674C219.992 21.4165 219.933 20.9759 219.933 20.4459C219.933 19.9382 219.981 19.4883 220.076 19.0963C220.171 18.7025 220.309 18.3712 220.49 18.1024C220.671 17.8318 220.89 17.6265 221.145 17.4865C221.403 17.3465 221.693 17.2765 222.016 17.2765C222.337 17.2765 222.623 17.3409 222.873 17.4697C223.125 17.5966 223.33 17.7739 223.489 18.0016C223.647 18.2293 223.75 18.4916 223.797 18.7884H223.114C223.05 18.5308 222.927 18.3171 222.744 18.1472C222.561 17.9774 222.318 17.8924 222.016 17.8924C221.572 17.8924 221.222 18.0856 220.966 18.472C220.712 18.8584 220.584 19.4006 220.583 20.0987H220.627C220.732 19.94 220.856 19.8047 221 19.6927C221.145 19.5788 221.306 19.4911 221.481 19.4295C221.657 19.3679 221.843 19.3371 222.039 19.3371C222.367 19.3371 222.668 19.4193 222.94 19.5835C223.213 19.7459 223.431 19.9708 223.595 20.2583C223.759 20.5438 223.842 20.8714 223.842 21.241C223.842 21.5956 223.762 21.9204 223.604 22.2153C223.445 22.5084 223.222 22.7417 222.934 22.9153C222.649 23.087 222.313 23.171 221.927 23.1673ZM221.927 22.5513C222.162 22.5513 222.373 22.4925 222.559 22.3749C222.748 22.2573 222.896 22.0996 223.004 21.9018C223.115 21.7039 223.17 21.4836 223.17 21.241C223.17 21.0039 223.116 20.7884 223.01 20.5942C222.906 20.3983 222.761 20.2424 222.576 20.1267C222.393 20.0109 222.184 19.9531 221.949 19.9531C221.772 19.9531 221.606 19.9886 221.453 20.0595C221.3 20.1285 221.166 20.2237 221.05 20.3451C220.936 20.4664 220.847 20.6054 220.781 20.7622C220.716 20.9172 220.683 21.0805 220.683 21.2522C220.683 21.4799 220.737 21.6927 220.843 21.8906C220.951 22.0884 221.099 22.248 221.285 22.3693C221.474 22.4906 221.688 22.5513 221.927 22.5513ZM225.749 22.3049L225.704 22.6073C225.672 22.8201 225.624 23.0478 225.558 23.2905C225.495 23.5331 225.429 23.7618 225.36 23.9764C225.29 24.1911 225.234 24.3618 225.189 24.4888H224.685C224.709 24.3693 224.741 24.2116 224.78 24.0156C224.819 23.8196 224.858 23.6003 224.898 23.3576C224.939 23.1169 224.972 22.8705 224.998 22.6185L225.032 22.3049H225.749ZM229.337 23.0889V22.5849L231.23 20.513C231.452 20.2704 231.635 20.0595 231.778 19.8803C231.922 19.6992 232.028 19.5294 232.097 19.3707C232.168 19.2102 232.204 19.0422 232.204 18.8668C232.204 18.6652 232.155 18.4907 232.058 18.3432C231.963 18.1957 231.832 18.0819 231.666 18.0016C231.5 17.9214 231.314 17.8812 231.106 17.8812C230.886 17.8812 230.694 17.927 230.53 18.0184C230.367 18.108 230.241 18.234 230.152 18.3964C230.064 18.5588 230.02 18.7492 230.02 18.9676H229.359C229.359 18.6316 229.437 18.3367 229.592 18.0828C229.747 17.829 229.957 17.6311 230.224 17.4893C230.493 17.3474 230.795 17.2765 231.129 17.2765C231.465 17.2765 231.762 17.3474 232.022 17.4893C232.281 17.6311 232.485 17.8224 232.632 18.0632C232.78 18.304 232.853 18.5719 232.853 18.8668C232.853 19.0777 232.815 19.2839 232.739 19.4855C232.664 19.6852 232.533 19.9083 232.347 20.1547C232.162 20.3992 231.905 20.6978 231.577 21.0506L230.289 22.4281V22.4729H232.954V23.0889H229.337ZM236.06 23.1673C235.638 23.1673 235.278 23.0525 234.982 22.8229C234.685 22.5914 234.458 22.2564 234.301 21.8178C234.145 21.3773 234.066 20.8453 234.066 20.2219C234.066 19.6022 234.145 19.073 234.301 18.6344C234.46 18.1939 234.688 17.8579 234.984 17.6265C235.283 17.3931 235.642 17.2765 236.06 17.2765C236.478 17.2765 236.835 17.3931 237.132 17.6265C237.431 17.8579 237.658 18.1939 237.815 18.6344C237.974 19.073 238.053 19.6022 238.053 20.2219C238.053 20.8453 237.975 21.3773 237.818 21.8178C237.661 22.2564 237.434 22.5914 237.138 22.8229C236.841 23.0525 236.481 23.1673 236.06 23.1673ZM236.06 22.5513C236.478 22.5513 236.802 22.3497 237.034 21.9465C237.265 21.5434 237.381 20.9685 237.381 20.2219C237.381 19.7254 237.328 19.3026 237.222 18.9536C237.117 18.6045 236.966 18.3385 236.768 18.1556C236.572 17.9727 236.336 17.8812 236.06 17.8812C235.645 17.8812 235.321 18.0856 235.088 18.4944C234.855 18.9013 234.738 19.4771 234.738 20.2219C234.738 20.7184 234.79 21.1402 234.895 21.4874C234.999 21.8346 235.15 22.0987 235.346 22.2797C235.544 22.4608 235.782 22.5513 236.06 22.5513ZM239.196 23.0889V22.5849L241.089 20.513C241.311 20.2704 241.494 20.0595 241.637 19.8803C241.781 19.6992 241.887 19.5294 241.956 19.3707C242.027 19.2102 242.063 19.0422 242.063 18.8668C242.063 18.6652 242.014 18.4907 241.917 18.3432C241.822 18.1957 241.691 18.0819 241.525 18.0016C241.359 17.9214 241.173 17.8812 240.965 17.8812C240.745 17.8812 240.553 17.927 240.389 18.0184C240.226 18.108 240.1 18.234 240.011 18.3964C239.923 18.5588 239.879 18.7492 239.879 18.9676H239.218C239.218 18.6316 239.296 18.3367 239.451 18.0828C239.606 17.829 239.816 17.6311 240.083 17.4893C240.352 17.3474 240.654 17.2765 240.988 17.2765C241.324 17.2765 241.621 17.3474 241.881 17.4893C242.14 17.6311 242.344 17.8224 242.491 18.0632C242.639 18.304 242.712 18.5719 242.712 18.8668C242.712 19.0777 242.674 19.2839 242.598 19.4855C242.523 19.6852 242.392 19.9083 242.206 20.1547C242.021 20.3992 241.764 20.6978 241.436 21.0506L240.148 22.4281V22.4729H242.813V23.0889H239.196ZM243.791 21.9129V21.3418L246.311 17.3549H246.725V18.2396H246.445L244.541 21.2522V21.297H247.934V21.9129H243.791ZM246.49 23.0889V21.7394V21.4734V17.3549H247.151V23.0889H246.49Z" fill="#667085"/>
<path d="M23.867 45.1182V34.8789H24.523V45.1182H23.867ZM26.0749 37.9507C26.0269 37.5454 25.8322 37.2307 25.4909 37.0067C25.1496 36.7828 24.731 36.6708 24.235 36.6708C23.8724 36.6708 23.5551 36.7294 23.2831 36.8467C23.0138 36.9641 22.8031 37.1254 22.6511 37.3307C22.5018 37.536 22.4271 37.7693 22.4271 38.0307C22.4271 38.2493 22.4791 38.4373 22.5831 38.5946C22.6898 38.7493 22.8258 38.8786 22.9911 38.9826C23.1564 39.0839 23.3297 39.1679 23.5111 39.2346C23.6924 39.2986 23.859 39.3506 24.011 39.3906L24.843 39.6146C25.0563 39.6705 25.2936 39.7479 25.5549 39.8465C25.8189 39.9452 26.0709 40.0799 26.3109 40.2505C26.5535 40.4185 26.7535 40.6345 26.9108 40.8985C27.0682 41.1624 27.1468 41.4864 27.1468 41.8704C27.1468 42.313 27.0308 42.713 26.7988 43.0703C26.5695 43.4276 26.2335 43.7116 25.7909 43.9223C25.3509 44.1329 24.8163 44.2382 24.187 44.2382C23.6004 44.2382 23.0924 44.1436 22.6631 43.9542C22.2365 43.7649 21.9005 43.5009 21.6552 43.1623C21.4125 42.8237 21.2752 42.4304 21.2432 41.9824H22.2672C22.2938 42.2917 22.3978 42.5477 22.5791 42.7503C22.7631 42.9503 22.9951 43.0996 23.2751 43.1983C23.5577 43.2943 23.8617 43.3423 24.187 43.3423C24.5657 43.3423 24.9056 43.281 25.2069 43.1583C25.5083 43.033 25.7469 42.8597 25.9229 42.6383C26.0989 42.4144 26.1869 42.153 26.1869 41.8544C26.1869 41.5824 26.1109 41.3611 25.9589 41.1904C25.8069 41.0198 25.6069 40.8811 25.3589 40.7745C25.111 40.6678 24.843 40.5745 24.555 40.4945L23.5471 40.2065C22.9071 40.0225 22.4005 39.7599 22.0272 39.4186C21.6539 39.0773 21.4672 38.6306 21.4672 38.0787C21.4672 37.62 21.5912 37.2201 21.8392 36.8787C22.0898 36.5348 22.4258 36.2681 22.8471 36.0788C23.2711 35.8868 23.7444 35.7908 24.267 35.7908C24.795 35.7908 25.2643 35.8855 25.6749 36.0748C26.0856 36.2615 26.4109 36.5174 26.6508 36.8427C26.8935 37.1681 27.0215 37.5374 27.0348 37.9507H26.0749ZM31.7052 35.9028V44.0942H30.7133V36.9427H30.6653L28.6654 38.2706V37.2627L30.7133 35.9028H31.7052ZM34.5087 44.0942L38.1725 36.8467V36.7828H33.9488V35.9028H39.1964V36.8307L35.5487 44.0942H34.5087ZM40.895 42.9743L40.831 43.4063C40.7857 43.7103 40.7163 44.0356 40.623 44.3822C40.5323 44.7289 40.4377 45.0555 40.339 45.3621C40.2404 45.6688 40.159 45.9128 40.095 46.0941H39.3751C39.4098 45.9234 39.4551 45.6981 39.5111 45.4181C39.5671 45.1382 39.6231 44.8249 39.6791 44.4782C39.7377 44.1342 39.7857 43.7823 39.8231 43.4223L39.8711 42.9743H40.895ZM42.6276 42.4144V41.5984L46.2273 35.9028H46.8193V37.1667H46.4193L43.6995 41.4704V41.5344H48.5472V42.4144H42.6276ZM46.4833 44.0942V42.1664V41.7864V35.9028H47.4272V44.0942H46.4833ZM52.9096 44.2062C52.307 44.2062 51.7937 44.0422 51.3697 43.7143C50.9457 43.3836 50.6217 42.905 50.3978 42.2784C50.1738 41.6491 50.0618 40.8891 50.0618 39.9985C50.0618 39.1133 50.1738 38.3573 50.3978 37.7307C50.6244 37.1014 50.9497 36.6214 51.3737 36.2908C51.8003 35.9575 52.3123 35.7908 52.9096 35.7908C53.5069 35.7908 54.0175 35.9575 54.4415 36.2908C54.8681 36.6214 55.1934 37.1014 55.4174 37.7307C55.644 38.3573 55.7574 39.1133 55.7574 39.9985C55.7574 40.8891 55.6454 41.6491 55.4214 42.2784C55.1974 42.905 54.8734 43.3836 54.4495 43.7143C54.0255 44.0422 53.5122 44.2062 52.9096 44.2062ZM52.9096 43.3263C53.5069 43.3263 53.9708 43.0383 54.3015 42.4624C54.6321 41.8864 54.7974 41.0651 54.7974 39.9985C54.7974 39.2892 54.7214 38.6853 54.5695 38.1867C54.4201 37.688 54.2042 37.308 53.9215 37.0467C53.6415 36.7854 53.3042 36.6548 52.9096 36.6548C52.3176 36.6548 51.855 36.9467 51.5217 37.5307C51.1884 38.112 51.0217 38.9346 51.0217 39.9985C51.0217 40.7078 51.0964 41.3104 51.2457 41.8064C51.395 42.3024 51.6097 42.6797 51.8896 42.9383C52.1723 43.197 52.5123 43.3263 52.9096 43.3263ZM57.469 44.0942V43.3743L60.1728 40.4145C60.4901 40.0679 60.7514 39.7665 60.9567 39.5106C61.162 39.2519 61.314 39.0093 61.4127 38.7826C61.514 38.5533 61.5647 38.3133 61.5647 38.0627C61.5647 37.7747 61.4954 37.5254 61.3567 37.3147C61.2207 37.1041 61.0341 36.9414 60.7967 36.8267C60.5594 36.7121 60.2928 36.6548 59.9968 36.6548C59.6821 36.6548 59.4075 36.7201 59.1728 36.8507C58.9409 36.9787 58.7609 37.1587 58.6329 37.3907C58.5076 37.6227 58.4449 37.8947 58.4449 38.2067H57.501C57.501 37.7267 57.6116 37.3054 57.8329 36.9427C58.0543 36.5801 58.3556 36.2975 58.7369 36.0948C59.1209 35.8921 59.5515 35.7908 60.0288 35.7908C60.5088 35.7908 60.9341 35.8921 61.3047 36.0948C61.6753 36.2975 61.966 36.5708 62.1766 36.9147C62.3873 37.2587 62.4926 37.6414 62.4926 38.0627C62.4926 38.364 62.438 38.6586 62.3286 38.9466C62.222 39.2319 62.0353 39.5506 61.7687 39.9025C61.5047 40.2518 61.138 40.6785 60.6687 41.1824L58.8289 43.1503V43.2143H62.6366V44.0942H57.469ZM65.1841 44.1582C64.9868 44.1582 64.8175 44.0876 64.6762 43.9462C64.5349 43.8049 64.4642 43.6356 64.4642 43.4383C64.4642 43.241 64.5349 43.0716 64.6762 42.9303C64.8175 42.789 64.9868 42.7183 65.1841 42.7183C65.3815 42.7183 65.5508 42.789 65.6921 42.9303C65.8334 43.0716 65.9041 43.241 65.9041 43.4383C65.9041 43.5689 65.8708 43.6889 65.8041 43.7983C65.7401 43.9076 65.6534 43.9956 65.5441 44.0622C65.4375 44.1262 65.3175 44.1582 65.1841 44.1582ZM70.1685 44.2062C69.6992 44.2062 69.2766 44.1129 68.9006 43.9263C68.5246 43.7396 68.2233 43.4836 67.9967 43.1583C67.77 42.833 67.646 42.4624 67.6247 42.0464H68.5846C68.6219 42.417 68.7899 42.7237 69.0886 42.9663C69.3899 43.2063 69.7499 43.3263 70.1685 43.3263C70.5045 43.3263 70.8031 43.2476 71.0644 43.0903C71.3284 42.933 71.5351 42.717 71.6844 42.4424C71.8364 42.165 71.9124 41.8517 71.9124 41.5024C71.9124 41.1451 71.8337 40.8265 71.6764 40.5465C71.5217 40.2638 71.3084 40.0412 71.0364 39.8785C70.7645 39.7159 70.4538 39.6332 70.1045 39.6306C69.8539 39.6279 69.5965 39.6665 69.3326 39.7465C69.0686 39.8239 68.8513 39.9239 68.6806 40.0465L67.7527 39.9345L68.2486 35.9028H72.5043V36.7828H69.0806L68.7926 39.1986H68.8406C69.0086 39.0653 69.2192 38.9546 69.4726 38.8666C69.7259 38.7786 69.9899 38.7346 70.2645 38.7346C70.7658 38.7346 71.2124 38.8546 71.6044 39.0946C71.999 39.3319 72.3084 39.6572 72.5323 40.0705C72.759 40.4838 72.8723 40.9558 72.8723 41.4864C72.8723 42.0091 72.755 42.4757 72.5203 42.8863C72.2884 43.2943 71.9684 43.6169 71.5604 43.8543C71.1524 44.0889 70.6885 44.2062 70.1685 44.2062ZM77.3247 44.2062C76.7221 44.2062 76.2088 44.0422 75.7848 43.7143C75.3609 43.3836 75.0369 42.905 74.8129 42.2784C74.5889 41.6491 74.4769 40.8891 74.4769 39.9985C74.4769 39.1133 74.5889 38.3573 74.8129 37.7307C75.0395 37.1014 75.3649 36.6214 75.7888 36.2908C76.2155 35.9575 76.7274 35.7908 77.3247 35.7908C77.922 35.7908 78.4326 35.9575 78.8566 36.2908C79.2832 36.6214 79.6086 37.1014 79.8325 37.7307C80.0592 38.3573 80.1725 39.1133 80.1725 39.9985C80.1725 40.8891 80.0605 41.6491 79.8365 42.2784C79.6126 42.905 79.2886 43.3836 78.8646 43.7143C78.4406 44.0422 77.9273 44.2062 77.3247 44.2062ZM77.3247 43.3263C77.922 43.3263 78.386 43.0383 78.7166 42.4624C79.0473 41.8864 79.2126 41.0651 79.2126 39.9985C79.2126 39.2892 79.1366 38.6853 78.9846 38.1867C78.8353 37.688 78.6193 37.308 78.3366 37.0467C78.0567 36.7854 77.7194 36.6548 77.3247 36.6548C76.7328 36.6548 76.2701 36.9467 75.9368 37.5307C75.6035 38.112 75.4369 38.9346 75.4369 39.9985C75.4369 40.7078 75.5115 41.3104 75.6608 41.8064C75.8102 42.3024 76.0248 42.6797 76.3048 42.9383C76.5874 43.197 76.9274 43.3263 77.3247 43.3263Z" fill="#344054"/>
<path d="M204.857 43.9134V35.722H205.382V43.9134H204.857ZM206.624 38.1794C206.585 37.8551 206.43 37.6034 206.156 37.4242C205.883 37.245 205.549 37.1555 205.152 37.1555C204.862 37.1555 204.608 37.2024 204.39 37.2962C204.175 37.3901 204.006 37.5192 203.885 37.6834C203.765 37.8477 203.705 38.0343 203.705 38.2434C203.705 38.4183 203.747 38.5687 203.83 38.6945C203.916 38.8183 204.024 38.9217 204.157 39.0049C204.289 39.086 204.428 39.1532 204.573 39.2065C204.718 39.2577 204.851 39.2993 204.973 39.3313L205.638 39.5105C205.809 39.5553 205.999 39.6171 206.208 39.6961C206.419 39.775 206.62 39.8827 206.812 40.0193C207.007 40.1536 207.167 40.3264 207.292 40.5376C207.418 40.7488 207.481 41.008 207.481 41.3152C207.481 41.6693 207.388 41.9892 207.203 42.2751C207.019 42.5609 206.751 42.7881 206.396 42.9566C206.044 43.1252 205.617 43.2094 205.113 43.2094C204.644 43.2094 204.238 43.1337 203.894 42.9822C203.553 42.8308 203.284 42.6196 203.088 42.3487C202.894 42.0778 202.784 41.7631 202.758 41.4048H203.577C203.599 41.6522 203.682 41.857 203.827 42.0191C203.974 42.1791 204.16 42.2986 204.384 42.3775C204.61 42.4543 204.853 42.4927 205.113 42.4927C205.416 42.4927 205.688 42.4436 205.929 42.3455C206.17 42.2452 206.361 42.1066 206.502 41.9295C206.643 41.7503 206.713 41.5413 206.713 41.3024C206.713 41.0848 206.652 40.9077 206.531 40.7712C206.409 40.6347 206.249 40.5238 206.051 40.4384C205.852 40.3531 205.638 40.2784 205.408 40.2144L204.601 39.9841C204.089 39.8369 203.684 39.6267 203.385 39.3537C203.087 39.0807 202.937 38.7233 202.937 38.2818C202.937 37.9149 203.037 37.5949 203.235 37.3218C203.436 37.0467 203.704 36.8333 204.041 36.6819C204.381 36.5283 204.759 36.4515 205.177 36.4515C205.6 36.4515 205.975 36.5272 206.304 36.6787C206.632 36.828 206.892 37.0328 207.084 37.293C207.279 37.5533 207.381 37.8487 207.392 38.1794H206.624ZM210.929 36.5411V43.0942H210.136V37.373H210.098L208.498 38.4354V37.629L210.136 36.5411H210.929ZM212.974 43.0942L215.905 37.2962V37.245H212.526V36.5411H216.724V37.2834L213.806 43.0942H212.974ZM217.884 42.1983L217.833 42.5439C217.797 42.7871 217.742 43.0473 217.667 43.3246C217.594 43.6019 217.519 43.8633 217.44 44.1086C217.361 44.3539 217.296 44.5491 217.245 44.6941H216.669C216.696 44.5576 216.733 44.3773 216.777 44.1534C216.822 43.9294 216.867 43.6787 216.912 43.4014C216.959 43.1262 216.997 42.8447 217.027 42.5567L217.065 42.1983H217.884ZM219.072 41.7503V41.0976L221.952 36.5411H222.425V37.5522H222.106L219.93 40.9952V41.0464H223.808V41.7503H219.072ZM222.157 43.0942V41.5519V41.248V36.5411H222.912V43.0942H222.157ZM227.099 43.1838C226.617 43.1838 226.207 43.0526 225.867 42.7903C225.528 42.5257 225.269 42.1428 225.09 41.6415C224.911 41.1381 224.821 40.5302 224.821 39.8177C224.821 39.1095 224.911 38.5047 225.09 38.0034C225.271 37.5 225.531 37.116 225.871 36.8515C226.212 36.5848 226.621 36.4515 227.099 36.4515C227.577 36.4515 227.986 36.5848 228.325 36.8515C228.666 37.116 228.926 37.5 229.106 38.0034C229.287 38.5047 229.378 39.1095 229.378 39.8177C229.378 40.5302 229.288 41.1381 229.109 41.6415C228.93 42.1428 228.67 42.5257 228.331 42.7903C227.992 43.0526 227.581 43.1838 227.099 43.1838ZM227.099 42.4799C227.577 42.4799 227.948 42.2495 228.213 41.7887C228.477 41.328 228.61 40.6709 228.61 39.8177C228.61 39.2502 228.549 38.7671 228.427 38.3682C228.308 37.9693 228.135 37.6653 227.909 37.4562C227.685 37.2472 227.415 37.1427 227.099 37.1427C226.626 37.1427 226.256 37.3762 225.989 37.8434C225.722 38.3084 225.589 38.9665 225.589 39.8177C225.589 40.3851 225.649 40.8672 225.768 41.264C225.888 41.6607 226.059 41.9626 226.283 42.1695C226.509 42.3764 226.781 42.4799 227.099 42.4799ZM230.548 43.0942V42.5183L232.711 40.1504C232.965 39.8731 233.174 39.6321 233.339 39.4273C233.503 39.2204 233.624 39.0263 233.703 38.8449C233.784 38.6615 233.825 38.4695 233.825 38.269C233.825 38.0386 233.77 37.8391 233.659 37.6706C233.55 37.5021 233.4 37.372 233.211 37.2802C233.021 37.1885 232.807 37.1427 232.571 37.1427C232.319 37.1427 232.099 37.1949 231.912 37.2994C231.726 37.4018 231.582 37.5458 231.48 37.7314C231.379 37.917 231.329 38.1346 231.329 38.3842H230.574C230.574 38.0002 230.663 37.6632 230.84 37.373C231.017 37.0829 231.258 36.8568 231.563 36.6947C231.87 36.5326 232.214 36.4515 232.596 36.4515C232.98 36.4515 233.32 36.5326 233.617 36.6947C233.914 36.8568 234.146 37.0755 234.315 37.3506C234.483 37.6258 234.567 37.9319 234.567 38.269C234.567 38.51 234.524 38.7457 234.436 38.9761C234.351 39.2044 234.201 39.4593 233.988 39.7409C233.777 40.0203 233.484 40.3616 233.108 40.7648L231.636 42.3391V42.3903H234.683V43.0942H230.548ZM236.522 43.1454C236.364 43.1454 236.229 43.0889 236.116 42.9758C236.003 42.8628 235.946 42.7273 235.946 42.5695C235.946 42.4116 236.003 42.2762 236.116 42.1631C236.229 42.05 236.364 41.9935 236.522 41.9935C236.68 41.9935 236.815 42.05 236.929 42.1631C237.042 42.2762 237.098 42.4116 237.098 42.5695C237.098 42.674 237.071 42.77 237.018 42.8575C236.967 42.9449 236.898 43.0153 236.81 43.0686C236.725 43.1198 236.629 43.1454 236.522 43.1454ZM240.311 43.1838C239.936 43.1838 239.598 43.1092 239.297 42.9598C238.996 42.8105 238.755 42.6057 238.574 42.3455C238.392 42.0852 238.293 41.7887 238.276 41.456H239.044C239.074 41.7525 239.208 41.9978 239.447 42.1919C239.688 42.3839 239.976 42.4799 240.311 42.4799C240.58 42.4799 240.819 42.417 241.028 42.2911C241.239 42.1652 241.404 41.9924 241.524 41.7727C241.646 41.5509 241.706 41.3002 241.706 41.0208C241.706 40.7349 241.643 40.48 241.518 40.256C241.394 40.0299 241.223 39.8518 241.006 39.7217C240.788 39.5916 240.539 39.5254 240.26 39.5233C240.06 39.5212 239.854 39.5521 239.642 39.6161C239.431 39.6779 239.257 39.7579 239.121 39.8561L238.379 39.7665L238.775 36.5411H242.18V37.245H239.441L239.21 39.1777H239.249C239.383 39.0711 239.552 38.9825 239.754 38.9121C239.957 38.8417 240.168 38.8065 240.388 38.8065C240.789 38.8065 241.146 38.9025 241.46 39.0945C241.776 39.2844 242.023 39.5446 242.202 39.8753C242.384 40.2059 242.474 40.5835 242.474 41.008C242.474 41.4261 242.38 41.7994 242.193 42.1279C242.007 42.4543 241.751 42.7124 241.425 42.9023C241.098 43.09 240.727 43.1838 240.311 43.1838ZM245.838 43.1838C245.356 43.1838 244.945 43.0526 244.606 42.7903C244.267 42.5257 244.008 42.1428 243.828 41.6415C243.649 41.1381 243.56 40.5302 243.56 39.8177C243.56 39.1095 243.649 38.5047 243.828 38.0034C244.01 37.5 244.27 37.116 244.609 36.8515C244.95 36.5848 245.36 36.4515 245.838 36.4515C246.316 36.4515 246.724 36.5848 247.063 36.8515C247.405 37.116 247.665 37.5 247.844 38.0034C248.025 38.5047 248.116 39.1095 248.116 39.8177C248.116 40.5302 248.026 41.1381 247.847 41.6415C247.668 42.1428 247.409 42.5257 247.07 42.7903C246.731 43.0526 246.32 43.1838 245.838 43.1838ZM245.838 42.4799C246.316 42.4799 246.687 42.2495 246.951 41.7887C247.216 41.328 247.348 40.6709 247.348 39.8177C247.348 39.2502 247.287 38.7671 247.166 38.3682C247.046 37.9693 246.873 37.6653 246.647 37.4562C246.423 37.2472 246.153 37.1427 245.838 37.1427C245.364 37.1427 244.994 37.3762 244.727 37.8434C244.461 38.3084 244.327 38.9665 244.327 39.8177C244.327 40.3851 244.387 40.8672 244.507 41.264C244.626 41.6607 244.798 41.9626 245.022 42.1695C245.248 42.3764 245.52 42.4799 245.838 42.4799Z" fill="#667085"/>
<line opacity="0.3" x1="20.8849" y1="61.6099" x2="20.8849" y2="164.514" stroke="#D0D5DD" stroke-width="0.56316"/>
<line opacity="0.3" x1="41.6707" y1="61.6099" x2="41.6707" y2="164.514" stroke="#D0D5DD" stroke-width="0.56316"/>
<line opacity="0.3" x1="62.4564" y1="61.6099" x2="62.4564" y2="164.514" stroke="#D0D5DD" stroke-width="0.56316"/>
<line opacity="0.3" x1="83.242" y1="61.6099" x2="83.242" y2="164.514" stroke="#D0D5DD" stroke-width="0.56316"/>
<line opacity="0.3" x1="104.028" y1="61.6099" x2="104.028" y2="164.514" stroke="#D0D5DD" stroke-width="0.56316"/>
<line opacity="0.3" x1="124.814" y1="61.6099" x2="124.814" y2="164.514" stroke="#D0D5DD" stroke-width="0.56316"/>
<line opacity="0.3" x1="145.599" y1="61.6099" x2="145.599" y2="164.514" stroke="#D0D5DD" stroke-width="0.56316"/>
<line opacity="0.3" x1="166.385" y1="61.6099" x2="166.385" y2="164.514" stroke="#D0D5DD" stroke-width="0.56316"/>
<line opacity="0.3" x1="187.171" y1="61.6099" x2="187.171" y2="164.514" stroke="#D0D5DD" stroke-width="0.56316"/>
<line opacity="0.3" x1="207.956" y1="61.6099" x2="207.956" y2="164.514" stroke="#D0D5DD" stroke-width="0.56316"/>
<line opacity="0.3" x1="228.742" y1="61.6099" x2="228.742" y2="164.514" stroke="#D0D5DD" stroke-width="0.56316"/>
<line opacity="0.3" x1="248.714" y1="61.6099" x2="248.714" y2="164.514" stroke="#D0D5DD" stroke-width="0.56316"/>
<line opacity="0.3" x1="20.6033" y1="164.95" x2="249.246" y2="164.95" stroke="#D0D5DD" stroke-width="0.56316"/>
<path d="M113.232 164.67L157.172 119.85H248.248" stroke="#EAECF0" stroke-width="0.56316"/>
<path d="M20.6033 164.67H203.197L249.246 110.886" stroke="#158ECC" stroke-width="0.56316"/>
<path d="M23.4311 173.003H24.4614V177.035C24.4595 177.404 24.3811 177.722 24.2262 177.989C24.0713 178.254 23.8548 178.459 23.5767 178.602C23.3004 178.744 22.9784 178.815 22.6107 178.815C22.2748 178.815 21.9724 178.755 21.7036 178.636C21.4367 178.515 21.2248 178.336 21.068 178.098C20.9112 177.861 20.8329 177.566 20.8329 177.214H21.866C21.8678 177.369 21.9014 177.502 21.9668 177.614C22.034 177.726 22.1264 177.812 22.244 177.872C22.3615 177.931 22.4969 177.961 22.6499 177.961C22.816 177.961 22.957 177.927 23.0727 177.858C23.1884 177.787 23.2762 177.682 23.3359 177.544C23.3975 177.406 23.4292 177.236 23.4311 177.035V173.003ZM26.8796 178.824C26.6071 178.824 26.3616 178.775 26.1432 178.678C25.9267 178.579 25.755 178.434 25.6281 178.241C25.503 178.049 25.4405 177.812 25.4405 177.53C25.4405 177.287 25.4853 177.087 25.5749 176.928C25.6645 176.769 25.7867 176.643 25.9417 176.547C26.0966 176.452 26.2711 176.38 26.4652 176.332C26.6612 176.281 26.8637 176.245 27.0728 176.223C27.3248 176.196 27.5291 176.173 27.6859 176.153C27.8427 176.13 27.9566 176.097 28.0275 176.052C28.1003 176.005 28.1367 175.933 28.1367 175.836V175.819C28.1367 175.609 28.0742 175.445 27.9491 175.329C27.8241 175.214 27.6439 175.156 27.4088 175.156C27.1605 175.156 26.9636 175.21 26.818 175.318C26.6743 175.427 26.5772 175.554 26.5268 175.702L25.5805 175.567C25.6551 175.306 25.7783 175.088 25.9501 174.912C26.1218 174.735 26.3318 174.602 26.58 174.515C26.8283 174.425 27.1026 174.38 27.4032 174.38C27.6103 174.38 27.8166 174.405 28.0219 174.453C28.2272 174.502 28.4148 174.582 28.5847 174.694C28.7545 174.804 28.8908 174.954 28.9934 175.145C29.098 175.335 29.1502 175.573 29.1502 175.859V178.737H28.1759V178.146H28.1423C28.0807 178.266 27.9939 178.378 27.8819 178.482C27.7718 178.585 27.6327 178.668 27.4648 178.731C27.2986 178.793 27.1036 178.824 26.8796 178.824ZM27.1428 178.079C27.3462 178.079 27.5226 178.039 27.6719 177.958C27.8213 177.876 27.9361 177.768 28.0163 177.634C28.0984 177.499 28.1395 177.353 28.1395 177.194V176.687C28.1078 176.713 28.0536 176.738 27.9771 176.76C27.9025 176.783 27.8185 176.802 27.7251 176.819C27.6318 176.836 27.5394 176.851 27.448 176.864C27.3565 176.877 27.2772 176.888 27.21 176.897C27.0588 176.918 26.9235 176.951 26.804 176.998C26.6845 177.045 26.5903 177.11 26.5212 177.194C26.4522 177.276 26.4176 177.383 26.4176 177.513C26.4176 177.7 26.4858 177.841 26.622 177.936C26.7583 178.031 26.9319 178.079 27.1428 178.079ZM31.2814 176.217V178.737H30.2679V174.436H31.2366V175.167H31.287C31.386 174.926 31.5437 174.735 31.7602 174.593C31.9786 174.451 32.2483 174.38 32.5694 174.38C32.8661 174.38 33.1246 174.444 33.3449 174.571C33.567 174.698 33.7387 174.881 33.8601 175.122C33.9833 175.363 34.0439 175.655 34.042 175.999V178.737H33.0285V176.155C33.0285 175.868 32.9539 175.643 32.8045 175.481C32.6571 175.318 32.4527 175.237 32.1914 175.237C32.0141 175.237 31.8563 175.276 31.7182 175.355C31.582 175.431 31.4746 175.542 31.3962 175.688C31.3197 175.833 31.2814 176.01 31.2814 176.217Z" fill="#667085"/>
<path d="M235.755 178.737H233.812V173.003H235.794C236.364 173.003 236.853 173.118 237.262 173.347C237.672 173.575 237.988 173.902 238.208 174.33C238.428 174.757 238.538 175.269 238.538 175.864C238.538 176.462 238.427 176.975 238.205 177.404C237.985 177.833 237.667 178.163 237.25 178.392C236.836 178.622 236.338 178.737 235.755 178.737ZM234.851 177.838H235.705C236.104 177.838 236.437 177.765 236.704 177.62C236.971 177.472 237.172 177.253 237.306 176.962C237.441 176.669 237.508 176.303 237.508 175.864C237.508 175.426 237.441 175.062 237.306 174.772C237.172 174.481 236.973 174.264 236.71 174.12C236.449 173.974 236.124 173.902 235.736 173.902H234.851V177.838ZM241.483 178.821C241.052 178.821 240.679 178.731 240.366 178.552C240.054 178.371 239.814 178.115 239.646 177.785C239.478 177.453 239.394 177.062 239.394 176.612C239.394 176.169 239.478 175.781 239.646 175.447C239.816 175.111 240.053 174.85 240.357 174.663C240.661 174.475 241.019 174.38 241.43 174.38C241.695 174.38 241.945 174.423 242.18 174.509C242.417 174.593 242.626 174.724 242.807 174.901C242.99 175.078 243.134 175.304 243.238 175.579C243.343 175.851 243.395 176.176 243.395 176.553V176.864H239.87V176.181H242.423C242.422 175.986 242.38 175.814 242.298 175.663C242.215 175.51 242.101 175.389 241.953 175.301C241.808 175.214 241.638 175.17 241.444 175.17C241.236 175.17 241.054 175.22 240.898 175.321C240.741 175.42 240.619 175.551 240.531 175.713C240.445 175.874 240.401 176.05 240.399 176.242V176.839C240.399 177.089 240.445 177.303 240.536 177.483C240.628 177.66 240.756 177.796 240.92 177.891C241.084 177.985 241.277 178.031 241.497 178.031C241.644 178.031 241.778 178.011 241.897 177.97C242.017 177.927 242.12 177.864 242.208 177.782C242.296 177.7 242.362 177.598 242.407 177.477L243.353 177.583C243.293 177.833 243.179 178.052 243.011 178.238C242.845 178.423 242.633 178.567 242.373 178.67C242.114 178.77 241.817 178.821 241.483 178.821ZM246.227 178.821C245.798 178.821 245.429 178.727 245.121 178.538C244.815 178.35 244.579 178.089 244.413 177.757C244.248 177.423 244.166 177.038 244.166 176.603C244.166 176.167 244.25 175.781 244.418 175.447C244.586 175.111 244.823 174.85 245.129 174.663C245.437 174.475 245.801 174.38 246.221 174.38C246.57 174.38 246.879 174.445 247.148 174.574C247.419 174.7 247.634 174.881 247.795 175.114C247.955 175.345 248.047 175.616 248.069 175.926H247.1C247.061 175.719 246.968 175.546 246.82 175.408C246.675 175.268 246.48 175.198 246.235 175.198C246.028 175.198 245.846 175.254 245.689 175.366C245.533 175.476 245.41 175.635 245.323 175.842C245.237 176.049 245.194 176.297 245.194 176.587C245.194 176.88 245.237 177.132 245.323 177.343C245.408 177.552 245.529 177.713 245.684 177.827C245.841 177.939 246.024 177.995 246.235 177.995C246.385 177.995 246.518 177.967 246.636 177.911C246.755 177.853 246.855 177.77 246.935 177.662C247.016 177.553 247.071 177.422 247.1 177.267H248.069C248.045 177.571 247.955 177.841 247.8 178.076C247.645 178.309 247.435 178.492 247.168 178.625C246.901 178.755 246.587 178.821 246.227 178.821Z" fill="#667085"/>
</g>
<defs>
<filter id="filter0_dd_3186_503507" x="0.329477" y="0.0732421" width="269.191" height="208.369" filterUnits="userSpaceOnUse" color-interpolation-filters="sRGB">
<feFlood flood-opacity="0" result="BackgroundImageFix"/>
<feColorMatrix in="SourceAlpha" type="matrix" values="0 0 0 0 0 0 0 0 0 0 0 0 0 0 0 0 0 0 127 0" result="hardAlpha"/>
<feMorphology radius="1.12632" operator="erode" in="SourceAlpha" result="effect1_dropShadow_3186_503507"/>
<feOffset dy="2.25264"/>
<feGaussianBlur stdDeviation="1.68948"/>
<feColorMatrix type="matrix" values="0 0 0 0 0.0627451 0 0 0 0 0.0941176 0 0 0 0 0.156863 0 0 0 0.03 0"/>
<feBlend mode="normal" in2="BackgroundImageFix" result="effect1_dropShadow_3186_503507"/>
<feColorMatrix in="SourceAlpha" type="matrix" values="0 0 0 0 0 0 0 0 0 0 0 0 0 0 0 0 0 0 127 0" result="hardAlpha"/>
<feMorphology radius="2.25264" operator="erode" in="SourceAlpha" result="effect2_dropShadow_3186_503507"/>
<feOffset dy="6.75793"/>
<feGaussianBlur stdDeviation="4.50528"/>
<feColorMatrix type="matrix" values="0 0 0 0 0.0627451 0 0 0 0 0.0941176 0 0 0 0 0.156863 0 0 0 0.08 0"/>
<feBlend mode="normal" in2="effect1_dropShadow_3186_503507" result="effect2_dropShadow_3186_503507"/>
<feBlend mode="normal" in="SourceGraphic" in2="effect2_dropShadow_3186_503507" result="shape"/>
</filter>
<linearGradient id="paint0_linear_3186_503507" x1="134.925" y1="0.0732422" x2="134.925" y2="194.927" gradientUnits="userSpaceOnUse">
<stop stop-color="#FFB258"/>
<stop offset="1" stop-color="#1AB3FF"/>
</linearGradient>
</defs>
</svg>
