<svg width="330" height="412" viewBox="0 0 330 412" fill="none" xmlns="http://www.w3.org/2000/svg">
<g clip-path="url(#clip0_7014_108441)">
<rect x="0.160156" y="0.569824" width="329.84" height="410.549" rx="30" fill="white"/>
<g clip-path="url(#clip1_7014_108441)">
<rect width="329.84" height="410.549" transform="translate(0.160156 0.569824)" fill="white"/>
<mask id="path-3-inside-1_7014_108441" fill="white">
<path d="M0.160156 0.569824H330V411.119H0.160156V0.569824Z"/>
</mask>
<path d="M330 409.933H0.160156V412.305H330V409.933Z" fill="#EAECF0" mask="url(#path-3-inside-1_7014_108441)"/>
<rect x="22.1108" y="16.9096" width="22.543" height="22.543" rx="6.52561" fill="white"/>
<rect x="22.1108" y="16.9096" width="22.543" height="22.543" rx="6.52561" stroke="#D0D5DD" stroke-width="1.18648"/>
<g style="mix-blend-mode:multiply">
<rect x="64.8237" y="15.4013" width="49.7971" height="25.5594" rx="12.7797" fill="#F0F9FF"/>
<rect x="64.8237" y="15.4013" width="49.7971" height="25.5594" rx="12.7797" stroke="#B9E6FE" stroke-width="1.18648"/>
<path d="M80.8449 25.5466C80.791 25.068 80.5686 24.6972 80.1776 24.4343C79.7866 24.168 79.2944 24.0348 78.7012 24.0348C78.2765 24.0348 77.9091 24.1023 77.599 24.2371C77.2889 24.3685 77.0479 24.5506 76.876 24.7831C76.7075 25.0123 76.6232 25.2736 76.6232 25.5668C76.6232 25.8129 76.6805 26.0252 76.7951 26.2039C76.9131 26.3825 77.0664 26.5325 77.2552 26.6539C77.4473 26.7718 77.6529 26.8713 77.872 26.9522C78.0911 27.0297 78.3018 27.0937 78.504 27.1443L79.5152 27.4072C79.8455 27.4881 80.1843 27.5976 80.5315 27.7358C80.8787 27.874 81.2006 28.0561 81.4972 28.2819C81.7938 28.5077 82.0331 28.7875 82.2151 29.1212C82.4005 29.4549 82.4932 29.8543 82.4932 30.3195C82.4932 30.906 82.3415 31.4267 82.0382 31.8818C81.7382 32.3368 81.3017 32.6958 80.7287 32.9587C80.159 33.2216 79.4697 33.3531 78.6608 33.3531C77.8855 33.3531 77.2147 33.23 76.6485 32.984C76.0822 32.7379 75.6389 32.389 75.3187 31.9374C74.9985 31.4823 74.8216 30.943 74.7879 30.3195H76.3552C76.3856 30.6936 76.5069 31.0054 76.7192 31.2548C76.935 31.5009 77.2097 31.6846 77.5434 31.8059C77.8804 31.9239 78.2495 31.9829 78.6506 31.9829C79.0922 31.9829 79.4849 31.9138 79.8287 31.7756C80.1759 31.634 80.4489 31.4385 80.6478 31.1891C80.8466 30.9363 80.9461 30.6414 80.9461 30.3043C80.9461 29.9976 80.8584 29.7464 80.6832 29.5509C80.5113 29.3554 80.277 29.1937 79.9804 29.0656C79.6871 28.9375 79.3551 28.8246 78.9843 28.7268L77.7608 28.3931C76.9316 28.1673 76.2743 27.8353 75.7889 27.3971C75.3069 26.9589 75.0659 26.3791 75.0659 25.6578C75.0659 25.0612 75.2277 24.5404 75.5513 24.0955C75.8749 23.6506 76.3131 23.3051 76.8659 23.059C77.4187 22.8096 78.0422 22.6849 78.7366 22.6849C79.4377 22.6849 80.0562 22.8079 80.5921 23.054C81.1315 23.3 81.5562 23.6388 81.8663 24.0702C82.1764 24.4983 82.3382 24.9904 82.3516 25.5466H80.8449ZM87.5859 33.3379C86.8207 33.3379 86.1618 33.1744 85.609 32.8475C85.0595 32.5171 84.6348 32.0537 84.3349 31.4571C84.0382 30.8571 83.8899 30.1543 83.8899 29.3487C83.8899 28.5532 84.0382 27.8521 84.3349 27.2454C84.6348 26.6387 85.0528 26.1651 85.5887 25.8247C86.128 25.4842 86.7584 25.314 87.4797 25.314C87.9179 25.314 88.3426 25.3865 88.7538 25.5314C89.165 25.6764 89.5341 25.9039 89.8611 26.214C90.188 26.5241 90.4459 26.9269 90.6346 27.4224C90.8234 27.9145 90.9178 28.5128 90.9178 29.2172V29.7532H84.7444V28.6206H89.4364C89.4364 28.2229 89.3555 27.8707 89.1937 27.5639C89.0319 27.2538 88.8044 27.0095 88.5111 26.8308C88.2212 26.6522 87.8808 26.5628 87.4898 26.5628C87.0651 26.5628 86.6943 26.6673 86.3775 26.8763C86.064 27.0819 85.8213 27.3516 85.6494 27.6853C85.4809 28.0156 85.3966 28.3746 85.3966 28.7622V29.647C85.3966 30.1661 85.4876 30.6076 85.6696 30.9717C85.855 31.3357 86.1129 31.6138 86.4432 31.8059C86.7735 31.9947 87.1595 32.0891 87.601 32.0891C87.8875 32.0891 88.1488 32.0486 88.3847 31.9677C88.6207 31.8834 88.8246 31.7587 88.9965 31.5936C89.1684 31.4284 89.2998 31.2245 89.3909 30.9818L90.8217 31.2396C90.7071 31.661 90.5015 32.0301 90.2049 32.3469C89.9116 32.6604 89.5425 32.9048 89.0976 33.08C88.656 33.2519 88.1521 33.3379 87.5859 33.3379ZM94.1068 28.5701V33.1812H92.5951V25.4151H94.0462V26.6791H94.1422C94.3209 26.2679 94.6006 25.9376 94.9815 25.6882C95.3658 25.4387 95.8495 25.314 96.4326 25.314C96.9618 25.314 97.4253 25.4252 97.823 25.6477C98.2207 25.8668 98.5292 26.1938 98.7483 26.6286C98.9673 27.0634 99.0769 27.601 99.0769 28.2414V33.1812H97.5651V28.4235C97.5651 27.8606 97.4185 27.4207 97.1253 27.1038C96.832 26.7836 96.4292 26.6235 95.9169 26.6235C95.5663 26.6235 95.2546 26.6994 94.9815 26.851C94.7119 27.0027 94.4978 27.2252 94.3394 27.5184C94.1844 27.8083 94.1068 28.1589 94.1068 28.5701ZM104.73 25.4151V26.6286H100.488V25.4151H104.73ZM101.625 23.5545H103.137V30.9009C103.137 31.1941 103.181 31.4149 103.268 31.5632C103.356 31.7082 103.469 31.8076 103.607 31.8615C103.749 31.9121 103.902 31.9374 104.067 31.9374C104.189 31.9374 104.295 31.9289 104.386 31.9121C104.477 31.8952 104.547 31.8818 104.598 31.8716L104.871 33.1205C104.783 33.1542 104.659 33.1879 104.497 33.2216C104.335 33.2587 104.133 33.2789 103.89 33.2823C103.492 33.289 103.122 33.2182 102.778 33.0699C102.434 32.9216 102.156 32.6924 101.944 32.3823C101.731 32.0722 101.625 31.6829 101.625 31.2144V23.5545Z" fill="#026AA2"/>
</g>
<rect x="134.791" y="15.4013" width="35.7971" height="25.5594" rx="12.7797" fill="white"/>
<rect x="134.791" y="15.4013" width="35.7971" height="25.5594" rx="12.7797" stroke="#EAECF0" stroke-width="1.18648"/>
<path d="M144.732 33.1812V32.0486L148.236 28.4184C148.61 28.024 148.919 27.6785 149.161 27.3819C149.407 27.0819 149.591 26.7971 149.712 26.5275C149.834 26.2578 149.894 25.9713 149.894 25.6679C149.894 25.3241 149.814 25.0275 149.652 24.7781C149.49 24.5253 149.269 24.3315 148.989 24.1966C148.71 24.0584 148.395 23.9893 148.044 23.9893C147.673 23.9893 147.35 24.0652 147.073 24.2169C146.797 24.3685 146.584 24.5826 146.436 24.859C146.288 25.1354 146.214 25.4589 146.214 25.8297H144.722C144.722 25.1994 144.867 24.6483 145.157 24.1764C145.447 23.7045 145.845 23.3388 146.35 23.0793C146.856 22.8163 147.431 22.6849 148.074 22.6849C148.725 22.6849 149.298 22.8147 149.793 23.0742C150.292 23.3304 150.682 23.6809 150.961 24.1258C151.241 24.5674 151.381 25.0663 151.381 25.6224C151.381 26.0067 151.308 26.3825 151.164 26.7499C151.022 27.1173 150.774 27.5269 150.42 27.9785C150.066 28.4268 149.574 28.9712 148.944 29.6116L146.886 31.7655V31.8413H151.548V33.1812H144.732ZM157.069 33.3227C156.375 33.3227 155.754 33.2031 155.208 32.9637C154.666 32.7244 154.236 32.3924 153.919 31.9677C153.606 31.5396 153.437 31.0441 153.413 30.4812H155.001C155.021 30.788 155.124 31.0543 155.309 31.2801C155.498 31.5026 155.744 31.6745 156.048 31.7958C156.351 31.9172 156.688 31.9778 157.059 31.9778C157.467 31.9778 157.827 31.907 158.141 31.7655C158.458 31.6239 158.705 31.4267 158.884 31.1739C159.063 30.9177 159.152 30.6228 159.152 30.2891C159.152 29.9419 159.063 29.6369 158.884 29.374C158.709 29.1077 158.451 28.8987 158.11 28.747C157.773 28.5954 157.366 28.5195 156.887 28.5195H156.012V27.2454H156.887C157.271 27.2454 157.608 27.1763 157.898 27.0381C158.191 26.8999 158.421 26.7078 158.586 26.4617C158.751 26.2123 158.833 25.9207 158.833 25.587C158.833 25.2668 158.761 24.9887 158.616 24.7528C158.474 24.5135 158.272 24.3264 158.009 24.1916C157.75 24.0568 157.443 23.9893 157.089 23.9893C156.752 23.9893 156.437 24.0517 156.144 24.1764C155.854 24.2978 155.618 24.473 155.436 24.7022C155.254 24.9281 155.156 25.1994 155.143 25.5163H153.631C153.648 24.9567 153.813 24.4646 154.126 24.0399C154.443 23.6152 154.861 23.2832 155.38 23.0439C155.899 22.8045 156.476 22.6849 157.109 22.6849C157.773 22.6849 158.346 22.8147 158.828 23.0742C159.314 23.3304 159.688 23.6725 159.951 24.1006C160.217 24.5286 160.349 24.9972 160.345 25.5061C160.349 26.0859 160.187 26.578 159.86 26.9825C159.536 27.387 159.105 27.6583 158.566 27.7965V27.8774C159.253 27.9819 159.786 28.2549 160.163 28.6965C160.544 29.138 160.733 29.6858 160.729 30.3397C160.733 30.9093 160.574 31.42 160.254 31.8716C159.937 32.3233 159.504 32.6789 158.955 32.9385C158.405 33.1946 157.777 33.3227 157.069 33.3227Z" fill="#344054"/>
<rect x="22.1108" y="62.6391" width="22.543" height="22.543" rx="6.52561" fill="white"/>
<rect x="22.1108" y="62.6391" width="22.543" height="22.543" rx="6.52561" stroke="#D0D5DD" stroke-width="1.18648"/>
<g style="mix-blend-mode:multiply">
<rect x="64.8237" y="61.1308" width="52.7971" height="25.5594" rx="12.7797" fill="#F9FAFB"/>
<rect x="64.8237" y="61.1308" width="52.7971" height="25.5594" rx="12.7797" stroke="#EAECF0" stroke-width="1.18648"/>
<path d="M78.5479 78.9106H75.1958V68.5559H78.6541C79.6686 68.5559 80.54 68.7632 81.268 69.1778C81.9961 69.5891 82.5539 70.1806 82.9416 70.9525C83.3326 71.721 83.5281 72.6429 83.5281 73.7181C83.5281 74.7967 83.3309 75.7237 82.9365 76.4989C82.5455 77.2742 81.9792 77.8708 81.2377 78.2888C80.4961 78.7033 79.5995 78.9106 78.5479 78.9106ZM76.7581 77.5455H78.4619C79.2507 77.5455 79.9063 77.3972 80.4287 77.1006C80.9512 76.8006 81.3422 76.3675 81.6017 75.8012C81.8613 75.2316 81.991 74.5372 81.991 73.7181C81.991 72.9058 81.8613 72.2165 81.6017 71.6502C81.3455 71.084 80.963 70.6542 80.454 70.3609C79.945 70.0677 79.313 69.9211 78.558 69.9211H76.7581V77.5455ZM85.3495 78.9106V71.1446H86.8107V72.3783H86.8916C87.0331 71.9603 87.2826 71.6317 87.6398 71.3924C88.0005 71.1497 88.4084 71.0283 88.8634 71.0283C88.9578 71.0283 89.069 71.0317 89.1971 71.0384C89.3286 71.0452 89.4314 71.0536 89.5055 71.0637V72.5097C89.4448 72.4929 89.337 72.4744 89.1819 72.4541C89.0269 72.4305 88.8718 72.4187 88.7168 72.4187C88.3595 72.4187 88.041 72.4946 87.7612 72.6463C87.4848 72.7946 87.2657 73.0019 87.1039 73.2681C86.9421 73.5311 86.8612 73.831 86.8612 74.1681V78.9106H85.3495ZM93.0043 79.0825C92.5121 79.0825 92.0672 78.9915 91.6695 78.8095C91.2717 78.6241 90.9566 78.3562 90.724 78.0056C90.4948 77.6551 90.3802 77.2253 90.3802 76.7163C90.3802 76.2782 90.4645 75.9175 90.633 75.6344C90.8015 75.3512 91.0291 75.1271 91.3156 74.9619C91.6021 74.7967 91.9223 74.672 92.2762 74.5878C92.6301 74.5035 92.9908 74.4395 93.3582 74.3956C93.8233 74.3417 94.2009 74.2979 94.4907 74.2642C94.7806 74.2271 94.9913 74.1681 95.1227 74.0872C95.2542 74.0063 95.3199 73.8749 95.3199 73.6928V73.6575C95.3199 73.2159 95.1952 72.8738 94.9458 72.6311C94.6997 72.3884 94.3323 72.2671 93.8436 72.2671C93.3346 72.2671 92.9335 72.38 92.6402 72.6058C92.3504 72.8283 92.1498 73.076 92.0386 73.349L90.6178 73.0255C90.7864 72.5536 91.0324 72.1727 91.356 71.8828C91.683 71.5896 92.0588 71.3772 92.4835 71.2457C92.9082 71.1109 93.3548 71.0435 93.8233 71.0435C94.1334 71.0435 94.4621 71.0806 94.8093 71.1547C95.1598 71.2255 95.4868 71.357 95.7901 71.5491C96.0969 71.7412 96.348 72.0159 96.5435 72.3732C96.739 72.7272 96.8367 73.1872 96.8367 73.7535V78.9106H95.3604V77.8489H95.2997C95.2019 78.0444 95.0553 78.2365 94.8598 78.4253C94.6643 78.614 94.4132 78.7708 94.1065 78.8955C93.7997 79.0202 93.4323 79.0825 93.0043 79.0825ZM93.3329 77.8691C93.7509 77.8691 94.1082 77.7865 94.4048 77.6214C94.7048 77.4562 94.9323 77.2405 95.0873 76.9742C95.2458 76.7045 95.325 76.4163 95.325 76.1096V75.1085C95.271 75.1625 95.1665 75.213 95.0115 75.2602C94.8598 75.304 94.6862 75.3428 94.4907 75.3765C94.2952 75.4068 94.1048 75.4355 93.9194 75.4625C93.734 75.486 93.579 75.5063 93.4542 75.5231C93.161 75.5602 92.893 75.6226 92.6503 75.7102C92.411 75.7978 92.2189 75.9242 92.074 76.0894C91.9324 76.2512 91.8616 76.4669 91.8616 76.7366C91.8616 77.1107 91.9998 77.3938 92.2762 77.586C92.5526 77.7747 92.9048 77.8691 93.3329 77.8691ZM102.546 71.1446V72.3581H98.1576V71.1446H102.546ZM99.3609 78.9106V70.2447C99.3609 69.7593 99.4671 69.3565 99.6795 69.0363C99.8918 68.7127 100.173 68.4717 100.524 68.3133C100.874 68.1515 101.255 68.0706 101.666 68.0706C101.97 68.0706 102.229 68.0959 102.445 68.1464C102.661 68.1936 102.821 68.2374 102.925 68.2779L102.571 69.5014C102.501 69.4812 102.41 69.4576 102.298 69.4306C102.187 69.4003 102.052 69.3851 101.894 69.3851C101.527 69.3851 101.264 69.4761 101.105 69.6582C100.95 69.8402 100.873 70.1031 100.873 70.4469V78.9106H99.3609ZM107.731 71.1446V72.3581H103.489V71.1446H107.731ZM104.627 69.284H106.138V76.6304C106.138 76.9236 106.182 77.1444 106.27 77.2927C106.358 77.4377 106.471 77.5371 106.609 77.591C106.75 77.6416 106.904 77.6669 107.069 77.6669C107.19 77.6669 107.296 77.6584 107.387 77.6416C107.478 77.6247 107.549 77.6113 107.6 77.6011L107.873 78.85C107.785 78.8837 107.66 78.9174 107.499 78.9511C107.337 78.9882 107.135 79.0084 106.892 79.0118C106.494 79.0185 106.123 78.9477 105.78 78.7994C105.436 78.6511 105.158 78.4219 104.945 78.1118C104.733 77.8017 104.627 77.4124 104.627 76.9439V69.284Z" fill="#344054"/>
</g>
<rect x="137.791" y="61.1308" width="33.7971" height="25.5594" rx="12.7797" fill="white"/>
<rect x="137.791" y="61.1308" width="33.7971" height="25.5594" rx="12.7797" stroke="#EAECF0" stroke-width="1.18648"/>
<path d="M151.884 68.5559V78.9106H150.317V70.1233H150.256L147.779 71.7412V70.2447L150.362 68.5559H151.884ZM154.685 78.9106V77.7781L158.189 74.1479C158.563 73.7535 158.872 73.408 159.114 73.1114C159.36 72.8114 159.544 72.5266 159.666 72.2569C159.787 71.9873 159.848 71.7008 159.848 71.3974C159.848 71.0536 159.767 70.757 159.605 70.5076C159.443 70.2548 159.222 70.061 158.943 69.9261C158.663 69.7879 158.348 69.7188 157.997 69.7188C157.626 69.7188 157.303 69.7947 157.026 69.9464C156.75 70.098 156.538 70.3121 156.389 70.5885C156.241 70.8649 156.167 71.1884 156.167 71.5592H154.675C154.675 70.9289 154.82 70.3778 155.11 69.9059C155.4 69.434 155.798 69.0683 156.303 68.8087C156.809 68.5458 157.384 68.4144 158.027 68.4144C158.678 68.4144 159.251 68.5442 159.746 68.8037C160.245 69.0599 160.635 69.4104 160.914 69.8553C161.194 70.2969 161.334 70.7958 161.334 71.3519C161.334 71.7362 161.262 72.112 161.117 72.4794C160.975 72.8468 160.727 73.2563 160.373 73.708C160.019 74.1563 159.527 74.7007 158.897 75.3411L156.839 77.495V77.5708H161.501V78.9106H154.685Z" fill="#344054"/>
<rect x="22.1108" y="108.368" width="22.543" height="22.543" rx="6.52561" fill="white"/>
<rect x="22.1108" y="108.368" width="22.543" height="22.543" rx="6.52561" stroke="#D0D5DD" stroke-width="1.18648"/>
<g style="mix-blend-mode:multiply">
<rect x="64.8237" y="106.86" width="100.797" height="25.5594" rx="12.7797" fill="#EFF8FF"/>
<rect x="64.8237" y="106.86" width="100.797" height="25.5594" rx="12.7797" stroke="#B2DDFF" stroke-width="1.18648"/>
<path d="M75.1557 124.64V114.285H78.8466C79.6488 114.285 80.3145 114.423 80.8437 114.7C81.3763 114.976 81.774 115.359 82.0369 115.847C82.2999 116.333 82.4313 116.894 82.4313 117.531C82.4313 118.165 82.2982 118.722 82.0319 119.204C81.769 119.683 81.3712 120.056 80.8387 120.322C80.3095 120.588 79.6438 120.721 78.8416 120.721H76.0456V119.376H78.7C79.2056 119.376 79.6168 119.304 79.9337 119.159C80.2539 119.014 80.4881 118.803 80.6364 118.527C80.7847 118.251 80.8589 117.919 80.8589 117.531C80.8589 117.14 80.7831 116.801 80.6314 116.515C80.4831 116.228 80.2488 116.009 79.9286 115.857C79.6118 115.702 79.1955 115.625 78.6798 115.625H76.718V124.64H75.1557ZM80.2673 119.968L82.8257 124.64H81.046L78.5382 119.968H80.2673ZM87.4608 124.796C86.6956 124.796 86.0367 124.633 85.4839 124.306C84.9345 123.976 84.5098 123.512 84.2098 122.916C83.9131 122.316 83.7648 121.613 83.7648 120.807C83.7648 120.012 83.9131 119.311 84.2098 118.704C84.5098 118.097 84.9277 117.624 85.4637 117.283C86.003 116.943 86.6333 116.773 87.3546 116.773C87.7928 116.773 88.2175 116.845 88.6287 116.99C89.0399 117.135 89.409 117.362 89.736 117.672C90.0629 117.983 90.3208 118.385 90.5095 118.881C90.6983 119.373 90.7927 119.971 90.7927 120.676V121.212H84.6193V120.079H89.3113C89.3113 119.681 89.2304 119.329 89.0686 119.022C88.9068 118.712 88.6793 118.468 88.386 118.289C88.0961 118.111 87.7557 118.021 87.3647 118.021C86.94 118.021 86.5692 118.126 86.2524 118.335C85.9389 118.54 85.6962 118.81 85.5243 119.144C85.3558 119.474 85.2715 119.833 85.2715 120.221V121.106C85.2715 121.625 85.3625 122.066 85.5446 122.43C85.7299 122.794 85.9878 123.072 86.3181 123.264C86.6484 123.453 87.0344 123.548 87.4759 123.548C87.7625 123.548 88.0237 123.507 88.2596 123.426C88.4956 123.342 88.6995 123.217 88.8714 123.052C89.0433 122.887 89.1748 122.683 89.2658 122.44L90.6966 122.698C90.582 123.119 90.3764 123.489 90.0798 123.805C89.7865 124.119 89.4174 124.363 88.9725 124.539C88.531 124.71 88.027 124.796 87.4608 124.796ZM95.7412 124.796C95.0132 124.796 94.3778 124.63 93.8351 124.296C93.2925 123.962 92.8711 123.495 92.5711 122.895C92.2711 122.295 92.1211 121.594 92.1211 120.792C92.1211 119.986 92.2711 119.282 92.5711 118.679C92.8711 118.075 93.2925 117.607 93.8351 117.273C94.3778 116.939 95.0132 116.773 95.7412 116.773C96.4693 116.773 97.1047 116.939 97.6474 117.273C98.19 117.607 98.6114 118.075 98.9114 118.679C99.2113 119.282 99.3613 119.986 99.3613 120.792C99.3613 121.594 99.2113 122.295 98.9114 122.895C98.6114 123.495 98.19 123.962 97.6474 124.296C97.1047 124.63 96.4693 124.796 95.7412 124.796ZM95.7463 123.527C96.2182 123.527 96.6092 123.403 96.9193 123.153C97.2294 122.904 97.4586 122.572 97.6069 122.157C97.7586 121.743 97.8344 121.286 97.8344 120.787C97.8344 120.291 97.7586 119.836 97.6069 119.422C97.4586 119.004 97.2294 118.669 96.9193 118.416C96.6092 118.163 96.2182 118.037 95.7463 118.037C95.271 118.037 94.8767 118.163 94.5632 118.416C94.2531 118.669 94.0222 119.004 93.8705 119.422C93.7222 119.836 93.6481 120.291 93.6481 120.787C93.6481 121.286 93.7222 121.743 93.8705 122.157C94.0222 122.572 94.2531 122.904 94.5632 123.153C94.8767 123.403 95.271 123.527 95.7463 123.527ZM104.32 124.796C103.568 124.796 102.921 124.626 102.379 124.286C101.839 123.942 101.425 123.468 101.135 122.865C100.845 122.262 100.7 121.571 100.7 120.792C100.7 120.003 100.848 119.307 101.145 118.704C101.441 118.097 101.859 117.624 102.399 117.283C102.938 116.943 103.573 116.773 104.305 116.773C104.895 116.773 105.421 116.882 105.882 117.101C106.344 117.317 106.717 117.62 107 118.011C107.286 118.402 107.456 118.859 107.51 119.381H106.039C105.958 119.017 105.773 118.704 105.483 118.441C105.196 118.178 104.812 118.047 104.33 118.047C103.909 118.047 103.54 118.158 103.223 118.38C102.909 118.599 102.665 118.913 102.49 119.321C102.314 119.725 102.227 120.204 102.227 120.757C102.227 121.323 102.313 121.812 102.485 122.223C102.657 122.634 102.899 122.953 103.213 123.178C103.53 123.404 103.902 123.517 104.33 123.517C104.617 123.517 104.876 123.465 105.109 123.36C105.345 123.253 105.542 123.099 105.7 122.9C105.862 122.702 105.975 122.462 106.039 122.182H107.51C107.456 122.685 107.293 123.133 107.02 123.527C106.747 123.922 106.381 124.232 105.923 124.458C105.468 124.683 104.933 124.796 104.32 124.796ZM112.398 124.796C111.647 124.796 110.999 124.626 110.457 124.286C109.917 123.942 109.503 123.468 109.213 122.865C108.923 122.262 108.778 121.571 108.778 120.792C108.778 120.003 108.926 119.307 109.223 118.704C109.52 118.097 109.938 117.624 110.477 117.283C111.016 116.943 111.652 116.773 112.383 116.773C112.973 116.773 113.499 116.882 113.961 117.101C114.422 117.317 114.795 117.62 115.078 118.011C115.364 118.402 115.535 118.859 115.589 119.381H114.117C114.036 119.017 113.851 118.704 113.561 118.441C113.275 118.178 112.89 118.047 112.408 118.047C111.987 118.047 111.618 118.158 111.301 118.38C110.988 118.599 110.743 118.913 110.568 119.321C110.393 119.725 110.305 120.204 110.305 120.757C110.305 121.323 110.391 121.812 110.563 122.223C110.735 122.634 110.978 122.953 111.291 123.178C111.608 123.404 111.98 123.517 112.408 123.517C112.695 123.517 112.954 123.465 113.187 123.36C113.423 123.253 113.62 123.099 113.779 122.9C113.94 122.702 114.053 122.462 114.117 122.182H115.589C115.535 122.685 115.371 123.133 115.098 123.527C114.825 123.922 114.459 124.232 114.001 124.458C113.546 124.683 113.012 124.796 112.398 124.796ZM122.125 121.419V116.874H123.642V124.64H122.155V123.295H122.074C121.896 123.709 121.609 124.055 121.215 124.331C120.824 124.604 120.337 124.741 119.753 124.741C119.255 124.741 118.813 124.631 118.429 124.412C118.048 124.19 117.748 123.861 117.529 123.426C117.313 122.991 117.205 122.454 117.205 121.813V116.874H118.717V121.631C118.717 122.161 118.864 122.582 119.157 122.895C119.45 123.209 119.831 123.366 120.3 123.366C120.583 123.366 120.864 123.295 121.144 123.153C121.427 123.012 121.661 122.798 121.847 122.511C122.035 122.225 122.128 121.861 122.125 121.419ZM125.673 124.64V116.874H127.134V118.107H127.215C127.356 117.689 127.606 117.361 127.963 117.121C128.324 116.879 128.732 116.757 129.187 116.757C129.281 116.757 129.392 116.761 129.52 116.767C129.652 116.774 129.755 116.783 129.829 116.793V118.239C129.768 118.222 129.66 118.203 129.505 118.183C129.35 118.16 129.195 118.148 129.04 118.148C128.683 118.148 128.364 118.224 128.084 118.375C127.808 118.524 127.589 118.731 127.427 118.997C127.265 119.26 127.185 119.56 127.185 119.897V124.64H125.673ZM131.137 124.64V116.874H132.598V118.107H132.679C132.821 117.689 133.07 117.361 133.427 117.121C133.788 116.879 134.196 116.757 134.651 116.757C134.745 116.757 134.857 116.761 134.985 116.767C135.116 116.774 135.219 116.783 135.293 116.793V118.239C135.232 118.222 135.125 118.203 134.97 118.183C134.814 118.16 134.659 118.148 134.504 118.148C134.147 118.148 133.829 118.224 133.549 118.375C133.272 118.524 133.053 118.731 132.891 118.997C132.73 119.26 132.649 119.56 132.649 119.897V124.64H131.137ZM136.601 124.64V116.874H138.113V124.64H136.601ZM137.365 115.675C137.102 115.675 136.876 115.588 136.687 115.412C136.502 115.234 136.409 115.021 136.409 114.775C136.409 114.526 136.502 114.314 136.687 114.138C136.876 113.96 137.102 113.87 137.365 113.87C137.628 113.87 137.852 113.96 138.037 114.138C138.226 114.314 138.32 114.526 138.32 114.775C138.32 115.021 138.226 115.234 138.037 115.412C137.852 115.588 137.628 115.675 137.365 115.675ZM141.659 120.029V124.64H140.147V116.874H141.598V118.138H141.694C141.873 117.726 142.152 117.396 142.533 117.147C142.918 116.897 143.401 116.773 143.984 116.773C144.514 116.773 144.977 116.884 145.375 117.106C145.773 117.325 146.081 117.652 146.3 118.087C146.519 118.522 146.629 119.06 146.629 119.7V124.64H145.117V119.882C145.117 119.319 144.97 118.879 144.677 118.562C144.384 118.242 143.981 118.082 143.469 118.082C143.118 118.082 142.806 118.158 142.533 118.31C142.264 118.461 142.05 118.684 141.891 118.977C141.736 119.267 141.659 119.617 141.659 120.029ZM151.912 127.714C151.295 127.714 150.764 127.633 150.32 127.471C149.878 127.309 149.517 127.095 149.238 126.829C148.958 126.563 148.749 126.271 148.611 125.954L149.91 125.418C150.001 125.567 150.122 125.723 150.274 125.888C150.429 126.057 150.638 126.2 150.901 126.318C151.167 126.436 151.509 126.495 151.927 126.495C152.5 126.495 152.974 126.355 153.348 126.076C153.722 125.799 153.909 125.358 153.909 124.751V123.224H153.813C153.722 123.389 153.591 123.573 153.419 123.775C153.25 123.977 153.018 124.153 152.721 124.301C152.425 124.449 152.039 124.523 151.563 124.523C150.95 124.523 150.397 124.38 149.905 124.094C149.416 123.804 149.029 123.377 148.742 122.814C148.459 122.248 148.317 121.552 148.317 120.726C148.317 119.9 148.457 119.193 148.737 118.603C149.02 118.013 149.408 117.561 149.9 117.248C150.392 116.931 150.95 116.773 151.573 116.773C152.055 116.773 152.445 116.853 152.741 117.015C153.038 117.174 153.269 117.359 153.434 117.571C153.603 117.784 153.732 117.971 153.823 118.133H153.935V116.874H155.416V124.812C155.416 125.479 155.261 126.027 154.951 126.455C154.641 126.883 154.221 127.2 153.692 127.405C153.166 127.611 152.573 127.714 151.912 127.714ZM151.897 123.269C152.332 123.269 152.699 123.168 152.999 122.966C153.303 122.761 153.532 122.467 153.687 122.086C153.845 121.702 153.924 121.242 153.924 120.706C153.924 120.184 153.847 119.724 153.692 119.326C153.537 118.928 153.309 118.618 153.009 118.395C152.709 118.17 152.339 118.057 151.897 118.057C151.442 118.057 151.063 118.175 150.759 118.411C150.456 118.643 150.227 118.96 150.072 119.361C149.92 119.762 149.844 120.211 149.844 120.706C149.844 121.215 149.922 121.662 150.077 122.046C150.232 122.43 150.461 122.73 150.764 122.946C151.071 123.162 151.449 123.269 151.897 123.269Z" fill="#175CD3"/>
</g>
<rect x="185.791" y="106.86" width="26.7971" height="25.5594" rx="12.7797" fill="white"/>
<rect x="185.791" y="106.86" width="26.7971" height="25.5594" rx="12.7797" stroke="#EAECF0" stroke-width="1.18648"/>
<path d="M199.19 124.781C198.556 124.781 197.986 124.66 197.481 124.417C196.979 124.171 196.578 123.834 196.278 123.406C195.978 122.978 195.817 122.489 195.797 121.94H197.314C197.351 122.385 197.548 122.75 197.906 123.037C198.263 123.323 198.691 123.467 199.19 123.467C199.588 123.467 199.94 123.376 200.247 123.194C200.557 123.008 200.799 122.754 200.975 122.43C201.153 122.107 201.243 121.738 201.243 121.323C201.243 120.902 201.152 120.526 200.97 120.195C200.787 119.865 200.536 119.606 200.216 119.417C199.899 119.228 199.535 119.132 199.124 119.129C198.811 119.129 198.495 119.183 198.179 119.29C197.862 119.398 197.606 119.54 197.41 119.715L195.979 119.503L196.561 114.285H202.254V115.625H197.86L197.531 118.522H197.592C197.794 118.326 198.062 118.163 198.396 118.031C198.733 117.9 199.094 117.834 199.478 117.834C200.108 117.834 200.67 117.984 201.162 118.284C201.657 118.584 202.046 118.994 202.33 119.513C202.616 120.029 202.758 120.622 202.754 121.293C202.758 121.963 202.606 122.562 202.299 123.087C201.996 123.613 201.575 124.028 201.035 124.331C200.499 124.631 199.884 124.781 199.19 124.781Z" fill="#344054"/>
<rect x="22.1108" y="154.098" width="22.543" height="22.543" rx="6.52561" fill="white"/>
<rect x="22.1108" y="154.098" width="22.543" height="22.543" rx="6.52561" stroke="#D0D5DD" stroke-width="1.18648"/>
<g style="mix-blend-mode:multiply">
<rect x="64.8237" y="152.59" width="83.7971" height="25.5594" rx="12.7797" fill="#ECFDF3"/>
<rect x="64.8237" y="152.59" width="83.7971" height="25.5594" rx="12.7797" stroke="#ABEFC6" stroke-width="1.18648"/>
<path d="M75.9215 170.369H74.2631L77.9894 160.014H79.7944L83.5207 170.369H81.8623L78.9349 161.895H78.854L75.9215 170.369ZM76.1996 166.314H81.5792V167.629H76.1996V166.314ZM88.0407 170.526C87.2891 170.526 86.6419 170.356 86.0992 170.015C85.5599 169.671 85.1453 169.198 84.8554 168.594C84.5656 167.991 84.4206 167.3 84.4206 166.522C84.4206 165.733 84.5689 165.037 84.8656 164.433C85.1622 163.827 85.5801 163.353 86.1194 163.013C86.6587 162.672 87.2941 162.502 88.0256 162.502C88.6154 162.502 89.1412 162.612 89.603 162.831C90.0648 163.046 90.4373 163.35 90.7204 163.741C91.0069 164.132 91.1771 164.588 91.2311 165.111H89.7598C89.6789 164.747 89.4935 164.433 89.2036 164.17C88.9171 163.908 88.5328 163.776 88.0508 163.776C87.6295 163.776 87.2604 163.887 86.9436 164.11C86.6301 164.329 86.3857 164.642 86.2105 165.05C86.0352 165.455 85.9475 165.933 85.9475 166.486C85.9475 167.052 86.0335 167.541 86.2054 167.952C86.3773 168.364 86.62 168.682 86.9335 168.908C87.2503 169.134 87.6228 169.247 88.0508 169.247C88.3373 169.247 88.5969 169.194 88.8295 169.09C89.0654 168.982 89.2626 168.829 89.421 168.63C89.5828 168.431 89.6957 168.192 89.7598 167.912H91.2311C91.1771 168.414 91.0137 168.862 90.7406 169.257C90.4676 169.651 90.1019 169.961 89.6435 170.187C89.1884 170.413 88.6542 170.526 88.0407 170.526ZM96.119 170.526C95.3673 170.526 94.7201 170.356 94.1774 170.015C93.6381 169.671 93.2235 169.198 92.9337 168.594C92.6438 167.991 92.4989 167.3 92.4989 166.522C92.4989 165.733 92.6472 165.037 92.9438 164.433C93.2404 163.827 93.6584 163.353 94.1977 163.013C94.737 162.672 95.3724 162.502 96.1038 162.502C96.6937 162.502 97.2195 162.612 97.6813 162.831C98.143 163.046 98.5155 163.35 98.7986 163.741C99.0851 164.132 99.2554 164.588 99.3093 165.111H97.838C97.7571 164.747 97.5717 164.433 97.2818 164.17C96.9953 163.908 96.6111 163.776 96.1291 163.776C95.7077 163.776 95.3386 163.887 95.0218 164.11C94.7083 164.329 94.464 164.642 94.2887 165.05C94.1134 165.455 94.0258 165.933 94.0258 166.486C94.0258 167.052 94.1117 167.541 94.2836 167.952C94.4555 168.364 94.6982 168.682 95.0117 168.908C95.3285 169.134 95.701 169.247 96.1291 169.247C96.4156 169.247 96.6751 169.194 96.9077 169.09C97.1436 168.982 97.3408 168.829 97.4992 168.63C97.661 168.431 97.774 168.192 97.838 167.912H99.3093C99.2554 168.414 99.0919 168.862 98.8189 169.257C98.5458 169.651 98.1801 169.961 97.7217 170.187C97.2667 170.413 96.7324 170.526 96.119 170.526ZM104.273 170.526C103.508 170.526 102.849 170.362 102.296 170.035C101.747 169.705 101.322 169.242 101.022 168.645C100.725 168.045 100.577 167.342 100.577 166.537C100.577 165.741 100.725 165.04 101.022 164.433C101.322 163.827 101.74 163.353 102.276 163.013C102.815 162.672 103.446 162.502 104.167 162.502C104.605 162.502 105.03 162.574 105.441 162.719C105.852 162.864 106.221 163.092 106.548 163.402C106.875 163.712 107.133 164.115 107.322 164.61C107.511 165.102 107.605 165.701 107.605 166.405V166.941H101.432V165.809H106.124C106.124 165.411 106.043 165.059 105.881 164.752C105.719 164.442 105.492 164.197 105.198 164.019C104.908 163.84 104.568 163.751 104.177 163.751C103.752 163.751 103.381 163.855 103.065 164.064C102.751 164.27 102.508 164.54 102.337 164.873C102.168 165.204 102.084 165.563 102.084 165.95V166.835C102.084 167.354 102.175 167.796 102.357 168.16C102.542 168.524 102.8 168.802 103.13 168.994C103.461 169.183 103.847 169.277 104.288 169.277C104.575 169.277 104.836 169.237 105.072 169.156C105.308 169.071 105.512 168.947 105.684 168.782C105.856 168.616 105.987 168.412 106.078 168.17L107.509 168.428C107.394 168.849 107.189 169.218 106.892 169.535C106.599 169.848 106.23 170.093 105.785 170.268C105.343 170.44 104.839 170.526 104.273 170.526ZM109.282 173.281V162.603H110.759V163.862H110.885C110.973 163.7 111.099 163.513 111.264 163.301C111.429 163.088 111.659 162.903 111.952 162.745C112.245 162.583 112.633 162.502 113.115 162.502C113.742 162.502 114.301 162.66 114.793 162.977C115.285 163.294 115.671 163.751 115.951 164.347C116.234 164.944 116.376 165.662 116.376 166.501C116.376 167.341 116.236 168.06 115.956 168.66C115.676 169.257 115.292 169.717 114.803 170.041C114.315 170.361 113.757 170.521 113.13 170.521C112.658 170.521 112.272 170.442 111.972 170.283C111.675 170.125 111.443 169.939 111.274 169.727C111.106 169.515 110.976 169.326 110.885 169.161H110.794V173.281H109.282ZM110.764 166.486C110.764 167.032 110.843 167.511 111.001 167.922C111.16 168.333 111.389 168.655 111.689 168.888C111.989 169.117 112.356 169.232 112.791 169.232C113.243 169.232 113.62 169.112 113.924 168.873C114.227 168.63 114.456 168.301 114.611 167.887C114.77 167.472 114.849 167.005 114.849 166.486C114.849 165.974 114.771 165.514 114.616 165.106C114.465 164.698 114.235 164.376 113.929 164.14C113.625 163.904 113.246 163.786 112.791 163.786C112.353 163.786 111.982 163.899 111.679 164.125C111.379 164.351 111.151 164.666 110.996 165.07C110.841 165.475 110.764 165.947 110.764 166.486ZM121.695 162.603V163.817H117.453V162.603H121.695ZM118.59 160.743H120.102V168.089C120.102 168.382 120.146 168.603 120.234 168.751C120.321 168.896 120.434 168.996 120.572 169.05C120.714 169.1 120.867 169.125 121.032 169.125C121.154 169.125 121.26 169.117 121.351 169.1C121.442 169.083 121.513 169.07 121.563 169.06L121.836 170.308C121.749 170.342 121.624 170.376 121.462 170.41C121.3 170.447 121.098 170.467 120.855 170.47C120.458 170.477 120.087 170.406 119.743 170.258C119.399 170.11 119.121 169.88 118.909 169.57C118.697 169.26 118.59 168.871 118.59 168.402V160.743ZM126.631 170.526C125.866 170.526 125.207 170.362 124.654 170.035C124.104 169.705 123.68 169.242 123.38 168.645C123.083 168.045 122.935 167.342 122.935 166.537C122.935 165.741 123.083 165.04 123.38 164.433C123.68 163.827 124.098 163.353 124.634 163.013C125.173 162.672 125.803 162.502 126.524 162.502C126.963 162.502 127.387 162.574 127.799 162.719C128.21 162.864 128.579 163.092 128.906 163.402C129.233 163.712 129.491 164.115 129.679 164.61C129.868 165.102 129.963 165.701 129.963 166.405V166.941H123.789V165.809H128.481C128.481 165.411 128.4 165.059 128.238 164.752C128.077 164.442 127.849 164.197 127.556 164.019C127.266 163.84 126.926 163.751 126.535 163.751C126.11 163.751 125.739 163.855 125.422 164.064C125.109 164.27 124.866 164.54 124.694 164.873C124.526 165.204 124.441 165.563 124.441 165.95V166.835C124.441 167.354 124.532 167.796 124.714 168.16C124.9 168.524 125.158 168.802 125.488 168.994C125.818 169.183 126.204 169.277 126.646 169.277C126.932 169.277 127.194 169.237 127.43 169.156C127.665 169.071 127.869 168.947 128.041 168.782C128.213 168.616 128.345 168.412 128.436 168.17L129.867 168.428C129.752 168.849 129.546 169.218 129.25 169.535C128.956 169.848 128.587 170.093 128.142 170.268C127.701 170.44 127.197 170.526 126.631 170.526ZM134.547 170.521C133.92 170.521 133.361 170.361 132.869 170.041C132.38 169.717 131.996 169.257 131.716 168.66C131.439 168.06 131.301 167.341 131.301 166.501C131.301 165.662 131.441 164.944 131.721 164.347C132.004 163.751 132.392 163.294 132.884 162.977C133.376 162.66 133.934 162.502 134.557 162.502C135.039 162.502 135.427 162.583 135.72 162.745C136.017 162.903 136.246 163.088 136.408 163.301C136.573 163.513 136.701 163.7 136.792 163.862H136.883V160.014H138.395V170.369H136.918V169.161H136.792C136.701 169.326 136.57 169.515 136.398 169.727C136.229 169.939 135.996 170.125 135.7 170.283C135.403 170.442 135.019 170.521 134.547 170.521ZM134.881 169.232C135.316 169.232 135.683 169.117 135.983 168.888C136.286 168.655 136.516 168.333 136.671 167.922C136.829 167.511 136.908 167.032 136.908 166.486C136.908 165.947 136.831 165.475 136.676 165.07C136.521 164.666 136.293 164.351 135.993 164.125C135.693 163.899 135.322 163.786 134.881 163.786C134.426 163.786 134.047 163.904 133.743 164.14C133.44 164.376 133.211 164.698 133.056 165.106C132.904 165.514 132.828 165.974 132.828 166.486C132.828 167.005 132.906 167.472 133.061 167.887C133.216 168.301 133.445 168.63 133.748 168.873C134.055 169.112 134.433 169.232 134.881 169.232Z" fill="#067647"/>
</g>
<rect x="168.791" y="152.59" width="27.7971" height="25.5594" rx="12.7797" fill="white"/>
<rect x="168.791" y="152.59" width="27.7971" height="25.5594" rx="12.7797" stroke="#EAECF0" stroke-width="1.18648"/>
<path d="M178.811 168.347V167.083L183.286 160.015H184.282V161.876H183.65L180.449 166.942V167.023H186.582V168.347H178.811ZM183.721 170.37V167.963L183.731 167.387V160.015H185.212V170.37H183.721Z" fill="#344054"/>
<rect x="22.1108" y="199.828" width="22.543" height="22.543" rx="6.52561" fill="white"/>
<rect x="22.1108" y="199.828" width="22.543" height="22.543" rx="6.52561" stroke="#D0D5DD" stroke-width="1.18648"/>
<g style="mix-blend-mode:multiply">
<rect x="64.8237" y="198.319" width="60.7971" height="25.5594" rx="12.7797" fill="#F9FAFB"/>
<rect x="64.8237" y="198.319" width="60.7971" height="25.5594" rx="12.7797" stroke="#E9D7FE" stroke-width="1.18648"/>
<path d="M80.978 208.465C80.9241 207.986 80.7016 207.615 80.3106 207.352C79.9196 207.086 79.4275 206.953 78.8343 206.953C78.4095 206.953 78.0421 207.02 77.732 207.155C77.4219 207.287 77.1809 207.469 77.009 207.701C76.8405 207.93 76.7562 208.192 76.7562 208.485C76.7562 208.731 76.8135 208.943 76.9281 209.122C77.0461 209.3 77.1995 209.45 77.3882 209.572C77.5804 209.69 77.786 209.789 78.0051 209.87C78.2242 209.948 78.4348 210.012 78.6371 210.062L79.6483 210.325C79.9786 210.406 80.3173 210.516 80.6645 210.654C81.0117 210.792 81.3336 210.974 81.6302 211.2C81.9268 211.426 82.1662 211.705 82.3482 212.039C82.5336 212.373 82.6263 212.772 82.6263 213.237C82.6263 213.824 82.4746 214.345 82.1712 214.8C81.8712 215.255 81.4347 215.614 80.8617 215.877C80.2921 216.14 79.6028 216.271 78.7938 216.271C78.0186 216.271 77.3478 216.148 76.7815 215.902C76.2152 215.656 75.772 215.307 75.4518 214.855C75.1316 214.4 74.9546 213.861 74.9209 213.237H76.4883C76.5186 213.612 76.6399 213.923 76.8523 214.173C77.068 214.419 77.3427 214.603 77.6764 214.724C78.0135 214.842 78.3826 214.901 78.7837 214.901C79.2253 214.901 79.6179 214.832 79.9617 214.694C80.3089 214.552 80.5819 214.356 80.7808 214.107C80.9797 213.854 81.0791 213.559 81.0791 213.222C81.0791 212.916 80.9915 212.664 80.8162 212.469C80.6443 212.273 80.41 212.112 80.1134 211.984C79.8202 211.855 79.4882 211.743 79.1174 211.645L77.8938 211.311C77.0647 211.085 76.4074 210.753 75.922 210.315C75.44 209.877 75.199 209.297 75.199 208.576C75.199 207.979 75.3608 207.458 75.6844 207.013C76.0079 206.569 76.4461 206.223 76.9989 205.977C77.5517 205.728 78.1753 205.603 78.8696 205.603C79.5707 205.603 80.1893 205.726 80.7252 205.972C81.2645 206.218 81.6892 206.557 81.9993 206.988C82.3094 207.416 82.4712 207.908 82.4847 208.465H80.978ZM86.6319 216.271C86.1398 216.271 85.6948 216.18 85.2971 215.998C84.8994 215.813 84.5842 215.545 84.3516 215.194C84.1224 214.844 84.0078 214.414 84.0078 213.905C84.0078 213.467 84.0921 213.106 84.2606 212.823C84.4291 212.54 84.6567 212.316 84.9432 212.15C85.2297 211.985 85.5499 211.861 85.9038 211.776C86.2577 211.692 86.6184 211.628 86.9858 211.584C87.4509 211.53 87.8285 211.486 88.1183 211.453C88.4082 211.416 88.6189 211.357 88.7503 211.276C88.8818 211.195 88.9475 211.063 88.9475 210.881V210.846C88.9475 210.404 88.8228 210.062 88.5734 209.82C88.3273 209.577 87.9599 209.456 87.4712 209.456C86.9622 209.456 86.5611 209.568 86.2678 209.794C85.978 210.017 85.7774 210.264 85.6662 210.538L84.2454 210.214C84.414 209.742 84.66 209.361 84.9836 209.071C85.3106 208.778 85.6864 208.566 86.1111 208.434C86.5358 208.299 86.9824 208.232 87.4509 208.232C87.761 208.232 88.0897 208.269 88.4369 208.343C88.7874 208.414 89.1144 208.545 89.4177 208.738C89.7245 208.93 89.9756 209.204 90.1711 209.562C90.3666 209.916 90.4643 210.376 90.4643 210.942V216.099H88.988V215.037H88.9273C88.8296 215.233 88.6829 215.425 88.4874 215.614C88.2919 215.803 88.0408 215.959 87.7341 216.084C87.4274 216.209 87.0599 216.271 86.6319 216.271ZM86.9605 215.058C87.3785 215.058 87.7358 214.975 88.0324 214.81C88.3324 214.645 88.5599 214.429 88.7149 214.163C88.8734 213.893 88.9526 213.605 88.9526 213.298V212.297C88.8986 212.351 88.7942 212.401 88.6391 212.449C88.4874 212.493 88.3138 212.531 88.1183 212.565C87.9228 212.595 87.7324 212.624 87.547 212.651C87.3616 212.675 87.2066 212.695 87.0819 212.712C86.7886 212.749 86.5206 212.811 86.278 212.899C86.0386 212.986 85.8465 213.113 85.7016 213.278C85.56 213.44 85.4892 213.655 85.4892 213.925C85.4892 214.299 85.6274 214.582 85.9038 214.774C86.1802 214.963 86.5324 215.058 86.9605 215.058ZM98.8434 208.333L96.0272 216.099H94.4093L91.588 208.333H93.211L95.1778 214.309H95.2587L97.2204 208.333H98.8434ZM103.347 216.256C102.582 216.256 101.923 216.092 101.37 215.765C100.821 215.435 100.396 214.972 100.096 214.375C99.7994 213.775 99.6511 213.072 99.6511 212.267C99.6511 211.471 99.7994 210.77 100.096 210.163C100.396 209.557 100.814 209.083 101.35 208.743C101.889 208.402 102.52 208.232 103.241 208.232C103.679 208.232 104.104 208.304 104.515 208.449C104.926 208.594 105.295 208.822 105.622 209.132C105.949 209.442 106.207 209.845 106.396 210.34C106.585 210.832 106.679 211.431 106.679 212.135V212.671H100.506V211.539H105.198C105.198 211.141 105.117 210.789 104.955 210.482C104.793 210.172 104.566 209.927 104.272 209.749C103.982 209.57 103.642 209.481 103.251 209.481C102.826 209.481 102.455 209.585 102.139 209.794C101.825 210 101.582 210.27 101.411 210.603C101.242 210.934 101.158 211.293 101.158 211.68V212.565C101.158 213.084 101.249 213.526 101.431 213.89C101.616 214.254 101.874 214.532 102.204 214.724C102.535 214.913 102.921 215.007 103.362 215.007C103.649 215.007 103.91 214.967 104.146 214.886C104.382 214.801 104.586 214.677 104.758 214.512C104.93 214.346 105.061 214.142 105.152 213.9L106.583 214.158C106.468 214.579 106.263 214.948 105.966 215.265C105.673 215.578 105.304 215.823 104.859 215.998C104.417 216.17 103.913 216.256 103.347 216.256ZM111.263 216.251C110.637 216.251 110.077 216.091 109.585 215.77C109.096 215.447 108.712 214.987 108.432 214.39C108.156 213.79 108.018 213.071 108.018 212.231C108.018 211.392 108.157 210.674 108.437 210.077C108.72 209.481 109.108 209.024 109.6 208.707C110.092 208.39 110.65 208.232 111.274 208.232C111.756 208.232 112.143 208.313 112.436 208.475C112.733 208.633 112.962 208.818 113.124 209.031C113.289 209.243 113.417 209.43 113.508 209.592H113.599V205.744H115.111V216.099H113.635V214.891H113.508C113.417 215.056 113.286 215.245 113.114 215.457C112.945 215.669 112.713 215.855 112.416 216.013C112.12 216.172 111.735 216.251 111.263 216.251ZM111.597 214.962C112.032 214.962 112.399 214.847 112.699 214.618C113.003 214.385 113.232 214.063 113.387 213.652C113.545 213.241 113.625 212.762 113.625 212.216C113.625 211.677 113.547 211.205 113.392 210.8C113.237 210.396 113.009 210.081 112.709 209.855C112.409 209.629 112.039 209.516 111.597 209.516C111.142 209.516 110.763 209.634 110.46 209.87C110.156 210.106 109.927 210.428 109.772 210.836C109.62 211.244 109.544 211.704 109.544 212.216C109.544 212.735 109.622 213.202 109.777 213.617C109.932 214.031 110.161 214.36 110.465 214.603C110.771 214.842 111.149 214.962 111.597 214.962Z" fill="#6941C6"/>
</g>
<rect x="145.791" y="198.319" width="26.7971" height="25.5594" rx="12.7797" fill="white"/>
<rect x="145.791" y="198.319" width="26.7971" height="25.5594" rx="12.7797" stroke="#EAECF0" stroke-width="1.18648"/>
<path d="M159.187 216.241C158.463 216.241 157.822 216.116 157.266 215.867C156.713 215.617 156.28 215.273 155.967 214.835C155.653 214.397 155.498 213.898 155.501 213.339C155.498 212.9 155.587 212.498 155.769 212.13C155.955 211.759 156.206 211.451 156.523 211.205C156.84 210.955 157.194 210.797 157.585 210.73V210.669C157.069 210.544 156.656 210.268 156.346 209.84C156.036 209.412 155.882 208.92 155.886 208.363C155.882 207.834 156.022 207.362 156.305 206.948C156.592 206.53 156.985 206.201 157.483 205.962C157.982 205.723 158.55 205.603 159.187 205.603C159.818 205.603 160.38 205.724 160.876 205.967C161.375 206.206 161.768 206.535 162.054 206.953C162.341 207.367 162.485 207.838 162.489 208.363C162.485 208.92 162.327 209.412 162.014 209.84C161.7 210.268 161.292 210.544 160.79 210.669V210.73C161.178 210.797 161.527 210.955 161.837 211.205C162.15 211.451 162.4 211.759 162.585 212.13C162.774 212.498 162.87 212.9 162.873 213.339C162.87 213.898 162.711 214.397 162.398 214.835C162.084 215.273 161.65 215.617 161.093 215.867C160.541 216.116 159.905 216.241 159.187 216.241ZM159.187 214.962C159.615 214.962 159.986 214.891 160.3 214.749C160.613 214.604 160.856 214.404 161.028 214.148C161.2 213.888 161.287 213.585 161.291 213.237C161.287 212.877 161.193 212.558 161.007 212.282C160.825 212.005 160.578 211.788 160.264 211.63C159.951 211.471 159.592 211.392 159.187 211.392C158.779 211.392 158.417 211.471 158.1 211.63C157.783 211.788 157.534 212.005 157.352 212.282C157.17 212.558 157.081 212.877 157.084 213.237C157.081 213.585 157.163 213.888 157.332 214.148C157.504 214.404 157.748 214.604 158.065 214.749C158.382 214.891 158.756 214.962 159.187 214.962ZM159.187 210.143C159.531 210.143 159.836 210.074 160.102 209.936C160.369 209.798 160.578 209.606 160.729 209.359C160.884 209.113 160.964 208.825 160.967 208.495C160.964 208.171 160.886 207.888 160.734 207.645C160.586 207.403 160.379 207.216 160.113 207.084C159.846 206.949 159.538 206.882 159.187 206.882C158.83 206.882 158.517 206.949 158.247 207.084C157.981 207.216 157.773 207.403 157.625 207.645C157.477 207.888 157.404 208.171 157.408 208.495C157.404 208.825 157.478 209.113 157.63 209.359C157.782 209.606 157.991 209.798 158.257 209.936C158.527 210.074 158.837 210.143 159.187 210.143Z" fill="#344054"/>
<rect x="22.1108" y="245.557" width="22.543" height="22.543" rx="6.52561" fill="white"/>
<rect x="22.1108" y="245.557" width="22.543" height="22.543" rx="6.52561" stroke="#D0D5DD" stroke-width="1.18648"/>
<g style="mix-blend-mode:multiply">
<rect x="64.8237" y="244.049" width="78.7971" height="25.5594" rx="12.7797" fill="#FFFAEB"/>
<rect x="64.8237" y="244.049" width="78.7971" height="25.5594" rx="12.7797" stroke="#FEDF89" stroke-width="1.18648"/>
<path d="M75.0148 261.829V251.474H78.7056C79.5079 251.474 80.1736 251.612 80.7028 251.889C81.2353 252.165 81.6331 252.547 81.896 253.036C82.1589 253.522 82.2903 254.083 82.2903 254.72C82.2903 255.354 82.1572 255.911 81.8909 256.393C81.628 256.872 81.2303 257.245 80.6977 257.511C80.1685 257.777 79.5028 257.91 78.7006 257.91H75.9046V256.565H78.559C79.0646 256.565 79.4758 256.493 79.7927 256.348C80.1129 256.203 80.3472 255.992 80.4955 255.716C80.6438 255.44 80.7179 255.107 80.7179 254.72C80.7179 254.329 80.6421 253.99 80.4904 253.704C80.3421 253.417 80.1078 253.198 79.7876 253.046C79.4708 252.891 79.0545 252.814 78.5388 252.814H76.5771V261.829H75.0148ZM80.1264 257.157L82.6847 261.829H80.905L78.3972 257.157H80.1264ZM87.3198 261.985C86.5547 261.985 85.8957 261.822 85.3429 261.495C84.7935 261.165 84.3688 260.701 84.0688 260.105C83.7722 259.505 83.6239 258.802 83.6239 257.996C83.6239 257.201 83.7722 256.5 84.0688 255.893C84.3688 255.286 84.7867 254.813 85.3227 254.472C85.862 254.132 86.4923 253.961 87.2136 253.961C87.6518 253.961 88.0765 254.034 88.4877 254.179C88.899 254.324 89.2681 254.551 89.595 254.861C89.922 255.172 90.1798 255.574 90.3686 256.07C90.5573 256.562 90.6517 257.16 90.6517 257.865V258.401H84.4783V257.268H89.1703C89.1703 256.87 89.0894 256.518 88.9276 256.211C88.7658 255.901 88.5383 255.657 88.2451 255.478C87.9552 255.3 87.6147 255.21 87.2237 255.21C86.799 255.21 86.4283 255.315 86.1114 255.524C85.7979 255.729 85.5553 255.999 85.3834 256.333C85.2148 256.663 85.1306 257.022 85.1306 257.41V258.294C85.1306 258.814 85.2216 259.255 85.4036 259.619C85.589 259.983 85.8468 260.261 86.1771 260.453C86.5075 260.642 86.8934 260.737 87.335 260.737C87.6215 260.737 87.8827 260.696 88.1187 260.615C88.3546 260.531 88.5585 260.406 88.7304 260.241C88.9023 260.076 89.0338 259.872 89.1248 259.629L90.5556 259.887C90.441 260.308 90.2354 260.678 89.9388 260.994C89.6456 261.308 89.2765 261.552 88.8315 261.727C88.39 261.899 87.8861 261.985 87.3198 261.985ZM97.5721 264.741V260.62H97.4811C97.3901 260.785 97.2586 260.974 97.0867 261.187C96.9182 261.399 96.6856 261.584 96.389 261.743C96.0924 261.901 95.7081 261.98 95.2362 261.98C94.6093 261.98 94.0498 261.82 93.5576 261.5C93.0689 261.176 92.6846 260.716 92.4049 260.12C92.1285 259.52 91.9903 258.8 91.9903 257.961C91.9903 257.121 92.1302 256.404 92.4099 255.807C92.6931 255.21 93.0807 254.754 93.5728 254.437C94.0649 254.12 94.6228 253.961 95.2464 253.961C95.7284 253.961 96.116 254.042 96.4092 254.204C96.7059 254.363 96.9351 254.548 97.0969 254.76C97.262 254.973 97.3901 255.16 97.4811 255.322H97.6075V254.063H99.0839V264.741H97.5721ZM95.5699 260.691C96.0048 260.691 96.3722 260.576 96.6721 260.347C96.9755 260.115 97.2047 259.793 97.3598 259.382C97.5182 258.97 97.5974 258.492 97.5974 257.946C97.5974 257.406 97.5199 256.934 97.3648 256.53C97.2098 256.125 96.9822 255.81 96.6823 255.584C96.3823 255.359 96.0115 255.246 95.5699 255.246C95.1149 255.246 94.7357 255.364 94.4323 255.6C94.129 255.836 93.8998 256.157 93.7447 256.565C93.593 256.973 93.5172 257.433 93.5172 257.946C93.5172 258.465 93.5947 258.932 93.7498 259.346C93.9048 259.761 94.134 260.089 94.4374 260.332C94.7441 260.571 95.1216 260.691 95.5699 260.691ZM106.036 258.608V254.063H107.553V261.829H106.066V260.484H105.985C105.807 260.898 105.52 261.244 105.126 261.52C104.735 261.793 104.248 261.93 103.665 261.93C103.166 261.93 102.724 261.82 102.34 261.601C101.959 261.379 101.659 261.05 101.44 260.615C101.224 260.18 101.116 259.643 101.116 259.002V254.063H102.628V258.82C102.628 259.349 102.775 259.771 103.068 260.084C103.361 260.398 103.742 260.555 104.211 260.555C104.494 260.555 104.775 260.484 105.055 260.342C105.338 260.201 105.572 259.987 105.758 259.7C105.947 259.414 106.039 259.049 106.036 258.608ZM109.584 261.829V254.063H111.096V261.829H109.584ZM110.347 252.864C110.084 252.864 109.859 252.777 109.67 252.601C109.484 252.423 109.392 252.21 109.392 251.964C109.392 251.715 109.484 251.503 109.67 251.327C109.859 251.149 110.084 251.059 110.347 251.059C110.61 251.059 110.834 251.149 111.02 251.327C111.209 251.503 111.303 251.715 111.303 251.964C111.303 252.21 111.209 252.423 111.02 252.601C110.834 252.777 110.61 252.864 110.347 252.864ZM113.129 261.829V254.063H114.591V255.296H114.672C114.813 254.878 115.063 254.55 115.42 254.31C115.78 254.068 116.188 253.946 116.643 253.946C116.738 253.946 116.849 253.95 116.977 253.956C117.109 253.963 117.211 253.972 117.285 253.982V255.428C117.225 255.411 117.117 255.392 116.962 255.372C116.807 255.349 116.652 255.337 116.497 255.337C116.139 255.337 115.821 255.413 115.541 255.564C115.265 255.713 115.046 255.92 114.884 256.186C114.722 256.449 114.641 256.749 114.641 257.086V261.829H113.129ZM121.663 261.985C120.898 261.985 120.239 261.822 119.686 261.495C119.136 261.165 118.712 260.701 118.412 260.105C118.115 259.505 117.967 258.802 117.967 257.996C117.967 257.201 118.115 256.5 118.412 255.893C118.712 255.286 119.13 254.813 119.666 254.472C120.205 254.132 120.835 253.961 121.557 253.961C121.995 253.961 122.419 254.034 122.831 254.179C123.242 254.324 123.611 254.551 123.938 254.861C124.265 255.172 124.523 255.574 124.711 256.07C124.9 256.562 124.995 257.16 124.995 257.865V258.401H118.821V257.268H123.513C123.513 256.87 123.432 256.518 123.271 256.211C123.109 255.901 122.881 255.657 122.588 255.478C122.298 255.3 121.958 255.21 121.567 255.21C121.142 255.21 120.771 255.315 120.454 255.524C120.141 255.729 119.898 255.999 119.726 256.333C119.558 256.663 119.473 257.022 119.473 257.41V258.294C119.473 258.814 119.564 259.255 119.746 259.619C119.932 259.983 120.19 260.261 120.52 260.453C120.85 260.642 121.236 260.737 121.678 260.737C121.964 260.737 122.226 260.696 122.462 260.615C122.698 260.531 122.901 260.406 123.073 260.241C123.245 260.076 123.377 259.872 123.468 259.629L124.899 259.887C124.784 260.308 124.578 260.678 124.282 260.994C123.988 261.308 123.619 261.552 123.174 261.727C122.733 261.899 122.229 261.985 121.663 261.985ZM129.579 261.98C128.952 261.98 128.393 261.82 127.901 261.5C127.412 261.176 127.028 260.716 126.748 260.12C126.471 259.52 126.333 258.8 126.333 257.961C126.333 257.121 126.473 256.404 126.753 255.807C127.036 255.21 127.424 254.754 127.916 254.437C128.408 254.12 128.966 253.961 129.589 253.961C130.071 253.961 130.459 254.042 130.752 254.204C131.049 254.363 131.278 254.548 131.44 254.76C131.605 254.973 131.733 255.16 131.824 255.322H131.915V251.474H133.427V261.829H131.95V260.62H131.824C131.733 260.785 131.602 260.974 131.43 261.187C131.261 261.399 131.029 261.584 130.732 261.743C130.435 261.901 130.051 261.98 129.579 261.98ZM129.913 260.691C130.348 260.691 130.715 260.576 131.015 260.347C131.318 260.115 131.548 259.793 131.703 259.382C131.861 258.97 131.94 258.492 131.94 257.946C131.94 257.406 131.863 256.934 131.708 256.53C131.553 256.125 131.325 255.81 131.025 255.584C130.725 255.359 130.354 255.246 129.913 255.246C129.458 255.246 129.079 255.364 128.775 255.6C128.472 255.836 128.243 256.157 128.088 256.565C127.936 256.973 127.86 257.433 127.86 257.946C127.86 258.465 127.938 258.932 128.093 259.346C128.248 259.761 128.477 260.089 128.78 260.332C129.087 260.571 129.465 260.691 129.913 260.691Z" fill="#B54708"/>
</g>
<rect x="163.791" y="244.049" width="26.7971" height="25.5594" rx="12.7797" fill="white"/>
<rect x="163.791" y="244.049" width="26.7971" height="25.5594" rx="12.7797" stroke="#EAECF0" stroke-width="1.18648"/>
<path d="M173.82 261.829V260.696L177.323 257.066C177.698 256.671 178.006 256.326 178.249 256.029C178.495 255.729 178.678 255.445 178.8 255.175C178.921 254.905 178.982 254.619 178.982 254.315C178.982 253.972 178.901 253.675 178.739 253.426C178.577 253.173 178.357 252.979 178.077 252.844C177.797 252.706 177.482 252.637 177.131 252.637C176.761 252.637 176.437 252.713 176.161 252.864C175.884 253.016 175.672 253.23 175.523 253.506C175.375 253.783 175.301 254.106 175.301 254.477H173.81C173.81 253.847 173.954 253.296 174.244 252.824C174.534 252.352 174.932 251.986 175.438 251.727C175.943 251.464 176.518 251.332 177.162 251.332C177.812 251.332 178.385 251.462 178.881 251.722C179.38 251.978 179.769 252.328 180.049 252.773C180.328 253.215 180.468 253.714 180.468 254.27C180.468 254.654 180.396 255.03 180.251 255.397C180.109 255.765 179.862 256.174 179.508 256.626C179.154 257.074 178.662 257.619 178.031 258.259L175.973 260.413V260.489H180.635V261.829H173.82Z" fill="#344054"/>
<rect x="22.1108" y="291.286" width="22.543" height="22.543" rx="6.52561" fill="white"/>
<rect x="22.1108" y="291.286" width="22.543" height="22.543" rx="6.52561" stroke="#D0D5DD" stroke-width="1.18648"/>
<g style="mix-blend-mode:multiply">
<rect x="64.8237" y="289.778" width="77.7971" height="25.5594" rx="12.7797" fill="#FEF3F2"/>
<rect x="64.8237" y="289.778" width="77.7971" height="25.5594" rx="12.7797" stroke="#FECDCA" stroke-width="1.18648"/>
<path d="M78.423 307.558H75.0709V297.203H78.5292C79.5438 297.203 80.4151 297.41 81.1432 297.825C81.8712 298.236 82.4291 298.828 82.8167 299.599C83.2077 300.368 83.4032 301.29 83.4032 302.365C83.4032 303.444 83.206 304.371 82.8117 305.146C82.4207 305.921 81.8544 306.518 81.1128 306.936C80.3713 307.35 79.4747 307.558 78.423 307.558ZM76.6332 306.192H78.3371C79.1258 306.192 79.7814 306.044 80.3039 305.748C80.8263 305.448 81.2173 305.014 81.4769 304.448C81.7364 303.879 81.8662 303.184 81.8662 302.365C81.8662 301.553 81.7364 300.863 81.4769 300.297C81.2207 299.731 80.8381 299.301 80.3292 299.008C79.8202 298.715 79.1882 298.568 78.4332 298.568H76.6332V306.192ZM88.5717 307.714C87.8066 307.714 87.1476 307.551 86.5948 307.224C86.0454 306.894 85.6207 306.43 85.3207 305.834C85.0241 305.234 84.8758 304.531 84.8758 303.725C84.8758 302.93 85.0241 302.229 85.3207 301.622C85.6207 301.015 86.0387 300.542 86.5746 300.201C87.1139 299.861 87.7442 299.69 88.4655 299.69C88.9037 299.69 89.3284 299.763 89.7396 299.908C90.1509 300.053 90.52 300.28 90.8469 300.59C91.1739 300.901 91.4317 301.303 91.6205 301.799C91.8092 302.291 91.9036 302.889 91.9036 303.594V304.13H85.7302V302.997H90.4222C90.4222 302.599 90.3413 302.247 90.1795 301.94C90.0177 301.63 89.7902 301.386 89.497 301.207C89.2071 301.029 88.8666 300.939 88.4756 300.939C88.0509 300.939 87.6802 301.044 87.3633 301.253C87.0499 301.458 86.8072 301.728 86.6353 302.062C86.4667 302.392 86.3825 302.751 86.3825 303.139V304.023C86.3825 304.543 86.4735 304.984 86.6555 305.348C86.8409 305.712 87.0987 305.99 87.4291 306.182C87.7594 306.371 88.1453 306.466 88.5869 306.466C88.8734 306.466 89.1346 306.425 89.3706 306.344C89.6065 306.26 89.8104 306.135 89.9823 305.97C90.1542 305.805 90.2857 305.601 90.3767 305.358L91.8076 305.616C91.693 306.037 91.4873 306.407 91.1907 306.723C90.8975 307.037 90.5284 307.281 90.0835 307.456C89.6419 307.628 89.138 307.714 88.5717 307.714ZM96.8522 307.714C96.1005 307.714 95.4534 307.544 94.9107 307.204C94.3714 306.86 93.9568 306.386 93.6669 305.783C93.377 305.18 93.2321 304.489 93.2321 303.71C93.2321 302.921 93.3804 302.225 93.677 301.622C93.9736 301.015 94.3916 300.542 94.9309 300.201C95.4702 299.861 96.1056 299.69 96.837 299.69C97.4269 299.69 97.9527 299.8 98.4145 300.019C98.8763 300.235 99.2487 300.538 99.5319 300.929C99.8184 301.32 99.9886 301.777 100.043 302.299H98.5712C98.4903 301.935 98.3049 301.622 98.0151 301.359C97.7286 301.096 97.3443 300.965 96.8623 300.965C96.441 300.965 96.0719 301.076 95.755 301.298C95.4416 301.517 95.1972 301.831 95.0219 302.239C94.8466 302.643 94.759 303.122 94.759 303.675C94.759 304.241 94.8449 304.73 95.0169 305.141C95.1888 305.552 95.4314 305.871 95.7449 306.096C96.0618 306.322 96.4342 306.435 96.8623 306.435C97.1488 306.435 97.4083 306.383 97.6409 306.278C97.8769 306.171 98.074 306.017 98.2325 305.818C98.3943 305.619 98.5072 305.38 98.5712 305.1H100.043C99.9886 305.603 99.8251 306.051 99.5521 306.445C99.2791 306.84 98.9133 307.15 98.4549 307.376C97.9999 307.601 97.4656 307.714 96.8522 307.714ZM103.171 297.203V307.558H101.659V297.203H103.171ZM105.205 307.558V299.792H106.716V307.558H105.205ZM105.968 298.593C105.705 298.593 105.479 298.506 105.291 298.33C105.105 298.152 105.013 297.939 105.013 297.693C105.013 297.444 105.105 297.232 105.291 297.056C105.479 296.878 105.705 296.788 105.968 296.788C106.231 296.788 106.455 296.878 106.641 297.056C106.829 297.232 106.924 297.444 106.924 297.693C106.924 297.939 106.829 298.152 106.641 298.33C106.455 298.506 106.231 298.593 105.968 298.593ZM110.262 302.947V307.558H108.75V299.792H110.201V301.056H110.297C110.476 300.644 110.756 300.314 111.137 300.065C111.521 299.815 112.005 299.69 112.588 299.69C113.117 299.69 113.58 299.802 113.978 300.024C114.376 300.243 114.684 300.57 114.903 301.005C115.122 301.44 115.232 301.977 115.232 302.618V307.558H113.72V302.8C113.72 302.237 113.574 301.797 113.28 301.48C112.987 301.16 112.584 301 112.072 301C111.721 301 111.41 301.076 111.137 301.228C110.867 301.379 110.653 301.602 110.495 301.895C110.339 302.185 110.262 302.535 110.262 302.947ZM120.607 307.714C119.841 307.714 119.182 307.551 118.63 307.224C118.08 306.894 117.656 306.43 117.356 305.834C117.059 305.234 116.911 304.531 116.911 303.725C116.911 302.93 117.059 302.229 117.356 301.622C117.656 301.015 118.073 300.542 118.609 300.201C119.149 299.861 119.779 299.69 120.5 299.69C120.939 299.69 121.363 299.763 121.774 299.908C122.186 300.053 122.555 300.28 122.882 300.59C123.209 300.901 123.467 301.303 123.655 301.799C123.844 302.291 123.938 302.889 123.938 303.594V304.13H117.765V302.997H122.457C122.457 302.599 122.376 302.247 122.214 301.94C122.053 301.63 121.825 301.386 121.532 301.207C121.242 301.029 120.901 300.939 120.51 300.939C120.086 300.939 119.715 301.044 119.398 301.253C119.085 301.458 118.842 301.728 118.67 302.062C118.502 302.392 118.417 302.751 118.417 303.139V304.023C118.417 304.543 118.508 304.984 118.69 305.348C118.876 305.712 119.134 305.99 119.464 306.182C119.794 306.371 120.18 306.466 120.622 306.466C120.908 306.466 121.169 306.425 121.405 306.344C121.641 306.26 121.845 306.135 122.017 305.97C122.189 305.805 122.321 305.601 122.412 305.358L123.842 305.616C123.728 306.037 123.522 306.407 123.226 306.723C122.932 307.037 122.563 307.281 122.118 307.456C121.677 307.628 121.173 307.714 120.607 307.714ZM128.523 307.709C127.896 307.709 127.337 307.549 126.844 307.229C126.356 306.905 125.971 306.445 125.692 305.849C125.415 305.249 125.277 304.529 125.277 303.69C125.277 302.85 125.417 302.133 125.697 301.536C125.98 300.939 126.367 300.483 126.86 300.166C127.352 299.849 127.91 299.69 128.533 299.69C129.015 299.69 129.403 299.771 129.696 299.933C129.993 300.092 130.222 300.277 130.384 300.489C130.549 300.702 130.677 300.889 130.768 301.051H130.859V297.203H132.371V307.558H130.894V306.349H130.768C130.677 306.514 130.545 306.703 130.373 306.916C130.205 307.128 129.972 307.313 129.676 307.472C129.379 307.63 128.995 307.709 128.523 307.709ZM128.857 306.42C129.291 306.42 129.659 306.305 129.959 306.076C130.262 305.844 130.491 305.522 130.647 305.111C130.805 304.699 130.884 304.221 130.884 303.675C130.884 303.135 130.807 302.663 130.652 302.259C130.497 301.854 130.269 301.539 129.969 301.313C129.669 301.088 129.298 300.975 128.857 300.975C128.402 300.975 128.022 301.093 127.719 301.329C127.416 301.565 127.187 301.886 127.031 302.294C126.88 302.702 126.804 303.162 126.804 303.675C126.804 304.194 126.881 304.661 127.037 305.075C127.192 305.49 127.421 305.818 127.724 306.061C128.031 306.3 128.408 306.42 128.857 306.42Z" fill="#B42318"/>
</g>
<rect x="162.791" y="289.778" width="27.7971" height="25.5594" rx="12.7797" fill="white"/>
<rect x="162.791" y="289.778" width="27.7971" height="25.5594" rx="12.7797" stroke="#EAECF0" stroke-width="1.18648"/>
<path d="M176.703 307.699C176.009 307.699 175.389 307.58 174.842 307.34C174.3 307.101 173.87 306.769 173.553 306.344C173.24 305.916 173.071 305.421 173.048 304.858H174.635C174.655 305.164 174.758 305.431 174.944 305.657C175.132 305.879 175.378 306.051 175.682 306.172C175.985 306.294 176.322 306.354 176.693 306.354C177.101 306.354 177.461 306.284 177.775 306.142C178.092 306 178.34 305.803 178.518 305.55C178.697 305.294 178.786 304.999 178.786 304.666C178.786 304.318 178.697 304.013 178.518 303.75C178.343 303.484 178.085 303.275 177.745 303.124C177.408 302.972 177 302.896 176.521 302.896H175.646V301.622H176.521C176.905 301.622 177.242 301.553 177.532 301.415C177.826 301.276 178.055 301.084 178.22 300.838C178.385 300.589 178.468 300.297 178.468 299.964C178.468 299.643 178.395 299.365 178.25 299.129C178.109 298.89 177.906 298.703 177.643 298.568C177.384 298.433 177.077 298.366 176.723 298.366C176.386 298.366 176.071 298.428 175.778 298.553C175.488 298.674 175.252 298.849 175.07 299.079C174.888 299.305 174.79 299.576 174.777 299.893H173.265C173.282 299.333 173.447 298.841 173.76 298.416C174.077 297.992 174.495 297.66 175.014 297.42C175.533 297.181 176.11 297.061 176.744 297.061C177.408 297.061 177.981 297.191 178.463 297.451C178.948 297.707 179.322 298.049 179.585 298.477C179.851 298.905 179.983 299.374 179.979 299.883C179.983 300.462 179.821 300.954 179.494 301.359C179.17 301.763 178.739 302.035 178.2 302.173V302.254C178.887 302.358 179.42 302.631 179.797 303.073C180.178 303.514 180.367 304.062 180.364 304.716C180.367 305.286 180.209 305.796 179.888 306.248C179.572 306.7 179.138 307.055 178.589 307.315C178.04 307.571 177.411 307.699 176.703 307.699Z" fill="#344054"/>
<mask id="path-40-inside-2_7014_108441" fill="white">
<path d="M0.160156 325.422H330V406.373H0.160156V325.422Z"/>
</mask>
<path d="M0.160156 326.609H330V324.236H0.160156V326.609Z" fill="#EAECF0" mask="url(#path-40-inside-2_7014_108441)"/>
<rect x="19.7368" y="344.999" width="137.631" height="41.7971" rx="4.15266" fill="white"/>
<rect x="19.7368" y="344.999" width="137.631" height="41.7971" rx="4.15266" stroke="#D0D5DD" stroke-width="1.18648"/>
<path d="M72.0846 363.893H69.8785C69.8156 363.531 69.6996 363.211 69.5305 362.931C69.3614 362.648 69.151 362.408 68.8994 362.212C68.6477 362.015 68.3606 361.868 68.0381 361.769C67.7196 361.667 67.3755 361.616 67.0059 361.616C66.3492 361.616 65.7672 361.781 65.2599 362.112C64.7526 362.438 64.3554 362.918 64.0683 363.551C63.7813 364.18 63.6377 364.949 63.6377 365.857C63.6377 366.781 63.7813 367.56 64.0683 368.193C64.3593 368.822 64.7565 369.298 65.2599 369.621C65.7672 369.939 66.3472 370.098 67 370.098C67.3618 370.098 67.7 370.051 68.0146 369.957C68.3331 369.858 68.6182 369.715 68.8699 369.526C69.1255 369.337 69.3398 369.105 69.5128 368.83C69.6898 368.555 69.8117 368.24 69.8785 367.886L72.0846 367.898C72.0021 368.472 71.8231 369.011 71.5479 369.514C71.2765 370.018 70.9206 370.462 70.4802 370.847C70.0398 371.229 69.5246 371.528 68.9347 371.744C68.3449 371.956 67.6901 372.063 66.9705 372.063C65.9087 372.063 64.961 371.817 64.1273 371.325C63.2936 370.834 62.6369 370.124 62.1572 369.196C61.6774 368.268 61.4375 367.155 61.4375 365.857C61.4375 364.556 61.6794 363.443 62.1631 362.519C62.6468 361.591 63.3054 360.881 64.1391 360.389C64.9728 359.898 65.9166 359.652 66.9705 359.652C67.6429 359.652 68.2682 359.746 68.8463 359.935C69.4243 360.124 69.9395 360.401 70.3917 360.767C70.8439 361.128 71.2156 361.573 71.5066 362.1C71.8015 362.623 71.9942 363.221 72.0846 363.893ZM76.6015 372.08C76.0274 372.08 75.5103 371.978 75.0502 371.774C74.594 371.565 74.2322 371.258 73.9648 370.853C73.7014 370.448 73.5696 369.949 73.5696 369.355C73.5696 368.844 73.664 368.421 73.8528 368.087C74.0415 367.753 74.2991 367.485 74.6255 367.285C74.9519 367.084 75.3196 366.933 75.7285 366.831C76.1414 366.724 76.5681 366.648 77.0085 366.6C77.5394 366.545 77.97 366.496 78.3004 366.453C78.6307 366.406 78.8706 366.335 79.02 366.241C79.1734 366.142 79.25 365.991 79.25 365.786V365.751C79.25 365.307 79.1183 364.963 78.8548 364.719C78.5914 364.475 78.2119 364.353 77.7164 364.353C77.1934 364.353 76.7785 364.467 76.4718 364.695C76.169 364.923 75.9645 365.193 75.8583 365.503L73.8646 365.22C74.0219 364.67 74.2814 364.21 74.6432 363.84C75.005 363.466 75.4474 363.187 75.9704 363.002C76.4934 362.814 77.0715 362.719 77.7046 362.719C78.1411 362.719 78.5756 362.77 79.0082 362.872C79.4408 362.975 79.836 363.144 80.1938 363.38C80.5517 363.612 80.8388 363.928 81.055 364.329C81.2753 364.731 81.3854 365.232 81.3854 365.834V371.897H79.3326V370.653H79.2618C79.1321 370.905 78.9492 371.14 78.7133 371.361C78.4813 371.577 78.1883 371.752 77.8344 371.886C77.4844 372.015 77.0734 372.08 76.6015 372.08ZM77.156 370.511C77.5847 370.511 77.9563 370.427 78.2709 370.258C78.5855 370.085 78.8273 369.857 78.9964 369.573C79.1694 369.29 79.2559 368.982 79.2559 368.647V367.58C79.1891 367.635 79.075 367.686 78.9138 367.733C78.7565 367.78 78.5796 367.821 78.3829 367.857C78.1863 367.892 77.9917 367.924 77.799 367.951C77.6063 367.979 77.4392 368.002 77.2976 368.022C76.9791 368.065 76.694 368.136 76.4423 368.234C76.1906 368.333 75.992 368.47 75.8465 368.647C75.701 368.82 75.6283 369.044 75.6283 369.32C75.6283 369.713 75.7718 370.01 76.0589 370.21C76.3459 370.411 76.7116 370.511 77.156 370.511ZM85.6678 366.589V371.897H83.5325V362.837H85.5734V364.377H85.6796C85.888 363.869 86.2203 363.466 86.6765 363.167C87.1366 362.869 87.7048 362.719 88.3812 362.719C89.0064 362.719 89.5511 362.853 90.0151 363.12C90.4831 363.388 90.8449 363.775 91.1005 364.282C91.36 364.79 91.4878 365.405 91.4839 366.129V371.897H89.3486V366.459C89.3486 365.853 89.1913 365.379 88.8767 365.037C88.566 364.695 88.1354 364.524 87.5849 364.524C87.2113 364.524 86.879 364.607 86.588 364.772C86.3009 364.933 86.0748 365.167 85.9096 365.474C85.7484 365.781 85.6678 366.152 85.6678 366.589ZM97.6067 372.074C96.7022 372.074 95.9256 371.876 95.2767 371.479C94.6318 371.081 94.1344 370.533 93.7844 369.833C93.4383 369.129 93.2653 368.319 93.2653 367.403C93.2653 366.482 93.4422 365.67 93.7962 364.967C94.1501 364.259 94.6495 363.708 95.2944 363.315C95.9433 362.918 96.7101 362.719 97.5949 362.719C98.3303 362.719 98.9811 362.855 99.5474 363.126C100.118 363.394 100.572 363.773 100.91 364.265C101.248 364.752 101.441 365.322 101.488 365.975H99.4471C99.3645 365.539 99.1679 365.175 98.8572 364.884C98.5505 364.589 98.1395 364.442 97.6244 364.442C97.1879 364.442 96.8045 364.56 96.4742 364.795C96.1438 365.027 95.8863 365.362 95.7014 365.798C95.5205 366.235 95.4301 366.758 95.4301 367.367C95.4301 367.985 95.5205 368.516 95.7014 368.96C95.8823 369.4 96.136 369.741 96.4624 369.98C96.7927 370.216 97.18 370.334 97.6244 370.334C97.939 370.334 98.2202 370.275 98.4679 370.157C98.7196 370.035 98.93 369.86 99.0991 369.632C99.2682 369.404 99.3842 369.127 99.4471 368.801H101.488C101.437 369.442 101.248 370.01 100.922 370.505C100.595 370.997 100.151 371.382 99.5887 371.662C99.0263 371.937 98.3657 372.074 97.6067 372.074ZM107.253 372.074C106.344 372.074 105.56 371.886 104.899 371.508C104.242 371.127 103.737 370.588 103.383 369.892C103.029 369.192 102.852 368.368 102.852 367.42C102.852 366.488 103.029 365.67 103.383 364.967C103.741 364.259 104.24 363.708 104.881 363.315C105.522 362.918 106.275 362.719 107.14 362.719C107.699 362.719 108.226 362.81 108.721 362.99C109.221 363.167 109.661 363.443 110.043 363.816C110.428 364.19 110.731 364.666 110.951 365.244C111.171 365.818 111.281 366.502 111.281 367.296V367.951H103.855V366.512H109.234C109.231 366.103 109.142 365.739 108.969 365.421C108.796 365.098 108.554 364.845 108.243 364.66C107.937 364.475 107.579 364.383 107.17 364.383C106.733 364.383 106.35 364.489 106.02 364.701C105.689 364.91 105.432 365.185 105.247 365.527C105.066 365.865 104.974 366.237 104.97 366.642V367.898C104.97 368.425 105.066 368.877 105.259 369.255C105.451 369.628 105.721 369.916 106.067 370.116C106.413 370.313 106.818 370.411 107.282 370.411C107.593 370.411 107.874 370.368 108.126 370.281C108.377 370.191 108.595 370.059 108.78 369.886C108.965 369.713 109.105 369.499 109.199 369.243L111.193 369.467C111.067 369.994 110.827 370.454 110.473 370.847C110.123 371.237 109.675 371.54 109.128 371.756C108.582 371.968 107.956 372.074 107.253 372.074ZM115.223 359.817V371.897H113.088V359.817H115.223Z" fill="#1D2939"/>
<rect x="172.792" y="344.999" width="137.631" height="41.7971" rx="4.15266" fill="#158ECC"/>
<rect x="172.792" y="344.999" width="137.631" height="41.7971" rx="4.15266" stroke="#158ECC" stroke-width="1.18648"/>
<path d="M220.851 371.897H218.515L222.768 359.817H225.47L229.729 371.897H227.393L224.166 362.294H224.072L220.851 371.897ZM220.928 367.161H227.299V368.919H220.928V367.161ZM231.226 375.295V362.837H233.325V364.335H233.449C233.559 364.115 233.715 363.881 233.915 363.633C234.116 363.382 234.387 363.167 234.729 362.99C235.071 362.81 235.508 362.719 236.039 362.719C236.739 362.719 237.37 362.898 237.932 363.256C238.499 363.61 238.947 364.135 239.277 364.831C239.612 365.523 239.779 366.372 239.779 367.379C239.779 368.374 239.615 369.219 239.289 369.916C238.963 370.612 238.518 371.142 237.956 371.508C237.394 371.874 236.757 372.057 236.045 372.057C235.526 372.057 235.095 371.97 234.753 371.797C234.411 371.624 234.136 371.416 233.927 371.172C233.723 370.924 233.563 370.69 233.449 370.47H233.361V375.295H231.226ZM233.32 367.367C233.32 367.953 233.402 368.466 233.567 368.907C233.736 369.347 233.978 369.691 234.293 369.939C234.611 370.183 234.997 370.305 235.449 370.305C235.921 370.305 236.316 370.179 236.635 369.927C236.953 369.672 237.193 369.324 237.354 368.883C237.519 368.439 237.602 367.934 237.602 367.367C237.602 366.805 237.521 366.306 237.36 365.869C237.199 365.433 236.959 365.09 236.641 364.843C236.322 364.595 235.925 364.471 235.449 364.471C234.993 364.471 234.606 364.591 234.287 364.831C233.968 365.071 233.727 365.407 233.561 365.84C233.4 366.272 233.32 366.781 233.32 367.367ZM241.607 375.295V362.837H243.707V364.335H243.831C243.941 364.115 244.096 363.881 244.297 363.633C244.498 363.382 244.769 363.167 245.111 362.99C245.453 362.81 245.89 362.719 246.421 362.719C247.121 362.719 247.752 362.898 248.314 363.256C248.88 363.61 249.329 364.135 249.659 364.831C249.993 365.523 250.16 366.372 250.16 367.379C250.16 368.374 249.997 369.219 249.671 369.916C249.344 370.612 248.9 371.142 248.338 371.508C247.775 371.874 247.138 372.057 246.426 372.057C245.907 372.057 245.477 371.97 245.135 371.797C244.793 371.624 244.517 371.416 244.309 371.172C244.104 370.924 243.945 370.69 243.831 370.47H243.743V375.295H241.607ZM243.701 367.367C243.701 367.953 243.784 368.466 243.949 368.907C244.118 369.347 244.36 369.691 244.675 369.939C244.993 370.183 245.378 370.305 245.831 370.305C246.303 370.305 246.698 370.179 247.016 369.927C247.335 369.672 247.575 369.324 247.736 368.883C247.901 368.439 247.984 367.934 247.984 367.367C247.984 366.805 247.903 366.306 247.742 365.869C247.581 365.433 247.341 365.09 247.022 364.843C246.704 364.595 246.306 364.471 245.831 364.471C245.375 364.471 244.987 364.591 244.669 364.831C244.35 365.071 244.108 365.407 243.943 365.84C243.782 366.272 243.701 366.781 243.701 367.367ZM254.124 359.817V371.897H251.989V359.817H254.124ZM257.647 375.295C257.356 375.295 257.087 375.272 256.839 375.224C256.595 375.181 256.401 375.13 256.255 375.071L256.751 373.408C257.061 373.498 257.338 373.541 257.582 373.537C257.826 373.533 258.04 373.457 258.225 373.307C258.414 373.162 258.573 372.918 258.703 372.576L258.886 372.086L255.6 362.837H257.865L259.954 369.68H260.048L262.142 362.837H264.413L260.785 372.995C260.616 373.474 260.392 373.885 260.113 374.227C259.834 374.573 259.492 374.837 259.086 375.018C258.685 375.203 258.206 375.295 257.647 375.295Z" fill="white"/>
</g>
</g>
<rect x="0.753394" y="1.16306" width="328.654" height="409.363" rx="29.4068" stroke="#EAECF0" stroke-width="1.18648"/>
<defs>
<clipPath id="clip0_7014_108441">
<rect x="0.160156" y="0.569824" width="329.84" height="410.549" rx="30" fill="white"/>
</clipPath>
<clipPath id="clip1_7014_108441">
<rect width="329.84" height="410.549" fill="white" transform="translate(0.160156 0.569824)"/>
</clipPath>
</defs>
</svg>
